G04 #@! TF.GenerationSoftware,KiCad,Pcbnew,5.1.4+dfsg1-1~bpo10+1*
G04 #@! TF.CreationDate,2020-02-13T12:35:02+01:00*
G04 #@! TF.ProjectId,qomu-board,716f6d75-2d62-46f6-9172-642e6b696361,rev?*
G04 #@! TF.SameCoordinates,Original*
G04 #@! TF.FileFunction,Copper,L1,Top*
G04 #@! TF.FilePolarity,Positive*
%FSLAX46Y46*%
G04 Gerber Fmt 4.6, Leading zero omitted, Abs format (unit mm)*
G04 Created by KiCad (PCBNEW 5.1.4+dfsg1-1~bpo10+1) date 2020-02-13 12:35:02*
%MOMM*%
%LPD*%
G04 APERTURE LIST*
%ADD10C,0.150000*%
%ADD11C,0.010000*%
%ADD12C,1.200000*%
%ADD13C,1.100000*%
%ADD14O,1.250000X1.500000*%
%ADD15R,1.250000X1.500000*%
%ADD16R,7.500000X2.250000*%
%ADD17R,7.500000X1.750000*%
%ADD18C,0.883882*%
%ADD19C,0.100000*%
%ADD20R,1.000000X1.000000*%
%ADD21C,0.350000*%
%ADD22C,0.300000*%
%ADD23C,0.200000*%
%ADD24C,0.254000*%
G04 APERTURE END LIST*
D10*
X26175000Y-20626979D02*
X26641666Y-20518645D01*
X26175000Y-20293645D01*
X26575000Y-20076979D02*
X26608333Y-20047812D01*
X26641666Y-20085312D01*
X26608333Y-20114479D01*
X26575000Y-20076979D01*
X26641666Y-20085312D01*
X26641666Y-19385312D02*
X26641666Y-19785312D01*
X26641666Y-19585312D02*
X25941666Y-19497812D01*
X26041666Y-19576979D01*
X26108333Y-19651979D01*
X26141666Y-19722812D01*
X26575000Y-19076979D02*
X26608333Y-19047812D01*
X26641666Y-19085312D01*
X26608333Y-19114479D01*
X26575000Y-19076979D01*
X26641666Y-19085312D01*
X26641666Y-18385312D02*
X26641666Y-18785312D01*
X26641666Y-18585312D02*
X25941666Y-18497812D01*
X26041666Y-18576979D01*
X26108333Y-18651979D01*
X26141666Y-18722812D01*
X25960714Y-24943794D02*
X26960714Y-25068794D01*
X26579761Y-25021175D02*
X26627380Y-25122366D01*
X26627380Y-25312842D01*
X26579761Y-25402127D01*
X26532142Y-25443794D01*
X26436904Y-25479508D01*
X26151190Y-25443794D01*
X26055952Y-25384270D01*
X26008333Y-25330699D01*
X25960714Y-25229508D01*
X25960714Y-25039032D01*
X26008333Y-24949747D01*
X26627380Y-24408080D02*
X26579761Y-24497366D01*
X26532142Y-24539032D01*
X26436904Y-24574747D01*
X26151190Y-24539032D01*
X26055952Y-24479508D01*
X26008333Y-24425937D01*
X25960714Y-24324747D01*
X25960714Y-24181889D01*
X26008333Y-24092604D01*
X26055952Y-24050937D01*
X26151190Y-24015223D01*
X26436904Y-24050937D01*
X26532142Y-24110461D01*
X26579761Y-24164032D01*
X26627380Y-24265223D01*
X26627380Y-24408080D01*
X26627380Y-23646175D02*
X25960714Y-23562842D01*
X26055952Y-23574747D02*
X26008333Y-23521175D01*
X25960714Y-23419985D01*
X25960714Y-23277127D01*
X26008333Y-23187842D01*
X26103571Y-23152127D01*
X26627380Y-23217604D01*
X26103571Y-23152127D02*
X26008333Y-23092604D01*
X25960714Y-22991413D01*
X25960714Y-22848556D01*
X26008333Y-22759270D01*
X26103571Y-22723556D01*
X26627380Y-22789032D01*
X25960714Y-21800937D02*
X26627380Y-21884270D01*
X25960714Y-22229508D02*
X26484523Y-22294985D01*
X26579761Y-22259270D01*
X26627380Y-22169985D01*
X26627380Y-22027127D01*
X26579761Y-21925937D01*
X26532142Y-21872366D01*
D11*
G36*
X42058752Y-19167400D02*
G01*
X42066334Y-19150052D01*
X42099128Y-19108644D01*
X42146547Y-19073235D01*
X42197151Y-19051336D01*
X42222098Y-19047771D01*
X42256927Y-19059721D01*
X42275357Y-19085933D01*
X42286516Y-19114036D01*
X42288572Y-19126905D01*
X42273649Y-19133171D01*
X42241175Y-19145544D01*
X42226502Y-19150972D01*
X42175744Y-19181410D01*
X42150427Y-19225480D01*
X42151206Y-19281990D01*
X42152203Y-19286175D01*
X42166507Y-19316345D01*
X42194393Y-19338524D01*
X42239287Y-19353673D01*
X42304615Y-19362750D01*
X42393804Y-19366714D01*
X42441261Y-19367086D01*
X42516071Y-19367270D01*
X42567069Y-19368478D01*
X42599471Y-19371691D01*
X42618495Y-19377891D01*
X42629356Y-19388060D01*
X42637272Y-19403181D01*
X42637670Y-19404054D01*
X42649981Y-19433172D01*
X42654514Y-19447597D01*
X42640809Y-19449814D01*
X42602925Y-19451711D01*
X42545715Y-19453153D01*
X42474027Y-19454002D01*
X42421565Y-19454171D01*
X42320047Y-19453308D01*
X42243032Y-19449930D01*
X42186023Y-19442858D01*
X42144526Y-19430912D01*
X42114043Y-19412910D01*
X42090080Y-19387673D01*
X42073355Y-19362753D01*
X42051097Y-19302829D01*
X42046076Y-19233089D01*
X42058752Y-19167400D01*
X42058752Y-19167400D01*
G37*
X42058752Y-19167400D02*
X42066334Y-19150052D01*
X42099128Y-19108644D01*
X42146547Y-19073235D01*
X42197151Y-19051336D01*
X42222098Y-19047771D01*
X42256927Y-19059721D01*
X42275357Y-19085933D01*
X42286516Y-19114036D01*
X42288572Y-19126905D01*
X42273649Y-19133171D01*
X42241175Y-19145544D01*
X42226502Y-19150972D01*
X42175744Y-19181410D01*
X42150427Y-19225480D01*
X42151206Y-19281990D01*
X42152203Y-19286175D01*
X42166507Y-19316345D01*
X42194393Y-19338524D01*
X42239287Y-19353673D01*
X42304615Y-19362750D01*
X42393804Y-19366714D01*
X42441261Y-19367086D01*
X42516071Y-19367270D01*
X42567069Y-19368478D01*
X42599471Y-19371691D01*
X42618495Y-19377891D01*
X42629356Y-19388060D01*
X42637272Y-19403181D01*
X42637670Y-19404054D01*
X42649981Y-19433172D01*
X42654514Y-19447597D01*
X42640809Y-19449814D01*
X42602925Y-19451711D01*
X42545715Y-19453153D01*
X42474027Y-19454002D01*
X42421565Y-19454171D01*
X42320047Y-19453308D01*
X42243032Y-19449930D01*
X42186023Y-19442858D01*
X42144526Y-19430912D01*
X42114043Y-19412910D01*
X42090080Y-19387673D01*
X42073355Y-19362753D01*
X42051097Y-19302829D01*
X42046076Y-19233089D01*
X42058752Y-19167400D01*
G36*
X41951289Y-22444114D02*
G01*
X42010613Y-22439861D01*
X42045572Y-22434975D01*
X42060820Y-22428205D01*
X42061015Y-22418298D01*
X42059195Y-22415086D01*
X42046015Y-22372356D01*
X42046785Y-22316773D01*
X42060333Y-22260263D01*
X42077861Y-22224918D01*
X42105861Y-22188679D01*
X42137549Y-22162187D01*
X42177813Y-22144001D01*
X42231543Y-22132678D01*
X42303626Y-22126778D01*
X42398951Y-22124857D01*
X42417237Y-22124823D01*
X42622646Y-22124800D01*
X42638580Y-22170509D01*
X42649420Y-22202973D01*
X42654468Y-22220785D01*
X42654514Y-22221309D01*
X42640828Y-22223063D01*
X42603076Y-22224556D01*
X42546224Y-22225674D01*
X42475234Y-22226303D01*
X42432073Y-22226400D01*
X42346973Y-22226602D01*
X42285981Y-22227642D01*
X42244177Y-22230169D01*
X42216642Y-22234836D01*
X42198456Y-22242293D01*
X42184698Y-22253189D01*
X42178073Y-22259993D01*
X42151375Y-22306728D01*
X42149375Y-22357728D01*
X42171955Y-22403999D01*
X42180107Y-22412556D01*
X42195436Y-22425107D01*
X42213618Y-22433812D01*
X42239909Y-22439369D01*
X42279562Y-22442474D01*
X42337832Y-22443824D01*
X42418173Y-22444114D01*
X42622646Y-22444114D01*
X42638580Y-22489823D01*
X42649420Y-22522287D01*
X42654468Y-22540099D01*
X42654514Y-22540623D01*
X42640623Y-22541963D01*
X42601439Y-22543172D01*
X42540700Y-22544199D01*
X42462141Y-22544998D01*
X42369498Y-22545519D01*
X42266509Y-22545714D01*
X41869342Y-22545714D01*
X41849444Y-22498543D01*
X41829547Y-22451371D01*
X41951289Y-22444114D01*
X41951289Y-22444114D01*
G37*
X41951289Y-22444114D02*
X42010613Y-22439861D01*
X42045572Y-22434975D01*
X42060820Y-22428205D01*
X42061015Y-22418298D01*
X42059195Y-22415086D01*
X42046015Y-22372356D01*
X42046785Y-22316773D01*
X42060333Y-22260263D01*
X42077861Y-22224918D01*
X42105861Y-22188679D01*
X42137549Y-22162187D01*
X42177813Y-22144001D01*
X42231543Y-22132678D01*
X42303626Y-22126778D01*
X42398951Y-22124857D01*
X42417237Y-22124823D01*
X42622646Y-22124800D01*
X42638580Y-22170509D01*
X42649420Y-22202973D01*
X42654468Y-22220785D01*
X42654514Y-22221309D01*
X42640828Y-22223063D01*
X42603076Y-22224556D01*
X42546224Y-22225674D01*
X42475234Y-22226303D01*
X42432073Y-22226400D01*
X42346973Y-22226602D01*
X42285981Y-22227642D01*
X42244177Y-22230169D01*
X42216642Y-22234836D01*
X42198456Y-22242293D01*
X42184698Y-22253189D01*
X42178073Y-22259993D01*
X42151375Y-22306728D01*
X42149375Y-22357728D01*
X42171955Y-22403999D01*
X42180107Y-22412556D01*
X42195436Y-22425107D01*
X42213618Y-22433812D01*
X42239909Y-22439369D01*
X42279562Y-22442474D01*
X42337832Y-22443824D01*
X42418173Y-22444114D01*
X42622646Y-22444114D01*
X42638580Y-22489823D01*
X42649420Y-22522287D01*
X42654468Y-22540099D01*
X42654514Y-22540623D01*
X42640623Y-22541963D01*
X42601439Y-22543172D01*
X42540700Y-22544199D01*
X42462141Y-22544998D01*
X42369498Y-22545519D01*
X42266509Y-22545714D01*
X41869342Y-22545714D01*
X41849444Y-22498543D01*
X41829547Y-22451371D01*
X41951289Y-22444114D01*
G36*
X42058663Y-20040167D02*
G01*
X42096850Y-20037952D01*
X42154886Y-20036216D01*
X42228180Y-20035101D01*
X42305055Y-20034743D01*
X42565196Y-20034743D01*
X42611127Y-20080674D01*
X42639429Y-20112325D01*
X42650893Y-20140110D01*
X42650168Y-20178085D01*
X42648321Y-20193160D01*
X42642948Y-20240274D01*
X42639869Y-20279244D01*
X42639585Y-20288743D01*
X42641445Y-20320767D01*
X42646114Y-20366568D01*
X42648321Y-20384326D01*
X42651735Y-20427943D01*
X42644320Y-20457255D01*
X42621427Y-20486320D01*
X42611127Y-20496812D01*
X42565196Y-20542743D01*
X42078602Y-20542743D01*
X42061758Y-20505774D01*
X42049282Y-20473941D01*
X42044914Y-20455317D01*
X42058718Y-20450542D01*
X42097286Y-20446079D01*
X42156356Y-20442225D01*
X42231663Y-20439278D01*
X42295286Y-20437857D01*
X42545657Y-20433886D01*
X42550556Y-20399241D01*
X42547131Y-20367732D01*
X42536041Y-20352292D01*
X42515308Y-20347977D01*
X42471145Y-20344292D01*
X42409146Y-20341531D01*
X42334909Y-20339988D01*
X42296706Y-20339765D01*
X42076783Y-20339543D01*
X42060849Y-20293834D01*
X42050015Y-20261482D01*
X42044962Y-20243885D01*
X42044914Y-20243377D01*
X42058648Y-20241612D01*
X42096730Y-20239671D01*
X42154482Y-20237718D01*
X42227227Y-20235916D01*
X42295286Y-20234657D01*
X42545657Y-20230686D01*
X42545657Y-20143600D01*
X42317240Y-20139604D01*
X42088822Y-20135608D01*
X42066868Y-20093153D01*
X42051793Y-20061808D01*
X42044951Y-20043256D01*
X42044914Y-20042721D01*
X42058663Y-20040167D01*
X42058663Y-20040167D01*
G37*
X42058663Y-20040167D02*
X42096850Y-20037952D01*
X42154886Y-20036216D01*
X42228180Y-20035101D01*
X42305055Y-20034743D01*
X42565196Y-20034743D01*
X42611127Y-20080674D01*
X42639429Y-20112325D01*
X42650893Y-20140110D01*
X42650168Y-20178085D01*
X42648321Y-20193160D01*
X42642948Y-20240274D01*
X42639869Y-20279244D01*
X42639585Y-20288743D01*
X42641445Y-20320767D01*
X42646114Y-20366568D01*
X42648321Y-20384326D01*
X42651735Y-20427943D01*
X42644320Y-20457255D01*
X42621427Y-20486320D01*
X42611127Y-20496812D01*
X42565196Y-20542743D01*
X42078602Y-20542743D01*
X42061758Y-20505774D01*
X42049282Y-20473941D01*
X42044914Y-20455317D01*
X42058718Y-20450542D01*
X42097286Y-20446079D01*
X42156356Y-20442225D01*
X42231663Y-20439278D01*
X42295286Y-20437857D01*
X42545657Y-20433886D01*
X42550556Y-20399241D01*
X42547131Y-20367732D01*
X42536041Y-20352292D01*
X42515308Y-20347977D01*
X42471145Y-20344292D01*
X42409146Y-20341531D01*
X42334909Y-20339988D01*
X42296706Y-20339765D01*
X42076783Y-20339543D01*
X42060849Y-20293834D01*
X42050015Y-20261482D01*
X42044962Y-20243885D01*
X42044914Y-20243377D01*
X42058648Y-20241612D01*
X42096730Y-20239671D01*
X42154482Y-20237718D01*
X42227227Y-20235916D01*
X42295286Y-20234657D01*
X42545657Y-20230686D01*
X42545657Y-20143600D01*
X42317240Y-20139604D01*
X42088822Y-20135608D01*
X42066868Y-20093153D01*
X42051793Y-20061808D01*
X42044951Y-20043256D01*
X42044914Y-20042721D01*
X42058663Y-20040167D01*
G36*
X42056335Y-19675124D02*
G01*
X42075344Y-19633333D01*
X42098378Y-19600531D01*
X42124133Y-19576497D01*
X42157358Y-19559903D01*
X42202800Y-19549423D01*
X42265207Y-19543729D01*
X42349327Y-19541493D01*
X42404721Y-19541257D01*
X42620826Y-19541257D01*
X42637670Y-19578226D01*
X42649981Y-19607344D01*
X42654514Y-19621769D01*
X42641025Y-19624528D01*
X42604653Y-19626718D01*
X42551542Y-19628058D01*
X42509372Y-19628343D01*
X42448447Y-19629566D01*
X42400115Y-19632864D01*
X42370518Y-19637679D01*
X42364229Y-19641504D01*
X42370652Y-19667217D01*
X42387125Y-19707582D01*
X42409458Y-19754321D01*
X42433457Y-19799155D01*
X42454930Y-19833807D01*
X42469685Y-19849998D01*
X42469845Y-19850062D01*
X42497152Y-19848670D01*
X42523219Y-19836182D01*
X42544392Y-19814257D01*
X42551474Y-19782257D01*
X42550649Y-19754908D01*
X42550042Y-19716174D01*
X42559116Y-19695842D01*
X42583092Y-19683631D01*
X42587613Y-19682091D01*
X42621806Y-19676797D01*
X42642568Y-19690953D01*
X42652462Y-19727852D01*
X42654292Y-19767711D01*
X42640727Y-19839438D01*
X42621355Y-19876568D01*
X42575845Y-19922424D01*
X42519983Y-19946744D01*
X42460957Y-19948927D01*
X42405953Y-19928371D01*
X42371486Y-19897451D01*
X42352189Y-19866580D01*
X42327759Y-19818058D01*
X42302985Y-19761515D01*
X42299199Y-19752090D01*
X42271791Y-19689981D01*
X42247634Y-19654178D01*
X42223619Y-19642663D01*
X42196635Y-19653420D01*
X42175543Y-19671886D01*
X42149572Y-19715531D01*
X42147624Y-19763554D01*
X42167637Y-19807594D01*
X42207551Y-19839291D01*
X42217848Y-19843451D01*
X42255724Y-19867673D01*
X42283842Y-19903035D01*
X42306917Y-19947657D01*
X42241485Y-19947657D01*
X42201506Y-19945031D01*
X42169997Y-19933770D01*
X42136378Y-19908801D01*
X42110484Y-19884831D01*
X42073817Y-19847559D01*
X42054121Y-19818599D01*
X42046220Y-19787495D01*
X42044914Y-19752287D01*
X42056335Y-19675124D01*
X42056335Y-19675124D01*
G37*
X42056335Y-19675124D02*
X42075344Y-19633333D01*
X42098378Y-19600531D01*
X42124133Y-19576497D01*
X42157358Y-19559903D01*
X42202800Y-19549423D01*
X42265207Y-19543729D01*
X42349327Y-19541493D01*
X42404721Y-19541257D01*
X42620826Y-19541257D01*
X42637670Y-19578226D01*
X42649981Y-19607344D01*
X42654514Y-19621769D01*
X42641025Y-19624528D01*
X42604653Y-19626718D01*
X42551542Y-19628058D01*
X42509372Y-19628343D01*
X42448447Y-19629566D01*
X42400115Y-19632864D01*
X42370518Y-19637679D01*
X42364229Y-19641504D01*
X42370652Y-19667217D01*
X42387125Y-19707582D01*
X42409458Y-19754321D01*
X42433457Y-19799155D01*
X42454930Y-19833807D01*
X42469685Y-19849998D01*
X42469845Y-19850062D01*
X42497152Y-19848670D01*
X42523219Y-19836182D01*
X42544392Y-19814257D01*
X42551474Y-19782257D01*
X42550649Y-19754908D01*
X42550042Y-19716174D01*
X42559116Y-19695842D01*
X42583092Y-19683631D01*
X42587613Y-19682091D01*
X42621806Y-19676797D01*
X42642568Y-19690953D01*
X42652462Y-19727852D01*
X42654292Y-19767711D01*
X42640727Y-19839438D01*
X42621355Y-19876568D01*
X42575845Y-19922424D01*
X42519983Y-19946744D01*
X42460957Y-19948927D01*
X42405953Y-19928371D01*
X42371486Y-19897451D01*
X42352189Y-19866580D01*
X42327759Y-19818058D01*
X42302985Y-19761515D01*
X42299199Y-19752090D01*
X42271791Y-19689981D01*
X42247634Y-19654178D01*
X42223619Y-19642663D01*
X42196635Y-19653420D01*
X42175543Y-19671886D01*
X42149572Y-19715531D01*
X42147624Y-19763554D01*
X42167637Y-19807594D01*
X42207551Y-19839291D01*
X42217848Y-19843451D01*
X42255724Y-19867673D01*
X42283842Y-19903035D01*
X42306917Y-19947657D01*
X42241485Y-19947657D01*
X42201506Y-19945031D01*
X42169997Y-19933770D01*
X42136378Y-19908801D01*
X42110484Y-19884831D01*
X42073817Y-19847559D01*
X42054121Y-19818599D01*
X42046220Y-19787495D01*
X42044914Y-19752287D01*
X42056335Y-19675124D01*
G36*
X42049755Y-21290074D02*
G01*
X42074084Y-21224142D01*
X42117117Y-21170727D01*
X42147409Y-21149836D01*
X42202994Y-21127061D01*
X42243186Y-21127534D01*
X42270217Y-21151438D01*
X42274813Y-21160283D01*
X42289144Y-21198470D01*
X42285472Y-21217972D01*
X42261407Y-21224578D01*
X42248114Y-21224914D01*
X42199210Y-21237008D01*
X42164999Y-21268529D01*
X42148476Y-21312341D01*
X42152634Y-21361305D01*
X42174227Y-21401106D01*
X42186544Y-21414550D01*
X42201487Y-21424079D01*
X42224075Y-21430515D01*
X42259328Y-21434683D01*
X42312266Y-21437403D01*
X42387907Y-21439498D01*
X42411857Y-21440040D01*
X42493790Y-21442019D01*
X42551455Y-21444269D01*
X42589608Y-21447643D01*
X42613004Y-21452994D01*
X42626398Y-21461176D01*
X42634545Y-21473041D01*
X42638144Y-21480638D01*
X42650452Y-21512898D01*
X42654514Y-21531889D01*
X42640948Y-21538164D01*
X42599934Y-21541994D01*
X42530999Y-21543400D01*
X42433669Y-21542402D01*
X42418657Y-21542092D01*
X42329859Y-21539899D01*
X42265019Y-21537307D01*
X42219067Y-21533618D01*
X42186935Y-21528136D01*
X42163553Y-21520165D01*
X42143852Y-21509007D01*
X42135410Y-21503170D01*
X42098057Y-21469704D01*
X42069003Y-21432273D01*
X42066467Y-21427691D01*
X42046443Y-21360574D01*
X42049755Y-21290074D01*
X42049755Y-21290074D01*
G37*
X42049755Y-21290074D02*
X42074084Y-21224142D01*
X42117117Y-21170727D01*
X42147409Y-21149836D01*
X42202994Y-21127061D01*
X42243186Y-21127534D01*
X42270217Y-21151438D01*
X42274813Y-21160283D01*
X42289144Y-21198470D01*
X42285472Y-21217972D01*
X42261407Y-21224578D01*
X42248114Y-21224914D01*
X42199210Y-21237008D01*
X42164999Y-21268529D01*
X42148476Y-21312341D01*
X42152634Y-21361305D01*
X42174227Y-21401106D01*
X42186544Y-21414550D01*
X42201487Y-21424079D01*
X42224075Y-21430515D01*
X42259328Y-21434683D01*
X42312266Y-21437403D01*
X42387907Y-21439498D01*
X42411857Y-21440040D01*
X42493790Y-21442019D01*
X42551455Y-21444269D01*
X42589608Y-21447643D01*
X42613004Y-21452994D01*
X42626398Y-21461176D01*
X42634545Y-21473041D01*
X42638144Y-21480638D01*
X42650452Y-21512898D01*
X42654514Y-21531889D01*
X42640948Y-21538164D01*
X42599934Y-21541994D01*
X42530999Y-21543400D01*
X42433669Y-21542402D01*
X42418657Y-21542092D01*
X42329859Y-21539899D01*
X42265019Y-21537307D01*
X42219067Y-21533618D01*
X42186935Y-21528136D01*
X42163553Y-21520165D01*
X42143852Y-21509007D01*
X42135410Y-21503170D01*
X42098057Y-21469704D01*
X42069003Y-21432273D01*
X42066467Y-21427691D01*
X42046443Y-21360574D01*
X42049755Y-21290074D01*
G36*
X42021962Y-24778885D02*
G01*
X42057733Y-24710855D01*
X42115301Y-24660649D01*
X42152312Y-24642815D01*
X42207882Y-24628937D01*
X42278096Y-24621833D01*
X42354727Y-24621160D01*
X42429552Y-24626573D01*
X42494342Y-24637730D01*
X42540873Y-24654286D01*
X42548887Y-24659374D01*
X42608707Y-24719645D01*
X42644535Y-24791231D01*
X42655020Y-24868908D01*
X42638810Y-24947452D01*
X42629092Y-24969311D01*
X42599143Y-25011878D01*
X42559433Y-25049237D01*
X42554397Y-25052768D01*
X42530124Y-25067119D01*
X42504178Y-25076606D01*
X42470022Y-25082210D01*
X42421119Y-25084914D01*
X42350935Y-25085701D01*
X42335200Y-25085714D01*
X42330192Y-25085678D01*
X42330192Y-24940571D01*
X42396430Y-24939727D01*
X42440386Y-24936404D01*
X42468779Y-24929417D01*
X42488325Y-24917584D01*
X42494857Y-24911543D01*
X42519680Y-24876814D01*
X42518548Y-24843097D01*
X42497016Y-24809005D01*
X42474029Y-24788671D01*
X42440478Y-24776629D01*
X42387569Y-24769866D01*
X42381399Y-24769402D01*
X42285513Y-24768248D01*
X42214299Y-24780312D01*
X42168194Y-24805430D01*
X42147635Y-24843440D01*
X42146514Y-24857008D01*
X42152152Y-24892636D01*
X42171686Y-24917006D01*
X42209042Y-24931907D01*
X42268150Y-24939125D01*
X42330192Y-24940571D01*
X42330192Y-25085678D01*
X42260413Y-25085174D01*
X42208159Y-25082904D01*
X42171949Y-25077932D01*
X42145299Y-25069287D01*
X42121722Y-25055995D01*
X42117338Y-25053057D01*
X42058249Y-25003687D01*
X42023947Y-24949891D01*
X42010331Y-24884398D01*
X42009665Y-24862158D01*
X42021962Y-24778885D01*
X42021962Y-24778885D01*
G37*
X42021962Y-24778885D02*
X42057733Y-24710855D01*
X42115301Y-24660649D01*
X42152312Y-24642815D01*
X42207882Y-24628937D01*
X42278096Y-24621833D01*
X42354727Y-24621160D01*
X42429552Y-24626573D01*
X42494342Y-24637730D01*
X42540873Y-24654286D01*
X42548887Y-24659374D01*
X42608707Y-24719645D01*
X42644535Y-24791231D01*
X42655020Y-24868908D01*
X42638810Y-24947452D01*
X42629092Y-24969311D01*
X42599143Y-25011878D01*
X42559433Y-25049237D01*
X42554397Y-25052768D01*
X42530124Y-25067119D01*
X42504178Y-25076606D01*
X42470022Y-25082210D01*
X42421119Y-25084914D01*
X42350935Y-25085701D01*
X42335200Y-25085714D01*
X42330192Y-25085678D01*
X42330192Y-24940571D01*
X42396430Y-24939727D01*
X42440386Y-24936404D01*
X42468779Y-24929417D01*
X42488325Y-24917584D01*
X42494857Y-24911543D01*
X42519680Y-24876814D01*
X42518548Y-24843097D01*
X42497016Y-24809005D01*
X42474029Y-24788671D01*
X42440478Y-24776629D01*
X42387569Y-24769866D01*
X42381399Y-24769402D01*
X42285513Y-24768248D01*
X42214299Y-24780312D01*
X42168194Y-24805430D01*
X42147635Y-24843440D01*
X42146514Y-24857008D01*
X42152152Y-24892636D01*
X42171686Y-24917006D01*
X42209042Y-24931907D01*
X42268150Y-24939125D01*
X42330192Y-24940571D01*
X42330192Y-25085678D01*
X42260413Y-25085174D01*
X42208159Y-25082904D01*
X42171949Y-25077932D01*
X42145299Y-25069287D01*
X42121722Y-25055995D01*
X42117338Y-25053057D01*
X42058249Y-25003687D01*
X42023947Y-24949891D01*
X42010331Y-24884398D01*
X42009665Y-24862158D01*
X42021962Y-24778885D01*
G36*
X42050968Y-21780256D02*
G01*
X42072087Y-21723384D01*
X42072493Y-21722733D01*
X42098380Y-21687560D01*
X42128633Y-21661593D01*
X42168058Y-21643330D01*
X42221462Y-21631268D01*
X42293651Y-21623904D01*
X42389432Y-21619736D01*
X42403078Y-21619371D01*
X42608842Y-21614124D01*
X42631678Y-21658284D01*
X42647110Y-21690237D01*
X42654423Y-21709530D01*
X42654514Y-21710422D01*
X42641022Y-21713761D01*
X42604626Y-21716413D01*
X42551452Y-21718044D01*
X42508393Y-21718400D01*
X42438641Y-21718408D01*
X42394837Y-21721597D01*
X42373944Y-21732712D01*
X42372925Y-21756499D01*
X42388741Y-21797704D01*
X42417815Y-21859914D01*
X42441963Y-21905659D01*
X42462913Y-21929187D01*
X42485747Y-21936104D01*
X42486877Y-21936114D01*
X42526212Y-21924701D01*
X42547462Y-21890908D01*
X42550539Y-21839191D01*
X42550006Y-21801939D01*
X42560735Y-21782297D01*
X42586505Y-21770048D01*
X42619337Y-21762998D01*
X42637966Y-21773158D01*
X42640632Y-21776983D01*
X42651340Y-21812999D01*
X42652856Y-21863434D01*
X42645759Y-21915374D01*
X42632788Y-21952178D01*
X42589585Y-22003062D01*
X42529446Y-22031986D01*
X42482462Y-22037714D01*
X42440082Y-22033343D01*
X42405488Y-22017525D01*
X42374763Y-21986203D01*
X42343990Y-21935322D01*
X42309252Y-21860824D01*
X42307288Y-21856286D01*
X42276287Y-21789179D01*
X42250862Y-21747768D01*
X42228014Y-21730019D01*
X42204745Y-21733893D01*
X42178056Y-21757357D01*
X42171914Y-21764373D01*
X42148100Y-21811370D01*
X42149103Y-21860067D01*
X42172451Y-21902478D01*
X42215675Y-21930616D01*
X42224160Y-21933231D01*
X42265308Y-21958692D01*
X42285128Y-21990999D01*
X42304770Y-22037714D01*
X42253950Y-22037714D01*
X42180082Y-22023504D01*
X42112327Y-21981325D01*
X42089661Y-21959376D01*
X42060569Y-21909483D01*
X42047400Y-21846033D01*
X42050968Y-21780256D01*
X42050968Y-21780256D01*
G37*
X42050968Y-21780256D02*
X42072087Y-21723384D01*
X42072493Y-21722733D01*
X42098380Y-21687560D01*
X42128633Y-21661593D01*
X42168058Y-21643330D01*
X42221462Y-21631268D01*
X42293651Y-21623904D01*
X42389432Y-21619736D01*
X42403078Y-21619371D01*
X42608842Y-21614124D01*
X42631678Y-21658284D01*
X42647110Y-21690237D01*
X42654423Y-21709530D01*
X42654514Y-21710422D01*
X42641022Y-21713761D01*
X42604626Y-21716413D01*
X42551452Y-21718044D01*
X42508393Y-21718400D01*
X42438641Y-21718408D01*
X42394837Y-21721597D01*
X42373944Y-21732712D01*
X42372925Y-21756499D01*
X42388741Y-21797704D01*
X42417815Y-21859914D01*
X42441963Y-21905659D01*
X42462913Y-21929187D01*
X42485747Y-21936104D01*
X42486877Y-21936114D01*
X42526212Y-21924701D01*
X42547462Y-21890908D01*
X42550539Y-21839191D01*
X42550006Y-21801939D01*
X42560735Y-21782297D01*
X42586505Y-21770048D01*
X42619337Y-21762998D01*
X42637966Y-21773158D01*
X42640632Y-21776983D01*
X42651340Y-21812999D01*
X42652856Y-21863434D01*
X42645759Y-21915374D01*
X42632788Y-21952178D01*
X42589585Y-22003062D01*
X42529446Y-22031986D01*
X42482462Y-22037714D01*
X42440082Y-22033343D01*
X42405488Y-22017525D01*
X42374763Y-21986203D01*
X42343990Y-21935322D01*
X42309252Y-21860824D01*
X42307288Y-21856286D01*
X42276287Y-21789179D01*
X42250862Y-21747768D01*
X42228014Y-21730019D01*
X42204745Y-21733893D01*
X42178056Y-21757357D01*
X42171914Y-21764373D01*
X42148100Y-21811370D01*
X42149103Y-21860067D01*
X42172451Y-21902478D01*
X42215675Y-21930616D01*
X42224160Y-21933231D01*
X42265308Y-21958692D01*
X42285128Y-21990999D01*
X42304770Y-22037714D01*
X42253950Y-22037714D01*
X42180082Y-22023504D01*
X42112327Y-21981325D01*
X42089661Y-21959376D01*
X42060569Y-21909483D01*
X42047400Y-21846033D01*
X42050968Y-21780256D01*
G36*
X37342348Y-21716090D02*
G01*
X37342778Y-21637546D01*
X37343942Y-21580702D01*
X37346207Y-21541895D01*
X37349940Y-21517462D01*
X37355506Y-21503738D01*
X37363273Y-21497060D01*
X37373605Y-21493764D01*
X37374943Y-21493444D01*
X37399079Y-21488438D01*
X37446701Y-21479171D01*
X37512741Y-21466608D01*
X37592128Y-21451713D01*
X37679796Y-21435449D01*
X37682875Y-21434881D01*
X37768789Y-21418590D01*
X37844696Y-21403348D01*
X37906045Y-21390139D01*
X37948282Y-21379946D01*
X37966855Y-21373752D01*
X37967184Y-21373457D01*
X37976253Y-21355212D01*
X37991367Y-21317595D01*
X38009262Y-21268729D01*
X38009358Y-21268457D01*
X38032493Y-21206907D01*
X38061965Y-21134343D01*
X38091597Y-21065943D01*
X38093062Y-21062706D01*
X38143626Y-20951298D01*
X37975160Y-20704601D01*
X37923803Y-20628923D01*
X37877889Y-20560369D01*
X37840030Y-20502912D01*
X37812837Y-20460524D01*
X37798921Y-20437175D01*
X37797889Y-20434958D01*
X37802484Y-20417990D01*
X37824655Y-20386299D01*
X37865447Y-20338648D01*
X37925905Y-20273802D01*
X37990227Y-20207603D01*
X38053612Y-20143786D01*
X38111451Y-20086671D01*
X38160175Y-20039695D01*
X38196210Y-20006297D01*
X38215984Y-19989915D01*
X38217002Y-19989306D01*
X38230572Y-19987495D01*
X38252733Y-19994317D01*
X38286478Y-20011460D01*
X38334800Y-20040607D01*
X38400692Y-20083445D01*
X38485517Y-20140552D01*
X38560177Y-20191234D01*
X38627140Y-20236539D01*
X38682516Y-20273850D01*
X38722420Y-20300548D01*
X38742962Y-20314015D01*
X38744356Y-20314863D01*
X38764038Y-20313219D01*
X38802293Y-20300755D01*
X38851889Y-20279952D01*
X38867728Y-20272538D01*
X38938290Y-20240186D01*
X39018353Y-20205672D01*
X39087629Y-20177635D01*
X39139045Y-20157432D01*
X39178119Y-20141385D01*
X39198541Y-20132112D01*
X39200114Y-20130959D01*
X39202721Y-20113904D01*
X39209863Y-20073702D01*
X39220523Y-20015698D01*
X39233685Y-19945237D01*
X39248333Y-19867665D01*
X39263449Y-19788328D01*
X39278018Y-19712569D01*
X39291022Y-19645736D01*
X39301445Y-19593172D01*
X39308270Y-19560224D01*
X39310199Y-19552143D01*
X39314962Y-19543795D01*
X39325718Y-19537494D01*
X39346098Y-19532955D01*
X39379734Y-19529896D01*
X39430255Y-19528033D01*
X39501292Y-19527082D01*
X39596476Y-19526760D01*
X39635492Y-19526743D01*
X39952799Y-19526743D01*
X39967839Y-19602943D01*
X39975995Y-19645337D01*
X39987899Y-19708600D01*
X40002116Y-19785038D01*
X40017210Y-19866957D01*
X40021355Y-19889600D01*
X40036053Y-19965194D01*
X40050505Y-20031047D01*
X40063375Y-20081634D01*
X40073322Y-20111426D01*
X40076287Y-20116388D01*
X40097283Y-20128574D01*
X40137967Y-20146047D01*
X40190322Y-20165423D01*
X40201600Y-20169266D01*
X40271523Y-20194661D01*
X40350418Y-20226183D01*
X40421266Y-20257031D01*
X40421595Y-20257183D01*
X40532733Y-20308553D01*
X40781253Y-20139601D01*
X41029772Y-19970648D01*
X41247058Y-20187571D01*
X41311726Y-20253181D01*
X41368733Y-20313021D01*
X41415033Y-20363733D01*
X41447584Y-20401954D01*
X41463343Y-20424325D01*
X41464343Y-20427534D01*
X41456469Y-20446374D01*
X41434578Y-20484820D01*
X41401267Y-20538670D01*
X41359131Y-20603724D01*
X41311943Y-20674060D01*
X41263810Y-20745445D01*
X41221928Y-20809092D01*
X41188871Y-20860959D01*
X41167218Y-20897005D01*
X41159543Y-20913133D01*
X41166037Y-20932811D01*
X41183150Y-20970125D01*
X41207326Y-21017379D01*
X41210013Y-21022388D01*
X41241927Y-21086023D01*
X41257579Y-21129659D01*
X41257745Y-21156798D01*
X41243204Y-21170943D01*
X41243000Y-21171025D01*
X41225779Y-21178095D01*
X41184899Y-21194958D01*
X41123525Y-21220305D01*
X41044819Y-21252829D01*
X40951947Y-21291222D01*
X40848072Y-21334178D01*
X40747502Y-21375778D01*
X40636516Y-21421496D01*
X40533703Y-21463474D01*
X40442215Y-21500452D01*
X40365201Y-21531173D01*
X40305815Y-21554378D01*
X40267209Y-21568810D01*
X40252800Y-21573257D01*
X40236272Y-21562104D01*
X40209930Y-21532931D01*
X40180887Y-21494029D01*
X40089039Y-21383243D01*
X39983759Y-21296649D01*
X39867266Y-21235284D01*
X39741776Y-21200185D01*
X39609507Y-21192392D01*
X39548457Y-21198057D01*
X39421795Y-21228922D01*
X39309941Y-21282080D01*
X39214001Y-21354233D01*
X39135076Y-21442083D01*
X39074270Y-21542335D01*
X39032687Y-21651690D01*
X39011428Y-21766853D01*
X39011599Y-21884525D01*
X39034301Y-22001410D01*
X39080638Y-22114211D01*
X39151713Y-22219631D01*
X39191911Y-22263632D01*
X39295129Y-22348021D01*
X39407925Y-22406778D01*
X39527010Y-22440296D01*
X39649095Y-22448965D01*
X39770893Y-22433177D01*
X39889116Y-22393322D01*
X40000475Y-22329793D01*
X40101684Y-22242979D01*
X40180887Y-22145971D01*
X40211162Y-22105563D01*
X40237219Y-22077018D01*
X40252825Y-22066743D01*
X40269843Y-22072123D01*
X40310500Y-22087425D01*
X40371642Y-22111388D01*
X40450119Y-22142756D01*
X40542780Y-22180268D01*
X40646472Y-22222667D01*
X40747526Y-22264337D01*
X40858607Y-22310310D01*
X40961541Y-22352893D01*
X41053165Y-22390779D01*
X41130316Y-22422660D01*
X41189831Y-22447229D01*
X41228544Y-22463180D01*
X41243000Y-22469090D01*
X41257685Y-22483052D01*
X41257642Y-22510060D01*
X41242099Y-22553587D01*
X41210284Y-22617110D01*
X41210013Y-22617612D01*
X41185323Y-22665440D01*
X41167338Y-22704103D01*
X41159614Y-22725905D01*
X41159543Y-22726867D01*
X41167378Y-22743279D01*
X41189165Y-22779513D01*
X41222328Y-22831526D01*
X41264291Y-22895275D01*
X41311943Y-22965940D01*
X41360191Y-23037884D01*
X41402151Y-23102726D01*
X41435227Y-23156265D01*
X41456821Y-23194303D01*
X41464343Y-23212467D01*
X41454457Y-23229192D01*
X41426826Y-23262820D01*
X41384495Y-23309990D01*
X41330505Y-23367342D01*
X41267899Y-23431516D01*
X41246983Y-23452503D01*
X41029623Y-23669501D01*
X40787220Y-23504332D01*
X40712781Y-23454136D01*
X40645972Y-23410081D01*
X40590665Y-23374638D01*
X40550729Y-23350281D01*
X40530036Y-23339478D01*
X40528563Y-23339162D01*
X40509058Y-23344857D01*
X40469822Y-23360174D01*
X40417430Y-23382463D01*
X40382355Y-23398107D01*
X40315201Y-23427359D01*
X40247358Y-23454906D01*
X40190034Y-23476263D01*
X40172572Y-23482065D01*
X40125938Y-23498548D01*
X40089905Y-23514660D01*
X40076287Y-23523510D01*
X40067952Y-23543040D01*
X40056137Y-23585666D01*
X40042181Y-23645855D01*
X40027422Y-23718078D01*
X40021355Y-23750400D01*
X40006273Y-23832478D01*
X39991669Y-23911205D01*
X39978980Y-23978891D01*
X39969642Y-24027840D01*
X39967839Y-24037057D01*
X39952799Y-24113257D01*
X39635492Y-24113257D01*
X39531154Y-24113086D01*
X39452213Y-24112384D01*
X39395038Y-24110866D01*
X39355999Y-24108251D01*
X39331465Y-24104254D01*
X39317805Y-24098591D01*
X39311389Y-24090980D01*
X39310199Y-24087857D01*
X39305980Y-24069022D01*
X39297562Y-24027412D01*
X39285961Y-23968370D01*
X39272195Y-23897243D01*
X39257280Y-23819375D01*
X39242232Y-23740113D01*
X39228069Y-23664802D01*
X39215806Y-23598787D01*
X39206461Y-23547413D01*
X39201050Y-23516025D01*
X39200114Y-23509041D01*
X39187596Y-23502715D01*
X39154246Y-23488710D01*
X39106377Y-23469645D01*
X39087629Y-23462366D01*
X39015195Y-23433004D01*
X38935170Y-23398429D01*
X38867728Y-23367463D01*
X38816159Y-23344677D01*
X38773785Y-23329518D01*
X38747834Y-23324458D01*
X38744356Y-23325264D01*
X38727936Y-23335959D01*
X38691417Y-23360380D01*
X38638687Y-23395905D01*
X38573635Y-23439913D01*
X38500151Y-23489783D01*
X38485645Y-23499644D01*
X38399704Y-23557508D01*
X38334261Y-23600044D01*
X38286304Y-23628946D01*
X38252820Y-23645910D01*
X38230795Y-23652633D01*
X38217217Y-23650810D01*
X38217131Y-23650764D01*
X38199297Y-23636414D01*
X38164817Y-23604677D01*
X38117268Y-23558990D01*
X38060222Y-23502796D01*
X37997255Y-23439532D01*
X37990227Y-23432398D01*
X37913020Y-23352670D01*
X37856330Y-23291143D01*
X37819110Y-23246579D01*
X37800315Y-23217743D01*
X37797889Y-23205042D01*
X37808471Y-23186506D01*
X37832916Y-23148039D01*
X37868612Y-23093614D01*
X37912947Y-23027202D01*
X37963311Y-22952775D01*
X37975160Y-22935399D01*
X38143626Y-22688703D01*
X38093062Y-22577294D01*
X38063595Y-22509543D01*
X38033959Y-22436817D01*
X38010330Y-22374297D01*
X38009358Y-22371543D01*
X37991457Y-22322640D01*
X37976320Y-22284943D01*
X37967210Y-22266575D01*
X37967184Y-22266544D01*
X37950717Y-22260715D01*
X37910219Y-22250808D01*
X37850242Y-22237805D01*
X37775340Y-22222691D01*
X37690064Y-22206448D01*
X37682875Y-22205119D01*
X37595014Y-22188825D01*
X37515260Y-22173867D01*
X37448681Y-22161209D01*
X37400347Y-22151814D01*
X37375325Y-22146646D01*
X37374943Y-22146556D01*
X37364299Y-22143411D01*
X37356262Y-22137296D01*
X37350467Y-22124547D01*
X37346547Y-22101500D01*
X37344135Y-22064491D01*
X37342865Y-22009856D01*
X37342371Y-21933933D01*
X37342286Y-21833056D01*
X37342286Y-21820000D01*
X37342348Y-21716090D01*
X37342348Y-21716090D01*
G37*
X37342348Y-21716090D02*
X37342778Y-21637546D01*
X37343942Y-21580702D01*
X37346207Y-21541895D01*
X37349940Y-21517462D01*
X37355506Y-21503738D01*
X37363273Y-21497060D01*
X37373605Y-21493764D01*
X37374943Y-21493444D01*
X37399079Y-21488438D01*
X37446701Y-21479171D01*
X37512741Y-21466608D01*
X37592128Y-21451713D01*
X37679796Y-21435449D01*
X37682875Y-21434881D01*
X37768789Y-21418590D01*
X37844696Y-21403348D01*
X37906045Y-21390139D01*
X37948282Y-21379946D01*
X37966855Y-21373752D01*
X37967184Y-21373457D01*
X37976253Y-21355212D01*
X37991367Y-21317595D01*
X38009262Y-21268729D01*
X38009358Y-21268457D01*
X38032493Y-21206907D01*
X38061965Y-21134343D01*
X38091597Y-21065943D01*
X38093062Y-21062706D01*
X38143626Y-20951298D01*
X37975160Y-20704601D01*
X37923803Y-20628923D01*
X37877889Y-20560369D01*
X37840030Y-20502912D01*
X37812837Y-20460524D01*
X37798921Y-20437175D01*
X37797889Y-20434958D01*
X37802484Y-20417990D01*
X37824655Y-20386299D01*
X37865447Y-20338648D01*
X37925905Y-20273802D01*
X37990227Y-20207603D01*
X38053612Y-20143786D01*
X38111451Y-20086671D01*
X38160175Y-20039695D01*
X38196210Y-20006297D01*
X38215984Y-19989915D01*
X38217002Y-19989306D01*
X38230572Y-19987495D01*
X38252733Y-19994317D01*
X38286478Y-20011460D01*
X38334800Y-20040607D01*
X38400692Y-20083445D01*
X38485517Y-20140552D01*
X38560177Y-20191234D01*
X38627140Y-20236539D01*
X38682516Y-20273850D01*
X38722420Y-20300548D01*
X38742962Y-20314015D01*
X38744356Y-20314863D01*
X38764038Y-20313219D01*
X38802293Y-20300755D01*
X38851889Y-20279952D01*
X38867728Y-20272538D01*
X38938290Y-20240186D01*
X39018353Y-20205672D01*
X39087629Y-20177635D01*
X39139045Y-20157432D01*
X39178119Y-20141385D01*
X39198541Y-20132112D01*
X39200114Y-20130959D01*
X39202721Y-20113904D01*
X39209863Y-20073702D01*
X39220523Y-20015698D01*
X39233685Y-19945237D01*
X39248333Y-19867665D01*
X39263449Y-19788328D01*
X39278018Y-19712569D01*
X39291022Y-19645736D01*
X39301445Y-19593172D01*
X39308270Y-19560224D01*
X39310199Y-19552143D01*
X39314962Y-19543795D01*
X39325718Y-19537494D01*
X39346098Y-19532955D01*
X39379734Y-19529896D01*
X39430255Y-19528033D01*
X39501292Y-19527082D01*
X39596476Y-19526760D01*
X39635492Y-19526743D01*
X39952799Y-19526743D01*
X39967839Y-19602943D01*
X39975995Y-19645337D01*
X39987899Y-19708600D01*
X40002116Y-19785038D01*
X40017210Y-19866957D01*
X40021355Y-19889600D01*
X40036053Y-19965194D01*
X40050505Y-20031047D01*
X40063375Y-20081634D01*
X40073322Y-20111426D01*
X40076287Y-20116388D01*
X40097283Y-20128574D01*
X40137967Y-20146047D01*
X40190322Y-20165423D01*
X40201600Y-20169266D01*
X40271523Y-20194661D01*
X40350418Y-20226183D01*
X40421266Y-20257031D01*
X40421595Y-20257183D01*
X40532733Y-20308553D01*
X40781253Y-20139601D01*
X41029772Y-19970648D01*
X41247058Y-20187571D01*
X41311726Y-20253181D01*
X41368733Y-20313021D01*
X41415033Y-20363733D01*
X41447584Y-20401954D01*
X41463343Y-20424325D01*
X41464343Y-20427534D01*
X41456469Y-20446374D01*
X41434578Y-20484820D01*
X41401267Y-20538670D01*
X41359131Y-20603724D01*
X41311943Y-20674060D01*
X41263810Y-20745445D01*
X41221928Y-20809092D01*
X41188871Y-20860959D01*
X41167218Y-20897005D01*
X41159543Y-20913133D01*
X41166037Y-20932811D01*
X41183150Y-20970125D01*
X41207326Y-21017379D01*
X41210013Y-21022388D01*
X41241927Y-21086023D01*
X41257579Y-21129659D01*
X41257745Y-21156798D01*
X41243204Y-21170943D01*
X41243000Y-21171025D01*
X41225779Y-21178095D01*
X41184899Y-21194958D01*
X41123525Y-21220305D01*
X41044819Y-21252829D01*
X40951947Y-21291222D01*
X40848072Y-21334178D01*
X40747502Y-21375778D01*
X40636516Y-21421496D01*
X40533703Y-21463474D01*
X40442215Y-21500452D01*
X40365201Y-21531173D01*
X40305815Y-21554378D01*
X40267209Y-21568810D01*
X40252800Y-21573257D01*
X40236272Y-21562104D01*
X40209930Y-21532931D01*
X40180887Y-21494029D01*
X40089039Y-21383243D01*
X39983759Y-21296649D01*
X39867266Y-21235284D01*
X39741776Y-21200185D01*
X39609507Y-21192392D01*
X39548457Y-21198057D01*
X39421795Y-21228922D01*
X39309941Y-21282080D01*
X39214001Y-21354233D01*
X39135076Y-21442083D01*
X39074270Y-21542335D01*
X39032687Y-21651690D01*
X39011428Y-21766853D01*
X39011599Y-21884525D01*
X39034301Y-22001410D01*
X39080638Y-22114211D01*
X39151713Y-22219631D01*
X39191911Y-22263632D01*
X39295129Y-22348021D01*
X39407925Y-22406778D01*
X39527010Y-22440296D01*
X39649095Y-22448965D01*
X39770893Y-22433177D01*
X39889116Y-22393322D01*
X40000475Y-22329793D01*
X40101684Y-22242979D01*
X40180887Y-22145971D01*
X40211162Y-22105563D01*
X40237219Y-22077018D01*
X40252825Y-22066743D01*
X40269843Y-22072123D01*
X40310500Y-22087425D01*
X40371642Y-22111388D01*
X40450119Y-22142756D01*
X40542780Y-22180268D01*
X40646472Y-22222667D01*
X40747526Y-22264337D01*
X40858607Y-22310310D01*
X40961541Y-22352893D01*
X41053165Y-22390779D01*
X41130316Y-22422660D01*
X41189831Y-22447229D01*
X41228544Y-22463180D01*
X41243000Y-22469090D01*
X41257685Y-22483052D01*
X41257642Y-22510060D01*
X41242099Y-22553587D01*
X41210284Y-22617110D01*
X41210013Y-22617612D01*
X41185323Y-22665440D01*
X41167338Y-22704103D01*
X41159614Y-22725905D01*
X41159543Y-22726867D01*
X41167378Y-22743279D01*
X41189165Y-22779513D01*
X41222328Y-22831526D01*
X41264291Y-22895275D01*
X41311943Y-22965940D01*
X41360191Y-23037884D01*
X41402151Y-23102726D01*
X41435227Y-23156265D01*
X41456821Y-23194303D01*
X41464343Y-23212467D01*
X41454457Y-23229192D01*
X41426826Y-23262820D01*
X41384495Y-23309990D01*
X41330505Y-23367342D01*
X41267899Y-23431516D01*
X41246983Y-23452503D01*
X41029623Y-23669501D01*
X40787220Y-23504332D01*
X40712781Y-23454136D01*
X40645972Y-23410081D01*
X40590665Y-23374638D01*
X40550729Y-23350281D01*
X40530036Y-23339478D01*
X40528563Y-23339162D01*
X40509058Y-23344857D01*
X40469822Y-23360174D01*
X40417430Y-23382463D01*
X40382355Y-23398107D01*
X40315201Y-23427359D01*
X40247358Y-23454906D01*
X40190034Y-23476263D01*
X40172572Y-23482065D01*
X40125938Y-23498548D01*
X40089905Y-23514660D01*
X40076287Y-23523510D01*
X40067952Y-23543040D01*
X40056137Y-23585666D01*
X40042181Y-23645855D01*
X40027422Y-23718078D01*
X40021355Y-23750400D01*
X40006273Y-23832478D01*
X39991669Y-23911205D01*
X39978980Y-23978891D01*
X39969642Y-24027840D01*
X39967839Y-24037057D01*
X39952799Y-24113257D01*
X39635492Y-24113257D01*
X39531154Y-24113086D01*
X39452213Y-24112384D01*
X39395038Y-24110866D01*
X39355999Y-24108251D01*
X39331465Y-24104254D01*
X39317805Y-24098591D01*
X39311389Y-24090980D01*
X39310199Y-24087857D01*
X39305980Y-24069022D01*
X39297562Y-24027412D01*
X39285961Y-23968370D01*
X39272195Y-23897243D01*
X39257280Y-23819375D01*
X39242232Y-23740113D01*
X39228069Y-23664802D01*
X39215806Y-23598787D01*
X39206461Y-23547413D01*
X39201050Y-23516025D01*
X39200114Y-23509041D01*
X39187596Y-23502715D01*
X39154246Y-23488710D01*
X39106377Y-23469645D01*
X39087629Y-23462366D01*
X39015195Y-23433004D01*
X38935170Y-23398429D01*
X38867728Y-23367463D01*
X38816159Y-23344677D01*
X38773785Y-23329518D01*
X38747834Y-23324458D01*
X38744356Y-23325264D01*
X38727936Y-23335959D01*
X38691417Y-23360380D01*
X38638687Y-23395905D01*
X38573635Y-23439913D01*
X38500151Y-23489783D01*
X38485645Y-23499644D01*
X38399704Y-23557508D01*
X38334261Y-23600044D01*
X38286304Y-23628946D01*
X38252820Y-23645910D01*
X38230795Y-23652633D01*
X38217217Y-23650810D01*
X38217131Y-23650764D01*
X38199297Y-23636414D01*
X38164817Y-23604677D01*
X38117268Y-23558990D01*
X38060222Y-23502796D01*
X37997255Y-23439532D01*
X37990227Y-23432398D01*
X37913020Y-23352670D01*
X37856330Y-23291143D01*
X37819110Y-23246579D01*
X37800315Y-23217743D01*
X37797889Y-23205042D01*
X37808471Y-23186506D01*
X37832916Y-23148039D01*
X37868612Y-23093614D01*
X37912947Y-23027202D01*
X37963311Y-22952775D01*
X37975160Y-22935399D01*
X38143626Y-22688703D01*
X38093062Y-22577294D01*
X38063595Y-22509543D01*
X38033959Y-22436817D01*
X38010330Y-22374297D01*
X38009358Y-22371543D01*
X37991457Y-22322640D01*
X37976320Y-22284943D01*
X37967210Y-22266575D01*
X37967184Y-22266544D01*
X37950717Y-22260715D01*
X37910219Y-22250808D01*
X37850242Y-22237805D01*
X37775340Y-22222691D01*
X37690064Y-22206448D01*
X37682875Y-22205119D01*
X37595014Y-22188825D01*
X37515260Y-22173867D01*
X37448681Y-22161209D01*
X37400347Y-22151814D01*
X37375325Y-22146646D01*
X37374943Y-22146556D01*
X37364299Y-22143411D01*
X37356262Y-22137296D01*
X37350467Y-22124547D01*
X37346547Y-22101500D01*
X37344135Y-22064491D01*
X37342865Y-22009856D01*
X37342371Y-21933933D01*
X37342286Y-21833056D01*
X37342286Y-21820000D01*
X37342348Y-21716090D01*
G36*
X42066966Y-18666405D02*
G01*
X42104497Y-18608979D01*
X42138096Y-18581281D01*
X42199064Y-18559338D01*
X42247308Y-18557595D01*
X42311816Y-18561543D01*
X42376934Y-18710314D01*
X42410202Y-18782651D01*
X42436964Y-18829916D01*
X42460144Y-18854493D01*
X42482667Y-18858763D01*
X42507455Y-18845111D01*
X42523886Y-18830057D01*
X42550235Y-18786254D01*
X42552081Y-18738611D01*
X42531546Y-18694855D01*
X42490752Y-18662711D01*
X42476347Y-18656962D01*
X42431356Y-18629424D01*
X42412182Y-18597742D01*
X42395779Y-18554286D01*
X42457966Y-18554286D01*
X42500283Y-18558128D01*
X42535969Y-18573177D01*
X42576943Y-18604720D01*
X42582267Y-18609408D01*
X42618720Y-18644494D01*
X42638283Y-18674653D01*
X42647283Y-18712385D01*
X42650230Y-18743665D01*
X42650965Y-18799615D01*
X42641660Y-18839445D01*
X42627846Y-18864292D01*
X42597467Y-18903344D01*
X42564613Y-18930375D01*
X42523294Y-18947483D01*
X42467521Y-18956762D01*
X42391305Y-18960307D01*
X42352622Y-18960590D01*
X42306247Y-18959628D01*
X42306247Y-18871993D01*
X42331126Y-18870977D01*
X42335200Y-18868444D01*
X42329665Y-18851726D01*
X42315017Y-18815751D01*
X42294190Y-18767669D01*
X42289714Y-18757614D01*
X42258814Y-18696848D01*
X42231657Y-18663368D01*
X42206220Y-18656010D01*
X42180481Y-18673609D01*
X42169109Y-18688144D01*
X42146364Y-18740590D01*
X42150122Y-18789678D01*
X42177884Y-18830773D01*
X42227152Y-18859242D01*
X42266257Y-18868369D01*
X42306247Y-18871993D01*
X42306247Y-18959628D01*
X42262249Y-18958715D01*
X42195384Y-18951804D01*
X42146695Y-18938116D01*
X42110849Y-18915904D01*
X42082513Y-18883426D01*
X42073355Y-18869267D01*
X42049507Y-18804947D01*
X42048006Y-18734527D01*
X42066966Y-18666405D01*
X42066966Y-18666405D01*
G37*
X42066966Y-18666405D02*
X42104497Y-18608979D01*
X42138096Y-18581281D01*
X42199064Y-18559338D01*
X42247308Y-18557595D01*
X42311816Y-18561543D01*
X42376934Y-18710314D01*
X42410202Y-18782651D01*
X42436964Y-18829916D01*
X42460144Y-18854493D01*
X42482667Y-18858763D01*
X42507455Y-18845111D01*
X42523886Y-18830057D01*
X42550235Y-18786254D01*
X42552081Y-18738611D01*
X42531546Y-18694855D01*
X42490752Y-18662711D01*
X42476347Y-18656962D01*
X42431356Y-18629424D01*
X42412182Y-18597742D01*
X42395779Y-18554286D01*
X42457966Y-18554286D01*
X42500283Y-18558128D01*
X42535969Y-18573177D01*
X42576943Y-18604720D01*
X42582267Y-18609408D01*
X42618720Y-18644494D01*
X42638283Y-18674653D01*
X42647283Y-18712385D01*
X42650230Y-18743665D01*
X42650965Y-18799615D01*
X42641660Y-18839445D01*
X42627846Y-18864292D01*
X42597467Y-18903344D01*
X42564613Y-18930375D01*
X42523294Y-18947483D01*
X42467521Y-18956762D01*
X42391305Y-18960307D01*
X42352622Y-18960590D01*
X42306247Y-18959628D01*
X42306247Y-18871993D01*
X42331126Y-18870977D01*
X42335200Y-18868444D01*
X42329665Y-18851726D01*
X42315017Y-18815751D01*
X42294190Y-18767669D01*
X42289714Y-18757614D01*
X42258814Y-18696848D01*
X42231657Y-18663368D01*
X42206220Y-18656010D01*
X42180481Y-18673609D01*
X42169109Y-18688144D01*
X42146364Y-18740590D01*
X42150122Y-18789678D01*
X42177884Y-18830773D01*
X42227152Y-18859242D01*
X42266257Y-18868369D01*
X42306247Y-18871993D01*
X42306247Y-18959628D01*
X42262249Y-18958715D01*
X42195384Y-18951804D01*
X42146695Y-18938116D01*
X42110849Y-18915904D01*
X42082513Y-18883426D01*
X42073355Y-18869267D01*
X42049507Y-18804947D01*
X42048006Y-18734527D01*
X42066966Y-18666405D01*
G36*
X42165358Y-20629883D02*
G01*
X42273837Y-20630067D01*
X42357287Y-20630781D01*
X42419704Y-20632325D01*
X42465085Y-20634999D01*
X42497429Y-20639106D01*
X42520733Y-20644945D01*
X42538995Y-20652818D01*
X42549418Y-20658779D01*
X42605945Y-20708145D01*
X42641377Y-20770736D01*
X42654090Y-20839987D01*
X42642463Y-20909332D01*
X42621568Y-20950625D01*
X42585422Y-20993975D01*
X42541276Y-21023519D01*
X42483462Y-21041345D01*
X42406313Y-21049537D01*
X42349714Y-21050698D01*
X42345647Y-21050542D01*
X42345647Y-20949143D01*
X42410550Y-20948524D01*
X42453514Y-20945686D01*
X42481622Y-20939160D01*
X42501953Y-20927477D01*
X42517288Y-20913517D01*
X42546890Y-20866635D01*
X42549419Y-20816299D01*
X42524705Y-20768724D01*
X42521356Y-20765021D01*
X42503935Y-20749217D01*
X42483209Y-20739307D01*
X42452362Y-20733942D01*
X42404577Y-20731772D01*
X42351748Y-20731429D01*
X42285381Y-20732173D01*
X42241106Y-20735252D01*
X42212009Y-20741939D01*
X42191173Y-20753504D01*
X42180107Y-20762987D01*
X42152198Y-20807040D01*
X42148843Y-20857776D01*
X42170159Y-20906204D01*
X42178073Y-20915550D01*
X42195647Y-20931460D01*
X42216587Y-20941390D01*
X42247782Y-20946722D01*
X42296122Y-20948837D01*
X42345647Y-20949143D01*
X42345647Y-21050542D01*
X42258568Y-21047190D01*
X42190086Y-21035274D01*
X42138600Y-21012865D01*
X42098443Y-20977876D01*
X42077861Y-20950625D01*
X42055625Y-20901093D01*
X42045304Y-20843684D01*
X42048067Y-20790318D01*
X42059212Y-20760457D01*
X42062383Y-20748739D01*
X42050557Y-20740963D01*
X42018866Y-20735535D01*
X41970593Y-20731429D01*
X41916829Y-20726933D01*
X41884482Y-20720687D01*
X41865985Y-20709324D01*
X41853770Y-20689472D01*
X41848362Y-20677000D01*
X41828601Y-20629829D01*
X42165358Y-20629883D01*
X42165358Y-20629883D01*
G37*
X42165358Y-20629883D02*
X42273837Y-20630067D01*
X42357287Y-20630781D01*
X42419704Y-20632325D01*
X42465085Y-20634999D01*
X42497429Y-20639106D01*
X42520733Y-20644945D01*
X42538995Y-20652818D01*
X42549418Y-20658779D01*
X42605945Y-20708145D01*
X42641377Y-20770736D01*
X42654090Y-20839987D01*
X42642463Y-20909332D01*
X42621568Y-20950625D01*
X42585422Y-20993975D01*
X42541276Y-21023519D01*
X42483462Y-21041345D01*
X42406313Y-21049537D01*
X42349714Y-21050698D01*
X42345647Y-21050542D01*
X42345647Y-20949143D01*
X42410550Y-20948524D01*
X42453514Y-20945686D01*
X42481622Y-20939160D01*
X42501953Y-20927477D01*
X42517288Y-20913517D01*
X42546890Y-20866635D01*
X42549419Y-20816299D01*
X42524705Y-20768724D01*
X42521356Y-20765021D01*
X42503935Y-20749217D01*
X42483209Y-20739307D01*
X42452362Y-20733942D01*
X42404577Y-20731772D01*
X42351748Y-20731429D01*
X42285381Y-20732173D01*
X42241106Y-20735252D01*
X42212009Y-20741939D01*
X42191173Y-20753504D01*
X42180107Y-20762987D01*
X42152198Y-20807040D01*
X42148843Y-20857776D01*
X42170159Y-20906204D01*
X42178073Y-20915550D01*
X42195647Y-20931460D01*
X42216587Y-20941390D01*
X42247782Y-20946722D01*
X42296122Y-20948837D01*
X42345647Y-20949143D01*
X42345647Y-21050542D01*
X42258568Y-21047190D01*
X42190086Y-21035274D01*
X42138600Y-21012865D01*
X42098443Y-20977876D01*
X42077861Y-20950625D01*
X42055625Y-20901093D01*
X42045304Y-20843684D01*
X42048067Y-20790318D01*
X42059212Y-20760457D01*
X42062383Y-20748739D01*
X42050557Y-20740963D01*
X42018866Y-20735535D01*
X41970593Y-20731429D01*
X41916829Y-20726933D01*
X41884482Y-20720687D01*
X41865985Y-20709324D01*
X41853770Y-20689472D01*
X41848362Y-20677000D01*
X41828601Y-20629829D01*
X42165358Y-20629883D01*
G36*
X42031239Y-23651697D02*
G01*
X42069735Y-23594473D01*
X42125335Y-23550251D01*
X42196086Y-23523833D01*
X42248162Y-23518490D01*
X42269893Y-23519097D01*
X42286531Y-23524178D01*
X42301437Y-23538145D01*
X42317973Y-23565411D01*
X42339498Y-23610388D01*
X42369374Y-23677489D01*
X42369524Y-23677829D01*
X42397813Y-23739593D01*
X42422933Y-23790241D01*
X42442179Y-23824596D01*
X42452848Y-23837482D01*
X42452934Y-23837486D01*
X42476166Y-23826128D01*
X42501774Y-23799569D01*
X42520221Y-23769077D01*
X42523886Y-23753630D01*
X42511212Y-23711485D01*
X42479471Y-23675192D01*
X42444572Y-23657483D01*
X42418845Y-23640448D01*
X42389546Y-23607078D01*
X42364235Y-23567851D01*
X42350471Y-23533244D01*
X42349714Y-23526007D01*
X42362160Y-23517861D01*
X42393972Y-23517370D01*
X42436866Y-23523357D01*
X42482558Y-23534643D01*
X42522761Y-23550050D01*
X42524322Y-23550829D01*
X42589062Y-23597196D01*
X42633097Y-23657289D01*
X42654711Y-23725535D01*
X42652185Y-23796362D01*
X42623804Y-23864196D01*
X42621808Y-23867212D01*
X42573448Y-23920573D01*
X42510352Y-23955660D01*
X42427387Y-23975078D01*
X42404078Y-23977684D01*
X42294055Y-23982299D01*
X42242748Y-23976767D01*
X42242748Y-23837486D01*
X42274753Y-23835676D01*
X42284093Y-23825778D01*
X42277105Y-23801102D01*
X42260587Y-23762205D01*
X42239881Y-23718725D01*
X42239333Y-23717644D01*
X42219949Y-23680791D01*
X42207013Y-23666000D01*
X42193451Y-23669647D01*
X42175632Y-23685005D01*
X42149845Y-23724077D01*
X42147950Y-23766154D01*
X42166717Y-23803897D01*
X42202915Y-23829966D01*
X42242748Y-23837486D01*
X42242748Y-23976767D01*
X42206027Y-23972806D01*
X42136212Y-23948450D01*
X42087302Y-23914544D01*
X42037878Y-23853347D01*
X42013359Y-23785937D01*
X42011797Y-23717120D01*
X42031239Y-23651697D01*
X42031239Y-23651697D01*
G37*
X42031239Y-23651697D02*
X42069735Y-23594473D01*
X42125335Y-23550251D01*
X42196086Y-23523833D01*
X42248162Y-23518490D01*
X42269893Y-23519097D01*
X42286531Y-23524178D01*
X42301437Y-23538145D01*
X42317973Y-23565411D01*
X42339498Y-23610388D01*
X42369374Y-23677489D01*
X42369524Y-23677829D01*
X42397813Y-23739593D01*
X42422933Y-23790241D01*
X42442179Y-23824596D01*
X42452848Y-23837482D01*
X42452934Y-23837486D01*
X42476166Y-23826128D01*
X42501774Y-23799569D01*
X42520221Y-23769077D01*
X42523886Y-23753630D01*
X42511212Y-23711485D01*
X42479471Y-23675192D01*
X42444572Y-23657483D01*
X42418845Y-23640448D01*
X42389546Y-23607078D01*
X42364235Y-23567851D01*
X42350471Y-23533244D01*
X42349714Y-23526007D01*
X42362160Y-23517861D01*
X42393972Y-23517370D01*
X42436866Y-23523357D01*
X42482558Y-23534643D01*
X42522761Y-23550050D01*
X42524322Y-23550829D01*
X42589062Y-23597196D01*
X42633097Y-23657289D01*
X42654711Y-23725535D01*
X42652185Y-23796362D01*
X42623804Y-23864196D01*
X42621808Y-23867212D01*
X42573448Y-23920573D01*
X42510352Y-23955660D01*
X42427387Y-23975078D01*
X42404078Y-23977684D01*
X42294055Y-23982299D01*
X42242748Y-23976767D01*
X42242748Y-23837486D01*
X42274753Y-23835676D01*
X42284093Y-23825778D01*
X42277105Y-23801102D01*
X42260587Y-23762205D01*
X42239881Y-23718725D01*
X42239333Y-23717644D01*
X42219949Y-23680791D01*
X42207013Y-23666000D01*
X42193451Y-23669647D01*
X42175632Y-23685005D01*
X42149845Y-23724077D01*
X42147950Y-23766154D01*
X42166717Y-23803897D01*
X42202915Y-23829966D01*
X42242748Y-23837486D01*
X42242748Y-23976767D01*
X42206027Y-23972806D01*
X42136212Y-23948450D01*
X42087302Y-23914544D01*
X42037878Y-23853347D01*
X42013359Y-23785937D01*
X42011797Y-23717120D01*
X42031239Y-23651697D01*
G36*
X42027780Y-23103907D02*
G01*
X42054723Y-23057328D01*
X42081466Y-23024943D01*
X42109484Y-23001258D01*
X42143748Y-22984941D01*
X42189227Y-22974661D01*
X42250892Y-22969086D01*
X42333711Y-22966884D01*
X42393246Y-22966629D01*
X42612391Y-22966629D01*
X42640044Y-23028314D01*
X42667697Y-23090000D01*
X42427670Y-23097257D01*
X42338028Y-23100256D01*
X42272962Y-23103402D01*
X42228026Y-23107299D01*
X42198770Y-23112553D01*
X42180748Y-23119769D01*
X42169511Y-23129550D01*
X42167079Y-23132688D01*
X42148083Y-23180239D01*
X42155600Y-23228303D01*
X42175543Y-23256914D01*
X42189675Y-23268553D01*
X42208220Y-23276609D01*
X42236334Y-23281729D01*
X42279173Y-23284559D01*
X42341895Y-23285744D01*
X42407261Y-23285943D01*
X42489268Y-23285982D01*
X42547316Y-23287386D01*
X42586465Y-23292086D01*
X42611780Y-23302013D01*
X42628323Y-23319097D01*
X42641156Y-23345268D01*
X42654491Y-23380225D01*
X42669007Y-23418404D01*
X42411389Y-23413859D01*
X42318519Y-23412029D01*
X42249889Y-23409888D01*
X42200711Y-23406819D01*
X42166198Y-23402206D01*
X42141562Y-23395432D01*
X42122016Y-23385881D01*
X42104770Y-23374366D01*
X42049680Y-23318810D01*
X42017822Y-23251020D01*
X42010191Y-23177287D01*
X42027780Y-23103907D01*
X42027780Y-23103907D01*
G37*
X42027780Y-23103907D02*
X42054723Y-23057328D01*
X42081466Y-23024943D01*
X42109484Y-23001258D01*
X42143748Y-22984941D01*
X42189227Y-22974661D01*
X42250892Y-22969086D01*
X42333711Y-22966884D01*
X42393246Y-22966629D01*
X42612391Y-22966629D01*
X42640044Y-23028314D01*
X42667697Y-23090000D01*
X42427670Y-23097257D01*
X42338028Y-23100256D01*
X42272962Y-23103402D01*
X42228026Y-23107299D01*
X42198770Y-23112553D01*
X42180748Y-23119769D01*
X42169511Y-23129550D01*
X42167079Y-23132688D01*
X42148083Y-23180239D01*
X42155600Y-23228303D01*
X42175543Y-23256914D01*
X42189675Y-23268553D01*
X42208220Y-23276609D01*
X42236334Y-23281729D01*
X42279173Y-23284559D01*
X42341895Y-23285744D01*
X42407261Y-23285943D01*
X42489268Y-23285982D01*
X42547316Y-23287386D01*
X42586465Y-23292086D01*
X42611780Y-23302013D01*
X42628323Y-23319097D01*
X42641156Y-23345268D01*
X42654491Y-23380225D01*
X42669007Y-23418404D01*
X42411389Y-23413859D01*
X42318519Y-23412029D01*
X42249889Y-23409888D01*
X42200711Y-23406819D01*
X42166198Y-23402206D01*
X42141562Y-23395432D01*
X42122016Y-23385881D01*
X42104770Y-23374366D01*
X42049680Y-23318810D01*
X42017822Y-23251020D01*
X42010191Y-23177287D01*
X42027780Y-23103907D01*
G36*
X42019918Y-24220256D02*
G01*
X42047568Y-24164799D01*
X42098480Y-24115852D01*
X42117338Y-24102371D01*
X42142015Y-24087686D01*
X42168816Y-24078158D01*
X42204587Y-24072707D01*
X42256169Y-24070253D01*
X42324267Y-24069714D01*
X42417588Y-24072148D01*
X42487657Y-24080606D01*
X42539931Y-24096826D01*
X42579869Y-24122546D01*
X42612929Y-24159503D01*
X42614886Y-24162218D01*
X42634908Y-24198640D01*
X42644815Y-24242498D01*
X42647257Y-24298276D01*
X42647257Y-24388952D01*
X42735283Y-24388990D01*
X42784308Y-24389834D01*
X42813065Y-24394976D01*
X42830311Y-24408413D01*
X42844808Y-24434142D01*
X42847769Y-24440321D01*
X42861648Y-24469236D01*
X42870414Y-24491624D01*
X42871171Y-24508271D01*
X42861023Y-24519964D01*
X42837073Y-24527490D01*
X42796426Y-24531634D01*
X42736186Y-24533185D01*
X42653455Y-24532929D01*
X42545339Y-24531651D01*
X42513000Y-24531252D01*
X42401524Y-24529815D01*
X42328603Y-24528528D01*
X42328603Y-24389029D01*
X42390499Y-24388245D01*
X42430997Y-24384760D01*
X42457708Y-24376876D01*
X42478244Y-24362895D01*
X42488260Y-24353403D01*
X42517567Y-24314596D01*
X42519952Y-24280237D01*
X42495750Y-24244784D01*
X42494857Y-24243886D01*
X42476153Y-24229461D01*
X42450732Y-24220687D01*
X42411584Y-24216261D01*
X42351697Y-24214882D01*
X42338430Y-24214857D01*
X42255901Y-24218188D01*
X42198691Y-24229031D01*
X42163766Y-24248660D01*
X42148094Y-24278350D01*
X42146514Y-24295509D01*
X42153926Y-24336234D01*
X42178330Y-24364168D01*
X42222980Y-24380983D01*
X42291130Y-24388350D01*
X42328603Y-24389029D01*
X42328603Y-24528528D01*
X42315245Y-24528292D01*
X42250333Y-24526323D01*
X42202958Y-24523550D01*
X42169290Y-24519612D01*
X42145498Y-24514151D01*
X42127753Y-24506808D01*
X42112224Y-24497223D01*
X42106381Y-24493113D01*
X42051185Y-24438595D01*
X42019890Y-24369664D01*
X42011165Y-24289928D01*
X42019918Y-24220256D01*
X42019918Y-24220256D01*
G37*
X42019918Y-24220256D02*
X42047568Y-24164799D01*
X42098480Y-24115852D01*
X42117338Y-24102371D01*
X42142015Y-24087686D01*
X42168816Y-24078158D01*
X42204587Y-24072707D01*
X42256169Y-24070253D01*
X42324267Y-24069714D01*
X42417588Y-24072148D01*
X42487657Y-24080606D01*
X42539931Y-24096826D01*
X42579869Y-24122546D01*
X42612929Y-24159503D01*
X42614886Y-24162218D01*
X42634908Y-24198640D01*
X42644815Y-24242498D01*
X42647257Y-24298276D01*
X42647257Y-24388952D01*
X42735283Y-24388990D01*
X42784308Y-24389834D01*
X42813065Y-24394976D01*
X42830311Y-24408413D01*
X42844808Y-24434142D01*
X42847769Y-24440321D01*
X42861648Y-24469236D01*
X42870414Y-24491624D01*
X42871171Y-24508271D01*
X42861023Y-24519964D01*
X42837073Y-24527490D01*
X42796426Y-24531634D01*
X42736186Y-24533185D01*
X42653455Y-24532929D01*
X42545339Y-24531651D01*
X42513000Y-24531252D01*
X42401524Y-24529815D01*
X42328603Y-24528528D01*
X42328603Y-24389029D01*
X42390499Y-24388245D01*
X42430997Y-24384760D01*
X42457708Y-24376876D01*
X42478244Y-24362895D01*
X42488260Y-24353403D01*
X42517567Y-24314596D01*
X42519952Y-24280237D01*
X42495750Y-24244784D01*
X42494857Y-24243886D01*
X42476153Y-24229461D01*
X42450732Y-24220687D01*
X42411584Y-24216261D01*
X42351697Y-24214882D01*
X42338430Y-24214857D01*
X42255901Y-24218188D01*
X42198691Y-24229031D01*
X42163766Y-24248660D01*
X42148094Y-24278350D01*
X42146514Y-24295509D01*
X42153926Y-24336234D01*
X42178330Y-24364168D01*
X42222980Y-24380983D01*
X42291130Y-24388350D01*
X42328603Y-24389029D01*
X42328603Y-24528528D01*
X42315245Y-24528292D01*
X42250333Y-24526323D01*
X42202958Y-24523550D01*
X42169290Y-24519612D01*
X42145498Y-24514151D01*
X42127753Y-24506808D01*
X42112224Y-24497223D01*
X42106381Y-24493113D01*
X42051185Y-24438595D01*
X42019890Y-24369664D01*
X42011165Y-24289928D01*
X42019918Y-24220256D01*
D12*
X43500000Y-20710000D03*
X43500000Y-23710000D03*
D13*
X40600000Y-17970000D03*
X39330000Y-17970000D03*
D14*
X32800000Y-25615000D03*
X32800000Y-23075000D03*
X32800000Y-20535000D03*
D15*
X32800000Y-17995000D03*
D16*
X21850000Y-25100000D03*
X21850000Y-18600000D03*
D17*
X21850000Y-22850000D03*
X21850000Y-20850000D03*
D18*
X17600000Y-25100000D03*
D19*
G36*
X18100000Y-23975000D02*
G01*
X18100000Y-26225000D01*
X17100000Y-25225000D01*
X17100000Y-24975000D01*
X18100000Y-23975000D01*
X18100000Y-23975000D01*
G37*
D18*
X17600000Y-18600000D03*
D19*
G36*
X18100000Y-17475000D02*
G01*
X18100000Y-19725000D01*
X17100000Y-18725000D01*
X17100000Y-18475000D01*
X18100000Y-17475000D01*
X18100000Y-17475000D01*
G37*
D20*
X17600000Y-24475000D03*
X17600000Y-19225000D03*
D21*
X29980000Y-20150000D03*
X29980000Y-23450000D03*
X29920000Y-24200000D03*
X29850000Y-24950000D03*
X29850000Y-18650000D03*
X29920000Y-19400000D03*
X31500000Y-20150000D03*
X31500000Y-23450000D03*
X31500000Y-24200000D03*
X31500000Y-24950000D03*
X31500000Y-18650000D03*
X31500000Y-19400000D03*
D22*
X34000000Y-19120000D03*
X34600000Y-18620000D03*
X37100000Y-19320000D03*
X37100000Y-18770000D03*
X35850000Y-19320000D03*
X35850000Y-18770000D03*
D21*
X22090000Y-19449000D03*
X17360000Y-18729000D03*
D22*
X17320000Y-23559000D03*
X17320000Y-19209000D03*
D21*
X17370000Y-17479000D03*
X26130000Y-17879000D03*
X27450000Y-18659000D03*
X18380000Y-17499000D03*
D22*
X17800000Y-21659000D03*
D21*
X19360000Y-17500000D03*
X24820000Y-18420000D03*
X20210000Y-18140000D03*
D22*
X39420000Y-19030000D03*
X39650000Y-21810000D03*
X41600000Y-18920000D03*
X41600000Y-19370000D03*
X35100000Y-18870000D03*
X34600000Y-19370000D03*
D21*
X27980000Y-19100000D03*
X27510000Y-24540000D03*
X27510000Y-23839000D03*
X27480000Y-20150000D03*
D22*
X17770000Y-20389000D03*
X17400000Y-21649000D03*
X40340000Y-24570000D03*
X25070000Y-24410000D03*
X18910000Y-24600000D03*
X25430000Y-24189000D03*
X17380000Y-24919000D03*
X40600000Y-21820000D03*
X33700000Y-22220000D03*
X40760000Y-19170000D03*
X43800000Y-17970000D03*
X34550000Y-23370000D03*
X35830000Y-25110000D03*
X43300000Y-17970000D03*
X35850000Y-23370000D03*
X38380000Y-25110000D03*
X42960000Y-22310000D03*
X38350000Y-19370000D03*
X42960000Y-21780000D03*
X37100000Y-25100000D03*
X40520000Y-26010000D03*
D19*
X27850000Y-18450000D02*
X27700000Y-18300000D01*
X28050000Y-18450000D02*
X27850000Y-18450000D01*
X27750000Y-25250000D02*
X27700000Y-25300000D01*
X27850000Y-25250000D02*
X27750000Y-25250000D01*
X27650000Y-25050000D02*
X27850000Y-25250000D01*
X27650000Y-24500000D02*
X27650000Y-24500000D01*
X28475000Y-24625000D02*
X27850000Y-25250000D01*
X29500000Y-24925000D02*
X28475000Y-24625000D01*
X27650000Y-24500000D02*
X27650000Y-25050000D01*
X27950000Y-22875000D02*
X27950000Y-23350000D01*
X27950000Y-23350000D02*
X27700000Y-23100000D01*
X27850000Y-20350000D02*
X27700000Y-20500000D01*
X27700000Y-20075000D02*
X27850000Y-20350000D01*
D23*
X21389000Y-20389000D02*
X21850000Y-20850000D01*
X17770000Y-20389000D02*
X21389000Y-20389000D01*
X17400000Y-21649000D02*
X17400000Y-21870000D01*
X17400000Y-21870000D02*
X17770000Y-22240000D01*
X21240000Y-22240000D02*
X21850000Y-22850000D01*
X17770000Y-22240000D02*
X21240000Y-22240000D01*
D19*
X33120000Y-23075000D02*
X32974000Y-23075000D01*
D24*
G36*
X29440529Y-17277638D02*
G01*
X29458151Y-17339315D01*
X29475728Y-17409622D01*
X29475729Y-17409626D01*
X29495059Y-17486943D01*
X29502361Y-17552662D01*
X29502304Y-17553408D01*
X29504005Y-17567457D01*
X29504754Y-17574202D01*
X29504910Y-17574939D01*
X29505001Y-17575689D01*
X29506472Y-17582308D01*
X29509407Y-17596157D01*
X29509703Y-17596847D01*
X29525436Y-17667643D01*
X29525729Y-17669626D01*
X29527056Y-17674936D01*
X29528239Y-17680257D01*
X29528861Y-17682155D01*
X29546661Y-17753354D01*
X29564805Y-17844073D01*
X29565001Y-17845689D01*
X29566277Y-17851429D01*
X29567416Y-17857126D01*
X29567885Y-17858666D01*
X29584655Y-17934130D01*
X29594497Y-18032549D01*
X29598909Y-18054555D01*
X29610408Y-18082200D01*
X29616068Y-18090644D01*
X29701155Y-18236713D01*
X29709096Y-18247715D01*
X29716858Y-18258855D01*
X29718247Y-18260460D01*
X29740763Y-18286119D01*
X29739683Y-18286334D01*
X29670855Y-18314843D01*
X29608912Y-18356233D01*
X29556233Y-18408912D01*
X29514843Y-18470855D01*
X29486334Y-18539683D01*
X29471800Y-18612751D01*
X29471800Y-18687249D01*
X29486334Y-18760317D01*
X29514843Y-18829145D01*
X29556233Y-18891088D01*
X29608912Y-18943767D01*
X29670855Y-18985157D01*
X29739683Y-19013666D01*
X29812751Y-19028200D01*
X29850576Y-19028200D01*
X29809683Y-19036334D01*
X29740855Y-19064843D01*
X29678912Y-19106233D01*
X29626233Y-19158912D01*
X29616819Y-19173000D01*
X27402000Y-19173000D01*
X27402000Y-19035062D01*
X27412751Y-19037200D01*
X27487249Y-19037200D01*
X27560317Y-19022666D01*
X27629145Y-18994157D01*
X27691088Y-18952767D01*
X27743767Y-18900088D01*
X27785157Y-18838145D01*
X27813666Y-18769317D01*
X27828200Y-18696249D01*
X27828200Y-18621751D01*
X27813666Y-18548683D01*
X27785157Y-18479855D01*
X27743767Y-18417912D01*
X27691088Y-18365233D01*
X27629145Y-18323843D01*
X27560317Y-18295334D01*
X27487249Y-18280800D01*
X27412751Y-18280800D01*
X27402000Y-18282938D01*
X27402000Y-17252000D01*
X29430915Y-17252000D01*
X29440529Y-17277638D01*
X29440529Y-17277638D01*
G37*
X29440529Y-17277638D02*
X29458151Y-17339315D01*
X29475728Y-17409622D01*
X29475729Y-17409626D01*
X29495059Y-17486943D01*
X29502361Y-17552662D01*
X29502304Y-17553408D01*
X29504005Y-17567457D01*
X29504754Y-17574202D01*
X29504910Y-17574939D01*
X29505001Y-17575689D01*
X29506472Y-17582308D01*
X29509407Y-17596157D01*
X29509703Y-17596847D01*
X29525436Y-17667643D01*
X29525729Y-17669626D01*
X29527056Y-17674936D01*
X29528239Y-17680257D01*
X29528861Y-17682155D01*
X29546661Y-17753354D01*
X29564805Y-17844073D01*
X29565001Y-17845689D01*
X29566277Y-17851429D01*
X29567416Y-17857126D01*
X29567885Y-17858666D01*
X29584655Y-17934130D01*
X29594497Y-18032549D01*
X29598909Y-18054555D01*
X29610408Y-18082200D01*
X29616068Y-18090644D01*
X29701155Y-18236713D01*
X29709096Y-18247715D01*
X29716858Y-18258855D01*
X29718247Y-18260460D01*
X29740763Y-18286119D01*
X29739683Y-18286334D01*
X29670855Y-18314843D01*
X29608912Y-18356233D01*
X29556233Y-18408912D01*
X29514843Y-18470855D01*
X29486334Y-18539683D01*
X29471800Y-18612751D01*
X29471800Y-18687249D01*
X29486334Y-18760317D01*
X29514843Y-18829145D01*
X29556233Y-18891088D01*
X29608912Y-18943767D01*
X29670855Y-18985157D01*
X29739683Y-19013666D01*
X29812751Y-19028200D01*
X29850576Y-19028200D01*
X29809683Y-19036334D01*
X29740855Y-19064843D01*
X29678912Y-19106233D01*
X29626233Y-19158912D01*
X29616819Y-19173000D01*
X27402000Y-19173000D01*
X27402000Y-19035062D01*
X27412751Y-19037200D01*
X27487249Y-19037200D01*
X27560317Y-19022666D01*
X27629145Y-18994157D01*
X27691088Y-18952767D01*
X27743767Y-18900088D01*
X27785157Y-18838145D01*
X27813666Y-18769317D01*
X27828200Y-18696249D01*
X27828200Y-18621751D01*
X27813666Y-18548683D01*
X27785157Y-18479855D01*
X27743767Y-18417912D01*
X27691088Y-18365233D01*
X27629145Y-18323843D01*
X27560317Y-18295334D01*
X27487249Y-18280800D01*
X27412751Y-18280800D01*
X27402000Y-18282938D01*
X27402000Y-17252000D01*
X29430915Y-17252000D01*
X29440529Y-17277638D01*
G36*
X29678912Y-19693767D02*
G01*
X29740855Y-19735157D01*
X29809683Y-19763666D01*
X29882751Y-19778200D01*
X29910576Y-19778200D01*
X29869683Y-19786334D01*
X29800855Y-19814843D01*
X29738912Y-19856233D01*
X29686233Y-19908912D01*
X29644843Y-19970855D01*
X29616334Y-20039683D01*
X29601800Y-20112751D01*
X29601800Y-20187249D01*
X29616334Y-20260317D01*
X29644843Y-20329145D01*
X29686233Y-20391088D01*
X29738912Y-20443767D01*
X29800855Y-20485157D01*
X29869683Y-20513666D01*
X29942751Y-20528200D01*
X29972136Y-20528200D01*
X29920864Y-20636530D01*
X29916212Y-20649503D01*
X29911383Y-20662400D01*
X29910851Y-20664454D01*
X29875083Y-20806556D01*
X29873041Y-20820173D01*
X29870807Y-20833776D01*
X29870683Y-20835894D01*
X29863380Y-20978683D01*
X29863000Y-20982538D01*
X29863000Y-21128421D01*
X29862876Y-21134217D01*
X29863000Y-21135829D01*
X29863000Y-21137461D01*
X29863573Y-21143280D01*
X29873000Y-21265824D01*
X29873000Y-21423000D01*
X29457000Y-21423000D01*
X29457000Y-20943523D01*
X29456955Y-20943070D01*
X29456939Y-20940709D01*
X29456312Y-20934742D01*
X29456312Y-20928742D01*
X29456119Y-20926909D01*
X29443066Y-20810539D01*
X29440581Y-20798846D01*
X29438255Y-20787101D01*
X29437710Y-20785340D01*
X29402302Y-20673721D01*
X29397575Y-20662693D01*
X29393030Y-20651665D01*
X29392153Y-20650043D01*
X29335741Y-20547429D01*
X29328967Y-20537536D01*
X29322361Y-20527593D01*
X29321190Y-20526178D01*
X29321186Y-20526172D01*
X29321181Y-20526167D01*
X29245916Y-20436468D01*
X29237367Y-20428096D01*
X29228938Y-20419608D01*
X29227509Y-20418443D01*
X29136250Y-20345068D01*
X29126216Y-20338502D01*
X29116320Y-20331827D01*
X29114697Y-20330965D01*
X29114693Y-20330962D01*
X29114689Y-20330960D01*
X29010918Y-20276711D01*
X28999813Y-20272224D01*
X28988797Y-20267593D01*
X28987033Y-20267060D01*
X28874698Y-20233999D01*
X28862937Y-20231755D01*
X28851227Y-20229351D01*
X28849392Y-20229171D01*
X28732774Y-20218558D01*
X28720777Y-20218642D01*
X28708847Y-20218558D01*
X28707013Y-20218738D01*
X28590555Y-20230978D01*
X28578781Y-20233395D01*
X28567084Y-20235626D01*
X28565320Y-20236158D01*
X28453458Y-20270785D01*
X28442385Y-20275439D01*
X28431337Y-20279903D01*
X28429709Y-20280768D01*
X28326702Y-20336463D01*
X28316757Y-20343171D01*
X28306772Y-20349705D01*
X28305344Y-20350870D01*
X28215118Y-20425512D01*
X28206692Y-20433997D01*
X28198140Y-20442371D01*
X28196965Y-20443791D01*
X28122955Y-20534537D01*
X28116348Y-20544481D01*
X28109575Y-20554373D01*
X28108698Y-20555995D01*
X28053723Y-20659388D01*
X28049160Y-20670458D01*
X28044451Y-20681445D01*
X28043906Y-20683206D01*
X28010061Y-20795307D01*
X28007735Y-20807052D01*
X28005250Y-20818745D01*
X28005057Y-20820578D01*
X28004185Y-20829476D01*
X27933561Y-20837398D01*
X27921836Y-20839890D01*
X27910123Y-20842209D01*
X27908362Y-20842754D01*
X27750237Y-20892914D01*
X27739247Y-20897624D01*
X27728179Y-20902186D01*
X27726562Y-20903060D01*
X27726558Y-20903062D01*
X27726557Y-20903063D01*
X27581186Y-20982982D01*
X27571325Y-20989734D01*
X27561351Y-20996361D01*
X27559931Y-20997536D01*
X27432850Y-21104168D01*
X27424478Y-21112717D01*
X27415990Y-21121146D01*
X27414826Y-21122574D01*
X27402000Y-21138526D01*
X27402000Y-19677000D01*
X29662145Y-19677000D01*
X29678912Y-19693767D01*
X29678912Y-19693767D01*
G37*
X29678912Y-19693767D02*
X29740855Y-19735157D01*
X29809683Y-19763666D01*
X29882751Y-19778200D01*
X29910576Y-19778200D01*
X29869683Y-19786334D01*
X29800855Y-19814843D01*
X29738912Y-19856233D01*
X29686233Y-19908912D01*
X29644843Y-19970855D01*
X29616334Y-20039683D01*
X29601800Y-20112751D01*
X29601800Y-20187249D01*
X29616334Y-20260317D01*
X29644843Y-20329145D01*
X29686233Y-20391088D01*
X29738912Y-20443767D01*
X29800855Y-20485157D01*
X29869683Y-20513666D01*
X29942751Y-20528200D01*
X29972136Y-20528200D01*
X29920864Y-20636530D01*
X29916212Y-20649503D01*
X29911383Y-20662400D01*
X29910851Y-20664454D01*
X29875083Y-20806556D01*
X29873041Y-20820173D01*
X29870807Y-20833776D01*
X29870683Y-20835894D01*
X29863380Y-20978683D01*
X29863000Y-20982538D01*
X29863000Y-21128421D01*
X29862876Y-21134217D01*
X29863000Y-21135829D01*
X29863000Y-21137461D01*
X29863573Y-21143280D01*
X29873000Y-21265824D01*
X29873000Y-21423000D01*
X29457000Y-21423000D01*
X29457000Y-20943523D01*
X29456955Y-20943070D01*
X29456939Y-20940709D01*
X29456312Y-20934742D01*
X29456312Y-20928742D01*
X29456119Y-20926909D01*
X29443066Y-20810539D01*
X29440581Y-20798846D01*
X29438255Y-20787101D01*
X29437710Y-20785340D01*
X29402302Y-20673721D01*
X29397575Y-20662693D01*
X29393030Y-20651665D01*
X29392153Y-20650043D01*
X29335741Y-20547429D01*
X29328967Y-20537536D01*
X29322361Y-20527593D01*
X29321190Y-20526178D01*
X29321186Y-20526172D01*
X29321181Y-20526167D01*
X29245916Y-20436468D01*
X29237367Y-20428096D01*
X29228938Y-20419608D01*
X29227509Y-20418443D01*
X29136250Y-20345068D01*
X29126216Y-20338502D01*
X29116320Y-20331827D01*
X29114697Y-20330965D01*
X29114693Y-20330962D01*
X29114689Y-20330960D01*
X29010918Y-20276711D01*
X28999813Y-20272224D01*
X28988797Y-20267593D01*
X28987033Y-20267060D01*
X28874698Y-20233999D01*
X28862937Y-20231755D01*
X28851227Y-20229351D01*
X28849392Y-20229171D01*
X28732774Y-20218558D01*
X28720777Y-20218642D01*
X28708847Y-20218558D01*
X28707013Y-20218738D01*
X28590555Y-20230978D01*
X28578781Y-20233395D01*
X28567084Y-20235626D01*
X28565320Y-20236158D01*
X28453458Y-20270785D01*
X28442385Y-20275439D01*
X28431337Y-20279903D01*
X28429709Y-20280768D01*
X28326702Y-20336463D01*
X28316757Y-20343171D01*
X28306772Y-20349705D01*
X28305344Y-20350870D01*
X28215118Y-20425512D01*
X28206692Y-20433997D01*
X28198140Y-20442371D01*
X28196965Y-20443791D01*
X28122955Y-20534537D01*
X28116348Y-20544481D01*
X28109575Y-20554373D01*
X28108698Y-20555995D01*
X28053723Y-20659388D01*
X28049160Y-20670458D01*
X28044451Y-20681445D01*
X28043906Y-20683206D01*
X28010061Y-20795307D01*
X28007735Y-20807052D01*
X28005250Y-20818745D01*
X28005057Y-20820578D01*
X28004185Y-20829476D01*
X27933561Y-20837398D01*
X27921836Y-20839890D01*
X27910123Y-20842209D01*
X27908362Y-20842754D01*
X27750237Y-20892914D01*
X27739247Y-20897624D01*
X27728179Y-20902186D01*
X27726562Y-20903060D01*
X27726558Y-20903062D01*
X27726557Y-20903063D01*
X27581186Y-20982982D01*
X27571325Y-20989734D01*
X27561351Y-20996361D01*
X27559931Y-20997536D01*
X27432850Y-21104168D01*
X27424478Y-21112717D01*
X27415990Y-21121146D01*
X27414826Y-21122574D01*
X27402000Y-21138526D01*
X27402000Y-19677000D01*
X29662145Y-19677000D01*
X29678912Y-19693767D01*
G36*
X29678912Y-24493767D02*
G01*
X29740855Y-24535157D01*
X29809683Y-24563666D01*
X29850576Y-24571800D01*
X29812751Y-24571800D01*
X29739683Y-24586334D01*
X29670855Y-24614843D01*
X29608912Y-24656233D01*
X29556233Y-24708912D01*
X29514843Y-24770855D01*
X29486334Y-24839683D01*
X29471800Y-24912751D01*
X29471800Y-24987249D01*
X29486334Y-25060317D01*
X29514843Y-25129145D01*
X29556233Y-25191088D01*
X29608912Y-25243767D01*
X29670855Y-25285157D01*
X29739683Y-25313666D01*
X29740418Y-25313812D01*
X29721579Y-25335055D01*
X29713474Y-25346224D01*
X29705242Y-25357241D01*
X29704156Y-25359065D01*
X29616288Y-25509028D01*
X29610408Y-25517800D01*
X29598909Y-25545445D01*
X29594497Y-25567451D01*
X29584655Y-25665870D01*
X29567885Y-25741334D01*
X29567416Y-25742874D01*
X29566277Y-25748571D01*
X29565001Y-25754311D01*
X29564805Y-25755927D01*
X29546661Y-25846646D01*
X29528861Y-25917845D01*
X29528239Y-25919743D01*
X29527056Y-25925064D01*
X29525729Y-25930374D01*
X29525436Y-25932357D01*
X29509703Y-26003153D01*
X29509407Y-26003843D01*
X29506472Y-26017692D01*
X29505001Y-26024311D01*
X29504910Y-26025061D01*
X29504754Y-26025798D01*
X29504005Y-26032543D01*
X29502304Y-26046592D01*
X29502361Y-26047338D01*
X29495059Y-26113057D01*
X29476359Y-26187855D01*
X29458151Y-26260685D01*
X29440529Y-26322362D01*
X29430915Y-26348000D01*
X28637079Y-26348000D01*
X28633571Y-26316728D01*
X28630695Y-26303197D01*
X28628030Y-26289738D01*
X28627403Y-26287710D01*
X28580193Y-26138886D01*
X28574762Y-26126215D01*
X28569516Y-26113486D01*
X28568507Y-26111619D01*
X28493290Y-25974800D01*
X28485488Y-25963406D01*
X28477882Y-25951957D01*
X28476530Y-25950322D01*
X28376170Y-25830718D01*
X28366293Y-25821046D01*
X28356619Y-25811304D01*
X28354974Y-25809962D01*
X28233295Y-25712130D01*
X28221775Y-25704592D01*
X28210345Y-25696882D01*
X28208472Y-25695886D01*
X28070106Y-25623550D01*
X28057325Y-25618386D01*
X28044633Y-25613051D01*
X28042602Y-25612438D01*
X28042600Y-25612437D01*
X28042596Y-25612436D01*
X27892821Y-25568354D01*
X27879284Y-25565772D01*
X27865794Y-25563003D01*
X27863682Y-25562796D01*
X27708191Y-25548645D01*
X27694415Y-25548741D01*
X27680638Y-25548645D01*
X27678526Y-25548852D01*
X27523249Y-25565173D01*
X27509753Y-25567943D01*
X27496222Y-25570524D01*
X27494195Y-25571137D01*
X27494189Y-25571138D01*
X27494183Y-25571140D01*
X27345041Y-25617307D01*
X27332295Y-25622664D01*
X27327000Y-25624804D01*
X27327000Y-24452000D01*
X29637145Y-24452000D01*
X29678912Y-24493767D01*
X29678912Y-24493767D01*
G37*
X29678912Y-24493767D02*
X29740855Y-24535157D01*
X29809683Y-24563666D01*
X29850576Y-24571800D01*
X29812751Y-24571800D01*
X29739683Y-24586334D01*
X29670855Y-24614843D01*
X29608912Y-24656233D01*
X29556233Y-24708912D01*
X29514843Y-24770855D01*
X29486334Y-24839683D01*
X29471800Y-24912751D01*
X29471800Y-24987249D01*
X29486334Y-25060317D01*
X29514843Y-25129145D01*
X29556233Y-25191088D01*
X29608912Y-25243767D01*
X29670855Y-25285157D01*
X29739683Y-25313666D01*
X29740418Y-25313812D01*
X29721579Y-25335055D01*
X29713474Y-25346224D01*
X29705242Y-25357241D01*
X29704156Y-25359065D01*
X29616288Y-25509028D01*
X29610408Y-25517800D01*
X29598909Y-25545445D01*
X29594497Y-25567451D01*
X29584655Y-25665870D01*
X29567885Y-25741334D01*
X29567416Y-25742874D01*
X29566277Y-25748571D01*
X29565001Y-25754311D01*
X29564805Y-25755927D01*
X29546661Y-25846646D01*
X29528861Y-25917845D01*
X29528239Y-25919743D01*
X29527056Y-25925064D01*
X29525729Y-25930374D01*
X29525436Y-25932357D01*
X29509703Y-26003153D01*
X29509407Y-26003843D01*
X29506472Y-26017692D01*
X29505001Y-26024311D01*
X29504910Y-26025061D01*
X29504754Y-26025798D01*
X29504005Y-26032543D01*
X29502304Y-26046592D01*
X29502361Y-26047338D01*
X29495059Y-26113057D01*
X29476359Y-26187855D01*
X29458151Y-26260685D01*
X29440529Y-26322362D01*
X29430915Y-26348000D01*
X28637079Y-26348000D01*
X28633571Y-26316728D01*
X28630695Y-26303197D01*
X28628030Y-26289738D01*
X28627403Y-26287710D01*
X28580193Y-26138886D01*
X28574762Y-26126215D01*
X28569516Y-26113486D01*
X28568507Y-26111619D01*
X28493290Y-25974800D01*
X28485488Y-25963406D01*
X28477882Y-25951957D01*
X28476530Y-25950322D01*
X28376170Y-25830718D01*
X28366293Y-25821046D01*
X28356619Y-25811304D01*
X28354974Y-25809962D01*
X28233295Y-25712130D01*
X28221775Y-25704592D01*
X28210345Y-25696882D01*
X28208472Y-25695886D01*
X28070106Y-25623550D01*
X28057325Y-25618386D01*
X28044633Y-25613051D01*
X28042602Y-25612438D01*
X28042600Y-25612437D01*
X28042596Y-25612436D01*
X27892821Y-25568354D01*
X27879284Y-25565772D01*
X27865794Y-25563003D01*
X27863682Y-25562796D01*
X27708191Y-25548645D01*
X27694415Y-25548741D01*
X27680638Y-25548645D01*
X27678526Y-25548852D01*
X27523249Y-25565173D01*
X27509753Y-25567943D01*
X27496222Y-25570524D01*
X27494195Y-25571137D01*
X27494189Y-25571138D01*
X27494183Y-25571140D01*
X27345041Y-25617307D01*
X27332295Y-25622664D01*
X27327000Y-25624804D01*
X27327000Y-24452000D01*
X29637145Y-24452000D01*
X29678912Y-24493767D01*
G36*
X29873000Y-22334176D02*
G01*
X29863574Y-22456715D01*
X29863000Y-22462538D01*
X29863000Y-22464171D01*
X29862876Y-22465783D01*
X29863000Y-22471579D01*
X29863000Y-22606990D01*
X29862704Y-22614443D01*
X29863105Y-22621342D01*
X29862783Y-22628240D01*
X29862906Y-22630358D01*
X29872434Y-22776582D01*
X29874669Y-22790190D01*
X29876710Y-22803802D01*
X29877242Y-22805856D01*
X29914991Y-22947444D01*
X29919842Y-22960398D01*
X29924473Y-22973313D01*
X29925394Y-22975225D01*
X29972764Y-23071800D01*
X29942751Y-23071800D01*
X29869683Y-23086334D01*
X29800855Y-23114843D01*
X29738912Y-23156233D01*
X29686233Y-23208912D01*
X29644843Y-23270855D01*
X29616334Y-23339683D01*
X29601800Y-23412751D01*
X29601800Y-23487249D01*
X29616334Y-23560317D01*
X29644843Y-23629145D01*
X29686233Y-23691088D01*
X29738912Y-23743767D01*
X29800855Y-23785157D01*
X29869683Y-23813666D01*
X29910576Y-23821800D01*
X29882751Y-23821800D01*
X29809683Y-23836334D01*
X29740855Y-23864843D01*
X29678912Y-23906233D01*
X29662145Y-23923000D01*
X27402000Y-23923000D01*
X27402000Y-22460255D01*
X27424353Y-22487275D01*
X27432874Y-22495737D01*
X27441213Y-22504253D01*
X27442633Y-22505428D01*
X27571189Y-22610276D01*
X27581193Y-22616922D01*
X27591026Y-22623655D01*
X27592647Y-22624532D01*
X27739120Y-22702413D01*
X27750190Y-22706976D01*
X27761177Y-22711685D01*
X27762938Y-22712230D01*
X27921748Y-22760178D01*
X27933508Y-22762506D01*
X27945187Y-22764989D01*
X27947020Y-22765182D01*
X28004847Y-22770852D01*
X28006934Y-22789461D01*
X28009423Y-22801173D01*
X28011745Y-22812900D01*
X28012290Y-22814661D01*
X28047698Y-22926279D01*
X28052423Y-22937303D01*
X28056970Y-22948335D01*
X28057846Y-22949956D01*
X28114259Y-23052571D01*
X28121033Y-23062464D01*
X28127639Y-23072407D01*
X28128814Y-23073828D01*
X28204084Y-23163532D01*
X28212633Y-23171904D01*
X28221062Y-23180392D01*
X28222490Y-23181557D01*
X28313750Y-23254931D01*
X28323758Y-23261480D01*
X28333680Y-23268173D01*
X28335303Y-23269035D01*
X28335307Y-23269038D01*
X28335311Y-23269040D01*
X28439081Y-23323289D01*
X28450200Y-23327781D01*
X28461203Y-23332407D01*
X28462961Y-23332937D01*
X28462968Y-23332940D01*
X28462975Y-23332941D01*
X28575302Y-23366001D01*
X28587069Y-23368246D01*
X28598773Y-23370649D01*
X28600606Y-23370829D01*
X28600608Y-23370829D01*
X28717226Y-23381442D01*
X28729222Y-23381358D01*
X28741152Y-23381442D01*
X28742987Y-23381262D01*
X28859444Y-23369022D01*
X28871205Y-23366608D01*
X28882916Y-23364374D01*
X28884680Y-23363842D01*
X28996543Y-23329215D01*
X29007629Y-23324555D01*
X29018663Y-23320097D01*
X29020287Y-23319234D01*
X29020292Y-23319232D01*
X29020296Y-23319229D01*
X29123298Y-23263537D01*
X29133259Y-23256818D01*
X29143228Y-23250295D01*
X29144649Y-23249136D01*
X29144656Y-23249131D01*
X29144662Y-23249125D01*
X29234882Y-23174488D01*
X29243308Y-23166003D01*
X29251860Y-23157629D01*
X29253034Y-23156209D01*
X29327045Y-23065463D01*
X29333685Y-23055470D01*
X29340425Y-23045626D01*
X29341299Y-23044010D01*
X29341302Y-23044006D01*
X29341304Y-23044002D01*
X29396277Y-22940612D01*
X29400846Y-22929528D01*
X29405549Y-22918554D01*
X29406094Y-22916794D01*
X29439939Y-22804693D01*
X29442265Y-22792948D01*
X29444750Y-22781255D01*
X29444943Y-22779422D01*
X29456370Y-22662881D01*
X29456370Y-22662872D01*
X29457000Y-22656477D01*
X29457000Y-22177000D01*
X29873000Y-22177000D01*
X29873000Y-22334176D01*
X29873000Y-22334176D01*
G37*
X29873000Y-22334176D02*
X29863574Y-22456715D01*
X29863000Y-22462538D01*
X29863000Y-22464171D01*
X29862876Y-22465783D01*
X29863000Y-22471579D01*
X29863000Y-22606990D01*
X29862704Y-22614443D01*
X29863105Y-22621342D01*
X29862783Y-22628240D01*
X29862906Y-22630358D01*
X29872434Y-22776582D01*
X29874669Y-22790190D01*
X29876710Y-22803802D01*
X29877242Y-22805856D01*
X29914991Y-22947444D01*
X29919842Y-22960398D01*
X29924473Y-22973313D01*
X29925394Y-22975225D01*
X29972764Y-23071800D01*
X29942751Y-23071800D01*
X29869683Y-23086334D01*
X29800855Y-23114843D01*
X29738912Y-23156233D01*
X29686233Y-23208912D01*
X29644843Y-23270855D01*
X29616334Y-23339683D01*
X29601800Y-23412751D01*
X29601800Y-23487249D01*
X29616334Y-23560317D01*
X29644843Y-23629145D01*
X29686233Y-23691088D01*
X29738912Y-23743767D01*
X29800855Y-23785157D01*
X29869683Y-23813666D01*
X29910576Y-23821800D01*
X29882751Y-23821800D01*
X29809683Y-23836334D01*
X29740855Y-23864843D01*
X29678912Y-23906233D01*
X29662145Y-23923000D01*
X27402000Y-23923000D01*
X27402000Y-22460255D01*
X27424353Y-22487275D01*
X27432874Y-22495737D01*
X27441213Y-22504253D01*
X27442633Y-22505428D01*
X27571189Y-22610276D01*
X27581193Y-22616922D01*
X27591026Y-22623655D01*
X27592647Y-22624532D01*
X27739120Y-22702413D01*
X27750190Y-22706976D01*
X27761177Y-22711685D01*
X27762938Y-22712230D01*
X27921748Y-22760178D01*
X27933508Y-22762506D01*
X27945187Y-22764989D01*
X27947020Y-22765182D01*
X28004847Y-22770852D01*
X28006934Y-22789461D01*
X28009423Y-22801173D01*
X28011745Y-22812900D01*
X28012290Y-22814661D01*
X28047698Y-22926279D01*
X28052423Y-22937303D01*
X28056970Y-22948335D01*
X28057846Y-22949956D01*
X28114259Y-23052571D01*
X28121033Y-23062464D01*
X28127639Y-23072407D01*
X28128814Y-23073828D01*
X28204084Y-23163532D01*
X28212633Y-23171904D01*
X28221062Y-23180392D01*
X28222490Y-23181557D01*
X28313750Y-23254931D01*
X28323758Y-23261480D01*
X28333680Y-23268173D01*
X28335303Y-23269035D01*
X28335307Y-23269038D01*
X28335311Y-23269040D01*
X28439081Y-23323289D01*
X28450200Y-23327781D01*
X28461203Y-23332407D01*
X28462961Y-23332937D01*
X28462968Y-23332940D01*
X28462975Y-23332941D01*
X28575302Y-23366001D01*
X28587069Y-23368246D01*
X28598773Y-23370649D01*
X28600606Y-23370829D01*
X28600608Y-23370829D01*
X28717226Y-23381442D01*
X28729222Y-23381358D01*
X28741152Y-23381442D01*
X28742987Y-23381262D01*
X28859444Y-23369022D01*
X28871205Y-23366608D01*
X28882916Y-23364374D01*
X28884680Y-23363842D01*
X28996543Y-23329215D01*
X29007629Y-23324555D01*
X29018663Y-23320097D01*
X29020287Y-23319234D01*
X29020292Y-23319232D01*
X29020296Y-23319229D01*
X29123298Y-23263537D01*
X29133259Y-23256818D01*
X29143228Y-23250295D01*
X29144649Y-23249136D01*
X29144656Y-23249131D01*
X29144662Y-23249125D01*
X29234882Y-23174488D01*
X29243308Y-23166003D01*
X29251860Y-23157629D01*
X29253034Y-23156209D01*
X29327045Y-23065463D01*
X29333685Y-23055470D01*
X29340425Y-23045626D01*
X29341299Y-23044010D01*
X29341302Y-23044006D01*
X29341304Y-23044002D01*
X29396277Y-22940612D01*
X29400846Y-22929528D01*
X29405549Y-22918554D01*
X29406094Y-22916794D01*
X29439939Y-22804693D01*
X29442265Y-22792948D01*
X29444750Y-22781255D01*
X29444943Y-22779422D01*
X29456370Y-22662881D01*
X29456370Y-22662872D01*
X29457000Y-22656477D01*
X29457000Y-22177000D01*
X29873000Y-22177000D01*
X29873000Y-22334176D01*
M02*
