M48
; DRILL file {KiCad 5.1.4+dfsg1-1~bpo10+1} date Thu Feb 13 12:34:59 2020
; FORMAT={-:-/ absolute / metric / decimal}
; #@! TF.CreationDate,2020-02-13T12:34:59+01:00
; #@! TF.GenerationSoftware,Kicad,Pcbnew,5.1.4+dfsg1-1~bpo10+1
; #@! TF.FileFunction,Plated,1,6,PTH
FMAT,2
METRIC
T1C0.150
T2C0.200
T3C0.700
T4C0.900
%
G90
G05
T1
X17.32Y-19.209
X17.32Y-23.559
X17.36Y-18.729
X17.37Y-17.479
X17.38Y-24.919
X17.4Y-21.649
X17.77Y-20.389
X17.8Y-21.659
X18.38Y-17.499
X18.91Y-24.6
X19.36Y-17.5
X20.21Y-18.14
X22.09Y-19.449
X24.82Y-18.42
X25.07Y-24.41
X25.43Y-24.189
X26.13Y-17.879
X27.45Y-18.659
X27.48Y-20.15
X27.51Y-23.839
X27.51Y-24.54
X27.98Y-19.1
X33.7Y-22.22
X34.0Y-19.12
X34.55Y-23.37
X34.6Y-18.62
X34.6Y-19.37
X35.1Y-18.87
X35.83Y-25.11
X35.85Y-18.77
X35.85Y-19.32
X35.85Y-23.37
X37.1Y-18.77
X37.1Y-19.32
X37.1Y-25.1
X38.35Y-19.37
X38.38Y-25.11
X39.42Y-19.03
X39.65Y-21.81
X40.34Y-24.57
X40.52Y-26.01
X40.6Y-21.82
X40.76Y-19.17
X41.6Y-18.92
X41.6Y-19.37
X42.96Y-21.78
X42.96Y-22.31
X43.3Y-17.97
X43.8Y-17.97
T2
X29.85Y-18.65
X29.85Y-24.95
X29.92Y-19.4
X29.92Y-24.2
X29.98Y-20.15
X29.98Y-23.45
X31.5Y-18.65
X31.5Y-19.4
X31.5Y-20.15
X31.5Y-23.45
X31.5Y-24.2
X31.5Y-24.95
T3
X39.33Y-17.97
X40.6Y-17.97
T4
X32.8Y-17.995
X32.8Y-20.535
X32.8Y-23.075
X32.8Y-25.615
X43.5Y-20.71
X43.5Y-23.71
T0
M30
