G04 #@! TF.GenerationSoftware,KiCad,Pcbnew,5.1.4+dfsg1-1~bpo10+1*
G04 #@! TF.CreationDate,2020-02-13T12:35:02+01:00*
G04 #@! TF.ProjectId,qomu-board,716f6d75-2d62-46f6-9172-642e6b696361,rev?*
G04 #@! TF.SameCoordinates,Original*
G04 #@! TF.FileFunction,Copper,L5,Inr*
G04 #@! TF.FilePolarity,Positive*
%FSLAX46Y46*%
G04 Gerber Fmt 4.6, Leading zero omitted, Abs format (unit mm)*
G04 Created by KiCad (PCBNEW 5.1.4+dfsg1-1~bpo10+1) date 2020-02-13 12:35:02*
%MOMM*%
%LPD*%
G04 APERTURE LIST*
%ADD10C,1.200000*%
%ADD11C,1.100000*%
%ADD12O,1.250000X1.500000*%
%ADD13R,1.250000X1.500000*%
%ADD14C,0.350000*%
%ADD15C,0.300000*%
%ADD16C,0.250000*%
%ADD17C,0.200000*%
%ADD18C,0.150000*%
%ADD19C,0.400000*%
%ADD20C,0.100000*%
G04 APERTURE END LIST*
D10*
X43500000Y-20710000D03*
X43500000Y-23710000D03*
D11*
X40600000Y-17970000D03*
X39330000Y-17970000D03*
D12*
X32800000Y-25615000D03*
X32800000Y-23075000D03*
X32800000Y-20535000D03*
D13*
X32800000Y-17995000D03*
D14*
X29980000Y-20150000D03*
X29980000Y-23450000D03*
X29920000Y-24200000D03*
X29850000Y-24950000D03*
X29850000Y-18650000D03*
X29920000Y-19400000D03*
X31500000Y-20150000D03*
X31500000Y-23450000D03*
X31500000Y-24200000D03*
X31500000Y-24950000D03*
X31500000Y-18650000D03*
X31500000Y-19400000D03*
D15*
X34000000Y-19120000D03*
X34600000Y-18620000D03*
X37100000Y-19320000D03*
X37100000Y-18770000D03*
X35850000Y-19320000D03*
X35850000Y-18770000D03*
D16*
X21283959Y-22819319D03*
D15*
X19770000Y-25280000D03*
X19760000Y-24929000D03*
X20230000Y-25250000D03*
X20581000Y-25240000D03*
X18820000Y-25230000D03*
X18830000Y-25581000D03*
X17380000Y-25760000D03*
X17370000Y-25409000D03*
D14*
X22090000Y-19449000D03*
X17360000Y-18729000D03*
D15*
X24570000Y-24389000D03*
X25890000Y-22749000D03*
X25890000Y-23159000D03*
X23240000Y-23879000D03*
X24220000Y-22449000D03*
X17320000Y-23559000D03*
X17320000Y-19209000D03*
D14*
X17370000Y-17479000D03*
D16*
X21292400Y-22467200D03*
X20936800Y-22822800D03*
X21635300Y-22822800D03*
X21635300Y-22124300D03*
X21635300Y-22120000D03*
X21290600Y-22467200D03*
X20935000Y-22820000D03*
X21285000Y-22820000D03*
X21635000Y-22820000D03*
D14*
X26130000Y-17879000D03*
X27450000Y-18659000D03*
X18380000Y-17499000D03*
D15*
X17800000Y-21659000D03*
D16*
X22950000Y-24029000D03*
D15*
X24220000Y-22829000D03*
X23230000Y-25200000D03*
X23620000Y-25200000D03*
D16*
X26320000Y-23980000D03*
X26320000Y-23640000D03*
D15*
X24580000Y-24740000D03*
X26270000Y-22910000D03*
D14*
X19360000Y-17500000D03*
D15*
X21360000Y-25700000D03*
X21370000Y-26070000D03*
X21740000Y-26050000D03*
X21000000Y-25830000D03*
D14*
X24820000Y-18420000D03*
X20210000Y-18140000D03*
D15*
X39420000Y-19030000D03*
X39650000Y-21810000D03*
D14*
X24130000Y-21070000D03*
X23660000Y-21070000D03*
D15*
X41600000Y-18920000D03*
X41600000Y-19370000D03*
X35100000Y-18870000D03*
X34600000Y-19370000D03*
X25860000Y-26080000D03*
X25470000Y-26080000D03*
X22820000Y-22629000D03*
X19790000Y-24209000D03*
X20120000Y-24029000D03*
X25750000Y-20609000D03*
X25375000Y-20609000D03*
X24500000Y-20584000D03*
D16*
X21985000Y-22820600D03*
X20585000Y-22820000D03*
X20935000Y-23170000D03*
D15*
X24125000Y-20584000D03*
X20720000Y-23969000D03*
X22600000Y-23969000D03*
D16*
X25470000Y-22640000D03*
D15*
X19760000Y-22500000D03*
D16*
X19830000Y-19490000D03*
X20150000Y-19490000D03*
X20585000Y-22120000D03*
X19510000Y-20880000D03*
D14*
X27980000Y-19100000D03*
D16*
X20935000Y-22120000D03*
X21000000Y-21270000D03*
X20600000Y-20880000D03*
D14*
X27510000Y-24540000D03*
D16*
X21635000Y-23170000D03*
X20936800Y-22467200D03*
X20936800Y-22467200D03*
D14*
X27510000Y-23839000D03*
X27480000Y-20150000D03*
D16*
X23270000Y-21120000D03*
X25200000Y-18220000D03*
X20890000Y-20530000D03*
X22290000Y-24550000D03*
X21990000Y-23519000D03*
X18770000Y-17700000D03*
X18290000Y-22420000D03*
X17750000Y-18170000D03*
X20579400Y-22464400D03*
D15*
X17770000Y-20389000D03*
X17400000Y-21649000D03*
X17770000Y-19959000D03*
D16*
X20585000Y-23170000D03*
X19640000Y-21930000D03*
X19190000Y-25990000D03*
X18810000Y-25990000D03*
D15*
X40340000Y-24570000D03*
D16*
X24950000Y-21769000D03*
X22850000Y-23339000D03*
X26280000Y-24339000D03*
X22790000Y-23669000D03*
X24950000Y-22979000D03*
X25750000Y-24429000D03*
X21985000Y-22120000D03*
X23520000Y-18990000D03*
X21635000Y-22470000D03*
X21635300Y-22467200D03*
X22260000Y-21389000D03*
X23520000Y-19500000D03*
X19450000Y-19539000D03*
X20260000Y-20870000D03*
X20890000Y-20190000D03*
X21250000Y-19790000D03*
D15*
X25070000Y-24410000D03*
X18910000Y-24600000D03*
X25430000Y-24189000D03*
X17380000Y-24919000D03*
X23650000Y-22629000D03*
D16*
X21985000Y-22467200D03*
X26125000Y-20609000D03*
X24950000Y-21439000D03*
X22770000Y-23009000D03*
X21285000Y-22120000D03*
X19440000Y-20239000D03*
D15*
X40600000Y-21820000D03*
D16*
X22640000Y-20870000D03*
D15*
X33700000Y-22220000D03*
X40760000Y-19170000D03*
D16*
X23010000Y-20880000D03*
D15*
X43800000Y-17970000D03*
X34550000Y-23370000D03*
D16*
X21285000Y-23170000D03*
D15*
X35830000Y-25110000D03*
X43300000Y-17970000D03*
X35850000Y-23370000D03*
D16*
X21290000Y-23809000D03*
D15*
X38380000Y-25110000D03*
X42960000Y-22310000D03*
X38350000Y-19370000D03*
X42960000Y-21780000D03*
X37100000Y-25100000D03*
D16*
X27070000Y-19049000D03*
X18670000Y-18500000D03*
X26850000Y-17460000D03*
X19740000Y-17770000D03*
X21985000Y-23170000D03*
X24300000Y-25240000D03*
X21810000Y-23799000D03*
X22230000Y-24910000D03*
X19770000Y-22880000D03*
X20300000Y-25630000D03*
X19970000Y-25630000D03*
D15*
X40520000Y-26010000D03*
D16*
X25010000Y-26000800D03*
X19890000Y-22150000D03*
X19680000Y-21590000D03*
X18000000Y-26000800D03*
D17*
X19770000Y-25280000D02*
X19770000Y-24939000D01*
X20230000Y-25250000D02*
X20571000Y-25250000D01*
X18820000Y-25230000D02*
X18820000Y-25571000D01*
X17380000Y-25760000D02*
X17380000Y-25419000D01*
D18*
X23100000Y-23879000D02*
X23240000Y-23879000D01*
X22950000Y-24029000D02*
X23100000Y-23879000D01*
D17*
X24220000Y-22449000D02*
X24220000Y-22829000D01*
D18*
X25890000Y-22749000D02*
X25890000Y-23159000D01*
D17*
X21750000Y-21484000D02*
X21750000Y-21079000D01*
X21635300Y-22124300D02*
X21635300Y-21598700D01*
X21635300Y-21598700D02*
X21750000Y-21484000D01*
D18*
X23230000Y-25200000D02*
X23620000Y-25200000D01*
X26320000Y-23640000D02*
X26320000Y-23980000D01*
D17*
X24580000Y-24399000D02*
X24570000Y-24389000D01*
X24580000Y-24740000D02*
X24580000Y-24399000D01*
D18*
X26109000Y-22749000D02*
X25890000Y-22749000D01*
X26270000Y-22910000D02*
X26109000Y-22749000D01*
D17*
X21635300Y-21598700D02*
X21635300Y-20684700D01*
X21635300Y-20684700D02*
X21831793Y-20488207D01*
X21380000Y-26060000D02*
X21740000Y-26060000D01*
X21370000Y-26070000D02*
X21380000Y-26060000D01*
X21130000Y-25700000D02*
X21441000Y-25700000D01*
X21000000Y-25830000D02*
X21130000Y-25700000D01*
X23654000Y-21070000D02*
X23645000Y-21079000D01*
X24130000Y-21070000D02*
X23654000Y-21070000D01*
D18*
X23654000Y-21070000D02*
X23660000Y-21070000D01*
D19*
X21831793Y-20488207D02*
X21831793Y-20940000D01*
X21831793Y-20358207D02*
X21831793Y-20488207D01*
X22090000Y-19449000D02*
X22090000Y-20100000D01*
X22090000Y-20100000D02*
X21831793Y-20358207D01*
D18*
X24125000Y-20584000D02*
X24500000Y-20584000D01*
X25750000Y-20609000D02*
X25375000Y-20609000D01*
D17*
X22820000Y-22629000D02*
X22680000Y-22629000D01*
X22488400Y-22820600D02*
X21985000Y-22820600D01*
X22680000Y-22629000D02*
X22488400Y-22820600D01*
X19940000Y-24209000D02*
X19790000Y-24209000D01*
X20120000Y-24029000D02*
X19940000Y-24209000D01*
X20720000Y-23969000D02*
X20720000Y-23509000D01*
X20720000Y-23509000D02*
X20935000Y-23294000D01*
X20935000Y-23294000D02*
X20935000Y-23170000D01*
D18*
X22500000Y-23199000D02*
X22488400Y-23187400D01*
X22600000Y-23899000D02*
X22500000Y-23799000D01*
X22488400Y-23187400D02*
X22488400Y-22820600D01*
X22500000Y-23799000D02*
X22500000Y-23199000D01*
X22600000Y-23969000D02*
X22600000Y-23899000D01*
D17*
X20170000Y-23979000D02*
X20170000Y-22821000D01*
X20170000Y-22821000D02*
X20171000Y-22820000D01*
X20120000Y-24029000D02*
X20170000Y-23979000D01*
X20585000Y-22820000D02*
X20171000Y-22820000D01*
X25860000Y-26080000D02*
X25470000Y-26080000D01*
D20*
X25750000Y-20609000D02*
X25750000Y-20520000D01*
X25750000Y-20609000D02*
X25750000Y-20550000D01*
X25750000Y-20550000D02*
X25990000Y-20310000D01*
X25990000Y-20310000D02*
X26310000Y-20310000D01*
X26310000Y-20310000D02*
X26480000Y-20480000D01*
X26480000Y-21630000D02*
X25470000Y-22640000D01*
X26480000Y-20480000D02*
X26480000Y-21630000D01*
D17*
X19760000Y-22500000D02*
X19911000Y-22500000D01*
X19911000Y-22500000D02*
X20171000Y-22760000D01*
X20171000Y-22760000D02*
X20171000Y-22820000D01*
D18*
X20150000Y-19490000D02*
X19830000Y-19490000D01*
D20*
X20585000Y-21855000D02*
X20585000Y-22120000D01*
X19510000Y-20880000D02*
X19610000Y-20880000D01*
X19610000Y-20880000D02*
X20585000Y-21855000D01*
X20935000Y-21335000D02*
X20935000Y-22120000D01*
X21000000Y-21270000D02*
X20935000Y-21335000D01*
X22240000Y-18720000D02*
X24290000Y-18720000D01*
X24290000Y-18720000D02*
X24890000Y-19320000D01*
X21720000Y-19240000D02*
X22240000Y-18720000D01*
X20680000Y-20800000D02*
X21050000Y-20800000D01*
X20600000Y-20880000D02*
X20680000Y-20800000D01*
X24890000Y-19320000D02*
X27760000Y-19320000D01*
X21050000Y-20800000D02*
X21490000Y-20360000D01*
X27760000Y-19320000D02*
X27980000Y-19100000D01*
X21490000Y-20360000D02*
X21490000Y-20190000D01*
X21720000Y-19960000D02*
X21720000Y-19240000D01*
X21490000Y-20190000D02*
X21720000Y-19960000D01*
X26805000Y-24540000D02*
X27510000Y-24540000D01*
X26445000Y-24900000D02*
X26805000Y-24540000D01*
X25080000Y-24900000D02*
X26445000Y-24900000D01*
X21635000Y-23474000D02*
X21550000Y-23559000D01*
X21635000Y-23170000D02*
X21635000Y-23474000D01*
X21550000Y-24615000D02*
X22465000Y-25530000D01*
X21550000Y-23559000D02*
X21550000Y-24615000D01*
X24450000Y-25530000D02*
X25080000Y-24900000D01*
X22465000Y-25530000D02*
X24450000Y-25530000D01*
X23270000Y-21120000D02*
X23270000Y-20920000D01*
X24200000Y-19990000D02*
X27271000Y-19990000D01*
X23270000Y-20920000D02*
X24200000Y-19990000D01*
X27271000Y-19990000D02*
X27440000Y-20159000D01*
X25040000Y-18060000D02*
X25200000Y-18220000D01*
X22530000Y-18060000D02*
X25040000Y-18060000D01*
X21000000Y-20530000D02*
X21220000Y-20310000D01*
X21220000Y-20310000D02*
X21220000Y-20180000D01*
X21220000Y-20180000D02*
X21520000Y-19880000D01*
X21520000Y-19880000D02*
X21520000Y-19070000D01*
X20890000Y-20530000D02*
X21000000Y-20530000D01*
X21520000Y-19070000D02*
X22530000Y-18060000D01*
X21990000Y-23519000D02*
X22090000Y-23619000D01*
X22090000Y-24350000D02*
X22290000Y-24550000D01*
X22090000Y-23619000D02*
X22090000Y-24350000D01*
X18640000Y-17830000D02*
X18770000Y-17700000D01*
X17450000Y-17980000D02*
X17600000Y-17830000D01*
X17600000Y-17830000D02*
X18640000Y-17830000D01*
X18290000Y-22420000D02*
X18290000Y-19120000D01*
X17450000Y-18280000D02*
X17450000Y-17980000D01*
X18290000Y-19120000D02*
X17450000Y-18280000D01*
X18490000Y-18910000D02*
X17750000Y-18170000D01*
X18490000Y-20260000D02*
X18490000Y-18910000D01*
X20364400Y-22464400D02*
X20230000Y-22330000D01*
X20579400Y-22464400D02*
X20364400Y-22464400D01*
X19390000Y-21160000D02*
X18490000Y-20260000D01*
X20230000Y-22330000D02*
X20230000Y-21770000D01*
X20230000Y-21770000D02*
X19620000Y-21160000D01*
X19620000Y-21160000D02*
X19390000Y-21160000D01*
X17770000Y-19959000D02*
X17630000Y-19959000D01*
X17400000Y-20189000D02*
X17400000Y-21649000D01*
X17630000Y-19959000D02*
X17400000Y-20189000D01*
X19190000Y-25990000D02*
X18810000Y-25990000D01*
X18670000Y-25990000D02*
X18810000Y-25990000D01*
X18420000Y-24600000D02*
X18420000Y-25740000D01*
X19640000Y-21930000D02*
X19490000Y-21930000D01*
X18990000Y-22430000D02*
X18990000Y-24030000D01*
X19490000Y-21930000D02*
X18990000Y-22430000D01*
X18990000Y-24030000D02*
X18420000Y-24600000D01*
X18420000Y-25740000D02*
X18670000Y-25990000D01*
X24950000Y-22599000D02*
X24950000Y-21769000D01*
X22850000Y-23339000D02*
X24210000Y-23339000D01*
X24210000Y-23339000D02*
X24950000Y-22599000D01*
X25260000Y-23319000D02*
X26280000Y-24339000D01*
X24950000Y-22599000D02*
X25260000Y-22909000D01*
X25260000Y-22909000D02*
X25260000Y-23319000D01*
X25740000Y-24419000D02*
X25750000Y-24429000D01*
X25750000Y-24079000D02*
X25750000Y-24429000D01*
X25210000Y-23539000D02*
X25750000Y-24079000D01*
X22790000Y-23669000D02*
X23010000Y-23669000D01*
X23010000Y-23669000D02*
X23140000Y-23539000D01*
X24950000Y-23519000D02*
X24930000Y-23539000D01*
X24950000Y-22979000D02*
X24950000Y-23519000D01*
X23140000Y-23539000D02*
X24930000Y-23539000D01*
X24930000Y-23539000D02*
X25210000Y-23539000D01*
X21985000Y-21299000D02*
X21985000Y-22120000D01*
X22180000Y-21104000D02*
X21985000Y-21299000D01*
X22180000Y-21104000D02*
X22180000Y-20520000D01*
X23210000Y-19490000D02*
X23210000Y-19300000D01*
X22180000Y-20520000D02*
X23210000Y-19490000D01*
X23520000Y-18990000D02*
X23210000Y-19300000D01*
X23520000Y-19500000D02*
X23520000Y-19510000D01*
X22370000Y-21279000D02*
X22260000Y-21389000D01*
X22370000Y-20660000D02*
X22370000Y-21279000D01*
X23520000Y-19510000D02*
X22370000Y-20660000D01*
X19730000Y-19819000D02*
X19450000Y-19539000D01*
X19730000Y-20180000D02*
X19730000Y-19819000D01*
X20260000Y-20710000D02*
X19730000Y-20180000D01*
X20260000Y-20870000D02*
X20260000Y-20710000D01*
X20890000Y-20150000D02*
X20890000Y-20190000D01*
X21250000Y-19790000D02*
X20890000Y-20150000D01*
D18*
X21985000Y-22465000D02*
X22161776Y-22465000D01*
D17*
X23650000Y-22629000D02*
X23260000Y-22239000D01*
X23260000Y-22239000D02*
X22560000Y-22239000D01*
X22331800Y-22467200D02*
X21985000Y-22467200D01*
X22560000Y-22239000D02*
X22331800Y-22467200D01*
D20*
X26125000Y-20609000D02*
X26125000Y-20774000D01*
X25460000Y-21439000D02*
X24950000Y-21439000D01*
X26125000Y-20774000D02*
X25460000Y-21439000D01*
X24950000Y-21439000D02*
X24590000Y-21439000D01*
X24590000Y-21439000D02*
X23940000Y-22089000D01*
X23940000Y-22089000D02*
X23940000Y-22789000D01*
X23720000Y-23009000D02*
X22770000Y-23009000D01*
X23940000Y-22789000D02*
X23720000Y-23009000D01*
X21110000Y-20990000D02*
X21285000Y-21165000D01*
X19950000Y-20749000D02*
X19950000Y-20940000D01*
X19950000Y-20940000D02*
X20189000Y-21179000D01*
X19440000Y-20239000D02*
X19950000Y-20749000D01*
X21285000Y-21165000D02*
X21285000Y-22120000D01*
X20189000Y-21179000D02*
X20691000Y-21179000D01*
X20691000Y-21179000D02*
X20880000Y-20990000D01*
X20880000Y-20990000D02*
X21110000Y-20990000D01*
D18*
X33050000Y-19020000D02*
X33900000Y-19870000D01*
X31850000Y-19019000D02*
X31851000Y-19020000D01*
X31851000Y-19020000D02*
X33050000Y-19020000D01*
X33900000Y-19870000D02*
X33900000Y-21420000D01*
X32800000Y-22520000D02*
X32800000Y-23075000D01*
X33900000Y-21420000D02*
X32800000Y-22520000D01*
X33545000Y-23075000D02*
X32800000Y-23075000D01*
X34400000Y-22220000D02*
X33545000Y-23075000D01*
X40200000Y-22220000D02*
X34400000Y-22220000D01*
X40600000Y-21820000D02*
X40200000Y-22220000D01*
D20*
X29010000Y-19549000D02*
X29540000Y-19019000D01*
X29540000Y-19019000D02*
X31850000Y-19019000D01*
X22640000Y-20870000D02*
X22640000Y-20790000D01*
X23881000Y-19549000D02*
X29010000Y-19549000D01*
X22640000Y-20790000D02*
X23881000Y-19549000D01*
X32515000Y-20535000D02*
X32800000Y-20535000D01*
D18*
X31749000Y-19769000D02*
X32515000Y-20535000D01*
X39260000Y-20670000D02*
X35250000Y-20670000D01*
X40760000Y-19170000D02*
X39260000Y-20670000D01*
X35250000Y-20670000D02*
X33700000Y-22220000D01*
D20*
X24041000Y-19769000D02*
X31749000Y-19769000D01*
X23010000Y-20880000D02*
X23010000Y-20800000D01*
X23010000Y-20800000D02*
X24041000Y-19769000D01*
D18*
X31750000Y-24580000D02*
X32090000Y-24580000D01*
X32090000Y-24580000D02*
X32200000Y-24470000D01*
X32200000Y-24470000D02*
X34050000Y-24470000D01*
X34050000Y-24470000D02*
X34550000Y-23970000D01*
D20*
X28330000Y-24580000D02*
X31750000Y-24580000D01*
X27820000Y-25090000D02*
X28330000Y-24580000D01*
X26900000Y-25090000D02*
X27820000Y-25090000D01*
X26680000Y-25310000D02*
X26900000Y-25090000D01*
X21285000Y-23414000D02*
X21020000Y-23679000D01*
X25240000Y-25310000D02*
X26680000Y-25310000D01*
X21285000Y-23170000D02*
X21285000Y-23414000D01*
X21020000Y-23679000D02*
X21020000Y-24630000D01*
X21020000Y-24630000D02*
X22310000Y-25920000D01*
X24630000Y-25920000D02*
X25240000Y-25310000D01*
X22310000Y-25920000D02*
X24630000Y-25920000D01*
D18*
X34560000Y-23770000D02*
X34550000Y-23760000D01*
X39650000Y-23770000D02*
X34560000Y-23770000D01*
X34550000Y-23760000D02*
X34550000Y-23370000D01*
X34550000Y-23970000D02*
X34550000Y-23760000D01*
X42340000Y-20130000D02*
X42340000Y-21080000D01*
X43800000Y-17970000D02*
X43800000Y-18670000D01*
X43800000Y-18670000D02*
X42340000Y-20130000D01*
X42340000Y-21080000D02*
X39650000Y-23770000D01*
X31800000Y-23830000D02*
X31860000Y-23830000D01*
X31860000Y-23830000D02*
X32200000Y-24170000D01*
X32200000Y-24170000D02*
X33550000Y-24170000D01*
X33550000Y-24170000D02*
X34050000Y-23670000D01*
X34050000Y-23670000D02*
X34050000Y-23170000D01*
X34050000Y-23170000D02*
X34300000Y-22920000D01*
X35400000Y-22920000D02*
X35850000Y-23370000D01*
X34300000Y-22920000D02*
X35400000Y-22920000D01*
D20*
X28760000Y-23830000D02*
X31800000Y-23830000D01*
X27700000Y-24890000D02*
X28760000Y-23830000D01*
X26780000Y-24890000D02*
X27700000Y-24890000D01*
X21290000Y-24630000D02*
X22380000Y-25720000D01*
X21290000Y-23809000D02*
X21290000Y-24630000D01*
X24540000Y-25720000D02*
X25160000Y-25100000D01*
X22380000Y-25720000D02*
X24540000Y-25720000D01*
X25160000Y-25100000D02*
X26570000Y-25100000D01*
X26570000Y-25100000D02*
X26780000Y-24890000D01*
D18*
X39580000Y-23380000D02*
X35860000Y-23380000D01*
X42070000Y-20890000D02*
X39580000Y-23380000D01*
X42070000Y-19950000D02*
X42070000Y-20890000D01*
X35860000Y-23380000D02*
X35850000Y-23370000D01*
X43300000Y-17970000D02*
X43300000Y-18720000D01*
X43300000Y-18720000D02*
X42070000Y-19950000D01*
X42960000Y-22310000D02*
X42010000Y-22310000D01*
X42010000Y-22310000D02*
X39220000Y-25100000D01*
X39220000Y-25100000D02*
X38370000Y-25100000D01*
X37100000Y-25100000D02*
X38080000Y-24120000D01*
X38080000Y-24120000D02*
X39750000Y-24120000D01*
X42090000Y-21780000D02*
X42960000Y-21780000D01*
X39750000Y-24120000D02*
X42090000Y-21780000D01*
D20*
X25480000Y-17800000D02*
X26729000Y-19049000D01*
X20090000Y-17800000D02*
X25480000Y-17800000D01*
X26729000Y-19049000D02*
X27070000Y-19049000D01*
X18670000Y-18500000D02*
X19390000Y-18500000D01*
X19390000Y-18500000D02*
X20090000Y-17800000D01*
X25540000Y-17560000D02*
X19950000Y-17560000D01*
X19950000Y-17560000D02*
X19740000Y-17770000D01*
X26850000Y-17460000D02*
X25640000Y-17460000D01*
X25640000Y-17460000D02*
X25540000Y-17560000D01*
X22290000Y-23260000D02*
X22200000Y-23170000D01*
X22200000Y-23170000D02*
X21985000Y-23170000D01*
X23000000Y-24810000D02*
X22290000Y-24100000D01*
X22290000Y-24100000D02*
X22290000Y-23260000D01*
X24300000Y-25240000D02*
X23870000Y-24810000D01*
X23870000Y-24810000D02*
X23000000Y-24810000D01*
X21810000Y-23799000D02*
X21830000Y-23819000D01*
X21810000Y-24490000D02*
X22230000Y-24910000D01*
X21810000Y-23799000D02*
X21810000Y-24490000D01*
X19770000Y-22880000D02*
X19440000Y-23210000D01*
X19440000Y-23210000D02*
X19440000Y-25420000D01*
X20300000Y-25630000D02*
X19970000Y-25630000D01*
X19650000Y-25630000D02*
X19440000Y-25420000D01*
X19970000Y-25630000D02*
X19650000Y-25630000D01*
X24890800Y-26120000D02*
X25010000Y-26000800D01*
X22240000Y-26120000D02*
X24890800Y-26120000D01*
X21010000Y-25340000D02*
X21460000Y-25340000D01*
X19840000Y-22200000D02*
X19560000Y-22200000D01*
X19890000Y-22150000D02*
X19840000Y-22200000D01*
X19560000Y-22200000D02*
X19220000Y-22540000D01*
X21460000Y-25340000D02*
X22240000Y-26120000D01*
X19220000Y-22540000D02*
X19220000Y-25480000D01*
X20410000Y-25940000D02*
X21010000Y-25340000D01*
X19680000Y-25940000D02*
X20410000Y-25940000D01*
X19220000Y-25480000D02*
X19680000Y-25940000D01*
X19680000Y-21590000D02*
X19470000Y-21590000D01*
X19470000Y-21590000D02*
X18750000Y-22310000D01*
X18750000Y-22310000D02*
X18750000Y-23910000D01*
X18750000Y-23910000D02*
X18000000Y-24660000D01*
X18000000Y-24660000D02*
X18000000Y-26000800D01*
M02*
