G04 #@! TF.GenerationSoftware,KiCad,Pcbnew,5.1.4+dfsg1-1~bpo10+1*
G04 #@! TF.CreationDate,2020-02-13T12:35:02+01:00*
G04 #@! TF.ProjectId,qomu-board,716f6d75-2d62-46f6-9172-642e6b696361,rev?*
G04 #@! TF.SameCoordinates,Original*
G04 #@! TF.FileFunction,Soldermask,Top*
G04 #@! TF.FilePolarity,Negative*
%FSLAX46Y46*%
G04 Gerber Fmt 4.6, Leading zero omitted, Abs format (unit mm)*
G04 Created by KiCad (PCBNEW 5.1.4+dfsg1-1~bpo10+1) date 2020-02-13 12:35:02*
%MOMM*%
%LPD*%
G04 APERTURE LIST*
%ADD10C,0.100000*%
%ADD11C,0.010000*%
G04 APERTURE END LIST*
D10*
G36*
X29550000Y-17170000D02*
G01*
X29900000Y-18320000D01*
X29600000Y-18520000D01*
X29600000Y-19320000D01*
X27300000Y-19320000D01*
X27300000Y-18970000D01*
X27650000Y-18920000D01*
X27750000Y-18670000D01*
X27650000Y-18420000D01*
X27300000Y-18370000D01*
X27300000Y-17120000D01*
X29450000Y-17120000D01*
X29550000Y-17170000D01*
G37*
X29550000Y-17170000D02*
X29900000Y-18320000D01*
X29600000Y-18520000D01*
X29600000Y-19320000D01*
X27300000Y-19320000D01*
X27300000Y-18970000D01*
X27650000Y-18920000D01*
X27750000Y-18670000D01*
X27650000Y-18420000D01*
X27300000Y-18370000D01*
X27300000Y-17120000D01*
X29450000Y-17120000D01*
X29550000Y-17170000D01*
G36*
X29650000Y-25120000D02*
G01*
X29900000Y-25370000D01*
X29550000Y-26470000D01*
X29500000Y-26520000D01*
X28500000Y-26520000D01*
X28450000Y-26170000D01*
X28250000Y-25920000D01*
X28050000Y-25770000D01*
X27900000Y-25720000D01*
X27700000Y-25720000D01*
X27400000Y-25770000D01*
X27200000Y-25870000D01*
X27200000Y-24320000D01*
X29650000Y-24320000D01*
X29650000Y-25120000D01*
G37*
X29650000Y-25120000D02*
X29900000Y-25370000D01*
X29550000Y-26470000D01*
X29500000Y-26520000D01*
X28500000Y-26520000D01*
X28450000Y-26170000D01*
X28250000Y-25920000D01*
X28050000Y-25770000D01*
X27900000Y-25720000D01*
X27700000Y-25720000D01*
X27400000Y-25770000D01*
X27200000Y-25870000D01*
X27200000Y-24320000D01*
X29650000Y-24320000D01*
X29650000Y-25120000D01*
G36*
X29700000Y-20320000D02*
G01*
X30050000Y-20520000D01*
X30050000Y-23120000D01*
X29707585Y-23270000D01*
X29715000Y-24020000D01*
X27300000Y-24020000D01*
X27307500Y-19570000D01*
X29700000Y-19570000D01*
X29700000Y-20320000D01*
G37*
X29700000Y-20320000D02*
X30050000Y-20520000D01*
X30050000Y-23120000D01*
X29707585Y-23270000D01*
X29715000Y-24020000D01*
X27300000Y-24020000D01*
X27307500Y-19570000D01*
X29700000Y-19570000D01*
X29700000Y-20320000D01*
D11*
G36*
X42165358Y-20629883D02*
G01*
X42273837Y-20630067D01*
X42357287Y-20630781D01*
X42419704Y-20632325D01*
X42465085Y-20634999D01*
X42497429Y-20639106D01*
X42520733Y-20644945D01*
X42538995Y-20652818D01*
X42549418Y-20658779D01*
X42605945Y-20708145D01*
X42641377Y-20770736D01*
X42654090Y-20839987D01*
X42642463Y-20909332D01*
X42621568Y-20950625D01*
X42585422Y-20993975D01*
X42541276Y-21023519D01*
X42483462Y-21041345D01*
X42406313Y-21049537D01*
X42349714Y-21050698D01*
X42345647Y-21050542D01*
X42345647Y-20949143D01*
X42410550Y-20948524D01*
X42453514Y-20945686D01*
X42481622Y-20939160D01*
X42501953Y-20927477D01*
X42517288Y-20913517D01*
X42546890Y-20866635D01*
X42549419Y-20816299D01*
X42524705Y-20768724D01*
X42521356Y-20765021D01*
X42503935Y-20749217D01*
X42483209Y-20739307D01*
X42452362Y-20733942D01*
X42404577Y-20731772D01*
X42351748Y-20731429D01*
X42285381Y-20732173D01*
X42241106Y-20735252D01*
X42212009Y-20741939D01*
X42191173Y-20753504D01*
X42180107Y-20762987D01*
X42152198Y-20807040D01*
X42148843Y-20857776D01*
X42170159Y-20906204D01*
X42178073Y-20915550D01*
X42195647Y-20931460D01*
X42216587Y-20941390D01*
X42247782Y-20946722D01*
X42296122Y-20948837D01*
X42345647Y-20949143D01*
X42345647Y-21050542D01*
X42258568Y-21047190D01*
X42190086Y-21035274D01*
X42138600Y-21012865D01*
X42098443Y-20977876D01*
X42077861Y-20950625D01*
X42055625Y-20901093D01*
X42045304Y-20843684D01*
X42048067Y-20790318D01*
X42059212Y-20760457D01*
X42062383Y-20748739D01*
X42050557Y-20740963D01*
X42018866Y-20735535D01*
X41970593Y-20731429D01*
X41916829Y-20726933D01*
X41884482Y-20720687D01*
X41865985Y-20709324D01*
X41853770Y-20689472D01*
X41848362Y-20677000D01*
X41828601Y-20629829D01*
X42165358Y-20629883D01*
X42165358Y-20629883D01*
G37*
X42165358Y-20629883D02*
X42273837Y-20630067D01*
X42357287Y-20630781D01*
X42419704Y-20632325D01*
X42465085Y-20634999D01*
X42497429Y-20639106D01*
X42520733Y-20644945D01*
X42538995Y-20652818D01*
X42549418Y-20658779D01*
X42605945Y-20708145D01*
X42641377Y-20770736D01*
X42654090Y-20839987D01*
X42642463Y-20909332D01*
X42621568Y-20950625D01*
X42585422Y-20993975D01*
X42541276Y-21023519D01*
X42483462Y-21041345D01*
X42406313Y-21049537D01*
X42349714Y-21050698D01*
X42345647Y-21050542D01*
X42345647Y-20949143D01*
X42410550Y-20948524D01*
X42453514Y-20945686D01*
X42481622Y-20939160D01*
X42501953Y-20927477D01*
X42517288Y-20913517D01*
X42546890Y-20866635D01*
X42549419Y-20816299D01*
X42524705Y-20768724D01*
X42521356Y-20765021D01*
X42503935Y-20749217D01*
X42483209Y-20739307D01*
X42452362Y-20733942D01*
X42404577Y-20731772D01*
X42351748Y-20731429D01*
X42285381Y-20732173D01*
X42241106Y-20735252D01*
X42212009Y-20741939D01*
X42191173Y-20753504D01*
X42180107Y-20762987D01*
X42152198Y-20807040D01*
X42148843Y-20857776D01*
X42170159Y-20906204D01*
X42178073Y-20915550D01*
X42195647Y-20931460D01*
X42216587Y-20941390D01*
X42247782Y-20946722D01*
X42296122Y-20948837D01*
X42345647Y-20949143D01*
X42345647Y-21050542D01*
X42258568Y-21047190D01*
X42190086Y-21035274D01*
X42138600Y-21012865D01*
X42098443Y-20977876D01*
X42077861Y-20950625D01*
X42055625Y-20901093D01*
X42045304Y-20843684D01*
X42048067Y-20790318D01*
X42059212Y-20760457D01*
X42062383Y-20748739D01*
X42050557Y-20740963D01*
X42018866Y-20735535D01*
X41970593Y-20731429D01*
X41916829Y-20726933D01*
X41884482Y-20720687D01*
X41865985Y-20709324D01*
X41853770Y-20689472D01*
X41848362Y-20677000D01*
X41828601Y-20629829D01*
X42165358Y-20629883D01*
G36*
X42027780Y-23103907D02*
G01*
X42054723Y-23057328D01*
X42081466Y-23024943D01*
X42109484Y-23001258D01*
X42143748Y-22984941D01*
X42189227Y-22974661D01*
X42250892Y-22969086D01*
X42333711Y-22966884D01*
X42393246Y-22966629D01*
X42612391Y-22966629D01*
X42640044Y-23028314D01*
X42667697Y-23090000D01*
X42427670Y-23097257D01*
X42338028Y-23100256D01*
X42272962Y-23103402D01*
X42228026Y-23107299D01*
X42198770Y-23112553D01*
X42180748Y-23119769D01*
X42169511Y-23129550D01*
X42167079Y-23132688D01*
X42148083Y-23180239D01*
X42155600Y-23228303D01*
X42175543Y-23256914D01*
X42189675Y-23268553D01*
X42208220Y-23276609D01*
X42236334Y-23281729D01*
X42279173Y-23284559D01*
X42341895Y-23285744D01*
X42407261Y-23285943D01*
X42489268Y-23285982D01*
X42547316Y-23287386D01*
X42586465Y-23292086D01*
X42611780Y-23302013D01*
X42628323Y-23319097D01*
X42641156Y-23345268D01*
X42654491Y-23380225D01*
X42669007Y-23418404D01*
X42411389Y-23413859D01*
X42318519Y-23412029D01*
X42249889Y-23409888D01*
X42200711Y-23406819D01*
X42166198Y-23402206D01*
X42141562Y-23395432D01*
X42122016Y-23385881D01*
X42104770Y-23374366D01*
X42049680Y-23318810D01*
X42017822Y-23251020D01*
X42010191Y-23177287D01*
X42027780Y-23103907D01*
X42027780Y-23103907D01*
G37*
X42027780Y-23103907D02*
X42054723Y-23057328D01*
X42081466Y-23024943D01*
X42109484Y-23001258D01*
X42143748Y-22984941D01*
X42189227Y-22974661D01*
X42250892Y-22969086D01*
X42333711Y-22966884D01*
X42393246Y-22966629D01*
X42612391Y-22966629D01*
X42640044Y-23028314D01*
X42667697Y-23090000D01*
X42427670Y-23097257D01*
X42338028Y-23100256D01*
X42272962Y-23103402D01*
X42228026Y-23107299D01*
X42198770Y-23112553D01*
X42180748Y-23119769D01*
X42169511Y-23129550D01*
X42167079Y-23132688D01*
X42148083Y-23180239D01*
X42155600Y-23228303D01*
X42175543Y-23256914D01*
X42189675Y-23268553D01*
X42208220Y-23276609D01*
X42236334Y-23281729D01*
X42279173Y-23284559D01*
X42341895Y-23285744D01*
X42407261Y-23285943D01*
X42489268Y-23285982D01*
X42547316Y-23287386D01*
X42586465Y-23292086D01*
X42611780Y-23302013D01*
X42628323Y-23319097D01*
X42641156Y-23345268D01*
X42654491Y-23380225D01*
X42669007Y-23418404D01*
X42411389Y-23413859D01*
X42318519Y-23412029D01*
X42249889Y-23409888D01*
X42200711Y-23406819D01*
X42166198Y-23402206D01*
X42141562Y-23395432D01*
X42122016Y-23385881D01*
X42104770Y-23374366D01*
X42049680Y-23318810D01*
X42017822Y-23251020D01*
X42010191Y-23177287D01*
X42027780Y-23103907D01*
G36*
X37342348Y-21716090D02*
G01*
X37342778Y-21637546D01*
X37343942Y-21580702D01*
X37346207Y-21541895D01*
X37349940Y-21517462D01*
X37355506Y-21503738D01*
X37363273Y-21497060D01*
X37373605Y-21493764D01*
X37374943Y-21493444D01*
X37399079Y-21488438D01*
X37446701Y-21479171D01*
X37512741Y-21466608D01*
X37592128Y-21451713D01*
X37679796Y-21435449D01*
X37682875Y-21434881D01*
X37768789Y-21418590D01*
X37844696Y-21403348D01*
X37906045Y-21390139D01*
X37948282Y-21379946D01*
X37966855Y-21373752D01*
X37967184Y-21373457D01*
X37976253Y-21355212D01*
X37991367Y-21317595D01*
X38009262Y-21268729D01*
X38009358Y-21268457D01*
X38032493Y-21206907D01*
X38061965Y-21134343D01*
X38091597Y-21065943D01*
X38093062Y-21062706D01*
X38143626Y-20951298D01*
X37975160Y-20704601D01*
X37923803Y-20628923D01*
X37877889Y-20560369D01*
X37840030Y-20502912D01*
X37812837Y-20460524D01*
X37798921Y-20437175D01*
X37797889Y-20434958D01*
X37802484Y-20417990D01*
X37824655Y-20386299D01*
X37865447Y-20338648D01*
X37925905Y-20273802D01*
X37990227Y-20207603D01*
X38053612Y-20143786D01*
X38111451Y-20086671D01*
X38160175Y-20039695D01*
X38196210Y-20006297D01*
X38215984Y-19989915D01*
X38217002Y-19989306D01*
X38230572Y-19987495D01*
X38252733Y-19994317D01*
X38286478Y-20011460D01*
X38334800Y-20040607D01*
X38400692Y-20083445D01*
X38485517Y-20140552D01*
X38560177Y-20191234D01*
X38627140Y-20236539D01*
X38682516Y-20273850D01*
X38722420Y-20300548D01*
X38742962Y-20314015D01*
X38744356Y-20314863D01*
X38764038Y-20313219D01*
X38802293Y-20300755D01*
X38851889Y-20279952D01*
X38867728Y-20272538D01*
X38938290Y-20240186D01*
X39018353Y-20205672D01*
X39087629Y-20177635D01*
X39139045Y-20157432D01*
X39178119Y-20141385D01*
X39198541Y-20132112D01*
X39200114Y-20130959D01*
X39202721Y-20113904D01*
X39209863Y-20073702D01*
X39220523Y-20015698D01*
X39233685Y-19945237D01*
X39248333Y-19867665D01*
X39263449Y-19788328D01*
X39278018Y-19712569D01*
X39291022Y-19645736D01*
X39301445Y-19593172D01*
X39308270Y-19560224D01*
X39310199Y-19552143D01*
X39314962Y-19543795D01*
X39325718Y-19537494D01*
X39346098Y-19532955D01*
X39379734Y-19529896D01*
X39430255Y-19528033D01*
X39501292Y-19527082D01*
X39596476Y-19526760D01*
X39635492Y-19526743D01*
X39952799Y-19526743D01*
X39967839Y-19602943D01*
X39975995Y-19645337D01*
X39987899Y-19708600D01*
X40002116Y-19785038D01*
X40017210Y-19866957D01*
X40021355Y-19889600D01*
X40036053Y-19965194D01*
X40050505Y-20031047D01*
X40063375Y-20081634D01*
X40073322Y-20111426D01*
X40076287Y-20116388D01*
X40097283Y-20128574D01*
X40137967Y-20146047D01*
X40190322Y-20165423D01*
X40201600Y-20169266D01*
X40271523Y-20194661D01*
X40350418Y-20226183D01*
X40421266Y-20257031D01*
X40421595Y-20257183D01*
X40532733Y-20308553D01*
X40781253Y-20139601D01*
X41029772Y-19970648D01*
X41247058Y-20187571D01*
X41311726Y-20253181D01*
X41368733Y-20313021D01*
X41415033Y-20363733D01*
X41447584Y-20401954D01*
X41463343Y-20424325D01*
X41464343Y-20427534D01*
X41456469Y-20446374D01*
X41434578Y-20484820D01*
X41401267Y-20538670D01*
X41359131Y-20603724D01*
X41311943Y-20674060D01*
X41263810Y-20745445D01*
X41221928Y-20809092D01*
X41188871Y-20860959D01*
X41167218Y-20897005D01*
X41159543Y-20913133D01*
X41166037Y-20932811D01*
X41183150Y-20970125D01*
X41207326Y-21017379D01*
X41210013Y-21022388D01*
X41241927Y-21086023D01*
X41257579Y-21129659D01*
X41257745Y-21156798D01*
X41243204Y-21170943D01*
X41243000Y-21171025D01*
X41225779Y-21178095D01*
X41184899Y-21194958D01*
X41123525Y-21220305D01*
X41044819Y-21252829D01*
X40951947Y-21291222D01*
X40848072Y-21334178D01*
X40747502Y-21375778D01*
X40636516Y-21421496D01*
X40533703Y-21463474D01*
X40442215Y-21500452D01*
X40365201Y-21531173D01*
X40305815Y-21554378D01*
X40267209Y-21568810D01*
X40252800Y-21573257D01*
X40236272Y-21562104D01*
X40209930Y-21532931D01*
X40180887Y-21494029D01*
X40089039Y-21383243D01*
X39983759Y-21296649D01*
X39867266Y-21235284D01*
X39741776Y-21200185D01*
X39609507Y-21192392D01*
X39548457Y-21198057D01*
X39421795Y-21228922D01*
X39309941Y-21282080D01*
X39214001Y-21354233D01*
X39135076Y-21442083D01*
X39074270Y-21542335D01*
X39032687Y-21651690D01*
X39011428Y-21766853D01*
X39011599Y-21884525D01*
X39034301Y-22001410D01*
X39080638Y-22114211D01*
X39151713Y-22219631D01*
X39191911Y-22263632D01*
X39295129Y-22348021D01*
X39407925Y-22406778D01*
X39527010Y-22440296D01*
X39649095Y-22448965D01*
X39770893Y-22433177D01*
X39889116Y-22393322D01*
X40000475Y-22329793D01*
X40101684Y-22242979D01*
X40180887Y-22145971D01*
X40211162Y-22105563D01*
X40237219Y-22077018D01*
X40252825Y-22066743D01*
X40269843Y-22072123D01*
X40310500Y-22087425D01*
X40371642Y-22111388D01*
X40450119Y-22142756D01*
X40542780Y-22180268D01*
X40646472Y-22222667D01*
X40747526Y-22264337D01*
X40858607Y-22310310D01*
X40961541Y-22352893D01*
X41053165Y-22390779D01*
X41130316Y-22422660D01*
X41189831Y-22447229D01*
X41228544Y-22463180D01*
X41243000Y-22469090D01*
X41257685Y-22483052D01*
X41257642Y-22510060D01*
X41242099Y-22553587D01*
X41210284Y-22617110D01*
X41210013Y-22617612D01*
X41185323Y-22665440D01*
X41167338Y-22704103D01*
X41159614Y-22725905D01*
X41159543Y-22726867D01*
X41167378Y-22743279D01*
X41189165Y-22779513D01*
X41222328Y-22831526D01*
X41264291Y-22895275D01*
X41311943Y-22965940D01*
X41360191Y-23037884D01*
X41402151Y-23102726D01*
X41435227Y-23156265D01*
X41456821Y-23194303D01*
X41464343Y-23212467D01*
X41454457Y-23229192D01*
X41426826Y-23262820D01*
X41384495Y-23309990D01*
X41330505Y-23367342D01*
X41267899Y-23431516D01*
X41246983Y-23452503D01*
X41029623Y-23669501D01*
X40787220Y-23504332D01*
X40712781Y-23454136D01*
X40645972Y-23410081D01*
X40590665Y-23374638D01*
X40550729Y-23350281D01*
X40530036Y-23339478D01*
X40528563Y-23339162D01*
X40509058Y-23344857D01*
X40469822Y-23360174D01*
X40417430Y-23382463D01*
X40382355Y-23398107D01*
X40315201Y-23427359D01*
X40247358Y-23454906D01*
X40190034Y-23476263D01*
X40172572Y-23482065D01*
X40125938Y-23498548D01*
X40089905Y-23514660D01*
X40076287Y-23523510D01*
X40067952Y-23543040D01*
X40056137Y-23585666D01*
X40042181Y-23645855D01*
X40027422Y-23718078D01*
X40021355Y-23750400D01*
X40006273Y-23832478D01*
X39991669Y-23911205D01*
X39978980Y-23978891D01*
X39969642Y-24027840D01*
X39967839Y-24037057D01*
X39952799Y-24113257D01*
X39635492Y-24113257D01*
X39531154Y-24113086D01*
X39452213Y-24112384D01*
X39395038Y-24110866D01*
X39355999Y-24108251D01*
X39331465Y-24104254D01*
X39317805Y-24098591D01*
X39311389Y-24090980D01*
X39310199Y-24087857D01*
X39305980Y-24069022D01*
X39297562Y-24027412D01*
X39285961Y-23968370D01*
X39272195Y-23897243D01*
X39257280Y-23819375D01*
X39242232Y-23740113D01*
X39228069Y-23664802D01*
X39215806Y-23598787D01*
X39206461Y-23547413D01*
X39201050Y-23516025D01*
X39200114Y-23509041D01*
X39187596Y-23502715D01*
X39154246Y-23488710D01*
X39106377Y-23469645D01*
X39087629Y-23462366D01*
X39015195Y-23433004D01*
X38935170Y-23398429D01*
X38867728Y-23367463D01*
X38816159Y-23344677D01*
X38773785Y-23329518D01*
X38747834Y-23324458D01*
X38744356Y-23325264D01*
X38727936Y-23335959D01*
X38691417Y-23360380D01*
X38638687Y-23395905D01*
X38573635Y-23439913D01*
X38500151Y-23489783D01*
X38485645Y-23499644D01*
X38399704Y-23557508D01*
X38334261Y-23600044D01*
X38286304Y-23628946D01*
X38252820Y-23645910D01*
X38230795Y-23652633D01*
X38217217Y-23650810D01*
X38217131Y-23650764D01*
X38199297Y-23636414D01*
X38164817Y-23604677D01*
X38117268Y-23558990D01*
X38060222Y-23502796D01*
X37997255Y-23439532D01*
X37990227Y-23432398D01*
X37913020Y-23352670D01*
X37856330Y-23291143D01*
X37819110Y-23246579D01*
X37800315Y-23217743D01*
X37797889Y-23205042D01*
X37808471Y-23186506D01*
X37832916Y-23148039D01*
X37868612Y-23093614D01*
X37912947Y-23027202D01*
X37963311Y-22952775D01*
X37975160Y-22935399D01*
X38143626Y-22688703D01*
X38093062Y-22577294D01*
X38063595Y-22509543D01*
X38033959Y-22436817D01*
X38010330Y-22374297D01*
X38009358Y-22371543D01*
X37991457Y-22322640D01*
X37976320Y-22284943D01*
X37967210Y-22266575D01*
X37967184Y-22266544D01*
X37950717Y-22260715D01*
X37910219Y-22250808D01*
X37850242Y-22237805D01*
X37775340Y-22222691D01*
X37690064Y-22206448D01*
X37682875Y-22205119D01*
X37595014Y-22188825D01*
X37515260Y-22173867D01*
X37448681Y-22161209D01*
X37400347Y-22151814D01*
X37375325Y-22146646D01*
X37374943Y-22146556D01*
X37364299Y-22143411D01*
X37356262Y-22137296D01*
X37350467Y-22124547D01*
X37346547Y-22101500D01*
X37344135Y-22064491D01*
X37342865Y-22009856D01*
X37342371Y-21933933D01*
X37342286Y-21833056D01*
X37342286Y-21820000D01*
X37342348Y-21716090D01*
X37342348Y-21716090D01*
G37*
X37342348Y-21716090D02*
X37342778Y-21637546D01*
X37343942Y-21580702D01*
X37346207Y-21541895D01*
X37349940Y-21517462D01*
X37355506Y-21503738D01*
X37363273Y-21497060D01*
X37373605Y-21493764D01*
X37374943Y-21493444D01*
X37399079Y-21488438D01*
X37446701Y-21479171D01*
X37512741Y-21466608D01*
X37592128Y-21451713D01*
X37679796Y-21435449D01*
X37682875Y-21434881D01*
X37768789Y-21418590D01*
X37844696Y-21403348D01*
X37906045Y-21390139D01*
X37948282Y-21379946D01*
X37966855Y-21373752D01*
X37967184Y-21373457D01*
X37976253Y-21355212D01*
X37991367Y-21317595D01*
X38009262Y-21268729D01*
X38009358Y-21268457D01*
X38032493Y-21206907D01*
X38061965Y-21134343D01*
X38091597Y-21065943D01*
X38093062Y-21062706D01*
X38143626Y-20951298D01*
X37975160Y-20704601D01*
X37923803Y-20628923D01*
X37877889Y-20560369D01*
X37840030Y-20502912D01*
X37812837Y-20460524D01*
X37798921Y-20437175D01*
X37797889Y-20434958D01*
X37802484Y-20417990D01*
X37824655Y-20386299D01*
X37865447Y-20338648D01*
X37925905Y-20273802D01*
X37990227Y-20207603D01*
X38053612Y-20143786D01*
X38111451Y-20086671D01*
X38160175Y-20039695D01*
X38196210Y-20006297D01*
X38215984Y-19989915D01*
X38217002Y-19989306D01*
X38230572Y-19987495D01*
X38252733Y-19994317D01*
X38286478Y-20011460D01*
X38334800Y-20040607D01*
X38400692Y-20083445D01*
X38485517Y-20140552D01*
X38560177Y-20191234D01*
X38627140Y-20236539D01*
X38682516Y-20273850D01*
X38722420Y-20300548D01*
X38742962Y-20314015D01*
X38744356Y-20314863D01*
X38764038Y-20313219D01*
X38802293Y-20300755D01*
X38851889Y-20279952D01*
X38867728Y-20272538D01*
X38938290Y-20240186D01*
X39018353Y-20205672D01*
X39087629Y-20177635D01*
X39139045Y-20157432D01*
X39178119Y-20141385D01*
X39198541Y-20132112D01*
X39200114Y-20130959D01*
X39202721Y-20113904D01*
X39209863Y-20073702D01*
X39220523Y-20015698D01*
X39233685Y-19945237D01*
X39248333Y-19867665D01*
X39263449Y-19788328D01*
X39278018Y-19712569D01*
X39291022Y-19645736D01*
X39301445Y-19593172D01*
X39308270Y-19560224D01*
X39310199Y-19552143D01*
X39314962Y-19543795D01*
X39325718Y-19537494D01*
X39346098Y-19532955D01*
X39379734Y-19529896D01*
X39430255Y-19528033D01*
X39501292Y-19527082D01*
X39596476Y-19526760D01*
X39635492Y-19526743D01*
X39952799Y-19526743D01*
X39967839Y-19602943D01*
X39975995Y-19645337D01*
X39987899Y-19708600D01*
X40002116Y-19785038D01*
X40017210Y-19866957D01*
X40021355Y-19889600D01*
X40036053Y-19965194D01*
X40050505Y-20031047D01*
X40063375Y-20081634D01*
X40073322Y-20111426D01*
X40076287Y-20116388D01*
X40097283Y-20128574D01*
X40137967Y-20146047D01*
X40190322Y-20165423D01*
X40201600Y-20169266D01*
X40271523Y-20194661D01*
X40350418Y-20226183D01*
X40421266Y-20257031D01*
X40421595Y-20257183D01*
X40532733Y-20308553D01*
X40781253Y-20139601D01*
X41029772Y-19970648D01*
X41247058Y-20187571D01*
X41311726Y-20253181D01*
X41368733Y-20313021D01*
X41415033Y-20363733D01*
X41447584Y-20401954D01*
X41463343Y-20424325D01*
X41464343Y-20427534D01*
X41456469Y-20446374D01*
X41434578Y-20484820D01*
X41401267Y-20538670D01*
X41359131Y-20603724D01*
X41311943Y-20674060D01*
X41263810Y-20745445D01*
X41221928Y-20809092D01*
X41188871Y-20860959D01*
X41167218Y-20897005D01*
X41159543Y-20913133D01*
X41166037Y-20932811D01*
X41183150Y-20970125D01*
X41207326Y-21017379D01*
X41210013Y-21022388D01*
X41241927Y-21086023D01*
X41257579Y-21129659D01*
X41257745Y-21156798D01*
X41243204Y-21170943D01*
X41243000Y-21171025D01*
X41225779Y-21178095D01*
X41184899Y-21194958D01*
X41123525Y-21220305D01*
X41044819Y-21252829D01*
X40951947Y-21291222D01*
X40848072Y-21334178D01*
X40747502Y-21375778D01*
X40636516Y-21421496D01*
X40533703Y-21463474D01*
X40442215Y-21500452D01*
X40365201Y-21531173D01*
X40305815Y-21554378D01*
X40267209Y-21568810D01*
X40252800Y-21573257D01*
X40236272Y-21562104D01*
X40209930Y-21532931D01*
X40180887Y-21494029D01*
X40089039Y-21383243D01*
X39983759Y-21296649D01*
X39867266Y-21235284D01*
X39741776Y-21200185D01*
X39609507Y-21192392D01*
X39548457Y-21198057D01*
X39421795Y-21228922D01*
X39309941Y-21282080D01*
X39214001Y-21354233D01*
X39135076Y-21442083D01*
X39074270Y-21542335D01*
X39032687Y-21651690D01*
X39011428Y-21766853D01*
X39011599Y-21884525D01*
X39034301Y-22001410D01*
X39080638Y-22114211D01*
X39151713Y-22219631D01*
X39191911Y-22263632D01*
X39295129Y-22348021D01*
X39407925Y-22406778D01*
X39527010Y-22440296D01*
X39649095Y-22448965D01*
X39770893Y-22433177D01*
X39889116Y-22393322D01*
X40000475Y-22329793D01*
X40101684Y-22242979D01*
X40180887Y-22145971D01*
X40211162Y-22105563D01*
X40237219Y-22077018D01*
X40252825Y-22066743D01*
X40269843Y-22072123D01*
X40310500Y-22087425D01*
X40371642Y-22111388D01*
X40450119Y-22142756D01*
X40542780Y-22180268D01*
X40646472Y-22222667D01*
X40747526Y-22264337D01*
X40858607Y-22310310D01*
X40961541Y-22352893D01*
X41053165Y-22390779D01*
X41130316Y-22422660D01*
X41189831Y-22447229D01*
X41228544Y-22463180D01*
X41243000Y-22469090D01*
X41257685Y-22483052D01*
X41257642Y-22510060D01*
X41242099Y-22553587D01*
X41210284Y-22617110D01*
X41210013Y-22617612D01*
X41185323Y-22665440D01*
X41167338Y-22704103D01*
X41159614Y-22725905D01*
X41159543Y-22726867D01*
X41167378Y-22743279D01*
X41189165Y-22779513D01*
X41222328Y-22831526D01*
X41264291Y-22895275D01*
X41311943Y-22965940D01*
X41360191Y-23037884D01*
X41402151Y-23102726D01*
X41435227Y-23156265D01*
X41456821Y-23194303D01*
X41464343Y-23212467D01*
X41454457Y-23229192D01*
X41426826Y-23262820D01*
X41384495Y-23309990D01*
X41330505Y-23367342D01*
X41267899Y-23431516D01*
X41246983Y-23452503D01*
X41029623Y-23669501D01*
X40787220Y-23504332D01*
X40712781Y-23454136D01*
X40645972Y-23410081D01*
X40590665Y-23374638D01*
X40550729Y-23350281D01*
X40530036Y-23339478D01*
X40528563Y-23339162D01*
X40509058Y-23344857D01*
X40469822Y-23360174D01*
X40417430Y-23382463D01*
X40382355Y-23398107D01*
X40315201Y-23427359D01*
X40247358Y-23454906D01*
X40190034Y-23476263D01*
X40172572Y-23482065D01*
X40125938Y-23498548D01*
X40089905Y-23514660D01*
X40076287Y-23523510D01*
X40067952Y-23543040D01*
X40056137Y-23585666D01*
X40042181Y-23645855D01*
X40027422Y-23718078D01*
X40021355Y-23750400D01*
X40006273Y-23832478D01*
X39991669Y-23911205D01*
X39978980Y-23978891D01*
X39969642Y-24027840D01*
X39967839Y-24037057D01*
X39952799Y-24113257D01*
X39635492Y-24113257D01*
X39531154Y-24113086D01*
X39452213Y-24112384D01*
X39395038Y-24110866D01*
X39355999Y-24108251D01*
X39331465Y-24104254D01*
X39317805Y-24098591D01*
X39311389Y-24090980D01*
X39310199Y-24087857D01*
X39305980Y-24069022D01*
X39297562Y-24027412D01*
X39285961Y-23968370D01*
X39272195Y-23897243D01*
X39257280Y-23819375D01*
X39242232Y-23740113D01*
X39228069Y-23664802D01*
X39215806Y-23598787D01*
X39206461Y-23547413D01*
X39201050Y-23516025D01*
X39200114Y-23509041D01*
X39187596Y-23502715D01*
X39154246Y-23488710D01*
X39106377Y-23469645D01*
X39087629Y-23462366D01*
X39015195Y-23433004D01*
X38935170Y-23398429D01*
X38867728Y-23367463D01*
X38816159Y-23344677D01*
X38773785Y-23329518D01*
X38747834Y-23324458D01*
X38744356Y-23325264D01*
X38727936Y-23335959D01*
X38691417Y-23360380D01*
X38638687Y-23395905D01*
X38573635Y-23439913D01*
X38500151Y-23489783D01*
X38485645Y-23499644D01*
X38399704Y-23557508D01*
X38334261Y-23600044D01*
X38286304Y-23628946D01*
X38252820Y-23645910D01*
X38230795Y-23652633D01*
X38217217Y-23650810D01*
X38217131Y-23650764D01*
X38199297Y-23636414D01*
X38164817Y-23604677D01*
X38117268Y-23558990D01*
X38060222Y-23502796D01*
X37997255Y-23439532D01*
X37990227Y-23432398D01*
X37913020Y-23352670D01*
X37856330Y-23291143D01*
X37819110Y-23246579D01*
X37800315Y-23217743D01*
X37797889Y-23205042D01*
X37808471Y-23186506D01*
X37832916Y-23148039D01*
X37868612Y-23093614D01*
X37912947Y-23027202D01*
X37963311Y-22952775D01*
X37975160Y-22935399D01*
X38143626Y-22688703D01*
X38093062Y-22577294D01*
X38063595Y-22509543D01*
X38033959Y-22436817D01*
X38010330Y-22374297D01*
X38009358Y-22371543D01*
X37991457Y-22322640D01*
X37976320Y-22284943D01*
X37967210Y-22266575D01*
X37967184Y-22266544D01*
X37950717Y-22260715D01*
X37910219Y-22250808D01*
X37850242Y-22237805D01*
X37775340Y-22222691D01*
X37690064Y-22206448D01*
X37682875Y-22205119D01*
X37595014Y-22188825D01*
X37515260Y-22173867D01*
X37448681Y-22161209D01*
X37400347Y-22151814D01*
X37375325Y-22146646D01*
X37374943Y-22146556D01*
X37364299Y-22143411D01*
X37356262Y-22137296D01*
X37350467Y-22124547D01*
X37346547Y-22101500D01*
X37344135Y-22064491D01*
X37342865Y-22009856D01*
X37342371Y-21933933D01*
X37342286Y-21833056D01*
X37342286Y-21820000D01*
X37342348Y-21716090D01*
G36*
X42019918Y-24220256D02*
G01*
X42047568Y-24164799D01*
X42098480Y-24115852D01*
X42117338Y-24102371D01*
X42142015Y-24087686D01*
X42168816Y-24078158D01*
X42204587Y-24072707D01*
X42256169Y-24070253D01*
X42324267Y-24069714D01*
X42417588Y-24072148D01*
X42487657Y-24080606D01*
X42539931Y-24096826D01*
X42579869Y-24122546D01*
X42612929Y-24159503D01*
X42614886Y-24162218D01*
X42634908Y-24198640D01*
X42644815Y-24242498D01*
X42647257Y-24298276D01*
X42647257Y-24388952D01*
X42735283Y-24388990D01*
X42784308Y-24389834D01*
X42813065Y-24394976D01*
X42830311Y-24408413D01*
X42844808Y-24434142D01*
X42847769Y-24440321D01*
X42861648Y-24469236D01*
X42870414Y-24491624D01*
X42871171Y-24508271D01*
X42861023Y-24519964D01*
X42837073Y-24527490D01*
X42796426Y-24531634D01*
X42736186Y-24533185D01*
X42653455Y-24532929D01*
X42545339Y-24531651D01*
X42513000Y-24531252D01*
X42401524Y-24529815D01*
X42328603Y-24528528D01*
X42328603Y-24389029D01*
X42390499Y-24388245D01*
X42430997Y-24384760D01*
X42457708Y-24376876D01*
X42478244Y-24362895D01*
X42488260Y-24353403D01*
X42517567Y-24314596D01*
X42519952Y-24280237D01*
X42495750Y-24244784D01*
X42494857Y-24243886D01*
X42476153Y-24229461D01*
X42450732Y-24220687D01*
X42411584Y-24216261D01*
X42351697Y-24214882D01*
X42338430Y-24214857D01*
X42255901Y-24218188D01*
X42198691Y-24229031D01*
X42163766Y-24248660D01*
X42148094Y-24278350D01*
X42146514Y-24295509D01*
X42153926Y-24336234D01*
X42178330Y-24364168D01*
X42222980Y-24380983D01*
X42291130Y-24388350D01*
X42328603Y-24389029D01*
X42328603Y-24528528D01*
X42315245Y-24528292D01*
X42250333Y-24526323D01*
X42202958Y-24523550D01*
X42169290Y-24519612D01*
X42145498Y-24514151D01*
X42127753Y-24506808D01*
X42112224Y-24497223D01*
X42106381Y-24493113D01*
X42051185Y-24438595D01*
X42019890Y-24369664D01*
X42011165Y-24289928D01*
X42019918Y-24220256D01*
X42019918Y-24220256D01*
G37*
X42019918Y-24220256D02*
X42047568Y-24164799D01*
X42098480Y-24115852D01*
X42117338Y-24102371D01*
X42142015Y-24087686D01*
X42168816Y-24078158D01*
X42204587Y-24072707D01*
X42256169Y-24070253D01*
X42324267Y-24069714D01*
X42417588Y-24072148D01*
X42487657Y-24080606D01*
X42539931Y-24096826D01*
X42579869Y-24122546D01*
X42612929Y-24159503D01*
X42614886Y-24162218D01*
X42634908Y-24198640D01*
X42644815Y-24242498D01*
X42647257Y-24298276D01*
X42647257Y-24388952D01*
X42735283Y-24388990D01*
X42784308Y-24389834D01*
X42813065Y-24394976D01*
X42830311Y-24408413D01*
X42844808Y-24434142D01*
X42847769Y-24440321D01*
X42861648Y-24469236D01*
X42870414Y-24491624D01*
X42871171Y-24508271D01*
X42861023Y-24519964D01*
X42837073Y-24527490D01*
X42796426Y-24531634D01*
X42736186Y-24533185D01*
X42653455Y-24532929D01*
X42545339Y-24531651D01*
X42513000Y-24531252D01*
X42401524Y-24529815D01*
X42328603Y-24528528D01*
X42328603Y-24389029D01*
X42390499Y-24388245D01*
X42430997Y-24384760D01*
X42457708Y-24376876D01*
X42478244Y-24362895D01*
X42488260Y-24353403D01*
X42517567Y-24314596D01*
X42519952Y-24280237D01*
X42495750Y-24244784D01*
X42494857Y-24243886D01*
X42476153Y-24229461D01*
X42450732Y-24220687D01*
X42411584Y-24216261D01*
X42351697Y-24214882D01*
X42338430Y-24214857D01*
X42255901Y-24218188D01*
X42198691Y-24229031D01*
X42163766Y-24248660D01*
X42148094Y-24278350D01*
X42146514Y-24295509D01*
X42153926Y-24336234D01*
X42178330Y-24364168D01*
X42222980Y-24380983D01*
X42291130Y-24388350D01*
X42328603Y-24389029D01*
X42328603Y-24528528D01*
X42315245Y-24528292D01*
X42250333Y-24526323D01*
X42202958Y-24523550D01*
X42169290Y-24519612D01*
X42145498Y-24514151D01*
X42127753Y-24506808D01*
X42112224Y-24497223D01*
X42106381Y-24493113D01*
X42051185Y-24438595D01*
X42019890Y-24369664D01*
X42011165Y-24289928D01*
X42019918Y-24220256D01*
G36*
X42066966Y-18666405D02*
G01*
X42104497Y-18608979D01*
X42138096Y-18581281D01*
X42199064Y-18559338D01*
X42247308Y-18557595D01*
X42311816Y-18561543D01*
X42376934Y-18710314D01*
X42410202Y-18782651D01*
X42436964Y-18829916D01*
X42460144Y-18854493D01*
X42482667Y-18858763D01*
X42507455Y-18845111D01*
X42523886Y-18830057D01*
X42550235Y-18786254D01*
X42552081Y-18738611D01*
X42531546Y-18694855D01*
X42490752Y-18662711D01*
X42476347Y-18656962D01*
X42431356Y-18629424D01*
X42412182Y-18597742D01*
X42395779Y-18554286D01*
X42457966Y-18554286D01*
X42500283Y-18558128D01*
X42535969Y-18573177D01*
X42576943Y-18604720D01*
X42582267Y-18609408D01*
X42618720Y-18644494D01*
X42638283Y-18674653D01*
X42647283Y-18712385D01*
X42650230Y-18743665D01*
X42650965Y-18799615D01*
X42641660Y-18839445D01*
X42627846Y-18864292D01*
X42597467Y-18903344D01*
X42564613Y-18930375D01*
X42523294Y-18947483D01*
X42467521Y-18956762D01*
X42391305Y-18960307D01*
X42352622Y-18960590D01*
X42306247Y-18959628D01*
X42306247Y-18871993D01*
X42331126Y-18870977D01*
X42335200Y-18868444D01*
X42329665Y-18851726D01*
X42315017Y-18815751D01*
X42294190Y-18767669D01*
X42289714Y-18757614D01*
X42258814Y-18696848D01*
X42231657Y-18663368D01*
X42206220Y-18656010D01*
X42180481Y-18673609D01*
X42169109Y-18688144D01*
X42146364Y-18740590D01*
X42150122Y-18789678D01*
X42177884Y-18830773D01*
X42227152Y-18859242D01*
X42266257Y-18868369D01*
X42306247Y-18871993D01*
X42306247Y-18959628D01*
X42262249Y-18958715D01*
X42195384Y-18951804D01*
X42146695Y-18938116D01*
X42110849Y-18915904D01*
X42082513Y-18883426D01*
X42073355Y-18869267D01*
X42049507Y-18804947D01*
X42048006Y-18734527D01*
X42066966Y-18666405D01*
X42066966Y-18666405D01*
G37*
X42066966Y-18666405D02*
X42104497Y-18608979D01*
X42138096Y-18581281D01*
X42199064Y-18559338D01*
X42247308Y-18557595D01*
X42311816Y-18561543D01*
X42376934Y-18710314D01*
X42410202Y-18782651D01*
X42436964Y-18829916D01*
X42460144Y-18854493D01*
X42482667Y-18858763D01*
X42507455Y-18845111D01*
X42523886Y-18830057D01*
X42550235Y-18786254D01*
X42552081Y-18738611D01*
X42531546Y-18694855D01*
X42490752Y-18662711D01*
X42476347Y-18656962D01*
X42431356Y-18629424D01*
X42412182Y-18597742D01*
X42395779Y-18554286D01*
X42457966Y-18554286D01*
X42500283Y-18558128D01*
X42535969Y-18573177D01*
X42576943Y-18604720D01*
X42582267Y-18609408D01*
X42618720Y-18644494D01*
X42638283Y-18674653D01*
X42647283Y-18712385D01*
X42650230Y-18743665D01*
X42650965Y-18799615D01*
X42641660Y-18839445D01*
X42627846Y-18864292D01*
X42597467Y-18903344D01*
X42564613Y-18930375D01*
X42523294Y-18947483D01*
X42467521Y-18956762D01*
X42391305Y-18960307D01*
X42352622Y-18960590D01*
X42306247Y-18959628D01*
X42306247Y-18871993D01*
X42331126Y-18870977D01*
X42335200Y-18868444D01*
X42329665Y-18851726D01*
X42315017Y-18815751D01*
X42294190Y-18767669D01*
X42289714Y-18757614D01*
X42258814Y-18696848D01*
X42231657Y-18663368D01*
X42206220Y-18656010D01*
X42180481Y-18673609D01*
X42169109Y-18688144D01*
X42146364Y-18740590D01*
X42150122Y-18789678D01*
X42177884Y-18830773D01*
X42227152Y-18859242D01*
X42266257Y-18868369D01*
X42306247Y-18871993D01*
X42306247Y-18959628D01*
X42262249Y-18958715D01*
X42195384Y-18951804D01*
X42146695Y-18938116D01*
X42110849Y-18915904D01*
X42082513Y-18883426D01*
X42073355Y-18869267D01*
X42049507Y-18804947D01*
X42048006Y-18734527D01*
X42066966Y-18666405D01*
G36*
X42031239Y-23651697D02*
G01*
X42069735Y-23594473D01*
X42125335Y-23550251D01*
X42196086Y-23523833D01*
X42248162Y-23518490D01*
X42269893Y-23519097D01*
X42286531Y-23524178D01*
X42301437Y-23538145D01*
X42317973Y-23565411D01*
X42339498Y-23610388D01*
X42369374Y-23677489D01*
X42369524Y-23677829D01*
X42397813Y-23739593D01*
X42422933Y-23790241D01*
X42442179Y-23824596D01*
X42452848Y-23837482D01*
X42452934Y-23837486D01*
X42476166Y-23826128D01*
X42501774Y-23799569D01*
X42520221Y-23769077D01*
X42523886Y-23753630D01*
X42511212Y-23711485D01*
X42479471Y-23675192D01*
X42444572Y-23657483D01*
X42418845Y-23640448D01*
X42389546Y-23607078D01*
X42364235Y-23567851D01*
X42350471Y-23533244D01*
X42349714Y-23526007D01*
X42362160Y-23517861D01*
X42393972Y-23517370D01*
X42436866Y-23523357D01*
X42482558Y-23534643D01*
X42522761Y-23550050D01*
X42524322Y-23550829D01*
X42589062Y-23597196D01*
X42633097Y-23657289D01*
X42654711Y-23725535D01*
X42652185Y-23796362D01*
X42623804Y-23864196D01*
X42621808Y-23867212D01*
X42573448Y-23920573D01*
X42510352Y-23955660D01*
X42427387Y-23975078D01*
X42404078Y-23977684D01*
X42294055Y-23982299D01*
X42242748Y-23976767D01*
X42242748Y-23837486D01*
X42274753Y-23835676D01*
X42284093Y-23825778D01*
X42277105Y-23801102D01*
X42260587Y-23762205D01*
X42239881Y-23718725D01*
X42239333Y-23717644D01*
X42219949Y-23680791D01*
X42207013Y-23666000D01*
X42193451Y-23669647D01*
X42175632Y-23685005D01*
X42149845Y-23724077D01*
X42147950Y-23766154D01*
X42166717Y-23803897D01*
X42202915Y-23829966D01*
X42242748Y-23837486D01*
X42242748Y-23976767D01*
X42206027Y-23972806D01*
X42136212Y-23948450D01*
X42087302Y-23914544D01*
X42037878Y-23853347D01*
X42013359Y-23785937D01*
X42011797Y-23717120D01*
X42031239Y-23651697D01*
X42031239Y-23651697D01*
G37*
X42031239Y-23651697D02*
X42069735Y-23594473D01*
X42125335Y-23550251D01*
X42196086Y-23523833D01*
X42248162Y-23518490D01*
X42269893Y-23519097D01*
X42286531Y-23524178D01*
X42301437Y-23538145D01*
X42317973Y-23565411D01*
X42339498Y-23610388D01*
X42369374Y-23677489D01*
X42369524Y-23677829D01*
X42397813Y-23739593D01*
X42422933Y-23790241D01*
X42442179Y-23824596D01*
X42452848Y-23837482D01*
X42452934Y-23837486D01*
X42476166Y-23826128D01*
X42501774Y-23799569D01*
X42520221Y-23769077D01*
X42523886Y-23753630D01*
X42511212Y-23711485D01*
X42479471Y-23675192D01*
X42444572Y-23657483D01*
X42418845Y-23640448D01*
X42389546Y-23607078D01*
X42364235Y-23567851D01*
X42350471Y-23533244D01*
X42349714Y-23526007D01*
X42362160Y-23517861D01*
X42393972Y-23517370D01*
X42436866Y-23523357D01*
X42482558Y-23534643D01*
X42522761Y-23550050D01*
X42524322Y-23550829D01*
X42589062Y-23597196D01*
X42633097Y-23657289D01*
X42654711Y-23725535D01*
X42652185Y-23796362D01*
X42623804Y-23864196D01*
X42621808Y-23867212D01*
X42573448Y-23920573D01*
X42510352Y-23955660D01*
X42427387Y-23975078D01*
X42404078Y-23977684D01*
X42294055Y-23982299D01*
X42242748Y-23976767D01*
X42242748Y-23837486D01*
X42274753Y-23835676D01*
X42284093Y-23825778D01*
X42277105Y-23801102D01*
X42260587Y-23762205D01*
X42239881Y-23718725D01*
X42239333Y-23717644D01*
X42219949Y-23680791D01*
X42207013Y-23666000D01*
X42193451Y-23669647D01*
X42175632Y-23685005D01*
X42149845Y-23724077D01*
X42147950Y-23766154D01*
X42166717Y-23803897D01*
X42202915Y-23829966D01*
X42242748Y-23837486D01*
X42242748Y-23976767D01*
X42206027Y-23972806D01*
X42136212Y-23948450D01*
X42087302Y-23914544D01*
X42037878Y-23853347D01*
X42013359Y-23785937D01*
X42011797Y-23717120D01*
X42031239Y-23651697D01*
G36*
X42058752Y-19167400D02*
G01*
X42066334Y-19150052D01*
X42099128Y-19108644D01*
X42146547Y-19073235D01*
X42197151Y-19051336D01*
X42222098Y-19047771D01*
X42256927Y-19059721D01*
X42275357Y-19085933D01*
X42286516Y-19114036D01*
X42288572Y-19126905D01*
X42273649Y-19133171D01*
X42241175Y-19145544D01*
X42226502Y-19150972D01*
X42175744Y-19181410D01*
X42150427Y-19225480D01*
X42151206Y-19281990D01*
X42152203Y-19286175D01*
X42166507Y-19316345D01*
X42194393Y-19338524D01*
X42239287Y-19353673D01*
X42304615Y-19362750D01*
X42393804Y-19366714D01*
X42441261Y-19367086D01*
X42516071Y-19367270D01*
X42567069Y-19368478D01*
X42599471Y-19371691D01*
X42618495Y-19377891D01*
X42629356Y-19388060D01*
X42637272Y-19403181D01*
X42637670Y-19404054D01*
X42649981Y-19433172D01*
X42654514Y-19447597D01*
X42640809Y-19449814D01*
X42602925Y-19451711D01*
X42545715Y-19453153D01*
X42474027Y-19454002D01*
X42421565Y-19454171D01*
X42320047Y-19453308D01*
X42243032Y-19449930D01*
X42186023Y-19442858D01*
X42144526Y-19430912D01*
X42114043Y-19412910D01*
X42090080Y-19387673D01*
X42073355Y-19362753D01*
X42051097Y-19302829D01*
X42046076Y-19233089D01*
X42058752Y-19167400D01*
X42058752Y-19167400D01*
G37*
X42058752Y-19167400D02*
X42066334Y-19150052D01*
X42099128Y-19108644D01*
X42146547Y-19073235D01*
X42197151Y-19051336D01*
X42222098Y-19047771D01*
X42256927Y-19059721D01*
X42275357Y-19085933D01*
X42286516Y-19114036D01*
X42288572Y-19126905D01*
X42273649Y-19133171D01*
X42241175Y-19145544D01*
X42226502Y-19150972D01*
X42175744Y-19181410D01*
X42150427Y-19225480D01*
X42151206Y-19281990D01*
X42152203Y-19286175D01*
X42166507Y-19316345D01*
X42194393Y-19338524D01*
X42239287Y-19353673D01*
X42304615Y-19362750D01*
X42393804Y-19366714D01*
X42441261Y-19367086D01*
X42516071Y-19367270D01*
X42567069Y-19368478D01*
X42599471Y-19371691D01*
X42618495Y-19377891D01*
X42629356Y-19388060D01*
X42637272Y-19403181D01*
X42637670Y-19404054D01*
X42649981Y-19433172D01*
X42654514Y-19447597D01*
X42640809Y-19449814D01*
X42602925Y-19451711D01*
X42545715Y-19453153D01*
X42474027Y-19454002D01*
X42421565Y-19454171D01*
X42320047Y-19453308D01*
X42243032Y-19449930D01*
X42186023Y-19442858D01*
X42144526Y-19430912D01*
X42114043Y-19412910D01*
X42090080Y-19387673D01*
X42073355Y-19362753D01*
X42051097Y-19302829D01*
X42046076Y-19233089D01*
X42058752Y-19167400D01*
G36*
X42056335Y-19675124D02*
G01*
X42075344Y-19633333D01*
X42098378Y-19600531D01*
X42124133Y-19576497D01*
X42157358Y-19559903D01*
X42202800Y-19549423D01*
X42265207Y-19543729D01*
X42349327Y-19541493D01*
X42404721Y-19541257D01*
X42620826Y-19541257D01*
X42637670Y-19578226D01*
X42649981Y-19607344D01*
X42654514Y-19621769D01*
X42641025Y-19624528D01*
X42604653Y-19626718D01*
X42551542Y-19628058D01*
X42509372Y-19628343D01*
X42448447Y-19629566D01*
X42400115Y-19632864D01*
X42370518Y-19637679D01*
X42364229Y-19641504D01*
X42370652Y-19667217D01*
X42387125Y-19707582D01*
X42409458Y-19754321D01*
X42433457Y-19799155D01*
X42454930Y-19833807D01*
X42469685Y-19849998D01*
X42469845Y-19850062D01*
X42497152Y-19848670D01*
X42523219Y-19836182D01*
X42544392Y-19814257D01*
X42551474Y-19782257D01*
X42550649Y-19754908D01*
X42550042Y-19716174D01*
X42559116Y-19695842D01*
X42583092Y-19683631D01*
X42587613Y-19682091D01*
X42621806Y-19676797D01*
X42642568Y-19690953D01*
X42652462Y-19727852D01*
X42654292Y-19767711D01*
X42640727Y-19839438D01*
X42621355Y-19876568D01*
X42575845Y-19922424D01*
X42519983Y-19946744D01*
X42460957Y-19948927D01*
X42405953Y-19928371D01*
X42371486Y-19897451D01*
X42352189Y-19866580D01*
X42327759Y-19818058D01*
X42302985Y-19761515D01*
X42299199Y-19752090D01*
X42271791Y-19689981D01*
X42247634Y-19654178D01*
X42223619Y-19642663D01*
X42196635Y-19653420D01*
X42175543Y-19671886D01*
X42149572Y-19715531D01*
X42147624Y-19763554D01*
X42167637Y-19807594D01*
X42207551Y-19839291D01*
X42217848Y-19843451D01*
X42255724Y-19867673D01*
X42283842Y-19903035D01*
X42306917Y-19947657D01*
X42241485Y-19947657D01*
X42201506Y-19945031D01*
X42169997Y-19933770D01*
X42136378Y-19908801D01*
X42110484Y-19884831D01*
X42073817Y-19847559D01*
X42054121Y-19818599D01*
X42046220Y-19787495D01*
X42044914Y-19752287D01*
X42056335Y-19675124D01*
X42056335Y-19675124D01*
G37*
X42056335Y-19675124D02*
X42075344Y-19633333D01*
X42098378Y-19600531D01*
X42124133Y-19576497D01*
X42157358Y-19559903D01*
X42202800Y-19549423D01*
X42265207Y-19543729D01*
X42349327Y-19541493D01*
X42404721Y-19541257D01*
X42620826Y-19541257D01*
X42637670Y-19578226D01*
X42649981Y-19607344D01*
X42654514Y-19621769D01*
X42641025Y-19624528D01*
X42604653Y-19626718D01*
X42551542Y-19628058D01*
X42509372Y-19628343D01*
X42448447Y-19629566D01*
X42400115Y-19632864D01*
X42370518Y-19637679D01*
X42364229Y-19641504D01*
X42370652Y-19667217D01*
X42387125Y-19707582D01*
X42409458Y-19754321D01*
X42433457Y-19799155D01*
X42454930Y-19833807D01*
X42469685Y-19849998D01*
X42469845Y-19850062D01*
X42497152Y-19848670D01*
X42523219Y-19836182D01*
X42544392Y-19814257D01*
X42551474Y-19782257D01*
X42550649Y-19754908D01*
X42550042Y-19716174D01*
X42559116Y-19695842D01*
X42583092Y-19683631D01*
X42587613Y-19682091D01*
X42621806Y-19676797D01*
X42642568Y-19690953D01*
X42652462Y-19727852D01*
X42654292Y-19767711D01*
X42640727Y-19839438D01*
X42621355Y-19876568D01*
X42575845Y-19922424D01*
X42519983Y-19946744D01*
X42460957Y-19948927D01*
X42405953Y-19928371D01*
X42371486Y-19897451D01*
X42352189Y-19866580D01*
X42327759Y-19818058D01*
X42302985Y-19761515D01*
X42299199Y-19752090D01*
X42271791Y-19689981D01*
X42247634Y-19654178D01*
X42223619Y-19642663D01*
X42196635Y-19653420D01*
X42175543Y-19671886D01*
X42149572Y-19715531D01*
X42147624Y-19763554D01*
X42167637Y-19807594D01*
X42207551Y-19839291D01*
X42217848Y-19843451D01*
X42255724Y-19867673D01*
X42283842Y-19903035D01*
X42306917Y-19947657D01*
X42241485Y-19947657D01*
X42201506Y-19945031D01*
X42169997Y-19933770D01*
X42136378Y-19908801D01*
X42110484Y-19884831D01*
X42073817Y-19847559D01*
X42054121Y-19818599D01*
X42046220Y-19787495D01*
X42044914Y-19752287D01*
X42056335Y-19675124D01*
G36*
X42058663Y-20040167D02*
G01*
X42096850Y-20037952D01*
X42154886Y-20036216D01*
X42228180Y-20035101D01*
X42305055Y-20034743D01*
X42565196Y-20034743D01*
X42611127Y-20080674D01*
X42639429Y-20112325D01*
X42650893Y-20140110D01*
X42650168Y-20178085D01*
X42648321Y-20193160D01*
X42642948Y-20240274D01*
X42639869Y-20279244D01*
X42639585Y-20288743D01*
X42641445Y-20320767D01*
X42646114Y-20366568D01*
X42648321Y-20384326D01*
X42651735Y-20427943D01*
X42644320Y-20457255D01*
X42621427Y-20486320D01*
X42611127Y-20496812D01*
X42565196Y-20542743D01*
X42078602Y-20542743D01*
X42061758Y-20505774D01*
X42049282Y-20473941D01*
X42044914Y-20455317D01*
X42058718Y-20450542D01*
X42097286Y-20446079D01*
X42156356Y-20442225D01*
X42231663Y-20439278D01*
X42295286Y-20437857D01*
X42545657Y-20433886D01*
X42550556Y-20399241D01*
X42547131Y-20367732D01*
X42536041Y-20352292D01*
X42515308Y-20347977D01*
X42471145Y-20344292D01*
X42409146Y-20341531D01*
X42334909Y-20339988D01*
X42296706Y-20339765D01*
X42076783Y-20339543D01*
X42060849Y-20293834D01*
X42050015Y-20261482D01*
X42044962Y-20243885D01*
X42044914Y-20243377D01*
X42058648Y-20241612D01*
X42096730Y-20239671D01*
X42154482Y-20237718D01*
X42227227Y-20235916D01*
X42295286Y-20234657D01*
X42545657Y-20230686D01*
X42545657Y-20143600D01*
X42317240Y-20139604D01*
X42088822Y-20135608D01*
X42066868Y-20093153D01*
X42051793Y-20061808D01*
X42044951Y-20043256D01*
X42044914Y-20042721D01*
X42058663Y-20040167D01*
X42058663Y-20040167D01*
G37*
X42058663Y-20040167D02*
X42096850Y-20037952D01*
X42154886Y-20036216D01*
X42228180Y-20035101D01*
X42305055Y-20034743D01*
X42565196Y-20034743D01*
X42611127Y-20080674D01*
X42639429Y-20112325D01*
X42650893Y-20140110D01*
X42650168Y-20178085D01*
X42648321Y-20193160D01*
X42642948Y-20240274D01*
X42639869Y-20279244D01*
X42639585Y-20288743D01*
X42641445Y-20320767D01*
X42646114Y-20366568D01*
X42648321Y-20384326D01*
X42651735Y-20427943D01*
X42644320Y-20457255D01*
X42621427Y-20486320D01*
X42611127Y-20496812D01*
X42565196Y-20542743D01*
X42078602Y-20542743D01*
X42061758Y-20505774D01*
X42049282Y-20473941D01*
X42044914Y-20455317D01*
X42058718Y-20450542D01*
X42097286Y-20446079D01*
X42156356Y-20442225D01*
X42231663Y-20439278D01*
X42295286Y-20437857D01*
X42545657Y-20433886D01*
X42550556Y-20399241D01*
X42547131Y-20367732D01*
X42536041Y-20352292D01*
X42515308Y-20347977D01*
X42471145Y-20344292D01*
X42409146Y-20341531D01*
X42334909Y-20339988D01*
X42296706Y-20339765D01*
X42076783Y-20339543D01*
X42060849Y-20293834D01*
X42050015Y-20261482D01*
X42044962Y-20243885D01*
X42044914Y-20243377D01*
X42058648Y-20241612D01*
X42096730Y-20239671D01*
X42154482Y-20237718D01*
X42227227Y-20235916D01*
X42295286Y-20234657D01*
X42545657Y-20230686D01*
X42545657Y-20143600D01*
X42317240Y-20139604D01*
X42088822Y-20135608D01*
X42066868Y-20093153D01*
X42051793Y-20061808D01*
X42044951Y-20043256D01*
X42044914Y-20042721D01*
X42058663Y-20040167D01*
G36*
X42049755Y-21290074D02*
G01*
X42074084Y-21224142D01*
X42117117Y-21170727D01*
X42147409Y-21149836D01*
X42202994Y-21127061D01*
X42243186Y-21127534D01*
X42270217Y-21151438D01*
X42274813Y-21160283D01*
X42289144Y-21198470D01*
X42285472Y-21217972D01*
X42261407Y-21224578D01*
X42248114Y-21224914D01*
X42199210Y-21237008D01*
X42164999Y-21268529D01*
X42148476Y-21312341D01*
X42152634Y-21361305D01*
X42174227Y-21401106D01*
X42186544Y-21414550D01*
X42201487Y-21424079D01*
X42224075Y-21430515D01*
X42259328Y-21434683D01*
X42312266Y-21437403D01*
X42387907Y-21439498D01*
X42411857Y-21440040D01*
X42493790Y-21442019D01*
X42551455Y-21444269D01*
X42589608Y-21447643D01*
X42613004Y-21452994D01*
X42626398Y-21461176D01*
X42634545Y-21473041D01*
X42638144Y-21480638D01*
X42650452Y-21512898D01*
X42654514Y-21531889D01*
X42640948Y-21538164D01*
X42599934Y-21541994D01*
X42530999Y-21543400D01*
X42433669Y-21542402D01*
X42418657Y-21542092D01*
X42329859Y-21539899D01*
X42265019Y-21537307D01*
X42219067Y-21533618D01*
X42186935Y-21528136D01*
X42163553Y-21520165D01*
X42143852Y-21509007D01*
X42135410Y-21503170D01*
X42098057Y-21469704D01*
X42069003Y-21432273D01*
X42066467Y-21427691D01*
X42046443Y-21360574D01*
X42049755Y-21290074D01*
X42049755Y-21290074D01*
G37*
X42049755Y-21290074D02*
X42074084Y-21224142D01*
X42117117Y-21170727D01*
X42147409Y-21149836D01*
X42202994Y-21127061D01*
X42243186Y-21127534D01*
X42270217Y-21151438D01*
X42274813Y-21160283D01*
X42289144Y-21198470D01*
X42285472Y-21217972D01*
X42261407Y-21224578D01*
X42248114Y-21224914D01*
X42199210Y-21237008D01*
X42164999Y-21268529D01*
X42148476Y-21312341D01*
X42152634Y-21361305D01*
X42174227Y-21401106D01*
X42186544Y-21414550D01*
X42201487Y-21424079D01*
X42224075Y-21430515D01*
X42259328Y-21434683D01*
X42312266Y-21437403D01*
X42387907Y-21439498D01*
X42411857Y-21440040D01*
X42493790Y-21442019D01*
X42551455Y-21444269D01*
X42589608Y-21447643D01*
X42613004Y-21452994D01*
X42626398Y-21461176D01*
X42634545Y-21473041D01*
X42638144Y-21480638D01*
X42650452Y-21512898D01*
X42654514Y-21531889D01*
X42640948Y-21538164D01*
X42599934Y-21541994D01*
X42530999Y-21543400D01*
X42433669Y-21542402D01*
X42418657Y-21542092D01*
X42329859Y-21539899D01*
X42265019Y-21537307D01*
X42219067Y-21533618D01*
X42186935Y-21528136D01*
X42163553Y-21520165D01*
X42143852Y-21509007D01*
X42135410Y-21503170D01*
X42098057Y-21469704D01*
X42069003Y-21432273D01*
X42066467Y-21427691D01*
X42046443Y-21360574D01*
X42049755Y-21290074D01*
G36*
X42050968Y-21780256D02*
G01*
X42072087Y-21723384D01*
X42072493Y-21722733D01*
X42098380Y-21687560D01*
X42128633Y-21661593D01*
X42168058Y-21643330D01*
X42221462Y-21631268D01*
X42293651Y-21623904D01*
X42389432Y-21619736D01*
X42403078Y-21619371D01*
X42608842Y-21614124D01*
X42631678Y-21658284D01*
X42647110Y-21690237D01*
X42654423Y-21709530D01*
X42654514Y-21710422D01*
X42641022Y-21713761D01*
X42604626Y-21716413D01*
X42551452Y-21718044D01*
X42508393Y-21718400D01*
X42438641Y-21718408D01*
X42394837Y-21721597D01*
X42373944Y-21732712D01*
X42372925Y-21756499D01*
X42388741Y-21797704D01*
X42417815Y-21859914D01*
X42441963Y-21905659D01*
X42462913Y-21929187D01*
X42485747Y-21936104D01*
X42486877Y-21936114D01*
X42526212Y-21924701D01*
X42547462Y-21890908D01*
X42550539Y-21839191D01*
X42550006Y-21801939D01*
X42560735Y-21782297D01*
X42586505Y-21770048D01*
X42619337Y-21762998D01*
X42637966Y-21773158D01*
X42640632Y-21776983D01*
X42651340Y-21812999D01*
X42652856Y-21863434D01*
X42645759Y-21915374D01*
X42632788Y-21952178D01*
X42589585Y-22003062D01*
X42529446Y-22031986D01*
X42482462Y-22037714D01*
X42440082Y-22033343D01*
X42405488Y-22017525D01*
X42374763Y-21986203D01*
X42343990Y-21935322D01*
X42309252Y-21860824D01*
X42307288Y-21856286D01*
X42276287Y-21789179D01*
X42250862Y-21747768D01*
X42228014Y-21730019D01*
X42204745Y-21733893D01*
X42178056Y-21757357D01*
X42171914Y-21764373D01*
X42148100Y-21811370D01*
X42149103Y-21860067D01*
X42172451Y-21902478D01*
X42215675Y-21930616D01*
X42224160Y-21933231D01*
X42265308Y-21958692D01*
X42285128Y-21990999D01*
X42304770Y-22037714D01*
X42253950Y-22037714D01*
X42180082Y-22023504D01*
X42112327Y-21981325D01*
X42089661Y-21959376D01*
X42060569Y-21909483D01*
X42047400Y-21846033D01*
X42050968Y-21780256D01*
X42050968Y-21780256D01*
G37*
X42050968Y-21780256D02*
X42072087Y-21723384D01*
X42072493Y-21722733D01*
X42098380Y-21687560D01*
X42128633Y-21661593D01*
X42168058Y-21643330D01*
X42221462Y-21631268D01*
X42293651Y-21623904D01*
X42389432Y-21619736D01*
X42403078Y-21619371D01*
X42608842Y-21614124D01*
X42631678Y-21658284D01*
X42647110Y-21690237D01*
X42654423Y-21709530D01*
X42654514Y-21710422D01*
X42641022Y-21713761D01*
X42604626Y-21716413D01*
X42551452Y-21718044D01*
X42508393Y-21718400D01*
X42438641Y-21718408D01*
X42394837Y-21721597D01*
X42373944Y-21732712D01*
X42372925Y-21756499D01*
X42388741Y-21797704D01*
X42417815Y-21859914D01*
X42441963Y-21905659D01*
X42462913Y-21929187D01*
X42485747Y-21936104D01*
X42486877Y-21936114D01*
X42526212Y-21924701D01*
X42547462Y-21890908D01*
X42550539Y-21839191D01*
X42550006Y-21801939D01*
X42560735Y-21782297D01*
X42586505Y-21770048D01*
X42619337Y-21762998D01*
X42637966Y-21773158D01*
X42640632Y-21776983D01*
X42651340Y-21812999D01*
X42652856Y-21863434D01*
X42645759Y-21915374D01*
X42632788Y-21952178D01*
X42589585Y-22003062D01*
X42529446Y-22031986D01*
X42482462Y-22037714D01*
X42440082Y-22033343D01*
X42405488Y-22017525D01*
X42374763Y-21986203D01*
X42343990Y-21935322D01*
X42309252Y-21860824D01*
X42307288Y-21856286D01*
X42276287Y-21789179D01*
X42250862Y-21747768D01*
X42228014Y-21730019D01*
X42204745Y-21733893D01*
X42178056Y-21757357D01*
X42171914Y-21764373D01*
X42148100Y-21811370D01*
X42149103Y-21860067D01*
X42172451Y-21902478D01*
X42215675Y-21930616D01*
X42224160Y-21933231D01*
X42265308Y-21958692D01*
X42285128Y-21990999D01*
X42304770Y-22037714D01*
X42253950Y-22037714D01*
X42180082Y-22023504D01*
X42112327Y-21981325D01*
X42089661Y-21959376D01*
X42060569Y-21909483D01*
X42047400Y-21846033D01*
X42050968Y-21780256D01*
G36*
X41951289Y-22444114D02*
G01*
X42010613Y-22439861D01*
X42045572Y-22434975D01*
X42060820Y-22428205D01*
X42061015Y-22418298D01*
X42059195Y-22415086D01*
X42046015Y-22372356D01*
X42046785Y-22316773D01*
X42060333Y-22260263D01*
X42077861Y-22224918D01*
X42105861Y-22188679D01*
X42137549Y-22162187D01*
X42177813Y-22144001D01*
X42231543Y-22132678D01*
X42303626Y-22126778D01*
X42398951Y-22124857D01*
X42417237Y-22124823D01*
X42622646Y-22124800D01*
X42638580Y-22170509D01*
X42649420Y-22202973D01*
X42654468Y-22220785D01*
X42654514Y-22221309D01*
X42640828Y-22223063D01*
X42603076Y-22224556D01*
X42546224Y-22225674D01*
X42475234Y-22226303D01*
X42432073Y-22226400D01*
X42346973Y-22226602D01*
X42285981Y-22227642D01*
X42244177Y-22230169D01*
X42216642Y-22234836D01*
X42198456Y-22242293D01*
X42184698Y-22253189D01*
X42178073Y-22259993D01*
X42151375Y-22306728D01*
X42149375Y-22357728D01*
X42171955Y-22403999D01*
X42180107Y-22412556D01*
X42195436Y-22425107D01*
X42213618Y-22433812D01*
X42239909Y-22439369D01*
X42279562Y-22442474D01*
X42337832Y-22443824D01*
X42418173Y-22444114D01*
X42622646Y-22444114D01*
X42638580Y-22489823D01*
X42649420Y-22522287D01*
X42654468Y-22540099D01*
X42654514Y-22540623D01*
X42640623Y-22541963D01*
X42601439Y-22543172D01*
X42540700Y-22544199D01*
X42462141Y-22544998D01*
X42369498Y-22545519D01*
X42266509Y-22545714D01*
X41869342Y-22545714D01*
X41849444Y-22498543D01*
X41829547Y-22451371D01*
X41951289Y-22444114D01*
X41951289Y-22444114D01*
G37*
X41951289Y-22444114D02*
X42010613Y-22439861D01*
X42045572Y-22434975D01*
X42060820Y-22428205D01*
X42061015Y-22418298D01*
X42059195Y-22415086D01*
X42046015Y-22372356D01*
X42046785Y-22316773D01*
X42060333Y-22260263D01*
X42077861Y-22224918D01*
X42105861Y-22188679D01*
X42137549Y-22162187D01*
X42177813Y-22144001D01*
X42231543Y-22132678D01*
X42303626Y-22126778D01*
X42398951Y-22124857D01*
X42417237Y-22124823D01*
X42622646Y-22124800D01*
X42638580Y-22170509D01*
X42649420Y-22202973D01*
X42654468Y-22220785D01*
X42654514Y-22221309D01*
X42640828Y-22223063D01*
X42603076Y-22224556D01*
X42546224Y-22225674D01*
X42475234Y-22226303D01*
X42432073Y-22226400D01*
X42346973Y-22226602D01*
X42285981Y-22227642D01*
X42244177Y-22230169D01*
X42216642Y-22234836D01*
X42198456Y-22242293D01*
X42184698Y-22253189D01*
X42178073Y-22259993D01*
X42151375Y-22306728D01*
X42149375Y-22357728D01*
X42171955Y-22403999D01*
X42180107Y-22412556D01*
X42195436Y-22425107D01*
X42213618Y-22433812D01*
X42239909Y-22439369D01*
X42279562Y-22442474D01*
X42337832Y-22443824D01*
X42418173Y-22444114D01*
X42622646Y-22444114D01*
X42638580Y-22489823D01*
X42649420Y-22522287D01*
X42654468Y-22540099D01*
X42654514Y-22540623D01*
X42640623Y-22541963D01*
X42601439Y-22543172D01*
X42540700Y-22544199D01*
X42462141Y-22544998D01*
X42369498Y-22545519D01*
X42266509Y-22545714D01*
X41869342Y-22545714D01*
X41849444Y-22498543D01*
X41829547Y-22451371D01*
X41951289Y-22444114D01*
G36*
X42021962Y-24778885D02*
G01*
X42057733Y-24710855D01*
X42115301Y-24660649D01*
X42152312Y-24642815D01*
X42207882Y-24628937D01*
X42278096Y-24621833D01*
X42354727Y-24621160D01*
X42429552Y-24626573D01*
X42494342Y-24637730D01*
X42540873Y-24654286D01*
X42548887Y-24659374D01*
X42608707Y-24719645D01*
X42644535Y-24791231D01*
X42655020Y-24868908D01*
X42638810Y-24947452D01*
X42629092Y-24969311D01*
X42599143Y-25011878D01*
X42559433Y-25049237D01*
X42554397Y-25052768D01*
X42530124Y-25067119D01*
X42504178Y-25076606D01*
X42470022Y-25082210D01*
X42421119Y-25084914D01*
X42350935Y-25085701D01*
X42335200Y-25085714D01*
X42330192Y-25085678D01*
X42330192Y-24940571D01*
X42396430Y-24939727D01*
X42440386Y-24936404D01*
X42468779Y-24929417D01*
X42488325Y-24917584D01*
X42494857Y-24911543D01*
X42519680Y-24876814D01*
X42518548Y-24843097D01*
X42497016Y-24809005D01*
X42474029Y-24788671D01*
X42440478Y-24776629D01*
X42387569Y-24769866D01*
X42381399Y-24769402D01*
X42285513Y-24768248D01*
X42214299Y-24780312D01*
X42168194Y-24805430D01*
X42147635Y-24843440D01*
X42146514Y-24857008D01*
X42152152Y-24892636D01*
X42171686Y-24917006D01*
X42209042Y-24931907D01*
X42268150Y-24939125D01*
X42330192Y-24940571D01*
X42330192Y-25085678D01*
X42260413Y-25085174D01*
X42208159Y-25082904D01*
X42171949Y-25077932D01*
X42145299Y-25069287D01*
X42121722Y-25055995D01*
X42117338Y-25053057D01*
X42058249Y-25003687D01*
X42023947Y-24949891D01*
X42010331Y-24884398D01*
X42009665Y-24862158D01*
X42021962Y-24778885D01*
X42021962Y-24778885D01*
G37*
X42021962Y-24778885D02*
X42057733Y-24710855D01*
X42115301Y-24660649D01*
X42152312Y-24642815D01*
X42207882Y-24628937D01*
X42278096Y-24621833D01*
X42354727Y-24621160D01*
X42429552Y-24626573D01*
X42494342Y-24637730D01*
X42540873Y-24654286D01*
X42548887Y-24659374D01*
X42608707Y-24719645D01*
X42644535Y-24791231D01*
X42655020Y-24868908D01*
X42638810Y-24947452D01*
X42629092Y-24969311D01*
X42599143Y-25011878D01*
X42559433Y-25049237D01*
X42554397Y-25052768D01*
X42530124Y-25067119D01*
X42504178Y-25076606D01*
X42470022Y-25082210D01*
X42421119Y-25084914D01*
X42350935Y-25085701D01*
X42335200Y-25085714D01*
X42330192Y-25085678D01*
X42330192Y-24940571D01*
X42396430Y-24939727D01*
X42440386Y-24936404D01*
X42468779Y-24929417D01*
X42488325Y-24917584D01*
X42494857Y-24911543D01*
X42519680Y-24876814D01*
X42518548Y-24843097D01*
X42497016Y-24809005D01*
X42474029Y-24788671D01*
X42440478Y-24776629D01*
X42387569Y-24769866D01*
X42381399Y-24769402D01*
X42285513Y-24768248D01*
X42214299Y-24780312D01*
X42168194Y-24805430D01*
X42147635Y-24843440D01*
X42146514Y-24857008D01*
X42152152Y-24892636D01*
X42171686Y-24917006D01*
X42209042Y-24931907D01*
X42268150Y-24939125D01*
X42330192Y-24940571D01*
X42330192Y-25085678D01*
X42260413Y-25085174D01*
X42208159Y-25082904D01*
X42171949Y-25077932D01*
X42145299Y-25069287D01*
X42121722Y-25055995D01*
X42117338Y-25053057D01*
X42058249Y-25003687D01*
X42023947Y-24949891D01*
X42010331Y-24884398D01*
X42009665Y-24862158D01*
X42021962Y-24778885D01*
D10*
G36*
X32932517Y-24823781D02*
G01*
X33059946Y-24862436D01*
X33177383Y-24925208D01*
X33280317Y-25009683D01*
X33364792Y-25112617D01*
X33427564Y-25230054D01*
X33466219Y-25357484D01*
X33476000Y-25456796D01*
X33476000Y-25773205D01*
X33466219Y-25872517D01*
X33427564Y-25999946D01*
X33364792Y-26117383D01*
X33280317Y-26220316D01*
X33177382Y-26304792D01*
X33059945Y-26367564D01*
X32932516Y-26406219D01*
X32800000Y-26419270D01*
X32667483Y-26406219D01*
X32540054Y-26367564D01*
X32422617Y-26304792D01*
X32319684Y-26220317D01*
X32235208Y-26117382D01*
X32172436Y-25999945D01*
X32133781Y-25872516D01*
X32124000Y-25773204D01*
X32124000Y-25456795D01*
X32133781Y-25357483D01*
X32172436Y-25230054D01*
X32235208Y-25112617D01*
X32319683Y-25009684D01*
X32422618Y-24925208D01*
X32540055Y-24862436D01*
X32667484Y-24823781D01*
X32800000Y-24810730D01*
X32932517Y-24823781D01*
X32932517Y-24823781D01*
G37*
G36*
X18136612Y-17438388D02*
G01*
X18155554Y-17453933D01*
X18177165Y-17465484D01*
X18200614Y-17472597D01*
X18225000Y-17474999D01*
X25600001Y-17474999D01*
X25600001Y-26225001D01*
X18225000Y-26225001D01*
X18200614Y-26227403D01*
X18177165Y-26234516D01*
X18155554Y-26246067D01*
X18136612Y-26261612D01*
X18136612Y-26261613D01*
X18136611Y-26261612D01*
X18117669Y-26246067D01*
X18096058Y-26234516D01*
X18091781Y-26233219D01*
X18090484Y-26228942D01*
X18078933Y-26207331D01*
X18063388Y-26188389D01*
X17099999Y-25225000D01*
X17099999Y-23974999D01*
X17975000Y-23974999D01*
X17999386Y-23972597D01*
X18022835Y-23965484D01*
X18044446Y-23953933D01*
X18063388Y-23938388D01*
X18078933Y-23919446D01*
X18090484Y-23897835D01*
X18097597Y-23874386D01*
X18099999Y-23850000D01*
X18099999Y-19850000D01*
X18097597Y-19825614D01*
X18090484Y-19802165D01*
X18078933Y-19780554D01*
X18063388Y-19761612D01*
X18044446Y-19746067D01*
X18022835Y-19734516D01*
X17999386Y-19727403D01*
X17975000Y-19725001D01*
X17099999Y-19725001D01*
X17099999Y-18475000D01*
X18063388Y-17511611D01*
X18078933Y-17492669D01*
X18090484Y-17471058D01*
X18091781Y-17466781D01*
X18096058Y-17465484D01*
X18117669Y-17453933D01*
X18136611Y-17438388D01*
X18136612Y-17438387D01*
X18136612Y-17438388D01*
X18136612Y-17438388D01*
G37*
G36*
X43689890Y-23084017D02*
G01*
X43808364Y-23133091D01*
X43914988Y-23204335D01*
X44005665Y-23295012D01*
X44076910Y-23401638D01*
X44125983Y-23520110D01*
X44151000Y-23645881D01*
X44151000Y-23774119D01*
X44125983Y-23899890D01*
X44095867Y-23972597D01*
X44076909Y-24018364D01*
X44005665Y-24124988D01*
X43914988Y-24215665D01*
X43808364Y-24286909D01*
X43808363Y-24286910D01*
X43808362Y-24286910D01*
X43689890Y-24335983D01*
X43564119Y-24361000D01*
X43435881Y-24361000D01*
X43310110Y-24335983D01*
X43191638Y-24286910D01*
X43191637Y-24286910D01*
X43191636Y-24286909D01*
X43085012Y-24215665D01*
X42994335Y-24124988D01*
X42923091Y-24018364D01*
X42904134Y-23972597D01*
X42874017Y-23899890D01*
X42849000Y-23774119D01*
X42849000Y-23645881D01*
X42874017Y-23520110D01*
X42923090Y-23401638D01*
X42994335Y-23295012D01*
X43085012Y-23204335D01*
X43191636Y-23133091D01*
X43310110Y-23084017D01*
X43435881Y-23059000D01*
X43564119Y-23059000D01*
X43689890Y-23084017D01*
X43689890Y-23084017D01*
G37*
G36*
X32932517Y-22283781D02*
G01*
X33059946Y-22322436D01*
X33177383Y-22385208D01*
X33280317Y-22469683D01*
X33364792Y-22572617D01*
X33427564Y-22690054D01*
X33466219Y-22817484D01*
X33476000Y-22916796D01*
X33476000Y-23233205D01*
X33466219Y-23332517D01*
X33427564Y-23459946D01*
X33364792Y-23577383D01*
X33280317Y-23680316D01*
X33177382Y-23764792D01*
X33059945Y-23827564D01*
X32932516Y-23866219D01*
X32800000Y-23879270D01*
X32667483Y-23866219D01*
X32540054Y-23827564D01*
X32422617Y-23764792D01*
X32319684Y-23680317D01*
X32235208Y-23577382D01*
X32172436Y-23459945D01*
X32133781Y-23332516D01*
X32124000Y-23233204D01*
X32124000Y-22916795D01*
X32133781Y-22817483D01*
X32172436Y-22690054D01*
X32235208Y-22572617D01*
X32319683Y-22469684D01*
X32422618Y-22385208D01*
X32540055Y-22322436D01*
X32667484Y-22283781D01*
X32800000Y-22270730D01*
X32932517Y-22283781D01*
X32932517Y-22283781D01*
G37*
G36*
X43689890Y-20084017D02*
G01*
X43808364Y-20133091D01*
X43914988Y-20204335D01*
X44005665Y-20295012D01*
X44060311Y-20376795D01*
X44076910Y-20401638D01*
X44125983Y-20520110D01*
X44151000Y-20645881D01*
X44151000Y-20774119D01*
X44147340Y-20792517D01*
X44125983Y-20899890D01*
X44076909Y-21018364D01*
X44005665Y-21124988D01*
X43914988Y-21215665D01*
X43808364Y-21286909D01*
X43808363Y-21286910D01*
X43808362Y-21286910D01*
X43689890Y-21335983D01*
X43564119Y-21361000D01*
X43435881Y-21361000D01*
X43310110Y-21335983D01*
X43191638Y-21286910D01*
X43191637Y-21286910D01*
X43191636Y-21286909D01*
X43085012Y-21215665D01*
X42994335Y-21124988D01*
X42923091Y-21018364D01*
X42874017Y-20899890D01*
X42852660Y-20792517D01*
X42849000Y-20774119D01*
X42849000Y-20645881D01*
X42874017Y-20520110D01*
X42923090Y-20401638D01*
X42939690Y-20376795D01*
X42994335Y-20295012D01*
X43085012Y-20204335D01*
X43191636Y-20133091D01*
X43310110Y-20084017D01*
X43435881Y-20059000D01*
X43564119Y-20059000D01*
X43689890Y-20084017D01*
X43689890Y-20084017D01*
G37*
G36*
X32932517Y-19743781D02*
G01*
X33059946Y-19782436D01*
X33177383Y-19845208D01*
X33280317Y-19929683D01*
X33364792Y-20032617D01*
X33427564Y-20150054D01*
X33466219Y-20277484D01*
X33476000Y-20376796D01*
X33476000Y-20693205D01*
X33466219Y-20792517D01*
X33427564Y-20919946D01*
X33364792Y-21037383D01*
X33280317Y-21140316D01*
X33177382Y-21224792D01*
X33059945Y-21287564D01*
X32932516Y-21326219D01*
X32800000Y-21339270D01*
X32667483Y-21326219D01*
X32540054Y-21287564D01*
X32422617Y-21224792D01*
X32319684Y-21140317D01*
X32235208Y-21037382D01*
X32172436Y-20919945D01*
X32133781Y-20792516D01*
X32124000Y-20693204D01*
X32124000Y-20376795D01*
X32133781Y-20277483D01*
X32172436Y-20150054D01*
X32235208Y-20032617D01*
X32319683Y-19929684D01*
X32422618Y-19845208D01*
X32540055Y-19782436D01*
X32667484Y-19743781D01*
X32800000Y-19730730D01*
X32932517Y-19743781D01*
X32932517Y-19743781D01*
G37*
G36*
X33476000Y-18796000D02*
G01*
X32124000Y-18796000D01*
X32124000Y-17194000D01*
X33476000Y-17194000D01*
X33476000Y-18796000D01*
X33476000Y-18796000D01*
G37*
G36*
X39466601Y-17384397D02*
G01*
X39505305Y-17392096D01*
X39537340Y-17405365D01*
X39614680Y-17437400D01*
X39713115Y-17503173D01*
X39796828Y-17586886D01*
X39861067Y-17683026D01*
X39876613Y-17701968D01*
X39895555Y-17717513D01*
X39917165Y-17729064D01*
X39940614Y-17736177D01*
X39965000Y-17738579D01*
X39989386Y-17736177D01*
X40012835Y-17729064D01*
X40034446Y-17717513D01*
X40053388Y-17701967D01*
X40068933Y-17683026D01*
X40133172Y-17586886D01*
X40216885Y-17503173D01*
X40315320Y-17437400D01*
X40392660Y-17405365D01*
X40424695Y-17392096D01*
X40463399Y-17384397D01*
X40540805Y-17369000D01*
X40659195Y-17369000D01*
X40736601Y-17384397D01*
X40775305Y-17392096D01*
X40807340Y-17405365D01*
X40884680Y-17437400D01*
X40983115Y-17503173D01*
X41066827Y-17586885D01*
X41132600Y-17685320D01*
X41177904Y-17794696D01*
X41201000Y-17910805D01*
X41201000Y-18029195D01*
X41177904Y-18145304D01*
X41132600Y-18254680D01*
X41066827Y-18353115D01*
X40983115Y-18436827D01*
X40884680Y-18502600D01*
X40807340Y-18534635D01*
X40775305Y-18547904D01*
X40736601Y-18555603D01*
X40659195Y-18571000D01*
X40540805Y-18571000D01*
X40463399Y-18555603D01*
X40424695Y-18547904D01*
X40392660Y-18534635D01*
X40315320Y-18502600D01*
X40216885Y-18436827D01*
X40133172Y-18353114D01*
X40068933Y-18256974D01*
X40053387Y-18238032D01*
X40034445Y-18222487D01*
X40012835Y-18210936D01*
X39989386Y-18203823D01*
X39965000Y-18201421D01*
X39940614Y-18203823D01*
X39917165Y-18210936D01*
X39895554Y-18222487D01*
X39876612Y-18238033D01*
X39861067Y-18256974D01*
X39796828Y-18353114D01*
X39713115Y-18436827D01*
X39614680Y-18502600D01*
X39537340Y-18534635D01*
X39505305Y-18547904D01*
X39466601Y-18555603D01*
X39389195Y-18571000D01*
X39270805Y-18571000D01*
X39193399Y-18555603D01*
X39154695Y-18547904D01*
X39122660Y-18534635D01*
X39045320Y-18502600D01*
X38946885Y-18436827D01*
X38863173Y-18353115D01*
X38797400Y-18254680D01*
X38752096Y-18145304D01*
X38729000Y-18029195D01*
X38729000Y-17910805D01*
X38752096Y-17794696D01*
X38797400Y-17685320D01*
X38863173Y-17586885D01*
X38946885Y-17503173D01*
X39045320Y-17437400D01*
X39122660Y-17405365D01*
X39154695Y-17392096D01*
X39193399Y-17384397D01*
X39270805Y-17369000D01*
X39389195Y-17369000D01*
X39466601Y-17384397D01*
X39466601Y-17384397D01*
G37*
M02*
