G04 #@! TF.GenerationSoftware,KiCad,Pcbnew,5.1.4+dfsg1-1~bpo10+1*
G04 #@! TF.CreationDate,2020-02-13T12:35:02+01:00*
G04 #@! TF.ProjectId,qomu-board,716f6d75-2d62-46f6-9172-642e6b696361,rev?*
G04 #@! TF.SameCoordinates,Original*
G04 #@! TF.FileFunction,Soldermask,Bot*
G04 #@! TF.FilePolarity,Negative*
%FSLAX46Y46*%
G04 Gerber Fmt 4.6, Leading zero omitted, Abs format (unit mm)*
G04 Created by KiCad (PCBNEW 5.1.4+dfsg1-1~bpo10+1) date 2020-02-13 12:35:02*
%MOMM*%
%LPD*%
G04 APERTURE LIST*
%ADD10C,0.100000*%
G04 APERTURE END LIST*
D10*
G36*
X29650000Y-25120000D02*
G01*
X29900000Y-25370000D01*
X29550000Y-26470000D01*
X29500000Y-26520000D01*
X28500000Y-26520000D01*
X28450000Y-26170000D01*
X28250000Y-25920000D01*
X28050000Y-25770000D01*
X27900000Y-25720000D01*
X27700000Y-25720000D01*
X27400000Y-25770000D01*
X27200000Y-25870000D01*
X27200000Y-24320000D01*
X29650000Y-24320000D01*
X29650000Y-25120000D01*
G37*
X29650000Y-25120000D02*
X29900000Y-25370000D01*
X29550000Y-26470000D01*
X29500000Y-26520000D01*
X28500000Y-26520000D01*
X28450000Y-26170000D01*
X28250000Y-25920000D01*
X28050000Y-25770000D01*
X27900000Y-25720000D01*
X27700000Y-25720000D01*
X27400000Y-25770000D01*
X27200000Y-25870000D01*
X27200000Y-24320000D01*
X29650000Y-24320000D01*
X29650000Y-25120000D01*
G36*
X29550000Y-17170000D02*
G01*
X29900000Y-18320000D01*
X29600000Y-18520000D01*
X29600000Y-19320000D01*
X28000000Y-19320000D01*
X28000000Y-17120000D01*
X29450000Y-17120000D01*
X29550000Y-17170000D01*
G37*
X29550000Y-17170000D02*
X29900000Y-18320000D01*
X29600000Y-18520000D01*
X29600000Y-19320000D01*
X28000000Y-19320000D01*
X28000000Y-17120000D01*
X29450000Y-17120000D01*
X29550000Y-17170000D01*
G36*
X29700000Y-20320000D02*
G01*
X30050000Y-20520000D01*
X30050000Y-23120000D01*
X29707585Y-23270000D01*
X29715000Y-24020000D01*
X27300000Y-24020000D01*
X27307500Y-19570000D01*
X29700000Y-19570000D01*
X29700000Y-20320000D01*
G37*
X29700000Y-20320000D02*
X30050000Y-20520000D01*
X30050000Y-23120000D01*
X29707585Y-23270000D01*
X29715000Y-24020000D01*
X27300000Y-24020000D01*
X27307500Y-19570000D01*
X29700000Y-19570000D01*
X29700000Y-20320000D01*
G36*
X18870000Y-17819000D02*
G01*
X18870000Y-18189000D01*
X19140000Y-18189000D01*
X19140000Y-17819000D01*
X18870000Y-17819000D01*
G37*
G36*
X18870000Y-18329000D02*
G01*
X18870000Y-18679000D01*
X19490000Y-18679000D01*
X19490000Y-18329000D01*
X18870000Y-18329000D01*
G37*
G36*
X19220000Y-17819000D02*
G01*
X19220000Y-18189000D01*
X19490000Y-18189000D01*
X19490000Y-17819000D01*
X19220000Y-17819000D01*
G37*
G36*
X26200000Y-18309000D02*
G01*
X25830000Y-18309000D01*
X25830000Y-18579000D01*
X26200000Y-18579000D01*
X26200000Y-18309000D01*
G37*
G36*
X25690000Y-18309000D02*
G01*
X25340000Y-18309000D01*
X25340000Y-18929000D01*
X25690000Y-18929000D01*
X25690000Y-18309000D01*
G37*
G36*
X26200000Y-18659000D02*
G01*
X25830000Y-18659000D01*
X25830000Y-18929000D01*
X26200000Y-18929000D01*
X26200000Y-18659000D01*
G37*
G36*
X17900000Y-17819000D02*
G01*
X17900000Y-18189000D01*
X18170000Y-18189000D01*
X18170000Y-17819000D01*
X17900000Y-17819000D01*
G37*
G36*
X17900000Y-18329000D02*
G01*
X17900000Y-18679000D01*
X18520000Y-18679000D01*
X18520000Y-18329000D01*
X17900000Y-18329000D01*
G37*
G36*
X18250000Y-17819000D02*
G01*
X18250000Y-18189000D01*
X18520000Y-18189000D01*
X18520000Y-17819000D01*
X18250000Y-17819000D01*
G37*
G36*
X41450170Y-25420803D02*
G01*
X41461875Y-25424354D01*
X41472665Y-25430121D01*
X41482119Y-25437881D01*
X41489879Y-25447335D01*
X41495646Y-25458125D01*
X41499197Y-25469830D01*
X41501000Y-25488138D01*
X41501000Y-25911862D01*
X41499197Y-25930170D01*
X41495645Y-25941877D01*
X41485383Y-25961077D01*
X41476006Y-25983716D01*
X41471226Y-26007749D01*
X41471226Y-26032253D01*
X41476007Y-26056286D01*
X41485383Y-26078923D01*
X41495645Y-26098123D01*
X41499197Y-26109830D01*
X41501000Y-26128138D01*
X41501000Y-26551862D01*
X41499197Y-26570170D01*
X41495646Y-26581875D01*
X41489879Y-26592665D01*
X41482119Y-26602119D01*
X41472665Y-26609879D01*
X41461875Y-26615646D01*
X41450170Y-26619197D01*
X41431862Y-26621000D01*
X41068138Y-26621000D01*
X41049830Y-26619197D01*
X41038125Y-26615646D01*
X41027335Y-26609879D01*
X41017881Y-26602119D01*
X41010121Y-26592665D01*
X41004354Y-26581875D01*
X41000803Y-26570170D01*
X40999000Y-26551862D01*
X40999000Y-26128138D01*
X41000803Y-26109830D01*
X41004355Y-26098123D01*
X41014617Y-26078923D01*
X41023994Y-26056284D01*
X41028774Y-26032251D01*
X41028774Y-26007747D01*
X41023993Y-25983714D01*
X41014617Y-25961077D01*
X41004355Y-25941877D01*
X41000803Y-25930170D01*
X40999000Y-25911862D01*
X40999000Y-25488138D01*
X41000803Y-25469830D01*
X41004354Y-25458125D01*
X41010121Y-25447335D01*
X41017881Y-25437881D01*
X41027335Y-25430121D01*
X41038125Y-25424354D01*
X41049830Y-25420803D01*
X41068138Y-25419000D01*
X41431862Y-25419000D01*
X41450170Y-25420803D01*
X41450170Y-25420803D01*
G37*
G36*
X40061000Y-26551000D02*
G01*
X39219000Y-26551000D01*
X39219000Y-23659000D01*
X40061000Y-23659000D01*
X40061000Y-26551000D01*
X40061000Y-26551000D01*
G37*
G36*
X38791000Y-26551000D02*
G01*
X37949000Y-26551000D01*
X37949000Y-23659000D01*
X38791000Y-23659000D01*
X38791000Y-26551000D01*
X38791000Y-26551000D01*
G37*
G36*
X37521000Y-26551000D02*
G01*
X36679000Y-26551000D01*
X36679000Y-23659000D01*
X37521000Y-23659000D01*
X37521000Y-26551000D01*
X37521000Y-26551000D01*
G37*
G36*
X36251000Y-26551000D02*
G01*
X35409000Y-26551000D01*
X35409000Y-23659000D01*
X36251000Y-23659000D01*
X36251000Y-26551000D01*
X36251000Y-26551000D01*
G37*
G36*
X34981000Y-26551000D02*
G01*
X34139000Y-26551000D01*
X34139000Y-23659000D01*
X34981000Y-23659000D01*
X34981000Y-26551000D01*
X34981000Y-26551000D01*
G37*
G36*
X32932517Y-24823781D02*
G01*
X33059946Y-24862436D01*
X33177383Y-24925208D01*
X33280317Y-25009683D01*
X33364792Y-25112617D01*
X33427564Y-25230054D01*
X33466219Y-25357484D01*
X33476000Y-25456796D01*
X33476000Y-25773205D01*
X33466219Y-25872517D01*
X33427564Y-25999946D01*
X33364792Y-26117383D01*
X33280317Y-26220316D01*
X33177382Y-26304792D01*
X33059945Y-26367564D01*
X32932516Y-26406219D01*
X32800000Y-26419270D01*
X32667483Y-26406219D01*
X32540054Y-26367564D01*
X32422617Y-26304792D01*
X32319684Y-26220317D01*
X32235208Y-26117382D01*
X32172436Y-25999945D01*
X32133781Y-25872516D01*
X32124000Y-25773204D01*
X32124000Y-25456795D01*
X32133781Y-25357483D01*
X32172436Y-25230054D01*
X32235208Y-25112617D01*
X32319683Y-25009684D01*
X32422618Y-24925208D01*
X32540055Y-24862436D01*
X32667484Y-24823781D01*
X32800000Y-24810730D01*
X32932517Y-24823781D01*
X32932517Y-24823781D01*
G37*
G36*
X42951000Y-26411000D02*
G01*
X42049000Y-26411000D01*
X42049000Y-25309000D01*
X42951000Y-25309000D01*
X42951000Y-26411000D01*
X42951000Y-26411000D01*
G37*
G36*
X45051000Y-26411000D02*
G01*
X44149000Y-26411000D01*
X44149000Y-25309000D01*
X45051000Y-25309000D01*
X45051000Y-26411000D01*
X45051000Y-26411000D01*
G37*
G36*
X21350170Y-24965803D02*
G01*
X21361877Y-24969355D01*
X21381077Y-24979617D01*
X21403716Y-24988994D01*
X21427749Y-24993774D01*
X21452253Y-24993774D01*
X21476286Y-24988993D01*
X21498923Y-24979617D01*
X21518123Y-24969355D01*
X21529830Y-24965803D01*
X21548138Y-24964000D01*
X21971862Y-24964000D01*
X21990170Y-24965803D01*
X22001875Y-24969354D01*
X22012665Y-24975121D01*
X22022119Y-24982881D01*
X22029879Y-24992335D01*
X22035646Y-25003125D01*
X22039197Y-25014830D01*
X22041000Y-25033138D01*
X22041000Y-25396862D01*
X22039197Y-25415170D01*
X22035646Y-25426875D01*
X22029877Y-25437668D01*
X22019583Y-25450211D01*
X22005969Y-25470585D01*
X21996591Y-25493224D01*
X21991810Y-25517257D01*
X21991810Y-25541761D01*
X21996590Y-25565795D01*
X22005967Y-25588433D01*
X22019580Y-25608808D01*
X22036907Y-25626135D01*
X22057281Y-25639749D01*
X22079920Y-25649127D01*
X22103956Y-25653908D01*
X22113809Y-25654878D01*
X22179969Y-25674949D01*
X22179972Y-25674950D01*
X22240949Y-25707542D01*
X22259897Y-25723093D01*
X22294396Y-25751404D01*
X22321842Y-25784849D01*
X22338258Y-25804851D01*
X22370850Y-25865828D01*
X22370851Y-25865831D01*
X22390922Y-25931992D01*
X22397698Y-26000800D01*
X22390922Y-26069608D01*
X22373166Y-26128138D01*
X22370850Y-26135772D01*
X22338258Y-26196749D01*
X22322707Y-26215697D01*
X22294396Y-26250196D01*
X22259897Y-26278507D01*
X22240949Y-26294058D01*
X22179972Y-26326650D01*
X22179969Y-26326651D01*
X22113809Y-26346722D01*
X22062244Y-26351800D01*
X21877756Y-26351800D01*
X21826191Y-26346722D01*
X21760031Y-26326651D01*
X21760028Y-26326650D01*
X21699051Y-26294058D01*
X21680103Y-26278507D01*
X21645604Y-26250196D01*
X21617293Y-26215697D01*
X21601742Y-26196749D01*
X21569150Y-26135772D01*
X21566834Y-26128138D01*
X21549078Y-26069608D01*
X21542302Y-26000800D01*
X21549078Y-25931992D01*
X21569149Y-25865831D01*
X21569150Y-25865828D01*
X21601742Y-25804851D01*
X21618158Y-25784849D01*
X21645604Y-25751404D01*
X21699051Y-25707542D01*
X21701487Y-25706240D01*
X21710846Y-25701237D01*
X21731219Y-25687625D01*
X21748546Y-25670298D01*
X21762160Y-25649924D01*
X21771537Y-25627285D01*
X21776318Y-25603252D01*
X21776318Y-25578748D01*
X21771538Y-25554715D01*
X21762161Y-25532076D01*
X21748547Y-25511701D01*
X21731220Y-25494374D01*
X21710846Y-25480760D01*
X21688207Y-25471383D01*
X21664174Y-25466602D01*
X21651921Y-25466000D01*
X21548138Y-25466000D01*
X21529830Y-25464197D01*
X21518123Y-25460645D01*
X21498923Y-25450383D01*
X21476284Y-25441006D01*
X21452251Y-25436226D01*
X21427747Y-25436226D01*
X21403714Y-25441007D01*
X21381077Y-25450383D01*
X21361877Y-25460645D01*
X21350170Y-25464197D01*
X21331862Y-25466000D01*
X21018079Y-25466000D01*
X20993693Y-25468402D01*
X20970244Y-25475515D01*
X20948633Y-25487066D01*
X20929691Y-25502611D01*
X20914146Y-25521553D01*
X20902595Y-25543164D01*
X20895482Y-25566613D01*
X20893080Y-25590999D01*
X20895482Y-25615385D01*
X20902595Y-25638834D01*
X20914146Y-25660445D01*
X20929691Y-25679387D01*
X20948633Y-25694932D01*
X20959151Y-25701236D01*
X20968513Y-25706240D01*
X20970949Y-25707542D01*
X21024396Y-25751404D01*
X21051842Y-25784849D01*
X21068258Y-25804851D01*
X21100850Y-25865828D01*
X21100851Y-25865831D01*
X21120922Y-25931992D01*
X21127698Y-26000800D01*
X21120922Y-26069608D01*
X21103166Y-26128138D01*
X21100850Y-26135772D01*
X21068258Y-26196749D01*
X21052707Y-26215697D01*
X21024396Y-26250196D01*
X20989897Y-26278507D01*
X20970949Y-26294058D01*
X20909972Y-26326650D01*
X20909969Y-26326651D01*
X20843809Y-26346722D01*
X20792244Y-26351800D01*
X20607756Y-26351800D01*
X20556191Y-26346722D01*
X20490031Y-26326651D01*
X20490028Y-26326650D01*
X20429051Y-26294058D01*
X20410103Y-26278507D01*
X20375604Y-26250196D01*
X20347293Y-26215697D01*
X20331742Y-26196749D01*
X20299150Y-26135772D01*
X20296834Y-26128138D01*
X20279078Y-26069608D01*
X20272302Y-26000800D01*
X20279078Y-25931992D01*
X20299149Y-25865831D01*
X20299150Y-25865828D01*
X20331742Y-25804851D01*
X20348158Y-25784849D01*
X20375604Y-25751404D01*
X20410103Y-25723093D01*
X20429051Y-25707542D01*
X20490028Y-25674950D01*
X20490031Y-25674949D01*
X20556191Y-25654878D01*
X20607756Y-25649800D01*
X20759927Y-25649800D01*
X20784313Y-25647398D01*
X20807762Y-25640285D01*
X20829373Y-25628734D01*
X20848315Y-25613189D01*
X20863860Y-25594247D01*
X20875411Y-25572636D01*
X20882524Y-25549187D01*
X20884926Y-25524801D01*
X20882524Y-25500415D01*
X20875411Y-25476966D01*
X20856553Y-25445503D01*
X20850123Y-25437668D01*
X20844354Y-25426875D01*
X20840803Y-25415170D01*
X20839000Y-25396862D01*
X20839000Y-25033138D01*
X20840803Y-25014830D01*
X20844354Y-25003125D01*
X20850121Y-24992335D01*
X20857881Y-24982881D01*
X20867335Y-24975121D01*
X20878125Y-24969354D01*
X20889830Y-24965803D01*
X20908138Y-24964000D01*
X21331862Y-24964000D01*
X21350170Y-24965803D01*
X21350170Y-24965803D01*
G37*
G36*
X25700170Y-24579803D02*
G01*
X25711877Y-24583355D01*
X25731077Y-24593617D01*
X25753716Y-24602994D01*
X25777749Y-24607774D01*
X25802253Y-24607774D01*
X25826286Y-24602993D01*
X25848923Y-24593617D01*
X25868123Y-24583355D01*
X25879830Y-24579803D01*
X25898138Y-24578000D01*
X26321862Y-24578000D01*
X26340170Y-24579803D01*
X26351875Y-24583354D01*
X26362665Y-24589121D01*
X26372119Y-24596881D01*
X26379880Y-24606337D01*
X26390853Y-24626866D01*
X26404467Y-24647241D01*
X26421794Y-24664568D01*
X26442168Y-24678182D01*
X26464807Y-24687559D01*
X26488840Y-24692340D01*
X26513344Y-24692340D01*
X26537377Y-24687560D01*
X26560016Y-24678183D01*
X26580392Y-24664568D01*
X26588446Y-24657958D01*
X26591885Y-24656120D01*
X26595620Y-24654987D01*
X26605641Y-24654000D01*
X26954359Y-24654000D01*
X26964380Y-24654987D01*
X26968115Y-24656120D01*
X26971553Y-24657958D01*
X26974568Y-24660432D01*
X26977042Y-24663447D01*
X26978880Y-24666885D01*
X26980013Y-24670620D01*
X26981000Y-24680641D01*
X26981000Y-24959359D01*
X26980012Y-24969385D01*
X26978698Y-24973718D01*
X26973918Y-24997751D01*
X26973918Y-25022255D01*
X26978698Y-25046282D01*
X26980012Y-25050615D01*
X26981000Y-25060641D01*
X26981000Y-25339359D01*
X26980013Y-25349380D01*
X26978880Y-25353115D01*
X26977042Y-25356553D01*
X26974568Y-25359568D01*
X26971553Y-25362042D01*
X26968115Y-25363880D01*
X26964380Y-25365013D01*
X26954359Y-25366000D01*
X26605641Y-25366000D01*
X26595620Y-25365013D01*
X26591885Y-25363880D01*
X26580629Y-25357863D01*
X26574925Y-25354052D01*
X26552286Y-25344674D01*
X26528253Y-25339893D01*
X26516996Y-25339893D01*
X26533299Y-25329000D01*
X26550626Y-25311673D01*
X26564240Y-25291298D01*
X26573617Y-25268660D01*
X26578398Y-25244626D01*
X26579000Y-25232374D01*
X26579000Y-25155626D01*
X26576598Y-25131240D01*
X26569485Y-25107791D01*
X26557934Y-25086180D01*
X26542389Y-25067238D01*
X26523447Y-25051693D01*
X26501836Y-25040142D01*
X26478387Y-25033029D01*
X26454001Y-25030627D01*
X26429615Y-25033029D01*
X26406166Y-25040142D01*
X26384555Y-25051693D01*
X26374702Y-25059001D01*
X26362668Y-25068877D01*
X26351072Y-25075075D01*
X26330100Y-25083763D01*
X26309726Y-25097377D01*
X26292399Y-25114704D01*
X26278786Y-25135079D01*
X26269409Y-25157718D01*
X26264630Y-25181752D01*
X26264630Y-25206256D01*
X26269412Y-25230289D01*
X26278790Y-25252927D01*
X26292404Y-25273301D01*
X26309731Y-25290628D01*
X26330106Y-25304241D01*
X26351073Y-25312925D01*
X26362668Y-25319123D01*
X26374702Y-25328999D01*
X26395077Y-25342613D01*
X26417715Y-25351990D01*
X26441749Y-25356771D01*
X26453004Y-25356771D01*
X26436702Y-25367663D01*
X26419375Y-25384990D01*
X26405761Y-25405364D01*
X26396383Y-25428003D01*
X26391602Y-25452036D01*
X26391000Y-25464290D01*
X26391000Y-25740862D01*
X26389197Y-25759170D01*
X26385646Y-25770875D01*
X26379879Y-25781665D01*
X26372119Y-25791119D01*
X26362665Y-25798879D01*
X26351875Y-25804646D01*
X26340170Y-25808197D01*
X26321862Y-25810000D01*
X25898138Y-25810000D01*
X25879830Y-25808197D01*
X25868123Y-25804645D01*
X25848923Y-25794383D01*
X25826284Y-25785006D01*
X25802251Y-25780226D01*
X25777747Y-25780226D01*
X25753714Y-25785007D01*
X25731077Y-25794383D01*
X25711877Y-25804645D01*
X25700170Y-25808197D01*
X25681862Y-25810000D01*
X25258138Y-25810000D01*
X25239830Y-25808197D01*
X25228125Y-25804646D01*
X25217335Y-25798879D01*
X25207881Y-25791119D01*
X25200121Y-25781665D01*
X25194353Y-25770873D01*
X25194008Y-25769736D01*
X25184629Y-25747098D01*
X25171015Y-25726724D01*
X25153687Y-25709398D01*
X25133312Y-25695785D01*
X25110673Y-25686409D01*
X25086639Y-25681629D01*
X25062135Y-25681630D01*
X25038102Y-25686412D01*
X25015464Y-25695791D01*
X24995090Y-25709405D01*
X24977764Y-25726733D01*
X24964151Y-25747108D01*
X24957059Y-25764232D01*
X24949879Y-25777665D01*
X24942119Y-25787119D01*
X24932665Y-25794879D01*
X24921875Y-25800646D01*
X24910170Y-25804197D01*
X24891862Y-25806000D01*
X24468138Y-25806000D01*
X24449830Y-25804197D01*
X24438123Y-25800645D01*
X24418923Y-25790383D01*
X24396284Y-25781006D01*
X24372251Y-25776226D01*
X24347747Y-25776226D01*
X24323714Y-25781007D01*
X24301077Y-25790383D01*
X24281877Y-25800645D01*
X24270170Y-25804197D01*
X24251862Y-25806000D01*
X23828140Y-25806000D01*
X23798331Y-25803064D01*
X23773827Y-25803064D01*
X23749794Y-25807844D01*
X23727155Y-25817222D01*
X23706781Y-25830835D01*
X23689454Y-25848162D01*
X23675840Y-25868537D01*
X23666463Y-25891175D01*
X23661682Y-25915209D01*
X23661682Y-25939713D01*
X23667698Y-26000800D01*
X23660922Y-26069608D01*
X23643166Y-26128138D01*
X23640850Y-26135772D01*
X23608258Y-26196749D01*
X23592707Y-26215697D01*
X23564396Y-26250196D01*
X23529897Y-26278507D01*
X23510949Y-26294058D01*
X23449972Y-26326650D01*
X23449969Y-26326651D01*
X23383809Y-26346722D01*
X23332244Y-26351800D01*
X23147756Y-26351800D01*
X23096191Y-26346722D01*
X23030031Y-26326651D01*
X23030028Y-26326650D01*
X22969051Y-26294058D01*
X22950103Y-26278507D01*
X22915604Y-26250196D01*
X22887293Y-26215697D01*
X22871742Y-26196749D01*
X22839150Y-26135772D01*
X22836834Y-26128138D01*
X22819078Y-26069608D01*
X22812302Y-26000800D01*
X22819078Y-25931992D01*
X22839149Y-25865831D01*
X22839150Y-25865828D01*
X22871742Y-25804851D01*
X22888158Y-25784849D01*
X22915604Y-25751404D01*
X22950103Y-25723093D01*
X22969051Y-25707542D01*
X22996099Y-25693085D01*
X23016470Y-25679473D01*
X23033798Y-25662147D01*
X23047412Y-25641772D01*
X23056789Y-25619134D01*
X23061570Y-25595101D01*
X23061570Y-25570596D01*
X23056790Y-25546563D01*
X23047413Y-25523924D01*
X23033799Y-25503550D01*
X23016473Y-25486222D01*
X22996098Y-25472608D01*
X22982421Y-25466943D01*
X22958923Y-25454383D01*
X22936284Y-25445006D01*
X22912251Y-25440226D01*
X22887747Y-25440226D01*
X22863714Y-25445007D01*
X22841077Y-25454383D01*
X22821877Y-25464645D01*
X22810170Y-25468197D01*
X22791862Y-25470000D01*
X22368138Y-25470000D01*
X22349830Y-25468197D01*
X22338125Y-25464646D01*
X22327335Y-25458879D01*
X22317881Y-25451119D01*
X22310121Y-25441665D01*
X22304354Y-25430875D01*
X22300803Y-25419170D01*
X22299000Y-25400862D01*
X22299000Y-25037138D01*
X22300803Y-25018830D01*
X22304354Y-25007125D01*
X22310121Y-24996335D01*
X22317881Y-24986881D01*
X22327335Y-24979121D01*
X22338125Y-24973354D01*
X22349830Y-24969803D01*
X22368138Y-24968000D01*
X22791862Y-24968000D01*
X22810170Y-24969803D01*
X22821877Y-24973355D01*
X22841077Y-24983617D01*
X22863716Y-24992994D01*
X22887749Y-24997774D01*
X22912253Y-24997774D01*
X22936286Y-24992993D01*
X22958923Y-24983617D01*
X22978123Y-24973355D01*
X22989830Y-24969803D01*
X23008138Y-24968000D01*
X23431862Y-24968000D01*
X23450170Y-24969803D01*
X23461875Y-24973354D01*
X23472665Y-24979121D01*
X23482119Y-24986881D01*
X23489879Y-24996335D01*
X23495646Y-25007125D01*
X23499197Y-25018830D01*
X23501000Y-25037138D01*
X23501000Y-25400862D01*
X23499197Y-25419170D01*
X23495646Y-25430875D01*
X23489879Y-25441665D01*
X23482119Y-25451119D01*
X23472665Y-25458878D01*
X23465444Y-25462738D01*
X23445070Y-25476352D01*
X23427742Y-25493678D01*
X23414128Y-25514053D01*
X23404750Y-25536691D01*
X23399969Y-25560724D01*
X23399969Y-25585228D01*
X23404749Y-25609262D01*
X23414125Y-25631901D01*
X23427739Y-25652275D01*
X23445065Y-25669603D01*
X23465442Y-25683218D01*
X23506163Y-25704984D01*
X23510949Y-25707542D01*
X23530423Y-25723525D01*
X23554703Y-25743450D01*
X23575077Y-25757064D01*
X23597716Y-25766441D01*
X23621749Y-25771221D01*
X23646254Y-25771221D01*
X23670287Y-25766440D01*
X23692926Y-25757063D01*
X23713300Y-25743449D01*
X23730627Y-25726122D01*
X23744241Y-25705748D01*
X23753618Y-25683109D01*
X23759000Y-25646824D01*
X23759000Y-25373138D01*
X23760803Y-25354830D01*
X23764354Y-25343125D01*
X23770121Y-25332335D01*
X23777881Y-25322881D01*
X23787337Y-25315120D01*
X23805821Y-25305240D01*
X23826196Y-25291626D01*
X23843523Y-25274299D01*
X23857137Y-25253925D01*
X23866514Y-25231286D01*
X23871295Y-25207253D01*
X23871295Y-25182749D01*
X23871295Y-25182747D01*
X24208705Y-25182747D01*
X24208705Y-25207251D01*
X24213485Y-25231284D01*
X24222862Y-25253923D01*
X24236476Y-25274298D01*
X24253803Y-25291625D01*
X24274179Y-25305240D01*
X24301077Y-25319617D01*
X24323716Y-25328994D01*
X24347749Y-25333774D01*
X24372253Y-25333774D01*
X24396286Y-25328993D01*
X24418923Y-25319617D01*
X24445821Y-25305240D01*
X24466196Y-25291626D01*
X24483523Y-25274299D01*
X24497137Y-25253925D01*
X24506514Y-25231286D01*
X24511295Y-25207253D01*
X24511295Y-25182749D01*
X24511295Y-25182747D01*
X24848705Y-25182747D01*
X24848705Y-25207251D01*
X24853485Y-25231285D01*
X24862862Y-25253923D01*
X24876476Y-25274298D01*
X24893803Y-25291625D01*
X24914179Y-25305240D01*
X24932663Y-25315120D01*
X24942119Y-25322881D01*
X24949879Y-25332335D01*
X24955647Y-25343127D01*
X24955992Y-25344264D01*
X24965371Y-25366902D01*
X24978985Y-25387276D01*
X24996313Y-25404602D01*
X25016688Y-25418215D01*
X25039327Y-25427591D01*
X25063361Y-25432371D01*
X25087865Y-25432370D01*
X25111898Y-25427588D01*
X25134536Y-25418209D01*
X25154910Y-25404595D01*
X25172236Y-25387267D01*
X25185849Y-25366892D01*
X25192941Y-25349768D01*
X25200121Y-25336335D01*
X25207881Y-25326881D01*
X25217335Y-25319121D01*
X25228928Y-25312925D01*
X25249900Y-25304237D01*
X25270274Y-25290623D01*
X25287601Y-25273296D01*
X25301214Y-25252921D01*
X25310591Y-25230282D01*
X25315370Y-25206248D01*
X25315370Y-25181752D01*
X25624630Y-25181752D01*
X25624630Y-25206256D01*
X25629412Y-25230289D01*
X25638790Y-25252927D01*
X25652404Y-25273301D01*
X25669731Y-25290628D01*
X25690106Y-25304241D01*
X25711078Y-25312927D01*
X25731077Y-25323617D01*
X25753716Y-25332994D01*
X25777749Y-25337774D01*
X25802253Y-25337774D01*
X25826286Y-25332993D01*
X25848923Y-25323617D01*
X25868923Y-25312927D01*
X25889900Y-25304237D01*
X25910274Y-25290623D01*
X25927601Y-25273296D01*
X25941214Y-25252921D01*
X25950591Y-25230282D01*
X25955370Y-25206248D01*
X25955370Y-25181744D01*
X25950588Y-25157711D01*
X25941210Y-25135073D01*
X25927596Y-25114699D01*
X25910269Y-25097372D01*
X25889894Y-25083759D01*
X25868922Y-25075073D01*
X25848923Y-25064383D01*
X25826284Y-25055006D01*
X25802251Y-25050226D01*
X25777747Y-25050226D01*
X25753714Y-25055007D01*
X25731077Y-25064383D01*
X25711077Y-25075073D01*
X25690100Y-25083763D01*
X25669726Y-25097377D01*
X25652399Y-25114704D01*
X25638786Y-25135079D01*
X25629409Y-25157718D01*
X25624630Y-25181752D01*
X25315370Y-25181752D01*
X25315370Y-25181744D01*
X25310588Y-25157711D01*
X25301210Y-25135073D01*
X25287596Y-25114699D01*
X25270269Y-25097372D01*
X25249894Y-25083759D01*
X25228927Y-25075075D01*
X25217335Y-25068879D01*
X25207881Y-25061119D01*
X25200121Y-25051665D01*
X25192449Y-25037311D01*
X25186147Y-25022098D01*
X25172532Y-25001724D01*
X25155204Y-24984398D01*
X25134829Y-24970785D01*
X25112190Y-24961409D01*
X25088156Y-24956629D01*
X25063652Y-24956630D01*
X25039619Y-24961412D01*
X25016981Y-24970790D01*
X24996607Y-24984405D01*
X24979281Y-25001733D01*
X24965668Y-25022108D01*
X24956294Y-25044739D01*
X24955646Y-25046875D01*
X24949879Y-25057665D01*
X24942119Y-25067119D01*
X24932663Y-25074880D01*
X24914179Y-25084760D01*
X24893804Y-25098374D01*
X24876477Y-25115701D01*
X24862863Y-25136075D01*
X24853486Y-25158714D01*
X24848705Y-25182747D01*
X24511295Y-25182747D01*
X24506515Y-25158716D01*
X24497138Y-25136077D01*
X24483524Y-25115702D01*
X24466197Y-25098375D01*
X24445821Y-25084760D01*
X24418923Y-25070383D01*
X24396284Y-25061006D01*
X24372251Y-25056226D01*
X24347747Y-25056226D01*
X24323714Y-25061007D01*
X24301077Y-25070383D01*
X24274179Y-25084760D01*
X24253804Y-25098374D01*
X24236477Y-25115701D01*
X24222863Y-25136075D01*
X24213486Y-25158714D01*
X24208705Y-25182747D01*
X23871295Y-25182747D01*
X23866515Y-25158715D01*
X23857138Y-25136077D01*
X23843524Y-25115702D01*
X23826197Y-25098375D01*
X23805821Y-25084760D01*
X23787337Y-25074880D01*
X23777881Y-25067119D01*
X23770121Y-25057665D01*
X23764354Y-25046875D01*
X23760803Y-25035170D01*
X23759000Y-25016862D01*
X23759000Y-24653138D01*
X23760803Y-24634830D01*
X23764354Y-24623125D01*
X23770121Y-24612335D01*
X23777881Y-24602881D01*
X23787335Y-24595121D01*
X23798125Y-24589354D01*
X23809830Y-24585803D01*
X23828138Y-24584000D01*
X24251862Y-24584000D01*
X24270170Y-24585803D01*
X24281877Y-24589355D01*
X24301077Y-24599617D01*
X24323716Y-24608994D01*
X24347749Y-24613774D01*
X24372253Y-24613774D01*
X24396286Y-24608993D01*
X24418923Y-24599617D01*
X24438123Y-24589355D01*
X24449830Y-24585803D01*
X24468138Y-24584000D01*
X24891862Y-24584000D01*
X24910170Y-24585803D01*
X24921875Y-24589354D01*
X24932665Y-24595121D01*
X24942119Y-24602881D01*
X24949879Y-24612335D01*
X24957551Y-24626689D01*
X24963853Y-24641902D01*
X24977468Y-24662276D01*
X24994796Y-24679602D01*
X25015171Y-24693215D01*
X25037810Y-24702591D01*
X25061844Y-24707371D01*
X25086348Y-24707370D01*
X25110381Y-24702588D01*
X25133019Y-24693210D01*
X25153393Y-24679595D01*
X25170719Y-24662267D01*
X25184332Y-24641892D01*
X25193706Y-24619261D01*
X25194354Y-24617125D01*
X25200121Y-24606335D01*
X25207881Y-24596881D01*
X25217335Y-24589121D01*
X25228125Y-24583354D01*
X25239830Y-24579803D01*
X25258138Y-24578000D01*
X25681862Y-24578000D01*
X25700170Y-24579803D01*
X25700170Y-24579803D01*
G37*
G36*
X18526000Y-18282048D02*
G01*
X18523402Y-18290613D01*
X18521000Y-18314999D01*
X18521000Y-18803789D01*
X18523402Y-18828175D01*
X18530515Y-18851624D01*
X18542066Y-18873235D01*
X18557611Y-18892177D01*
X18576553Y-18907722D01*
X18598164Y-18919273D01*
X18621613Y-18926386D01*
X18633749Y-18928186D01*
X18650170Y-18929803D01*
X18661877Y-18933355D01*
X18681077Y-18943617D01*
X18703716Y-18952994D01*
X18727749Y-18957774D01*
X18752253Y-18957774D01*
X18776286Y-18952993D01*
X18798923Y-18943617D01*
X18821959Y-18931304D01*
X18836608Y-18925236D01*
X18856982Y-18911622D01*
X18874308Y-18894294D01*
X18887921Y-18873919D01*
X18897298Y-18851280D01*
X18902078Y-18827247D01*
X18902077Y-18802743D01*
X18897295Y-18778710D01*
X18887917Y-18756071D01*
X18874303Y-18735697D01*
X18869000Y-18730395D01*
X18869000Y-18314999D01*
X18866598Y-18290613D01*
X18864000Y-18282048D01*
X18864000Y-17818000D01*
X19496000Y-17818000D01*
X19496000Y-18282048D01*
X19493402Y-18290613D01*
X19491000Y-18314999D01*
X19491000Y-18690000D01*
X19342320Y-18690000D01*
X19317934Y-18692402D01*
X19294485Y-18699515D01*
X19272874Y-18711066D01*
X19253932Y-18726611D01*
X19238387Y-18745553D01*
X19226836Y-18767164D01*
X19219723Y-18790613D01*
X19217321Y-18814999D01*
X19219723Y-18839385D01*
X19226836Y-18862834D01*
X19238387Y-18884445D01*
X19253932Y-18903387D01*
X19272874Y-18918932D01*
X19291036Y-18927522D01*
X19291020Y-18927552D01*
X19312665Y-18939121D01*
X19322119Y-18946881D01*
X19329879Y-18956335D01*
X19335646Y-18967125D01*
X19339197Y-18978830D01*
X19341000Y-18997138D01*
X19341000Y-19360862D01*
X19339197Y-19379170D01*
X19335646Y-19390875D01*
X19329879Y-19401665D01*
X19322119Y-19411119D01*
X19312663Y-19418880D01*
X19303532Y-19423761D01*
X19283158Y-19437375D01*
X19265831Y-19454702D01*
X19252217Y-19475076D01*
X19242840Y-19497715D01*
X19238060Y-19521749D01*
X19238060Y-19546253D01*
X19242841Y-19570286D01*
X19252218Y-19592925D01*
X19265832Y-19613299D01*
X19283159Y-19630626D01*
X19303532Y-19644239D01*
X19312663Y-19649120D01*
X19322119Y-19656881D01*
X19329879Y-19666335D01*
X19335646Y-19677125D01*
X19339197Y-19688830D01*
X19341000Y-19707138D01*
X19341000Y-20070862D01*
X19339197Y-20089170D01*
X19335646Y-20100875D01*
X19329879Y-20111665D01*
X19322119Y-20121119D01*
X19312663Y-20128880D01*
X19303532Y-20133761D01*
X19283158Y-20147375D01*
X19265831Y-20164702D01*
X19252217Y-20185076D01*
X19242840Y-20207715D01*
X19238060Y-20231749D01*
X19238060Y-20256253D01*
X19242841Y-20280286D01*
X19252218Y-20302925D01*
X19265832Y-20323299D01*
X19283159Y-20340626D01*
X19303532Y-20354239D01*
X19312663Y-20359120D01*
X19322119Y-20366881D01*
X19329879Y-20376335D01*
X19335646Y-20387125D01*
X19339197Y-20398830D01*
X19341000Y-20417138D01*
X19341000Y-20780862D01*
X19339197Y-20799170D01*
X19335646Y-20810875D01*
X19329879Y-20821665D01*
X19322118Y-20831121D01*
X19313893Y-20837871D01*
X19296566Y-20855198D01*
X19282952Y-20875572D01*
X19273575Y-20898211D01*
X19268794Y-20922244D01*
X19268794Y-20946749D01*
X19273574Y-20970782D01*
X19282951Y-20993421D01*
X19296565Y-21013795D01*
X19313892Y-21031122D01*
X19334266Y-21044736D01*
X19356905Y-21054113D01*
X19380940Y-21058894D01*
X19390170Y-21059803D01*
X19401875Y-21063354D01*
X19412665Y-21069121D01*
X19422119Y-21076881D01*
X19429879Y-21086335D01*
X19435646Y-21097125D01*
X19439197Y-21108830D01*
X19441000Y-21127138D01*
X19441000Y-21490862D01*
X19439197Y-21509170D01*
X19435646Y-21520875D01*
X19429879Y-21531665D01*
X19422119Y-21541119D01*
X19412663Y-21548880D01*
X19403532Y-21553761D01*
X19383158Y-21567375D01*
X19365831Y-21584702D01*
X19352217Y-21605076D01*
X19342840Y-21627715D01*
X19338060Y-21651749D01*
X19338060Y-21676253D01*
X19342841Y-21700286D01*
X19352218Y-21722925D01*
X19365832Y-21743299D01*
X19383159Y-21760626D01*
X19403532Y-21774239D01*
X19412663Y-21779120D01*
X19422119Y-21786881D01*
X19429879Y-21796335D01*
X19435646Y-21807125D01*
X19439197Y-21818830D01*
X19441000Y-21837138D01*
X19441000Y-22200862D01*
X19439197Y-22219170D01*
X19435646Y-22230875D01*
X19429879Y-22241665D01*
X19422119Y-22251119D01*
X19412665Y-22258879D01*
X19401875Y-22264646D01*
X19390170Y-22268197D01*
X19371862Y-22270000D01*
X18948138Y-22270000D01*
X18929830Y-22268197D01*
X18918123Y-22264645D01*
X18898923Y-22254383D01*
X18876284Y-22245006D01*
X18852251Y-22240226D01*
X18827747Y-22240226D01*
X18803714Y-22245007D01*
X18781077Y-22254383D01*
X18761877Y-22264645D01*
X18750170Y-22268197D01*
X18731862Y-22270000D01*
X18308138Y-22270000D01*
X18289830Y-22268197D01*
X18278125Y-22264646D01*
X18267335Y-22258879D01*
X18257881Y-22251119D01*
X18250121Y-22241665D01*
X18242302Y-22227037D01*
X18236236Y-22212392D01*
X18222622Y-22192018D01*
X18205294Y-22174692D01*
X18184919Y-22161079D01*
X18162280Y-22151702D01*
X18138247Y-22146922D01*
X18113743Y-22146923D01*
X18089710Y-22151705D01*
X18067071Y-22161083D01*
X18046697Y-22174697D01*
X18029371Y-22192025D01*
X18015758Y-22212400D01*
X18006381Y-22235039D01*
X18001000Y-22271320D01*
X18001000Y-22360862D01*
X17999197Y-22379170D01*
X17995645Y-22390877D01*
X17985383Y-22410077D01*
X17976006Y-22432716D01*
X17971226Y-22456749D01*
X17971226Y-22481253D01*
X17976007Y-22505286D01*
X17985383Y-22527923D01*
X17995645Y-22547123D01*
X17999197Y-22558830D01*
X18001000Y-22577138D01*
X18001000Y-23000862D01*
X17999197Y-23019170D01*
X17995646Y-23030875D01*
X17989879Y-23041665D01*
X17982119Y-23051119D01*
X17972663Y-23058880D01*
X17963532Y-23063761D01*
X17943158Y-23077375D01*
X17925831Y-23094702D01*
X17912217Y-23115076D01*
X17902840Y-23137715D01*
X17898060Y-23161749D01*
X17898060Y-23186253D01*
X17902841Y-23210286D01*
X17912218Y-23232925D01*
X17925832Y-23253299D01*
X17943159Y-23270626D01*
X17963532Y-23284239D01*
X17972663Y-23289120D01*
X17982119Y-23296881D01*
X17989879Y-23306335D01*
X17995646Y-23317125D01*
X17999197Y-23328830D01*
X18001000Y-23347138D01*
X18001000Y-23770862D01*
X17999197Y-23789170D01*
X17995645Y-23800877D01*
X17985383Y-23820077D01*
X17976006Y-23842716D01*
X17971226Y-23866749D01*
X17971226Y-23891253D01*
X17976007Y-23915286D01*
X17985383Y-23937923D01*
X17995645Y-23957123D01*
X17999197Y-23968830D01*
X18001000Y-23987138D01*
X18001000Y-24227170D01*
X18003402Y-24251556D01*
X18010515Y-24275005D01*
X18022066Y-24296616D01*
X18037611Y-24315558D01*
X18056553Y-24331103D01*
X18078164Y-24342654D01*
X18101613Y-24349767D01*
X18125999Y-24352169D01*
X18150385Y-24349767D01*
X18173834Y-24342654D01*
X18195445Y-24331103D01*
X18222623Y-24306470D01*
X18237877Y-24287883D01*
X18247335Y-24280121D01*
X18258124Y-24274354D01*
X18265506Y-24272115D01*
X18288144Y-24262737D01*
X18308518Y-24249122D01*
X18325845Y-24231795D01*
X18339458Y-24211420D01*
X18348835Y-24188781D01*
X18353614Y-24164748D01*
X18353614Y-24140244D01*
X18348833Y-24116210D01*
X18339455Y-24093572D01*
X18325840Y-24073198D01*
X18308513Y-24055871D01*
X18288138Y-24042258D01*
X18279000Y-24038473D01*
X18279000Y-22525500D01*
X19521000Y-22525500D01*
X19521000Y-24027500D01*
X18710783Y-24027500D01*
X18686397Y-24029902D01*
X18662948Y-24037015D01*
X18641337Y-24048566D01*
X18622395Y-24064111D01*
X18606850Y-24083053D01*
X18595299Y-24104664D01*
X18588186Y-24128113D01*
X18585784Y-24152499D01*
X18588186Y-24176885D01*
X18595299Y-24200334D01*
X18606850Y-24221945D01*
X18622395Y-24240887D01*
X18641337Y-24256432D01*
X18674494Y-24272115D01*
X18681876Y-24274354D01*
X18692665Y-24280121D01*
X18702119Y-24287881D01*
X18709879Y-24297335D01*
X18715646Y-24308125D01*
X18719197Y-24319830D01*
X18721000Y-24338138D01*
X18721000Y-24761862D01*
X18719197Y-24780170D01*
X18715645Y-24791877D01*
X18705383Y-24811077D01*
X18696006Y-24833716D01*
X18691226Y-24857749D01*
X18691226Y-24882253D01*
X18696007Y-24906286D01*
X18705383Y-24928923D01*
X18715645Y-24948123D01*
X18719197Y-24959830D01*
X18721000Y-24978138D01*
X18721000Y-25401862D01*
X18719197Y-25420170D01*
X18715646Y-25431875D01*
X18709879Y-25442665D01*
X18702119Y-25452119D01*
X18692665Y-25459879D01*
X18681875Y-25465646D01*
X18670170Y-25469197D01*
X18651862Y-25471000D01*
X18487433Y-25471000D01*
X18463047Y-25473402D01*
X18439598Y-25480515D01*
X18417987Y-25492066D01*
X18399045Y-25507611D01*
X18383500Y-25526553D01*
X18371949Y-25548164D01*
X18364836Y-25571613D01*
X18362434Y-25595999D01*
X18364836Y-25620385D01*
X18371949Y-25643834D01*
X18383500Y-25665445D01*
X18399045Y-25684387D01*
X18417987Y-25699932D01*
X18428494Y-25706230D01*
X18430949Y-25707542D01*
X18430950Y-25707543D01*
X18430952Y-25707544D01*
X18484396Y-25751404D01*
X18511842Y-25784849D01*
X18528258Y-25804851D01*
X18560850Y-25865828D01*
X18560851Y-25865831D01*
X18580922Y-25931992D01*
X18587698Y-26000800D01*
X18580922Y-26069608D01*
X18563166Y-26128138D01*
X18560850Y-26135772D01*
X18528258Y-26196749D01*
X18512707Y-26215697D01*
X18484396Y-26250196D01*
X18449897Y-26278507D01*
X18430949Y-26294058D01*
X18369972Y-26326650D01*
X18369969Y-26326651D01*
X18303809Y-26346722D01*
X18252244Y-26351800D01*
X18067756Y-26351800D01*
X18016191Y-26346722D01*
X17950031Y-26326651D01*
X17950028Y-26326650D01*
X17889051Y-26294058D01*
X17870103Y-26278507D01*
X17835604Y-26250196D01*
X17807293Y-26215697D01*
X17791742Y-26196749D01*
X17759150Y-26135772D01*
X17756834Y-26128138D01*
X17739078Y-26069608D01*
X17732302Y-26000800D01*
X17739078Y-25931992D01*
X17759149Y-25865831D01*
X17759150Y-25865828D01*
X17791742Y-25804851D01*
X17808158Y-25784849D01*
X17835604Y-25751404D01*
X17873698Y-25720142D01*
X17889051Y-25707542D01*
X17889054Y-25707541D01*
X17893474Y-25703913D01*
X17904380Y-25696626D01*
X17921707Y-25679299D01*
X17935321Y-25658925D01*
X17944699Y-25636286D01*
X17949480Y-25612253D01*
X17949480Y-25587749D01*
X17944700Y-25563716D01*
X17935323Y-25541077D01*
X17921710Y-25520702D01*
X17913554Y-25512546D01*
X17992712Y-25512546D01*
X17992712Y-25537050D01*
X17997491Y-25561083D01*
X18006868Y-25583722D01*
X18020481Y-25604097D01*
X18037808Y-25621424D01*
X18058182Y-25635039D01*
X18080821Y-25644417D01*
X18104854Y-25649198D01*
X18117109Y-25649800D01*
X18135824Y-25649800D01*
X18160210Y-25647398D01*
X18183659Y-25640285D01*
X18205270Y-25628734D01*
X18224212Y-25613189D01*
X18239757Y-25594247D01*
X18251308Y-25572636D01*
X18258421Y-25549187D01*
X18260823Y-25524801D01*
X18258421Y-25500415D01*
X18251308Y-25476966D01*
X18239757Y-25455355D01*
X18232448Y-25445501D01*
X18223641Y-25434770D01*
X18221330Y-25431311D01*
X18204005Y-25413982D01*
X18183631Y-25400367D01*
X18160993Y-25390988D01*
X18136960Y-25386206D01*
X18112456Y-25386204D01*
X18088422Y-25390983D01*
X18065783Y-25400358D01*
X18045408Y-25413971D01*
X18028079Y-25431296D01*
X18014461Y-25451675D01*
X18006871Y-25465874D01*
X17997493Y-25488513D01*
X17992712Y-25512546D01*
X17913554Y-25512546D01*
X17904383Y-25503375D01*
X17884009Y-25489761D01*
X17861370Y-25480383D01*
X17837337Y-25475602D01*
X17825083Y-25475000D01*
X17635641Y-25475000D01*
X17625620Y-25474013D01*
X17621885Y-25472880D01*
X17618447Y-25471042D01*
X17615432Y-25468568D01*
X17612958Y-25465553D01*
X17611120Y-25462115D01*
X17609987Y-25458380D01*
X17609000Y-25448359D01*
X17609000Y-25169641D01*
X17609988Y-25159615D01*
X17611302Y-25155282D01*
X17616082Y-25131249D01*
X17616082Y-25106745D01*
X17611302Y-25082718D01*
X17609988Y-25078385D01*
X17609000Y-25068359D01*
X17609000Y-24789641D01*
X17609987Y-24779620D01*
X17611120Y-24775885D01*
X17612958Y-24772447D01*
X17615432Y-24769432D01*
X17618447Y-24766958D01*
X17621885Y-24765120D01*
X17625620Y-24763987D01*
X17635641Y-24763000D01*
X17984359Y-24763000D01*
X17994380Y-24763987D01*
X17998115Y-24765120D01*
X18001553Y-24766958D01*
X18013335Y-24776627D01*
X18014705Y-24777997D01*
X18035079Y-24791611D01*
X18057718Y-24800987D01*
X18081752Y-24805767D01*
X18106256Y-24805767D01*
X18130289Y-24800986D01*
X18152928Y-24791608D01*
X18173302Y-24777994D01*
X18190628Y-24760666D01*
X18204242Y-24740292D01*
X18213618Y-24717653D01*
X18219000Y-24681370D01*
X18219000Y-24521830D01*
X18216598Y-24497444D01*
X18209485Y-24473995D01*
X18197934Y-24452384D01*
X18182389Y-24433442D01*
X18163447Y-24417897D01*
X18141836Y-24406346D01*
X18118387Y-24399233D01*
X18094001Y-24396831D01*
X18069615Y-24399233D01*
X18046166Y-24406346D01*
X18024555Y-24417897D01*
X17997377Y-24442530D01*
X17982123Y-24461117D01*
X17972665Y-24468879D01*
X17961875Y-24474646D01*
X17950170Y-24478197D01*
X17931862Y-24480000D01*
X17568138Y-24480000D01*
X17549830Y-24478197D01*
X17538125Y-24474646D01*
X17527335Y-24468879D01*
X17517881Y-24461119D01*
X17510121Y-24451665D01*
X17504354Y-24440875D01*
X17500803Y-24429170D01*
X17499000Y-24410862D01*
X17499000Y-23987138D01*
X17500803Y-23968830D01*
X17504355Y-23957123D01*
X17514617Y-23937923D01*
X17523994Y-23915284D01*
X17528774Y-23891251D01*
X17528774Y-23866747D01*
X17523993Y-23842714D01*
X17514617Y-23820077D01*
X17504355Y-23800877D01*
X17500803Y-23789170D01*
X17499000Y-23770862D01*
X17499000Y-23347138D01*
X17500803Y-23328830D01*
X17504354Y-23317125D01*
X17510121Y-23306335D01*
X17517881Y-23296881D01*
X17527337Y-23289120D01*
X17536468Y-23284239D01*
X17556842Y-23270625D01*
X17574169Y-23253298D01*
X17587783Y-23232924D01*
X17597160Y-23210285D01*
X17601940Y-23186251D01*
X17601940Y-23161747D01*
X17597159Y-23137714D01*
X17587782Y-23115075D01*
X17574168Y-23094701D01*
X17556841Y-23077374D01*
X17536468Y-23063761D01*
X17527337Y-23058880D01*
X17517881Y-23051119D01*
X17510121Y-23041665D01*
X17504354Y-23030875D01*
X17500803Y-23019170D01*
X17499000Y-23000862D01*
X17499000Y-22577138D01*
X17500803Y-22558830D01*
X17504355Y-22547123D01*
X17514617Y-22527923D01*
X17523994Y-22505284D01*
X17528774Y-22481251D01*
X17528774Y-22456747D01*
X17523993Y-22432714D01*
X17514617Y-22410077D01*
X17504355Y-22390877D01*
X17500803Y-22379170D01*
X17499000Y-22360862D01*
X17499000Y-21937138D01*
X17500803Y-21918830D01*
X17504354Y-21907125D01*
X17510121Y-21896335D01*
X17517881Y-21886881D01*
X17527335Y-21879121D01*
X17538125Y-21873354D01*
X17549830Y-21869803D01*
X17568138Y-21868000D01*
X17931862Y-21868000D01*
X17950170Y-21869803D01*
X17961875Y-21873354D01*
X17972665Y-21879121D01*
X17982119Y-21886881D01*
X17989879Y-21896335D01*
X17997698Y-21910963D01*
X18003764Y-21925608D01*
X18017378Y-21945982D01*
X18034706Y-21963308D01*
X18055081Y-21976921D01*
X18077720Y-21986298D01*
X18101753Y-21991078D01*
X18126257Y-21991077D01*
X18150290Y-21986295D01*
X18172929Y-21976917D01*
X18193303Y-21963303D01*
X18210629Y-21945975D01*
X18224242Y-21925600D01*
X18233619Y-21902961D01*
X18239000Y-21866680D01*
X18239000Y-21837138D01*
X18240803Y-21818830D01*
X18244354Y-21807125D01*
X18250121Y-21796335D01*
X18257881Y-21786881D01*
X18267337Y-21779120D01*
X18276468Y-21774239D01*
X18296842Y-21760625D01*
X18314169Y-21743298D01*
X18327783Y-21722924D01*
X18337160Y-21700285D01*
X18341940Y-21676251D01*
X18341940Y-21651748D01*
X18698060Y-21651748D01*
X18698060Y-21676252D01*
X18702841Y-21700286D01*
X18712218Y-21722924D01*
X18725832Y-21743299D01*
X18743159Y-21760626D01*
X18763533Y-21774239D01*
X18781076Y-21783616D01*
X18803714Y-21792993D01*
X18827748Y-21797774D01*
X18852252Y-21797774D01*
X18876285Y-21792994D01*
X18898924Y-21783616D01*
X18916467Y-21774239D01*
X18936842Y-21760625D01*
X18954169Y-21743298D01*
X18967782Y-21722924D01*
X18977160Y-21700285D01*
X18981940Y-21676252D01*
X18981940Y-21651748D01*
X18977159Y-21627714D01*
X18967782Y-21605076D01*
X18954168Y-21584701D01*
X18936841Y-21567374D01*
X18916467Y-21553761D01*
X18898924Y-21544384D01*
X18876286Y-21535007D01*
X18852252Y-21530226D01*
X18827748Y-21530226D01*
X18803715Y-21535006D01*
X18781076Y-21544384D01*
X18763533Y-21553761D01*
X18743158Y-21567375D01*
X18725831Y-21584702D01*
X18712218Y-21605076D01*
X18702840Y-21627715D01*
X18698060Y-21651748D01*
X18341940Y-21651748D01*
X18341940Y-21651747D01*
X18337159Y-21627714D01*
X18327782Y-21605075D01*
X18314168Y-21584701D01*
X18296841Y-21567374D01*
X18276468Y-21553761D01*
X18267337Y-21548880D01*
X18257881Y-21541119D01*
X18250121Y-21531665D01*
X18244354Y-21520875D01*
X18240803Y-21509170D01*
X18239000Y-21490862D01*
X18239000Y-21127138D01*
X18240803Y-21108830D01*
X18244354Y-21097125D01*
X18250121Y-21086335D01*
X18257882Y-21076879D01*
X18266107Y-21070129D01*
X18283434Y-21052802D01*
X18297048Y-21032428D01*
X18306425Y-21009789D01*
X18311206Y-20985756D01*
X18311206Y-20961251D01*
X18306426Y-20937218D01*
X18297049Y-20914579D01*
X18283435Y-20894205D01*
X18266108Y-20876878D01*
X18245734Y-20863264D01*
X18223095Y-20853887D01*
X18199060Y-20849106D01*
X18189830Y-20848197D01*
X18178124Y-20844646D01*
X18164924Y-20837590D01*
X18142285Y-20828213D01*
X18118252Y-20823432D01*
X18093748Y-20823432D01*
X18069715Y-20828212D01*
X18047076Y-20837589D01*
X18026701Y-20851203D01*
X18009374Y-20868530D01*
X17995760Y-20888904D01*
X17986383Y-20911543D01*
X17981602Y-20935576D01*
X17981000Y-20947829D01*
X17981000Y-20968359D01*
X17980012Y-20978385D01*
X17978698Y-20982718D01*
X17973918Y-21006751D01*
X17973918Y-21031255D01*
X17978698Y-21055282D01*
X17980012Y-21059615D01*
X17981000Y-21069641D01*
X17981000Y-21348359D01*
X17980013Y-21358380D01*
X17978880Y-21362115D01*
X17977042Y-21365553D01*
X17974568Y-21368568D01*
X17971553Y-21371042D01*
X17968115Y-21372880D01*
X17964380Y-21374013D01*
X17954359Y-21375000D01*
X17605641Y-21375000D01*
X17595620Y-21374013D01*
X17591885Y-21372880D01*
X17588447Y-21371042D01*
X17585432Y-21368568D01*
X17582958Y-21365553D01*
X17581120Y-21362115D01*
X17579987Y-21358380D01*
X17579000Y-21348359D01*
X17579000Y-21069641D01*
X17579988Y-21059615D01*
X17581302Y-21055282D01*
X17586082Y-21031249D01*
X17586082Y-21006745D01*
X17581302Y-20982718D01*
X17579988Y-20978385D01*
X17579000Y-20968359D01*
X17579000Y-20689641D01*
X17579987Y-20679620D01*
X17581120Y-20675885D01*
X17582958Y-20672447D01*
X17585432Y-20669432D01*
X17588447Y-20666958D01*
X17591885Y-20665120D01*
X17595620Y-20663987D01*
X17605641Y-20663000D01*
X17954359Y-20663000D01*
X17964380Y-20663987D01*
X17977719Y-20668033D01*
X18001753Y-20672812D01*
X18026257Y-20672812D01*
X18050290Y-20668030D01*
X18072929Y-20658652D01*
X18093303Y-20645038D01*
X18110629Y-20627711D01*
X18124242Y-20607336D01*
X18133619Y-20584697D01*
X18139000Y-20548415D01*
X18139000Y-20417138D01*
X18140803Y-20398830D01*
X18144354Y-20387125D01*
X18150121Y-20376335D01*
X18157881Y-20366881D01*
X18167337Y-20359120D01*
X18176468Y-20354239D01*
X18196842Y-20340625D01*
X18214169Y-20323298D01*
X18227783Y-20302924D01*
X18237160Y-20280285D01*
X18241940Y-20256251D01*
X18241940Y-20231748D01*
X18598060Y-20231748D01*
X18598060Y-20256252D01*
X18602841Y-20280286D01*
X18612218Y-20302924D01*
X18625832Y-20323299D01*
X18643159Y-20340626D01*
X18663533Y-20354239D01*
X18681076Y-20363616D01*
X18703714Y-20372993D01*
X18727748Y-20377774D01*
X18752252Y-20377774D01*
X18776285Y-20372994D01*
X18798924Y-20363616D01*
X18816467Y-20354239D01*
X18836842Y-20340625D01*
X18854169Y-20323298D01*
X18867782Y-20302924D01*
X18877160Y-20280285D01*
X18881940Y-20256252D01*
X18881940Y-20231748D01*
X18877159Y-20207714D01*
X18867782Y-20185076D01*
X18854168Y-20164701D01*
X18836841Y-20147374D01*
X18816467Y-20133761D01*
X18798924Y-20124384D01*
X18776286Y-20115007D01*
X18752252Y-20110226D01*
X18727748Y-20110226D01*
X18703715Y-20115006D01*
X18681076Y-20124384D01*
X18663533Y-20133761D01*
X18643158Y-20147375D01*
X18625831Y-20164702D01*
X18612218Y-20185076D01*
X18602840Y-20207715D01*
X18598060Y-20231748D01*
X18241940Y-20231748D01*
X18241940Y-20231747D01*
X18237159Y-20207714D01*
X18227782Y-20185075D01*
X18214168Y-20164701D01*
X18196841Y-20147374D01*
X18176468Y-20133761D01*
X18167337Y-20128880D01*
X18157881Y-20121119D01*
X18150121Y-20111665D01*
X18144354Y-20100875D01*
X18140803Y-20089170D01*
X18139000Y-20070862D01*
X18139000Y-19864743D01*
X18136598Y-19840357D01*
X18129485Y-19816908D01*
X18117934Y-19795297D01*
X18102389Y-19776355D01*
X18083447Y-19760810D01*
X18061836Y-19749259D01*
X18038387Y-19742146D01*
X18014001Y-19739744D01*
X17989615Y-19742146D01*
X17966166Y-19749259D01*
X17959216Y-19752546D01*
X17954380Y-19754013D01*
X17944359Y-19755000D01*
X17595641Y-19755000D01*
X17585620Y-19754013D01*
X17581885Y-19752880D01*
X17578447Y-19751042D01*
X17575432Y-19748568D01*
X17572958Y-19745553D01*
X17571120Y-19742115D01*
X17569987Y-19738380D01*
X17569000Y-19728359D01*
X17569000Y-19522040D01*
X17971000Y-19522040D01*
X17971000Y-19545960D01*
X17973402Y-19570346D01*
X17980515Y-19593795D01*
X17992066Y-19615406D01*
X18007611Y-19634348D01*
X18026553Y-19649893D01*
X18048164Y-19661444D01*
X18071613Y-19668557D01*
X18095999Y-19670959D01*
X18120385Y-19668557D01*
X18143834Y-19661444D01*
X18156050Y-19654123D01*
X18156478Y-19654924D01*
X18176468Y-19644239D01*
X18196842Y-19630625D01*
X18214169Y-19613298D01*
X18227783Y-19592924D01*
X18237160Y-19570285D01*
X18241940Y-19546251D01*
X18241940Y-19521748D01*
X18598060Y-19521748D01*
X18598060Y-19546252D01*
X18602841Y-19570286D01*
X18612218Y-19592924D01*
X18625832Y-19613299D01*
X18643159Y-19630626D01*
X18663533Y-19644239D01*
X18681076Y-19653616D01*
X18703714Y-19662993D01*
X18727748Y-19667774D01*
X18752252Y-19667774D01*
X18776285Y-19662994D01*
X18798924Y-19653616D01*
X18816467Y-19644239D01*
X18836842Y-19630625D01*
X18854169Y-19613298D01*
X18867782Y-19592924D01*
X18877160Y-19570285D01*
X18881940Y-19546252D01*
X18881940Y-19521748D01*
X18877159Y-19497714D01*
X18867782Y-19475076D01*
X18854168Y-19454701D01*
X18836841Y-19437374D01*
X18816467Y-19423761D01*
X18798924Y-19414384D01*
X18776286Y-19405007D01*
X18752252Y-19400226D01*
X18727748Y-19400226D01*
X18703715Y-19405006D01*
X18681076Y-19414384D01*
X18663533Y-19423761D01*
X18643158Y-19437375D01*
X18625831Y-19454702D01*
X18612218Y-19475076D01*
X18602840Y-19497715D01*
X18598060Y-19521748D01*
X18241940Y-19521748D01*
X18241940Y-19521747D01*
X18237159Y-19497714D01*
X18227782Y-19475075D01*
X18214168Y-19454701D01*
X18196841Y-19437374D01*
X18176468Y-19423761D01*
X18158238Y-19414017D01*
X18154909Y-19411793D01*
X18132269Y-19402419D01*
X18108235Y-19397641D01*
X18083731Y-19397644D01*
X18059698Y-19402428D01*
X18037061Y-19411808D01*
X18016688Y-19425425D01*
X17999363Y-19442754D01*
X17985752Y-19463130D01*
X17976378Y-19485770D01*
X17971000Y-19522040D01*
X17569000Y-19522040D01*
X17569000Y-19449641D01*
X17569988Y-19439615D01*
X17571302Y-19435282D01*
X17576082Y-19411249D01*
X17576082Y-19386745D01*
X17571302Y-19362718D01*
X17569988Y-19358385D01*
X17569000Y-19348359D01*
X17569000Y-19069641D01*
X17569987Y-19059620D01*
X17571120Y-19055885D01*
X17572958Y-19052447D01*
X17575432Y-19049432D01*
X17578447Y-19046958D01*
X17581885Y-19045120D01*
X17585620Y-19043987D01*
X17595641Y-19043000D01*
X17944359Y-19043000D01*
X17954380Y-19043987D01*
X17958118Y-19045121D01*
X17963684Y-19048096D01*
X17986322Y-19057473D01*
X18010356Y-19062254D01*
X18034860Y-19062254D01*
X18058893Y-19057474D01*
X18081532Y-19048096D01*
X18101906Y-19034483D01*
X18119233Y-19017156D01*
X18132847Y-18996781D01*
X18142223Y-18974147D01*
X18144353Y-18967128D01*
X18150121Y-18956335D01*
X18157881Y-18946881D01*
X18167335Y-18939121D01*
X18181963Y-18931302D01*
X18196608Y-18925236D01*
X18216982Y-18911622D01*
X18234308Y-18894294D01*
X18247921Y-18873919D01*
X18257298Y-18851280D01*
X18262078Y-18827247D01*
X18262077Y-18802743D01*
X18257295Y-18778710D01*
X18247917Y-18756071D01*
X18234303Y-18735697D01*
X18216975Y-18718371D01*
X18196600Y-18704758D01*
X18173961Y-18695381D01*
X18137680Y-18690000D01*
X17899000Y-18690000D01*
X17899000Y-18314999D01*
X17896598Y-18290613D01*
X17894000Y-18282048D01*
X17894000Y-17818000D01*
X18526000Y-17818000D01*
X18526000Y-18282048D01*
X18526000Y-18282048D01*
G37*
G36*
X19573809Y-25654878D02*
G01*
X19639969Y-25674949D01*
X19639972Y-25674950D01*
X19700949Y-25707542D01*
X19719897Y-25723093D01*
X19754396Y-25751404D01*
X19781842Y-25784849D01*
X19798258Y-25804851D01*
X19830850Y-25865828D01*
X19830851Y-25865831D01*
X19850922Y-25931992D01*
X19857698Y-26000800D01*
X19850922Y-26069608D01*
X19833166Y-26128138D01*
X19830850Y-26135772D01*
X19798258Y-26196749D01*
X19782707Y-26215697D01*
X19754396Y-26250196D01*
X19719897Y-26278507D01*
X19700949Y-26294058D01*
X19639972Y-26326650D01*
X19639969Y-26326651D01*
X19573809Y-26346722D01*
X19522244Y-26351800D01*
X19337756Y-26351800D01*
X19286191Y-26346722D01*
X19220031Y-26326651D01*
X19220028Y-26326650D01*
X19159051Y-26294058D01*
X19140103Y-26278507D01*
X19105604Y-26250196D01*
X19077293Y-26215697D01*
X19061742Y-26196749D01*
X19029150Y-26135772D01*
X19026834Y-26128138D01*
X19009078Y-26069608D01*
X19002302Y-26000800D01*
X19009078Y-25931992D01*
X19029149Y-25865831D01*
X19029150Y-25865828D01*
X19061742Y-25804851D01*
X19078158Y-25784849D01*
X19105604Y-25751404D01*
X19140103Y-25723093D01*
X19159051Y-25707542D01*
X19220028Y-25674950D01*
X19220031Y-25674949D01*
X19286191Y-25654878D01*
X19337756Y-25649800D01*
X19522244Y-25649800D01*
X19573809Y-25654878D01*
X19573809Y-25654878D01*
G37*
G36*
X28129461Y-25202881D02*
G01*
X28146184Y-25209808D01*
X28147844Y-25210496D01*
X28164379Y-25221544D01*
X28164381Y-25221546D01*
X28164384Y-25221548D01*
X28178452Y-25235616D01*
X28178454Y-25235619D01*
X28178456Y-25235621D01*
X28188713Y-25250972D01*
X28189505Y-25252158D01*
X28190236Y-25253923D01*
X28197119Y-25270539D01*
X28201000Y-25290051D01*
X28201000Y-25309949D01*
X28199200Y-25319000D01*
X28197119Y-25329461D01*
X28195656Y-25332994D01*
X28189504Y-25347844D01*
X28178456Y-25364379D01*
X28178454Y-25364381D01*
X28178452Y-25364384D01*
X28164384Y-25378452D01*
X28164381Y-25378454D01*
X28164379Y-25378456D01*
X28147844Y-25389504D01*
X28147843Y-25389505D01*
X28147842Y-25389505D01*
X28138132Y-25393527D01*
X28129461Y-25397119D01*
X28109949Y-25401000D01*
X28090051Y-25401000D01*
X28070539Y-25397119D01*
X28061868Y-25393527D01*
X28052158Y-25389505D01*
X28052157Y-25389505D01*
X28052156Y-25389504D01*
X28035621Y-25378456D01*
X28035619Y-25378454D01*
X28035616Y-25378452D01*
X28021548Y-25364384D01*
X28021546Y-25364381D01*
X28021544Y-25364379D01*
X28010496Y-25347844D01*
X28004345Y-25332994D01*
X28002881Y-25329461D01*
X28000800Y-25319000D01*
X27999000Y-25309949D01*
X27999000Y-25290051D01*
X28002881Y-25270539D01*
X28009764Y-25253923D01*
X28010495Y-25252158D01*
X28011287Y-25250972D01*
X28021544Y-25235621D01*
X28021546Y-25235619D01*
X28021548Y-25235616D01*
X28035616Y-25221548D01*
X28035619Y-25221546D01*
X28035621Y-25221544D01*
X28052156Y-25210496D01*
X28053817Y-25209808D01*
X28070539Y-25202881D01*
X28090051Y-25199000D01*
X28109949Y-25199000D01*
X28129461Y-25202881D01*
X28129461Y-25202881D01*
G37*
G36*
X19519999Y-24488999D02*
G01*
X19520001Y-24489001D01*
X19520605Y-24495137D01*
X19520605Y-24512857D01*
X19520310Y-24515852D01*
X19520310Y-24540356D01*
X19525090Y-24564390D01*
X19534467Y-24587028D01*
X19548080Y-24607403D01*
X19565407Y-24624730D01*
X19585781Y-24638344D01*
X19608420Y-24647722D01*
X19632453Y-24652503D01*
X19656957Y-24652503D01*
X19680991Y-24647723D01*
X19703629Y-24638346D01*
X19724004Y-24624733D01*
X19733095Y-24616494D01*
X19770000Y-24579589D01*
X19806905Y-24616494D01*
X19825847Y-24632039D01*
X19847458Y-24643590D01*
X19870907Y-24650703D01*
X19895293Y-24653105D01*
X19919679Y-24650703D01*
X19943128Y-24643590D01*
X19964739Y-24632039D01*
X19983681Y-24616494D01*
X19999226Y-24597552D01*
X20010777Y-24575941D01*
X20017890Y-24552492D01*
X20020292Y-24528106D01*
X20019690Y-24515852D01*
X20019395Y-24512857D01*
X20019395Y-24495137D01*
X20019999Y-24489001D01*
X20020001Y-24488999D01*
X20026137Y-24488395D01*
X20373863Y-24488395D01*
X20379999Y-24488999D01*
X20380001Y-24489001D01*
X20380605Y-24495137D01*
X20380605Y-24692863D01*
X20380001Y-24698999D01*
X20379999Y-24699001D01*
X20373863Y-24699605D01*
X20206143Y-24699605D01*
X20203148Y-24699310D01*
X20178644Y-24699310D01*
X20154610Y-24704090D01*
X20131972Y-24713467D01*
X20111597Y-24727080D01*
X20094270Y-24744407D01*
X20080656Y-24764781D01*
X20071278Y-24787420D01*
X20066497Y-24811453D01*
X20066497Y-24835957D01*
X20071277Y-24859991D01*
X20080654Y-24882629D01*
X20094267Y-24903004D01*
X20102506Y-24912095D01*
X20109411Y-24919000D01*
X20102506Y-24925905D01*
X20086961Y-24944847D01*
X20075410Y-24966458D01*
X20068297Y-24989907D01*
X20065895Y-25014293D01*
X20068297Y-25038679D01*
X20075410Y-25062128D01*
X20086961Y-25083739D01*
X20102506Y-25102681D01*
X20121448Y-25118226D01*
X20143059Y-25129777D01*
X20166508Y-25136890D01*
X20190894Y-25139292D01*
X20203148Y-25138690D01*
X20206143Y-25138395D01*
X20373863Y-25138395D01*
X20379999Y-25138999D01*
X20380001Y-25139001D01*
X20380605Y-25145137D01*
X20380605Y-25342863D01*
X20380001Y-25348999D01*
X20379999Y-25349001D01*
X20373863Y-25349605D01*
X20026137Y-25349605D01*
X20020001Y-25349001D01*
X20019999Y-25348999D01*
X20019395Y-25342863D01*
X20019395Y-25325143D01*
X20019690Y-25322148D01*
X20019690Y-25297644D01*
X20014910Y-25273610D01*
X20005533Y-25250972D01*
X19991920Y-25230597D01*
X19974593Y-25213270D01*
X19954219Y-25199656D01*
X19931580Y-25190278D01*
X19907547Y-25185497D01*
X19883043Y-25185497D01*
X19859009Y-25190277D01*
X19836371Y-25199654D01*
X19815996Y-25213267D01*
X19806905Y-25221506D01*
X19770000Y-25258411D01*
X19733095Y-25221506D01*
X19714153Y-25205961D01*
X19692542Y-25194410D01*
X19669093Y-25187297D01*
X19644707Y-25184895D01*
X19620321Y-25187297D01*
X19596872Y-25194410D01*
X19575261Y-25205961D01*
X19556319Y-25221506D01*
X19540774Y-25240448D01*
X19529223Y-25262059D01*
X19522110Y-25285508D01*
X19519708Y-25309894D01*
X19520310Y-25322148D01*
X19520605Y-25325143D01*
X19520605Y-25342863D01*
X19520001Y-25348999D01*
X19519999Y-25349001D01*
X19513863Y-25349605D01*
X19166137Y-25349605D01*
X19160001Y-25349001D01*
X19159999Y-25348999D01*
X19159395Y-25342863D01*
X19159395Y-25145137D01*
X19159999Y-25139001D01*
X19160001Y-25138999D01*
X19166137Y-25138395D01*
X19333857Y-25138395D01*
X19336852Y-25138690D01*
X19361356Y-25138690D01*
X19385390Y-25133910D01*
X19408028Y-25124533D01*
X19428403Y-25110920D01*
X19445730Y-25093593D01*
X19459344Y-25073219D01*
X19468722Y-25050580D01*
X19473503Y-25026547D01*
X19473503Y-25002043D01*
X19468723Y-24978009D01*
X19459346Y-24955371D01*
X19445733Y-24934996D01*
X19437494Y-24925905D01*
X19430589Y-24919000D01*
X19437494Y-24912095D01*
X19453039Y-24893153D01*
X19464590Y-24871542D01*
X19471703Y-24848093D01*
X19474105Y-24823707D01*
X19471703Y-24799321D01*
X19464590Y-24775872D01*
X19453039Y-24754261D01*
X19437494Y-24735319D01*
X19418552Y-24719774D01*
X19396941Y-24708223D01*
X19373492Y-24701110D01*
X19349106Y-24698708D01*
X19336852Y-24699310D01*
X19333857Y-24699605D01*
X19166137Y-24699605D01*
X19160001Y-24699001D01*
X19159999Y-24698999D01*
X19159395Y-24692863D01*
X19159395Y-24495137D01*
X19159999Y-24489001D01*
X19160001Y-24488999D01*
X19166137Y-24488395D01*
X19513863Y-24488395D01*
X19519999Y-24488999D01*
X19519999Y-24488999D01*
G37*
G36*
X42551000Y-24861000D02*
G01*
X40949000Y-24861000D01*
X40949000Y-24059000D01*
X42551000Y-24059000D01*
X42551000Y-24861000D01*
X42551000Y-24861000D01*
G37*
G36*
X22810170Y-24215803D02*
G01*
X22821877Y-24219355D01*
X22841077Y-24229617D01*
X22863716Y-24238994D01*
X22887749Y-24243774D01*
X22912253Y-24243774D01*
X22936286Y-24238993D01*
X22958923Y-24229617D01*
X22978123Y-24219355D01*
X22989830Y-24215803D01*
X23008138Y-24214000D01*
X23431862Y-24214000D01*
X23450170Y-24215803D01*
X23461875Y-24219354D01*
X23472665Y-24225121D01*
X23482119Y-24232881D01*
X23489879Y-24242335D01*
X23495646Y-24253125D01*
X23499197Y-24264830D01*
X23501000Y-24283138D01*
X23501000Y-24646862D01*
X23499197Y-24665170D01*
X23495646Y-24676875D01*
X23489879Y-24687665D01*
X23482119Y-24697119D01*
X23472665Y-24704879D01*
X23461875Y-24710646D01*
X23450170Y-24714197D01*
X23431862Y-24716000D01*
X23008138Y-24716000D01*
X22989830Y-24714197D01*
X22978123Y-24710645D01*
X22958923Y-24700383D01*
X22936284Y-24691006D01*
X22912251Y-24686226D01*
X22887747Y-24686226D01*
X22863714Y-24691007D01*
X22841077Y-24700383D01*
X22821877Y-24710645D01*
X22810170Y-24714197D01*
X22791862Y-24716000D01*
X22368138Y-24716000D01*
X22349830Y-24714197D01*
X22338125Y-24710646D01*
X22327335Y-24704879D01*
X22317881Y-24697119D01*
X22310121Y-24687665D01*
X22304354Y-24676875D01*
X22300803Y-24665170D01*
X22299000Y-24646862D01*
X22299000Y-24283138D01*
X22300803Y-24264830D01*
X22304354Y-24253125D01*
X22310121Y-24242335D01*
X22317881Y-24232881D01*
X22327335Y-24225121D01*
X22338125Y-24219354D01*
X22349830Y-24215803D01*
X22368138Y-24214000D01*
X22791862Y-24214000D01*
X22810170Y-24215803D01*
X22810170Y-24215803D01*
G37*
G36*
X21350170Y-24209803D02*
G01*
X21361877Y-24213355D01*
X21381077Y-24223617D01*
X21403716Y-24232994D01*
X21427749Y-24237774D01*
X21452253Y-24237774D01*
X21476286Y-24232993D01*
X21498923Y-24223617D01*
X21518123Y-24213355D01*
X21529830Y-24209803D01*
X21548138Y-24208000D01*
X21971862Y-24208000D01*
X21990170Y-24209803D01*
X22001875Y-24213354D01*
X22012665Y-24219121D01*
X22022119Y-24226881D01*
X22029879Y-24236335D01*
X22035646Y-24247125D01*
X22039197Y-24258830D01*
X22041000Y-24277138D01*
X22041000Y-24640862D01*
X22039197Y-24659170D01*
X22035646Y-24670875D01*
X22029879Y-24681665D01*
X22022119Y-24691119D01*
X22012665Y-24698879D01*
X22001875Y-24704646D01*
X21990170Y-24708197D01*
X21971862Y-24710000D01*
X21548138Y-24710000D01*
X21529830Y-24708197D01*
X21518123Y-24704645D01*
X21498923Y-24694383D01*
X21476284Y-24685006D01*
X21452251Y-24680226D01*
X21427747Y-24680226D01*
X21403714Y-24685007D01*
X21381077Y-24694383D01*
X21361877Y-24704645D01*
X21350170Y-24708197D01*
X21331862Y-24710000D01*
X20908138Y-24710000D01*
X20889830Y-24708197D01*
X20878125Y-24704646D01*
X20867335Y-24698879D01*
X20857881Y-24691119D01*
X20850121Y-24681665D01*
X20844354Y-24670875D01*
X20840803Y-24659170D01*
X20839000Y-24640862D01*
X20839000Y-24277138D01*
X20840803Y-24258830D01*
X20844354Y-24247125D01*
X20850121Y-24236335D01*
X20857881Y-24226881D01*
X20867335Y-24219121D01*
X20878125Y-24213354D01*
X20889830Y-24209803D01*
X20908138Y-24208000D01*
X21331862Y-24208000D01*
X21350170Y-24209803D01*
X21350170Y-24209803D01*
G37*
G36*
X43689890Y-23084017D02*
G01*
X43799601Y-23129461D01*
X43808364Y-23133091D01*
X43914988Y-23204335D01*
X44005665Y-23295012D01*
X44072965Y-23395733D01*
X44076910Y-23401638D01*
X44125983Y-23520110D01*
X44151000Y-23645881D01*
X44151000Y-23774119D01*
X44125983Y-23899890D01*
X44096671Y-23970656D01*
X44076909Y-24018364D01*
X44005665Y-24124988D01*
X43914988Y-24215665D01*
X43808364Y-24286909D01*
X43808363Y-24286910D01*
X43808362Y-24286910D01*
X43689890Y-24335983D01*
X43564119Y-24361000D01*
X43435881Y-24361000D01*
X43310110Y-24335983D01*
X43191638Y-24286910D01*
X43191637Y-24286910D01*
X43191636Y-24286909D01*
X43085012Y-24215665D01*
X42994335Y-24124988D01*
X42923091Y-24018364D01*
X42903330Y-23970656D01*
X42874017Y-23899890D01*
X42849000Y-23774119D01*
X42849000Y-23645881D01*
X42874017Y-23520110D01*
X42923090Y-23401638D01*
X42927036Y-23395733D01*
X42994335Y-23295012D01*
X43085012Y-23204335D01*
X43191636Y-23133091D01*
X43200400Y-23129461D01*
X43310110Y-23084017D01*
X43435881Y-23059000D01*
X43564119Y-23059000D01*
X43689890Y-23084017D01*
X43689890Y-23084017D01*
G37*
G36*
X26864380Y-23559987D02*
G01*
X26868115Y-23561120D01*
X26871553Y-23562958D01*
X26874568Y-23565432D01*
X26877042Y-23568447D01*
X26878880Y-23571885D01*
X26880013Y-23575620D01*
X26881000Y-23585641D01*
X26881000Y-23864359D01*
X26880012Y-23874385D01*
X26878698Y-23878718D01*
X26873918Y-23902751D01*
X26873918Y-23927255D01*
X26878698Y-23951282D01*
X26880012Y-23955615D01*
X26881000Y-23965641D01*
X26881000Y-24244359D01*
X26880013Y-24254380D01*
X26878880Y-24258115D01*
X26877042Y-24261553D01*
X26874568Y-24264568D01*
X26871553Y-24267042D01*
X26868115Y-24268880D01*
X26864380Y-24270013D01*
X26854359Y-24271000D01*
X26505641Y-24271000D01*
X26495620Y-24270013D01*
X26491885Y-24268880D01*
X26488447Y-24267042D01*
X26485432Y-24264568D01*
X26482958Y-24261553D01*
X26481120Y-24258115D01*
X26479987Y-24254380D01*
X26479000Y-24244359D01*
X26479000Y-23965641D01*
X26479988Y-23955615D01*
X26481302Y-23951282D01*
X26486082Y-23927249D01*
X26486082Y-23902745D01*
X26481302Y-23878718D01*
X26479988Y-23874385D01*
X26479000Y-23864359D01*
X26479000Y-23585641D01*
X26479987Y-23575620D01*
X26481120Y-23571885D01*
X26482958Y-23568447D01*
X26485432Y-23565432D01*
X26488447Y-23562958D01*
X26491885Y-23561120D01*
X26495620Y-23559987D01*
X26505641Y-23559000D01*
X26854359Y-23559000D01*
X26864380Y-23559987D01*
X26864380Y-23559987D01*
G37*
G36*
X26718842Y-20598932D02*
G01*
X26740453Y-20610483D01*
X26763902Y-20617596D01*
X26776037Y-20619396D01*
X26780170Y-20619803D01*
X26791875Y-20623354D01*
X26802665Y-20629121D01*
X26812119Y-20636881D01*
X26819879Y-20646335D01*
X26825646Y-20657125D01*
X26829197Y-20668830D01*
X26831000Y-20687138D01*
X26831000Y-21110862D01*
X26829197Y-21129170D01*
X26825645Y-21140877D01*
X26815383Y-21160077D01*
X26806006Y-21182716D01*
X26801226Y-21206749D01*
X26801226Y-21231253D01*
X26806007Y-21255286D01*
X26815383Y-21277923D01*
X26825645Y-21297123D01*
X26829197Y-21308830D01*
X26831000Y-21327138D01*
X26831000Y-21750862D01*
X26829197Y-21769170D01*
X26825646Y-21780875D01*
X26819879Y-21791665D01*
X26812119Y-21801119D01*
X26802665Y-21808879D01*
X26791875Y-21814646D01*
X26776257Y-21819384D01*
X26753619Y-21828762D01*
X26733245Y-21842376D01*
X26715918Y-21859703D01*
X26702305Y-21880078D01*
X26692928Y-21902717D01*
X26688148Y-21926750D01*
X26688148Y-21951255D01*
X26692929Y-21975288D01*
X26702307Y-21997926D01*
X26715921Y-22018300D01*
X26733248Y-22035627D01*
X26753623Y-22049240D01*
X26776257Y-22058616D01*
X26791875Y-22063354D01*
X26802665Y-22069121D01*
X26812119Y-22076881D01*
X26819879Y-22086335D01*
X26825646Y-22097125D01*
X26829197Y-22108830D01*
X26831000Y-22127138D01*
X26831000Y-22550862D01*
X26829197Y-22569170D01*
X26825645Y-22580877D01*
X26815383Y-22600077D01*
X26806006Y-22622716D01*
X26801226Y-22646749D01*
X26801226Y-22671253D01*
X26806007Y-22695286D01*
X26815383Y-22717923D01*
X26825645Y-22737123D01*
X26829197Y-22748830D01*
X26831000Y-22767138D01*
X26831000Y-23190862D01*
X26829197Y-23209170D01*
X26825646Y-23220875D01*
X26819879Y-23231665D01*
X26812119Y-23241119D01*
X26802665Y-23248879D01*
X26791875Y-23254646D01*
X26780170Y-23258197D01*
X26761862Y-23260000D01*
X26398138Y-23260000D01*
X26379830Y-23258197D01*
X26368125Y-23254646D01*
X26357335Y-23248879D01*
X26347881Y-23241119D01*
X26340120Y-23231663D01*
X26336238Y-23224401D01*
X26322624Y-23204027D01*
X26305297Y-23186700D01*
X26284923Y-23173086D01*
X26262284Y-23163709D01*
X26238250Y-23158929D01*
X26213746Y-23158929D01*
X26189713Y-23163710D01*
X26167074Y-23173087D01*
X26146700Y-23186701D01*
X26129373Y-23204028D01*
X26115759Y-23224402D01*
X26106382Y-23247041D01*
X26101000Y-23283326D01*
X26101000Y-23531862D01*
X26099197Y-23550170D01*
X26095645Y-23561877D01*
X26085383Y-23581077D01*
X26076006Y-23603716D01*
X26071226Y-23627749D01*
X26071226Y-23652253D01*
X26076007Y-23676286D01*
X26085383Y-23698923D01*
X26095645Y-23718123D01*
X26099197Y-23729830D01*
X26101000Y-23748138D01*
X26101000Y-24171862D01*
X26099197Y-24190170D01*
X26095646Y-24201875D01*
X26089879Y-24212665D01*
X26082119Y-24222119D01*
X26072665Y-24229879D01*
X26061875Y-24235646D01*
X26050170Y-24239197D01*
X26031862Y-24241000D01*
X25668138Y-24241000D01*
X25649830Y-24239197D01*
X25638125Y-24235646D01*
X25627335Y-24229879D01*
X25617881Y-24222119D01*
X25610121Y-24212665D01*
X25604354Y-24201875D01*
X25600803Y-24190170D01*
X25599000Y-24171862D01*
X25599000Y-23748138D01*
X25600803Y-23729830D01*
X25604355Y-23718123D01*
X25614617Y-23698923D01*
X25623994Y-23676284D01*
X25628774Y-23652251D01*
X25628774Y-23627747D01*
X25623993Y-23603714D01*
X25614617Y-23581077D01*
X25604355Y-23561877D01*
X25600803Y-23550170D01*
X25599000Y-23531862D01*
X25599000Y-23108138D01*
X25600803Y-23089830D01*
X25604354Y-23078125D01*
X25610121Y-23067335D01*
X25617881Y-23057881D01*
X25627335Y-23050121D01*
X25638125Y-23044354D01*
X25649830Y-23040803D01*
X25668138Y-23039000D01*
X26031862Y-23039000D01*
X26050170Y-23040803D01*
X26061875Y-23044354D01*
X26072665Y-23050121D01*
X26082119Y-23057881D01*
X26089880Y-23067337D01*
X26093762Y-23074599D01*
X26107376Y-23094973D01*
X26124703Y-23112300D01*
X26145077Y-23125914D01*
X26167716Y-23135291D01*
X26191750Y-23140071D01*
X26216254Y-23140071D01*
X26240287Y-23135290D01*
X26262926Y-23125913D01*
X26283300Y-23112299D01*
X26300627Y-23094972D01*
X26314241Y-23074598D01*
X26323618Y-23051959D01*
X26329000Y-23015674D01*
X26329000Y-22767138D01*
X26330803Y-22748830D01*
X26334355Y-22737123D01*
X26344617Y-22717923D01*
X26353994Y-22695284D01*
X26358774Y-22671251D01*
X26358774Y-22646747D01*
X26353993Y-22622714D01*
X26344617Y-22600077D01*
X26334355Y-22580877D01*
X26330803Y-22569170D01*
X26329000Y-22550862D01*
X26329000Y-22127138D01*
X26330803Y-22108830D01*
X26334354Y-22097125D01*
X26340121Y-22086335D01*
X26347881Y-22076881D01*
X26357335Y-22069121D01*
X26368125Y-22063354D01*
X26383743Y-22058616D01*
X26406381Y-22049238D01*
X26426755Y-22035624D01*
X26444082Y-22018297D01*
X26457695Y-21997922D01*
X26467072Y-21975283D01*
X26471852Y-21951250D01*
X26471852Y-21926745D01*
X26467071Y-21902712D01*
X26457693Y-21880074D01*
X26444079Y-21859700D01*
X26426752Y-21842373D01*
X26406377Y-21828760D01*
X26383743Y-21819384D01*
X26368125Y-21814646D01*
X26357335Y-21808879D01*
X26347881Y-21801119D01*
X26340121Y-21791665D01*
X26334354Y-21780875D01*
X26330803Y-21769170D01*
X26329000Y-21750862D01*
X26329000Y-21327138D01*
X26330803Y-21308830D01*
X26334355Y-21297123D01*
X26344617Y-21277923D01*
X26353994Y-21255284D01*
X26358774Y-21231251D01*
X26358774Y-21206747D01*
X26353993Y-21182714D01*
X26344617Y-21160077D01*
X26334355Y-21140877D01*
X26330803Y-21129170D01*
X26329000Y-21110862D01*
X26329000Y-20687138D01*
X26330803Y-20668830D01*
X26334354Y-20657125D01*
X26340121Y-20646335D01*
X26347881Y-20636881D01*
X26357335Y-20629121D01*
X26368125Y-20623354D01*
X26379830Y-20619803D01*
X26398138Y-20618000D01*
X26641712Y-20618000D01*
X26666098Y-20615598D01*
X26689547Y-20608485D01*
X26711158Y-20596934D01*
X26713783Y-20594780D01*
X26718842Y-20598932D01*
X26718842Y-20598932D01*
G37*
G36*
X24324999Y-23259999D02*
G01*
X24325001Y-23260001D01*
X24325605Y-23266137D01*
X24325605Y-23283857D01*
X24325310Y-23286852D01*
X24325310Y-23311356D01*
X24330090Y-23335390D01*
X24339467Y-23358028D01*
X24353080Y-23378403D01*
X24370407Y-23395730D01*
X24390781Y-23409344D01*
X24413420Y-23418722D01*
X24437453Y-23423503D01*
X24461957Y-23423503D01*
X24485991Y-23418723D01*
X24508629Y-23409346D01*
X24529004Y-23395733D01*
X24538095Y-23387494D01*
X24575000Y-23350589D01*
X24611905Y-23387494D01*
X24630847Y-23403039D01*
X24652458Y-23414590D01*
X24675907Y-23421703D01*
X24700293Y-23424105D01*
X24724679Y-23421703D01*
X24748128Y-23414590D01*
X24769739Y-23403039D01*
X24788681Y-23387494D01*
X24804226Y-23368552D01*
X24815777Y-23346941D01*
X24822890Y-23323492D01*
X24825292Y-23299106D01*
X24824690Y-23286852D01*
X24824395Y-23283857D01*
X24824395Y-23266137D01*
X24824999Y-23260001D01*
X24825001Y-23259999D01*
X24831137Y-23259395D01*
X25178863Y-23259395D01*
X25184999Y-23259999D01*
X25185001Y-23260001D01*
X25185605Y-23266137D01*
X25185605Y-23463863D01*
X25185001Y-23469999D01*
X25184999Y-23470001D01*
X25178863Y-23470605D01*
X25011143Y-23470605D01*
X25008148Y-23470310D01*
X24983644Y-23470310D01*
X24959610Y-23475090D01*
X24936972Y-23484467D01*
X24916597Y-23498080D01*
X24899270Y-23515407D01*
X24885656Y-23535781D01*
X24876278Y-23558420D01*
X24871497Y-23582453D01*
X24871497Y-23606957D01*
X24876277Y-23630991D01*
X24885654Y-23653629D01*
X24899267Y-23674004D01*
X24907506Y-23683095D01*
X24914411Y-23690000D01*
X24907506Y-23696905D01*
X24891961Y-23715847D01*
X24880410Y-23737458D01*
X24873297Y-23760907D01*
X24870895Y-23785293D01*
X24873297Y-23809679D01*
X24880410Y-23833128D01*
X24891961Y-23854739D01*
X24907506Y-23873681D01*
X24926448Y-23889226D01*
X24948059Y-23900777D01*
X24971508Y-23907890D01*
X24995894Y-23910292D01*
X25008148Y-23909690D01*
X25011143Y-23909395D01*
X25178863Y-23909395D01*
X25184999Y-23909999D01*
X25185001Y-23910001D01*
X25185605Y-23916137D01*
X25185605Y-24113863D01*
X25185001Y-24119999D01*
X25184999Y-24120001D01*
X25178863Y-24120605D01*
X24831137Y-24120605D01*
X24825001Y-24120001D01*
X24824999Y-24119999D01*
X24824395Y-24113863D01*
X24824395Y-24096143D01*
X24824690Y-24093148D01*
X24824690Y-24068644D01*
X24819910Y-24044610D01*
X24810533Y-24021972D01*
X24796920Y-24001597D01*
X24779593Y-23984270D01*
X24759219Y-23970656D01*
X24736580Y-23961278D01*
X24712547Y-23956497D01*
X24688043Y-23956497D01*
X24664009Y-23961277D01*
X24641371Y-23970654D01*
X24620996Y-23984267D01*
X24611905Y-23992506D01*
X24575000Y-24029411D01*
X24538095Y-23992506D01*
X24519153Y-23976961D01*
X24497542Y-23965410D01*
X24474093Y-23958297D01*
X24449707Y-23955895D01*
X24425321Y-23958297D01*
X24401872Y-23965410D01*
X24380261Y-23976961D01*
X24361319Y-23992506D01*
X24345774Y-24011448D01*
X24334223Y-24033059D01*
X24327110Y-24056508D01*
X24324708Y-24080894D01*
X24325310Y-24093148D01*
X24325605Y-24096143D01*
X24325605Y-24113863D01*
X24325001Y-24119999D01*
X24324999Y-24120001D01*
X24318863Y-24120605D01*
X23971137Y-24120605D01*
X23965001Y-24120001D01*
X23964999Y-24119999D01*
X23964395Y-24113863D01*
X23964395Y-23916137D01*
X23964999Y-23910001D01*
X23965001Y-23909999D01*
X23971137Y-23909395D01*
X24138857Y-23909395D01*
X24141852Y-23909690D01*
X24166356Y-23909690D01*
X24190390Y-23904910D01*
X24213028Y-23895533D01*
X24233403Y-23881920D01*
X24250730Y-23864593D01*
X24264344Y-23844219D01*
X24273722Y-23821580D01*
X24278503Y-23797547D01*
X24278503Y-23773043D01*
X24273723Y-23749009D01*
X24264346Y-23726371D01*
X24250733Y-23705996D01*
X24242494Y-23696905D01*
X24235589Y-23690000D01*
X24242494Y-23683095D01*
X24258039Y-23664153D01*
X24269590Y-23642542D01*
X24276703Y-23619093D01*
X24279105Y-23594707D01*
X24276703Y-23570321D01*
X24269590Y-23546872D01*
X24258039Y-23525261D01*
X24242494Y-23506319D01*
X24223552Y-23490774D01*
X24201941Y-23479223D01*
X24178492Y-23472110D01*
X24154106Y-23469708D01*
X24141852Y-23470310D01*
X24138857Y-23470605D01*
X23971137Y-23470605D01*
X23965001Y-23470001D01*
X23964999Y-23469999D01*
X23964395Y-23463863D01*
X23964395Y-23266137D01*
X23964999Y-23260001D01*
X23965001Y-23259999D01*
X23971137Y-23259395D01*
X24318863Y-23259395D01*
X24324999Y-23259999D01*
X24324999Y-23259999D01*
G37*
G36*
X23450170Y-21304803D02*
G01*
X23461875Y-21308354D01*
X23472665Y-21314121D01*
X23482119Y-21321881D01*
X23489879Y-21331335D01*
X23495646Y-21342125D01*
X23499197Y-21353830D01*
X23501000Y-21372138D01*
X23501000Y-21795862D01*
X23499197Y-21814170D01*
X23495645Y-21825877D01*
X23485383Y-21845077D01*
X23476006Y-21867716D01*
X23471226Y-21891749D01*
X23471226Y-21916253D01*
X23476007Y-21940286D01*
X23485383Y-21962923D01*
X23495645Y-21982123D01*
X23499197Y-21993830D01*
X23501000Y-22012138D01*
X23501000Y-22435862D01*
X23499197Y-22454170D01*
X23495646Y-22465875D01*
X23489879Y-22476665D01*
X23482119Y-22486119D01*
X23472665Y-22493879D01*
X23461875Y-22499646D01*
X23444609Y-22504884D01*
X23421970Y-22514262D01*
X23401596Y-22527876D01*
X23384270Y-22545204D01*
X23370656Y-22565578D01*
X23361280Y-22588217D01*
X23356500Y-22612251D01*
X23356500Y-22636755D01*
X23361281Y-22660788D01*
X23370659Y-22683427D01*
X23384273Y-22703801D01*
X23401601Y-22721127D01*
X23421975Y-22734741D01*
X23444609Y-22744116D01*
X23461875Y-22749354D01*
X23472665Y-22755121D01*
X23482119Y-22762881D01*
X23489879Y-22772335D01*
X23495646Y-22783125D01*
X23499197Y-22794830D01*
X23501000Y-22813138D01*
X23501000Y-23236862D01*
X23499197Y-23255170D01*
X23495645Y-23266877D01*
X23485383Y-23286077D01*
X23476006Y-23308716D01*
X23471226Y-23332749D01*
X23471226Y-23357253D01*
X23476007Y-23381286D01*
X23485383Y-23403923D01*
X23495645Y-23423123D01*
X23499197Y-23434830D01*
X23501000Y-23453138D01*
X23501000Y-23876862D01*
X23499197Y-23895170D01*
X23495646Y-23906875D01*
X23489879Y-23917665D01*
X23482119Y-23927119D01*
X23472665Y-23934879D01*
X23461875Y-23940646D01*
X23450170Y-23944197D01*
X23431862Y-23946000D01*
X23068138Y-23946000D01*
X23049830Y-23944197D01*
X23038125Y-23940646D01*
X23027335Y-23934879D01*
X23017881Y-23927119D01*
X23010121Y-23917665D01*
X23004354Y-23906875D01*
X23000803Y-23895170D01*
X22999000Y-23876862D01*
X22999000Y-23453138D01*
X23000803Y-23434830D01*
X23004355Y-23423123D01*
X23014617Y-23403923D01*
X23023994Y-23381284D01*
X23028774Y-23357251D01*
X23028774Y-23332747D01*
X23023993Y-23308714D01*
X23014617Y-23286077D01*
X23004355Y-23266877D01*
X23000803Y-23255170D01*
X22999000Y-23236862D01*
X22999000Y-22813138D01*
X23000803Y-22794830D01*
X23004354Y-22783125D01*
X23010121Y-22772335D01*
X23017881Y-22762881D01*
X23027335Y-22755121D01*
X23038125Y-22749354D01*
X23055391Y-22744116D01*
X23078030Y-22734738D01*
X23098404Y-22721124D01*
X23115730Y-22703796D01*
X23129344Y-22683422D01*
X23138720Y-22660783D01*
X23143500Y-22636749D01*
X23143500Y-22612245D01*
X23138719Y-22588212D01*
X23129341Y-22565573D01*
X23115727Y-22545199D01*
X23098399Y-22527873D01*
X23078025Y-22514259D01*
X23055391Y-22504884D01*
X23038125Y-22499646D01*
X23027335Y-22493879D01*
X23017881Y-22486119D01*
X23010121Y-22476665D01*
X23004354Y-22465875D01*
X23000803Y-22454170D01*
X22999000Y-22435862D01*
X22999000Y-22012138D01*
X23000803Y-21993830D01*
X23004355Y-21982123D01*
X23014617Y-21962923D01*
X23023994Y-21940284D01*
X23028774Y-21916251D01*
X23028774Y-21891747D01*
X23023993Y-21867714D01*
X23014617Y-21845077D01*
X23004355Y-21825877D01*
X23000803Y-21814170D01*
X22999000Y-21795862D01*
X22999000Y-21372138D01*
X23000803Y-21353830D01*
X23004354Y-21342125D01*
X23010121Y-21331335D01*
X23017881Y-21321881D01*
X23027335Y-21314121D01*
X23038125Y-21308354D01*
X23049830Y-21304803D01*
X23068138Y-21303000D01*
X23431862Y-21303000D01*
X23450170Y-21304803D01*
X23450170Y-21304803D01*
G37*
G36*
X32932517Y-22283781D02*
G01*
X33059946Y-22322436D01*
X33177383Y-22385208D01*
X33280317Y-22469683D01*
X33364792Y-22572617D01*
X33427564Y-22690054D01*
X33466219Y-22817484D01*
X33476000Y-22916796D01*
X33476000Y-23233205D01*
X33466219Y-23332517D01*
X33427564Y-23459946D01*
X33364792Y-23577383D01*
X33280317Y-23680316D01*
X33177382Y-23764792D01*
X33059945Y-23827564D01*
X32932516Y-23866219D01*
X32800000Y-23879270D01*
X32667483Y-23866219D01*
X32540054Y-23827564D01*
X32422617Y-23764792D01*
X32319684Y-23680317D01*
X32235208Y-23577382D01*
X32172436Y-23459945D01*
X32133781Y-23332516D01*
X32124000Y-23233204D01*
X32124000Y-22916795D01*
X32133781Y-22817483D01*
X32172436Y-22690054D01*
X32235208Y-22572617D01*
X32319683Y-22469684D01*
X32422618Y-22385208D01*
X32540055Y-22322436D01*
X32667484Y-22283781D01*
X32800000Y-22270730D01*
X32932517Y-22283781D01*
X32932517Y-22283781D01*
G37*
G36*
X20265531Y-21616507D02*
G01*
X20280649Y-21619514D01*
X20290143Y-21623447D01*
X20309132Y-21631312D01*
X20340555Y-21652308D01*
X20362166Y-21663859D01*
X20385615Y-21670972D01*
X20410001Y-21673374D01*
X20434387Y-21670972D01*
X20457836Y-21663859D01*
X20479445Y-21652308D01*
X20510868Y-21631312D01*
X20529857Y-21623447D01*
X20539351Y-21619514D01*
X20554469Y-21616507D01*
X20569585Y-21613500D01*
X20600415Y-21613500D01*
X20615531Y-21616507D01*
X20630649Y-21619514D01*
X20640143Y-21623447D01*
X20659132Y-21631312D01*
X20690555Y-21652308D01*
X20712166Y-21663859D01*
X20735615Y-21670972D01*
X20760001Y-21673374D01*
X20784387Y-21670972D01*
X20807836Y-21663859D01*
X20829445Y-21652308D01*
X20860868Y-21631312D01*
X20879857Y-21623447D01*
X20889351Y-21619514D01*
X20904469Y-21616507D01*
X20919585Y-21613500D01*
X20950415Y-21613500D01*
X20965531Y-21616507D01*
X20980649Y-21619514D01*
X20990143Y-21623447D01*
X21009132Y-21631312D01*
X21040555Y-21652308D01*
X21062166Y-21663859D01*
X21085615Y-21670972D01*
X21110001Y-21673374D01*
X21134387Y-21670972D01*
X21157836Y-21663859D01*
X21179445Y-21652308D01*
X21210868Y-21631312D01*
X21229857Y-21623447D01*
X21239351Y-21619514D01*
X21254469Y-21616507D01*
X21269585Y-21613500D01*
X21300415Y-21613500D01*
X21315531Y-21616507D01*
X21330649Y-21619514D01*
X21340143Y-21623447D01*
X21359132Y-21631312D01*
X21390555Y-21652308D01*
X21412166Y-21663859D01*
X21435615Y-21670972D01*
X21460001Y-21673374D01*
X21484387Y-21670972D01*
X21507836Y-21663859D01*
X21529445Y-21652308D01*
X21560868Y-21631312D01*
X21579857Y-21623447D01*
X21589351Y-21619514D01*
X21604469Y-21616507D01*
X21619585Y-21613500D01*
X21650415Y-21613500D01*
X21665531Y-21616507D01*
X21680649Y-21619514D01*
X21690143Y-21623447D01*
X21709132Y-21631312D01*
X21740555Y-21652308D01*
X21762166Y-21663859D01*
X21785615Y-21670972D01*
X21810001Y-21673374D01*
X21834387Y-21670972D01*
X21857836Y-21663859D01*
X21879445Y-21652308D01*
X21910868Y-21631312D01*
X21929857Y-21623447D01*
X21939351Y-21619514D01*
X21954469Y-21616507D01*
X21969585Y-21613500D01*
X22000415Y-21613500D01*
X22015531Y-21616507D01*
X22030649Y-21619514D01*
X22040143Y-21623447D01*
X22059132Y-21631312D01*
X22090555Y-21652308D01*
X22112166Y-21663859D01*
X22135615Y-21670972D01*
X22160001Y-21673374D01*
X22184387Y-21670972D01*
X22207836Y-21663859D01*
X22229445Y-21652308D01*
X22260868Y-21631312D01*
X22279857Y-21623447D01*
X22289351Y-21619514D01*
X22304469Y-21616507D01*
X22319585Y-21613500D01*
X22350415Y-21613500D01*
X22365531Y-21616507D01*
X22380649Y-21619514D01*
X22390143Y-21623447D01*
X22409132Y-21631312D01*
X22434760Y-21648436D01*
X22456564Y-21670240D01*
X22473688Y-21695868D01*
X22485486Y-21724352D01*
X22491500Y-21754585D01*
X22491500Y-21785415D01*
X22488828Y-21798849D01*
X22485486Y-21815649D01*
X22482119Y-21823776D01*
X22473688Y-21844132D01*
X22452692Y-21875555D01*
X22441141Y-21897166D01*
X22434028Y-21920615D01*
X22431626Y-21945001D01*
X22434028Y-21969387D01*
X22441141Y-21992836D01*
X22452692Y-22014445D01*
X22473688Y-22045868D01*
X22480141Y-22061447D01*
X22485486Y-22074351D01*
X22491500Y-22104586D01*
X22491500Y-22135414D01*
X22485486Y-22165649D01*
X22481740Y-22174692D01*
X22473688Y-22194132D01*
X22452692Y-22225555D01*
X22441141Y-22247166D01*
X22434028Y-22270615D01*
X22431626Y-22295001D01*
X22434028Y-22319387D01*
X22441141Y-22342836D01*
X22452692Y-22364445D01*
X22473688Y-22395868D01*
X22485486Y-22424352D01*
X22490434Y-22449224D01*
X22491500Y-22454586D01*
X22491500Y-22485414D01*
X22485486Y-22515649D01*
X22481553Y-22525143D01*
X22473688Y-22544132D01*
X22452692Y-22575555D01*
X22441141Y-22597166D01*
X22434028Y-22620615D01*
X22431626Y-22645001D01*
X22434028Y-22669387D01*
X22441141Y-22692836D01*
X22452692Y-22714445D01*
X22473688Y-22745868D01*
X22485486Y-22774352D01*
X22491500Y-22804585D01*
X22491500Y-22835415D01*
X22485486Y-22865648D01*
X22473688Y-22894132D01*
X22452692Y-22925555D01*
X22441141Y-22947166D01*
X22434028Y-22970615D01*
X22431626Y-22995001D01*
X22434028Y-23019387D01*
X22441141Y-23042836D01*
X22452692Y-23064445D01*
X22473688Y-23095868D01*
X22485486Y-23124352D01*
X22491500Y-23154585D01*
X22491500Y-23185415D01*
X22490686Y-23189505D01*
X22487759Y-23204224D01*
X22485486Y-23215648D01*
X22473688Y-23244132D01*
X22452692Y-23275555D01*
X22441141Y-23297166D01*
X22434028Y-23320615D01*
X22431626Y-23345001D01*
X22434028Y-23369387D01*
X22441141Y-23392836D01*
X22452692Y-23414445D01*
X22473688Y-23445868D01*
X22481141Y-23463863D01*
X22485486Y-23474351D01*
X22491500Y-23504586D01*
X22491500Y-23535414D01*
X22485486Y-23565649D01*
X22482903Y-23571885D01*
X22473688Y-23594132D01*
X22456564Y-23619760D01*
X22434760Y-23641564D01*
X22409132Y-23658688D01*
X22390143Y-23666553D01*
X22380649Y-23670486D01*
X22365531Y-23673493D01*
X22350415Y-23676500D01*
X22319585Y-23676500D01*
X22304469Y-23673493D01*
X22289351Y-23670486D01*
X22279857Y-23666553D01*
X22260868Y-23658688D01*
X22229445Y-23637692D01*
X22207834Y-23626141D01*
X22184385Y-23619028D01*
X22159999Y-23616626D01*
X22135613Y-23619028D01*
X22112164Y-23626141D01*
X22090555Y-23637692D01*
X22059132Y-23658688D01*
X22040143Y-23666553D01*
X22030649Y-23670486D01*
X22015531Y-23673493D01*
X22000415Y-23676500D01*
X21969585Y-23676500D01*
X21954469Y-23673493D01*
X21939351Y-23670486D01*
X21929857Y-23666553D01*
X21910868Y-23658688D01*
X21879445Y-23637692D01*
X21857834Y-23626141D01*
X21834385Y-23619028D01*
X21809999Y-23616626D01*
X21785613Y-23619028D01*
X21762164Y-23626141D01*
X21740555Y-23637692D01*
X21709132Y-23658688D01*
X21690143Y-23666553D01*
X21680649Y-23670486D01*
X21665531Y-23673493D01*
X21650415Y-23676500D01*
X21619585Y-23676500D01*
X21604469Y-23673493D01*
X21589351Y-23670486D01*
X21579857Y-23666553D01*
X21560868Y-23658688D01*
X21529445Y-23637692D01*
X21507834Y-23626141D01*
X21484385Y-23619028D01*
X21459999Y-23616626D01*
X21435613Y-23619028D01*
X21412164Y-23626141D01*
X21390555Y-23637692D01*
X21359132Y-23658688D01*
X21340143Y-23666553D01*
X21330649Y-23670486D01*
X21315531Y-23673493D01*
X21300415Y-23676500D01*
X21269585Y-23676500D01*
X21254469Y-23673493D01*
X21239351Y-23670486D01*
X21229857Y-23666553D01*
X21210868Y-23658688D01*
X21179445Y-23637692D01*
X21157834Y-23626141D01*
X21134385Y-23619028D01*
X21109999Y-23616626D01*
X21085613Y-23619028D01*
X21062164Y-23626141D01*
X21040555Y-23637692D01*
X21009132Y-23658688D01*
X20990143Y-23666553D01*
X20980649Y-23670486D01*
X20965531Y-23673493D01*
X20950415Y-23676500D01*
X20919585Y-23676500D01*
X20904469Y-23673493D01*
X20889351Y-23670486D01*
X20879857Y-23666553D01*
X20860868Y-23658688D01*
X20829445Y-23637692D01*
X20807834Y-23626141D01*
X20784385Y-23619028D01*
X20759999Y-23616626D01*
X20735613Y-23619028D01*
X20712164Y-23626141D01*
X20690555Y-23637692D01*
X20659132Y-23658688D01*
X20640143Y-23666553D01*
X20630649Y-23670486D01*
X20615531Y-23673493D01*
X20600415Y-23676500D01*
X20569585Y-23676500D01*
X20554469Y-23673493D01*
X20539351Y-23670486D01*
X20529857Y-23666553D01*
X20510868Y-23658688D01*
X20479445Y-23637692D01*
X20457834Y-23626141D01*
X20434385Y-23619028D01*
X20409999Y-23616626D01*
X20385613Y-23619028D01*
X20362164Y-23626141D01*
X20340555Y-23637692D01*
X20309132Y-23658688D01*
X20290143Y-23666553D01*
X20280649Y-23670486D01*
X20265531Y-23673493D01*
X20250415Y-23676500D01*
X20219585Y-23676500D01*
X20204469Y-23673493D01*
X20189351Y-23670486D01*
X20179857Y-23666553D01*
X20160868Y-23658688D01*
X20135240Y-23641564D01*
X20113436Y-23619760D01*
X20096312Y-23594132D01*
X20087097Y-23571885D01*
X20084514Y-23565649D01*
X20078500Y-23535414D01*
X20078500Y-23504586D01*
X20084514Y-23474351D01*
X20088859Y-23463863D01*
X20096312Y-23445868D01*
X20117308Y-23414445D01*
X20128859Y-23392834D01*
X20135972Y-23369385D01*
X20138374Y-23344999D01*
X20135972Y-23320613D01*
X20128859Y-23297164D01*
X20117308Y-23275555D01*
X20096312Y-23244132D01*
X20084514Y-23215648D01*
X20082242Y-23204224D01*
X20079314Y-23189505D01*
X20078500Y-23185415D01*
X20078500Y-23154585D01*
X20084514Y-23124352D01*
X20096312Y-23095868D01*
X20117308Y-23064445D01*
X20128859Y-23042834D01*
X20135972Y-23019385D01*
X20138374Y-22994999D01*
X20135972Y-22970613D01*
X20128859Y-22947164D01*
X20117308Y-22925555D01*
X20096312Y-22894132D01*
X20084514Y-22865648D01*
X20078500Y-22835415D01*
X20078500Y-22804585D01*
X20084514Y-22774352D01*
X20096312Y-22745868D01*
X20117308Y-22714445D01*
X20128859Y-22692834D01*
X20135972Y-22669385D01*
X20138374Y-22644999D01*
X20135972Y-22620613D01*
X20128859Y-22597164D01*
X20117308Y-22575555D01*
X20096312Y-22544132D01*
X20088447Y-22525143D01*
X20084514Y-22515649D01*
X20078500Y-22485414D01*
X20078500Y-22454586D01*
X20079567Y-22449224D01*
X20084514Y-22424352D01*
X20096312Y-22395868D01*
X20117308Y-22364445D01*
X20128859Y-22342834D01*
X20135972Y-22319385D01*
X20138374Y-22294999D01*
X20135972Y-22270613D01*
X20128859Y-22247164D01*
X20117308Y-22225555D01*
X20096312Y-22194132D01*
X20088260Y-22174692D01*
X20084514Y-22165649D01*
X20078500Y-22135414D01*
X20078500Y-22104586D01*
X20084514Y-22074351D01*
X20089859Y-22061447D01*
X20096312Y-22045868D01*
X20117308Y-22014445D01*
X20128859Y-21992834D01*
X20135972Y-21969385D01*
X20138374Y-21944999D01*
X20135972Y-21920613D01*
X20128859Y-21897164D01*
X20117308Y-21875555D01*
X20096312Y-21844132D01*
X20087881Y-21823776D01*
X20084514Y-21815649D01*
X20081172Y-21798849D01*
X20078500Y-21785415D01*
X20078500Y-21754585D01*
X20084514Y-21724352D01*
X20096312Y-21695868D01*
X20113436Y-21670240D01*
X20135240Y-21648436D01*
X20160868Y-21631312D01*
X20179857Y-21623447D01*
X20189351Y-21619514D01*
X20204469Y-21616507D01*
X20219585Y-21613500D01*
X20250415Y-21613500D01*
X20265531Y-21616507D01*
X20265531Y-21616507D01*
G37*
G36*
X42551000Y-23361000D02*
G01*
X40949000Y-23361000D01*
X40949000Y-22559000D01*
X42551000Y-22559000D01*
X42551000Y-23361000D01*
X42551000Y-23361000D01*
G37*
G36*
X28129461Y-23002881D02*
G01*
X28147844Y-23010496D01*
X28164379Y-23021544D01*
X28164381Y-23021546D01*
X28164384Y-23021548D01*
X28178452Y-23035616D01*
X28178454Y-23035619D01*
X28178456Y-23035621D01*
X28187294Y-23048849D01*
X28189505Y-23052158D01*
X28194311Y-23063761D01*
X28197119Y-23070539D01*
X28201000Y-23090051D01*
X28201000Y-23109949D01*
X28197119Y-23129461D01*
X28189504Y-23147844D01*
X28178456Y-23164379D01*
X28178454Y-23164381D01*
X28178452Y-23164384D01*
X28164384Y-23178452D01*
X28164381Y-23178454D01*
X28164379Y-23178456D01*
X28147844Y-23189504D01*
X28129461Y-23197119D01*
X28109949Y-23201000D01*
X28090051Y-23201000D01*
X28070539Y-23197119D01*
X28052156Y-23189504D01*
X28035621Y-23178456D01*
X28035619Y-23178454D01*
X28035616Y-23178452D01*
X28021548Y-23164384D01*
X28021546Y-23164381D01*
X28021544Y-23164379D01*
X28010496Y-23147844D01*
X28002881Y-23129461D01*
X27999000Y-23109949D01*
X27999000Y-23090051D01*
X28002881Y-23070539D01*
X28005689Y-23063761D01*
X28010495Y-23052158D01*
X28012706Y-23048849D01*
X28021544Y-23035621D01*
X28021546Y-23035619D01*
X28021548Y-23035616D01*
X28035616Y-23021548D01*
X28035619Y-23021546D01*
X28035621Y-23021544D01*
X28052156Y-23010496D01*
X28070539Y-23002881D01*
X28090051Y-22999000D01*
X28109949Y-22999000D01*
X28129461Y-23002881D01*
X28129461Y-23002881D01*
G37*
G36*
X25126000Y-20769001D02*
G01*
X25128402Y-20793387D01*
X25135515Y-20816836D01*
X25147066Y-20838447D01*
X25162611Y-20857389D01*
X25181553Y-20872934D01*
X25203164Y-20884485D01*
X25226613Y-20891598D01*
X25250999Y-20894000D01*
X26026000Y-20894000D01*
X26026000Y-22441000D01*
X25250999Y-22441000D01*
X25226613Y-22443402D01*
X25203164Y-22450515D01*
X25181553Y-22462066D01*
X25162611Y-22477611D01*
X25147066Y-22496553D01*
X25135515Y-22518164D01*
X25128402Y-22541613D01*
X25126000Y-22565999D01*
X25126000Y-22736000D01*
X24774000Y-22736000D01*
X24774000Y-22565999D01*
X24771598Y-22541613D01*
X24764485Y-22518164D01*
X24752934Y-22496553D01*
X24737389Y-22477611D01*
X24718447Y-22462066D01*
X24696836Y-22450515D01*
X24673387Y-22443402D01*
X24649001Y-22441000D01*
X23874000Y-22441000D01*
X23874000Y-21420999D01*
X24626000Y-21420999D01*
X24626000Y-21859001D01*
X24628402Y-21883387D01*
X24635515Y-21906836D01*
X24647066Y-21928447D01*
X24662611Y-21947389D01*
X24681553Y-21962934D01*
X24703164Y-21974485D01*
X24726613Y-21981598D01*
X24750999Y-21984000D01*
X25149001Y-21984000D01*
X25173387Y-21981598D01*
X25196836Y-21974485D01*
X25218447Y-21962934D01*
X25237389Y-21947389D01*
X25252934Y-21928447D01*
X25264485Y-21906836D01*
X25271598Y-21883387D01*
X25274000Y-21859001D01*
X25274000Y-21420999D01*
X25271598Y-21396613D01*
X25264485Y-21373164D01*
X25252934Y-21351553D01*
X25237389Y-21332611D01*
X25218447Y-21317066D01*
X25196836Y-21305515D01*
X25173387Y-21298402D01*
X25149001Y-21296000D01*
X24750999Y-21296000D01*
X24726613Y-21298402D01*
X24703164Y-21305515D01*
X24681553Y-21317066D01*
X24662611Y-21332611D01*
X24647066Y-21351553D01*
X24635515Y-21373164D01*
X24628402Y-21396613D01*
X24626000Y-21420999D01*
X23874000Y-21420999D01*
X23874000Y-20894000D01*
X24649001Y-20894000D01*
X24673387Y-20891598D01*
X24696836Y-20884485D01*
X24718447Y-20872934D01*
X24737389Y-20857389D01*
X24752934Y-20838447D01*
X24764485Y-20816836D01*
X24771598Y-20793387D01*
X24774000Y-20769001D01*
X24774000Y-20544000D01*
X25126000Y-20544000D01*
X25126000Y-20769001D01*
X25126000Y-20769001D01*
G37*
G36*
X34981000Y-22481000D02*
G01*
X34139000Y-22481000D01*
X34139000Y-19589000D01*
X34981000Y-19589000D01*
X34981000Y-22481000D01*
X34981000Y-22481000D01*
G37*
G36*
X40061000Y-22481000D02*
G01*
X39219000Y-22481000D01*
X39219000Y-19589000D01*
X40061000Y-19589000D01*
X40061000Y-22481000D01*
X40061000Y-22481000D01*
G37*
G36*
X38791000Y-22481000D02*
G01*
X37949000Y-22481000D01*
X37949000Y-19589000D01*
X38791000Y-19589000D01*
X38791000Y-22481000D01*
X38791000Y-22481000D01*
G37*
G36*
X36251000Y-22481000D02*
G01*
X35409000Y-22481000D01*
X35409000Y-19589000D01*
X36251000Y-19589000D01*
X36251000Y-22481000D01*
X36251000Y-22481000D01*
G37*
G36*
X37521000Y-22481000D02*
G01*
X36679000Y-22481000D01*
X36679000Y-19589000D01*
X37521000Y-19589000D01*
X37521000Y-22481000D01*
X37521000Y-22481000D01*
G37*
G36*
X41260170Y-20820803D02*
G01*
X41271877Y-20824355D01*
X41291077Y-20834617D01*
X41313716Y-20843994D01*
X41337749Y-20848774D01*
X41362253Y-20848774D01*
X41386286Y-20843993D01*
X41408923Y-20834617D01*
X41428123Y-20824355D01*
X41439830Y-20820803D01*
X41458138Y-20819000D01*
X41881862Y-20819000D01*
X41900170Y-20820803D01*
X41911875Y-20824354D01*
X41922665Y-20830121D01*
X41932119Y-20837881D01*
X41939879Y-20847335D01*
X41945646Y-20858125D01*
X41949197Y-20869830D01*
X41951000Y-20888138D01*
X41951000Y-21251862D01*
X41949197Y-21270170D01*
X41945646Y-21281875D01*
X41939879Y-21292665D01*
X41932119Y-21302119D01*
X41922665Y-21309879D01*
X41911875Y-21315646D01*
X41900170Y-21319197D01*
X41885893Y-21320603D01*
X41861860Y-21325383D01*
X41839221Y-21334760D01*
X41818846Y-21348374D01*
X41801519Y-21365700D01*
X41787905Y-21386075D01*
X41778528Y-21408713D01*
X41773747Y-21432747D01*
X41773747Y-21457251D01*
X41778527Y-21481284D01*
X41787904Y-21503923D01*
X41801518Y-21524298D01*
X41818844Y-21541625D01*
X41839219Y-21555239D01*
X41861857Y-21564616D01*
X41885893Y-21569397D01*
X41900170Y-21570803D01*
X41911875Y-21574354D01*
X41922665Y-21580121D01*
X41932119Y-21587881D01*
X41939879Y-21597335D01*
X41945646Y-21608125D01*
X41949197Y-21619830D01*
X41951000Y-21638138D01*
X41951000Y-22001862D01*
X41949197Y-22020170D01*
X41945646Y-22031875D01*
X41939879Y-22042665D01*
X41932119Y-22052119D01*
X41922665Y-22059879D01*
X41911875Y-22065646D01*
X41900170Y-22069197D01*
X41881862Y-22071000D01*
X41458138Y-22071000D01*
X41439830Y-22069197D01*
X41428123Y-22065645D01*
X41408923Y-22055383D01*
X41386284Y-22046006D01*
X41362251Y-22041226D01*
X41337747Y-22041226D01*
X41313714Y-22046007D01*
X41291077Y-22055383D01*
X41271877Y-22065645D01*
X41260170Y-22069197D01*
X41241862Y-22071000D01*
X40818138Y-22071000D01*
X40799830Y-22069197D01*
X40788125Y-22065646D01*
X40777335Y-22059879D01*
X40767881Y-22052119D01*
X40760121Y-22042665D01*
X40754354Y-22031875D01*
X40750803Y-22020170D01*
X40749000Y-22001862D01*
X40749000Y-21638138D01*
X40750803Y-21619830D01*
X40754354Y-21608125D01*
X40760121Y-21597335D01*
X40767881Y-21587881D01*
X40777335Y-21580121D01*
X40788125Y-21574354D01*
X40799830Y-21570803D01*
X40814107Y-21569397D01*
X40838140Y-21564617D01*
X40860779Y-21555240D01*
X40881154Y-21541626D01*
X40898481Y-21524300D01*
X40912095Y-21503925D01*
X40921472Y-21481287D01*
X40926253Y-21457253D01*
X40926253Y-21432749D01*
X40926253Y-21432747D01*
X41133747Y-21432747D01*
X41133747Y-21457251D01*
X41138527Y-21481284D01*
X41147904Y-21503923D01*
X41161518Y-21524298D01*
X41178844Y-21541625D01*
X41199219Y-21555239D01*
X41221857Y-21564616D01*
X41245893Y-21569397D01*
X41260170Y-21570803D01*
X41271877Y-21574355D01*
X41291077Y-21584617D01*
X41313716Y-21593994D01*
X41337749Y-21598774D01*
X41362253Y-21598774D01*
X41386286Y-21593993D01*
X41408923Y-21584617D01*
X41428123Y-21574355D01*
X41439830Y-21570803D01*
X41454107Y-21569397D01*
X41478140Y-21564617D01*
X41500779Y-21555240D01*
X41521154Y-21541626D01*
X41538481Y-21524300D01*
X41552095Y-21503925D01*
X41561472Y-21481287D01*
X41566253Y-21457253D01*
X41566253Y-21432749D01*
X41561473Y-21408716D01*
X41552096Y-21386077D01*
X41538482Y-21365702D01*
X41521156Y-21348375D01*
X41500781Y-21334761D01*
X41478143Y-21325384D01*
X41454107Y-21320603D01*
X41439830Y-21319197D01*
X41428123Y-21315645D01*
X41408923Y-21305383D01*
X41386284Y-21296006D01*
X41362251Y-21291226D01*
X41337747Y-21291226D01*
X41313714Y-21296007D01*
X41291077Y-21305383D01*
X41271877Y-21315645D01*
X41260170Y-21319197D01*
X41245893Y-21320603D01*
X41221860Y-21325383D01*
X41199221Y-21334760D01*
X41178846Y-21348374D01*
X41161519Y-21365700D01*
X41147905Y-21386075D01*
X41138528Y-21408713D01*
X41133747Y-21432747D01*
X40926253Y-21432747D01*
X40921473Y-21408716D01*
X40912096Y-21386077D01*
X40898482Y-21365702D01*
X40881156Y-21348375D01*
X40860781Y-21334761D01*
X40838143Y-21325384D01*
X40814107Y-21320603D01*
X40799830Y-21319197D01*
X40788125Y-21315646D01*
X40777335Y-21309879D01*
X40767881Y-21302119D01*
X40760121Y-21292665D01*
X40754354Y-21281875D01*
X40750803Y-21270170D01*
X40749000Y-21251862D01*
X40749000Y-20888138D01*
X40750803Y-20869830D01*
X40754354Y-20858125D01*
X40760121Y-20847335D01*
X40767881Y-20837881D01*
X40777335Y-20830121D01*
X40788125Y-20824354D01*
X40799830Y-20820803D01*
X40818138Y-20819000D01*
X41241862Y-20819000D01*
X41260170Y-20820803D01*
X41260170Y-20820803D01*
G37*
G36*
X43689890Y-20084017D02*
G01*
X43807003Y-20132527D01*
X43808364Y-20133091D01*
X43914988Y-20204335D01*
X44005665Y-20295012D01*
X44075148Y-20399000D01*
X44076910Y-20401638D01*
X44125983Y-20520110D01*
X44151000Y-20645881D01*
X44151000Y-20774119D01*
X44125983Y-20899890D01*
X44087248Y-20993405D01*
X44076909Y-21018364D01*
X44005665Y-21124988D01*
X43914988Y-21215665D01*
X43808364Y-21286909D01*
X43808363Y-21286910D01*
X43808362Y-21286910D01*
X43689890Y-21335983D01*
X43564119Y-21361000D01*
X43435881Y-21361000D01*
X43310110Y-21335983D01*
X43191638Y-21286910D01*
X43191637Y-21286910D01*
X43191636Y-21286909D01*
X43085012Y-21215665D01*
X42994335Y-21124988D01*
X42923091Y-21018364D01*
X42912753Y-20993405D01*
X42874017Y-20899890D01*
X42849000Y-20774119D01*
X42849000Y-20645881D01*
X42874017Y-20520110D01*
X42923090Y-20401638D01*
X42924853Y-20399000D01*
X42994335Y-20295012D01*
X43085012Y-20204335D01*
X43191636Y-20133091D01*
X43192998Y-20132527D01*
X43310110Y-20084017D01*
X43435881Y-20059000D01*
X43564119Y-20059000D01*
X43689890Y-20084017D01*
X43689890Y-20084017D01*
G37*
G36*
X32932517Y-19743781D02*
G01*
X33059946Y-19782436D01*
X33177383Y-19845208D01*
X33280317Y-19929683D01*
X33364792Y-20032617D01*
X33427564Y-20150054D01*
X33466219Y-20277484D01*
X33476000Y-20376796D01*
X33476000Y-20693205D01*
X33466219Y-20792517D01*
X33427564Y-20919946D01*
X33364792Y-21037383D01*
X33280317Y-21140316D01*
X33177382Y-21224792D01*
X33059945Y-21287564D01*
X32932516Y-21326219D01*
X32800000Y-21339270D01*
X32667483Y-21326219D01*
X32540054Y-21287564D01*
X32422617Y-21224792D01*
X32319684Y-21140317D01*
X32235208Y-21037382D01*
X32172436Y-20919945D01*
X32133781Y-20792516D01*
X32124000Y-20693204D01*
X32124000Y-20376795D01*
X32133781Y-20277483D01*
X32172436Y-20150054D01*
X32235208Y-20032617D01*
X32319683Y-19929684D01*
X32422618Y-19845208D01*
X32540055Y-19782436D01*
X32667484Y-19743781D01*
X32800000Y-19730730D01*
X32932517Y-19743781D01*
X32932517Y-19743781D01*
G37*
G36*
X23361000Y-20696000D02*
G01*
X22589000Y-20696000D01*
X22589000Y-18794000D01*
X23361000Y-18794000D01*
X23361000Y-20696000D01*
X23361000Y-20696000D01*
G37*
G36*
X20711000Y-20686000D02*
G01*
X19939000Y-20686000D01*
X19939000Y-18794000D01*
X20711000Y-18794000D01*
X20711000Y-20686000D01*
X20711000Y-20686000D01*
G37*
G36*
X21826000Y-20646000D02*
G01*
X21474000Y-20646000D01*
X21474000Y-18844000D01*
X21826000Y-18844000D01*
X21826000Y-20646000D01*
X21826000Y-20646000D01*
G37*
G36*
X28129461Y-20402881D02*
G01*
X28147844Y-20410496D01*
X28164379Y-20421544D01*
X28164381Y-20421546D01*
X28164384Y-20421548D01*
X28178452Y-20435616D01*
X28178454Y-20435619D01*
X28178456Y-20435621D01*
X28189504Y-20452156D01*
X28197119Y-20470539D01*
X28201000Y-20490051D01*
X28201000Y-20509949D01*
X28197119Y-20529461D01*
X28189504Y-20547844D01*
X28178456Y-20564379D01*
X28178454Y-20564381D01*
X28178452Y-20564384D01*
X28164384Y-20578452D01*
X28164381Y-20578454D01*
X28164379Y-20578456D01*
X28147844Y-20589504D01*
X28147843Y-20589505D01*
X28147842Y-20589505D01*
X28129908Y-20596934D01*
X28129461Y-20597119D01*
X28109949Y-20601000D01*
X28090051Y-20601000D01*
X28070539Y-20597119D01*
X28070092Y-20596934D01*
X28052158Y-20589505D01*
X28052157Y-20589505D01*
X28052156Y-20589504D01*
X28035621Y-20578456D01*
X28035619Y-20578454D01*
X28035616Y-20578452D01*
X28021548Y-20564384D01*
X28021546Y-20564381D01*
X28021544Y-20564379D01*
X28010496Y-20547844D01*
X28002881Y-20529461D01*
X27999000Y-20509949D01*
X27999000Y-20490051D01*
X28002881Y-20470539D01*
X28010496Y-20452156D01*
X28021544Y-20435621D01*
X28021546Y-20435619D01*
X28021548Y-20435616D01*
X28035616Y-20421548D01*
X28035619Y-20421546D01*
X28035621Y-20421544D01*
X28052156Y-20410496D01*
X28070539Y-20402881D01*
X28090051Y-20399000D01*
X28109949Y-20399000D01*
X28129461Y-20402881D01*
X28129461Y-20402881D01*
G37*
G36*
X26144260Y-17291171D02*
G01*
X26178071Y-17305176D01*
X26221784Y-17323282D01*
X26221787Y-17323284D01*
X26291559Y-17369904D01*
X26350896Y-17429241D01*
X26356348Y-17437401D01*
X26397518Y-17499016D01*
X26405795Y-17519000D01*
X26429629Y-17576540D01*
X26433400Y-17595500D01*
X26437788Y-17617558D01*
X26444901Y-17641007D01*
X26456453Y-17662618D01*
X26471998Y-17681560D01*
X26490940Y-17697105D01*
X26512551Y-17708655D01*
X26536000Y-17715768D01*
X26560386Y-17718170D01*
X26584772Y-17715768D01*
X26619308Y-17703411D01*
X26638123Y-17693355D01*
X26649830Y-17689803D01*
X26668138Y-17688000D01*
X27031862Y-17688000D01*
X27050170Y-17689803D01*
X27061875Y-17693354D01*
X27072665Y-17699121D01*
X27082119Y-17706881D01*
X27096039Y-17723841D01*
X27098911Y-17728140D01*
X27116237Y-17745468D01*
X27136611Y-17759083D01*
X27159249Y-17768462D01*
X27183282Y-17773243D01*
X27207786Y-17773245D01*
X27231819Y-17768466D01*
X27254468Y-17759085D01*
X27261886Y-17755120D01*
X27265620Y-17753987D01*
X27275641Y-17753000D01*
X27624359Y-17753000D01*
X27634380Y-17753987D01*
X27638115Y-17755120D01*
X27641553Y-17756958D01*
X27644568Y-17759432D01*
X27647042Y-17762447D01*
X27648880Y-17765885D01*
X27650013Y-17769620D01*
X27651000Y-17779641D01*
X27651000Y-18058359D01*
X27650012Y-18068385D01*
X27648698Y-18072718D01*
X27643918Y-18096751D01*
X27643918Y-18121255D01*
X27648698Y-18145282D01*
X27650012Y-18149615D01*
X27651000Y-18159641D01*
X27651000Y-18438359D01*
X27650013Y-18448380D01*
X27648880Y-18452115D01*
X27647042Y-18455553D01*
X27644568Y-18458568D01*
X27641553Y-18461042D01*
X27638115Y-18462880D01*
X27634380Y-18464013D01*
X27624359Y-18465000D01*
X27275641Y-18465000D01*
X27265615Y-18464012D01*
X27262281Y-18463001D01*
X27238248Y-18458221D01*
X27213744Y-18458221D01*
X27189711Y-18463002D01*
X27167072Y-18472380D01*
X27146698Y-18485994D01*
X27129372Y-18503322D01*
X27115758Y-18523696D01*
X27106382Y-18546336D01*
X27101000Y-18582618D01*
X27101000Y-18685382D01*
X27103402Y-18709768D01*
X27110515Y-18733217D01*
X27122066Y-18754828D01*
X27137611Y-18773770D01*
X27156553Y-18789315D01*
X27178164Y-18800866D01*
X27201613Y-18807979D01*
X27225999Y-18810381D01*
X27262281Y-18804999D01*
X27265615Y-18803988D01*
X27275641Y-18803000D01*
X27624359Y-18803000D01*
X27634380Y-18803987D01*
X27638115Y-18805120D01*
X27641553Y-18806958D01*
X27644568Y-18809432D01*
X27647042Y-18812447D01*
X27648880Y-18815885D01*
X27650013Y-18819620D01*
X27651000Y-18829641D01*
X27651000Y-19108359D01*
X27650012Y-19118385D01*
X27648698Y-19122718D01*
X27643918Y-19146751D01*
X27643918Y-19171255D01*
X27648698Y-19195282D01*
X27650012Y-19199615D01*
X27651000Y-19209641D01*
X27651000Y-19488359D01*
X27650013Y-19498380D01*
X27648880Y-19502115D01*
X27647042Y-19505553D01*
X27644568Y-19508568D01*
X27641553Y-19511042D01*
X27638115Y-19512880D01*
X27634380Y-19514013D01*
X27624359Y-19515000D01*
X27275641Y-19515000D01*
X27265615Y-19514012D01*
X27262281Y-19513001D01*
X27238248Y-19508221D01*
X27213744Y-19508221D01*
X27189711Y-19513002D01*
X27167072Y-19522380D01*
X27146698Y-19535994D01*
X27129372Y-19553322D01*
X27115758Y-19573696D01*
X27106382Y-19596336D01*
X27101000Y-19632618D01*
X27101000Y-19660862D01*
X27099197Y-19679170D01*
X27095645Y-19690877D01*
X27085383Y-19710077D01*
X27076006Y-19732716D01*
X27071226Y-19756749D01*
X27071226Y-19781253D01*
X27076007Y-19805286D01*
X27085383Y-19827923D01*
X27095645Y-19847123D01*
X27099197Y-19858830D01*
X27101000Y-19877138D01*
X27101000Y-20300862D01*
X27099197Y-20319170D01*
X27095646Y-20330875D01*
X27089879Y-20341665D01*
X27082119Y-20351119D01*
X27072665Y-20358879D01*
X27061875Y-20364646D01*
X27050170Y-20368197D01*
X27031862Y-20370000D01*
X26788288Y-20370000D01*
X26763902Y-20372402D01*
X26740453Y-20379515D01*
X26718842Y-20391066D01*
X26716217Y-20393220D01*
X26711158Y-20389068D01*
X26689547Y-20377517D01*
X26666098Y-20370404D01*
X26653963Y-20368604D01*
X26649830Y-20368197D01*
X26638125Y-20364646D01*
X26627335Y-20358879D01*
X26617881Y-20351119D01*
X26609822Y-20341300D01*
X26596723Y-20321697D01*
X26579395Y-20304371D01*
X26559021Y-20290758D01*
X26536381Y-20281381D01*
X26500100Y-20276000D01*
X25274000Y-20276000D01*
X25274000Y-20242680D01*
X25271598Y-20218294D01*
X25264485Y-20194845D01*
X25252934Y-20173234D01*
X25237389Y-20154292D01*
X25218447Y-20138747D01*
X25196836Y-20127196D01*
X25173387Y-20120083D01*
X25149001Y-20117681D01*
X25124615Y-20120083D01*
X25101166Y-20127196D01*
X25079555Y-20138747D01*
X25060613Y-20154292D01*
X25045068Y-20173234D01*
X25040382Y-20181052D01*
X25032119Y-20191119D01*
X25022665Y-20198879D01*
X25011875Y-20204646D01*
X25000170Y-20208197D01*
X24981862Y-20210000D01*
X24618138Y-20210000D01*
X24599830Y-20208197D01*
X24588125Y-20204646D01*
X24577335Y-20198879D01*
X24567881Y-20191119D01*
X24559961Y-20181470D01*
X24546626Y-20161513D01*
X24529299Y-20144186D01*
X24508925Y-20130572D01*
X24486286Y-20121195D01*
X24462253Y-20116414D01*
X24437749Y-20116414D01*
X24413715Y-20121194D01*
X24391076Y-20130571D01*
X24370702Y-20144185D01*
X24353375Y-20161512D01*
X24340039Y-20181470D01*
X24332119Y-20191119D01*
X24322665Y-20198879D01*
X24311875Y-20204646D01*
X24300170Y-20208197D01*
X24281862Y-20210000D01*
X23918138Y-20210000D01*
X23899830Y-20208197D01*
X23888125Y-20204646D01*
X23877335Y-20198879D01*
X23867881Y-20191119D01*
X23860121Y-20181665D01*
X23854354Y-20170875D01*
X23850803Y-20159170D01*
X23849000Y-20140862D01*
X23849000Y-19762680D01*
X26376000Y-19762680D01*
X26376000Y-19775320D01*
X26378402Y-19799706D01*
X26385515Y-19823155D01*
X26397066Y-19844766D01*
X26412611Y-19863708D01*
X26431553Y-19879253D01*
X26453164Y-19890804D01*
X26476613Y-19897917D01*
X26500999Y-19900319D01*
X26525385Y-19897917D01*
X26548834Y-19890804D01*
X26570445Y-19879253D01*
X26589387Y-19863708D01*
X26604932Y-19844766D01*
X26611239Y-19834243D01*
X26614617Y-19827923D01*
X26623994Y-19805284D01*
X26628774Y-19781250D01*
X26628774Y-19756746D01*
X26623993Y-19732713D01*
X26614617Y-19710077D01*
X26611239Y-19703757D01*
X26597626Y-19683383D01*
X26580299Y-19666056D01*
X26559925Y-19652442D01*
X26537286Y-19643064D01*
X26513253Y-19638283D01*
X26488749Y-19638283D01*
X26464715Y-19643063D01*
X26442076Y-19652440D01*
X26421702Y-19666053D01*
X26404375Y-19683380D01*
X26390761Y-19703754D01*
X26381383Y-19726393D01*
X26376602Y-19750426D01*
X26376000Y-19762680D01*
X23849000Y-19762680D01*
X23849000Y-19717138D01*
X23850803Y-19698830D01*
X23854355Y-19687123D01*
X23864617Y-19667923D01*
X23873994Y-19645284D01*
X23878774Y-19621251D01*
X23878774Y-19596749D01*
X24321226Y-19596749D01*
X24321226Y-19621253D01*
X24326007Y-19645287D01*
X24335383Y-19667923D01*
X24339760Y-19676112D01*
X24353374Y-19696487D01*
X24370700Y-19713814D01*
X24391075Y-19727428D01*
X24413713Y-19736805D01*
X24437747Y-19741586D01*
X24462251Y-19741586D01*
X24486284Y-19736806D01*
X24508923Y-19727429D01*
X24529298Y-19713815D01*
X24546625Y-19696489D01*
X24560240Y-19676112D01*
X24564617Y-19667923D01*
X24573994Y-19645284D01*
X24578774Y-19621251D01*
X24578774Y-19596750D01*
X25021226Y-19596750D01*
X25021226Y-19621254D01*
X25026007Y-19645287D01*
X25035383Y-19667923D01*
X25038761Y-19674243D01*
X25052374Y-19694617D01*
X25069701Y-19711944D01*
X25090075Y-19725558D01*
X25112714Y-19734936D01*
X25136747Y-19739717D01*
X25161251Y-19739717D01*
X25185285Y-19734937D01*
X25207924Y-19725560D01*
X25228298Y-19711947D01*
X25245625Y-19694620D01*
X25259239Y-19674246D01*
X25268617Y-19651607D01*
X25273398Y-19627574D01*
X25274000Y-19615320D01*
X25274000Y-19602680D01*
X25271598Y-19578294D01*
X25264485Y-19554845D01*
X25252934Y-19533234D01*
X25237389Y-19514292D01*
X25218447Y-19498747D01*
X25196836Y-19487196D01*
X25173387Y-19480083D01*
X25149001Y-19477681D01*
X25124615Y-19480083D01*
X25101166Y-19487196D01*
X25079555Y-19498747D01*
X25060613Y-19514292D01*
X25045068Y-19533234D01*
X25038761Y-19543757D01*
X25035383Y-19550077D01*
X25026006Y-19572716D01*
X25021226Y-19596750D01*
X24578774Y-19596750D01*
X24578774Y-19596747D01*
X24573993Y-19572713D01*
X24564617Y-19550077D01*
X24560240Y-19541888D01*
X24546626Y-19521513D01*
X24529300Y-19504186D01*
X24508925Y-19490572D01*
X24486287Y-19481195D01*
X24462253Y-19476414D01*
X24437749Y-19476414D01*
X24413716Y-19481194D01*
X24391077Y-19490571D01*
X24370702Y-19504185D01*
X24353375Y-19521511D01*
X24339760Y-19541888D01*
X24335383Y-19550077D01*
X24326006Y-19572716D01*
X24321226Y-19596749D01*
X23878774Y-19596749D01*
X23878774Y-19596747D01*
X23873993Y-19572714D01*
X23864617Y-19550077D01*
X23854355Y-19530877D01*
X23850803Y-19519170D01*
X23849000Y-19500862D01*
X23849000Y-19077138D01*
X23850803Y-19058830D01*
X23854354Y-19047125D01*
X23860121Y-19036335D01*
X23867881Y-19026881D01*
X23877335Y-19019121D01*
X23888125Y-19013354D01*
X23899830Y-19009803D01*
X23918138Y-19008000D01*
X24281862Y-19008000D01*
X24300170Y-19009803D01*
X24311875Y-19013354D01*
X24322665Y-19019121D01*
X24332119Y-19026881D01*
X24340039Y-19036530D01*
X24353374Y-19056487D01*
X24370701Y-19073814D01*
X24391075Y-19087428D01*
X24413714Y-19096805D01*
X24437747Y-19101586D01*
X24462251Y-19101586D01*
X24486285Y-19096806D01*
X24508924Y-19087429D01*
X24529298Y-19073815D01*
X24546625Y-19056488D01*
X24559961Y-19036530D01*
X24567881Y-19026881D01*
X24577335Y-19019121D01*
X24588125Y-19013354D01*
X24599830Y-19009803D01*
X24618138Y-19008000D01*
X24981862Y-19008000D01*
X25000170Y-19009803D01*
X25011875Y-19013354D01*
X25022665Y-19019121D01*
X25032119Y-19026881D01*
X25039879Y-19036335D01*
X25045646Y-19047125D01*
X25049197Y-19058830D01*
X25049436Y-19061256D01*
X25054217Y-19085289D01*
X25063595Y-19107928D01*
X25077209Y-19128302D01*
X25094537Y-19145628D01*
X25114911Y-19159242D01*
X25137550Y-19168618D01*
X25173833Y-19174000D01*
X25204001Y-19174000D01*
X25228387Y-19171598D01*
X25251836Y-19164485D01*
X25273447Y-19152934D01*
X25292389Y-19137389D01*
X25307934Y-19118447D01*
X25319485Y-19096836D01*
X25326598Y-19073387D01*
X25329000Y-19049001D01*
X25329000Y-18308000D01*
X25704001Y-18308000D01*
X25728387Y-18305598D01*
X25736952Y-18303000D01*
X25742410Y-18303000D01*
X25766796Y-18300598D01*
X25790245Y-18293485D01*
X25811856Y-18281934D01*
X25830798Y-18266389D01*
X25846343Y-18247447D01*
X25857894Y-18225836D01*
X25865007Y-18202387D01*
X25867409Y-18178001D01*
X26172591Y-18178001D01*
X26174993Y-18202387D01*
X26182106Y-18225836D01*
X26193657Y-18247447D01*
X26201000Y-18256395D01*
X26201000Y-19049001D01*
X26203402Y-19073387D01*
X26210515Y-19096836D01*
X26222066Y-19118447D01*
X26237611Y-19137389D01*
X26256553Y-19152934D01*
X26278164Y-19164485D01*
X26301613Y-19171598D01*
X26325999Y-19174000D01*
X26382738Y-19174000D01*
X26385515Y-19183155D01*
X26397066Y-19204766D01*
X26412611Y-19223708D01*
X26431553Y-19239253D01*
X26453164Y-19250804D01*
X26476613Y-19257917D01*
X26500999Y-19260319D01*
X26525385Y-19257917D01*
X26548834Y-19250804D01*
X26570445Y-19239253D01*
X26589387Y-19223708D01*
X26604932Y-19204766D01*
X26609618Y-19196948D01*
X26617881Y-19186881D01*
X26627335Y-19179121D01*
X26638125Y-19173354D01*
X26649830Y-19169803D01*
X26668138Y-19168000D01*
X27031862Y-19168000D01*
X27050170Y-19169803D01*
X27061877Y-19173355D01*
X27065075Y-19175064D01*
X27087713Y-19184442D01*
X27111746Y-19189223D01*
X27136250Y-19189223D01*
X27160284Y-19184443D01*
X27182923Y-19175067D01*
X27203298Y-19161453D01*
X27220625Y-19144127D01*
X27234239Y-19123752D01*
X27243617Y-19101114D01*
X27248398Y-19077081D01*
X27249000Y-19064826D01*
X27249000Y-18993174D01*
X27246598Y-18968788D01*
X27239485Y-18945339D01*
X27227934Y-18923728D01*
X27212389Y-18904786D01*
X27193447Y-18889241D01*
X27171836Y-18877690D01*
X27148387Y-18870577D01*
X27124001Y-18868175D01*
X27099615Y-18870577D01*
X27076166Y-18877690D01*
X27065075Y-18882936D01*
X27061877Y-18884645D01*
X27050170Y-18888197D01*
X27031862Y-18890000D01*
X26668138Y-18890000D01*
X26649830Y-18888197D01*
X26638125Y-18884646D01*
X26627335Y-18878879D01*
X26617881Y-18871119D01*
X26610121Y-18861665D01*
X26604354Y-18850875D01*
X26600803Y-18839170D01*
X26599000Y-18820862D01*
X26599000Y-18397138D01*
X26600803Y-18378830D01*
X26604355Y-18367123D01*
X26614617Y-18347923D01*
X26623994Y-18325284D01*
X26628774Y-18301251D01*
X26628774Y-18276747D01*
X26623993Y-18252714D01*
X26614617Y-18230077D01*
X26604355Y-18210877D01*
X26600803Y-18199170D01*
X26599000Y-18180862D01*
X26599000Y-18013111D01*
X26596598Y-17988725D01*
X26589485Y-17965276D01*
X26577934Y-17943665D01*
X26562389Y-17924723D01*
X26543447Y-17909178D01*
X26521836Y-17897627D01*
X26498387Y-17890514D01*
X26474001Y-17888112D01*
X26449615Y-17890514D01*
X26426166Y-17897627D01*
X26404555Y-17909178D01*
X26385613Y-17924723D01*
X26370069Y-17943665D01*
X26350896Y-17972359D01*
X26291559Y-18031696D01*
X26228141Y-18074070D01*
X26209202Y-18089613D01*
X26193657Y-18108555D01*
X26182106Y-18130166D01*
X26174993Y-18153615D01*
X26172591Y-18178001D01*
X25867409Y-18178001D01*
X25865007Y-18153615D01*
X25857894Y-18130166D01*
X25846343Y-18108555D01*
X25830798Y-18089613D01*
X25811859Y-18074070D01*
X25748441Y-18031696D01*
X25689104Y-17972359D01*
X25642484Y-17902587D01*
X25642482Y-17902584D01*
X25624376Y-17858871D01*
X25610371Y-17825060D01*
X25594000Y-17742757D01*
X25594000Y-17658843D01*
X25610371Y-17576540D01*
X25634205Y-17519000D01*
X25642482Y-17499016D01*
X25683652Y-17437401D01*
X25689104Y-17429241D01*
X25748441Y-17369904D01*
X25818213Y-17323284D01*
X25818216Y-17323282D01*
X25861929Y-17305176D01*
X25895740Y-17291171D01*
X25978043Y-17274800D01*
X26061957Y-17274800D01*
X26144260Y-17291171D01*
X26144260Y-17291171D01*
G37*
G36*
X42551000Y-20361000D02*
G01*
X40949000Y-20361000D01*
X40949000Y-19559000D01*
X42551000Y-19559000D01*
X42551000Y-20361000D01*
X42551000Y-20361000D01*
G37*
G36*
X42951000Y-19111000D02*
G01*
X42049000Y-19111000D01*
X42049000Y-18009000D01*
X42951000Y-18009000D01*
X42951000Y-19111000D01*
X42951000Y-19111000D01*
G37*
G36*
X45051000Y-19111000D02*
G01*
X44149000Y-19111000D01*
X44149000Y-18009000D01*
X45051000Y-18009000D01*
X45051000Y-19111000D01*
X45051000Y-19111000D01*
G37*
G36*
X34300170Y-17720803D02*
G01*
X34311875Y-17724354D01*
X34322665Y-17730121D01*
X34332119Y-17737881D01*
X34339879Y-17747335D01*
X34345646Y-17758125D01*
X34349197Y-17769830D01*
X34351000Y-17788138D01*
X34351000Y-18211862D01*
X34349197Y-18230170D01*
X34345645Y-18241877D01*
X34335383Y-18261077D01*
X34326006Y-18283716D01*
X34321226Y-18307749D01*
X34321226Y-18332253D01*
X34326007Y-18356286D01*
X34335383Y-18378923D01*
X34345645Y-18398123D01*
X34349197Y-18409830D01*
X34351000Y-18428138D01*
X34351000Y-18851862D01*
X34349197Y-18870170D01*
X34345646Y-18881875D01*
X34339879Y-18892665D01*
X34332119Y-18902119D01*
X34322665Y-18909879D01*
X34311875Y-18915646D01*
X34300170Y-18919197D01*
X34281862Y-18921000D01*
X33918138Y-18921000D01*
X33899830Y-18919197D01*
X33888125Y-18915646D01*
X33877335Y-18909879D01*
X33867881Y-18902119D01*
X33860121Y-18892665D01*
X33854354Y-18881875D01*
X33850803Y-18870170D01*
X33849000Y-18851862D01*
X33849000Y-18428138D01*
X33850803Y-18409830D01*
X33854355Y-18398123D01*
X33864617Y-18378923D01*
X33873994Y-18356284D01*
X33878774Y-18332251D01*
X33878774Y-18307747D01*
X33873993Y-18283714D01*
X33864617Y-18261077D01*
X33854355Y-18241877D01*
X33850803Y-18230170D01*
X33849000Y-18211862D01*
X33849000Y-17788138D01*
X33850803Y-17769830D01*
X33854354Y-17758125D01*
X33860121Y-17747335D01*
X33867881Y-17737881D01*
X33877335Y-17730121D01*
X33888125Y-17724354D01*
X33899830Y-17720803D01*
X33918138Y-17719000D01*
X34281862Y-17719000D01*
X34300170Y-17720803D01*
X34300170Y-17720803D01*
G37*
G36*
X33476000Y-18796000D02*
G01*
X32124000Y-18796000D01*
X32124000Y-17194000D01*
X33476000Y-17194000D01*
X33476000Y-18796000D01*
X33476000Y-18796000D01*
G37*
G36*
X39466601Y-17384397D02*
G01*
X39505305Y-17392096D01*
X39537340Y-17405365D01*
X39614680Y-17437400D01*
X39713115Y-17503173D01*
X39796828Y-17586886D01*
X39861067Y-17683026D01*
X39876613Y-17701968D01*
X39895555Y-17717513D01*
X39917165Y-17729064D01*
X39940614Y-17736177D01*
X39965000Y-17738579D01*
X39989386Y-17736177D01*
X40012835Y-17729064D01*
X40034446Y-17717513D01*
X40053388Y-17701967D01*
X40068933Y-17683026D01*
X40133172Y-17586886D01*
X40216885Y-17503173D01*
X40315320Y-17437400D01*
X40392660Y-17405365D01*
X40424695Y-17392096D01*
X40463399Y-17384397D01*
X40540805Y-17369000D01*
X40659195Y-17369000D01*
X40736601Y-17384397D01*
X40775305Y-17392096D01*
X40807340Y-17405365D01*
X40884680Y-17437400D01*
X40983115Y-17503173D01*
X41066827Y-17586885D01*
X41132600Y-17685320D01*
X41164546Y-17762447D01*
X41177904Y-17794695D01*
X41182540Y-17818000D01*
X41201000Y-17910805D01*
X41201000Y-18029195D01*
X41191156Y-18078682D01*
X41177904Y-18145305D01*
X41174462Y-18153615D01*
X41132600Y-18254680D01*
X41066827Y-18353115D01*
X40983115Y-18436827D01*
X40884680Y-18502600D01*
X40807340Y-18534635D01*
X40775305Y-18547904D01*
X40736601Y-18555603D01*
X40659195Y-18571000D01*
X40540805Y-18571000D01*
X40463399Y-18555603D01*
X40424695Y-18547904D01*
X40392660Y-18534635D01*
X40315320Y-18502600D01*
X40216885Y-18436827D01*
X40133172Y-18353114D01*
X40068933Y-18256974D01*
X40053387Y-18238032D01*
X40034445Y-18222487D01*
X40012835Y-18210936D01*
X39989386Y-18203823D01*
X39965000Y-18201421D01*
X39940614Y-18203823D01*
X39917165Y-18210936D01*
X39895554Y-18222487D01*
X39876612Y-18238033D01*
X39861067Y-18256974D01*
X39796828Y-18353114D01*
X39713115Y-18436827D01*
X39614680Y-18502600D01*
X39537340Y-18534635D01*
X39505305Y-18547904D01*
X39466601Y-18555603D01*
X39389195Y-18571000D01*
X39270805Y-18571000D01*
X39193399Y-18555603D01*
X39154695Y-18547904D01*
X39122660Y-18534635D01*
X39045320Y-18502600D01*
X38946885Y-18436827D01*
X38863173Y-18353115D01*
X38797400Y-18254680D01*
X38755538Y-18153615D01*
X38752096Y-18145305D01*
X38738844Y-18078682D01*
X38729000Y-18029195D01*
X38729000Y-17910805D01*
X38747460Y-17818000D01*
X38752096Y-17794695D01*
X38765454Y-17762447D01*
X38797400Y-17685320D01*
X38863173Y-17586885D01*
X38946885Y-17503173D01*
X39045320Y-17437400D01*
X39122660Y-17405365D01*
X39154695Y-17392096D01*
X39193399Y-17384397D01*
X39270805Y-17369000D01*
X39389195Y-17369000D01*
X39466601Y-17384397D01*
X39466601Y-17384397D01*
G37*
G36*
X37826000Y-18421000D02*
G01*
X36924000Y-18421000D01*
X36924000Y-17519000D01*
X37826000Y-17519000D01*
X37826000Y-18421000D01*
X37826000Y-18421000D01*
G37*
G36*
X35576000Y-18421000D02*
G01*
X34674000Y-18421000D01*
X34674000Y-17519000D01*
X35576000Y-17519000D01*
X35576000Y-18421000D01*
X35576000Y-18421000D01*
G37*
G36*
X28126977Y-18202387D02*
G01*
X28129461Y-18202881D01*
X28131021Y-18203527D01*
X28147844Y-18210496D01*
X28164379Y-18221544D01*
X28164381Y-18221546D01*
X28164384Y-18221548D01*
X28178452Y-18235616D01*
X28178454Y-18235619D01*
X28178456Y-18235621D01*
X28188063Y-18250000D01*
X28189505Y-18252158D01*
X28195400Y-18266389D01*
X28197119Y-18270539D01*
X28201000Y-18290051D01*
X28201000Y-18309949D01*
X28197119Y-18329461D01*
X28189504Y-18347844D01*
X28178456Y-18364379D01*
X28178454Y-18364381D01*
X28178452Y-18364384D01*
X28164384Y-18378452D01*
X28164381Y-18378454D01*
X28164379Y-18378456D01*
X28147844Y-18389504D01*
X28129461Y-18397119D01*
X28109949Y-18401000D01*
X28090051Y-18401000D01*
X28070539Y-18397119D01*
X28052156Y-18389504D01*
X28035621Y-18378456D01*
X28035619Y-18378454D01*
X28035616Y-18378452D01*
X28021548Y-18364384D01*
X28021546Y-18364381D01*
X28021544Y-18364379D01*
X28010496Y-18347844D01*
X28002881Y-18329461D01*
X27999000Y-18309949D01*
X27999000Y-18290051D01*
X28002881Y-18270539D01*
X28004600Y-18266389D01*
X28010495Y-18252158D01*
X28011937Y-18250000D01*
X28021544Y-18235621D01*
X28021546Y-18235619D01*
X28021548Y-18235616D01*
X28035616Y-18221548D01*
X28035619Y-18221546D01*
X28035621Y-18221544D01*
X28052156Y-18210496D01*
X28068980Y-18203527D01*
X28070539Y-18202881D01*
X28073023Y-18202387D01*
X28090051Y-18199000D01*
X28109949Y-18199000D01*
X28126977Y-18202387D01*
X28126977Y-18202387D01*
G37*
G36*
X21064260Y-17291171D02*
G01*
X21098071Y-17305176D01*
X21141784Y-17323282D01*
X21141787Y-17323284D01*
X21211559Y-17369904D01*
X21270896Y-17429241D01*
X21276348Y-17437401D01*
X21317518Y-17499016D01*
X21325795Y-17519000D01*
X21349629Y-17576540D01*
X21366000Y-17658843D01*
X21366000Y-17742757D01*
X21349629Y-17825060D01*
X21335624Y-17858871D01*
X21317518Y-17902584D01*
X21317516Y-17902587D01*
X21270896Y-17972359D01*
X21211559Y-18031696D01*
X21171655Y-18058359D01*
X21141784Y-18078318D01*
X21098071Y-18096424D01*
X21064260Y-18110429D01*
X20981957Y-18126800D01*
X20898043Y-18126800D01*
X20815740Y-18110429D01*
X20781929Y-18096424D01*
X20738216Y-18078318D01*
X20708345Y-18058359D01*
X20668441Y-18031696D01*
X20609104Y-17972359D01*
X20562484Y-17902587D01*
X20562482Y-17902584D01*
X20544376Y-17858871D01*
X20530371Y-17825060D01*
X20514000Y-17742757D01*
X20514000Y-17658843D01*
X20530371Y-17576540D01*
X20554205Y-17519000D01*
X20562482Y-17499016D01*
X20603652Y-17437401D01*
X20609104Y-17429241D01*
X20668441Y-17369904D01*
X20738213Y-17323284D01*
X20738216Y-17323282D01*
X20781929Y-17305176D01*
X20815740Y-17291171D01*
X20898043Y-17274800D01*
X20981957Y-17274800D01*
X21064260Y-17291171D01*
X21064260Y-17291171D01*
G37*
G36*
X23604260Y-17291171D02*
G01*
X23638071Y-17305176D01*
X23681784Y-17323282D01*
X23681787Y-17323284D01*
X23751559Y-17369904D01*
X23810896Y-17429241D01*
X23816348Y-17437401D01*
X23857518Y-17499016D01*
X23865795Y-17519000D01*
X23889629Y-17576540D01*
X23906000Y-17658843D01*
X23906000Y-17742757D01*
X23889629Y-17825060D01*
X23875624Y-17858871D01*
X23857518Y-17902584D01*
X23857516Y-17902587D01*
X23810896Y-17972359D01*
X23751559Y-18031696D01*
X23711655Y-18058359D01*
X23681784Y-18078318D01*
X23638071Y-18096424D01*
X23604260Y-18110429D01*
X23521957Y-18126800D01*
X23438043Y-18126800D01*
X23355740Y-18110429D01*
X23321929Y-18096424D01*
X23278216Y-18078318D01*
X23248345Y-18058359D01*
X23208441Y-18031696D01*
X23149104Y-17972359D01*
X23102484Y-17902587D01*
X23102482Y-17902584D01*
X23084376Y-17858871D01*
X23070371Y-17825060D01*
X23054000Y-17742757D01*
X23054000Y-17658843D01*
X23070371Y-17576540D01*
X23094205Y-17519000D01*
X23102482Y-17499016D01*
X23143652Y-17437401D01*
X23149104Y-17429241D01*
X23208441Y-17369904D01*
X23278213Y-17323284D01*
X23278216Y-17323282D01*
X23321929Y-17305176D01*
X23355740Y-17291171D01*
X23438043Y-17274800D01*
X23521957Y-17274800D01*
X23604260Y-17291171D01*
X23604260Y-17291171D01*
G37*
G36*
X24874260Y-17291171D02*
G01*
X24908071Y-17305176D01*
X24951784Y-17323282D01*
X24951787Y-17323284D01*
X25021559Y-17369904D01*
X25080896Y-17429241D01*
X25086348Y-17437401D01*
X25127518Y-17499016D01*
X25135795Y-17519000D01*
X25159629Y-17576540D01*
X25176000Y-17658843D01*
X25176000Y-17742757D01*
X25159629Y-17825060D01*
X25145624Y-17858871D01*
X25127518Y-17902584D01*
X25127516Y-17902587D01*
X25080896Y-17972359D01*
X25021559Y-18031696D01*
X24981655Y-18058359D01*
X24951784Y-18078318D01*
X24908071Y-18096424D01*
X24874260Y-18110429D01*
X24791957Y-18126800D01*
X24708043Y-18126800D01*
X24625740Y-18110429D01*
X24591929Y-18096424D01*
X24548216Y-18078318D01*
X24518345Y-18058359D01*
X24478441Y-18031696D01*
X24419104Y-17972359D01*
X24372484Y-17902587D01*
X24372482Y-17902584D01*
X24354376Y-17858871D01*
X24340371Y-17825060D01*
X24324000Y-17742757D01*
X24324000Y-17658843D01*
X24340371Y-17576540D01*
X24364205Y-17519000D01*
X24372482Y-17499016D01*
X24413652Y-17437401D01*
X24419104Y-17429241D01*
X24478441Y-17369904D01*
X24548213Y-17323284D01*
X24548216Y-17323282D01*
X24591929Y-17305176D01*
X24625740Y-17291171D01*
X24708043Y-17274800D01*
X24791957Y-17274800D01*
X24874260Y-17291171D01*
X24874260Y-17291171D01*
G37*
G36*
X22334260Y-17291171D02*
G01*
X22368071Y-17305176D01*
X22411784Y-17323282D01*
X22411787Y-17323284D01*
X22481559Y-17369904D01*
X22540896Y-17429241D01*
X22546348Y-17437401D01*
X22587518Y-17499016D01*
X22595795Y-17519000D01*
X22619629Y-17576540D01*
X22636000Y-17658843D01*
X22636000Y-17742757D01*
X22619629Y-17825060D01*
X22605624Y-17858871D01*
X22587518Y-17902584D01*
X22587516Y-17902587D01*
X22540896Y-17972359D01*
X22481559Y-18031696D01*
X22441655Y-18058359D01*
X22411784Y-18078318D01*
X22368071Y-18096424D01*
X22334260Y-18110429D01*
X22251957Y-18126800D01*
X22168043Y-18126800D01*
X22085740Y-18110429D01*
X22051929Y-18096424D01*
X22008216Y-18078318D01*
X21978345Y-18058359D01*
X21938441Y-18031696D01*
X21879104Y-17972359D01*
X21832484Y-17902587D01*
X21832482Y-17902584D01*
X21814376Y-17858871D01*
X21800371Y-17825060D01*
X21784000Y-17742757D01*
X21784000Y-17658843D01*
X21800371Y-17576540D01*
X21824205Y-17519000D01*
X21832482Y-17499016D01*
X21873652Y-17437401D01*
X21879104Y-17429241D01*
X21938441Y-17369904D01*
X22008213Y-17323284D01*
X22008216Y-17323282D01*
X22051929Y-17305176D01*
X22085740Y-17291171D01*
X22168043Y-17274800D01*
X22251957Y-17274800D01*
X22334260Y-17291171D01*
X22334260Y-17291171D01*
G37*
G36*
X44110170Y-17220803D02*
G01*
X44121877Y-17224355D01*
X44141077Y-17234617D01*
X44163716Y-17243994D01*
X44187749Y-17248774D01*
X44212253Y-17248774D01*
X44236286Y-17243993D01*
X44258923Y-17234617D01*
X44278123Y-17224355D01*
X44289830Y-17220803D01*
X44308138Y-17219000D01*
X44731862Y-17219000D01*
X44750170Y-17220803D01*
X44761875Y-17224354D01*
X44772665Y-17230121D01*
X44782119Y-17237881D01*
X44789879Y-17247335D01*
X44795646Y-17258125D01*
X44799197Y-17269830D01*
X44801000Y-17288138D01*
X44801000Y-17651862D01*
X44799197Y-17670170D01*
X44795646Y-17681875D01*
X44789879Y-17692665D01*
X44782119Y-17702119D01*
X44772665Y-17709879D01*
X44761875Y-17715646D01*
X44750170Y-17719197D01*
X44731862Y-17721000D01*
X44308138Y-17721000D01*
X44289830Y-17719197D01*
X44278123Y-17715645D01*
X44258923Y-17705383D01*
X44236284Y-17696006D01*
X44212251Y-17691226D01*
X44187747Y-17691226D01*
X44163714Y-17696007D01*
X44141077Y-17705383D01*
X44121877Y-17715645D01*
X44110170Y-17719197D01*
X44091862Y-17721000D01*
X43668138Y-17721000D01*
X43649830Y-17719197D01*
X43638125Y-17715646D01*
X43627335Y-17709879D01*
X43617881Y-17702119D01*
X43610121Y-17692665D01*
X43604354Y-17681875D01*
X43600803Y-17670170D01*
X43599000Y-17651862D01*
X43599000Y-17288138D01*
X43600803Y-17269830D01*
X43604354Y-17258125D01*
X43610121Y-17247335D01*
X43617881Y-17237881D01*
X43627335Y-17230121D01*
X43638125Y-17224354D01*
X43649830Y-17220803D01*
X43668138Y-17219000D01*
X44091862Y-17219000D01*
X44110170Y-17220803D01*
X44110170Y-17220803D01*
G37*
G36*
X42610170Y-17220803D02*
G01*
X42621877Y-17224355D01*
X42641077Y-17234617D01*
X42663716Y-17243994D01*
X42687749Y-17248774D01*
X42712253Y-17248774D01*
X42736286Y-17243993D01*
X42758923Y-17234617D01*
X42778123Y-17224355D01*
X42789830Y-17220803D01*
X42808138Y-17219000D01*
X43231862Y-17219000D01*
X43250170Y-17220803D01*
X43261875Y-17224354D01*
X43272665Y-17230121D01*
X43282119Y-17237881D01*
X43289879Y-17247335D01*
X43295646Y-17258125D01*
X43299197Y-17269830D01*
X43301000Y-17288138D01*
X43301000Y-17651862D01*
X43299197Y-17670170D01*
X43295646Y-17681875D01*
X43289879Y-17692665D01*
X43282119Y-17702119D01*
X43272665Y-17709879D01*
X43261875Y-17715646D01*
X43250170Y-17719197D01*
X43231862Y-17721000D01*
X42808138Y-17721000D01*
X42789830Y-17719197D01*
X42778123Y-17715645D01*
X42758923Y-17705383D01*
X42736284Y-17696006D01*
X42712251Y-17691226D01*
X42687747Y-17691226D01*
X42663714Y-17696007D01*
X42641077Y-17705383D01*
X42621877Y-17715645D01*
X42610170Y-17719197D01*
X42591862Y-17721000D01*
X42168138Y-17721000D01*
X42149830Y-17719197D01*
X42138125Y-17715646D01*
X42127335Y-17709879D01*
X42117881Y-17702119D01*
X42110121Y-17692665D01*
X42104354Y-17681875D01*
X42100803Y-17670170D01*
X42099000Y-17651862D01*
X42099000Y-17288138D01*
X42100803Y-17269830D01*
X42104354Y-17258125D01*
X42110121Y-17247335D01*
X42117881Y-17237881D01*
X42127335Y-17230121D01*
X42138125Y-17224354D01*
X42149830Y-17220803D01*
X42168138Y-17219000D01*
X42591862Y-17219000D01*
X42610170Y-17220803D01*
X42610170Y-17220803D01*
G37*
M02*
