G04 #@! TF.GenerationSoftware,KiCad,Pcbnew,5.1.4+dfsg1-1~bpo10+1*
G04 #@! TF.CreationDate,2020-02-13T12:35:02+01:00*
G04 #@! TF.ProjectId,qomu-board,716f6d75-2d62-46f6-9172-642e6b696361,rev?*
G04 #@! TF.SameCoordinates,Original*
G04 #@! TF.FileFunction,Legend,Bot*
G04 #@! TF.FilePolarity,Positive*
%FSLAX46Y46*%
G04 Gerber Fmt 4.6, Leading zero omitted, Abs format (unit mm)*
G04 Created by KiCad (PCBNEW 5.1.4+dfsg1-1~bpo10+1) date 2020-02-13 12:35:02*
%MOMM*%
%LPD*%
G04 APERTURE LIST*
%ADD10C,0.120000*%
%ADD11C,0.150000*%
%ADD12C,0.300000*%
%ADD13C,0.100000*%
%ADD14C,0.200000*%
G04 APERTURE END LIST*
D10*
X43859523Y-18196190D02*
X43764285Y-18196190D01*
X43716666Y-18220000D01*
X43669047Y-18267619D01*
X43645238Y-18362857D01*
X43645238Y-18529523D01*
X43669047Y-18624761D01*
X43716666Y-18672380D01*
X43764285Y-18696190D01*
X43859523Y-18696190D01*
X43907142Y-18672380D01*
X43954761Y-18624761D01*
X43978571Y-18529523D01*
X43978571Y-18362857D01*
X43954761Y-18267619D01*
X43907142Y-18220000D01*
X43859523Y-18196190D01*
X43430952Y-18696190D02*
X43430952Y-18196190D01*
X43145238Y-18696190D01*
X43145238Y-18196190D01*
D11*
X43460000Y-16660000D02*
X43670000Y-17020000D01*
X43450000Y-16670000D02*
X43240000Y-17030000D01*
X43450000Y-17520000D02*
X43450000Y-16670000D01*
D10*
X33638571Y-20551428D02*
X33981428Y-20551428D01*
X33810000Y-20551428D02*
X33810000Y-19951428D01*
X33867142Y-20037142D01*
X33924285Y-20094285D01*
X33981428Y-20122857D01*
X33147142Y-24130000D02*
X33204285Y-24101428D01*
X33290000Y-24101428D01*
X33375714Y-24130000D01*
X33432857Y-24187142D01*
X33461428Y-24244285D01*
X33490000Y-24358571D01*
X33490000Y-24444285D01*
X33461428Y-24558571D01*
X33432857Y-24615714D01*
X33375714Y-24672857D01*
X33290000Y-24701428D01*
X33232857Y-24701428D01*
X33147142Y-24672857D01*
X33118571Y-24644285D01*
X33118571Y-24444285D01*
X33232857Y-24444285D01*
X32861428Y-24701428D02*
X32861428Y-24101428D01*
X32518571Y-24701428D01*
X32518571Y-24101428D01*
X32232857Y-24701428D02*
X32232857Y-24101428D01*
X32090000Y-24101428D01*
X32004285Y-24130000D01*
X31947142Y-24187142D01*
X31918571Y-24244285D01*
X31890000Y-24358571D01*
X31890000Y-24444285D01*
X31918571Y-24558571D01*
X31947142Y-24615714D01*
X32004285Y-24672857D01*
X32090000Y-24701428D01*
X32232857Y-24701428D01*
X32910000Y-22141428D02*
X33110000Y-21855714D01*
X33252857Y-22141428D02*
X33252857Y-21541428D01*
X33024285Y-21541428D01*
X32967142Y-21570000D01*
X32938571Y-21598571D01*
X32910000Y-21655714D01*
X32910000Y-21741428D01*
X32938571Y-21798571D01*
X32967142Y-21827142D01*
X33024285Y-21855714D01*
X33252857Y-21855714D01*
X32710000Y-21541428D02*
X32310000Y-22141428D01*
X32310000Y-21541428D02*
X32710000Y-22141428D01*
X33257142Y-18971428D02*
X32914285Y-18971428D01*
X33085714Y-19571428D02*
X33085714Y-18971428D01*
X32771428Y-18971428D02*
X32371428Y-19571428D01*
X32371428Y-18971428D02*
X32771428Y-19571428D01*
X33028571Y-16862857D02*
X32571428Y-16862857D01*
X32800000Y-17091428D02*
X32800000Y-16634285D01*
D11*
X22950000Y-17340000D02*
X22950000Y-17260000D01*
X22980000Y-18000000D02*
X22980000Y-18120000D01*
X21460000Y-17870000D02*
X21460000Y-17980000D01*
X21690000Y-17870000D02*
X21460000Y-17870000D01*
X21690000Y-17470000D02*
X21690000Y-17870000D01*
X21460000Y-17470000D02*
X21690000Y-17470000D01*
X21460000Y-17320000D02*
X21460000Y-17470000D01*
X22950000Y-17340000D02*
X22750000Y-17340000D01*
X22970000Y-18000000D02*
X22750000Y-18000000D01*
X22750000Y-17780000D02*
X22750000Y-18000000D01*
X20310000Y-17350000D02*
X20190000Y-17550000D01*
X20310000Y-17780000D02*
X20310000Y-17350000D01*
X20310000Y-17350000D02*
X20440000Y-17550000D01*
X22960000Y-17560000D02*
X22960000Y-17780000D01*
X22960000Y-17780000D02*
X22750000Y-17780000D01*
X22750000Y-17560000D02*
X22960000Y-17560000D01*
X22750000Y-17340000D02*
X22750000Y-17560000D01*
X24120000Y-17780000D02*
X24240000Y-17580000D01*
X24120000Y-17350000D02*
X24120000Y-17780000D01*
X24120000Y-17780000D02*
X23990000Y-17580000D01*
X25410000Y-17340000D02*
X25250000Y-17340000D01*
X25410000Y-17770000D02*
X25410000Y-17340000D01*
X25410000Y-17340000D02*
X25570000Y-17340000D01*
D10*
X21195238Y-26258571D02*
X21219047Y-26282380D01*
X21290476Y-26306190D01*
X21338095Y-26306190D01*
X21409523Y-26282380D01*
X21457142Y-26234761D01*
X21480952Y-26187142D01*
X21504761Y-26091904D01*
X21504761Y-26020476D01*
X21480952Y-25925238D01*
X21457142Y-25877619D01*
X21409523Y-25830000D01*
X21338095Y-25806190D01*
X21290476Y-25806190D01*
X21219047Y-25830000D01*
X21195238Y-25853809D01*
X24037142Y-26044285D02*
X23870476Y-26044285D01*
X23799047Y-26306190D02*
X24037142Y-26306190D01*
X24037142Y-25806190D01*
X23799047Y-25806190D01*
X18718571Y-26054285D02*
X18885238Y-26054285D01*
X18885238Y-26316190D02*
X18885238Y-25816190D01*
X18647142Y-25816190D01*
D11*
X22590000Y-26300000D02*
X22430000Y-26300000D01*
X22590000Y-26300000D02*
X22750000Y-26300000D01*
X22590000Y-25870000D02*
X22590000Y-26300000D01*
D10*
X19915238Y-26316190D02*
X20081904Y-26078095D01*
X20200952Y-26316190D02*
X20200952Y-25816190D01*
X20010476Y-25816190D01*
X19962857Y-25840000D01*
X19939047Y-25863809D01*
X19915238Y-25911428D01*
X19915238Y-25982857D01*
X19939047Y-26030476D01*
X19962857Y-26054285D01*
X20010476Y-26078095D01*
X20200952Y-26078095D01*
D12*
X19490491Y-21116091D02*
G75*
G03X19490491Y-21116091I-126491J0D01*
G01*
D11*
X20400000Y-20895000D02*
X19975000Y-20895000D01*
X20000000Y-18595000D02*
X20000000Y-18495000D01*
X20400000Y-18595000D02*
X20000000Y-18595000D01*
X23300000Y-18595000D02*
X23300000Y-18495000D01*
X22900000Y-18595000D02*
X23300000Y-18595000D01*
X23300000Y-20895000D02*
X23300000Y-20995000D01*
X22900000Y-20895000D02*
X23300000Y-20895000D01*
D13*
X44525000Y-17935000D02*
X45125000Y-17935000D01*
X45125000Y-17935000D02*
X45125000Y-18660000D01*
X44525000Y-26485000D02*
X45125000Y-26485000D01*
X45125000Y-26485000D02*
X45125000Y-25810000D01*
X35225000Y-18795000D02*
X35225000Y-18495000D01*
X35600000Y-18795000D02*
X35225000Y-18795000D01*
X37275000Y-18795000D02*
X37275000Y-18520000D01*
X36950000Y-18795000D02*
X37275000Y-18795000D01*
X37275000Y-17145000D02*
X36975000Y-17145000D01*
X37275000Y-17470000D02*
X37275000Y-17145000D01*
X35600000Y-17155000D02*
X35225000Y-17155000D01*
X35225000Y-17455000D02*
X35225000Y-17155000D01*
X35710000Y-18480000D02*
X35610000Y-18480000D01*
X35710000Y-17480000D02*
X35710000Y-18480000D01*
X35610000Y-17480000D02*
X35710000Y-17480000D01*
X35610000Y-18480000D02*
X35610000Y-17480000D01*
D11*
X23876158Y-22910000D02*
G75*
G03X23876158Y-22910000I-76158J0D01*
G01*
X23700000Y-22590000D02*
X23975000Y-22590000D01*
X24000000Y-20690000D02*
X24000000Y-20390000D01*
X23700000Y-20690000D02*
X24000000Y-20690000D01*
X25900000Y-20690000D02*
X25900000Y-20390000D01*
X26200000Y-20690000D02*
X25900000Y-20690000D01*
X25900000Y-22590000D02*
X25900000Y-22890000D01*
X26200000Y-22590000D02*
X25900000Y-22590000D01*
D13*
X18930000Y-17479000D02*
G75*
G03X18930000Y-17479000I-50000J0D01*
G01*
X40400000Y-24870000D02*
X40400000Y-24370000D01*
X40200000Y-24870000D02*
X40400000Y-24870000D01*
X40400000Y-21270000D02*
X40400000Y-21770000D01*
X40200000Y-21270000D02*
X40400000Y-21270000D01*
X33800000Y-21270000D02*
X33800000Y-21870000D01*
X34000000Y-21270000D02*
X33800000Y-21270000D01*
X34000000Y-24870000D02*
X33800000Y-24870000D01*
X33800000Y-24870000D02*
X33800000Y-24370000D01*
X38125000Y-19195000D02*
X38125000Y-18695000D01*
X38125000Y-19195000D02*
X38625000Y-19195000D01*
X38125000Y-16745000D02*
X38125000Y-17245000D01*
X38125000Y-16745000D02*
X38625000Y-16745000D01*
X41815000Y-19195000D02*
X41815000Y-18695000D01*
X41815000Y-16745000D02*
X41815000Y-17245000D01*
X41815000Y-19195000D02*
X41315000Y-19195000D01*
X41815000Y-16745000D02*
X41315000Y-16745000D01*
X26590000Y-18319000D02*
G75*
G03X26590000Y-18319000I-50000J0D01*
G01*
X17960000Y-17479000D02*
G75*
G03X17960000Y-17479000I-50000J0D01*
G01*
X26510355Y-19075000D02*
G75*
G03X26510355Y-19075000I-35355J0D01*
G01*
D10*
X20270000Y-25549000D02*
X19270000Y-25549000D01*
X20430000Y-24289000D02*
X19270000Y-24289000D01*
X24075000Y-23060000D02*
X25075000Y-23060000D01*
X23915000Y-24320000D02*
X25075000Y-24320000D01*
D11*
X22099000Y-24006000D02*
X22763000Y-24006000D01*
X22763000Y-24006000D02*
X22763000Y-23400500D01*
X22099000Y-24006000D02*
X22763000Y-24006000D01*
X22763000Y-24006000D02*
X22763000Y-23400500D01*
X22099000Y-21284000D02*
X22763000Y-21284000D01*
X22763000Y-21284000D02*
X22763000Y-21889500D01*
X22099000Y-24006000D02*
X22763000Y-24006000D01*
X22763000Y-24006000D02*
X22763000Y-23400500D01*
X20471000Y-21284000D02*
X19807000Y-21284000D01*
X19807000Y-21284000D02*
X19807000Y-21889500D01*
X20957000Y-24006000D02*
X19807000Y-22856000D01*
D14*
X20057000Y-23856000D02*
G75*
G03X20057000Y-23856000I-100000J0D01*
G01*
M02*
