M48
; DRILL file {KiCad 5.1.4+dfsg1-1~bpo10+1} date Thu Feb 13 12:34:59 2020
; FORMAT={-:-/ absolute / metric / decimal}
; #@! TF.CreationDate,2020-02-13T12:34:59+01:00
; #@! TF.GenerationSoftware,Kicad,Pcbnew,5.1.4+dfsg1-1~bpo10+1
; #@! TF.FileFunction,Plated,4,5,Buried
FMAT,2
METRIC
T1C0.100
T2C0.150
%
G90
G05
T1
X18.29Y-22.42
X18.81Y-25.99
X20.15Y-19.49
X20.3Y-25.63
X20.937Y-22.467
X20.937Y-22.823
X21.284Y-22.819
X21.292Y-22.467
X21.635Y-22.124
X21.635Y-22.467
X21.635Y-22.823
X22.26Y-21.389
X22.29Y-24.55
X26.32Y-23.64
T2
X17.38Y-25.76
X18.82Y-25.23
X19.77Y-25.28
X19.79Y-24.209
X20.23Y-25.25
X21.0Y-25.83
X21.37Y-26.07
X23.23Y-25.2
X23.24Y-23.879
X24.13Y-21.07
X24.22Y-22.449
X24.5Y-20.584
X24.58Y-24.74
X25.375Y-20.609
X25.86Y-26.08
X25.89Y-23.159
X26.27Y-22.91
T0
M30
