G04 #@! TF.GenerationSoftware,KiCad,Pcbnew,5.1.4+dfsg1-1~bpo10+1*
G04 #@! TF.CreationDate,2019-12-19T14:53:47+01:00*
G04 #@! TF.ProjectId,qomu-board,716f6d75-2d62-46f6-9172-642e6b696361,rev?*
G04 #@! TF.SameCoordinates,Original*
G04 #@! TF.FileFunction,Other,User*
%FSLAX46Y46*%
G04 Gerber Fmt 4.6, Leading zero omitted, Abs format (unit mm)*
G04 Created by KiCad (PCBNEW 5.1.4+dfsg1-1~bpo10+1) date 2019-12-19 14:53:47*
%MOMM*%
%LPD*%
G04 APERTURE LIST*
%ADD10C,0.050000*%
%ADD11C,0.030000*%
G04 APERTURE END LIST*
D10*
X34500000Y-18970000D02*
X38000000Y-18970000D01*
X38000000Y-18970000D02*
X38000000Y-16970000D01*
X38000000Y-16970000D02*
X34500000Y-16970000D01*
X34500000Y-16970000D02*
X34500000Y-18970000D01*
X23700000Y-20390000D02*
X23700000Y-22890000D01*
X26200000Y-20390000D02*
X23700000Y-20390000D01*
X26200000Y-22890000D02*
X26200000Y-20390000D01*
X23700000Y-22890000D02*
X26200000Y-22890000D01*
X19700000Y-21195000D02*
X23600000Y-21195000D01*
X23600000Y-21195000D02*
X23600000Y-18295000D01*
X23600000Y-18295000D02*
X19700000Y-18295000D01*
X19700000Y-18295000D02*
X19700000Y-21195000D01*
X40650000Y-21470000D02*
X40650000Y-22170000D01*
X40650000Y-22170000D02*
X42050000Y-22170000D01*
X42050000Y-22170000D02*
X42050000Y-21470000D01*
X42050000Y-21470000D02*
X40650000Y-21470000D01*
X40650000Y-20720000D02*
X40650000Y-21420000D01*
X40650000Y-21420000D02*
X42050000Y-21420000D01*
X42050000Y-21420000D02*
X42050000Y-20720000D01*
X42050000Y-20720000D02*
X40650000Y-20720000D01*
X40530000Y-26750000D02*
X33670000Y-26750000D01*
X40530000Y-26750000D02*
X40530000Y-19390000D01*
X33670000Y-26750000D02*
X33670000Y-19390000D01*
X40530000Y-19390000D02*
X33670000Y-19390000D01*
X41925000Y-19295000D02*
X38015000Y-19295000D01*
X38015000Y-16645000D02*
X38015000Y-19295000D01*
X41925000Y-16645000D02*
X38015000Y-16645000D01*
X41925000Y-16645000D02*
X41925000Y-19295000D01*
X23600000Y-24815000D02*
X23600000Y-24115000D01*
X23600000Y-24115000D02*
X22200000Y-24115000D01*
X22200000Y-24115000D02*
X22200000Y-24815000D01*
X22200000Y-24815000D02*
X23600000Y-24815000D01*
X19540000Y-21659000D02*
X19540000Y-20959000D01*
X19540000Y-20959000D02*
X18140000Y-20959000D01*
X18140000Y-20959000D02*
X18140000Y-21659000D01*
X18140000Y-21659000D02*
X19540000Y-21659000D01*
X17400000Y-24579000D02*
X18100000Y-24579000D01*
X18100000Y-24579000D02*
X18100000Y-23179000D01*
X18100000Y-23179000D02*
X17400000Y-23179000D01*
X17400000Y-23179000D02*
X17400000Y-24579000D01*
X17400000Y-23169000D02*
X18100000Y-23169000D01*
X18100000Y-23169000D02*
X18100000Y-21769000D01*
X18100000Y-21769000D02*
X17400000Y-21769000D01*
X17400000Y-21769000D02*
X17400000Y-23169000D01*
D11*
X26425000Y-19125000D02*
X25225000Y-19125000D01*
X25225000Y-19125000D02*
X25225000Y-20325000D01*
X25225000Y-20325000D02*
X26425000Y-20325000D01*
X26425000Y-20325000D02*
X26425000Y-19125000D01*
D10*
X20680000Y-25669000D02*
X20680000Y-24169000D01*
X18860000Y-25669000D02*
X20680000Y-25669000D01*
X18860000Y-24169000D02*
X18860000Y-25669000D01*
X20680000Y-24169000D02*
X18860000Y-24169000D01*
X23665000Y-22940000D02*
X23665000Y-24440000D01*
X25485000Y-22940000D02*
X23665000Y-22940000D01*
X25485000Y-24440000D02*
X25485000Y-22940000D01*
X23665000Y-24440000D02*
X25485000Y-24440000D01*
X27200000Y-19069000D02*
X26500000Y-19069000D01*
X26500000Y-19069000D02*
X26500000Y-20469000D01*
X26500000Y-20469000D02*
X27200000Y-20469000D01*
X27200000Y-20469000D02*
X27200000Y-19069000D01*
X27200000Y-18989000D02*
X27200000Y-17589000D01*
X26500000Y-18989000D02*
X27200000Y-18989000D01*
X26500000Y-17589000D02*
X26500000Y-18989000D01*
X27200000Y-17589000D02*
X26500000Y-17589000D01*
X25150000Y-18909000D02*
X24450000Y-18909000D01*
X24450000Y-18909000D02*
X24450000Y-20309000D01*
X24450000Y-20309000D02*
X25150000Y-20309000D01*
X25150000Y-20309000D02*
X25150000Y-18909000D01*
X43500000Y-17120000D02*
X43500000Y-17820000D01*
X43500000Y-17820000D02*
X44900000Y-17820000D01*
X44900000Y-17820000D02*
X44900000Y-17120000D01*
X44900000Y-17120000D02*
X43500000Y-17120000D01*
X43400000Y-17820000D02*
X43400000Y-17120000D01*
X43400000Y-17120000D02*
X42000000Y-17120000D01*
X42000000Y-17120000D02*
X42000000Y-17820000D01*
X42000000Y-17820000D02*
X43400000Y-17820000D01*
X19440000Y-20239000D02*
X19440000Y-19539000D01*
X19440000Y-19539000D02*
X18040000Y-19539000D01*
X18040000Y-19539000D02*
X18040000Y-20239000D01*
X18040000Y-20239000D02*
X19440000Y-20239000D01*
X19440000Y-19529000D02*
X19440000Y-18829000D01*
X19440000Y-18829000D02*
X18040000Y-18829000D01*
X18040000Y-18829000D02*
X18040000Y-19529000D01*
X18040000Y-19529000D02*
X19440000Y-19529000D01*
X19440000Y-20949000D02*
X19440000Y-20249000D01*
X19440000Y-20249000D02*
X18040000Y-20249000D01*
X18040000Y-20249000D02*
X18040000Y-20949000D01*
X18040000Y-20949000D02*
X19440000Y-20949000D01*
X26930000Y-20519000D02*
X26230000Y-20519000D01*
X26230000Y-20519000D02*
X26230000Y-21919000D01*
X26230000Y-21919000D02*
X26930000Y-21919000D01*
X26930000Y-21919000D02*
X26930000Y-20519000D01*
X40900000Y-26720000D02*
X41600000Y-26720000D01*
X41600000Y-26720000D02*
X41600000Y-25320000D01*
X41600000Y-25320000D02*
X40900000Y-25320000D01*
X40900000Y-25320000D02*
X40900000Y-26720000D01*
X25060000Y-25905000D02*
X25060000Y-25205000D01*
X25060000Y-25205000D02*
X23660000Y-25205000D01*
X23660000Y-25205000D02*
X23660000Y-25905000D01*
X23660000Y-25905000D02*
X25060000Y-25905000D01*
X25090000Y-24479000D02*
X25090000Y-25179000D01*
X25090000Y-25179000D02*
X26490000Y-25179000D01*
X26490000Y-25179000D02*
X26490000Y-24479000D01*
X26490000Y-24479000D02*
X25090000Y-24479000D01*
X26490000Y-25909000D02*
X26490000Y-25209000D01*
X26490000Y-25209000D02*
X25090000Y-25209000D01*
X25090000Y-25209000D02*
X25090000Y-25909000D01*
X25090000Y-25909000D02*
X26490000Y-25909000D01*
X22200000Y-24869000D02*
X22200000Y-25569000D01*
X22200000Y-25569000D02*
X23600000Y-25569000D01*
X23600000Y-25569000D02*
X23600000Y-24869000D01*
X23600000Y-24869000D02*
X22200000Y-24869000D01*
X18020000Y-19924000D02*
X18020000Y-18874000D01*
X18020000Y-18874000D02*
X17520000Y-18874000D01*
X17520000Y-18874000D02*
X17520000Y-19924000D01*
X17520000Y-19924000D02*
X18020000Y-19924000D01*
X17530000Y-20494000D02*
X17530000Y-21544000D01*
X17530000Y-21544000D02*
X18030000Y-21544000D01*
X18030000Y-21544000D02*
X18030000Y-20494000D01*
X18030000Y-20494000D02*
X17530000Y-20494000D01*
X17560000Y-24594000D02*
X17560000Y-25644000D01*
X17560000Y-25644000D02*
X18060000Y-25644000D01*
X18060000Y-25644000D02*
X18060000Y-24594000D01*
X18060000Y-24594000D02*
X17560000Y-24594000D01*
X27030000Y-25535000D02*
X27030000Y-24485000D01*
X27030000Y-24485000D02*
X26530000Y-24485000D01*
X26530000Y-24485000D02*
X26530000Y-25535000D01*
X26530000Y-25535000D02*
X27030000Y-25535000D01*
X27700000Y-19684000D02*
X27700000Y-18634000D01*
X27700000Y-18634000D02*
X27200000Y-18634000D01*
X27200000Y-18634000D02*
X27200000Y-19684000D01*
X27200000Y-19684000D02*
X27700000Y-19684000D01*
X26430000Y-23390000D02*
X26430000Y-24440000D01*
X26430000Y-24440000D02*
X26930000Y-24440000D01*
X26930000Y-24440000D02*
X26930000Y-23390000D01*
X26930000Y-23390000D02*
X26430000Y-23390000D01*
X27200000Y-17584000D02*
X27200000Y-18634000D01*
X27200000Y-18634000D02*
X27700000Y-18634000D01*
X27700000Y-18634000D02*
X27700000Y-17584000D01*
X27700000Y-17584000D02*
X27200000Y-17584000D01*
X34450000Y-17620000D02*
X33750000Y-17620000D01*
X33750000Y-17620000D02*
X33750000Y-19020000D01*
X33750000Y-19020000D02*
X34450000Y-19020000D01*
X34450000Y-19020000D02*
X34450000Y-17620000D01*
X23660000Y-24485000D02*
X23660000Y-25185000D01*
X23660000Y-25185000D02*
X25060000Y-25185000D01*
X25060000Y-25185000D02*
X25060000Y-24485000D01*
X25060000Y-24485000D02*
X23660000Y-24485000D01*
X22900000Y-22604000D02*
X23600000Y-22604000D01*
X23600000Y-22604000D02*
X23600000Y-21204000D01*
X23600000Y-21204000D02*
X22900000Y-21204000D01*
X22900000Y-21204000D02*
X22900000Y-22604000D01*
X20740000Y-24109000D02*
X20740000Y-24809000D01*
X20740000Y-24809000D02*
X22140000Y-24809000D01*
X22140000Y-24809000D02*
X22140000Y-24109000D01*
X22140000Y-24109000D02*
X20740000Y-24109000D01*
X23600000Y-22645000D02*
X22900000Y-22645000D01*
X22900000Y-22645000D02*
X22900000Y-24045000D01*
X22900000Y-24045000D02*
X23600000Y-24045000D01*
X23600000Y-24045000D02*
X23600000Y-22645000D01*
X20740000Y-24865000D02*
X20740000Y-25565000D01*
X20740000Y-25565000D02*
X22140000Y-25565000D01*
X22140000Y-25565000D02*
X22140000Y-24865000D01*
X22140000Y-24865000D02*
X20740000Y-24865000D01*
X24450000Y-18909000D02*
X23750000Y-18909000D01*
X23750000Y-18909000D02*
X23750000Y-20309000D01*
X23750000Y-20309000D02*
X24450000Y-20309000D01*
X24450000Y-20309000D02*
X24450000Y-18909000D01*
X26230000Y-23359000D02*
X26930000Y-23359000D01*
X26930000Y-23359000D02*
X26930000Y-21959000D01*
X26930000Y-21959000D02*
X26230000Y-21959000D01*
X26230000Y-21959000D02*
X26230000Y-23359000D01*
X19540000Y-22369000D02*
X19540000Y-21669000D01*
X19540000Y-21669000D02*
X18140000Y-21669000D01*
X18140000Y-21669000D02*
X18140000Y-22369000D01*
X18140000Y-22369000D02*
X19540000Y-22369000D01*
X25500000Y-24340000D02*
X26200000Y-24340000D01*
X26200000Y-24340000D02*
X26200000Y-22940000D01*
X26200000Y-22940000D02*
X25500000Y-22940000D01*
X25500000Y-22940000D02*
X25500000Y-24340000D01*
X18820000Y-24170000D02*
X18120000Y-24170000D01*
X18120000Y-24170000D02*
X18120000Y-25570000D01*
X18120000Y-25570000D02*
X18820000Y-25570000D01*
X18820000Y-25570000D02*
X18820000Y-24170000D01*
X19735000Y-24045000D02*
X22835000Y-24045000D01*
X22835000Y-24045000D02*
X22835000Y-21245000D01*
X22835000Y-21245000D02*
X19735000Y-21245000D01*
X19735000Y-21245000D02*
X19735000Y-24045000D01*
M02*
