G04 #@! TF.GenerationSoftware,KiCad,Pcbnew,5.1.4+dfsg1-1~bpo10+1*
G04 #@! TF.CreationDate,2019-12-19T14:53:47+01:00*
G04 #@! TF.ProjectId,qomu-board,716f6d75-2d62-46f6-9172-642e6b696361,rev?*
G04 #@! TF.SameCoordinates,Original*
G04 #@! TF.FileFunction,Other,Comment*
%FSLAX46Y46*%
G04 Gerber Fmt 4.6, Leading zero omitted, Abs format (unit mm)*
G04 Created by KiCad (PCBNEW 5.1.4+dfsg1-1~bpo10+1) date 2019-12-19 14:53:47*
%MOMM*%
%LPD*%
G04 APERTURE LIST*
%ADD10C,0.100000*%
%ADD11C,0.050000*%
%ADD12C,0.035000*%
%ADD13C,0.037500*%
G04 APERTURE END LIST*
D10*
X21223837Y-25165000D02*
G75*
G02X21419796Y-25005000I195959J-40000D01*
G01*
X20440000Y-17705000D02*
X18440000Y-17705000D01*
X20440000Y-18005000D02*
G75*
G02X20916970Y-18355000I0J-500000D01*
G01*
X27040000Y-25705000D02*
G75*
G02X26540000Y-25205000I0J500000D01*
G01*
X17640000Y-18505000D02*
X17640000Y-25005000D01*
X26540000Y-18105000D02*
X26540000Y-18205000D01*
X17940000Y-18505000D02*
X17940000Y-25005000D01*
X26240000Y-18205000D02*
G75*
G02X26040000Y-18405000I-200000J0D01*
G01*
X20665045Y-24205000D02*
X20665045Y-19205000D01*
X21140000Y-24679955D02*
G75*
G02X20665045Y-24205000I0J474955D01*
G01*
X27150000Y-17605000D02*
X27040000Y-17605000D01*
X26240000Y-18105000D02*
G75*
G02X27040000Y-17305000I800000J0D01*
G01*
X20929898Y-25105000D02*
G75*
G02X20440000Y-25505000I-489898J100000D01*
G01*
X26240000Y-18105000D02*
G75*
G02X27040000Y-17305000I800000J0D01*
G01*
X21223837Y-25165000D02*
G75*
G02X20440000Y-25805000I-783837J160000D01*
G01*
X21223837Y-25165000D02*
G75*
G02X21419796Y-25005000I195959J-40000D01*
G01*
X27050000Y-25705000D02*
X29040000Y-25705000D01*
X26540000Y-18105000D02*
G75*
G02X27040000Y-17605000I500000J0D01*
G01*
X17640000Y-18505000D02*
G75*
G02X18440000Y-17705000I800000J0D01*
G01*
X20940000Y-19205000D02*
G75*
G02X21140000Y-19005000I200000J0D01*
G01*
X26140000Y-19005000D02*
X21140000Y-19005000D01*
X18440000Y-25805000D02*
G75*
G02X17640000Y-25005000I0J800000D01*
G01*
X27030000Y-26005000D02*
X29040000Y-26005000D01*
X28840000Y-21805000D02*
G75*
G03X28840000Y-21805000I-700000J0D01*
G01*
X26040000Y-18405000D02*
X21393939Y-18405000D01*
X27040000Y-26005000D02*
G75*
G02X26240000Y-25205000I0J800000D01*
G01*
X20440000Y-18005000D02*
X18440000Y-18005000D01*
X20665045Y-19205000D02*
G75*
G02X21140000Y-18730045I474955J0D01*
G01*
X21419796Y-25005000D02*
X26040000Y-25005000D01*
X26340000Y-24205000D02*
G75*
G02X26140000Y-24405000I-200000J0D01*
G01*
X21140000Y-24405000D02*
X26140000Y-24405000D01*
X17640000Y-18505000D02*
G75*
G02X18440000Y-17705000I800000J0D01*
G01*
X26540000Y-18205000D02*
G75*
G02X26040000Y-18705000I-500000J0D01*
G01*
X26040000Y-24705000D02*
G75*
G02X26540000Y-25205000I0J-500000D01*
G01*
X18440000Y-25805000D02*
G75*
G02X17640000Y-25005000I0J800000D01*
G01*
X26040000Y-25005000D02*
G75*
G02X26240000Y-25205000I0J-200000D01*
G01*
X18440000Y-25805000D02*
X20440000Y-25805000D01*
X18440000Y-25805000D02*
X20440000Y-25805000D01*
X26240000Y-18205000D02*
G75*
G02X26040000Y-18405000I-200000J0D01*
G01*
X18440000Y-25505000D02*
G75*
G02X17940000Y-25005000I0J500000D01*
G01*
X21393939Y-18405000D02*
G75*
G02X21203151Y-18265000I0J200000D01*
G01*
X21140000Y-24405000D02*
G75*
G02X20940000Y-24205000I0J200000D01*
G01*
X20940000Y-19205000D02*
X20940000Y-24205000D01*
X20440000Y-17705000D02*
G75*
G02X21203151Y-18265000I0J-800000D01*
G01*
X28640000Y-21805000D02*
G75*
G03X28640000Y-21805000I-500000J0D01*
G01*
X26640000Y-19205000D02*
X26640000Y-24205000D01*
X26040000Y-24705000D02*
X26140000Y-24705000D01*
X26640000Y-24205000D02*
G75*
G02X26140000Y-24705000I-500000J0D01*
G01*
X21393939Y-18405000D02*
G75*
G02X21203151Y-18265000I0J200000D01*
G01*
X26240000Y-18105000D02*
X26240000Y-18205000D01*
X26040000Y-18705000D02*
X26140000Y-18705000D01*
X26140000Y-18705000D02*
G75*
G02X26640000Y-19205000I0J-500000D01*
G01*
X29040000Y-26005000D02*
X29040000Y-25705000D01*
X29040000Y-17605000D02*
X29040000Y-17305000D01*
X27150000Y-17305000D02*
X27040000Y-17305000D01*
X26040000Y-18705000D02*
X21393939Y-18705000D01*
X21419796Y-24705000D02*
X26040000Y-24705000D01*
X18440000Y-25505000D02*
X20440000Y-25505000D01*
X20929898Y-25105000D02*
G75*
G02X21419796Y-24705000I489898J-100000D01*
G01*
X27150000Y-17305000D02*
X27040000Y-17305000D01*
X26715000Y-25936010D02*
G75*
G02X26240000Y-25205000I325000J731010D01*
G01*
X26040000Y-18405000D02*
X21393939Y-18405000D01*
X17940000Y-18505000D02*
G75*
G02X18440000Y-18005000I500000J0D01*
G01*
X29040000Y-17305000D02*
X27130000Y-17305000D01*
X21223837Y-25165000D02*
G75*
G02X20440000Y-25805000I-783837J160000D01*
G01*
X26240000Y-18105000D02*
X26240000Y-18205000D01*
X26140000Y-19005000D02*
G75*
G02X26340000Y-19205000I0J-200000D01*
G01*
X26340000Y-24205000D02*
X26340000Y-19205000D01*
X20440000Y-17705000D02*
X18440000Y-17705000D01*
X17640000Y-18505000D02*
X17640000Y-25005000D01*
X29040000Y-17605000D02*
X27090000Y-17605000D01*
X26040000Y-25005000D02*
G75*
G02X26240000Y-25205000I0J-200000D01*
G01*
X21419796Y-25005000D02*
X26040000Y-25005000D01*
X21393939Y-18704999D02*
G75*
G02X20916970Y-18355000I0J499999D01*
G01*
X20440000Y-17705000D02*
G75*
G02X21203151Y-18265000I0J-800000D01*
G01*
D11*
X16850000Y-16350000D02*
X16850000Y-14350000D01*
X16850000Y-15350000D02*
X17350000Y-15850000D01*
X16850000Y-15350000D02*
X17350000Y-14850000D01*
X28850000Y-15350000D02*
X16850000Y-15350000D01*
X28350000Y-15850000D02*
X28850000Y-15350000D01*
X28850000Y-15350000D02*
X28350000Y-15850000D01*
X28350000Y-14850000D02*
X28850000Y-15350000D01*
X28850000Y-15350000D02*
X28350000Y-14850000D01*
X28850000Y-16350000D02*
X28850000Y-14350000D01*
X30350000Y-27350000D02*
X30350000Y-16350000D01*
X28850000Y-16350000D02*
X30850000Y-16350000D01*
X30350000Y-16350000D02*
X29850000Y-16850000D01*
X30350000Y-16350000D02*
X30850000Y-16850000D01*
X28850000Y-27350000D02*
X30850000Y-27350000D01*
X30350000Y-27350000D02*
X30850000Y-26850000D01*
X29850000Y-26850000D02*
X30350000Y-27350000D01*
X30350000Y-27350000D02*
X29850000Y-26850000D01*
X30850000Y-26850000D02*
X30350000Y-27350000D01*
X15850000Y-19850000D02*
X16350000Y-19350000D01*
X15850000Y-16350000D02*
X15850000Y-19850000D01*
X15850000Y-16350000D02*
X16350000Y-16850000D01*
X15350000Y-16850000D02*
X15850000Y-16350000D01*
X16350000Y-16850000D02*
X15850000Y-16350000D01*
X15850000Y-16350000D02*
X15350000Y-16850000D01*
X15850000Y-19850000D02*
X15350000Y-19350000D01*
X16850000Y-16350000D02*
X14850000Y-16350000D01*
X16850000Y-19850000D02*
X14850000Y-19850000D01*
X15850000Y-27350000D02*
X16350000Y-26850000D01*
X15850000Y-23850000D02*
X15850000Y-27350000D01*
X15850000Y-27350000D02*
X15350000Y-26850000D01*
X15850000Y-23850000D02*
X15350000Y-24350000D01*
X15350000Y-24350000D02*
X15850000Y-23850000D01*
X15850000Y-23850000D02*
X16350000Y-24350000D01*
X16350000Y-24350000D02*
X15850000Y-23850000D01*
X16850000Y-23850000D02*
X14850000Y-23850000D01*
X16850000Y-27350000D02*
X14850000Y-27350000D01*
X16350000Y-22350000D02*
X15850000Y-21850000D01*
X15850000Y-21850000D02*
X15350000Y-22350000D01*
X15350000Y-22350000D02*
X15850000Y-21850000D01*
X15850000Y-21850000D02*
X16350000Y-22350000D01*
X16850000Y-21850000D02*
X14850000Y-21850000D01*
X15850000Y-21850000D02*
X15850000Y-23850000D01*
X15850000Y-23850000D02*
X15350000Y-23350000D01*
X15850000Y-23850000D02*
X16350000Y-23350000D01*
X16350000Y-20350000D02*
X15850000Y-19850000D01*
X15850000Y-19850000D02*
X15350000Y-20350000D01*
X15850000Y-19850000D02*
X16350000Y-20350000D01*
X15350000Y-20350000D02*
X15850000Y-19850000D01*
X15850000Y-19850000D02*
X15850000Y-21850000D01*
X15850000Y-21850000D02*
X15350000Y-21350000D01*
X15850000Y-21850000D02*
X16350000Y-21350000D01*
X20135714Y-15302380D02*
X19564285Y-15302380D01*
X19850000Y-15302380D02*
X19850000Y-14302380D01*
X19754761Y-14445238D01*
X19659523Y-14540476D01*
X19564285Y-14588095D01*
X20516666Y-14397619D02*
X20564285Y-14350000D01*
X20659523Y-14302380D01*
X20897619Y-14302380D01*
X20992857Y-14350000D01*
X21040476Y-14397619D01*
X21088095Y-14492857D01*
X21088095Y-14588095D01*
X21040476Y-14730952D01*
X20469047Y-15302380D01*
X21088095Y-15302380D01*
X21516666Y-15207142D02*
X21564285Y-15254761D01*
X21516666Y-15302380D01*
X21469047Y-15254761D01*
X21516666Y-15207142D01*
X21516666Y-15302380D01*
X22183333Y-14302380D02*
X22278571Y-14302380D01*
X22373809Y-14350000D01*
X22421428Y-14397619D01*
X22469047Y-14492857D01*
X22516666Y-14683333D01*
X22516666Y-14921428D01*
X22469047Y-15111904D01*
X22421428Y-15207142D01*
X22373809Y-15254761D01*
X22278571Y-15302380D01*
X22183333Y-15302380D01*
X22088095Y-15254761D01*
X22040476Y-15207142D01*
X21992857Y-15111904D01*
X21945238Y-14921428D01*
X21945238Y-14683333D01*
X21992857Y-14492857D01*
X22040476Y-14397619D01*
X22088095Y-14350000D01*
X22183333Y-14302380D01*
X23135714Y-14302380D02*
X23230952Y-14302380D01*
X23326190Y-14350000D01*
X23373809Y-14397619D01*
X23421428Y-14492857D01*
X23469047Y-14683333D01*
X23469047Y-14921428D01*
X23421428Y-15111904D01*
X23373809Y-15207142D01*
X23326190Y-15254761D01*
X23230952Y-15302380D01*
X23135714Y-15302380D01*
X23040476Y-15254761D01*
X22992857Y-15207142D01*
X22945238Y-15111904D01*
X22897619Y-14921428D01*
X22897619Y-14683333D01*
X22945238Y-14492857D01*
X22992857Y-14397619D01*
X23040476Y-14350000D01*
X23135714Y-14302380D01*
X23897619Y-15302380D02*
X23897619Y-14635714D01*
X23897619Y-14730952D02*
X23945238Y-14683333D01*
X24040476Y-14635714D01*
X24183333Y-14635714D01*
X24278571Y-14683333D01*
X24326190Y-14778571D01*
X24326190Y-15302380D01*
X24326190Y-14778571D02*
X24373809Y-14683333D01*
X24469047Y-14635714D01*
X24611904Y-14635714D01*
X24707142Y-14683333D01*
X24754761Y-14778571D01*
X24754761Y-15302380D01*
X25230952Y-15302380D02*
X25230952Y-14635714D01*
X25230952Y-14730952D02*
X25278571Y-14683333D01*
X25373809Y-14635714D01*
X25516666Y-14635714D01*
X25611904Y-14683333D01*
X25659523Y-14778571D01*
X25659523Y-15302380D01*
X25659523Y-14778571D02*
X25707142Y-14683333D01*
X25802380Y-14635714D01*
X25945238Y-14635714D01*
X26040476Y-14683333D01*
X26088095Y-14778571D01*
X26088095Y-15302380D01*
X30302380Y-25064285D02*
X30302380Y-25635714D01*
X30302380Y-25350000D02*
X29302380Y-25350000D01*
X29445238Y-25445238D01*
X29540476Y-25540476D01*
X29588095Y-25635714D01*
X30302380Y-24111904D02*
X30302380Y-24683333D01*
X30302380Y-24397619D02*
X29302380Y-24397619D01*
X29445238Y-24492857D01*
X29540476Y-24588095D01*
X29588095Y-24683333D01*
X30207142Y-23683333D02*
X30254761Y-23635714D01*
X30302380Y-23683333D01*
X30254761Y-23730952D01*
X30207142Y-23683333D01*
X30302380Y-23683333D01*
X29302380Y-23016666D02*
X29302380Y-22921428D01*
X29350000Y-22826190D01*
X29397619Y-22778571D01*
X29492857Y-22730952D01*
X29683333Y-22683333D01*
X29921428Y-22683333D01*
X30111904Y-22730952D01*
X30207142Y-22778571D01*
X30254761Y-22826190D01*
X30302380Y-22921428D01*
X30302380Y-23016666D01*
X30254761Y-23111904D01*
X30207142Y-23159523D01*
X30111904Y-23207142D01*
X29921428Y-23254761D01*
X29683333Y-23254761D01*
X29492857Y-23207142D01*
X29397619Y-23159523D01*
X29350000Y-23111904D01*
X29302380Y-23016666D01*
X29302380Y-22064285D02*
X29302380Y-21969047D01*
X29350000Y-21873809D01*
X29397619Y-21826190D01*
X29492857Y-21778571D01*
X29683333Y-21730952D01*
X29921428Y-21730952D01*
X30111904Y-21778571D01*
X30207142Y-21826190D01*
X30254761Y-21873809D01*
X30302380Y-21969047D01*
X30302380Y-22064285D01*
X30254761Y-22159523D01*
X30207142Y-22207142D01*
X30111904Y-22254761D01*
X29921428Y-22302380D01*
X29683333Y-22302380D01*
X29492857Y-22254761D01*
X29397619Y-22207142D01*
X29350000Y-22159523D01*
X29302380Y-22064285D01*
X30302380Y-21302380D02*
X29635714Y-21302380D01*
X29730952Y-21302380D02*
X29683333Y-21254761D01*
X29635714Y-21159523D01*
X29635714Y-21016666D01*
X29683333Y-20921428D01*
X29778571Y-20873809D01*
X30302380Y-20873809D01*
X29778571Y-20873809D02*
X29683333Y-20826190D01*
X29635714Y-20730952D01*
X29635714Y-20588095D01*
X29683333Y-20492857D01*
X29778571Y-20445238D01*
X30302380Y-20445238D01*
X30302380Y-19969047D02*
X29635714Y-19969047D01*
X29730952Y-19969047D02*
X29683333Y-19921428D01*
X29635714Y-19826190D01*
X29635714Y-19683333D01*
X29683333Y-19588095D01*
X29778571Y-19540476D01*
X30302380Y-19540476D01*
X29778571Y-19540476D02*
X29683333Y-19492857D01*
X29635714Y-19397619D01*
X29635714Y-19254761D01*
X29683333Y-19159523D01*
X29778571Y-19111904D01*
X30302380Y-19111904D01*
D12*
X15213095Y-25750000D02*
X15213095Y-25663333D01*
X15308333Y-25710000D01*
X15308333Y-25690000D01*
X15320238Y-25676666D01*
X15332142Y-25670000D01*
X15355952Y-25663333D01*
X15415476Y-25663333D01*
X15439285Y-25670000D01*
X15451190Y-25676666D01*
X15463095Y-25690000D01*
X15463095Y-25730000D01*
X15451190Y-25743333D01*
X15439285Y-25750000D01*
X15439285Y-25603333D02*
X15451190Y-25596666D01*
X15463095Y-25603333D01*
X15451190Y-25610000D01*
X15439285Y-25603333D01*
X15463095Y-25603333D01*
X15213095Y-25470000D02*
X15213095Y-25536666D01*
X15332142Y-25543333D01*
X15320238Y-25536666D01*
X15308333Y-25523333D01*
X15308333Y-25490000D01*
X15320238Y-25476666D01*
X15332142Y-25470000D01*
X15355952Y-25463333D01*
X15415476Y-25463333D01*
X15439285Y-25470000D01*
X15451190Y-25476666D01*
X15463095Y-25490000D01*
X15463095Y-25523333D01*
X15451190Y-25536666D01*
X15439285Y-25543333D01*
X15213095Y-25376666D02*
X15213095Y-25363333D01*
X15225000Y-25350000D01*
X15236904Y-25343333D01*
X15260714Y-25336666D01*
X15308333Y-25330000D01*
X15367857Y-25330000D01*
X15415476Y-25336666D01*
X15439285Y-25343333D01*
X15451190Y-25350000D01*
X15463095Y-25363333D01*
X15463095Y-25376666D01*
X15451190Y-25390000D01*
X15439285Y-25396666D01*
X15415476Y-25403333D01*
X15367857Y-25410000D01*
X15308333Y-25410000D01*
X15260714Y-25403333D01*
X15236904Y-25396666D01*
X15225000Y-25390000D01*
X15213095Y-25376666D01*
X15463095Y-25270000D02*
X15296428Y-25270000D01*
X15320238Y-25270000D02*
X15308333Y-25263333D01*
X15296428Y-25250000D01*
X15296428Y-25230000D01*
X15308333Y-25216666D01*
X15332142Y-25210000D01*
X15463095Y-25210000D01*
X15332142Y-25210000D02*
X15308333Y-25203333D01*
X15296428Y-25190000D01*
X15296428Y-25170000D01*
X15308333Y-25156666D01*
X15332142Y-25150000D01*
X15463095Y-25150000D01*
X15463095Y-25083333D02*
X15296428Y-25083333D01*
X15320238Y-25083333D02*
X15308333Y-25076666D01*
X15296428Y-25063333D01*
X15296428Y-25043333D01*
X15308333Y-25030000D01*
X15332142Y-25023333D01*
X15463095Y-25023333D01*
X15332142Y-25023333D02*
X15308333Y-25016666D01*
X15296428Y-25003333D01*
X15296428Y-24983333D01*
X15308333Y-24970000D01*
X15332142Y-24963333D01*
X15463095Y-24963333D01*
D13*
X15236904Y-23271428D02*
X15225000Y-23264285D01*
X15213095Y-23250000D01*
X15213095Y-23214285D01*
X15225000Y-23200000D01*
X15236904Y-23192857D01*
X15260714Y-23185714D01*
X15284523Y-23185714D01*
X15320238Y-23192857D01*
X15463095Y-23278571D01*
X15463095Y-23185714D01*
X15439285Y-23121428D02*
X15451190Y-23114285D01*
X15463095Y-23121428D01*
X15451190Y-23128571D01*
X15439285Y-23121428D01*
X15463095Y-23121428D01*
X15213095Y-23021428D02*
X15213095Y-23007142D01*
X15225000Y-22992857D01*
X15236904Y-22985714D01*
X15260714Y-22978571D01*
X15308333Y-22971428D01*
X15367857Y-22971428D01*
X15415476Y-22978571D01*
X15439285Y-22985714D01*
X15451190Y-22992857D01*
X15463095Y-23007142D01*
X15463095Y-23021428D01*
X15451190Y-23035714D01*
X15439285Y-23042857D01*
X15415476Y-23050000D01*
X15367857Y-23057142D01*
X15308333Y-23057142D01*
X15260714Y-23050000D01*
X15236904Y-23042857D01*
X15225000Y-23035714D01*
X15213095Y-23021428D01*
X15213095Y-22878571D02*
X15213095Y-22864285D01*
X15225000Y-22850000D01*
X15236904Y-22842857D01*
X15260714Y-22835714D01*
X15308333Y-22828571D01*
X15367857Y-22828571D01*
X15415476Y-22835714D01*
X15439285Y-22842857D01*
X15451190Y-22850000D01*
X15463095Y-22864285D01*
X15463095Y-22878571D01*
X15451190Y-22892857D01*
X15439285Y-22900000D01*
X15415476Y-22907142D01*
X15367857Y-22914285D01*
X15308333Y-22914285D01*
X15260714Y-22907142D01*
X15236904Y-22900000D01*
X15225000Y-22892857D01*
X15213095Y-22878571D01*
X15463095Y-22764285D02*
X15296428Y-22764285D01*
X15320238Y-22764285D02*
X15308333Y-22757142D01*
X15296428Y-22742857D01*
X15296428Y-22721428D01*
X15308333Y-22707142D01*
X15332142Y-22700000D01*
X15463095Y-22700000D01*
X15332142Y-22700000D02*
X15308333Y-22692857D01*
X15296428Y-22678571D01*
X15296428Y-22657142D01*
X15308333Y-22642857D01*
X15332142Y-22635714D01*
X15463095Y-22635714D01*
X15463095Y-22564285D02*
X15296428Y-22564285D01*
X15320238Y-22564285D02*
X15308333Y-22557142D01*
X15296428Y-22542857D01*
X15296428Y-22521428D01*
X15308333Y-22507142D01*
X15332142Y-22500000D01*
X15463095Y-22500000D01*
X15332142Y-22500000D02*
X15308333Y-22492857D01*
X15296428Y-22478571D01*
X15296428Y-22457142D01*
X15308333Y-22442857D01*
X15332142Y-22435714D01*
X15463095Y-22435714D01*
X15236904Y-21271428D02*
X15225000Y-21264285D01*
X15213095Y-21250000D01*
X15213095Y-21214285D01*
X15225000Y-21200000D01*
X15236904Y-21192857D01*
X15260714Y-21185714D01*
X15284523Y-21185714D01*
X15320238Y-21192857D01*
X15463095Y-21278571D01*
X15463095Y-21185714D01*
X15439285Y-21121428D02*
X15451190Y-21114285D01*
X15463095Y-21121428D01*
X15451190Y-21128571D01*
X15439285Y-21121428D01*
X15463095Y-21121428D01*
X15213095Y-21021428D02*
X15213095Y-21007142D01*
X15225000Y-20992857D01*
X15236904Y-20985714D01*
X15260714Y-20978571D01*
X15308333Y-20971428D01*
X15367857Y-20971428D01*
X15415476Y-20978571D01*
X15439285Y-20985714D01*
X15451190Y-20992857D01*
X15463095Y-21007142D01*
X15463095Y-21021428D01*
X15451190Y-21035714D01*
X15439285Y-21042857D01*
X15415476Y-21050000D01*
X15367857Y-21057142D01*
X15308333Y-21057142D01*
X15260714Y-21050000D01*
X15236904Y-21042857D01*
X15225000Y-21035714D01*
X15213095Y-21021428D01*
X15213095Y-20878571D02*
X15213095Y-20864285D01*
X15225000Y-20850000D01*
X15236904Y-20842857D01*
X15260714Y-20835714D01*
X15308333Y-20828571D01*
X15367857Y-20828571D01*
X15415476Y-20835714D01*
X15439285Y-20842857D01*
X15451190Y-20850000D01*
X15463095Y-20864285D01*
X15463095Y-20878571D01*
X15451190Y-20892857D01*
X15439285Y-20900000D01*
X15415476Y-20907142D01*
X15367857Y-20914285D01*
X15308333Y-20914285D01*
X15260714Y-20907142D01*
X15236904Y-20900000D01*
X15225000Y-20892857D01*
X15213095Y-20878571D01*
X15463095Y-20764285D02*
X15296428Y-20764285D01*
X15320238Y-20764285D02*
X15308333Y-20757142D01*
X15296428Y-20742857D01*
X15296428Y-20721428D01*
X15308333Y-20707142D01*
X15332142Y-20700000D01*
X15463095Y-20700000D01*
X15332142Y-20700000D02*
X15308333Y-20692857D01*
X15296428Y-20678571D01*
X15296428Y-20657142D01*
X15308333Y-20642857D01*
X15332142Y-20635714D01*
X15463095Y-20635714D01*
X15463095Y-20564285D02*
X15296428Y-20564285D01*
X15320238Y-20564285D02*
X15308333Y-20557142D01*
X15296428Y-20542857D01*
X15296428Y-20521428D01*
X15308333Y-20507142D01*
X15332142Y-20500000D01*
X15463095Y-20500000D01*
X15332142Y-20500000D02*
X15308333Y-20492857D01*
X15296428Y-20478571D01*
X15296428Y-20457142D01*
X15308333Y-20442857D01*
X15332142Y-20435714D01*
X15463095Y-20435714D01*
D12*
X15213095Y-18250000D02*
X15213095Y-18163333D01*
X15308333Y-18210000D01*
X15308333Y-18190000D01*
X15320238Y-18176666D01*
X15332142Y-18170000D01*
X15355952Y-18163333D01*
X15415476Y-18163333D01*
X15439285Y-18170000D01*
X15451190Y-18176666D01*
X15463095Y-18190000D01*
X15463095Y-18230000D01*
X15451190Y-18243333D01*
X15439285Y-18250000D01*
X15439285Y-18103333D02*
X15451190Y-18096666D01*
X15463095Y-18103333D01*
X15451190Y-18110000D01*
X15439285Y-18103333D01*
X15463095Y-18103333D01*
X15213095Y-17970000D02*
X15213095Y-18036666D01*
X15332142Y-18043333D01*
X15320238Y-18036666D01*
X15308333Y-18023333D01*
X15308333Y-17990000D01*
X15320238Y-17976666D01*
X15332142Y-17970000D01*
X15355952Y-17963333D01*
X15415476Y-17963333D01*
X15439285Y-17970000D01*
X15451190Y-17976666D01*
X15463095Y-17990000D01*
X15463095Y-18023333D01*
X15451190Y-18036666D01*
X15439285Y-18043333D01*
X15213095Y-17876666D02*
X15213095Y-17863333D01*
X15225000Y-17850000D01*
X15236904Y-17843333D01*
X15260714Y-17836666D01*
X15308333Y-17830000D01*
X15367857Y-17830000D01*
X15415476Y-17836666D01*
X15439285Y-17843333D01*
X15451190Y-17850000D01*
X15463095Y-17863333D01*
X15463095Y-17876666D01*
X15451190Y-17890000D01*
X15439285Y-17896666D01*
X15415476Y-17903333D01*
X15367857Y-17910000D01*
X15308333Y-17910000D01*
X15260714Y-17903333D01*
X15236904Y-17896666D01*
X15225000Y-17890000D01*
X15213095Y-17876666D01*
X15463095Y-17770000D02*
X15296428Y-17770000D01*
X15320238Y-17770000D02*
X15308333Y-17763333D01*
X15296428Y-17750000D01*
X15296428Y-17730000D01*
X15308333Y-17716666D01*
X15332142Y-17710000D01*
X15463095Y-17710000D01*
X15332142Y-17710000D02*
X15308333Y-17703333D01*
X15296428Y-17690000D01*
X15296428Y-17670000D01*
X15308333Y-17656666D01*
X15332142Y-17650000D01*
X15463095Y-17650000D01*
X15463095Y-17583333D02*
X15296428Y-17583333D01*
X15320238Y-17583333D02*
X15308333Y-17576666D01*
X15296428Y-17563333D01*
X15296428Y-17543333D01*
X15308333Y-17530000D01*
X15332142Y-17523333D01*
X15463095Y-17523333D01*
X15332142Y-17523333D02*
X15308333Y-17516666D01*
X15296428Y-17503333D01*
X15296428Y-17483333D01*
X15308333Y-17470000D01*
X15332142Y-17463333D01*
X15463095Y-17463333D01*
M02*
