G04 #@! TF.GenerationSoftware,KiCad,Pcbnew,5.1.4+dfsg1-1~bpo10+1*
G04 #@! TF.CreationDate,2019-12-19T14:53:47+01:00*
G04 #@! TF.ProjectId,qomu-board,716f6d75-2d62-46f6-9172-642e6b696361,rev?*
G04 #@! TF.SameCoordinates,Original*
G04 #@! TF.FileFunction,Other,ECO2*
%FSLAX46Y46*%
G04 Gerber Fmt 4.6, Leading zero omitted, Abs format (unit mm)*
G04 Created by KiCad (PCBNEW 5.1.4+dfsg1-1~bpo10+1) date 2019-12-19 14:53:47*
%MOMM*%
%LPD*%
G04 APERTURE LIST*
%ADD10C,0.127000*%
%ADD11C,0.100000*%
%ADD12C,0.200000*%
G04 APERTURE END LIST*
D10*
X18400000Y-22676500D02*
X18400000Y-23876500D01*
X18400000Y-23876500D02*
X19400000Y-23876500D01*
X19400000Y-23876500D02*
X19400000Y-22676500D01*
X19400000Y-22676500D02*
X18400000Y-22676500D01*
X18860000Y-17809000D02*
X18860000Y-18649000D01*
X18860000Y-18649000D02*
X19500000Y-18649000D01*
X19500000Y-18649000D02*
X19500000Y-17809000D01*
X19500000Y-17809000D02*
X18860000Y-17809000D01*
D11*
X18930000Y-17479000D02*
G75*
G03X18930000Y-17479000I-50000J0D01*
G01*
D10*
X26210000Y-18299000D02*
X25370000Y-18299000D01*
X25370000Y-18299000D02*
X25370000Y-18939000D01*
X25370000Y-18939000D02*
X26210000Y-18939000D01*
X26210000Y-18939000D02*
X26210000Y-18299000D01*
D11*
X26590000Y-18319000D02*
G75*
G03X26590000Y-18319000I-50000J0D01*
G01*
D10*
X17890000Y-17809000D02*
X17890000Y-18649000D01*
X17890000Y-18649000D02*
X18530000Y-18649000D01*
X18530000Y-18649000D02*
X18530000Y-17809000D01*
X18530000Y-17809000D02*
X17890000Y-17809000D01*
D11*
X17960000Y-17479000D02*
G75*
G03X17960000Y-17479000I-50000J0D01*
G01*
D12*
X32900000Y-16075000D02*
G75*
G03X32900000Y-16075000I-100000J0D01*
G01*
D10*
X45300000Y-26885000D02*
X34300000Y-26885000D01*
X45300000Y-16725000D02*
X45300000Y-26885000D01*
X34300000Y-16725000D02*
X45300000Y-16725000D01*
X34300000Y-26885000D02*
X34300000Y-16725000D01*
X37100000Y-26885000D02*
X34300000Y-26885000D01*
X37100000Y-16725000D02*
X37100000Y-26885000D01*
X34300000Y-16725000D02*
X37100000Y-16725000D01*
M02*
