G04 #@! TF.GenerationSoftware,KiCad,Pcbnew,5.1.4+dfsg1-1~bpo10+1*
G04 #@! TF.CreationDate,2019-12-19T14:53:47+01:00*
G04 #@! TF.ProjectId,qomu-board,716f6d75-2d62-46f6-9172-642e6b696361,rev?*
G04 #@! TF.SameCoordinates,Original*
G04 #@! TF.FileFunction,Other,Fab,Bot*
%FSLAX46Y46*%
G04 Gerber Fmt 4.6, Leading zero omitted, Abs format (unit mm)*
G04 Created by KiCad (PCBNEW 5.1.4+dfsg1-1~bpo10+1) date 2019-12-19 14:53:47*
%MOMM*%
%LPD*%
G04 APERTURE LIST*
%ADD10C,0.100000*%
%ADD11C,0.150000*%
%ADD12C,0.050000*%
G04 APERTURE END LIST*
D10*
X42200000Y-18860000D02*
X44800000Y-18860000D01*
X44800000Y-18860000D02*
X44800000Y-25560000D01*
X42200000Y-25560000D02*
X44800000Y-25560000D01*
X42200000Y-18860000D02*
X42200000Y-25560000D01*
X44800000Y-23660000D02*
X46300000Y-23660000D01*
X44800000Y-22360000D02*
X46300000Y-22360000D01*
X46300000Y-22360000D02*
X46300000Y-23660000D01*
X37150000Y-18670000D02*
X37150000Y-17270000D01*
X37150000Y-18670000D02*
X35350000Y-18670000D01*
X35350000Y-17270000D02*
X37150000Y-17270000D01*
X35350000Y-17270000D02*
X35350000Y-18670000D01*
D11*
X25750000Y-22440000D02*
X24950000Y-22440000D01*
X25750000Y-20840000D02*
X25750000Y-22440000D01*
X24150000Y-20840000D02*
X25750000Y-20840000D01*
X24150000Y-21640000D02*
X24150000Y-20840000D01*
X24950000Y-22440000D02*
X24150000Y-21640000D01*
X21150000Y-20745000D02*
X20150000Y-19745000D01*
X20150000Y-19745000D02*
X20150000Y-18745000D01*
X20150000Y-18745000D02*
X23150000Y-18745000D01*
X23150000Y-18745000D02*
X23150000Y-20745000D01*
X23150000Y-20745000D02*
X21150000Y-20745000D01*
D10*
X41050000Y-21670000D02*
X41050000Y-21970000D01*
X41050000Y-21970000D02*
X41650000Y-21970000D01*
X41650000Y-21970000D02*
X41650000Y-21670000D01*
X41650000Y-21670000D02*
X41050000Y-21670000D01*
X41050000Y-20920000D02*
X41050000Y-21220000D01*
X41050000Y-21220000D02*
X41650000Y-21220000D01*
X41650000Y-21220000D02*
X41650000Y-20920000D01*
X41650000Y-20920000D02*
X41050000Y-20920000D01*
X33925000Y-24785000D02*
X40275000Y-24785000D01*
X40275000Y-24785000D02*
X40275000Y-21355000D01*
X33925000Y-24785000D02*
X33925000Y-21355000D01*
X33925000Y-21355000D02*
X40275000Y-21355000D01*
X41700000Y-16870000D02*
X38240000Y-16870000D01*
X38240000Y-16870000D02*
X38240000Y-19070000D01*
X41700000Y-19070000D02*
X38240000Y-19070000D01*
X41700000Y-16870000D02*
X41700000Y-19070000D01*
X23200000Y-24615000D02*
X23200000Y-24315000D01*
X23200000Y-24315000D02*
X22600000Y-24315000D01*
X22600000Y-24315000D02*
X22600000Y-24615000D01*
X22600000Y-24615000D02*
X23200000Y-24615000D01*
X19140000Y-21459000D02*
X19140000Y-21159000D01*
X19140000Y-21159000D02*
X18540000Y-21159000D01*
X18540000Y-21159000D02*
X18540000Y-21459000D01*
X18540000Y-21459000D02*
X19140000Y-21459000D01*
X17600000Y-24179000D02*
X17900000Y-24179000D01*
X17900000Y-24179000D02*
X17900000Y-23579000D01*
X17900000Y-23579000D02*
X17600000Y-23579000D01*
X17600000Y-23579000D02*
X17600000Y-24179000D01*
X17600000Y-22769000D02*
X17900000Y-22769000D01*
X17900000Y-22769000D02*
X17900000Y-22169000D01*
X17900000Y-22169000D02*
X17600000Y-22169000D01*
X17600000Y-22169000D02*
X17600000Y-22769000D01*
D12*
X26350000Y-20250000D02*
X26350000Y-19200000D01*
X25300000Y-20250000D02*
X26350000Y-20250000D01*
X25300000Y-19200000D02*
X25300000Y-20250000D01*
X26350000Y-19200000D02*
X25300000Y-19200000D01*
D10*
X19270000Y-24419000D02*
X19270000Y-25419000D01*
X20020000Y-24419000D02*
X19270000Y-24419000D01*
X20270000Y-24669000D02*
X20020000Y-24419000D01*
X20270000Y-25419000D02*
X20270000Y-24669000D01*
X19270000Y-25419000D02*
X20270000Y-25419000D01*
X25075000Y-24190000D02*
X25075000Y-23190000D01*
X24325000Y-24190000D02*
X25075000Y-24190000D01*
X24075000Y-23940000D02*
X24325000Y-24190000D01*
X24075000Y-23190000D02*
X24075000Y-23940000D01*
X25075000Y-23190000D02*
X24075000Y-23190000D01*
X27000000Y-19469000D02*
X26700000Y-19469000D01*
X26700000Y-19469000D02*
X26700000Y-20069000D01*
X26700000Y-20069000D02*
X27000000Y-20069000D01*
X27000000Y-20069000D02*
X27000000Y-19469000D01*
X27000000Y-18589000D02*
X27000000Y-17989000D01*
X26700000Y-18589000D02*
X27000000Y-18589000D01*
X26700000Y-17989000D02*
X26700000Y-18589000D01*
X27000000Y-17989000D02*
X26700000Y-17989000D01*
X24950000Y-19309000D02*
X24650000Y-19309000D01*
X24650000Y-19309000D02*
X24650000Y-19909000D01*
X24650000Y-19909000D02*
X24950000Y-19909000D01*
X24950000Y-19909000D02*
X24950000Y-19309000D01*
X43900000Y-17320000D02*
X43900000Y-17620000D01*
X43900000Y-17620000D02*
X44500000Y-17620000D01*
X44500000Y-17620000D02*
X44500000Y-17320000D01*
X44500000Y-17320000D02*
X43900000Y-17320000D01*
X43000000Y-17620000D02*
X43000000Y-17320000D01*
X43000000Y-17320000D02*
X42400000Y-17320000D01*
X42400000Y-17320000D02*
X42400000Y-17620000D01*
X42400000Y-17620000D02*
X43000000Y-17620000D01*
X19040000Y-20039000D02*
X19040000Y-19739000D01*
X19040000Y-19739000D02*
X18440000Y-19739000D01*
X18440000Y-19739000D02*
X18440000Y-20039000D01*
X18440000Y-20039000D02*
X19040000Y-20039000D01*
X19040000Y-19329000D02*
X19040000Y-19029000D01*
X19040000Y-19029000D02*
X18440000Y-19029000D01*
X18440000Y-19029000D02*
X18440000Y-19329000D01*
X18440000Y-19329000D02*
X19040000Y-19329000D01*
X19040000Y-20749000D02*
X19040000Y-20449000D01*
X19040000Y-20449000D02*
X18440000Y-20449000D01*
X18440000Y-20449000D02*
X18440000Y-20749000D01*
X18440000Y-20749000D02*
X19040000Y-20749000D01*
X26730000Y-20919000D02*
X26430000Y-20919000D01*
X26430000Y-20919000D02*
X26430000Y-21519000D01*
X26430000Y-21519000D02*
X26730000Y-21519000D01*
X26730000Y-21519000D02*
X26730000Y-20919000D01*
X41100000Y-26320000D02*
X41400000Y-26320000D01*
X41400000Y-26320000D02*
X41400000Y-25720000D01*
X41400000Y-25720000D02*
X41100000Y-25720000D01*
X41100000Y-25720000D02*
X41100000Y-26320000D01*
X24660000Y-25705000D02*
X24660000Y-25405000D01*
X24660000Y-25405000D02*
X24060000Y-25405000D01*
X24060000Y-25405000D02*
X24060000Y-25705000D01*
X24060000Y-25705000D02*
X24660000Y-25705000D01*
X25490000Y-24679000D02*
X25490000Y-24979000D01*
X25490000Y-24979000D02*
X26090000Y-24979000D01*
X26090000Y-24979000D02*
X26090000Y-24679000D01*
X26090000Y-24679000D02*
X25490000Y-24679000D01*
X26090000Y-25709000D02*
X26090000Y-25409000D01*
X26090000Y-25409000D02*
X25490000Y-25409000D01*
X25490000Y-25409000D02*
X25490000Y-25709000D01*
X25490000Y-25709000D02*
X26090000Y-25709000D01*
X22600000Y-25069000D02*
X22600000Y-25369000D01*
X22600000Y-25369000D02*
X23200000Y-25369000D01*
X23200000Y-25369000D02*
X23200000Y-25069000D01*
X23200000Y-25069000D02*
X22600000Y-25069000D01*
X17610000Y-19709000D02*
X17930000Y-19709000D01*
X17610000Y-19089000D02*
X17610000Y-19709000D01*
X17930000Y-19089000D02*
X17610000Y-19089000D01*
X17930000Y-19709000D02*
X17930000Y-19089000D01*
X17940000Y-20709000D02*
X17620000Y-20709000D01*
X17940000Y-21329000D02*
X17940000Y-20709000D01*
X17620000Y-21329000D02*
X17940000Y-21329000D01*
X17620000Y-20709000D02*
X17620000Y-21329000D01*
X17970000Y-24809000D02*
X17650000Y-24809000D01*
X17970000Y-25429000D02*
X17970000Y-24809000D01*
X17650000Y-25429000D02*
X17970000Y-25429000D01*
X17650000Y-24809000D02*
X17650000Y-25429000D01*
X26620000Y-25320000D02*
X26940000Y-25320000D01*
X26620000Y-24700000D02*
X26620000Y-25320000D01*
X26940000Y-24700000D02*
X26620000Y-24700000D01*
X26940000Y-25320000D02*
X26940000Y-24700000D01*
X27290000Y-19469000D02*
X27610000Y-19469000D01*
X27290000Y-18849000D02*
X27290000Y-19469000D01*
X27610000Y-18849000D02*
X27290000Y-18849000D01*
X27610000Y-19469000D02*
X27610000Y-18849000D01*
X26840000Y-23605000D02*
X26520000Y-23605000D01*
X26840000Y-24225000D02*
X26840000Y-23605000D01*
X26520000Y-24225000D02*
X26840000Y-24225000D01*
X26520000Y-23605000D02*
X26520000Y-24225000D01*
X27610000Y-17799000D02*
X27290000Y-17799000D01*
X27610000Y-18419000D02*
X27610000Y-17799000D01*
X27290000Y-18419000D02*
X27610000Y-18419000D01*
X27290000Y-17799000D02*
X27290000Y-18419000D01*
X34250000Y-18020000D02*
X33950000Y-18020000D01*
X33950000Y-18020000D02*
X33950000Y-18620000D01*
X33950000Y-18620000D02*
X34250000Y-18620000D01*
X34250000Y-18620000D02*
X34250000Y-18020000D01*
X24060000Y-24685000D02*
X24060000Y-24985000D01*
X24060000Y-24985000D02*
X24660000Y-24985000D01*
X24660000Y-24985000D02*
X24660000Y-24685000D01*
X24660000Y-24685000D02*
X24060000Y-24685000D01*
X23100000Y-22204000D02*
X23400000Y-22204000D01*
X23400000Y-22204000D02*
X23400000Y-21604000D01*
X23400000Y-21604000D02*
X23100000Y-21604000D01*
X23100000Y-21604000D02*
X23100000Y-22204000D01*
X21140000Y-24309000D02*
X21140000Y-24609000D01*
X21140000Y-24609000D02*
X21740000Y-24609000D01*
X21740000Y-24609000D02*
X21740000Y-24309000D01*
X21740000Y-24309000D02*
X21140000Y-24309000D01*
X23400000Y-23045000D02*
X23100000Y-23045000D01*
X23100000Y-23045000D02*
X23100000Y-23645000D01*
X23100000Y-23645000D02*
X23400000Y-23645000D01*
X23400000Y-23645000D02*
X23400000Y-23045000D01*
X21140000Y-25065000D02*
X21140000Y-25365000D01*
X21140000Y-25365000D02*
X21740000Y-25365000D01*
X21740000Y-25365000D02*
X21740000Y-25065000D01*
X21740000Y-25065000D02*
X21140000Y-25065000D01*
X24250000Y-19309000D02*
X23950000Y-19309000D01*
X23950000Y-19309000D02*
X23950000Y-19909000D01*
X23950000Y-19909000D02*
X24250000Y-19909000D01*
X24250000Y-19909000D02*
X24250000Y-19309000D01*
X26430000Y-22959000D02*
X26730000Y-22959000D01*
X26730000Y-22959000D02*
X26730000Y-22359000D01*
X26730000Y-22359000D02*
X26430000Y-22359000D01*
X26430000Y-22359000D02*
X26430000Y-22959000D01*
X19140000Y-22169000D02*
X19140000Y-21869000D01*
X19140000Y-21869000D02*
X18540000Y-21869000D01*
X18540000Y-21869000D02*
X18540000Y-22169000D01*
X18540000Y-22169000D02*
X19140000Y-22169000D01*
X25700000Y-23940000D02*
X26000000Y-23940000D01*
X26000000Y-23940000D02*
X26000000Y-23340000D01*
X26000000Y-23340000D02*
X25700000Y-23340000D01*
X25700000Y-23340000D02*
X25700000Y-23940000D01*
X18620000Y-24570000D02*
X18320000Y-24570000D01*
X18320000Y-24570000D02*
X18320000Y-25170000D01*
X18320000Y-25170000D02*
X18620000Y-25170000D01*
X18620000Y-25170000D02*
X18620000Y-24570000D01*
D11*
X20957000Y-23856000D02*
X19957000Y-22856000D01*
X19957000Y-22856000D02*
X19957000Y-21434000D01*
X19957000Y-21434000D02*
X22613000Y-21434000D01*
X22613000Y-21434000D02*
X22613000Y-23856000D01*
X22613000Y-23856000D02*
X20957000Y-23856000D01*
X27678095Y-19942380D02*
X27678095Y-18942380D01*
X27344761Y-19656666D01*
X27011428Y-18942380D01*
X27011428Y-19942380D01*
X25963809Y-19847142D02*
X26011428Y-19894761D01*
X26154285Y-19942380D01*
X26249523Y-19942380D01*
X26392380Y-19894761D01*
X26487619Y-19799523D01*
X26535238Y-19704285D01*
X26582857Y-19513809D01*
X26582857Y-19370952D01*
X26535238Y-19180476D01*
X26487619Y-19085238D01*
X26392380Y-18990000D01*
X26249523Y-18942380D01*
X26154285Y-18942380D01*
X26011428Y-18990000D01*
X25963809Y-19037619D01*
X25630476Y-18942380D02*
X25011428Y-18942380D01*
X25344761Y-19323333D01*
X25201904Y-19323333D01*
X25106666Y-19370952D01*
X25059047Y-19418571D01*
X25011428Y-19513809D01*
X25011428Y-19751904D01*
X25059047Y-19847142D01*
X25106666Y-19894761D01*
X25201904Y-19942380D01*
X25487619Y-19942380D01*
X25582857Y-19894761D01*
X25630476Y-19847142D01*
X24154285Y-18942380D02*
X24344761Y-18942380D01*
X24440000Y-18990000D01*
X24487619Y-19037619D01*
X24582857Y-19180476D01*
X24630476Y-19370952D01*
X24630476Y-19751904D01*
X24582857Y-19847142D01*
X24535238Y-19894761D01*
X24440000Y-19942380D01*
X24249523Y-19942380D01*
X24154285Y-19894761D01*
X24106666Y-19847142D01*
X24059047Y-19751904D01*
X24059047Y-19513809D01*
X24106666Y-19418571D01*
X24154285Y-19370952D01*
X24249523Y-19323333D01*
X24440000Y-19323333D01*
X24535238Y-19370952D01*
X24582857Y-19418571D01*
X24630476Y-19513809D01*
X23725714Y-18942380D02*
X23106666Y-18942380D01*
X23440000Y-19323333D01*
X23297142Y-19323333D01*
X23201904Y-19370952D01*
X23154285Y-19418571D01*
X23106666Y-19513809D01*
X23106666Y-19751904D01*
X23154285Y-19847142D01*
X23201904Y-19894761D01*
X23297142Y-19942380D01*
X23582857Y-19942380D01*
X23678095Y-19894761D01*
X23725714Y-19847142D01*
X22201904Y-18942380D02*
X22678095Y-18942380D01*
X22725714Y-19418571D01*
X22678095Y-19370952D01*
X22582857Y-19323333D01*
X22344761Y-19323333D01*
X22249523Y-19370952D01*
X22201904Y-19418571D01*
X22154285Y-19513809D01*
X22154285Y-19751904D01*
X22201904Y-19847142D01*
X22249523Y-19894761D01*
X22344761Y-19942380D01*
X22582857Y-19942380D01*
X22678095Y-19894761D01*
X22725714Y-19847142D01*
M02*
