G04 #@! TF.GenerationSoftware,KiCad,Pcbnew,5.1.4+dfsg1-1~bpo10+1*
G04 #@! TF.CreationDate,2019-12-19T14:53:47+01:00*
G04 #@! TF.ProjectId,qomu-board,716f6d75-2d62-46f6-9172-642e6b696361,rev?*
G04 #@! TF.SameCoordinates,Original*
G04 #@! TF.FileFunction,Other,ECO1*
%FSLAX46Y46*%
G04 Gerber Fmt 4.6, Leading zero omitted, Abs format (unit mm)*
G04 Created by KiCad (PCBNEW 5.1.4+dfsg1-1~bpo10+1) date 2019-12-19 14:53:47*
%MOMM*%
%LPD*%
G04 APERTURE LIST*
%ADD10C,0.300000*%
%ADD11C,0.050000*%
G04 APERTURE END LIST*
D10*
X17340238Y-38580952D02*
X17340238Y-36080952D01*
X18292619Y-36080952D01*
X18530714Y-36200000D01*
X18649761Y-36319047D01*
X18768809Y-36557142D01*
X18768809Y-36914285D01*
X18649761Y-37152380D01*
X18530714Y-37271428D01*
X18292619Y-37390476D01*
X17340238Y-37390476D01*
X21268809Y-38342857D02*
X21149761Y-38461904D01*
X20792619Y-38580952D01*
X20554523Y-38580952D01*
X20197380Y-38461904D01*
X19959285Y-38223809D01*
X19840238Y-37985714D01*
X19721190Y-37509523D01*
X19721190Y-37152380D01*
X19840238Y-36676190D01*
X19959285Y-36438095D01*
X20197380Y-36200000D01*
X20554523Y-36080952D01*
X20792619Y-36080952D01*
X21149761Y-36200000D01*
X21268809Y-36319047D01*
X23173571Y-37271428D02*
X23530714Y-37390476D01*
X23649761Y-37509523D01*
X23768809Y-37747619D01*
X23768809Y-38104761D01*
X23649761Y-38342857D01*
X23530714Y-38461904D01*
X23292619Y-38580952D01*
X22340238Y-38580952D01*
X22340238Y-36080952D01*
X23173571Y-36080952D01*
X23411666Y-36200000D01*
X23530714Y-36319047D01*
X23649761Y-36557142D01*
X23649761Y-36795238D01*
X23530714Y-37033333D01*
X23411666Y-37152380D01*
X23173571Y-37271428D01*
X22340238Y-37271428D01*
X26387857Y-36080952D02*
X27816428Y-36080952D01*
X27102142Y-38580952D02*
X27102142Y-36080952D01*
X28649761Y-38580952D02*
X28649761Y-36080952D01*
X29721190Y-38580952D02*
X29721190Y-37271428D01*
X29602142Y-37033333D01*
X29364047Y-36914285D01*
X29006904Y-36914285D01*
X28768809Y-37033333D01*
X28649761Y-37152380D01*
X30911666Y-38580952D02*
X30911666Y-36914285D01*
X30911666Y-36080952D02*
X30792619Y-36200000D01*
X30911666Y-36319047D01*
X31030714Y-36200000D01*
X30911666Y-36080952D01*
X30911666Y-36319047D01*
X33173571Y-38461904D02*
X32935476Y-38580952D01*
X32459285Y-38580952D01*
X32221190Y-38461904D01*
X32102142Y-38342857D01*
X31983095Y-38104761D01*
X31983095Y-37390476D01*
X32102142Y-37152380D01*
X32221190Y-37033333D01*
X32459285Y-36914285D01*
X32935476Y-36914285D01*
X33173571Y-37033333D01*
X34245000Y-38580952D02*
X34245000Y-36080952D01*
X34483095Y-37628571D02*
X35197380Y-38580952D01*
X35197380Y-36914285D02*
X34245000Y-37866666D01*
X36268809Y-36914285D02*
X36268809Y-38580952D01*
X36268809Y-37152380D02*
X36387857Y-37033333D01*
X36625952Y-36914285D01*
X36983095Y-36914285D01*
X37221190Y-37033333D01*
X37340238Y-37271428D01*
X37340238Y-38580952D01*
X39483095Y-38461904D02*
X39245000Y-38580952D01*
X38768809Y-38580952D01*
X38530714Y-38461904D01*
X38411666Y-38223809D01*
X38411666Y-37271428D01*
X38530714Y-37033333D01*
X38768809Y-36914285D01*
X39245000Y-36914285D01*
X39483095Y-37033333D01*
X39602142Y-37271428D01*
X39602142Y-37509523D01*
X38411666Y-37747619D01*
X40554523Y-38461904D02*
X40792619Y-38580952D01*
X41268809Y-38580952D01*
X41506904Y-38461904D01*
X41625952Y-38223809D01*
X41625952Y-38104761D01*
X41506904Y-37866666D01*
X41268809Y-37747619D01*
X40911666Y-37747619D01*
X40673571Y-37628571D01*
X40554523Y-37390476D01*
X40554523Y-37271428D01*
X40673571Y-37033333D01*
X40911666Y-36914285D01*
X41268809Y-36914285D01*
X41506904Y-37033333D01*
X42578333Y-38461904D02*
X42816428Y-38580952D01*
X43292619Y-38580952D01*
X43530714Y-38461904D01*
X43649761Y-38223809D01*
X43649761Y-38104761D01*
X43530714Y-37866666D01*
X43292619Y-37747619D01*
X42935476Y-37747619D01*
X42697380Y-37628571D01*
X42578333Y-37390476D01*
X42578333Y-37271428D01*
X42697380Y-37033333D01*
X42935476Y-36914285D01*
X43292619Y-36914285D01*
X43530714Y-37033333D01*
X44721190Y-38342857D02*
X44840238Y-38461904D01*
X44721190Y-38580952D01*
X44602142Y-38461904D01*
X44721190Y-38342857D01*
X44721190Y-38580952D01*
X44721190Y-37033333D02*
X44840238Y-37152380D01*
X44721190Y-37271428D01*
X44602142Y-37152380D01*
X44721190Y-37033333D01*
X44721190Y-37271428D01*
X48292619Y-36080952D02*
X48530714Y-36080952D01*
X48768809Y-36200000D01*
X48887857Y-36319047D01*
X49006904Y-36557142D01*
X49125952Y-37033333D01*
X49125952Y-37628571D01*
X49006904Y-38104761D01*
X48887857Y-38342857D01*
X48768809Y-38461904D01*
X48530714Y-38580952D01*
X48292619Y-38580952D01*
X48054523Y-38461904D01*
X47935476Y-38342857D01*
X47816428Y-38104761D01*
X47697380Y-37628571D01*
X47697380Y-37033333D01*
X47816428Y-36557142D01*
X47935476Y-36319047D01*
X48054523Y-36200000D01*
X48292619Y-36080952D01*
X50197380Y-38342857D02*
X50316428Y-38461904D01*
X50197380Y-38580952D01*
X50078333Y-38461904D01*
X50197380Y-38342857D01*
X50197380Y-38580952D01*
X52459285Y-36080952D02*
X51983095Y-36080952D01*
X51744999Y-36200000D01*
X51625952Y-36319047D01*
X51387857Y-36676190D01*
X51268809Y-37152380D01*
X51268809Y-38104761D01*
X51387857Y-38342857D01*
X51506904Y-38461904D01*
X51744999Y-38580952D01*
X52221190Y-38580952D01*
X52459285Y-38461904D01*
X52578333Y-38342857D01*
X52697380Y-38104761D01*
X52697380Y-37509523D01*
X52578333Y-37271428D01*
X52459285Y-37152380D01*
X52221190Y-37033333D01*
X51744999Y-37033333D01*
X51506904Y-37152380D01*
X51387857Y-37271428D01*
X51268809Y-37509523D01*
X53768809Y-38580952D02*
X53768809Y-36914285D01*
X53768809Y-37152380D02*
X53887857Y-37033333D01*
X54125952Y-36914285D01*
X54483095Y-36914285D01*
X54721190Y-37033333D01*
X54840238Y-37271428D01*
X54840238Y-38580952D01*
X54840238Y-37271428D02*
X54959285Y-37033333D01*
X55197380Y-36914285D01*
X55554523Y-36914285D01*
X55792619Y-37033333D01*
X55911666Y-37271428D01*
X55911666Y-38580952D01*
X57102142Y-38580952D02*
X57102142Y-36914285D01*
X57102142Y-37152380D02*
X57221190Y-37033333D01*
X57459285Y-36914285D01*
X57816428Y-36914285D01*
X58054523Y-37033333D01*
X58173571Y-37271428D01*
X58173571Y-38580952D01*
X58173571Y-37271428D02*
X58292619Y-37033333D01*
X58530714Y-36914285D01*
X58887857Y-36914285D01*
X59125952Y-37033333D01*
X59244999Y-37271428D01*
X59244999Y-38580952D01*
D11*
X19720000Y-22326500D02*
X19720000Y-24226500D01*
X19720000Y-24226500D02*
X18080000Y-24226500D01*
X18080000Y-24226500D02*
X18080000Y-22326500D01*
X18080000Y-22326500D02*
X19720000Y-22326500D01*
X18710000Y-17659000D02*
X18710000Y-18799000D01*
X18710000Y-18799000D02*
X19650000Y-18799000D01*
X19650000Y-18799000D02*
X19650000Y-17659000D01*
X19650000Y-17659000D02*
X18710000Y-17659000D01*
X26360000Y-18149000D02*
X25220000Y-18149000D01*
X25220000Y-18149000D02*
X25220000Y-19089000D01*
X25220000Y-19089000D02*
X26360000Y-19089000D01*
X26360000Y-19089000D02*
X26360000Y-18149000D01*
X17740000Y-17659000D02*
X17740000Y-18799000D01*
X17740000Y-18799000D02*
X18680000Y-18799000D01*
X18680000Y-18799000D02*
X18680000Y-17659000D01*
X18680000Y-17659000D02*
X17740000Y-17659000D01*
X31960000Y-27135000D02*
X31960000Y-16475000D01*
X45550000Y-27135000D02*
X31960000Y-27135000D01*
X45550000Y-16475000D02*
X45550000Y-27135000D01*
X31960000Y-16475000D02*
X45550000Y-16475000D01*
M02*
