G04 #@! TF.GenerationSoftware,KiCad,Pcbnew,(5.1.6)-1*
G04 #@! TF.CreationDate,2020-12-05T12:50:13+08:00*
G04 #@! TF.ProjectId,qomu-board,716f6d75-2d62-46f6-9172-642e6b696361,rev?*
G04 #@! TF.SameCoordinates,Original*
G04 #@! TF.FileFunction,Legend,Bot*
G04 #@! TF.FilePolarity,Positive*
%FSLAX46Y46*%
G04 Gerber Fmt 4.6, Leading zero omitted, Abs format (unit mm)*
G04 Created by KiCad (PCBNEW (5.1.6)-1) date 2020-12-05 12:50:13*
%MOMM*%
%LPD*%
G01*
G04 APERTURE LIST*
%ADD10C,0.120000*%
%ADD11C,0.150000*%
%ADD12C,0.100000*%
%ADD13C,0.200000*%
G04 APERTURE END LIST*
D10*
X34320952Y-27336190D02*
X34320952Y-26836190D01*
X34035238Y-27336190D02*
X34249523Y-27050476D01*
X34035238Y-26836190D02*
X34320952Y-27121904D01*
X30875000Y-19162857D02*
X30846428Y-19105714D01*
X30846428Y-19020000D01*
X30875000Y-18934285D01*
X30932142Y-18877142D01*
X30989285Y-18848571D01*
X31103571Y-18820000D01*
X31189285Y-18820000D01*
X31303571Y-18848571D01*
X31360714Y-18877142D01*
X31417857Y-18934285D01*
X31446428Y-19020000D01*
X31446428Y-19077142D01*
X31417857Y-19162857D01*
X31389285Y-19191428D01*
X31189285Y-19191428D01*
X31189285Y-19077142D01*
X31446428Y-19448571D02*
X30846428Y-19448571D01*
X31446428Y-19791428D01*
X30846428Y-19791428D01*
X31446428Y-20077142D02*
X30846428Y-20077142D01*
X30846428Y-20220000D01*
X30875000Y-20305714D01*
X30932142Y-20362857D01*
X30989285Y-20391428D01*
X31103571Y-20420000D01*
X31189285Y-20420000D01*
X31303571Y-20391428D01*
X31360714Y-20362857D01*
X31417857Y-20305714D01*
X31446428Y-20220000D01*
X31446428Y-20077142D01*
X27713809Y-25229523D02*
X27713809Y-25134285D01*
X27690000Y-25086666D01*
X27642380Y-25039047D01*
X27547142Y-25015238D01*
X27380476Y-25015238D01*
X27285238Y-25039047D01*
X27237619Y-25086666D01*
X27213809Y-25134285D01*
X27213809Y-25229523D01*
X27237619Y-25277142D01*
X27285238Y-25324761D01*
X27380476Y-25348571D01*
X27547142Y-25348571D01*
X27642380Y-25324761D01*
X27690000Y-25277142D01*
X27713809Y-25229523D01*
X27213809Y-24800952D02*
X27713809Y-24800952D01*
X27213809Y-24515238D01*
X27713809Y-24515238D01*
D11*
X28694000Y-24941000D02*
X28334000Y-25151000D01*
X28684000Y-24931000D02*
X28324000Y-24721000D01*
X27834000Y-24931000D02*
X28684000Y-24931000D01*
D10*
X31446428Y-22070000D02*
X31160714Y-21870000D01*
X31446428Y-21727142D02*
X30846428Y-21727142D01*
X30846428Y-21955714D01*
X30875000Y-22012857D01*
X30903571Y-22041428D01*
X30960714Y-22070000D01*
X31046428Y-22070000D01*
X31103571Y-22041428D01*
X31132142Y-22012857D01*
X31160714Y-21955714D01*
X31160714Y-21727142D01*
X30846428Y-22270000D02*
X31446428Y-22670000D01*
X30846428Y-22670000D02*
X31446428Y-22270000D01*
X30821428Y-24337857D02*
X30821428Y-24680714D01*
X31421428Y-24509285D02*
X30821428Y-24509285D01*
X30821428Y-24823571D02*
X31421428Y-25223571D01*
X30821428Y-25223571D02*
X31421428Y-24823571D01*
X31353571Y-27362857D02*
X30896428Y-27362857D01*
X31125000Y-27591428D02*
X31125000Y-27134285D01*
D11*
X34523000Y-18531000D02*
X34523000Y-18451000D01*
X34553000Y-19191000D02*
X34553000Y-19311000D01*
X37808000Y-19186000D02*
X37808000Y-19296000D01*
X38038000Y-19186000D02*
X37808000Y-19186000D01*
X38038000Y-18786000D02*
X38038000Y-19186000D01*
X37808000Y-18786000D02*
X38038000Y-18786000D01*
X37808000Y-18636000D02*
X37808000Y-18786000D01*
X34523000Y-18531000D02*
X34323000Y-18531000D01*
X34543000Y-19191000D02*
X34323000Y-19191000D01*
X34323000Y-18971000D02*
X34323000Y-19191000D01*
X35358000Y-18666000D02*
X35238000Y-18866000D01*
X35358000Y-19096000D02*
X35358000Y-18666000D01*
X35358000Y-18666000D02*
X35488000Y-18866000D01*
X34533000Y-18751000D02*
X34533000Y-18971000D01*
X34533000Y-18971000D02*
X34323000Y-18971000D01*
X34323000Y-18751000D02*
X34533000Y-18751000D01*
X34323000Y-18531000D02*
X34323000Y-18751000D01*
X42043000Y-19396000D02*
X42163000Y-19196000D01*
X42043000Y-18966000D02*
X42043000Y-19396000D01*
X42043000Y-19396000D02*
X41913000Y-19196000D01*
X21608000Y-18781000D02*
X21448000Y-18781000D01*
X21608000Y-19211000D02*
X21608000Y-18781000D01*
X21608000Y-18781000D02*
X21768000Y-18781000D01*
D10*
X35595238Y-27328571D02*
X35619047Y-27352380D01*
X35690476Y-27376190D01*
X35738095Y-27376190D01*
X35809523Y-27352380D01*
X35857142Y-27304761D01*
X35880952Y-27257142D01*
X35904761Y-27161904D01*
X35904761Y-27090476D01*
X35880952Y-26995238D01*
X35857142Y-26947619D01*
X35809523Y-26900000D01*
X35738095Y-26876190D01*
X35690476Y-26876190D01*
X35619047Y-26900000D01*
X35595238Y-26923809D01*
X41221904Y-27396190D02*
X41221904Y-26896190D01*
X40888571Y-26896190D02*
X40793333Y-26896190D01*
X40745714Y-26920000D01*
X40698095Y-26967619D01*
X40674285Y-27062857D01*
X40674285Y-27229523D01*
X40698095Y-27324761D01*
X40745714Y-27372380D01*
X40793333Y-27396190D01*
X40888571Y-27396190D01*
X40936190Y-27372380D01*
X40983809Y-27324761D01*
X41007619Y-27229523D01*
X41007619Y-27062857D01*
X40983809Y-26967619D01*
X40936190Y-26920000D01*
X40888571Y-26896190D01*
D12*
X39550000Y-25981000D02*
G75*
G03*
X39550000Y-25981000I-50000J0D01*
G01*
D10*
X39850000Y-24776000D02*
X40850000Y-24776000D01*
X39690000Y-26036000D02*
X40850000Y-26036000D01*
D12*
X36405000Y-25500000D02*
G75*
G03*
X36405000Y-25500000I-50000J0D01*
G01*
D10*
X36030000Y-26680000D02*
X35030000Y-26680000D01*
X36190000Y-25420000D02*
X35030000Y-25420000D01*
X41860000Y-22170000D02*
X41860000Y-23580000D01*
X39540000Y-23580000D02*
X39540000Y-21550000D01*
X39540000Y-23580000D02*
X40200000Y-23580000D01*
X41200000Y-23580000D02*
X41860000Y-23580000D01*
D12*
X21925000Y-18770000D02*
X21925000Y-19270000D01*
X22125000Y-18770000D02*
X21925000Y-18770000D01*
X21925000Y-22370000D02*
X21925000Y-21870000D01*
X22125000Y-22370000D02*
X21925000Y-22370000D01*
X28525000Y-22370000D02*
X28525000Y-21770000D01*
X28325000Y-22370000D02*
X28525000Y-22370000D01*
X28325000Y-18770000D02*
X28525000Y-18770000D01*
X28525000Y-18770000D02*
X28525000Y-19270000D01*
X40983355Y-19620000D02*
G75*
G03*
X40983355Y-19620000I-35355J0D01*
G01*
D13*
X19085000Y-26745000D02*
X19085000Y-17795000D01*
X12425000Y-26745000D02*
X12425000Y-17795000D01*
X12425000Y-17795000D02*
X12775000Y-17795000D01*
X12425000Y-26770000D02*
X12775000Y-26770000D01*
D12*
X40650000Y-18745000D02*
G75*
G03*
X40650000Y-18745000I-50000J0D01*
G01*
X42775000Y-23600000D02*
G75*
G03*
X42775000Y-23600000I-50000J0D01*
G01*
X42850000Y-24725000D02*
G75*
G03*
X42850000Y-24725000I-50000J0D01*
G01*
X21685000Y-20820000D02*
X21185000Y-20820000D01*
X21685000Y-20820000D02*
X21685000Y-20320000D01*
X19235000Y-20820000D02*
X19735000Y-20820000D01*
X19235000Y-20820000D02*
X19235000Y-20320000D01*
X21685000Y-17130000D02*
X21185000Y-17130000D01*
X19235000Y-17130000D02*
X19735000Y-17130000D01*
X21685000Y-17130000D02*
X21685000Y-17630000D01*
X19235000Y-17130000D02*
X19235000Y-17630000D01*
X28545000Y-28045000D02*
X28545000Y-28645000D01*
X28545000Y-28645000D02*
X27820000Y-28645000D01*
X19995000Y-28045000D02*
X19995000Y-28645000D01*
X19995000Y-28645000D02*
X20670000Y-28645000D01*
D13*
X35530000Y-21711000D02*
G75*
G03*
X35530000Y-21711000I-57000J0D01*
G01*
D11*
X36148000Y-22011000D02*
X35723000Y-22011000D01*
X35748000Y-19611000D02*
X35748000Y-19511000D01*
X36148000Y-19511000D02*
X35748000Y-19511000D01*
X39048000Y-19611000D02*
X39048000Y-19511000D01*
X38648000Y-19511000D02*
X39048000Y-19511000D01*
X39048000Y-21911000D02*
X39048000Y-22011000D01*
X38648000Y-22011000D02*
X39048000Y-22011000D01*
X37864000Y-24981000D02*
X38528000Y-24981000D01*
X38528000Y-24981000D02*
X38528000Y-24375500D01*
X37864000Y-24981000D02*
X38528000Y-24981000D01*
X38528000Y-24981000D02*
X38528000Y-24375500D01*
X37864000Y-22259000D02*
X38528000Y-22259000D01*
X38528000Y-22259000D02*
X38528000Y-22864500D01*
X37864000Y-24981000D02*
X38528000Y-24981000D01*
X38528000Y-24981000D02*
X38528000Y-24375500D01*
X36236000Y-22259000D02*
X35572000Y-22259000D01*
X35572000Y-22259000D02*
X35572000Y-22864500D01*
D13*
X35822000Y-24831000D02*
G75*
G03*
X35822000Y-24831000I-100000J0D01*
G01*
D12*
X19600000Y-21870000D02*
X19900000Y-21870000D01*
X19600000Y-22245000D02*
X19600000Y-21870000D01*
X19600000Y-23920000D02*
X19875000Y-23920000D01*
X19600000Y-23595000D02*
X19600000Y-23920000D01*
X21250000Y-23920000D02*
X21250000Y-23620000D01*
X20925000Y-23920000D02*
X21250000Y-23920000D01*
X21240000Y-22245000D02*
X21240000Y-21870000D01*
X20940000Y-21870000D02*
X21240000Y-21870000D01*
X19915000Y-22355000D02*
X19915000Y-22255000D01*
X20915000Y-22355000D02*
X19915000Y-22355000D01*
X20915000Y-22255000D02*
X20915000Y-22355000D01*
X19915000Y-22255000D02*
X20915000Y-22255000D01*
D11*
X14052380Y-21886666D02*
X14766666Y-21886666D01*
X14909523Y-21839047D01*
X15004761Y-21743809D01*
X15052380Y-21600952D01*
X15052380Y-21505714D01*
X14385714Y-22791428D02*
X15052380Y-22791428D01*
X14004761Y-22553333D02*
X14719047Y-22315238D01*
X14719047Y-22934285D01*
M02*
