G04 #@! TF.GenerationSoftware,KiCad,Pcbnew,(5.1.6)-1*
G04 #@! TF.CreationDate,2020-12-05T12:50:13+08:00*
G04 #@! TF.ProjectId,qomu-board,716f6d75-2d62-46f6-9172-642e6b696361,rev?*
G04 #@! TF.SameCoordinates,Original*
G04 #@! TF.FileFunction,Other,ECO1*
%FSLAX46Y46*%
G04 Gerber Fmt 4.6, Leading zero omitted, Abs format (unit mm)*
G04 Created by KiCad (PCBNEW (5.1.6)-1) date 2020-12-05 12:50:13*
%MOMM*%
%LPD*%
G01*
G04 APERTURE LIST*
%ADD10C,0.300000*%
G04 APERTURE END LIST*
D10*
X32326238Y-39596952D02*
X32326238Y-37096952D01*
X33278619Y-37096952D01*
X33516714Y-37216000D01*
X33635761Y-37335047D01*
X33754809Y-37573142D01*
X33754809Y-37930285D01*
X33635761Y-38168380D01*
X33516714Y-38287428D01*
X33278619Y-38406476D01*
X32326238Y-38406476D01*
X36254809Y-39358857D02*
X36135761Y-39477904D01*
X35778619Y-39596952D01*
X35540523Y-39596952D01*
X35183380Y-39477904D01*
X34945285Y-39239809D01*
X34826238Y-39001714D01*
X34707190Y-38525523D01*
X34707190Y-38168380D01*
X34826238Y-37692190D01*
X34945285Y-37454095D01*
X35183380Y-37216000D01*
X35540523Y-37096952D01*
X35778619Y-37096952D01*
X36135761Y-37216000D01*
X36254809Y-37335047D01*
X38159571Y-38287428D02*
X38516714Y-38406476D01*
X38635761Y-38525523D01*
X38754809Y-38763619D01*
X38754809Y-39120761D01*
X38635761Y-39358857D01*
X38516714Y-39477904D01*
X38278619Y-39596952D01*
X37326238Y-39596952D01*
X37326238Y-37096952D01*
X38159571Y-37096952D01*
X38397666Y-37216000D01*
X38516714Y-37335047D01*
X38635761Y-37573142D01*
X38635761Y-37811238D01*
X38516714Y-38049333D01*
X38397666Y-38168380D01*
X38159571Y-38287428D01*
X37326238Y-38287428D01*
X41373857Y-37096952D02*
X42802428Y-37096952D01*
X42088142Y-39596952D02*
X42088142Y-37096952D01*
X43635761Y-39596952D02*
X43635761Y-37096952D01*
X44707190Y-39596952D02*
X44707190Y-38287428D01*
X44588142Y-38049333D01*
X44350047Y-37930285D01*
X43992904Y-37930285D01*
X43754809Y-38049333D01*
X43635761Y-38168380D01*
X45897666Y-39596952D02*
X45897666Y-37930285D01*
X45897666Y-37096952D02*
X45778619Y-37216000D01*
X45897666Y-37335047D01*
X46016714Y-37216000D01*
X45897666Y-37096952D01*
X45897666Y-37335047D01*
X48159571Y-39477904D02*
X47921476Y-39596952D01*
X47445285Y-39596952D01*
X47207190Y-39477904D01*
X47088142Y-39358857D01*
X46969095Y-39120761D01*
X46969095Y-38406476D01*
X47088142Y-38168380D01*
X47207190Y-38049333D01*
X47445285Y-37930285D01*
X47921476Y-37930285D01*
X48159571Y-38049333D01*
X49231000Y-39596952D02*
X49231000Y-37096952D01*
X49469095Y-38644571D02*
X50183380Y-39596952D01*
X50183380Y-37930285D02*
X49231000Y-38882666D01*
X51254809Y-37930285D02*
X51254809Y-39596952D01*
X51254809Y-38168380D02*
X51373857Y-38049333D01*
X51611952Y-37930285D01*
X51969095Y-37930285D01*
X52207190Y-38049333D01*
X52326238Y-38287428D01*
X52326238Y-39596952D01*
X54469095Y-39477904D02*
X54231000Y-39596952D01*
X53754809Y-39596952D01*
X53516714Y-39477904D01*
X53397666Y-39239809D01*
X53397666Y-38287428D01*
X53516714Y-38049333D01*
X53754809Y-37930285D01*
X54231000Y-37930285D01*
X54469095Y-38049333D01*
X54588142Y-38287428D01*
X54588142Y-38525523D01*
X53397666Y-38763619D01*
X55540523Y-39477904D02*
X55778619Y-39596952D01*
X56254809Y-39596952D01*
X56492904Y-39477904D01*
X56611952Y-39239809D01*
X56611952Y-39120761D01*
X56492904Y-38882666D01*
X56254809Y-38763619D01*
X55897666Y-38763619D01*
X55659571Y-38644571D01*
X55540523Y-38406476D01*
X55540523Y-38287428D01*
X55659571Y-38049333D01*
X55897666Y-37930285D01*
X56254809Y-37930285D01*
X56492904Y-38049333D01*
X57564333Y-39477904D02*
X57802428Y-39596952D01*
X58278619Y-39596952D01*
X58516714Y-39477904D01*
X58635761Y-39239809D01*
X58635761Y-39120761D01*
X58516714Y-38882666D01*
X58278619Y-38763619D01*
X57921476Y-38763619D01*
X57683380Y-38644571D01*
X57564333Y-38406476D01*
X57564333Y-38287428D01*
X57683380Y-38049333D01*
X57921476Y-37930285D01*
X58278619Y-37930285D01*
X58516714Y-38049333D01*
X59707190Y-39358857D02*
X59826238Y-39477904D01*
X59707190Y-39596952D01*
X59588142Y-39477904D01*
X59707190Y-39358857D01*
X59707190Y-39596952D01*
X59707190Y-38049333D02*
X59826238Y-38168380D01*
X59707190Y-38287428D01*
X59588142Y-38168380D01*
X59707190Y-38049333D01*
X59707190Y-38287428D01*
X63278619Y-37096952D02*
X63516714Y-37096952D01*
X63754809Y-37216000D01*
X63873857Y-37335047D01*
X63992904Y-37573142D01*
X64111952Y-38049333D01*
X64111952Y-38644571D01*
X63992904Y-39120761D01*
X63873857Y-39358857D01*
X63754809Y-39477904D01*
X63516714Y-39596952D01*
X63278619Y-39596952D01*
X63040523Y-39477904D01*
X62921476Y-39358857D01*
X62802428Y-39120761D01*
X62683380Y-38644571D01*
X62683380Y-38049333D01*
X62802428Y-37573142D01*
X62921476Y-37335047D01*
X63040523Y-37216000D01*
X63278619Y-37096952D01*
X65183380Y-39358857D02*
X65302428Y-39477904D01*
X65183380Y-39596952D01*
X65064333Y-39477904D01*
X65183380Y-39358857D01*
X65183380Y-39596952D01*
X67445285Y-37096952D02*
X66969095Y-37096952D01*
X66730999Y-37216000D01*
X66611952Y-37335047D01*
X66373857Y-37692190D01*
X66254809Y-38168380D01*
X66254809Y-39120761D01*
X66373857Y-39358857D01*
X66492904Y-39477904D01*
X66730999Y-39596952D01*
X67207190Y-39596952D01*
X67445285Y-39477904D01*
X67564333Y-39358857D01*
X67683380Y-39120761D01*
X67683380Y-38525523D01*
X67564333Y-38287428D01*
X67445285Y-38168380D01*
X67207190Y-38049333D01*
X66730999Y-38049333D01*
X66492904Y-38168380D01*
X66373857Y-38287428D01*
X66254809Y-38525523D01*
X68754809Y-39596952D02*
X68754809Y-37930285D01*
X68754809Y-38168380D02*
X68873857Y-38049333D01*
X69111952Y-37930285D01*
X69469095Y-37930285D01*
X69707190Y-38049333D01*
X69826238Y-38287428D01*
X69826238Y-39596952D01*
X69826238Y-38287428D02*
X69945285Y-38049333D01*
X70183380Y-37930285D01*
X70540523Y-37930285D01*
X70778619Y-38049333D01*
X70897666Y-38287428D01*
X70897666Y-39596952D01*
X72088142Y-39596952D02*
X72088142Y-37930285D01*
X72088142Y-38168380D02*
X72207190Y-38049333D01*
X72445285Y-37930285D01*
X72802428Y-37930285D01*
X73040523Y-38049333D01*
X73159571Y-38287428D01*
X73159571Y-39596952D01*
X73159571Y-38287428D02*
X73278619Y-38049333D01*
X73516714Y-37930285D01*
X73873857Y-37930285D01*
X74111952Y-38049333D01*
X74231000Y-38287428D01*
X74231000Y-39596952D01*
M02*
