G04 #@! TF.GenerationSoftware,KiCad,Pcbnew,(5.1.6)-1*
G04 #@! TF.CreationDate,2020-12-05T12:50:13+08:00*
G04 #@! TF.ProjectId,qomu-board,716f6d75-2d62-46f6-9172-642e6b696361,rev?*
G04 #@! TF.SameCoordinates,Original*
G04 #@! TF.FileFunction,Other,User*
%FSLAX46Y46*%
G04 Gerber Fmt 4.6, Leading zero omitted, Abs format (unit mm)*
G04 Created by KiCad (PCBNEW (5.1.6)-1) date 2020-12-05 12:50:13*
%MOMM*%
%LPD*%
G01*
G04 APERTURE LIST*
%ADD10C,0.050000*%
%ADD11C,0.030000*%
G04 APERTURE END LIST*
D10*
X39440000Y-24656000D02*
X39440000Y-26156000D01*
X41260000Y-24656000D02*
X39440000Y-24656000D01*
X41260000Y-26156000D02*
X41260000Y-24656000D01*
X39440000Y-26156000D02*
X41260000Y-26156000D01*
X36440000Y-26800000D02*
X36440000Y-25300000D01*
X34620000Y-26800000D02*
X36440000Y-26800000D01*
X34620000Y-25300000D02*
X34620000Y-26800000D01*
X36440000Y-25300000D02*
X34620000Y-25300000D01*
X42000000Y-21150000D02*
X39400000Y-21150000D01*
X39400000Y-21150000D02*
X39400000Y-24550000D01*
X39400000Y-24550000D02*
X42000000Y-24550000D01*
X42000000Y-24550000D02*
X42000000Y-21150000D01*
X21795000Y-16890000D02*
X28655000Y-16890000D01*
X21795000Y-16890000D02*
X21795000Y-24250000D01*
X28655000Y-16890000D02*
X28655000Y-24250000D01*
X21795000Y-24250000D02*
X28655000Y-24250000D01*
X37850000Y-25120000D02*
X37850000Y-25820000D01*
X37850000Y-25820000D02*
X39250000Y-25820000D01*
X39250000Y-25820000D02*
X39250000Y-25120000D01*
X39250000Y-25120000D02*
X37850000Y-25120000D01*
X36450000Y-25120000D02*
X36450000Y-25820000D01*
X36450000Y-25820000D02*
X37850000Y-25820000D01*
X37850000Y-25820000D02*
X37850000Y-25120000D01*
X37850000Y-25120000D02*
X36450000Y-25120000D01*
D11*
X42173000Y-19670000D02*
X40973000Y-19670000D01*
X40973000Y-19670000D02*
X40973000Y-20870000D01*
X40973000Y-20870000D02*
X42173000Y-20870000D01*
X42173000Y-20870000D02*
X42173000Y-19670000D01*
D10*
X40570000Y-18500000D02*
X39430000Y-18500000D01*
X39430000Y-18500000D02*
X39430000Y-19440000D01*
X39430000Y-19440000D02*
X40570000Y-19440000D01*
X40570000Y-19440000D02*
X40570000Y-18500000D01*
X42970000Y-23570000D02*
X42970000Y-22430000D01*
X42970000Y-22430000D02*
X42030000Y-22430000D01*
X42030000Y-22430000D02*
X42030000Y-23570000D01*
X42030000Y-23570000D02*
X42970000Y-23570000D01*
X42970000Y-24720000D02*
X42970000Y-23580000D01*
X42970000Y-23580000D02*
X42030000Y-23580000D01*
X42030000Y-23580000D02*
X42030000Y-24720000D01*
X42030000Y-24720000D02*
X42970000Y-24720000D01*
X35468000Y-23342500D02*
X35468000Y-25242500D01*
X35468000Y-25242500D02*
X33828000Y-25242500D01*
X33828000Y-25242500D02*
X33828000Y-23342500D01*
X33828000Y-23342500D02*
X35468000Y-23342500D01*
X21785000Y-17020000D02*
X21785000Y-20930000D01*
X19135000Y-20930000D02*
X21785000Y-20930000D01*
X19135000Y-17020000D02*
X19135000Y-20930000D01*
X19135000Y-17020000D02*
X21785000Y-17020000D01*
X35498000Y-19361000D02*
X35498000Y-22161000D01*
X39298000Y-19361000D02*
X35498000Y-19361000D01*
X39298000Y-22161000D02*
X39298000Y-19361000D01*
X35498000Y-22161000D02*
X39298000Y-22161000D01*
X35500000Y-25020000D02*
X38600000Y-25020000D01*
X38600000Y-25020000D02*
X38600000Y-22220000D01*
X38600000Y-22220000D02*
X35500000Y-22220000D01*
X35500000Y-22220000D02*
X35500000Y-25020000D01*
X16700000Y-28350000D02*
X16700000Y-27650000D01*
X16700000Y-27650000D02*
X15300000Y-27650000D01*
X15300000Y-27650000D02*
X15300000Y-28350000D01*
X15300000Y-28350000D02*
X16700000Y-28350000D01*
X13100000Y-27650000D02*
X13100000Y-28350000D01*
X13100000Y-28350000D02*
X14500000Y-28350000D01*
X14500000Y-28350000D02*
X14500000Y-27650000D01*
X14500000Y-27650000D02*
X13100000Y-27650000D01*
X19425000Y-21145000D02*
X19425000Y-24645000D01*
X19425000Y-24645000D02*
X21425000Y-24645000D01*
X21425000Y-24645000D02*
X21425000Y-21145000D01*
X21425000Y-21145000D02*
X19425000Y-21145000D01*
X31460000Y-17690000D02*
X31460000Y-16990000D01*
X31460000Y-16990000D02*
X30060000Y-16990000D01*
X30060000Y-16990000D02*
X30060000Y-17690000D01*
X30060000Y-17690000D02*
X31460000Y-17690000D01*
X30060000Y-17695000D02*
X30060000Y-18395000D01*
X30060000Y-18395000D02*
X31460000Y-18395000D01*
X31460000Y-18395000D02*
X31460000Y-17695000D01*
X31460000Y-17695000D02*
X30060000Y-17695000D01*
X39250000Y-26520000D02*
X39250000Y-25820000D01*
X39250000Y-25820000D02*
X37850000Y-25820000D01*
X37850000Y-25820000D02*
X37850000Y-26520000D01*
X37850000Y-26520000D02*
X39250000Y-26520000D01*
X35250000Y-22620000D02*
X35250000Y-21920000D01*
X35250000Y-21920000D02*
X33850000Y-21920000D01*
X33850000Y-21920000D02*
X33850000Y-22620000D01*
X33850000Y-22620000D02*
X35250000Y-22620000D01*
X33100000Y-25570000D02*
X33800000Y-25570000D01*
X33800000Y-25570000D02*
X33800000Y-24170000D01*
X33800000Y-24170000D02*
X33100000Y-24170000D01*
X33100000Y-24170000D02*
X33100000Y-25570000D01*
X33110000Y-24170000D02*
X33810000Y-24170000D01*
X33810000Y-24170000D02*
X33810000Y-22770000D01*
X33810000Y-22770000D02*
X33110000Y-22770000D01*
X33110000Y-22770000D02*
X33110000Y-24170000D01*
X42200000Y-21870000D02*
X42900000Y-21870000D01*
X42900000Y-21870000D02*
X42900000Y-20470000D01*
X42900000Y-20470000D02*
X42200000Y-20470000D01*
X42200000Y-20470000D02*
X42200000Y-21870000D01*
X42900000Y-20470000D02*
X42900000Y-19070000D01*
X42200000Y-20470000D02*
X42900000Y-20470000D01*
X42200000Y-19070000D02*
X42200000Y-20470000D01*
X42900000Y-19070000D02*
X42200000Y-19070000D01*
X40900000Y-19470000D02*
X40200000Y-19470000D01*
X40200000Y-19470000D02*
X40200000Y-20870000D01*
X40200000Y-20870000D02*
X40900000Y-20870000D01*
X40900000Y-20870000D02*
X40900000Y-19470000D01*
X28660000Y-17695000D02*
X28660000Y-18395000D01*
X28660000Y-18395000D02*
X30060000Y-18395000D01*
X30060000Y-18395000D02*
X30060000Y-17695000D01*
X30060000Y-17695000D02*
X28660000Y-17695000D01*
X28660000Y-16990000D02*
X28660000Y-17690000D01*
X28660000Y-17690000D02*
X30060000Y-17690000D01*
X30060000Y-17690000D02*
X30060000Y-16990000D01*
X30060000Y-16990000D02*
X28660000Y-16990000D01*
X35188000Y-21220000D02*
X35188000Y-20520000D01*
X35188000Y-20520000D02*
X33788000Y-20520000D01*
X33788000Y-20520000D02*
X33788000Y-21220000D01*
X33788000Y-21220000D02*
X35188000Y-21220000D01*
X35188000Y-20520000D02*
X35188000Y-19820000D01*
X35188000Y-19820000D02*
X33788000Y-19820000D01*
X33788000Y-19820000D02*
X33788000Y-20520000D01*
X33788000Y-20520000D02*
X35188000Y-20520000D01*
X35188000Y-21920000D02*
X35188000Y-21220000D01*
X35188000Y-21220000D02*
X33788000Y-21220000D01*
X33788000Y-21220000D02*
X33788000Y-21920000D01*
X33788000Y-21920000D02*
X35188000Y-21920000D01*
X18900000Y-28350000D02*
X18900000Y-27650000D01*
X18900000Y-27650000D02*
X17500000Y-27650000D01*
X17500000Y-27650000D02*
X17500000Y-28350000D01*
X17500000Y-28350000D02*
X18900000Y-28350000D01*
X40850000Y-26170000D02*
X40850000Y-26870000D01*
X40850000Y-26870000D02*
X42250000Y-26870000D01*
X42250000Y-26870000D02*
X42250000Y-26170000D01*
X42250000Y-26170000D02*
X40850000Y-26170000D01*
X39250000Y-27220000D02*
X39250000Y-26520000D01*
X39250000Y-26520000D02*
X37850000Y-26520000D01*
X37850000Y-26520000D02*
X37850000Y-27220000D01*
X37850000Y-27220000D02*
X39250000Y-27220000D01*
X33768000Y-20940000D02*
X33768000Y-19890000D01*
X33768000Y-19890000D02*
X33268000Y-19890000D01*
X33268000Y-19890000D02*
X33268000Y-20940000D01*
X33268000Y-20940000D02*
X33768000Y-20940000D01*
X33278000Y-21510000D02*
X33278000Y-22560000D01*
X33278000Y-22560000D02*
X33778000Y-22560000D01*
X33778000Y-22560000D02*
X33778000Y-21510000D01*
X33778000Y-21510000D02*
X33278000Y-21510000D01*
X33300000Y-25610000D02*
X33300000Y-26660000D01*
X33300000Y-26660000D02*
X33800000Y-26660000D01*
X33800000Y-26660000D02*
X33800000Y-25610000D01*
X33800000Y-25610000D02*
X33300000Y-25610000D01*
X42750000Y-26845000D02*
X42750000Y-25795000D01*
X42750000Y-25795000D02*
X42250000Y-25795000D01*
X42250000Y-25795000D02*
X42250000Y-26845000D01*
X42250000Y-26845000D02*
X42750000Y-26845000D01*
X43075000Y-21900000D02*
X42025000Y-21900000D01*
X42025000Y-21900000D02*
X42025000Y-22400000D01*
X42025000Y-22400000D02*
X43075000Y-22400000D01*
X43075000Y-22400000D02*
X43075000Y-21900000D01*
X42250000Y-24745000D02*
X42250000Y-25795000D01*
X42250000Y-25795000D02*
X42750000Y-25795000D01*
X42750000Y-25795000D02*
X42750000Y-24745000D01*
X42750000Y-24745000D02*
X42250000Y-24745000D01*
X43075000Y-18570000D02*
X42025000Y-18570000D01*
X42025000Y-18570000D02*
X42025000Y-19070000D01*
X42025000Y-19070000D02*
X43075000Y-19070000D01*
X43075000Y-19070000D02*
X43075000Y-18570000D01*
X25700000Y-25520000D02*
X25700000Y-24820000D01*
X25700000Y-24820000D02*
X24300000Y-24820000D01*
X24300000Y-24820000D02*
X24300000Y-25520000D01*
X24300000Y-25520000D02*
X25700000Y-25520000D01*
X39450000Y-26170000D02*
X39450000Y-26870000D01*
X39450000Y-26870000D02*
X40850000Y-26870000D01*
X40850000Y-26870000D02*
X40850000Y-26170000D01*
X40850000Y-26170000D02*
X39450000Y-26170000D01*
X38650000Y-23620000D02*
X39350000Y-23620000D01*
X39350000Y-23620000D02*
X39350000Y-22220000D01*
X39350000Y-22220000D02*
X38650000Y-22220000D01*
X38650000Y-22220000D02*
X38650000Y-23620000D01*
X36450000Y-25820000D02*
X36450000Y-26520000D01*
X36450000Y-26520000D02*
X37850000Y-26520000D01*
X37850000Y-26520000D02*
X37850000Y-25820000D01*
X37850000Y-25820000D02*
X36450000Y-25820000D01*
X39350000Y-23620000D02*
X38650000Y-23620000D01*
X38650000Y-23620000D02*
X38650000Y-25020000D01*
X38650000Y-25020000D02*
X39350000Y-25020000D01*
X39350000Y-25020000D02*
X39350000Y-23620000D01*
X36450000Y-26520000D02*
X36450000Y-27220000D01*
X36450000Y-27220000D02*
X37850000Y-27220000D01*
X37850000Y-27220000D02*
X37850000Y-26520000D01*
X37850000Y-26520000D02*
X36450000Y-26520000D01*
X40200000Y-19470000D02*
X39500000Y-19470000D01*
X39500000Y-19470000D02*
X39500000Y-20870000D01*
X39500000Y-20870000D02*
X40200000Y-20870000D01*
X40200000Y-20870000D02*
X40200000Y-19470000D01*
X35250000Y-23320000D02*
X35250000Y-22620000D01*
X35250000Y-22620000D02*
X33850000Y-22620000D01*
X33850000Y-22620000D02*
X33850000Y-23320000D01*
X33850000Y-23320000D02*
X35250000Y-23320000D01*
X41300000Y-26170000D02*
X42000000Y-26170000D01*
X42000000Y-26170000D02*
X42000000Y-24770000D01*
X42000000Y-24770000D02*
X41300000Y-24770000D01*
X41300000Y-24770000D02*
X41300000Y-26170000D01*
X34550000Y-25320000D02*
X33850000Y-25320000D01*
X33850000Y-25320000D02*
X33850000Y-26720000D01*
X33850000Y-26720000D02*
X34550000Y-26720000D01*
X34550000Y-26720000D02*
X34550000Y-25320000D01*
M02*
