M48
; DRILL file {KiCad (5.1.6)-1} date 12/05/20 12:50:28
; FORMAT={-:-/ absolute / inch / decimal}
; #@! TF.CreationDate,2020-12-05T12:50:28+08:00
; #@! TF.GenerationSoftware,Kicad,Pcbnew,(5.1.6)-1
; #@! TF.FileFunction,Plated,1,2,Blind
FMAT,2
INCH
T1C0.0039
%
G90
G05
T1
X1.3071Y-0.7972
X1.3071Y-0.8071
X1.3386Y-0.9213
X1.3386Y-0.9331
X1.3445Y-0.8504
X1.3445Y-0.8602
X1.3602Y-1.0276
X1.372Y-1.0276
X1.3819Y-1.0197
X1.4252Y-0.7717
X1.437Y-0.7756
X1.4646Y-0.7402
X1.4646Y-0.7598
X1.4646Y-0.7795
X1.4646Y-0.7992
X1.4843Y-0.7402
X1.4843Y-0.7598
X1.4843Y-0.7795
X1.4843Y-0.7992
X1.5039Y-0.7402
X1.5039Y-0.7598
X1.5039Y-0.7795
X1.5039Y-0.7992
X1.5236Y-0.7402
X1.5236Y-0.7598
X1.5236Y-0.7795
X1.5236Y-0.7992
X1.5669Y-1.0394
X1.5669Y-1.0512
X1.5669Y-1.063
X1.5787Y-1.0394
X1.5787Y-1.0512
X1.5787Y-1.063
X1.7126Y-0.8465
X1.7165Y-0.9528
X1.748Y-0.7441
X1.752Y-1.0197
T0
M30
