G04 #@! TF.GenerationSoftware,KiCad,Pcbnew,(5.1.6)-1*
G04 #@! TF.CreationDate,2020-12-05T12:50:13+08:00*
G04 #@! TF.ProjectId,qomu-board,716f6d75-2d62-46f6-9172-642e6b696361,rev?*
G04 #@! TF.SameCoordinates,Original*
G04 #@! TF.FileFunction,Soldermask,Bot*
G04 #@! TF.FilePolarity,Negative*
%FSLAX46Y46*%
G04 Gerber Fmt 4.6, Leading zero omitted, Abs format (unit mm)*
G04 Created by KiCad (PCBNEW (5.1.6)-1) date 2020-12-05 12:50:13*
%MOMM*%
%LPD*%
G01*
G04 APERTURE LIST*
%ADD10C,0.100000*%
%ADD11O,0.600000X0.750000*%
%ADD12R,0.700000X0.900000*%
%ADD13R,0.740000X2.790000*%
%ADD14R,0.400000X0.400000*%
%ADD15R,1.250000X1.500000*%
%ADD16O,1.250000X1.500000*%
%ADD17O,1.700000X0.900000*%
%ADD18O,2.400000X0.900000*%
%ADD19C,0.650000*%
%ADD20R,0.270000X0.180000*%
%ADD21R,0.270000X0.520000*%
%ADD22R,0.180000X0.270000*%
%ADD23R,0.520000X0.270000*%
%ADD24R,1.140000X0.575000*%
%ADD25C,0.600000*%
%ADD26C,1.100000*%
%ADD27R,0.700000X1.500000*%
%ADD28C,1.200000*%
%ADD29R,1.000000X0.800000*%
%ADD30R,0.150000X0.900000*%
%ADD31R,0.670000X0.300000*%
%ADD32O,0.750000X0.600000*%
%ADD33C,0.211000*%
%ADD34C,1.000000*%
%ADD35R,0.800000X0.800000*%
%ADD36C,0.100000*%
G04 APERTURE END LIST*
D10*
G36*
X45648000Y-26386000D02*
G01*
X45298000Y-27486000D01*
X45248000Y-27536000D01*
X44248000Y-27536000D01*
X44198000Y-27186000D01*
X43998000Y-26936000D01*
X43798000Y-26786000D01*
X43648000Y-26736000D01*
X43448000Y-26736000D01*
X43148000Y-26786000D01*
X43025000Y-26850000D01*
X43025000Y-25325000D01*
X45850000Y-25325000D01*
X45648000Y-26386000D01*
G37*
X45648000Y-26386000D02*
X45298000Y-27486000D01*
X45248000Y-27536000D01*
X44248000Y-27536000D01*
X44198000Y-27186000D01*
X43998000Y-26936000D01*
X43798000Y-26786000D01*
X43648000Y-26736000D01*
X43448000Y-26736000D01*
X43148000Y-26786000D01*
X43025000Y-26850000D01*
X43025000Y-25325000D01*
X45850000Y-25325000D01*
X45648000Y-26386000D01*
G36*
X45298000Y-18186000D02*
G01*
X45648000Y-19336000D01*
X45825000Y-20275000D01*
X43075000Y-20275000D01*
X43075000Y-18150000D01*
X45198000Y-18136000D01*
X45298000Y-18186000D01*
G37*
X45298000Y-18186000D02*
X45648000Y-19336000D01*
X45825000Y-20275000D01*
X43075000Y-20275000D01*
X43075000Y-18150000D01*
X45198000Y-18136000D01*
X45298000Y-18186000D01*
G36*
X45800000Y-25025000D02*
G01*
X43075000Y-25025000D01*
X43075000Y-20600000D01*
X45800000Y-20600000D01*
X45800000Y-25025000D01*
G37*
X45800000Y-25025000D02*
X43075000Y-25025000D01*
X43075000Y-20600000D01*
X45800000Y-20600000D01*
X45800000Y-25025000D01*
G36*
X40410000Y-18660000D02*
G01*
X40040000Y-18660000D01*
X40040000Y-18930000D01*
X40410000Y-18930000D01*
X40410000Y-18660000D01*
G37*
G36*
X39900000Y-18660000D02*
G01*
X39550000Y-18660000D01*
X39550000Y-19280000D01*
X39900000Y-19280000D01*
X39900000Y-18660000D01*
G37*
G36*
X40410000Y-19010000D02*
G01*
X40040000Y-19010000D01*
X40040000Y-19280000D01*
X40410000Y-19280000D01*
X40410000Y-19010000D01*
G37*
G36*
X42810000Y-23410000D02*
G01*
X42810000Y-23040000D01*
X42540000Y-23040000D01*
X42540000Y-23410000D01*
X42810000Y-23410000D01*
G37*
G36*
X42810000Y-22900000D02*
G01*
X42810000Y-22550000D01*
X42190000Y-22550000D01*
X42190000Y-22900000D01*
X42810000Y-22900000D01*
G37*
G36*
X42460000Y-23410000D02*
G01*
X42460000Y-23040000D01*
X42190000Y-23040000D01*
X42190000Y-23410000D01*
X42460000Y-23410000D01*
G37*
G36*
X42810000Y-24560000D02*
G01*
X42810000Y-24190000D01*
X42540000Y-24190000D01*
X42540000Y-24560000D01*
X42810000Y-24560000D01*
G37*
G36*
X42810000Y-24050000D02*
G01*
X42810000Y-23700000D01*
X42190000Y-23700000D01*
X42190000Y-24050000D01*
X42810000Y-24050000D01*
G37*
G36*
X42460000Y-24560000D02*
G01*
X42460000Y-24190000D01*
X42190000Y-24190000D01*
X42190000Y-24560000D01*
X42460000Y-24560000D01*
G37*
G36*
X40010589Y-25406000D02*
G01*
X40350000Y-25066589D01*
X40689411Y-25406000D01*
X40350000Y-25745411D01*
X40010589Y-25406000D01*
G37*
G36*
X40100000Y-25006000D02*
G01*
X39920000Y-25186000D01*
X39740000Y-25186000D01*
X39740000Y-24976000D01*
X40100000Y-24976000D01*
X40100000Y-25006000D01*
G37*
G36*
X40960000Y-25186000D02*
G01*
X40780000Y-25186000D01*
X40600000Y-25006000D01*
X40600000Y-24976000D01*
X40960000Y-24976000D01*
X40960000Y-25186000D01*
G37*
G36*
X40960000Y-25836000D02*
G01*
X40600000Y-25836000D01*
X40600000Y-25806000D01*
X40780000Y-25626000D01*
X40960000Y-25626000D01*
X40960000Y-25836000D01*
G37*
G36*
X40100000Y-25806000D02*
G01*
X40100000Y-25836000D01*
X39740000Y-25836000D01*
X39740000Y-25626000D01*
X39920000Y-25626000D01*
X40100000Y-25806000D01*
G37*
G36*
X35869411Y-26050000D02*
G01*
X35530000Y-26389411D01*
X35190589Y-26050000D01*
X35530000Y-25710589D01*
X35869411Y-26050000D01*
G37*
G36*
X35780000Y-26450000D02*
G01*
X35960000Y-26270000D01*
X36140000Y-26270000D01*
X36140000Y-26480000D01*
X35780000Y-26480000D01*
X35780000Y-26450000D01*
G37*
G36*
X34920000Y-26270000D02*
G01*
X35100000Y-26270000D01*
X35280000Y-26450000D01*
X35280000Y-26480000D01*
X34920000Y-26480000D01*
X34920000Y-26270000D01*
G37*
G36*
X34920000Y-25620000D02*
G01*
X35280000Y-25620000D01*
X35280000Y-25650000D01*
X35100000Y-25830000D01*
X34920000Y-25830000D01*
X34920000Y-25620000D01*
G37*
G36*
X35780000Y-25650000D02*
G01*
X35780000Y-25620000D01*
X36140000Y-25620000D01*
X36140000Y-25830000D01*
X35960000Y-25830000D01*
X35780000Y-25650000D01*
G37*
D11*
X21675000Y-19775000D03*
D12*
X40050000Y-21900000D03*
X41350000Y-21900000D03*
X40700000Y-23800000D03*
D13*
X22685000Y-18535000D03*
X22685000Y-22605000D03*
X23955000Y-18535000D03*
X23955000Y-22605000D03*
X25225000Y-18535000D03*
X25225000Y-22605000D03*
X26495000Y-18535000D03*
X26495000Y-22605000D03*
X27765000Y-18535000D03*
X27765000Y-22605000D03*
G36*
G01*
X38000000Y-25570000D02*
X38000000Y-25370000D01*
G75*
G02*
X38100000Y-25270000I100000J0D01*
G01*
X38360000Y-25270000D01*
G75*
G02*
X38460000Y-25370000I0J-100000D01*
G01*
X38460000Y-25570000D01*
G75*
G02*
X38360000Y-25670000I-100000J0D01*
G01*
X38100000Y-25670000D01*
G75*
G02*
X38000000Y-25570000I0J100000D01*
G01*
G37*
G36*
G01*
X38640000Y-25570000D02*
X38640000Y-25370000D01*
G75*
G02*
X38740000Y-25270000I100000J0D01*
G01*
X39000000Y-25270000D01*
G75*
G02*
X39100000Y-25370000I0J-100000D01*
G01*
X39100000Y-25570000D01*
G75*
G02*
X39000000Y-25670000I-100000J0D01*
G01*
X38740000Y-25670000D01*
G75*
G02*
X38640000Y-25570000I0J100000D01*
G01*
G37*
G36*
G01*
X36600000Y-25570000D02*
X36600000Y-25370000D01*
G75*
G02*
X36700000Y-25270000I100000J0D01*
G01*
X36960000Y-25270000D01*
G75*
G02*
X37060000Y-25370000I0J-100000D01*
G01*
X37060000Y-25570000D01*
G75*
G02*
X36960000Y-25670000I-100000J0D01*
G01*
X36700000Y-25670000D01*
G75*
G02*
X36600000Y-25570000I0J100000D01*
G01*
G37*
G36*
G01*
X37240000Y-25570000D02*
X37240000Y-25370000D01*
G75*
G02*
X37340000Y-25270000I100000J0D01*
G01*
X37600000Y-25270000D01*
G75*
G02*
X37700000Y-25370000I0J-100000D01*
G01*
X37700000Y-25570000D01*
G75*
G02*
X37600000Y-25670000I-100000J0D01*
G01*
X37340000Y-25670000D01*
G75*
G02*
X37240000Y-25570000I0J100000D01*
G01*
G37*
D14*
X41873000Y-19970000D03*
X41273000Y-19970000D03*
X41873000Y-20570000D03*
X41273000Y-20570000D03*
D15*
X29946000Y-27370000D03*
D16*
X29946000Y-24830000D03*
X29946000Y-22290000D03*
X29946000Y-19750000D03*
D17*
X14165000Y-26595000D03*
X14165000Y-17945000D03*
D18*
X17545000Y-26595000D03*
X17545000Y-17941000D03*
D19*
X17175000Y-23545000D03*
X17175000Y-21845000D03*
X17175000Y-24395000D03*
X17175000Y-20995000D03*
X17175000Y-22695000D03*
X17175000Y-19295000D03*
X17175000Y-20145000D03*
X17175000Y-25245000D03*
X18525000Y-20995000D03*
X18525000Y-19295000D03*
X18525000Y-20145000D03*
X18525000Y-22695000D03*
X18525000Y-21845000D03*
X18525000Y-23545000D03*
X18525000Y-24395000D03*
X18525000Y-25245000D03*
D20*
X40225000Y-18795000D03*
X40225000Y-19145000D03*
D21*
X39725000Y-18970000D03*
D22*
X42675000Y-23225000D03*
X42325000Y-23225000D03*
D23*
X42500000Y-22725000D03*
D22*
X42675000Y-24375000D03*
X42325000Y-24375000D03*
D23*
X42500000Y-23875000D03*
D24*
X34648000Y-23880000D03*
X34648000Y-24705000D03*
D25*
X32450000Y-26842000D03*
D26*
X20460000Y-18345000D03*
X20460000Y-19615000D03*
D27*
X22020000Y-25270000D03*
X26520000Y-25270000D03*
X23520000Y-25270000D03*
D28*
X25770000Y-27020000D03*
X22770000Y-27020000D03*
D29*
X27920000Y-28120000D03*
X27920000Y-26020000D03*
X20620000Y-26020000D03*
X20620000Y-28120000D03*
D30*
X37448000Y-20361000D03*
X37448000Y-21161000D03*
X37348000Y-20361000D03*
X37348000Y-21161000D03*
D31*
X38723000Y-21511000D03*
X38723000Y-21011000D03*
X38723000Y-20511000D03*
X38723000Y-20011000D03*
X36073000Y-20011000D03*
X36073000Y-20511000D03*
X36073000Y-21011000D03*
X36073000Y-21501000D03*
D32*
X33500000Y-27050000D03*
X40125000Y-27150800D03*
D33*
X36000000Y-24495000D03*
X36000000Y-24145000D03*
X36000000Y-23795000D03*
X36000000Y-23445000D03*
X36000000Y-23095000D03*
X36000000Y-22745000D03*
X36350000Y-24495000D03*
X36350000Y-24145000D03*
X36350000Y-23795000D03*
X36350000Y-23445000D03*
X36350000Y-23095000D03*
X36350000Y-22745000D03*
X36700000Y-24495000D03*
X36700000Y-24145000D03*
X36700000Y-23795000D03*
X36700000Y-23445000D03*
X36700000Y-23095000D03*
X36700000Y-22745000D03*
X37050000Y-24495000D03*
X37050000Y-24145000D03*
X37050000Y-23795000D03*
X37050000Y-23445000D03*
X37050000Y-23095000D03*
X37050000Y-22745000D03*
X37400000Y-24495000D03*
X37400000Y-24145000D03*
X37400000Y-23795000D03*
X37400000Y-23445000D03*
X37400000Y-23095000D03*
X37400000Y-22745000D03*
X37750000Y-24495000D03*
X37750000Y-24145000D03*
X37750000Y-23795000D03*
X37750000Y-23445000D03*
X37750000Y-23095000D03*
X37750000Y-22745000D03*
X38100000Y-24495000D03*
X38100000Y-24145000D03*
X38100000Y-23795000D03*
X38100000Y-23445000D03*
X38100000Y-23095000D03*
X38100000Y-22745000D03*
D34*
X36170000Y-18950000D03*
X33630000Y-18950000D03*
X38710000Y-18950000D03*
X41250000Y-18950000D03*
D25*
X32450000Y-19792000D03*
X32450000Y-18692000D03*
X32450000Y-20892000D03*
X32450000Y-23292000D03*
X32450000Y-22092000D03*
X32450000Y-24392000D03*
X32450000Y-25592000D03*
G36*
G01*
X16550000Y-27900000D02*
X16550000Y-28100000D01*
G75*
G02*
X16450000Y-28200000I-100000J0D01*
G01*
X16190000Y-28200000D01*
G75*
G02*
X16090000Y-28100000I0J100000D01*
G01*
X16090000Y-27900000D01*
G75*
G02*
X16190000Y-27800000I100000J0D01*
G01*
X16450000Y-27800000D01*
G75*
G02*
X16550000Y-27900000I0J-100000D01*
G01*
G37*
G36*
G01*
X15910000Y-27900000D02*
X15910000Y-28100000D01*
G75*
G02*
X15810000Y-28200000I-100000J0D01*
G01*
X15550000Y-28200000D01*
G75*
G02*
X15450000Y-28100000I0J100000D01*
G01*
X15450000Y-27900000D01*
G75*
G02*
X15550000Y-27800000I100000J0D01*
G01*
X15810000Y-27800000D01*
G75*
G02*
X15910000Y-27900000I0J-100000D01*
G01*
G37*
G36*
G01*
X13250000Y-28100000D02*
X13250000Y-27900000D01*
G75*
G02*
X13350000Y-27800000I100000J0D01*
G01*
X13610000Y-27800000D01*
G75*
G02*
X13710000Y-27900000I0J-100000D01*
G01*
X13710000Y-28100000D01*
G75*
G02*
X13610000Y-28200000I-100000J0D01*
G01*
X13350000Y-28200000D01*
G75*
G02*
X13250000Y-28100000I0J100000D01*
G01*
G37*
G36*
G01*
X13890000Y-28100000D02*
X13890000Y-27900000D01*
G75*
G02*
X13990000Y-27800000I100000J0D01*
G01*
X14250000Y-27800000D01*
G75*
G02*
X14350000Y-27900000I0J-100000D01*
G01*
X14350000Y-28100000D01*
G75*
G02*
X14250000Y-28200000I-100000J0D01*
G01*
X13990000Y-28200000D01*
G75*
G02*
X13890000Y-28100000I0J100000D01*
G01*
G37*
D35*
X20425000Y-24020000D03*
X20425000Y-21770000D03*
G36*
G01*
X31310000Y-17240000D02*
X31310000Y-17440000D01*
G75*
G02*
X31210000Y-17540000I-100000J0D01*
G01*
X30950000Y-17540000D01*
G75*
G02*
X30850000Y-17440000I0J100000D01*
G01*
X30850000Y-17240000D01*
G75*
G02*
X30950000Y-17140000I100000J0D01*
G01*
X31210000Y-17140000D01*
G75*
G02*
X31310000Y-17240000I0J-100000D01*
G01*
G37*
G36*
G01*
X30670000Y-17240000D02*
X30670000Y-17440000D01*
G75*
G02*
X30570000Y-17540000I-100000J0D01*
G01*
X30310000Y-17540000D01*
G75*
G02*
X30210000Y-17440000I0J100000D01*
G01*
X30210000Y-17240000D01*
G75*
G02*
X30310000Y-17140000I100000J0D01*
G01*
X30570000Y-17140000D01*
G75*
G02*
X30670000Y-17240000I0J-100000D01*
G01*
G37*
G36*
G01*
X30210000Y-18145000D02*
X30210000Y-17945000D01*
G75*
G02*
X30310000Y-17845000I100000J0D01*
G01*
X30570000Y-17845000D01*
G75*
G02*
X30670000Y-17945000I0J-100000D01*
G01*
X30670000Y-18145000D01*
G75*
G02*
X30570000Y-18245000I-100000J0D01*
G01*
X30310000Y-18245000D01*
G75*
G02*
X30210000Y-18145000I0J100000D01*
G01*
G37*
G36*
G01*
X30850000Y-18145000D02*
X30850000Y-17945000D01*
G75*
G02*
X30950000Y-17845000I100000J0D01*
G01*
X31210000Y-17845000D01*
G75*
G02*
X31310000Y-17945000I0J-100000D01*
G01*
X31310000Y-18145000D01*
G75*
G02*
X31210000Y-18245000I-100000J0D01*
G01*
X30950000Y-18245000D01*
G75*
G02*
X30850000Y-18145000I0J100000D01*
G01*
G37*
D32*
X34950000Y-27100800D03*
G36*
G01*
X39100000Y-26070000D02*
X39100000Y-26270000D01*
G75*
G02*
X39000000Y-26370000I-100000J0D01*
G01*
X38740000Y-26370000D01*
G75*
G02*
X38640000Y-26270000I0J100000D01*
G01*
X38640000Y-26070000D01*
G75*
G02*
X38740000Y-25970000I100000J0D01*
G01*
X39000000Y-25970000D01*
G75*
G02*
X39100000Y-26070000I0J-100000D01*
G01*
G37*
G36*
G01*
X38460000Y-26070000D02*
X38460000Y-26270000D01*
G75*
G02*
X38360000Y-26370000I-100000J0D01*
G01*
X38100000Y-26370000D01*
G75*
G02*
X38000000Y-26270000I0J100000D01*
G01*
X38000000Y-26070000D01*
G75*
G02*
X38100000Y-25970000I100000J0D01*
G01*
X38360000Y-25970000D01*
G75*
G02*
X38460000Y-26070000I0J-100000D01*
G01*
G37*
G36*
G01*
X35100000Y-22170000D02*
X35100000Y-22370000D01*
G75*
G02*
X35000000Y-22470000I-100000J0D01*
G01*
X34740000Y-22470000D01*
G75*
G02*
X34640000Y-22370000I0J100000D01*
G01*
X34640000Y-22170000D01*
G75*
G02*
X34740000Y-22070000I100000J0D01*
G01*
X35000000Y-22070000D01*
G75*
G02*
X35100000Y-22170000I0J-100000D01*
G01*
G37*
G36*
G01*
X34460000Y-22170000D02*
X34460000Y-22370000D01*
G75*
G02*
X34360000Y-22470000I-100000J0D01*
G01*
X34100000Y-22470000D01*
G75*
G02*
X34000000Y-22370000I0J100000D01*
G01*
X34000000Y-22170000D01*
G75*
G02*
X34100000Y-22070000I100000J0D01*
G01*
X34360000Y-22070000D01*
G75*
G02*
X34460000Y-22170000I0J-100000D01*
G01*
G37*
G36*
G01*
X33550000Y-25420000D02*
X33350000Y-25420000D01*
G75*
G02*
X33250000Y-25320000I0J100000D01*
G01*
X33250000Y-25060000D01*
G75*
G02*
X33350000Y-24960000I100000J0D01*
G01*
X33550000Y-24960000D01*
G75*
G02*
X33650000Y-25060000I0J-100000D01*
G01*
X33650000Y-25320000D01*
G75*
G02*
X33550000Y-25420000I-100000J0D01*
G01*
G37*
G36*
G01*
X33550000Y-24780000D02*
X33350000Y-24780000D01*
G75*
G02*
X33250000Y-24680000I0J100000D01*
G01*
X33250000Y-24420000D01*
G75*
G02*
X33350000Y-24320000I100000J0D01*
G01*
X33550000Y-24320000D01*
G75*
G02*
X33650000Y-24420000I0J-100000D01*
G01*
X33650000Y-24680000D01*
G75*
G02*
X33550000Y-24780000I-100000J0D01*
G01*
G37*
G36*
G01*
X33560000Y-24020000D02*
X33360000Y-24020000D01*
G75*
G02*
X33260000Y-23920000I0J100000D01*
G01*
X33260000Y-23660000D01*
G75*
G02*
X33360000Y-23560000I100000J0D01*
G01*
X33560000Y-23560000D01*
G75*
G02*
X33660000Y-23660000I0J-100000D01*
G01*
X33660000Y-23920000D01*
G75*
G02*
X33560000Y-24020000I-100000J0D01*
G01*
G37*
G36*
G01*
X33560000Y-23380000D02*
X33360000Y-23380000D01*
G75*
G02*
X33260000Y-23280000I0J100000D01*
G01*
X33260000Y-23020000D01*
G75*
G02*
X33360000Y-22920000I100000J0D01*
G01*
X33560000Y-22920000D01*
G75*
G02*
X33660000Y-23020000I0J-100000D01*
G01*
X33660000Y-23280000D01*
G75*
G02*
X33560000Y-23380000I-100000J0D01*
G01*
G37*
G36*
G01*
X42650000Y-21720000D02*
X42450000Y-21720000D01*
G75*
G02*
X42350000Y-21620000I0J100000D01*
G01*
X42350000Y-21360000D01*
G75*
G02*
X42450000Y-21260000I100000J0D01*
G01*
X42650000Y-21260000D01*
G75*
G02*
X42750000Y-21360000I0J-100000D01*
G01*
X42750000Y-21620000D01*
G75*
G02*
X42650000Y-21720000I-100000J0D01*
G01*
G37*
G36*
G01*
X42650000Y-21080000D02*
X42450000Y-21080000D01*
G75*
G02*
X42350000Y-20980000I0J100000D01*
G01*
X42350000Y-20720000D01*
G75*
G02*
X42450000Y-20620000I100000J0D01*
G01*
X42650000Y-20620000D01*
G75*
G02*
X42750000Y-20720000I0J-100000D01*
G01*
X42750000Y-20980000D01*
G75*
G02*
X42650000Y-21080000I-100000J0D01*
G01*
G37*
G36*
G01*
X42450000Y-19860000D02*
X42650000Y-19860000D01*
G75*
G02*
X42750000Y-19960000I0J-100000D01*
G01*
X42750000Y-20220000D01*
G75*
G02*
X42650000Y-20320000I-100000J0D01*
G01*
X42450000Y-20320000D01*
G75*
G02*
X42350000Y-20220000I0J100000D01*
G01*
X42350000Y-19960000D01*
G75*
G02*
X42450000Y-19860000I100000J0D01*
G01*
G37*
G36*
G01*
X42450000Y-19220000D02*
X42650000Y-19220000D01*
G75*
G02*
X42750000Y-19320000I0J-100000D01*
G01*
X42750000Y-19580000D01*
G75*
G02*
X42650000Y-19680000I-100000J0D01*
G01*
X42450000Y-19680000D01*
G75*
G02*
X42350000Y-19580000I0J100000D01*
G01*
X42350000Y-19320000D01*
G75*
G02*
X42450000Y-19220000I100000J0D01*
G01*
G37*
G36*
G01*
X40450000Y-19620000D02*
X40650000Y-19620000D01*
G75*
G02*
X40750000Y-19720000I0J-100000D01*
G01*
X40750000Y-19980000D01*
G75*
G02*
X40650000Y-20080000I-100000J0D01*
G01*
X40450000Y-20080000D01*
G75*
G02*
X40350000Y-19980000I0J100000D01*
G01*
X40350000Y-19720000D01*
G75*
G02*
X40450000Y-19620000I100000J0D01*
G01*
G37*
G36*
G01*
X40450000Y-20260000D02*
X40650000Y-20260000D01*
G75*
G02*
X40750000Y-20360000I0J-100000D01*
G01*
X40750000Y-20620000D01*
G75*
G02*
X40650000Y-20720000I-100000J0D01*
G01*
X40450000Y-20720000D01*
G75*
G02*
X40350000Y-20620000I0J100000D01*
G01*
X40350000Y-20360000D01*
G75*
G02*
X40450000Y-20260000I100000J0D01*
G01*
G37*
G36*
G01*
X28810000Y-18145000D02*
X28810000Y-17945000D01*
G75*
G02*
X28910000Y-17845000I100000J0D01*
G01*
X29170000Y-17845000D01*
G75*
G02*
X29270000Y-17945000I0J-100000D01*
G01*
X29270000Y-18145000D01*
G75*
G02*
X29170000Y-18245000I-100000J0D01*
G01*
X28910000Y-18245000D01*
G75*
G02*
X28810000Y-18145000I0J100000D01*
G01*
G37*
G36*
G01*
X29450000Y-18145000D02*
X29450000Y-17945000D01*
G75*
G02*
X29550000Y-17845000I100000J0D01*
G01*
X29810000Y-17845000D01*
G75*
G02*
X29910000Y-17945000I0J-100000D01*
G01*
X29910000Y-18145000D01*
G75*
G02*
X29810000Y-18245000I-100000J0D01*
G01*
X29550000Y-18245000D01*
G75*
G02*
X29450000Y-18145000I0J100000D01*
G01*
G37*
G36*
G01*
X28810000Y-17440000D02*
X28810000Y-17240000D01*
G75*
G02*
X28910000Y-17140000I100000J0D01*
G01*
X29170000Y-17140000D01*
G75*
G02*
X29270000Y-17240000I0J-100000D01*
G01*
X29270000Y-17440000D01*
G75*
G02*
X29170000Y-17540000I-100000J0D01*
G01*
X28910000Y-17540000D01*
G75*
G02*
X28810000Y-17440000I0J100000D01*
G01*
G37*
G36*
G01*
X29450000Y-17440000D02*
X29450000Y-17240000D01*
G75*
G02*
X29550000Y-17140000I100000J0D01*
G01*
X29810000Y-17140000D01*
G75*
G02*
X29910000Y-17240000I0J-100000D01*
G01*
X29910000Y-17440000D01*
G75*
G02*
X29810000Y-17540000I-100000J0D01*
G01*
X29550000Y-17540000D01*
G75*
G02*
X29450000Y-17440000I0J100000D01*
G01*
G37*
G36*
G01*
X35038000Y-20770000D02*
X35038000Y-20970000D01*
G75*
G02*
X34938000Y-21070000I-100000J0D01*
G01*
X34678000Y-21070000D01*
G75*
G02*
X34578000Y-20970000I0J100000D01*
G01*
X34578000Y-20770000D01*
G75*
G02*
X34678000Y-20670000I100000J0D01*
G01*
X34938000Y-20670000D01*
G75*
G02*
X35038000Y-20770000I0J-100000D01*
G01*
G37*
G36*
G01*
X34398000Y-20770000D02*
X34398000Y-20970000D01*
G75*
G02*
X34298000Y-21070000I-100000J0D01*
G01*
X34038000Y-21070000D01*
G75*
G02*
X33938000Y-20970000I0J100000D01*
G01*
X33938000Y-20770000D01*
G75*
G02*
X34038000Y-20670000I100000J0D01*
G01*
X34298000Y-20670000D01*
G75*
G02*
X34398000Y-20770000I0J-100000D01*
G01*
G37*
G36*
G01*
X35038000Y-20070000D02*
X35038000Y-20270000D01*
G75*
G02*
X34938000Y-20370000I-100000J0D01*
G01*
X34678000Y-20370000D01*
G75*
G02*
X34578000Y-20270000I0J100000D01*
G01*
X34578000Y-20070000D01*
G75*
G02*
X34678000Y-19970000I100000J0D01*
G01*
X34938000Y-19970000D01*
G75*
G02*
X35038000Y-20070000I0J-100000D01*
G01*
G37*
G36*
G01*
X34398000Y-20070000D02*
X34398000Y-20270000D01*
G75*
G02*
X34298000Y-20370000I-100000J0D01*
G01*
X34038000Y-20370000D01*
G75*
G02*
X33938000Y-20270000I0J100000D01*
G01*
X33938000Y-20070000D01*
G75*
G02*
X34038000Y-19970000I100000J0D01*
G01*
X34298000Y-19970000D01*
G75*
G02*
X34398000Y-20070000I0J-100000D01*
G01*
G37*
G36*
G01*
X35038000Y-21470000D02*
X35038000Y-21670000D01*
G75*
G02*
X34938000Y-21770000I-100000J0D01*
G01*
X34678000Y-21770000D01*
G75*
G02*
X34578000Y-21670000I0J100000D01*
G01*
X34578000Y-21470000D01*
G75*
G02*
X34678000Y-21370000I100000J0D01*
G01*
X34938000Y-21370000D01*
G75*
G02*
X35038000Y-21470000I0J-100000D01*
G01*
G37*
G36*
G01*
X34398000Y-21470000D02*
X34398000Y-21670000D01*
G75*
G02*
X34298000Y-21770000I-100000J0D01*
G01*
X34038000Y-21770000D01*
G75*
G02*
X33938000Y-21670000I0J100000D01*
G01*
X33938000Y-21470000D01*
G75*
G02*
X34038000Y-21370000I100000J0D01*
G01*
X34298000Y-21370000D01*
G75*
G02*
X34398000Y-21470000I0J-100000D01*
G01*
G37*
G36*
G01*
X18750000Y-27900000D02*
X18750000Y-28100000D01*
G75*
G02*
X18650000Y-28200000I-100000J0D01*
G01*
X18390000Y-28200000D01*
G75*
G02*
X18290000Y-28100000I0J100000D01*
G01*
X18290000Y-27900000D01*
G75*
G02*
X18390000Y-27800000I100000J0D01*
G01*
X18650000Y-27800000D01*
G75*
G02*
X18750000Y-27900000I0J-100000D01*
G01*
G37*
G36*
G01*
X18110000Y-27900000D02*
X18110000Y-28100000D01*
G75*
G02*
X18010000Y-28200000I-100000J0D01*
G01*
X17750000Y-28200000D01*
G75*
G02*
X17650000Y-28100000I0J100000D01*
G01*
X17650000Y-27900000D01*
G75*
G02*
X17750000Y-27800000I100000J0D01*
G01*
X18010000Y-27800000D01*
G75*
G02*
X18110000Y-27900000I0J-100000D01*
G01*
G37*
G36*
G01*
X41000000Y-26620000D02*
X41000000Y-26420000D01*
G75*
G02*
X41100000Y-26320000I100000J0D01*
G01*
X41360000Y-26320000D01*
G75*
G02*
X41460000Y-26420000I0J-100000D01*
G01*
X41460000Y-26620000D01*
G75*
G02*
X41360000Y-26720000I-100000J0D01*
G01*
X41100000Y-26720000D01*
G75*
G02*
X41000000Y-26620000I0J100000D01*
G01*
G37*
G36*
G01*
X41640000Y-26620000D02*
X41640000Y-26420000D01*
G75*
G02*
X41740000Y-26320000I100000J0D01*
G01*
X42000000Y-26320000D01*
G75*
G02*
X42100000Y-26420000I0J-100000D01*
G01*
X42100000Y-26620000D01*
G75*
G02*
X42000000Y-26720000I-100000J0D01*
G01*
X41740000Y-26720000D01*
G75*
G02*
X41640000Y-26620000I0J100000D01*
G01*
G37*
G36*
G01*
X39100000Y-26770000D02*
X39100000Y-26970000D01*
G75*
G02*
X39000000Y-27070000I-100000J0D01*
G01*
X38740000Y-27070000D01*
G75*
G02*
X38640000Y-26970000I0J100000D01*
G01*
X38640000Y-26770000D01*
G75*
G02*
X38740000Y-26670000I100000J0D01*
G01*
X39000000Y-26670000D01*
G75*
G02*
X39100000Y-26770000I0J-100000D01*
G01*
G37*
G36*
G01*
X38460000Y-26770000D02*
X38460000Y-26970000D01*
G75*
G02*
X38360000Y-27070000I-100000J0D01*
G01*
X38100000Y-27070000D01*
G75*
G02*
X38000000Y-26970000I0J100000D01*
G01*
X38000000Y-26770000D01*
G75*
G02*
X38100000Y-26670000I100000J0D01*
G01*
X38360000Y-26670000D01*
G75*
G02*
X38460000Y-26770000I0J-100000D01*
G01*
G37*
G36*
G01*
X33610500Y-20720000D02*
X33425500Y-20720000D01*
G75*
G02*
X33368000Y-20662500I0J57500D01*
G01*
X33368000Y-20547500D01*
G75*
G02*
X33425500Y-20490000I57500J0D01*
G01*
X33610500Y-20490000D01*
G75*
G02*
X33668000Y-20547500I0J-57500D01*
G01*
X33668000Y-20662500D01*
G75*
G02*
X33610500Y-20720000I-57500J0D01*
G01*
G37*
G36*
G01*
X33610500Y-20340000D02*
X33425500Y-20340000D01*
G75*
G02*
X33368000Y-20282500I0J57500D01*
G01*
X33368000Y-20167500D01*
G75*
G02*
X33425500Y-20110000I57500J0D01*
G01*
X33610500Y-20110000D01*
G75*
G02*
X33668000Y-20167500I0J-57500D01*
G01*
X33668000Y-20282500D01*
G75*
G02*
X33610500Y-20340000I-57500J0D01*
G01*
G37*
G36*
G01*
X33435500Y-21730000D02*
X33620500Y-21730000D01*
G75*
G02*
X33678000Y-21787500I0J-57500D01*
G01*
X33678000Y-21902500D01*
G75*
G02*
X33620500Y-21960000I-57500J0D01*
G01*
X33435500Y-21960000D01*
G75*
G02*
X33378000Y-21902500I0J57500D01*
G01*
X33378000Y-21787500D01*
G75*
G02*
X33435500Y-21730000I57500J0D01*
G01*
G37*
G36*
G01*
X33435500Y-22110000D02*
X33620500Y-22110000D01*
G75*
G02*
X33678000Y-22167500I0J-57500D01*
G01*
X33678000Y-22282500D01*
G75*
G02*
X33620500Y-22340000I-57500J0D01*
G01*
X33435500Y-22340000D01*
G75*
G02*
X33378000Y-22282500I0J57500D01*
G01*
X33378000Y-22167500D01*
G75*
G02*
X33435500Y-22110000I57500J0D01*
G01*
G37*
G36*
G01*
X33457500Y-25830000D02*
X33642500Y-25830000D01*
G75*
G02*
X33700000Y-25887500I0J-57500D01*
G01*
X33700000Y-26002500D01*
G75*
G02*
X33642500Y-26060000I-57500J0D01*
G01*
X33457500Y-26060000D01*
G75*
G02*
X33400000Y-26002500I0J57500D01*
G01*
X33400000Y-25887500D01*
G75*
G02*
X33457500Y-25830000I57500J0D01*
G01*
G37*
G36*
G01*
X33457500Y-26210000D02*
X33642500Y-26210000D01*
G75*
G02*
X33700000Y-26267500I0J-57500D01*
G01*
X33700000Y-26382500D01*
G75*
G02*
X33642500Y-26440000I-57500J0D01*
G01*
X33457500Y-26440000D01*
G75*
G02*
X33400000Y-26382500I0J57500D01*
G01*
X33400000Y-26267500D01*
G75*
G02*
X33457500Y-26210000I57500J0D01*
G01*
G37*
G36*
G01*
X42592500Y-26625000D02*
X42407500Y-26625000D01*
G75*
G02*
X42350000Y-26567500I0J57500D01*
G01*
X42350000Y-26452500D01*
G75*
G02*
X42407500Y-26395000I57500J0D01*
G01*
X42592500Y-26395000D01*
G75*
G02*
X42650000Y-26452500I0J-57500D01*
G01*
X42650000Y-26567500D01*
G75*
G02*
X42592500Y-26625000I-57500J0D01*
G01*
G37*
G36*
G01*
X42592500Y-26245000D02*
X42407500Y-26245000D01*
G75*
G02*
X42350000Y-26187500I0J57500D01*
G01*
X42350000Y-26072500D01*
G75*
G02*
X42407500Y-26015000I57500J0D01*
G01*
X42592500Y-26015000D01*
G75*
G02*
X42650000Y-26072500I0J-57500D01*
G01*
X42650000Y-26187500D01*
G75*
G02*
X42592500Y-26245000I-57500J0D01*
G01*
G37*
G36*
G01*
X42855000Y-22057500D02*
X42855000Y-22242500D01*
G75*
G02*
X42797500Y-22300000I-57500J0D01*
G01*
X42682500Y-22300000D01*
G75*
G02*
X42625000Y-22242500I0J57500D01*
G01*
X42625000Y-22057500D01*
G75*
G02*
X42682500Y-22000000I57500J0D01*
G01*
X42797500Y-22000000D01*
G75*
G02*
X42855000Y-22057500I0J-57500D01*
G01*
G37*
G36*
G01*
X42475000Y-22057500D02*
X42475000Y-22242500D01*
G75*
G02*
X42417500Y-22300000I-57500J0D01*
G01*
X42302500Y-22300000D01*
G75*
G02*
X42245000Y-22242500I0J57500D01*
G01*
X42245000Y-22057500D01*
G75*
G02*
X42302500Y-22000000I57500J0D01*
G01*
X42417500Y-22000000D01*
G75*
G02*
X42475000Y-22057500I0J-57500D01*
G01*
G37*
G36*
G01*
X42407500Y-24965000D02*
X42592500Y-24965000D01*
G75*
G02*
X42650000Y-25022500I0J-57500D01*
G01*
X42650000Y-25137500D01*
G75*
G02*
X42592500Y-25195000I-57500J0D01*
G01*
X42407500Y-25195000D01*
G75*
G02*
X42350000Y-25137500I0J57500D01*
G01*
X42350000Y-25022500D01*
G75*
G02*
X42407500Y-24965000I57500J0D01*
G01*
G37*
G36*
G01*
X42407500Y-25345000D02*
X42592500Y-25345000D01*
G75*
G02*
X42650000Y-25402500I0J-57500D01*
G01*
X42650000Y-25517500D01*
G75*
G02*
X42592500Y-25575000I-57500J0D01*
G01*
X42407500Y-25575000D01*
G75*
G02*
X42350000Y-25517500I0J57500D01*
G01*
X42350000Y-25402500D01*
G75*
G02*
X42407500Y-25345000I57500J0D01*
G01*
G37*
G36*
G01*
X42855000Y-18727500D02*
X42855000Y-18912500D01*
G75*
G02*
X42797500Y-18970000I-57500J0D01*
G01*
X42682500Y-18970000D01*
G75*
G02*
X42625000Y-18912500I0J57500D01*
G01*
X42625000Y-18727500D01*
G75*
G02*
X42682500Y-18670000I57500J0D01*
G01*
X42797500Y-18670000D01*
G75*
G02*
X42855000Y-18727500I0J-57500D01*
G01*
G37*
G36*
G01*
X42475000Y-18727500D02*
X42475000Y-18912500D01*
G75*
G02*
X42417500Y-18970000I-57500J0D01*
G01*
X42302500Y-18970000D01*
G75*
G02*
X42245000Y-18912500I0J57500D01*
G01*
X42245000Y-18727500D01*
G75*
G02*
X42302500Y-18670000I57500J0D01*
G01*
X42417500Y-18670000D01*
G75*
G02*
X42475000Y-18727500I0J-57500D01*
G01*
G37*
G36*
G01*
X25550000Y-25070000D02*
X25550000Y-25270000D01*
G75*
G02*
X25450000Y-25370000I-100000J0D01*
G01*
X25190000Y-25370000D01*
G75*
G02*
X25090000Y-25270000I0J100000D01*
G01*
X25090000Y-25070000D01*
G75*
G02*
X25190000Y-24970000I100000J0D01*
G01*
X25450000Y-24970000D01*
G75*
G02*
X25550000Y-25070000I0J-100000D01*
G01*
G37*
G36*
G01*
X24910000Y-25070000D02*
X24910000Y-25270000D01*
G75*
G02*
X24810000Y-25370000I-100000J0D01*
G01*
X24550000Y-25370000D01*
G75*
G02*
X24450000Y-25270000I0J100000D01*
G01*
X24450000Y-25070000D01*
G75*
G02*
X24550000Y-24970000I100000J0D01*
G01*
X24810000Y-24970000D01*
G75*
G02*
X24910000Y-25070000I0J-100000D01*
G01*
G37*
G36*
G01*
X39600000Y-26620000D02*
X39600000Y-26420000D01*
G75*
G02*
X39700000Y-26320000I100000J0D01*
G01*
X39960000Y-26320000D01*
G75*
G02*
X40060000Y-26420000I0J-100000D01*
G01*
X40060000Y-26620000D01*
G75*
G02*
X39960000Y-26720000I-100000J0D01*
G01*
X39700000Y-26720000D01*
G75*
G02*
X39600000Y-26620000I0J100000D01*
G01*
G37*
G36*
G01*
X40240000Y-26620000D02*
X40240000Y-26420000D01*
G75*
G02*
X40340000Y-26320000I100000J0D01*
G01*
X40600000Y-26320000D01*
G75*
G02*
X40700000Y-26420000I0J-100000D01*
G01*
X40700000Y-26620000D01*
G75*
G02*
X40600000Y-26720000I-100000J0D01*
G01*
X40340000Y-26720000D01*
G75*
G02*
X40240000Y-26620000I0J100000D01*
G01*
G37*
G36*
G01*
X39100000Y-23470000D02*
X38900000Y-23470000D01*
G75*
G02*
X38800000Y-23370000I0J100000D01*
G01*
X38800000Y-23110000D01*
G75*
G02*
X38900000Y-23010000I100000J0D01*
G01*
X39100000Y-23010000D01*
G75*
G02*
X39200000Y-23110000I0J-100000D01*
G01*
X39200000Y-23370000D01*
G75*
G02*
X39100000Y-23470000I-100000J0D01*
G01*
G37*
G36*
G01*
X39100000Y-22830000D02*
X38900000Y-22830000D01*
G75*
G02*
X38800000Y-22730000I0J100000D01*
G01*
X38800000Y-22470000D01*
G75*
G02*
X38900000Y-22370000I100000J0D01*
G01*
X39100000Y-22370000D01*
G75*
G02*
X39200000Y-22470000I0J-100000D01*
G01*
X39200000Y-22730000D01*
G75*
G02*
X39100000Y-22830000I-100000J0D01*
G01*
G37*
G36*
G01*
X36600000Y-26270000D02*
X36600000Y-26070000D01*
G75*
G02*
X36700000Y-25970000I100000J0D01*
G01*
X36960000Y-25970000D01*
G75*
G02*
X37060000Y-26070000I0J-100000D01*
G01*
X37060000Y-26270000D01*
G75*
G02*
X36960000Y-26370000I-100000J0D01*
G01*
X36700000Y-26370000D01*
G75*
G02*
X36600000Y-26270000I0J100000D01*
G01*
G37*
G36*
G01*
X37240000Y-26270000D02*
X37240000Y-26070000D01*
G75*
G02*
X37340000Y-25970000I100000J0D01*
G01*
X37600000Y-25970000D01*
G75*
G02*
X37700000Y-26070000I0J-100000D01*
G01*
X37700000Y-26270000D01*
G75*
G02*
X37600000Y-26370000I-100000J0D01*
G01*
X37340000Y-26370000D01*
G75*
G02*
X37240000Y-26270000I0J100000D01*
G01*
G37*
G36*
G01*
X38900000Y-23770000D02*
X39100000Y-23770000D01*
G75*
G02*
X39200000Y-23870000I0J-100000D01*
G01*
X39200000Y-24130000D01*
G75*
G02*
X39100000Y-24230000I-100000J0D01*
G01*
X38900000Y-24230000D01*
G75*
G02*
X38800000Y-24130000I0J100000D01*
G01*
X38800000Y-23870000D01*
G75*
G02*
X38900000Y-23770000I100000J0D01*
G01*
G37*
G36*
G01*
X38900000Y-24410000D02*
X39100000Y-24410000D01*
G75*
G02*
X39200000Y-24510000I0J-100000D01*
G01*
X39200000Y-24770000D01*
G75*
G02*
X39100000Y-24870000I-100000J0D01*
G01*
X38900000Y-24870000D01*
G75*
G02*
X38800000Y-24770000I0J100000D01*
G01*
X38800000Y-24510000D01*
G75*
G02*
X38900000Y-24410000I100000J0D01*
G01*
G37*
G36*
G01*
X36600000Y-26970000D02*
X36600000Y-26770000D01*
G75*
G02*
X36700000Y-26670000I100000J0D01*
G01*
X36960000Y-26670000D01*
G75*
G02*
X37060000Y-26770000I0J-100000D01*
G01*
X37060000Y-26970000D01*
G75*
G02*
X36960000Y-27070000I-100000J0D01*
G01*
X36700000Y-27070000D01*
G75*
G02*
X36600000Y-26970000I0J100000D01*
G01*
G37*
G36*
G01*
X37240000Y-26970000D02*
X37240000Y-26770000D01*
G75*
G02*
X37340000Y-26670000I100000J0D01*
G01*
X37600000Y-26670000D01*
G75*
G02*
X37700000Y-26770000I0J-100000D01*
G01*
X37700000Y-26970000D01*
G75*
G02*
X37600000Y-27070000I-100000J0D01*
G01*
X37340000Y-27070000D01*
G75*
G02*
X37240000Y-26970000I0J100000D01*
G01*
G37*
G36*
G01*
X39750000Y-19620000D02*
X39950000Y-19620000D01*
G75*
G02*
X40050000Y-19720000I0J-100000D01*
G01*
X40050000Y-19980000D01*
G75*
G02*
X39950000Y-20080000I-100000J0D01*
G01*
X39750000Y-20080000D01*
G75*
G02*
X39650000Y-19980000I0J100000D01*
G01*
X39650000Y-19720000D01*
G75*
G02*
X39750000Y-19620000I100000J0D01*
G01*
G37*
G36*
G01*
X39750000Y-20260000D02*
X39950000Y-20260000D01*
G75*
G02*
X40050000Y-20360000I0J-100000D01*
G01*
X40050000Y-20620000D01*
G75*
G02*
X39950000Y-20720000I-100000J0D01*
G01*
X39750000Y-20720000D01*
G75*
G02*
X39650000Y-20620000I0J100000D01*
G01*
X39650000Y-20360000D01*
G75*
G02*
X39750000Y-20260000I100000J0D01*
G01*
G37*
G36*
G01*
X35100000Y-22870000D02*
X35100000Y-23070000D01*
G75*
G02*
X35000000Y-23170000I-100000J0D01*
G01*
X34740000Y-23170000D01*
G75*
G02*
X34640000Y-23070000I0J100000D01*
G01*
X34640000Y-22870000D01*
G75*
G02*
X34740000Y-22770000I100000J0D01*
G01*
X35000000Y-22770000D01*
G75*
G02*
X35100000Y-22870000I0J-100000D01*
G01*
G37*
G36*
G01*
X34460000Y-22870000D02*
X34460000Y-23070000D01*
G75*
G02*
X34360000Y-23170000I-100000J0D01*
G01*
X34100000Y-23170000D01*
G75*
G02*
X34000000Y-23070000I0J100000D01*
G01*
X34000000Y-22870000D01*
G75*
G02*
X34100000Y-22770000I100000J0D01*
G01*
X34360000Y-22770000D01*
G75*
G02*
X34460000Y-22870000I0J-100000D01*
G01*
G37*
G36*
G01*
X41750000Y-26020000D02*
X41550000Y-26020000D01*
G75*
G02*
X41450000Y-25920000I0J100000D01*
G01*
X41450000Y-25660000D01*
G75*
G02*
X41550000Y-25560000I100000J0D01*
G01*
X41750000Y-25560000D01*
G75*
G02*
X41850000Y-25660000I0J-100000D01*
G01*
X41850000Y-25920000D01*
G75*
G02*
X41750000Y-26020000I-100000J0D01*
G01*
G37*
G36*
G01*
X41750000Y-25380000D02*
X41550000Y-25380000D01*
G75*
G02*
X41450000Y-25280000I0J100000D01*
G01*
X41450000Y-25020000D01*
G75*
G02*
X41550000Y-24920000I100000J0D01*
G01*
X41750000Y-24920000D01*
G75*
G02*
X41850000Y-25020000I0J-100000D01*
G01*
X41850000Y-25280000D01*
G75*
G02*
X41750000Y-25380000I-100000J0D01*
G01*
G37*
G36*
G01*
X34100000Y-25470000D02*
X34300000Y-25470000D01*
G75*
G02*
X34400000Y-25570000I0J-100000D01*
G01*
X34400000Y-25830000D01*
G75*
G02*
X34300000Y-25930000I-100000J0D01*
G01*
X34100000Y-25930000D01*
G75*
G02*
X34000000Y-25830000I0J100000D01*
G01*
X34000000Y-25570000D01*
G75*
G02*
X34100000Y-25470000I100000J0D01*
G01*
G37*
G36*
G01*
X34100000Y-26110000D02*
X34300000Y-26110000D01*
G75*
G02*
X34400000Y-26210000I0J-100000D01*
G01*
X34400000Y-26470000D01*
G75*
G02*
X34300000Y-26570000I-100000J0D01*
G01*
X34100000Y-26570000D01*
G75*
G02*
X34000000Y-26470000I0J100000D01*
G01*
X34000000Y-26210000D01*
G75*
G02*
X34100000Y-26110000I100000J0D01*
G01*
G37*
D36*
X43848000Y-19316000D03*
X43848000Y-21516000D03*
X43848000Y-24116000D03*
X43848000Y-26316000D03*
M02*
