M48
; DRILL file {KiCad (5.1.6)-1} date 12/05/20 12:50:28
; FORMAT={-:-/ absolute / inch / decimal}
; #@! TF.CreationDate,2020-12-05T12:50:28+08:00
; #@! TF.GenerationSoftware,Kicad,Pcbnew,(5.1.6)-1
; #@! TF.FileFunction,Plated,2,3,Buried
FMAT,2
INCH
T1C0.0039
T2C0.0079
%
G90
G05
T1
X0.9252Y-0.874
X0.9252Y-0.8937
X0.9646Y-0.874
X0.9685Y-0.8937
X0.9984Y-0.8752
X1.028Y-0.876
X1.0512Y-1.0965
X1.0669Y-0.8622
X1.0756Y-0.8744
X1.0945Y-0.8622
T2
X0.7697Y-0.874
X1.076Y-0.8457
X1.0945Y-0.8457
X1.1535Y-0.689
X1.1933Y-0.689
X1.3051Y-0.7874
X1.311Y-0.7657
X1.311Y-1.002
X1.3169Y-0.9547
X1.3199Y-0.936
X1.3209Y-0.8602
X1.3209Y-1.0433
X1.3465Y-0.7953
X1.3504Y-0.8504
X1.3504Y-1.0177
X1.3524Y-1.0522
X1.3681Y-1.0177
X1.3819Y-0.8031
X1.3917Y-0.8681
X1.3957Y-0.9213
X1.4055Y-1.0492
X1.4134Y-0.9055
X1.4291Y-0.7874
X1.437Y-0.9567
X1.4459Y-0.9961
X1.4488Y-0.9291
X1.4567Y-0.876
X1.4783Y-1.0236
X1.4803Y-0.8386
X1.4823Y-0.8839
X1.4921Y-1.0335
X1.5039Y-0.9449
X1.5492Y-0.8898
X1.5669Y-1.0354
X1.5787Y-0.7795
X1.5807Y-1.0433
X1.6063Y-1.0394
X1.6122Y-0.9055
X1.626Y-1.0354
X1.6398Y-0.9606
X1.6496Y-0.9232
X1.7244Y-0.8268
X1.7283Y-0.9724
X1.7283Y-1.0197
X1.7402Y-0.7638
T0
M30
