G04 #@! TF.GenerationSoftware,KiCad,Pcbnew,(5.1.6)-1*
G04 #@! TF.CreationDate,2020-12-05T12:50:12+08:00*
G04 #@! TF.ProjectId,qomu-board,716f6d75-2d62-46f6-9172-642e6b696361,rev?*
G04 #@! TF.SameCoordinates,Original*
G04 #@! TF.FileFunction,Copper,L2,Inr*
G04 #@! TF.FilePolarity,Positive*
%FSLAX46Y46*%
G04 Gerber Fmt 4.6, Leading zero omitted, Abs format (unit mm)*
G04 Created by KiCad (PCBNEW (5.1.6)-1) date 2020-12-05 12:50:12*
%MOMM*%
%LPD*%
G01*
G04 APERTURE LIST*
G04 #@! TA.AperFunction,ViaPad*
%ADD10R,1.250000X1.500000*%
G04 #@! TD*
G04 #@! TA.AperFunction,ViaPad*
%ADD11O,1.250000X1.500000*%
G04 #@! TD*
G04 #@! TA.AperFunction,ViaPad*
%ADD12O,1.700000X0.900000*%
G04 #@! TD*
G04 #@! TA.AperFunction,ViaPad*
%ADD13O,2.400000X0.900000*%
G04 #@! TD*
G04 #@! TA.AperFunction,ViaPad*
%ADD14C,0.650000*%
G04 #@! TD*
G04 #@! TA.AperFunction,ViaPad*
%ADD15C,1.100000*%
G04 #@! TD*
G04 #@! TA.AperFunction,ViaPad*
%ADD16C,1.200000*%
G04 #@! TD*
G04 #@! TA.AperFunction,ViaPad*
%ADD17C,0.250000*%
G04 #@! TD*
G04 #@! TA.AperFunction,ViaPad*
%ADD18C,0.500000*%
G04 #@! TD*
G04 #@! TA.AperFunction,Conductor*
%ADD19C,0.200000*%
G04 #@! TD*
G04 #@! TA.AperFunction,Conductor*
%ADD20C,0.100000*%
G04 #@! TD*
G04 #@! TA.AperFunction,Conductor*
%ADD21C,0.400000*%
G04 #@! TD*
G04 #@! TA.AperFunction,Conductor*
%ADD22C,0.254000*%
G04 #@! TD*
G04 APERTURE END LIST*
D10*
X29946000Y-27370000D03*
D11*
X29946000Y-24830000D03*
X29946000Y-22290000D03*
X29946000Y-19750000D03*
D12*
X14165000Y-26595000D03*
X14165000Y-17945000D03*
D13*
X17545000Y-26595000D03*
X17545000Y-17941000D03*
D14*
X17175000Y-23545000D03*
X17175000Y-21845000D03*
X17175000Y-24395000D03*
X17175000Y-20995000D03*
X17175000Y-22695000D03*
X17175000Y-19295000D03*
X17175000Y-20145000D03*
X17175000Y-25245000D03*
X18525000Y-20995000D03*
X18525000Y-19295000D03*
X18525000Y-20145000D03*
X18525000Y-22695000D03*
X18525000Y-21845000D03*
X18525000Y-23545000D03*
X18525000Y-24395000D03*
X18525000Y-25245000D03*
D15*
X20460000Y-18345000D03*
X20460000Y-19615000D03*
D16*
X25770000Y-27020000D03*
X22770000Y-27020000D03*
D17*
X25360000Y-22230000D03*
X26110000Y-22250000D03*
X24600000Y-22700000D03*
X23500000Y-22700000D03*
X23500000Y-22200000D03*
X24500000Y-22200000D03*
X37200000Y-19300000D03*
X37200000Y-18800000D03*
X37700000Y-18800000D03*
X37700000Y-19800000D03*
D18*
X36800000Y-23600000D03*
D17*
X36200000Y-19600000D03*
X36500000Y-19700000D03*
D18*
X40100000Y-19800000D03*
X36300000Y-20000000D03*
X37900000Y-26250000D03*
X37550000Y-26000000D03*
X35700000Y-26650000D03*
X39350000Y-22600000D03*
X40950000Y-23000000D03*
X33450000Y-24250000D03*
D17*
X33200000Y-20250000D03*
X33200000Y-20500000D03*
D18*
X37000000Y-22250000D03*
X37650000Y-22450000D03*
X33300000Y-19450000D03*
X33150000Y-20000000D03*
X40800000Y-26400000D03*
X41300000Y-26300000D03*
X37600000Y-21300000D03*
D17*
X38200000Y-18800000D03*
X38200000Y-19300000D03*
X38200000Y-19800000D03*
X38700000Y-18800000D03*
X38700000Y-19300000D03*
X38700000Y-19800000D03*
X38700000Y-20300000D03*
X37700000Y-19300000D03*
X38200000Y-20300000D03*
X37200000Y-19800000D03*
X37200000Y-20300000D03*
X37700000Y-20300000D03*
D18*
X34350000Y-26725000D03*
X33525000Y-23775000D03*
X27330000Y-21480000D03*
D17*
X27320000Y-22210000D03*
D18*
X29300000Y-17500000D03*
D17*
X27800000Y-21900000D03*
X27100000Y-21900000D03*
D18*
X27800000Y-21480000D03*
X35100000Y-20400000D03*
X30310000Y-17500000D03*
X34200000Y-20200000D03*
X36500000Y-24300000D03*
X38200000Y-24000000D03*
X35350000Y-22050000D03*
X36725000Y-25300000D03*
D17*
X44400000Y-18900000D03*
D18*
X44200000Y-19400000D03*
X43900000Y-25900000D03*
D17*
X44500000Y-25900000D03*
D18*
X43900000Y-24700000D03*
D17*
X43600000Y-24200000D03*
D18*
X35450000Y-23400000D03*
X41650000Y-24400000D03*
X43800000Y-21000000D03*
D17*
X43500000Y-21500000D03*
D18*
X35900000Y-23000000D03*
X41900000Y-23450000D03*
D17*
X34150000Y-21600000D03*
X34150000Y-21850000D03*
D18*
X34300000Y-21600000D03*
X19550000Y-22200000D03*
D17*
X34000000Y-23400000D03*
X34000000Y-23700000D03*
D18*
X33550000Y-21850000D03*
X39800000Y-26300000D03*
D17*
X40100000Y-27000000D03*
X40100000Y-26700000D03*
X40100000Y-26400000D03*
X39800000Y-26400000D03*
X39800000Y-26700000D03*
X39800000Y-27000000D03*
D18*
X34750000Y-25850000D03*
D17*
X34550000Y-26100000D03*
X34850000Y-26100000D03*
X35100000Y-25900000D03*
D18*
X40150000Y-26500000D03*
X34300000Y-25850000D03*
D17*
X26700000Y-27850000D03*
D18*
X33550000Y-26500000D03*
X33300000Y-25450000D03*
D19*
X29940000Y-19790000D02*
X28020000Y-19790000D01*
X26110000Y-21700000D02*
X26110000Y-22250000D01*
X28020000Y-19790000D02*
X26110000Y-21700000D01*
X26090000Y-22230000D02*
X26110000Y-22250000D01*
X25360000Y-22230000D02*
X26090000Y-22230000D01*
D20*
X36900000Y-26650000D02*
X37550000Y-26000000D01*
X35700000Y-26650000D02*
X36900000Y-26650000D01*
X37400000Y-21100000D02*
X36300000Y-20000000D01*
X39750000Y-23000000D02*
X39350000Y-22600000D01*
X40950000Y-23000000D02*
X39750000Y-23000000D01*
X33450000Y-24250000D02*
X33821778Y-24250000D01*
X30571001Y-20375001D02*
X29946000Y-19750000D01*
X33821778Y-24250000D02*
X34571778Y-25000000D01*
X34571778Y-25000000D02*
X35200000Y-25000000D01*
X35700000Y-25500000D02*
X35700000Y-26650000D01*
X35200000Y-25000000D02*
X35700000Y-25500000D01*
D19*
X37200000Y-22450000D02*
X37000000Y-22250000D01*
X37650000Y-22450000D02*
X37200000Y-22450000D01*
X37000000Y-21500000D02*
X37400000Y-21100000D01*
X37000000Y-22250000D02*
X37000000Y-21500000D01*
D20*
X33300000Y-20150000D02*
X33200000Y-20250000D01*
X33300000Y-20050000D02*
X32974999Y-20375001D01*
X33300000Y-19450000D02*
X33300000Y-20050000D01*
X32875001Y-20274999D02*
X33150000Y-20000000D01*
X32875001Y-20375001D02*
X32875001Y-20274999D01*
X32875001Y-20375001D02*
X30571001Y-20375001D01*
X32974999Y-20375001D02*
X32875001Y-20375001D01*
X33074999Y-20375001D02*
X33200000Y-20250000D01*
X32875001Y-20375001D02*
X33074999Y-20375001D01*
X33200000Y-20250000D02*
X33200000Y-20500000D01*
X33200000Y-19550000D02*
X33300000Y-19450000D01*
X33200000Y-20500000D02*
X33200000Y-19550000D01*
X37400000Y-22500000D02*
X37400000Y-21100000D01*
X35843222Y-22500000D02*
X37400000Y-22500000D01*
X35319423Y-23023799D02*
X35843222Y-22500000D01*
X34923799Y-23219423D02*
X35119423Y-23023799D01*
X34923799Y-23580577D02*
X34923799Y-23219423D01*
X35119423Y-23776201D02*
X34923799Y-23580577D01*
X42276201Y-23630577D02*
X42276201Y-23269423D01*
X40650000Y-23700000D02*
X40450000Y-23700000D01*
X42150000Y-23756778D02*
X42276201Y-23630577D01*
X42150000Y-24002402D02*
X42150000Y-23756778D01*
X42080577Y-23073799D02*
X41973799Y-23073799D01*
X42276201Y-23269423D02*
X42080577Y-23073799D01*
X40450000Y-23700000D02*
X40278630Y-23528630D01*
X36117021Y-23776201D02*
X35119423Y-23776201D01*
X42026201Y-24580577D02*
X42026201Y-24126201D01*
X41973799Y-23073799D02*
X41900000Y-23000000D01*
X41900000Y-23000000D02*
X40950000Y-23000000D01*
X35119423Y-23023799D02*
X35319423Y-23023799D01*
X42026201Y-24126201D02*
X42150000Y-24002402D01*
X40278630Y-23528630D02*
X37171370Y-23528630D01*
X37171370Y-23528630D02*
X37000000Y-23700000D01*
X37000000Y-23700000D02*
X36973799Y-23673799D01*
X36973799Y-23673799D02*
X36219423Y-23673799D01*
X36219423Y-23673799D02*
X36117021Y-23776201D01*
X40875000Y-25875000D02*
X40875000Y-23925000D01*
X41300000Y-26300000D02*
X40875000Y-25875000D01*
X40875000Y-23925000D02*
X40650000Y-23700000D01*
X41300000Y-25306778D02*
X42026201Y-24580577D01*
X41300000Y-26300000D02*
X41300000Y-25306778D01*
X41200000Y-26400000D02*
X41300000Y-26300000D01*
X40800000Y-26400000D02*
X41200000Y-26400000D01*
X36900000Y-20000000D02*
X37200000Y-20300000D01*
X36300000Y-20000000D02*
X36900000Y-20000000D01*
X33525000Y-23775000D02*
X33725000Y-23975000D01*
X36071447Y-23975000D02*
X36446447Y-23600000D01*
X36446447Y-23600000D02*
X36800000Y-23600000D01*
X33725000Y-23975000D02*
X36071447Y-23975000D01*
D19*
X27330000Y-22200000D02*
X27320000Y-22210000D01*
X27330000Y-21480000D02*
X27330000Y-22200000D01*
D21*
X29900000Y-17500000D02*
X29300000Y-17500000D01*
X27800000Y-21730000D02*
X27320000Y-22210000D01*
X27800000Y-21480000D02*
X27800000Y-21730000D01*
X27800000Y-21480000D02*
X27330000Y-21480000D01*
X27000000Y-21810000D02*
X27330000Y-21480000D01*
X27000000Y-21900000D02*
X27000000Y-21810000D01*
X27000000Y-21900000D02*
X27500000Y-21900000D01*
X27500000Y-21780000D02*
X27800000Y-21480000D01*
X27500000Y-21900000D02*
X27500000Y-21780000D01*
X30310000Y-17500000D02*
X30080000Y-17900000D01*
X29470000Y-17670000D02*
X29300000Y-17500000D01*
X30080000Y-17900000D02*
X29600000Y-17900000D01*
X30310000Y-17500000D02*
X29470000Y-17670000D01*
X29600000Y-17900000D02*
X29600000Y-17800000D01*
X29600000Y-17800000D02*
X29300000Y-17500000D01*
X34900000Y-20200000D02*
X35100000Y-20400000D01*
X34200000Y-20200000D02*
X34900000Y-20200000D01*
X36725000Y-25300000D02*
X37000000Y-24800000D01*
X37000000Y-24800000D02*
X36500000Y-24300000D01*
X37525000Y-24675000D02*
X38200000Y-24000000D01*
X36725000Y-25300000D02*
X37400000Y-24800000D01*
X37400000Y-24800000D02*
X37525000Y-24675000D01*
D20*
X44400000Y-19200000D02*
X44200000Y-19400000D01*
X44400000Y-18900000D02*
X44400000Y-19200000D01*
X44500000Y-25900000D02*
X43900000Y-25900000D01*
X43600000Y-24400000D02*
X43900000Y-24700000D01*
X43600000Y-24200000D02*
X43600000Y-24400000D01*
X36000000Y-23400000D02*
X35450000Y-23400000D01*
X36052411Y-23400000D02*
X36000000Y-23400000D01*
X39427814Y-23176210D02*
X36276201Y-23176210D01*
X39604024Y-23352420D02*
X39427814Y-23176210D01*
X40524592Y-23523790D02*
X40353222Y-23352420D01*
X40722988Y-23523790D02*
X40524592Y-23523790D01*
X41599198Y-24400000D02*
X40722988Y-23523790D01*
X36276201Y-23176210D02*
X36052411Y-23400000D01*
X40353222Y-23352420D02*
X39604024Y-23352420D01*
X41650000Y-24400000D02*
X41599198Y-24400000D01*
X43600000Y-24200000D02*
X43600000Y-23900000D01*
X43800000Y-21200000D02*
X43500000Y-21500000D01*
X43800000Y-21000000D02*
X43800000Y-21200000D01*
X39500802Y-23000000D02*
X35900000Y-23000000D01*
X40426210Y-23176210D02*
X39677012Y-23176210D01*
X40597580Y-23347580D02*
X40426210Y-23176210D01*
X39677012Y-23176210D02*
X39500802Y-23000000D01*
X40795976Y-23347580D02*
X40597580Y-23347580D01*
X40898396Y-23450000D02*
X40795976Y-23347580D01*
X41900000Y-23450000D02*
X40898396Y-23450000D01*
X41900000Y-23450000D02*
X41900000Y-23609998D01*
D21*
X17650000Y-21850000D02*
X17150000Y-21850000D01*
X18500000Y-22700000D02*
X17650000Y-21850000D01*
D20*
X34150000Y-21600000D02*
X34150000Y-21850000D01*
X34150000Y-21600000D02*
X34300000Y-21600000D01*
X33950000Y-21250000D02*
X34300000Y-21600000D01*
X33100000Y-21743222D02*
X33593222Y-21250000D01*
X20723790Y-23473790D02*
X30973790Y-23473790D01*
X33100000Y-22300000D02*
X33100000Y-21743222D01*
X30973790Y-23473790D02*
X31823790Y-22623790D01*
X19450000Y-22200000D02*
X20723790Y-23473790D01*
X32776210Y-22623790D02*
X33100000Y-22300000D01*
X33593222Y-21250000D02*
X33950000Y-21250000D01*
X31823790Y-22623790D02*
X32776210Y-22623790D01*
X20330000Y-23650000D02*
X18525000Y-21845000D01*
X33550000Y-21850000D02*
X33550000Y-22349198D01*
X33550000Y-22950000D02*
X34000000Y-23400000D01*
X34000000Y-23400000D02*
X34000000Y-23700000D01*
X32200000Y-22800000D02*
X32050000Y-22800000D01*
X32500000Y-22800000D02*
X32200000Y-22800000D01*
X33550000Y-21850000D02*
X33550000Y-22350000D01*
X33550000Y-22350000D02*
X33550000Y-22950000D01*
X33200000Y-22700000D02*
X33550000Y-22350000D01*
X33100000Y-22800000D02*
X33200000Y-22700000D01*
X32400000Y-22800000D02*
X31896778Y-22800000D01*
X32400000Y-22800000D02*
X33100000Y-22800000D01*
X32200000Y-22800000D02*
X32400000Y-22800000D01*
X31896778Y-22800000D02*
X31046778Y-23650000D01*
X31046778Y-23650000D02*
X30850000Y-23650000D01*
X30850000Y-23650000D02*
X20330000Y-23650000D01*
D21*
X17250000Y-24350000D02*
X17200000Y-24400000D01*
X18475000Y-24350000D02*
X17250000Y-24350000D01*
X17175000Y-24400000D02*
X16600000Y-24400000D01*
X16600000Y-24400000D02*
X15675000Y-23475000D01*
X15675000Y-21525000D02*
X17000000Y-20200000D01*
X15675000Y-23475000D02*
X15675000Y-21525000D01*
X18550000Y-20200000D02*
X18575000Y-20175000D01*
X17125000Y-20200000D02*
X18550000Y-20200000D01*
X40100000Y-26400000D02*
X40100000Y-27000000D01*
X40100000Y-27000000D02*
X39800000Y-27000000D01*
X39800000Y-26400000D02*
X39800000Y-27000000D01*
X39800000Y-26400000D02*
X40100000Y-26400000D01*
D20*
X34550000Y-26050000D02*
X34750000Y-25850000D01*
X34550000Y-26100000D02*
X34550000Y-26050000D01*
X34850000Y-25950000D02*
X34750000Y-25850000D01*
X34850000Y-26100000D02*
X34850000Y-25950000D01*
X34800000Y-25900000D02*
X34750000Y-25850000D01*
X35100000Y-25900000D02*
X34800000Y-25900000D01*
X29463838Y-26250000D02*
X32300000Y-26250000D01*
X32300000Y-26250000D02*
X32750000Y-26250000D01*
D19*
X28050000Y-27850000D02*
X28950000Y-26950000D01*
X26700000Y-27850000D02*
X28050000Y-27850000D01*
D20*
X28950000Y-26950000D02*
X28950000Y-26763838D01*
D19*
X28950000Y-26950000D02*
X28950000Y-26450000D01*
X28950000Y-26450000D02*
X29100000Y-26300000D01*
X29100000Y-26300000D02*
X32700000Y-26300000D01*
X32700000Y-26300000D02*
X32800000Y-26300000D01*
X33350000Y-26300000D02*
X33550000Y-26500000D01*
X32700000Y-26300000D02*
X33350000Y-26300000D01*
X33350000Y-26300000D02*
X33350000Y-25500000D01*
D20*
X33300000Y-25450000D02*
X33300001Y-26250001D01*
D19*
X33350000Y-25500000D02*
X33300000Y-25450000D01*
D22*
G36*
X41321955Y-18377923D02*
G01*
X41398976Y-18437024D01*
X41458077Y-18514045D01*
X41495231Y-18603743D01*
X41509000Y-18708328D01*
X41509000Y-23173000D01*
X41013132Y-23173000D01*
X41001469Y-23161337D01*
X40992792Y-23150764D01*
X40950613Y-23116149D01*
X40902492Y-23090427D01*
X40850277Y-23074588D01*
X40809582Y-23070580D01*
X40809572Y-23070580D01*
X40795976Y-23069241D01*
X40782380Y-23070580D01*
X40712316Y-23070580D01*
X40631703Y-22989967D01*
X40623026Y-22979394D01*
X40580847Y-22944779D01*
X40532726Y-22919057D01*
X40480511Y-22903218D01*
X40439816Y-22899210D01*
X40439806Y-22899210D01*
X40426210Y-22897871D01*
X40412614Y-22899210D01*
X39791748Y-22899210D01*
X39706295Y-22813757D01*
X39697618Y-22803184D01*
X39655439Y-22768569D01*
X39607318Y-22742847D01*
X39555103Y-22727008D01*
X39514408Y-22723000D01*
X39514398Y-22723000D01*
X39500802Y-22721661D01*
X39487206Y-22723000D01*
X36288598Y-22723000D01*
X36270510Y-22695930D01*
X36204070Y-22629490D01*
X36125944Y-22577288D01*
X36039136Y-22541331D01*
X35946980Y-22523000D01*
X35853020Y-22523000D01*
X35760864Y-22541331D01*
X35674056Y-22577288D01*
X35595930Y-22629490D01*
X35529490Y-22695930D01*
X35477288Y-22774056D01*
X35441331Y-22860864D01*
X35428971Y-22923000D01*
X35403020Y-22923000D01*
X35310864Y-22941331D01*
X35224056Y-22977288D01*
X35145930Y-23029490D01*
X35079490Y-23095930D01*
X35027288Y-23174056D01*
X34991331Y-23260864D01*
X34973000Y-23353020D01*
X34973000Y-23446980D01*
X34991331Y-23539136D01*
X35027288Y-23625944D01*
X35079490Y-23704070D01*
X35145930Y-23770510D01*
X35224056Y-23822712D01*
X35310864Y-23858669D01*
X35403020Y-23877000D01*
X35496980Y-23877000D01*
X35589136Y-23858669D01*
X35675944Y-23822712D01*
X35754070Y-23770510D01*
X35820510Y-23704070D01*
X35838598Y-23677000D01*
X36038815Y-23677000D01*
X36052411Y-23678339D01*
X36066007Y-23677000D01*
X36066017Y-23677000D01*
X36106712Y-23672992D01*
X36158927Y-23657153D01*
X36207048Y-23631431D01*
X36249227Y-23596816D01*
X36257903Y-23586244D01*
X36390938Y-23453210D01*
X39313078Y-23453210D01*
X39398531Y-23538663D01*
X39407208Y-23549236D01*
X39428530Y-23566734D01*
X39449386Y-23583851D01*
X39497507Y-23609573D01*
X39513346Y-23614377D01*
X39549723Y-23625412D01*
X39590418Y-23629420D01*
X39590421Y-23629420D01*
X39604024Y-23630760D01*
X39617627Y-23629420D01*
X40238486Y-23629420D01*
X40319099Y-23710033D01*
X40327776Y-23720606D01*
X40344912Y-23734669D01*
X40369954Y-23755221D01*
X40395676Y-23768970D01*
X40418076Y-23780943D01*
X40470291Y-23796782D01*
X40510986Y-23800790D01*
X40510989Y-23800790D01*
X40524592Y-23802130D01*
X40538195Y-23800790D01*
X40608252Y-23800790D01*
X41173000Y-24365539D01*
X41173000Y-24446980D01*
X41191331Y-24539136D01*
X41227288Y-24625944D01*
X41279490Y-24704070D01*
X41345930Y-24770510D01*
X41424056Y-24822712D01*
X41509000Y-24857897D01*
X41509000Y-26997672D01*
X41495231Y-27102257D01*
X41458077Y-27191955D01*
X41402794Y-27264000D01*
X40435726Y-27264000D01*
X40456755Y-27238376D01*
X40496405Y-27164196D01*
X40520822Y-27083707D01*
X40527000Y-27020978D01*
X40529066Y-27000000D01*
X40527000Y-26979022D01*
X40527000Y-26794357D01*
X40572712Y-26725944D01*
X40608669Y-26639136D01*
X40627000Y-26546980D01*
X40627000Y-26453020D01*
X40608669Y-26360864D01*
X40572712Y-26274056D01*
X40520510Y-26195930D01*
X40454070Y-26129490D01*
X40397002Y-26091359D01*
X40379857Y-26077288D01*
X40338376Y-26043245D01*
X40264196Y-26003595D01*
X40183707Y-25979178D01*
X40150486Y-25975906D01*
X40104070Y-25929490D01*
X40025944Y-25877288D01*
X39939136Y-25841331D01*
X39846980Y-25823000D01*
X39753020Y-25823000D01*
X39660864Y-25841331D01*
X39574056Y-25877288D01*
X39495930Y-25929490D01*
X39429490Y-25995930D01*
X39377288Y-26074056D01*
X39341331Y-26160864D01*
X39323000Y-26253020D01*
X39323000Y-26346980D01*
X39341331Y-26439136D01*
X39373000Y-26515592D01*
X39373001Y-26979013D01*
X39370934Y-27000000D01*
X39379178Y-27083707D01*
X39403595Y-27164196D01*
X39443245Y-27238376D01*
X39464274Y-27264000D01*
X33285320Y-27264000D01*
X33225066Y-27258092D01*
X33178955Y-27244170D01*
X33136430Y-27221560D01*
X33099101Y-27191115D01*
X33068401Y-27154005D01*
X33045491Y-27111634D01*
X33031250Y-27065628D01*
X33023768Y-26994444D01*
X33023768Y-26987218D01*
X33023400Y-26983719D01*
X33016873Y-26925534D01*
X33012118Y-26903164D01*
X33007689Y-26880792D01*
X33006649Y-26877431D01*
X32988946Y-26821622D01*
X32979927Y-26800577D01*
X32977000Y-26793477D01*
X32977000Y-26790095D01*
X32956748Y-26688280D01*
X32931365Y-26627000D01*
X33088917Y-26627000D01*
X33091331Y-26639136D01*
X33127288Y-26725944D01*
X33179490Y-26804070D01*
X33245930Y-26870510D01*
X33324056Y-26922712D01*
X33410864Y-26958669D01*
X33503020Y-26977000D01*
X33596980Y-26977000D01*
X33689136Y-26958669D01*
X33775944Y-26922712D01*
X33854070Y-26870510D01*
X33920510Y-26804070D01*
X33972712Y-26725944D01*
X34008669Y-26639136D01*
X34027000Y-26546980D01*
X34027000Y-26495298D01*
X34039487Y-26510513D01*
X34073886Y-26538744D01*
X34113131Y-26559721D01*
X34155714Y-26572638D01*
X34200000Y-26577000D01*
X35350000Y-26577000D01*
X35394286Y-26572638D01*
X35436869Y-26559721D01*
X35476114Y-26538744D01*
X35510513Y-26510513D01*
X35538744Y-26476114D01*
X35559721Y-26436869D01*
X35572638Y-26394286D01*
X35577000Y-26350000D01*
X35577000Y-25450000D01*
X35572638Y-25405714D01*
X35559721Y-25363131D01*
X35538744Y-25323886D01*
X35510513Y-25289487D01*
X35476114Y-25261256D01*
X35436869Y-25240279D01*
X35394286Y-25227362D01*
X35350000Y-25223000D01*
X34200000Y-25223000D01*
X34155714Y-25227362D01*
X34113131Y-25240279D01*
X34073886Y-25261256D01*
X34039487Y-25289487D01*
X34011256Y-25323886D01*
X33990279Y-25363131D01*
X33977362Y-25405714D01*
X33973000Y-25450000D01*
X33973000Y-25502420D01*
X33929490Y-25545930D01*
X33877288Y-25624056D01*
X33841331Y-25710864D01*
X33823000Y-25803020D01*
X33823000Y-25896980D01*
X33841331Y-25989136D01*
X33877288Y-26075944D01*
X33929490Y-26154070D01*
X33973000Y-26197580D01*
X33973000Y-26274751D01*
X33972712Y-26274056D01*
X33920510Y-26195930D01*
X33854070Y-26129490D01*
X33775944Y-26077288D01*
X33689136Y-26041331D01*
X33677000Y-26038917D01*
X33677000Y-25744357D01*
X33722712Y-25675944D01*
X33758669Y-25589136D01*
X33777000Y-25496980D01*
X33777000Y-25403020D01*
X33758669Y-25310864D01*
X33722712Y-25224056D01*
X33670510Y-25145930D01*
X33604070Y-25079490D01*
X33525944Y-25027288D01*
X33439136Y-24991331D01*
X33346980Y-24973000D01*
X33253020Y-24973000D01*
X33160864Y-24991331D01*
X33074056Y-25027288D01*
X32995930Y-25079490D01*
X32929490Y-25145930D01*
X32927000Y-25149657D01*
X32927000Y-24617537D01*
X32956748Y-24545720D01*
X32977000Y-24443905D01*
X32977000Y-24340095D01*
X32959680Y-24253020D01*
X36023000Y-24253020D01*
X36023000Y-24346980D01*
X36041331Y-24439136D01*
X36077288Y-24525944D01*
X36129490Y-24604070D01*
X36195930Y-24670510D01*
X36274056Y-24722712D01*
X36350513Y-24754382D01*
X36471323Y-24875191D01*
X36453386Y-24907804D01*
X36420930Y-24929490D01*
X36354490Y-24995930D01*
X36302288Y-25074056D01*
X36266331Y-25160864D01*
X36248000Y-25253020D01*
X36248000Y-25346980D01*
X36266331Y-25439136D01*
X36302288Y-25525944D01*
X36354490Y-25604070D01*
X36420930Y-25670510D01*
X36499056Y-25722712D01*
X36585864Y-25758669D01*
X36678020Y-25777000D01*
X36771980Y-25777000D01*
X36864136Y-25758669D01*
X36950944Y-25722712D01*
X37029070Y-25670510D01*
X37095510Y-25604070D01*
X37147712Y-25525944D01*
X37152300Y-25514869D01*
X37628960Y-25161788D01*
X37638376Y-25156755D01*
X37662668Y-25136819D01*
X37671019Y-25130633D01*
X37678910Y-25123489D01*
X37687100Y-25116768D01*
X37694415Y-25109453D01*
X37717748Y-25088330D01*
X37724122Y-25079746D01*
X37841768Y-24962100D01*
X38349489Y-24454381D01*
X38425944Y-24422712D01*
X38504070Y-24370510D01*
X38570510Y-24304070D01*
X38622712Y-24225944D01*
X38658669Y-24139136D01*
X38677000Y-24046980D01*
X38677000Y-23953020D01*
X38658669Y-23860864D01*
X38622712Y-23774056D01*
X38570510Y-23695930D01*
X38504070Y-23629490D01*
X38425944Y-23577288D01*
X38339136Y-23541331D01*
X38246980Y-23523000D01*
X38153020Y-23523000D01*
X38060864Y-23541331D01*
X37974056Y-23577288D01*
X37895930Y-23629490D01*
X37829490Y-23695930D01*
X37777288Y-23774056D01*
X37757580Y-23821634D01*
X36846307Y-23971727D01*
X36804070Y-23929490D01*
X36725944Y-23877288D01*
X36639136Y-23841331D01*
X36546980Y-23823000D01*
X36453020Y-23823000D01*
X36360864Y-23841331D01*
X36274056Y-23877288D01*
X36195930Y-23929490D01*
X36129490Y-23995930D01*
X36077288Y-24074056D01*
X36041331Y-24160864D01*
X36023000Y-24253020D01*
X32959680Y-24253020D01*
X32956748Y-24238280D01*
X32927000Y-24166463D01*
X32927000Y-23517537D01*
X32956748Y-23445720D01*
X32977000Y-23343905D01*
X32977000Y-23240095D01*
X32956748Y-23138280D01*
X32931365Y-23077000D01*
X33086404Y-23077000D01*
X33100000Y-23078339D01*
X33113596Y-23077000D01*
X33113606Y-23077000D01*
X33154301Y-23072992D01*
X33206516Y-23057153D01*
X33254637Y-23031431D01*
X33279139Y-23011323D01*
X33292848Y-23056516D01*
X33318569Y-23104637D01*
X33336581Y-23126584D01*
X33353185Y-23146816D01*
X33363752Y-23155488D01*
X33649258Y-23440995D01*
X33661527Y-23502675D01*
X33681130Y-23550000D01*
X33661527Y-23597325D01*
X33648000Y-23665331D01*
X33648000Y-23734669D01*
X33661527Y-23802675D01*
X33688062Y-23866734D01*
X33726584Y-23924387D01*
X33775613Y-23973416D01*
X33833266Y-24011938D01*
X33897325Y-24038473D01*
X33965331Y-24052000D01*
X34034669Y-24052000D01*
X34102675Y-24038473D01*
X34166734Y-24011938D01*
X34224387Y-23973416D01*
X34273416Y-23924387D01*
X34311938Y-23866734D01*
X34338473Y-23802675D01*
X34352000Y-23734669D01*
X34352000Y-23665331D01*
X34338473Y-23597325D01*
X34318870Y-23550000D01*
X34338473Y-23502675D01*
X34352000Y-23434669D01*
X34352000Y-23365331D01*
X34338473Y-23297325D01*
X34311938Y-23233266D01*
X34273416Y-23175613D01*
X34224387Y-23126584D01*
X34166734Y-23088062D01*
X34102675Y-23061527D01*
X34040995Y-23049258D01*
X33827000Y-22835264D01*
X33827000Y-22363603D01*
X33828340Y-22350000D01*
X33827000Y-22336394D01*
X33827000Y-22238598D01*
X33854070Y-22220510D01*
X33920510Y-22154070D01*
X33936245Y-22130520D01*
X33983266Y-22161938D01*
X34047325Y-22188473D01*
X34115331Y-22202000D01*
X34184669Y-22202000D01*
X34252675Y-22188473D01*
X34316734Y-22161938D01*
X34374387Y-22123416D01*
X34423416Y-22074387D01*
X34433119Y-22059866D01*
X34439136Y-22058669D01*
X34525944Y-22022712D01*
X34555415Y-22003020D01*
X34873000Y-22003020D01*
X34873000Y-22096980D01*
X34891331Y-22189136D01*
X34927288Y-22275944D01*
X34979490Y-22354070D01*
X35045930Y-22420510D01*
X35124056Y-22472712D01*
X35210864Y-22508669D01*
X35303020Y-22527000D01*
X35396980Y-22527000D01*
X35489136Y-22508669D01*
X35575944Y-22472712D01*
X35654070Y-22420510D01*
X35720510Y-22354070D01*
X35772712Y-22275944D01*
X35808669Y-22189136D01*
X35827000Y-22096980D01*
X35827000Y-22003020D01*
X35808669Y-21910864D01*
X35772712Y-21824056D01*
X35720510Y-21745930D01*
X35654070Y-21679490D01*
X35575944Y-21627288D01*
X35489136Y-21591331D01*
X35396980Y-21573000D01*
X35303020Y-21573000D01*
X35210864Y-21591331D01*
X35124056Y-21627288D01*
X35045930Y-21679490D01*
X34979490Y-21745930D01*
X34927288Y-21824056D01*
X34891331Y-21910864D01*
X34873000Y-22003020D01*
X34555415Y-22003020D01*
X34604070Y-21970510D01*
X34670510Y-21904070D01*
X34722712Y-21825944D01*
X34758669Y-21739136D01*
X34777000Y-21646980D01*
X34777000Y-21553020D01*
X34758669Y-21460864D01*
X34722712Y-21374056D01*
X34670510Y-21295930D01*
X34604070Y-21229490D01*
X34525944Y-21177288D01*
X34439136Y-21141331D01*
X34346980Y-21123000D01*
X34253020Y-21123000D01*
X34221088Y-21129352D01*
X34155492Y-21063756D01*
X34146816Y-21053184D01*
X34104637Y-21018569D01*
X34056516Y-20992847D01*
X34004301Y-20977008D01*
X33963606Y-20973000D01*
X33963596Y-20973000D01*
X33950000Y-20971661D01*
X33936404Y-20973000D01*
X33606817Y-20973000D01*
X33593221Y-20971661D01*
X33579625Y-20973000D01*
X33579616Y-20973000D01*
X33538921Y-20977008D01*
X33486706Y-20992847D01*
X33444800Y-21015247D01*
X33438583Y-21018570D01*
X33406974Y-21044511D01*
X33396406Y-21053184D01*
X33387734Y-21063751D01*
X32927000Y-21524486D01*
X32927000Y-21117537D01*
X32956748Y-21045720D01*
X32977000Y-20943905D01*
X32977000Y-20840095D01*
X32956748Y-20738280D01*
X32927000Y-20666463D01*
X32927000Y-20153020D01*
X33723000Y-20153020D01*
X33723000Y-20246980D01*
X33741331Y-20339136D01*
X33777288Y-20425944D01*
X33829490Y-20504070D01*
X33895930Y-20570510D01*
X33974056Y-20622712D01*
X34060864Y-20658669D01*
X34153020Y-20677000D01*
X34246980Y-20677000D01*
X34339136Y-20658669D01*
X34415592Y-20627000D01*
X34677994Y-20627000D01*
X34729490Y-20704070D01*
X34795930Y-20770510D01*
X34874056Y-20822712D01*
X34960864Y-20858669D01*
X35053020Y-20877000D01*
X35146980Y-20877000D01*
X35239136Y-20858669D01*
X35325944Y-20822712D01*
X35404070Y-20770510D01*
X35470510Y-20704070D01*
X35522712Y-20625944D01*
X35558669Y-20539136D01*
X35577000Y-20446980D01*
X35577000Y-20353020D01*
X35558669Y-20260864D01*
X35522712Y-20174056D01*
X35470510Y-20095930D01*
X35404070Y-20029490D01*
X35325944Y-19977288D01*
X35249486Y-19945618D01*
X35216768Y-19912900D01*
X35203395Y-19896605D01*
X35138376Y-19843245D01*
X35064196Y-19803595D01*
X34983707Y-19779178D01*
X34920978Y-19773000D01*
X34920967Y-19773000D01*
X34900000Y-19770935D01*
X34879033Y-19773000D01*
X34415592Y-19773000D01*
X34339136Y-19741331D01*
X34246980Y-19723000D01*
X34153020Y-19723000D01*
X34060864Y-19741331D01*
X33974056Y-19777288D01*
X33895930Y-19829490D01*
X33829490Y-19895930D01*
X33777288Y-19974056D01*
X33741331Y-20060864D01*
X33723000Y-20153020D01*
X32927000Y-20153020D01*
X32927000Y-20017537D01*
X32956748Y-19945720D01*
X32977000Y-19843905D01*
X32977000Y-19740095D01*
X32956748Y-19638280D01*
X32927000Y-19566463D01*
X32927000Y-18927987D01*
X32930818Y-18922241D01*
X32943704Y-18903421D01*
X32945373Y-18900334D01*
X32945380Y-18900323D01*
X32945385Y-18900311D01*
X32972866Y-18848630D01*
X32981580Y-18827488D01*
X32990568Y-18806518D01*
X32991606Y-18803166D01*
X32991608Y-18803160D01*
X32991609Y-18803154D01*
X33008531Y-18747107D01*
X33012974Y-18724670D01*
X33017716Y-18702358D01*
X33018084Y-18698859D01*
X33023797Y-18640589D01*
X33030908Y-18568066D01*
X33044830Y-18521955D01*
X33067440Y-18479430D01*
X33097885Y-18442101D01*
X33134997Y-18411400D01*
X33177366Y-18388491D01*
X33223372Y-18374250D01*
X33282834Y-18368000D01*
X41297999Y-18368000D01*
X41321955Y-18377923D01*
G37*
X41321955Y-18377923D02*
X41398976Y-18437024D01*
X41458077Y-18514045D01*
X41495231Y-18603743D01*
X41509000Y-18708328D01*
X41509000Y-23173000D01*
X41013132Y-23173000D01*
X41001469Y-23161337D01*
X40992792Y-23150764D01*
X40950613Y-23116149D01*
X40902492Y-23090427D01*
X40850277Y-23074588D01*
X40809582Y-23070580D01*
X40809572Y-23070580D01*
X40795976Y-23069241D01*
X40782380Y-23070580D01*
X40712316Y-23070580D01*
X40631703Y-22989967D01*
X40623026Y-22979394D01*
X40580847Y-22944779D01*
X40532726Y-22919057D01*
X40480511Y-22903218D01*
X40439816Y-22899210D01*
X40439806Y-22899210D01*
X40426210Y-22897871D01*
X40412614Y-22899210D01*
X39791748Y-22899210D01*
X39706295Y-22813757D01*
X39697618Y-22803184D01*
X39655439Y-22768569D01*
X39607318Y-22742847D01*
X39555103Y-22727008D01*
X39514408Y-22723000D01*
X39514398Y-22723000D01*
X39500802Y-22721661D01*
X39487206Y-22723000D01*
X36288598Y-22723000D01*
X36270510Y-22695930D01*
X36204070Y-22629490D01*
X36125944Y-22577288D01*
X36039136Y-22541331D01*
X35946980Y-22523000D01*
X35853020Y-22523000D01*
X35760864Y-22541331D01*
X35674056Y-22577288D01*
X35595930Y-22629490D01*
X35529490Y-22695930D01*
X35477288Y-22774056D01*
X35441331Y-22860864D01*
X35428971Y-22923000D01*
X35403020Y-22923000D01*
X35310864Y-22941331D01*
X35224056Y-22977288D01*
X35145930Y-23029490D01*
X35079490Y-23095930D01*
X35027288Y-23174056D01*
X34991331Y-23260864D01*
X34973000Y-23353020D01*
X34973000Y-23446980D01*
X34991331Y-23539136D01*
X35027288Y-23625944D01*
X35079490Y-23704070D01*
X35145930Y-23770510D01*
X35224056Y-23822712D01*
X35310864Y-23858669D01*
X35403020Y-23877000D01*
X35496980Y-23877000D01*
X35589136Y-23858669D01*
X35675944Y-23822712D01*
X35754070Y-23770510D01*
X35820510Y-23704070D01*
X35838598Y-23677000D01*
X36038815Y-23677000D01*
X36052411Y-23678339D01*
X36066007Y-23677000D01*
X36066017Y-23677000D01*
X36106712Y-23672992D01*
X36158927Y-23657153D01*
X36207048Y-23631431D01*
X36249227Y-23596816D01*
X36257903Y-23586244D01*
X36390938Y-23453210D01*
X39313078Y-23453210D01*
X39398531Y-23538663D01*
X39407208Y-23549236D01*
X39428530Y-23566734D01*
X39449386Y-23583851D01*
X39497507Y-23609573D01*
X39513346Y-23614377D01*
X39549723Y-23625412D01*
X39590418Y-23629420D01*
X39590421Y-23629420D01*
X39604024Y-23630760D01*
X39617627Y-23629420D01*
X40238486Y-23629420D01*
X40319099Y-23710033D01*
X40327776Y-23720606D01*
X40344912Y-23734669D01*
X40369954Y-23755221D01*
X40395676Y-23768970D01*
X40418076Y-23780943D01*
X40470291Y-23796782D01*
X40510986Y-23800790D01*
X40510989Y-23800790D01*
X40524592Y-23802130D01*
X40538195Y-23800790D01*
X40608252Y-23800790D01*
X41173000Y-24365539D01*
X41173000Y-24446980D01*
X41191331Y-24539136D01*
X41227288Y-24625944D01*
X41279490Y-24704070D01*
X41345930Y-24770510D01*
X41424056Y-24822712D01*
X41509000Y-24857897D01*
X41509000Y-26997672D01*
X41495231Y-27102257D01*
X41458077Y-27191955D01*
X41402794Y-27264000D01*
X40435726Y-27264000D01*
X40456755Y-27238376D01*
X40496405Y-27164196D01*
X40520822Y-27083707D01*
X40527000Y-27020978D01*
X40529066Y-27000000D01*
X40527000Y-26979022D01*
X40527000Y-26794357D01*
X40572712Y-26725944D01*
X40608669Y-26639136D01*
X40627000Y-26546980D01*
X40627000Y-26453020D01*
X40608669Y-26360864D01*
X40572712Y-26274056D01*
X40520510Y-26195930D01*
X40454070Y-26129490D01*
X40397002Y-26091359D01*
X40379857Y-26077288D01*
X40338376Y-26043245D01*
X40264196Y-26003595D01*
X40183707Y-25979178D01*
X40150486Y-25975906D01*
X40104070Y-25929490D01*
X40025944Y-25877288D01*
X39939136Y-25841331D01*
X39846980Y-25823000D01*
X39753020Y-25823000D01*
X39660864Y-25841331D01*
X39574056Y-25877288D01*
X39495930Y-25929490D01*
X39429490Y-25995930D01*
X39377288Y-26074056D01*
X39341331Y-26160864D01*
X39323000Y-26253020D01*
X39323000Y-26346980D01*
X39341331Y-26439136D01*
X39373000Y-26515592D01*
X39373001Y-26979013D01*
X39370934Y-27000000D01*
X39379178Y-27083707D01*
X39403595Y-27164196D01*
X39443245Y-27238376D01*
X39464274Y-27264000D01*
X33285320Y-27264000D01*
X33225066Y-27258092D01*
X33178955Y-27244170D01*
X33136430Y-27221560D01*
X33099101Y-27191115D01*
X33068401Y-27154005D01*
X33045491Y-27111634D01*
X33031250Y-27065628D01*
X33023768Y-26994444D01*
X33023768Y-26987218D01*
X33023400Y-26983719D01*
X33016873Y-26925534D01*
X33012118Y-26903164D01*
X33007689Y-26880792D01*
X33006649Y-26877431D01*
X32988946Y-26821622D01*
X32979927Y-26800577D01*
X32977000Y-26793477D01*
X32977000Y-26790095D01*
X32956748Y-26688280D01*
X32931365Y-26627000D01*
X33088917Y-26627000D01*
X33091331Y-26639136D01*
X33127288Y-26725944D01*
X33179490Y-26804070D01*
X33245930Y-26870510D01*
X33324056Y-26922712D01*
X33410864Y-26958669D01*
X33503020Y-26977000D01*
X33596980Y-26977000D01*
X33689136Y-26958669D01*
X33775944Y-26922712D01*
X33854070Y-26870510D01*
X33920510Y-26804070D01*
X33972712Y-26725944D01*
X34008669Y-26639136D01*
X34027000Y-26546980D01*
X34027000Y-26495298D01*
X34039487Y-26510513D01*
X34073886Y-26538744D01*
X34113131Y-26559721D01*
X34155714Y-26572638D01*
X34200000Y-26577000D01*
X35350000Y-26577000D01*
X35394286Y-26572638D01*
X35436869Y-26559721D01*
X35476114Y-26538744D01*
X35510513Y-26510513D01*
X35538744Y-26476114D01*
X35559721Y-26436869D01*
X35572638Y-26394286D01*
X35577000Y-26350000D01*
X35577000Y-25450000D01*
X35572638Y-25405714D01*
X35559721Y-25363131D01*
X35538744Y-25323886D01*
X35510513Y-25289487D01*
X35476114Y-25261256D01*
X35436869Y-25240279D01*
X35394286Y-25227362D01*
X35350000Y-25223000D01*
X34200000Y-25223000D01*
X34155714Y-25227362D01*
X34113131Y-25240279D01*
X34073886Y-25261256D01*
X34039487Y-25289487D01*
X34011256Y-25323886D01*
X33990279Y-25363131D01*
X33977362Y-25405714D01*
X33973000Y-25450000D01*
X33973000Y-25502420D01*
X33929490Y-25545930D01*
X33877288Y-25624056D01*
X33841331Y-25710864D01*
X33823000Y-25803020D01*
X33823000Y-25896980D01*
X33841331Y-25989136D01*
X33877288Y-26075944D01*
X33929490Y-26154070D01*
X33973000Y-26197580D01*
X33973000Y-26274751D01*
X33972712Y-26274056D01*
X33920510Y-26195930D01*
X33854070Y-26129490D01*
X33775944Y-26077288D01*
X33689136Y-26041331D01*
X33677000Y-26038917D01*
X33677000Y-25744357D01*
X33722712Y-25675944D01*
X33758669Y-25589136D01*
X33777000Y-25496980D01*
X33777000Y-25403020D01*
X33758669Y-25310864D01*
X33722712Y-25224056D01*
X33670510Y-25145930D01*
X33604070Y-25079490D01*
X33525944Y-25027288D01*
X33439136Y-24991331D01*
X33346980Y-24973000D01*
X33253020Y-24973000D01*
X33160864Y-24991331D01*
X33074056Y-25027288D01*
X32995930Y-25079490D01*
X32929490Y-25145930D01*
X32927000Y-25149657D01*
X32927000Y-24617537D01*
X32956748Y-24545720D01*
X32977000Y-24443905D01*
X32977000Y-24340095D01*
X32959680Y-24253020D01*
X36023000Y-24253020D01*
X36023000Y-24346980D01*
X36041331Y-24439136D01*
X36077288Y-24525944D01*
X36129490Y-24604070D01*
X36195930Y-24670510D01*
X36274056Y-24722712D01*
X36350513Y-24754382D01*
X36471323Y-24875191D01*
X36453386Y-24907804D01*
X36420930Y-24929490D01*
X36354490Y-24995930D01*
X36302288Y-25074056D01*
X36266331Y-25160864D01*
X36248000Y-25253020D01*
X36248000Y-25346980D01*
X36266331Y-25439136D01*
X36302288Y-25525944D01*
X36354490Y-25604070D01*
X36420930Y-25670510D01*
X36499056Y-25722712D01*
X36585864Y-25758669D01*
X36678020Y-25777000D01*
X36771980Y-25777000D01*
X36864136Y-25758669D01*
X36950944Y-25722712D01*
X37029070Y-25670510D01*
X37095510Y-25604070D01*
X37147712Y-25525944D01*
X37152300Y-25514869D01*
X37628960Y-25161788D01*
X37638376Y-25156755D01*
X37662668Y-25136819D01*
X37671019Y-25130633D01*
X37678910Y-25123489D01*
X37687100Y-25116768D01*
X37694415Y-25109453D01*
X37717748Y-25088330D01*
X37724122Y-25079746D01*
X37841768Y-24962100D01*
X38349489Y-24454381D01*
X38425944Y-24422712D01*
X38504070Y-24370510D01*
X38570510Y-24304070D01*
X38622712Y-24225944D01*
X38658669Y-24139136D01*
X38677000Y-24046980D01*
X38677000Y-23953020D01*
X38658669Y-23860864D01*
X38622712Y-23774056D01*
X38570510Y-23695930D01*
X38504070Y-23629490D01*
X38425944Y-23577288D01*
X38339136Y-23541331D01*
X38246980Y-23523000D01*
X38153020Y-23523000D01*
X38060864Y-23541331D01*
X37974056Y-23577288D01*
X37895930Y-23629490D01*
X37829490Y-23695930D01*
X37777288Y-23774056D01*
X37757580Y-23821634D01*
X36846307Y-23971727D01*
X36804070Y-23929490D01*
X36725944Y-23877288D01*
X36639136Y-23841331D01*
X36546980Y-23823000D01*
X36453020Y-23823000D01*
X36360864Y-23841331D01*
X36274056Y-23877288D01*
X36195930Y-23929490D01*
X36129490Y-23995930D01*
X36077288Y-24074056D01*
X36041331Y-24160864D01*
X36023000Y-24253020D01*
X32959680Y-24253020D01*
X32956748Y-24238280D01*
X32927000Y-24166463D01*
X32927000Y-23517537D01*
X32956748Y-23445720D01*
X32977000Y-23343905D01*
X32977000Y-23240095D01*
X32956748Y-23138280D01*
X32931365Y-23077000D01*
X33086404Y-23077000D01*
X33100000Y-23078339D01*
X33113596Y-23077000D01*
X33113606Y-23077000D01*
X33154301Y-23072992D01*
X33206516Y-23057153D01*
X33254637Y-23031431D01*
X33279139Y-23011323D01*
X33292848Y-23056516D01*
X33318569Y-23104637D01*
X33336581Y-23126584D01*
X33353185Y-23146816D01*
X33363752Y-23155488D01*
X33649258Y-23440995D01*
X33661527Y-23502675D01*
X33681130Y-23550000D01*
X33661527Y-23597325D01*
X33648000Y-23665331D01*
X33648000Y-23734669D01*
X33661527Y-23802675D01*
X33688062Y-23866734D01*
X33726584Y-23924387D01*
X33775613Y-23973416D01*
X33833266Y-24011938D01*
X33897325Y-24038473D01*
X33965331Y-24052000D01*
X34034669Y-24052000D01*
X34102675Y-24038473D01*
X34166734Y-24011938D01*
X34224387Y-23973416D01*
X34273416Y-23924387D01*
X34311938Y-23866734D01*
X34338473Y-23802675D01*
X34352000Y-23734669D01*
X34352000Y-23665331D01*
X34338473Y-23597325D01*
X34318870Y-23550000D01*
X34338473Y-23502675D01*
X34352000Y-23434669D01*
X34352000Y-23365331D01*
X34338473Y-23297325D01*
X34311938Y-23233266D01*
X34273416Y-23175613D01*
X34224387Y-23126584D01*
X34166734Y-23088062D01*
X34102675Y-23061527D01*
X34040995Y-23049258D01*
X33827000Y-22835264D01*
X33827000Y-22363603D01*
X33828340Y-22350000D01*
X33827000Y-22336394D01*
X33827000Y-22238598D01*
X33854070Y-22220510D01*
X33920510Y-22154070D01*
X33936245Y-22130520D01*
X33983266Y-22161938D01*
X34047325Y-22188473D01*
X34115331Y-22202000D01*
X34184669Y-22202000D01*
X34252675Y-22188473D01*
X34316734Y-22161938D01*
X34374387Y-22123416D01*
X34423416Y-22074387D01*
X34433119Y-22059866D01*
X34439136Y-22058669D01*
X34525944Y-22022712D01*
X34555415Y-22003020D01*
X34873000Y-22003020D01*
X34873000Y-22096980D01*
X34891331Y-22189136D01*
X34927288Y-22275944D01*
X34979490Y-22354070D01*
X35045930Y-22420510D01*
X35124056Y-22472712D01*
X35210864Y-22508669D01*
X35303020Y-22527000D01*
X35396980Y-22527000D01*
X35489136Y-22508669D01*
X35575944Y-22472712D01*
X35654070Y-22420510D01*
X35720510Y-22354070D01*
X35772712Y-22275944D01*
X35808669Y-22189136D01*
X35827000Y-22096980D01*
X35827000Y-22003020D01*
X35808669Y-21910864D01*
X35772712Y-21824056D01*
X35720510Y-21745930D01*
X35654070Y-21679490D01*
X35575944Y-21627288D01*
X35489136Y-21591331D01*
X35396980Y-21573000D01*
X35303020Y-21573000D01*
X35210864Y-21591331D01*
X35124056Y-21627288D01*
X35045930Y-21679490D01*
X34979490Y-21745930D01*
X34927288Y-21824056D01*
X34891331Y-21910864D01*
X34873000Y-22003020D01*
X34555415Y-22003020D01*
X34604070Y-21970510D01*
X34670510Y-21904070D01*
X34722712Y-21825944D01*
X34758669Y-21739136D01*
X34777000Y-21646980D01*
X34777000Y-21553020D01*
X34758669Y-21460864D01*
X34722712Y-21374056D01*
X34670510Y-21295930D01*
X34604070Y-21229490D01*
X34525944Y-21177288D01*
X34439136Y-21141331D01*
X34346980Y-21123000D01*
X34253020Y-21123000D01*
X34221088Y-21129352D01*
X34155492Y-21063756D01*
X34146816Y-21053184D01*
X34104637Y-21018569D01*
X34056516Y-20992847D01*
X34004301Y-20977008D01*
X33963606Y-20973000D01*
X33963596Y-20973000D01*
X33950000Y-20971661D01*
X33936404Y-20973000D01*
X33606817Y-20973000D01*
X33593221Y-20971661D01*
X33579625Y-20973000D01*
X33579616Y-20973000D01*
X33538921Y-20977008D01*
X33486706Y-20992847D01*
X33444800Y-21015247D01*
X33438583Y-21018570D01*
X33406974Y-21044511D01*
X33396406Y-21053184D01*
X33387734Y-21063751D01*
X32927000Y-21524486D01*
X32927000Y-21117537D01*
X32956748Y-21045720D01*
X32977000Y-20943905D01*
X32977000Y-20840095D01*
X32956748Y-20738280D01*
X32927000Y-20666463D01*
X32927000Y-20153020D01*
X33723000Y-20153020D01*
X33723000Y-20246980D01*
X33741331Y-20339136D01*
X33777288Y-20425944D01*
X33829490Y-20504070D01*
X33895930Y-20570510D01*
X33974056Y-20622712D01*
X34060864Y-20658669D01*
X34153020Y-20677000D01*
X34246980Y-20677000D01*
X34339136Y-20658669D01*
X34415592Y-20627000D01*
X34677994Y-20627000D01*
X34729490Y-20704070D01*
X34795930Y-20770510D01*
X34874056Y-20822712D01*
X34960864Y-20858669D01*
X35053020Y-20877000D01*
X35146980Y-20877000D01*
X35239136Y-20858669D01*
X35325944Y-20822712D01*
X35404070Y-20770510D01*
X35470510Y-20704070D01*
X35522712Y-20625944D01*
X35558669Y-20539136D01*
X35577000Y-20446980D01*
X35577000Y-20353020D01*
X35558669Y-20260864D01*
X35522712Y-20174056D01*
X35470510Y-20095930D01*
X35404070Y-20029490D01*
X35325944Y-19977288D01*
X35249486Y-19945618D01*
X35216768Y-19912900D01*
X35203395Y-19896605D01*
X35138376Y-19843245D01*
X35064196Y-19803595D01*
X34983707Y-19779178D01*
X34920978Y-19773000D01*
X34920967Y-19773000D01*
X34900000Y-19770935D01*
X34879033Y-19773000D01*
X34415592Y-19773000D01*
X34339136Y-19741331D01*
X34246980Y-19723000D01*
X34153020Y-19723000D01*
X34060864Y-19741331D01*
X33974056Y-19777288D01*
X33895930Y-19829490D01*
X33829490Y-19895930D01*
X33777288Y-19974056D01*
X33741331Y-20060864D01*
X33723000Y-20153020D01*
X32927000Y-20153020D01*
X32927000Y-20017537D01*
X32956748Y-19945720D01*
X32977000Y-19843905D01*
X32977000Y-19740095D01*
X32956748Y-19638280D01*
X32927000Y-19566463D01*
X32927000Y-18927987D01*
X32930818Y-18922241D01*
X32943704Y-18903421D01*
X32945373Y-18900334D01*
X32945380Y-18900323D01*
X32945385Y-18900311D01*
X32972866Y-18848630D01*
X32981580Y-18827488D01*
X32990568Y-18806518D01*
X32991606Y-18803166D01*
X32991608Y-18803160D01*
X32991609Y-18803154D01*
X33008531Y-18747107D01*
X33012974Y-18724670D01*
X33017716Y-18702358D01*
X33018084Y-18698859D01*
X33023797Y-18640589D01*
X33030908Y-18568066D01*
X33044830Y-18521955D01*
X33067440Y-18479430D01*
X33097885Y-18442101D01*
X33134997Y-18411400D01*
X33177366Y-18388491D01*
X33223372Y-18374250D01*
X33282834Y-18368000D01*
X41297999Y-18368000D01*
X41321955Y-18377923D01*
G36*
X31612587Y-16882200D02*
G01*
X31705496Y-16910250D01*
X31791185Y-16955811D01*
X31866394Y-17017151D01*
X31928257Y-17091930D01*
X31974416Y-17177301D01*
X32003115Y-17270010D01*
X32014019Y-17373760D01*
X32019953Y-18429875D01*
X32004070Y-18453645D01*
X31966137Y-18545222D01*
X31946800Y-18642439D01*
X31946800Y-18741561D01*
X31966137Y-18838778D01*
X32004070Y-18930355D01*
X32059139Y-19012771D01*
X32073000Y-19026632D01*
X32073000Y-19457368D01*
X32059139Y-19471229D01*
X32004070Y-19553645D01*
X31966137Y-19645222D01*
X31946800Y-19742439D01*
X31946800Y-19841561D01*
X31966137Y-19938778D01*
X32004070Y-20030355D01*
X32059139Y-20112771D01*
X32073000Y-20126632D01*
X32073000Y-20557368D01*
X32059139Y-20571229D01*
X32004070Y-20653645D01*
X31966137Y-20745222D01*
X31946800Y-20842439D01*
X31946800Y-20941561D01*
X31966137Y-21038778D01*
X32004070Y-21130355D01*
X32059139Y-21212771D01*
X32073000Y-21226632D01*
X32073000Y-21757368D01*
X32059139Y-21771229D01*
X32004070Y-21853645D01*
X31966137Y-21945222D01*
X31946800Y-22042439D01*
X31946800Y-22141561D01*
X31966137Y-22238778D01*
X32004070Y-22330355D01*
X32030954Y-22370590D01*
X31836227Y-22370590D01*
X31823790Y-22369365D01*
X31774154Y-22374254D01*
X31726425Y-22388732D01*
X31711104Y-22396922D01*
X31682439Y-22412243D01*
X31643884Y-22443884D01*
X31635953Y-22453548D01*
X30868912Y-23220590D01*
X30143385Y-23220590D01*
X30264472Y-23183859D01*
X30408349Y-23106955D01*
X30534459Y-23003459D01*
X30637955Y-22877349D01*
X30714859Y-22733472D01*
X30762216Y-22577355D01*
X30774200Y-22455682D01*
X30774200Y-22124317D01*
X30762216Y-22002644D01*
X30714859Y-21846528D01*
X30637955Y-21702651D01*
X30534459Y-21576541D01*
X30408348Y-21473045D01*
X30264471Y-21396141D01*
X30108355Y-21348784D01*
X29946000Y-21332793D01*
X29783644Y-21348784D01*
X29627528Y-21396141D01*
X29483651Y-21473045D01*
X29357541Y-21576541D01*
X29254045Y-21702652D01*
X29177141Y-21846529D01*
X29129784Y-22002645D01*
X29117800Y-22124318D01*
X29117800Y-22455683D01*
X29129784Y-22577356D01*
X29177141Y-22733472D01*
X29254045Y-22877349D01*
X29357541Y-23003459D01*
X29483652Y-23106955D01*
X29627529Y-23183859D01*
X29748616Y-23220590D01*
X20828669Y-23220590D01*
X19972454Y-22364376D01*
X19985784Y-22332194D01*
X20003200Y-22244636D01*
X20003200Y-22155364D01*
X19985784Y-22067806D01*
X19951621Y-21985329D01*
X19902024Y-21911102D01*
X19838898Y-21847976D01*
X19764671Y-21798379D01*
X19682194Y-21764216D01*
X19594636Y-21746800D01*
X19505364Y-21746800D01*
X19417806Y-21764216D01*
X19335329Y-21798379D01*
X19261102Y-21847976D01*
X19197976Y-21911102D01*
X19148379Y-21985329D01*
X19114216Y-22067806D01*
X19112834Y-22074755D01*
X19033606Y-21995528D01*
X19053200Y-21897023D01*
X19053200Y-21792977D01*
X19032902Y-21690930D01*
X18993085Y-21594803D01*
X18935280Y-21508292D01*
X18861708Y-21434720D01*
X18839678Y-21420000D01*
X18861708Y-21405280D01*
X18935280Y-21331708D01*
X18993085Y-21245197D01*
X19032902Y-21149070D01*
X19042662Y-21100000D01*
X26396800Y-21100000D01*
X26396800Y-22600000D01*
X26400704Y-22639642D01*
X26412268Y-22677761D01*
X26431045Y-22712892D01*
X26456316Y-22743684D01*
X26487108Y-22768955D01*
X26522239Y-22787732D01*
X26560358Y-22799296D01*
X26600000Y-22803200D01*
X28200000Y-22803200D01*
X28239642Y-22799296D01*
X28277761Y-22787732D01*
X28312892Y-22768955D01*
X28343684Y-22743684D01*
X28368955Y-22712892D01*
X28387732Y-22677761D01*
X28399296Y-22639642D01*
X28403200Y-22600000D01*
X28403200Y-21100000D01*
X28399296Y-21060358D01*
X28387732Y-21022239D01*
X28368955Y-20987108D01*
X28343684Y-20956316D01*
X28312892Y-20931045D01*
X28277761Y-20912268D01*
X28239642Y-20900704D01*
X28200000Y-20896800D01*
X26600000Y-20896800D01*
X26560358Y-20900704D01*
X26522239Y-20912268D01*
X26487108Y-20931045D01*
X26456316Y-20956316D01*
X26431045Y-20987108D01*
X26412268Y-21022239D01*
X26400704Y-21060358D01*
X26396800Y-21100000D01*
X19042662Y-21100000D01*
X19053200Y-21047023D01*
X19053200Y-20942977D01*
X19032902Y-20840930D01*
X18993085Y-20744803D01*
X18935280Y-20658292D01*
X18861708Y-20584720D01*
X18839678Y-20570000D01*
X18861708Y-20555280D01*
X18935280Y-20481708D01*
X18993085Y-20395197D01*
X19032902Y-20299070D01*
X19053200Y-20197023D01*
X19053200Y-20092977D01*
X19032902Y-19990930D01*
X18993085Y-19894803D01*
X18935280Y-19808292D01*
X18861708Y-19734720D01*
X18775197Y-19676915D01*
X18679070Y-19637098D01*
X18577023Y-19616800D01*
X18472977Y-19616800D01*
X18370930Y-19637098D01*
X18274803Y-19676915D01*
X18188292Y-19734720D01*
X18126212Y-19796800D01*
X17573788Y-19796800D01*
X17511708Y-19734720D01*
X17425197Y-19676915D01*
X17329070Y-19637098D01*
X17227023Y-19616800D01*
X17122977Y-19616800D01*
X17020930Y-19637098D01*
X16924803Y-19676915D01*
X16838292Y-19734720D01*
X16764720Y-19808292D01*
X16706915Y-19894803D01*
X16687066Y-19942723D01*
X15403892Y-21225898D01*
X15388517Y-21238516D01*
X15375899Y-21253891D01*
X15375896Y-21253894D01*
X15338131Y-21299911D01*
X15300691Y-21369956D01*
X15277635Y-21445959D01*
X15269851Y-21525000D01*
X15271801Y-21544801D01*
X15271800Y-23455209D01*
X15269851Y-23475000D01*
X15271800Y-23494791D01*
X15271800Y-23494797D01*
X15277635Y-23554040D01*
X15300690Y-23630043D01*
X15338130Y-23700088D01*
X15388516Y-23761484D01*
X15403897Y-23774107D01*
X16300898Y-24671109D01*
X16313516Y-24686484D01*
X16328891Y-24699102D01*
X16328894Y-24699105D01*
X16374911Y-24736870D01*
X16444955Y-24774310D01*
X16473145Y-24782861D01*
X16520959Y-24797365D01*
X16580202Y-24803200D01*
X16580209Y-24803200D01*
X16600000Y-24805149D01*
X16619791Y-24803200D01*
X16836212Y-24803200D01*
X16838292Y-24805280D01*
X16924803Y-24863085D01*
X17020930Y-24902902D01*
X17122977Y-24923200D01*
X17227023Y-24923200D01*
X17329070Y-24902902D01*
X17425197Y-24863085D01*
X17511708Y-24805280D01*
X17563788Y-24753200D01*
X18136212Y-24753200D01*
X18188292Y-24805280D01*
X18274803Y-24863085D01*
X18370930Y-24902902D01*
X18472977Y-24923200D01*
X18577023Y-24923200D01*
X18679070Y-24902902D01*
X18775197Y-24863085D01*
X18861708Y-24805280D01*
X18935280Y-24731708D01*
X18993085Y-24645197D01*
X19032902Y-24549070D01*
X19053200Y-24447023D01*
X19053200Y-24342977D01*
X19032902Y-24240930D01*
X18993085Y-24144803D01*
X18935280Y-24058292D01*
X18861708Y-23984720D01*
X18839678Y-23970000D01*
X18861708Y-23955280D01*
X18935280Y-23881708D01*
X18993085Y-23795197D01*
X19032902Y-23699070D01*
X19053200Y-23597023D01*
X19053200Y-23492977D01*
X19032902Y-23390930D01*
X18993085Y-23294803D01*
X18935280Y-23208292D01*
X18861708Y-23134720D01*
X18839678Y-23120000D01*
X18861708Y-23105280D01*
X18935280Y-23031708D01*
X18993085Y-22945197D01*
X19032902Y-22849070D01*
X19053200Y-22747023D01*
X19053200Y-22731278D01*
X20142163Y-23820242D01*
X20150094Y-23829906D01*
X20188649Y-23861547D01*
X20232636Y-23885058D01*
X20265885Y-23895144D01*
X20280363Y-23899536D01*
X20329999Y-23904425D01*
X20342436Y-23903200D01*
X29736121Y-23903200D01*
X29627528Y-23936141D01*
X29483651Y-24013045D01*
X29357541Y-24116541D01*
X29254045Y-24242652D01*
X29177141Y-24386529D01*
X29129784Y-24542645D01*
X29117800Y-24664318D01*
X29117800Y-24995683D01*
X29129784Y-25117356D01*
X29177141Y-25273472D01*
X29254045Y-25417349D01*
X29357541Y-25543459D01*
X29483652Y-25646955D01*
X29627529Y-25723859D01*
X29783645Y-25771216D01*
X29946000Y-25787207D01*
X30108356Y-25771216D01*
X30264472Y-25723859D01*
X30408349Y-25646955D01*
X30534459Y-25543459D01*
X30637955Y-25417349D01*
X30714859Y-25273472D01*
X30762216Y-25117355D01*
X30774200Y-24995682D01*
X30774200Y-24664317D01*
X30762216Y-24542644D01*
X30714859Y-24386528D01*
X30637955Y-24242651D01*
X30534459Y-24116541D01*
X30408348Y-24013045D01*
X30264471Y-23936141D01*
X30155878Y-23903200D01*
X31034341Y-23903200D01*
X31046778Y-23904425D01*
X31096414Y-23899536D01*
X31144142Y-23885058D01*
X31188129Y-23861547D01*
X31226684Y-23829906D01*
X31234619Y-23820237D01*
X32001657Y-23053200D01*
X32004367Y-23053200D01*
X32004070Y-23053645D01*
X31966137Y-23145222D01*
X31946800Y-23242439D01*
X31946800Y-23341561D01*
X31966137Y-23438778D01*
X32004070Y-23530355D01*
X32059139Y-23612771D01*
X32073000Y-23626632D01*
X32073000Y-24057368D01*
X32059139Y-24071229D01*
X32004070Y-24153645D01*
X31966137Y-24245222D01*
X31946800Y-24342439D01*
X31946800Y-24441561D01*
X31966137Y-24538778D01*
X32004070Y-24630355D01*
X32059139Y-24712771D01*
X32073000Y-24726632D01*
X32073000Y-25257368D01*
X32059139Y-25271229D01*
X32004070Y-25353645D01*
X31966137Y-25445222D01*
X31946800Y-25542439D01*
X31946800Y-25641561D01*
X31966137Y-25738778D01*
X32004070Y-25830355D01*
X32059139Y-25912771D01*
X32073000Y-25926632D01*
X32073000Y-25996800D01*
X29114884Y-25996800D01*
X29099999Y-25995334D01*
X29085114Y-25996800D01*
X29085105Y-25996800D01*
X29040562Y-26001187D01*
X28983409Y-26018524D01*
X28930736Y-26046679D01*
X28884568Y-26084568D01*
X28875072Y-26096139D01*
X28746135Y-26225076D01*
X28734569Y-26234568D01*
X28725077Y-26246134D01*
X28725073Y-26246138D01*
X28696679Y-26280737D01*
X28668525Y-26333409D01*
X28651188Y-26390563D01*
X28645334Y-26450000D01*
X28646801Y-26464894D01*
X28646800Y-26824411D01*
X27924411Y-27546800D01*
X26825638Y-27546800D01*
X26795732Y-27534413D01*
X26732325Y-27521800D01*
X26667675Y-27521800D01*
X26604268Y-27534413D01*
X26544539Y-27559153D01*
X26490785Y-27595070D01*
X26445070Y-27640785D01*
X26409153Y-27694539D01*
X26384413Y-27754268D01*
X26371800Y-27817675D01*
X26371800Y-27882325D01*
X26384413Y-27945732D01*
X26409153Y-28005461D01*
X26445070Y-28059215D01*
X26490785Y-28104930D01*
X26544539Y-28140847D01*
X26604268Y-28165587D01*
X26667675Y-28178200D01*
X26732325Y-28178200D01*
X26795732Y-28165587D01*
X26825638Y-28153200D01*
X28035115Y-28153200D01*
X28050000Y-28154666D01*
X28064885Y-28153200D01*
X28064895Y-28153200D01*
X28109438Y-28148813D01*
X28166591Y-28131476D01*
X28219264Y-28103321D01*
X28265432Y-28065432D01*
X28274928Y-28053861D01*
X29116817Y-27211972D01*
X29116817Y-28120000D01*
X29120740Y-28159834D01*
X29132360Y-28198137D01*
X29151228Y-28233438D01*
X29176621Y-28264379D01*
X29207562Y-28289772D01*
X29242863Y-28308640D01*
X29281166Y-28320260D01*
X29321000Y-28324183D01*
X30571000Y-28324183D01*
X30610834Y-28320260D01*
X30649137Y-28308640D01*
X30684438Y-28289772D01*
X30715379Y-28264379D01*
X30740772Y-28233438D01*
X30759640Y-28198137D01*
X30771260Y-28159834D01*
X30775183Y-28120000D01*
X30775183Y-26620000D01*
X30773528Y-26603200D01*
X32004367Y-26603200D01*
X32004070Y-26603645D01*
X31966137Y-26695222D01*
X31946800Y-26792439D01*
X31946800Y-26891561D01*
X31966137Y-26988778D01*
X32004070Y-27080355D01*
X32021506Y-27106450D01*
X32027959Y-28254982D01*
X32017800Y-28358588D01*
X31989749Y-28451497D01*
X31944189Y-28537185D01*
X31882849Y-28612394D01*
X31808070Y-28674257D01*
X31722701Y-28720416D01*
X31629990Y-28749115D01*
X31526423Y-28760000D01*
X13121438Y-28760000D01*
X13017412Y-28749800D01*
X12924503Y-28721749D01*
X12838815Y-28676189D01*
X12763606Y-28614849D01*
X12701743Y-28540070D01*
X12655584Y-28454701D01*
X12626885Y-28361990D01*
X12615995Y-28258376D01*
X12614302Y-26940892D01*
X21966800Y-26940892D01*
X21966800Y-27099108D01*
X21997667Y-27254285D01*
X22058214Y-27400458D01*
X22146114Y-27532010D01*
X22257990Y-27643886D01*
X22389542Y-27731786D01*
X22535715Y-27792333D01*
X22690892Y-27823200D01*
X22849108Y-27823200D01*
X23004285Y-27792333D01*
X23150458Y-27731786D01*
X23282010Y-27643886D01*
X23393886Y-27532010D01*
X23481786Y-27400458D01*
X23542333Y-27254285D01*
X23573200Y-27099108D01*
X23573200Y-26940892D01*
X24966800Y-26940892D01*
X24966800Y-27099108D01*
X24997667Y-27254285D01*
X25058214Y-27400458D01*
X25146114Y-27532010D01*
X25257990Y-27643886D01*
X25389542Y-27731786D01*
X25535715Y-27792333D01*
X25690892Y-27823200D01*
X25849108Y-27823200D01*
X26004285Y-27792333D01*
X26150458Y-27731786D01*
X26282010Y-27643886D01*
X26393886Y-27532010D01*
X26481786Y-27400458D01*
X26542333Y-27254285D01*
X26573200Y-27099108D01*
X26573200Y-26940892D01*
X26542333Y-26785715D01*
X26481786Y-26639542D01*
X26393886Y-26507990D01*
X26282010Y-26396114D01*
X26150458Y-26308214D01*
X26004285Y-26247667D01*
X25849108Y-26216800D01*
X25690892Y-26216800D01*
X25535715Y-26247667D01*
X25389542Y-26308214D01*
X25257990Y-26396114D01*
X25146114Y-26507990D01*
X25058214Y-26639542D01*
X24997667Y-26785715D01*
X24966800Y-26940892D01*
X23573200Y-26940892D01*
X23542333Y-26785715D01*
X23481786Y-26639542D01*
X23393886Y-26507990D01*
X23282010Y-26396114D01*
X23150458Y-26308214D01*
X23004285Y-26247667D01*
X22849108Y-26216800D01*
X22690892Y-26216800D01*
X22535715Y-26247667D01*
X22389542Y-26308214D01*
X22257990Y-26396114D01*
X22146114Y-26507990D01*
X22058214Y-26639542D01*
X21997667Y-26785715D01*
X21966800Y-26940892D01*
X12614302Y-26940892D01*
X12603158Y-18270816D01*
X19706800Y-18270816D01*
X19706800Y-18419184D01*
X19735745Y-18564700D01*
X19792523Y-18701774D01*
X19874952Y-18825137D01*
X19979863Y-18930048D01*
X20054621Y-18980000D01*
X19979863Y-19029952D01*
X19874952Y-19134863D01*
X19792523Y-19258226D01*
X19735745Y-19395300D01*
X19706800Y-19540816D01*
X19706800Y-19689184D01*
X19735745Y-19834700D01*
X19792523Y-19971774D01*
X19874952Y-20095137D01*
X19979863Y-20200048D01*
X20103226Y-20282477D01*
X20240300Y-20339255D01*
X20385816Y-20368200D01*
X20534184Y-20368200D01*
X20679700Y-20339255D01*
X20816774Y-20282477D01*
X20940137Y-20200048D01*
X21045048Y-20095137D01*
X21127477Y-19971774D01*
X21184255Y-19834700D01*
X21213200Y-19689184D01*
X21213200Y-19540816D01*
X21184255Y-19395300D01*
X21127477Y-19258226D01*
X21045048Y-19134863D01*
X20940137Y-19029952D01*
X20865379Y-18980000D01*
X20940137Y-18930048D01*
X21045048Y-18825137D01*
X21127477Y-18701774D01*
X21184255Y-18564700D01*
X21213200Y-18419184D01*
X21213200Y-18270816D01*
X21184255Y-18125300D01*
X21127477Y-17988226D01*
X21045048Y-17864863D01*
X20940137Y-17759952D01*
X20816774Y-17677523D01*
X20679700Y-17620745D01*
X20534184Y-17591800D01*
X20385816Y-17591800D01*
X20240300Y-17620745D01*
X20103226Y-17677523D01*
X19979863Y-17759952D01*
X19874952Y-17864863D01*
X19792523Y-17988226D01*
X19735745Y-18125300D01*
X19706800Y-18270816D01*
X12603158Y-18270816D01*
X12602110Y-17455364D01*
X28846800Y-17455364D01*
X28846800Y-17544636D01*
X28864216Y-17632194D01*
X28898379Y-17714671D01*
X28947976Y-17788898D01*
X29011102Y-17852024D01*
X29085329Y-17901621D01*
X29163995Y-17934205D01*
X29171376Y-17941587D01*
X29184473Y-17957437D01*
X29199366Y-17969576D01*
X29201958Y-17972169D01*
X29202635Y-17979041D01*
X29225690Y-18055044D01*
X29263130Y-18125089D01*
X29297194Y-18166596D01*
X29313516Y-18186484D01*
X29374911Y-18236870D01*
X29444956Y-18274310D01*
X29520959Y-18297365D01*
X29600000Y-18305150D01*
X29619798Y-18303200D01*
X30073798Y-18303200D01*
X30107211Y-18304235D01*
X30133003Y-18299930D01*
X30159041Y-18297365D01*
X30172103Y-18293403D01*
X30185550Y-18291158D01*
X30209998Y-18281907D01*
X30235044Y-18274310D01*
X30247079Y-18267877D01*
X30259834Y-18263051D01*
X30282017Y-18249202D01*
X30305089Y-18236870D01*
X30315637Y-18228214D01*
X30327206Y-18220991D01*
X30346262Y-18203080D01*
X30366484Y-18186484D01*
X30375139Y-18175938D01*
X30385078Y-18166596D01*
X30400270Y-18145316D01*
X30416870Y-18125089D01*
X30432649Y-18095569D01*
X30556335Y-17880464D01*
X30598898Y-17852024D01*
X30662024Y-17788898D01*
X30711621Y-17714671D01*
X30745784Y-17632194D01*
X30763200Y-17544636D01*
X30763200Y-17455364D01*
X30745784Y-17367806D01*
X30711621Y-17285329D01*
X30662024Y-17211102D01*
X30598898Y-17147976D01*
X30524671Y-17098379D01*
X30442194Y-17064216D01*
X30354636Y-17046800D01*
X30265364Y-17046800D01*
X30177806Y-17064216D01*
X30095329Y-17098379D01*
X30054639Y-17125567D01*
X29979041Y-17102635D01*
X29919798Y-17096800D01*
X29510859Y-17096800D01*
X29432194Y-17064216D01*
X29344636Y-17046800D01*
X29255364Y-17046800D01*
X29167806Y-17064216D01*
X29085329Y-17098379D01*
X29011102Y-17147976D01*
X28947976Y-17211102D01*
X28898379Y-17285329D01*
X28864216Y-17367806D01*
X28846800Y-17455364D01*
X12602110Y-17455364D01*
X12602009Y-17377343D01*
X12612200Y-17273413D01*
X12640250Y-17180504D01*
X12685811Y-17094815D01*
X12747151Y-17019606D01*
X12821930Y-16957743D01*
X12907301Y-16911584D01*
X13000010Y-16882885D01*
X13103577Y-16872000D01*
X31508562Y-16872000D01*
X31612587Y-16882200D01*
G37*
X31612587Y-16882200D02*
X31705496Y-16910250D01*
X31791185Y-16955811D01*
X31866394Y-17017151D01*
X31928257Y-17091930D01*
X31974416Y-17177301D01*
X32003115Y-17270010D01*
X32014019Y-17373760D01*
X32019953Y-18429875D01*
X32004070Y-18453645D01*
X31966137Y-18545222D01*
X31946800Y-18642439D01*
X31946800Y-18741561D01*
X31966137Y-18838778D01*
X32004070Y-18930355D01*
X32059139Y-19012771D01*
X32073000Y-19026632D01*
X32073000Y-19457368D01*
X32059139Y-19471229D01*
X32004070Y-19553645D01*
X31966137Y-19645222D01*
X31946800Y-19742439D01*
X31946800Y-19841561D01*
X31966137Y-19938778D01*
X32004070Y-20030355D01*
X32059139Y-20112771D01*
X32073000Y-20126632D01*
X32073000Y-20557368D01*
X32059139Y-20571229D01*
X32004070Y-20653645D01*
X31966137Y-20745222D01*
X31946800Y-20842439D01*
X31946800Y-20941561D01*
X31966137Y-21038778D01*
X32004070Y-21130355D01*
X32059139Y-21212771D01*
X32073000Y-21226632D01*
X32073000Y-21757368D01*
X32059139Y-21771229D01*
X32004070Y-21853645D01*
X31966137Y-21945222D01*
X31946800Y-22042439D01*
X31946800Y-22141561D01*
X31966137Y-22238778D01*
X32004070Y-22330355D01*
X32030954Y-22370590D01*
X31836227Y-22370590D01*
X31823790Y-22369365D01*
X31774154Y-22374254D01*
X31726425Y-22388732D01*
X31711104Y-22396922D01*
X31682439Y-22412243D01*
X31643884Y-22443884D01*
X31635953Y-22453548D01*
X30868912Y-23220590D01*
X30143385Y-23220590D01*
X30264472Y-23183859D01*
X30408349Y-23106955D01*
X30534459Y-23003459D01*
X30637955Y-22877349D01*
X30714859Y-22733472D01*
X30762216Y-22577355D01*
X30774200Y-22455682D01*
X30774200Y-22124317D01*
X30762216Y-22002644D01*
X30714859Y-21846528D01*
X30637955Y-21702651D01*
X30534459Y-21576541D01*
X30408348Y-21473045D01*
X30264471Y-21396141D01*
X30108355Y-21348784D01*
X29946000Y-21332793D01*
X29783644Y-21348784D01*
X29627528Y-21396141D01*
X29483651Y-21473045D01*
X29357541Y-21576541D01*
X29254045Y-21702652D01*
X29177141Y-21846529D01*
X29129784Y-22002645D01*
X29117800Y-22124318D01*
X29117800Y-22455683D01*
X29129784Y-22577356D01*
X29177141Y-22733472D01*
X29254045Y-22877349D01*
X29357541Y-23003459D01*
X29483652Y-23106955D01*
X29627529Y-23183859D01*
X29748616Y-23220590D01*
X20828669Y-23220590D01*
X19972454Y-22364376D01*
X19985784Y-22332194D01*
X20003200Y-22244636D01*
X20003200Y-22155364D01*
X19985784Y-22067806D01*
X19951621Y-21985329D01*
X19902024Y-21911102D01*
X19838898Y-21847976D01*
X19764671Y-21798379D01*
X19682194Y-21764216D01*
X19594636Y-21746800D01*
X19505364Y-21746800D01*
X19417806Y-21764216D01*
X19335329Y-21798379D01*
X19261102Y-21847976D01*
X19197976Y-21911102D01*
X19148379Y-21985329D01*
X19114216Y-22067806D01*
X19112834Y-22074755D01*
X19033606Y-21995528D01*
X19053200Y-21897023D01*
X19053200Y-21792977D01*
X19032902Y-21690930D01*
X18993085Y-21594803D01*
X18935280Y-21508292D01*
X18861708Y-21434720D01*
X18839678Y-21420000D01*
X18861708Y-21405280D01*
X18935280Y-21331708D01*
X18993085Y-21245197D01*
X19032902Y-21149070D01*
X19042662Y-21100000D01*
X26396800Y-21100000D01*
X26396800Y-22600000D01*
X26400704Y-22639642D01*
X26412268Y-22677761D01*
X26431045Y-22712892D01*
X26456316Y-22743684D01*
X26487108Y-22768955D01*
X26522239Y-22787732D01*
X26560358Y-22799296D01*
X26600000Y-22803200D01*
X28200000Y-22803200D01*
X28239642Y-22799296D01*
X28277761Y-22787732D01*
X28312892Y-22768955D01*
X28343684Y-22743684D01*
X28368955Y-22712892D01*
X28387732Y-22677761D01*
X28399296Y-22639642D01*
X28403200Y-22600000D01*
X28403200Y-21100000D01*
X28399296Y-21060358D01*
X28387732Y-21022239D01*
X28368955Y-20987108D01*
X28343684Y-20956316D01*
X28312892Y-20931045D01*
X28277761Y-20912268D01*
X28239642Y-20900704D01*
X28200000Y-20896800D01*
X26600000Y-20896800D01*
X26560358Y-20900704D01*
X26522239Y-20912268D01*
X26487108Y-20931045D01*
X26456316Y-20956316D01*
X26431045Y-20987108D01*
X26412268Y-21022239D01*
X26400704Y-21060358D01*
X26396800Y-21100000D01*
X19042662Y-21100000D01*
X19053200Y-21047023D01*
X19053200Y-20942977D01*
X19032902Y-20840930D01*
X18993085Y-20744803D01*
X18935280Y-20658292D01*
X18861708Y-20584720D01*
X18839678Y-20570000D01*
X18861708Y-20555280D01*
X18935280Y-20481708D01*
X18993085Y-20395197D01*
X19032902Y-20299070D01*
X19053200Y-20197023D01*
X19053200Y-20092977D01*
X19032902Y-19990930D01*
X18993085Y-19894803D01*
X18935280Y-19808292D01*
X18861708Y-19734720D01*
X18775197Y-19676915D01*
X18679070Y-19637098D01*
X18577023Y-19616800D01*
X18472977Y-19616800D01*
X18370930Y-19637098D01*
X18274803Y-19676915D01*
X18188292Y-19734720D01*
X18126212Y-19796800D01*
X17573788Y-19796800D01*
X17511708Y-19734720D01*
X17425197Y-19676915D01*
X17329070Y-19637098D01*
X17227023Y-19616800D01*
X17122977Y-19616800D01*
X17020930Y-19637098D01*
X16924803Y-19676915D01*
X16838292Y-19734720D01*
X16764720Y-19808292D01*
X16706915Y-19894803D01*
X16687066Y-19942723D01*
X15403892Y-21225898D01*
X15388517Y-21238516D01*
X15375899Y-21253891D01*
X15375896Y-21253894D01*
X15338131Y-21299911D01*
X15300691Y-21369956D01*
X15277635Y-21445959D01*
X15269851Y-21525000D01*
X15271801Y-21544801D01*
X15271800Y-23455209D01*
X15269851Y-23475000D01*
X15271800Y-23494791D01*
X15271800Y-23494797D01*
X15277635Y-23554040D01*
X15300690Y-23630043D01*
X15338130Y-23700088D01*
X15388516Y-23761484D01*
X15403897Y-23774107D01*
X16300898Y-24671109D01*
X16313516Y-24686484D01*
X16328891Y-24699102D01*
X16328894Y-24699105D01*
X16374911Y-24736870D01*
X16444955Y-24774310D01*
X16473145Y-24782861D01*
X16520959Y-24797365D01*
X16580202Y-24803200D01*
X16580209Y-24803200D01*
X16600000Y-24805149D01*
X16619791Y-24803200D01*
X16836212Y-24803200D01*
X16838292Y-24805280D01*
X16924803Y-24863085D01*
X17020930Y-24902902D01*
X17122977Y-24923200D01*
X17227023Y-24923200D01*
X17329070Y-24902902D01*
X17425197Y-24863085D01*
X17511708Y-24805280D01*
X17563788Y-24753200D01*
X18136212Y-24753200D01*
X18188292Y-24805280D01*
X18274803Y-24863085D01*
X18370930Y-24902902D01*
X18472977Y-24923200D01*
X18577023Y-24923200D01*
X18679070Y-24902902D01*
X18775197Y-24863085D01*
X18861708Y-24805280D01*
X18935280Y-24731708D01*
X18993085Y-24645197D01*
X19032902Y-24549070D01*
X19053200Y-24447023D01*
X19053200Y-24342977D01*
X19032902Y-24240930D01*
X18993085Y-24144803D01*
X18935280Y-24058292D01*
X18861708Y-23984720D01*
X18839678Y-23970000D01*
X18861708Y-23955280D01*
X18935280Y-23881708D01*
X18993085Y-23795197D01*
X19032902Y-23699070D01*
X19053200Y-23597023D01*
X19053200Y-23492977D01*
X19032902Y-23390930D01*
X18993085Y-23294803D01*
X18935280Y-23208292D01*
X18861708Y-23134720D01*
X18839678Y-23120000D01*
X18861708Y-23105280D01*
X18935280Y-23031708D01*
X18993085Y-22945197D01*
X19032902Y-22849070D01*
X19053200Y-22747023D01*
X19053200Y-22731278D01*
X20142163Y-23820242D01*
X20150094Y-23829906D01*
X20188649Y-23861547D01*
X20232636Y-23885058D01*
X20265885Y-23895144D01*
X20280363Y-23899536D01*
X20329999Y-23904425D01*
X20342436Y-23903200D01*
X29736121Y-23903200D01*
X29627528Y-23936141D01*
X29483651Y-24013045D01*
X29357541Y-24116541D01*
X29254045Y-24242652D01*
X29177141Y-24386529D01*
X29129784Y-24542645D01*
X29117800Y-24664318D01*
X29117800Y-24995683D01*
X29129784Y-25117356D01*
X29177141Y-25273472D01*
X29254045Y-25417349D01*
X29357541Y-25543459D01*
X29483652Y-25646955D01*
X29627529Y-25723859D01*
X29783645Y-25771216D01*
X29946000Y-25787207D01*
X30108356Y-25771216D01*
X30264472Y-25723859D01*
X30408349Y-25646955D01*
X30534459Y-25543459D01*
X30637955Y-25417349D01*
X30714859Y-25273472D01*
X30762216Y-25117355D01*
X30774200Y-24995682D01*
X30774200Y-24664317D01*
X30762216Y-24542644D01*
X30714859Y-24386528D01*
X30637955Y-24242651D01*
X30534459Y-24116541D01*
X30408348Y-24013045D01*
X30264471Y-23936141D01*
X30155878Y-23903200D01*
X31034341Y-23903200D01*
X31046778Y-23904425D01*
X31096414Y-23899536D01*
X31144142Y-23885058D01*
X31188129Y-23861547D01*
X31226684Y-23829906D01*
X31234619Y-23820237D01*
X32001657Y-23053200D01*
X32004367Y-23053200D01*
X32004070Y-23053645D01*
X31966137Y-23145222D01*
X31946800Y-23242439D01*
X31946800Y-23341561D01*
X31966137Y-23438778D01*
X32004070Y-23530355D01*
X32059139Y-23612771D01*
X32073000Y-23626632D01*
X32073000Y-24057368D01*
X32059139Y-24071229D01*
X32004070Y-24153645D01*
X31966137Y-24245222D01*
X31946800Y-24342439D01*
X31946800Y-24441561D01*
X31966137Y-24538778D01*
X32004070Y-24630355D01*
X32059139Y-24712771D01*
X32073000Y-24726632D01*
X32073000Y-25257368D01*
X32059139Y-25271229D01*
X32004070Y-25353645D01*
X31966137Y-25445222D01*
X31946800Y-25542439D01*
X31946800Y-25641561D01*
X31966137Y-25738778D01*
X32004070Y-25830355D01*
X32059139Y-25912771D01*
X32073000Y-25926632D01*
X32073000Y-25996800D01*
X29114884Y-25996800D01*
X29099999Y-25995334D01*
X29085114Y-25996800D01*
X29085105Y-25996800D01*
X29040562Y-26001187D01*
X28983409Y-26018524D01*
X28930736Y-26046679D01*
X28884568Y-26084568D01*
X28875072Y-26096139D01*
X28746135Y-26225076D01*
X28734569Y-26234568D01*
X28725077Y-26246134D01*
X28725073Y-26246138D01*
X28696679Y-26280737D01*
X28668525Y-26333409D01*
X28651188Y-26390563D01*
X28645334Y-26450000D01*
X28646801Y-26464894D01*
X28646800Y-26824411D01*
X27924411Y-27546800D01*
X26825638Y-27546800D01*
X26795732Y-27534413D01*
X26732325Y-27521800D01*
X26667675Y-27521800D01*
X26604268Y-27534413D01*
X26544539Y-27559153D01*
X26490785Y-27595070D01*
X26445070Y-27640785D01*
X26409153Y-27694539D01*
X26384413Y-27754268D01*
X26371800Y-27817675D01*
X26371800Y-27882325D01*
X26384413Y-27945732D01*
X26409153Y-28005461D01*
X26445070Y-28059215D01*
X26490785Y-28104930D01*
X26544539Y-28140847D01*
X26604268Y-28165587D01*
X26667675Y-28178200D01*
X26732325Y-28178200D01*
X26795732Y-28165587D01*
X26825638Y-28153200D01*
X28035115Y-28153200D01*
X28050000Y-28154666D01*
X28064885Y-28153200D01*
X28064895Y-28153200D01*
X28109438Y-28148813D01*
X28166591Y-28131476D01*
X28219264Y-28103321D01*
X28265432Y-28065432D01*
X28274928Y-28053861D01*
X29116817Y-27211972D01*
X29116817Y-28120000D01*
X29120740Y-28159834D01*
X29132360Y-28198137D01*
X29151228Y-28233438D01*
X29176621Y-28264379D01*
X29207562Y-28289772D01*
X29242863Y-28308640D01*
X29281166Y-28320260D01*
X29321000Y-28324183D01*
X30571000Y-28324183D01*
X30610834Y-28320260D01*
X30649137Y-28308640D01*
X30684438Y-28289772D01*
X30715379Y-28264379D01*
X30740772Y-28233438D01*
X30759640Y-28198137D01*
X30771260Y-28159834D01*
X30775183Y-28120000D01*
X30775183Y-26620000D01*
X30773528Y-26603200D01*
X32004367Y-26603200D01*
X32004070Y-26603645D01*
X31966137Y-26695222D01*
X31946800Y-26792439D01*
X31946800Y-26891561D01*
X31966137Y-26988778D01*
X32004070Y-27080355D01*
X32021506Y-27106450D01*
X32027959Y-28254982D01*
X32017800Y-28358588D01*
X31989749Y-28451497D01*
X31944189Y-28537185D01*
X31882849Y-28612394D01*
X31808070Y-28674257D01*
X31722701Y-28720416D01*
X31629990Y-28749115D01*
X31526423Y-28760000D01*
X13121438Y-28760000D01*
X13017412Y-28749800D01*
X12924503Y-28721749D01*
X12838815Y-28676189D01*
X12763606Y-28614849D01*
X12701743Y-28540070D01*
X12655584Y-28454701D01*
X12626885Y-28361990D01*
X12615995Y-28258376D01*
X12614302Y-26940892D01*
X21966800Y-26940892D01*
X21966800Y-27099108D01*
X21997667Y-27254285D01*
X22058214Y-27400458D01*
X22146114Y-27532010D01*
X22257990Y-27643886D01*
X22389542Y-27731786D01*
X22535715Y-27792333D01*
X22690892Y-27823200D01*
X22849108Y-27823200D01*
X23004285Y-27792333D01*
X23150458Y-27731786D01*
X23282010Y-27643886D01*
X23393886Y-27532010D01*
X23481786Y-27400458D01*
X23542333Y-27254285D01*
X23573200Y-27099108D01*
X23573200Y-26940892D01*
X24966800Y-26940892D01*
X24966800Y-27099108D01*
X24997667Y-27254285D01*
X25058214Y-27400458D01*
X25146114Y-27532010D01*
X25257990Y-27643886D01*
X25389542Y-27731786D01*
X25535715Y-27792333D01*
X25690892Y-27823200D01*
X25849108Y-27823200D01*
X26004285Y-27792333D01*
X26150458Y-27731786D01*
X26282010Y-27643886D01*
X26393886Y-27532010D01*
X26481786Y-27400458D01*
X26542333Y-27254285D01*
X26573200Y-27099108D01*
X26573200Y-26940892D01*
X26542333Y-26785715D01*
X26481786Y-26639542D01*
X26393886Y-26507990D01*
X26282010Y-26396114D01*
X26150458Y-26308214D01*
X26004285Y-26247667D01*
X25849108Y-26216800D01*
X25690892Y-26216800D01*
X25535715Y-26247667D01*
X25389542Y-26308214D01*
X25257990Y-26396114D01*
X25146114Y-26507990D01*
X25058214Y-26639542D01*
X24997667Y-26785715D01*
X24966800Y-26940892D01*
X23573200Y-26940892D01*
X23542333Y-26785715D01*
X23481786Y-26639542D01*
X23393886Y-26507990D01*
X23282010Y-26396114D01*
X23150458Y-26308214D01*
X23004285Y-26247667D01*
X22849108Y-26216800D01*
X22690892Y-26216800D01*
X22535715Y-26247667D01*
X22389542Y-26308214D01*
X22257990Y-26396114D01*
X22146114Y-26507990D01*
X22058214Y-26639542D01*
X21997667Y-26785715D01*
X21966800Y-26940892D01*
X12614302Y-26940892D01*
X12603158Y-18270816D01*
X19706800Y-18270816D01*
X19706800Y-18419184D01*
X19735745Y-18564700D01*
X19792523Y-18701774D01*
X19874952Y-18825137D01*
X19979863Y-18930048D01*
X20054621Y-18980000D01*
X19979863Y-19029952D01*
X19874952Y-19134863D01*
X19792523Y-19258226D01*
X19735745Y-19395300D01*
X19706800Y-19540816D01*
X19706800Y-19689184D01*
X19735745Y-19834700D01*
X19792523Y-19971774D01*
X19874952Y-20095137D01*
X19979863Y-20200048D01*
X20103226Y-20282477D01*
X20240300Y-20339255D01*
X20385816Y-20368200D01*
X20534184Y-20368200D01*
X20679700Y-20339255D01*
X20816774Y-20282477D01*
X20940137Y-20200048D01*
X21045048Y-20095137D01*
X21127477Y-19971774D01*
X21184255Y-19834700D01*
X21213200Y-19689184D01*
X21213200Y-19540816D01*
X21184255Y-19395300D01*
X21127477Y-19258226D01*
X21045048Y-19134863D01*
X20940137Y-19029952D01*
X20865379Y-18980000D01*
X20940137Y-18930048D01*
X21045048Y-18825137D01*
X21127477Y-18701774D01*
X21184255Y-18564700D01*
X21213200Y-18419184D01*
X21213200Y-18270816D01*
X21184255Y-18125300D01*
X21127477Y-17988226D01*
X21045048Y-17864863D01*
X20940137Y-17759952D01*
X20816774Y-17677523D01*
X20679700Y-17620745D01*
X20534184Y-17591800D01*
X20385816Y-17591800D01*
X20240300Y-17620745D01*
X20103226Y-17677523D01*
X19979863Y-17759952D01*
X19874952Y-17864863D01*
X19792523Y-17988226D01*
X19735745Y-18125300D01*
X19706800Y-18270816D01*
X12603158Y-18270816D01*
X12602110Y-17455364D01*
X28846800Y-17455364D01*
X28846800Y-17544636D01*
X28864216Y-17632194D01*
X28898379Y-17714671D01*
X28947976Y-17788898D01*
X29011102Y-17852024D01*
X29085329Y-17901621D01*
X29163995Y-17934205D01*
X29171376Y-17941587D01*
X29184473Y-17957437D01*
X29199366Y-17969576D01*
X29201958Y-17972169D01*
X29202635Y-17979041D01*
X29225690Y-18055044D01*
X29263130Y-18125089D01*
X29297194Y-18166596D01*
X29313516Y-18186484D01*
X29374911Y-18236870D01*
X29444956Y-18274310D01*
X29520959Y-18297365D01*
X29600000Y-18305150D01*
X29619798Y-18303200D01*
X30073798Y-18303200D01*
X30107211Y-18304235D01*
X30133003Y-18299930D01*
X30159041Y-18297365D01*
X30172103Y-18293403D01*
X30185550Y-18291158D01*
X30209998Y-18281907D01*
X30235044Y-18274310D01*
X30247079Y-18267877D01*
X30259834Y-18263051D01*
X30282017Y-18249202D01*
X30305089Y-18236870D01*
X30315637Y-18228214D01*
X30327206Y-18220991D01*
X30346262Y-18203080D01*
X30366484Y-18186484D01*
X30375139Y-18175938D01*
X30385078Y-18166596D01*
X30400270Y-18145316D01*
X30416870Y-18125089D01*
X30432649Y-18095569D01*
X30556335Y-17880464D01*
X30598898Y-17852024D01*
X30662024Y-17788898D01*
X30711621Y-17714671D01*
X30745784Y-17632194D01*
X30763200Y-17544636D01*
X30763200Y-17455364D01*
X30745784Y-17367806D01*
X30711621Y-17285329D01*
X30662024Y-17211102D01*
X30598898Y-17147976D01*
X30524671Y-17098379D01*
X30442194Y-17064216D01*
X30354636Y-17046800D01*
X30265364Y-17046800D01*
X30177806Y-17064216D01*
X30095329Y-17098379D01*
X30054639Y-17125567D01*
X29979041Y-17102635D01*
X29919798Y-17096800D01*
X29510859Y-17096800D01*
X29432194Y-17064216D01*
X29344636Y-17046800D01*
X29255364Y-17046800D01*
X29167806Y-17064216D01*
X29085329Y-17098379D01*
X29011102Y-17147976D01*
X28947976Y-17211102D01*
X28898379Y-17285329D01*
X28864216Y-17367806D01*
X28846800Y-17455364D01*
X12602110Y-17455364D01*
X12602009Y-17377343D01*
X12612200Y-17273413D01*
X12640250Y-17180504D01*
X12685811Y-17094815D01*
X12747151Y-17019606D01*
X12821930Y-16957743D01*
X12907301Y-16911584D01*
X13000010Y-16882885D01*
X13103577Y-16872000D01*
X31508562Y-16872000D01*
X31612587Y-16882200D01*
G36*
X28073000Y-22473000D02*
G01*
X26727000Y-22473000D01*
X26727000Y-21511789D01*
X27011789Y-21227000D01*
X28073000Y-21227000D01*
X28073000Y-22473000D01*
G37*
X28073000Y-22473000D02*
X26727000Y-22473000D01*
X26727000Y-21511789D01*
X27011789Y-21227000D01*
X28073000Y-21227000D01*
X28073000Y-22473000D01*
G36*
X45188529Y-18293638D02*
G01*
X45206151Y-18355315D01*
X45223728Y-18425622D01*
X45223729Y-18425626D01*
X45243059Y-18502943D01*
X45250361Y-18568662D01*
X45250304Y-18569408D01*
X45252005Y-18583457D01*
X45252754Y-18590202D01*
X45252910Y-18590939D01*
X45253001Y-18591689D01*
X45254472Y-18598308D01*
X45257407Y-18612157D01*
X45257703Y-18612847D01*
X45273436Y-18683643D01*
X45273729Y-18685626D01*
X45275056Y-18690936D01*
X45276239Y-18696257D01*
X45276861Y-18698155D01*
X45294661Y-18769354D01*
X45312805Y-18860073D01*
X45313001Y-18861689D01*
X45314277Y-18867429D01*
X45315416Y-18873126D01*
X45315885Y-18874666D01*
X45332655Y-18950130D01*
X45341993Y-19043505D01*
X45342489Y-19048492D01*
X45342494Y-19048515D01*
X45342497Y-19048549D01*
X45343891Y-19055502D01*
X45362489Y-19148490D01*
X45362489Y-19148492D01*
X45382493Y-19248513D01*
X45391622Y-19339804D01*
X45392117Y-19345848D01*
X45392361Y-19347191D01*
X45392497Y-19348549D01*
X45393690Y-19354500D01*
X45412361Y-19457187D01*
X45421622Y-19549804D01*
X45422117Y-19555848D01*
X45422361Y-19557191D01*
X45422497Y-19558549D01*
X45423690Y-19564500D01*
X45442238Y-19666514D01*
X45451579Y-19769257D01*
X45461554Y-19888964D01*
X45462117Y-19895848D01*
X45462136Y-19895954D01*
X45462145Y-19896059D01*
X45463405Y-19902930D01*
X45482137Y-20005954D01*
X45492145Y-20126059D01*
X45501557Y-20239000D01*
X43165912Y-20239000D01*
X43147894Y-18268000D01*
X45178915Y-18268000D01*
X45188529Y-18293638D01*
G37*
X45188529Y-18293638D02*
X45206151Y-18355315D01*
X45223728Y-18425622D01*
X45223729Y-18425626D01*
X45243059Y-18502943D01*
X45250361Y-18568662D01*
X45250304Y-18569408D01*
X45252005Y-18583457D01*
X45252754Y-18590202D01*
X45252910Y-18590939D01*
X45253001Y-18591689D01*
X45254472Y-18598308D01*
X45257407Y-18612157D01*
X45257703Y-18612847D01*
X45273436Y-18683643D01*
X45273729Y-18685626D01*
X45275056Y-18690936D01*
X45276239Y-18696257D01*
X45276861Y-18698155D01*
X45294661Y-18769354D01*
X45312805Y-18860073D01*
X45313001Y-18861689D01*
X45314277Y-18867429D01*
X45315416Y-18873126D01*
X45315885Y-18874666D01*
X45332655Y-18950130D01*
X45341993Y-19043505D01*
X45342489Y-19048492D01*
X45342494Y-19048515D01*
X45342497Y-19048549D01*
X45343891Y-19055502D01*
X45362489Y-19148490D01*
X45362489Y-19148492D01*
X45382493Y-19248513D01*
X45391622Y-19339804D01*
X45392117Y-19345848D01*
X45392361Y-19347191D01*
X45392497Y-19348549D01*
X45393690Y-19354500D01*
X45412361Y-19457187D01*
X45421622Y-19549804D01*
X45422117Y-19555848D01*
X45422361Y-19557191D01*
X45422497Y-19558549D01*
X45423690Y-19564500D01*
X45442238Y-19666514D01*
X45451579Y-19769257D01*
X45461554Y-19888964D01*
X45462117Y-19895848D01*
X45462136Y-19895954D01*
X45462145Y-19896059D01*
X45463405Y-19902930D01*
X45482137Y-20005954D01*
X45492145Y-20126059D01*
X45501557Y-20239000D01*
X43165912Y-20239000D01*
X43147894Y-18268000D01*
X45178915Y-18268000D01*
X45188529Y-18293638D01*
G36*
X45540913Y-20720698D02*
G01*
X45540906Y-20721186D01*
X45541490Y-20728195D01*
X45542021Y-20735097D01*
X45542105Y-20735570D01*
X45551490Y-20848199D01*
X45560913Y-20970698D01*
X45560906Y-20971186D01*
X45561490Y-20978195D01*
X45562021Y-20985097D01*
X45562105Y-20985570D01*
X45571490Y-21098199D01*
X45581000Y-21221824D01*
X45581000Y-21344421D01*
X45580876Y-21350217D01*
X45581000Y-21351829D01*
X45581000Y-21353461D01*
X45581573Y-21359280D01*
X45590876Y-21480213D01*
X45590876Y-21480217D01*
X45601000Y-21611824D01*
X45601000Y-21744421D01*
X45600876Y-21750217D01*
X45601000Y-21751829D01*
X45601000Y-21753461D01*
X45601573Y-21759280D01*
X45611000Y-21881824D01*
X45611000Y-22144421D01*
X45610876Y-22150217D01*
X45611000Y-22151829D01*
X45611000Y-22153461D01*
X45611573Y-22159280D01*
X45621000Y-22281824D01*
X45621000Y-22439000D01*
X45205000Y-22439000D01*
X45205000Y-21959523D01*
X45204955Y-21959070D01*
X45204939Y-21956709D01*
X45204312Y-21950742D01*
X45204312Y-21944742D01*
X45204119Y-21942909D01*
X45191066Y-21826539D01*
X45188581Y-21814846D01*
X45186255Y-21803101D01*
X45185710Y-21801340D01*
X45150302Y-21689721D01*
X45145575Y-21678693D01*
X45141030Y-21667665D01*
X45140153Y-21666043D01*
X45083741Y-21563429D01*
X45076967Y-21553536D01*
X45070361Y-21543593D01*
X45069190Y-21542178D01*
X45069186Y-21542172D01*
X45069181Y-21542167D01*
X44993916Y-21452468D01*
X44985367Y-21444096D01*
X44976938Y-21435608D01*
X44975509Y-21434443D01*
X44884250Y-21361068D01*
X44874216Y-21354502D01*
X44864320Y-21347827D01*
X44862697Y-21346965D01*
X44862693Y-21346962D01*
X44862689Y-21346960D01*
X44758918Y-21292711D01*
X44747813Y-21288224D01*
X44736797Y-21283593D01*
X44735033Y-21283060D01*
X44622698Y-21249999D01*
X44610937Y-21247755D01*
X44599227Y-21245351D01*
X44597392Y-21245171D01*
X44480774Y-21234558D01*
X44468777Y-21234642D01*
X44456847Y-21234558D01*
X44455013Y-21234738D01*
X44338555Y-21246978D01*
X44326781Y-21249395D01*
X44315084Y-21251626D01*
X44313320Y-21252158D01*
X44201458Y-21286785D01*
X44190385Y-21291439D01*
X44179337Y-21295903D01*
X44177709Y-21296768D01*
X44074702Y-21352463D01*
X44064757Y-21359171D01*
X44054772Y-21365705D01*
X44053344Y-21366870D01*
X43963118Y-21441512D01*
X43954692Y-21449997D01*
X43946140Y-21458371D01*
X43944965Y-21459791D01*
X43870955Y-21550537D01*
X43864348Y-21560481D01*
X43857575Y-21570373D01*
X43856698Y-21571995D01*
X43801723Y-21675388D01*
X43797160Y-21686458D01*
X43792451Y-21697445D01*
X43791906Y-21699206D01*
X43758061Y-21811307D01*
X43755735Y-21823052D01*
X43753250Y-21834745D01*
X43753057Y-21836578D01*
X43752185Y-21845476D01*
X43681561Y-21853398D01*
X43669836Y-21855890D01*
X43658123Y-21858209D01*
X43656362Y-21858754D01*
X43498237Y-21908914D01*
X43487247Y-21913624D01*
X43476179Y-21918186D01*
X43474562Y-21919060D01*
X43474558Y-21919062D01*
X43474557Y-21919063D01*
X43329186Y-21998982D01*
X43319325Y-22005734D01*
X43309351Y-22012361D01*
X43307931Y-22013536D01*
X43180850Y-22120168D01*
X43172478Y-22128717D01*
X43163990Y-22137146D01*
X43162826Y-22138574D01*
X43150000Y-22154526D01*
X43150000Y-20693000D01*
X45538782Y-20693000D01*
X45540913Y-20720698D01*
G37*
X45540913Y-20720698D02*
X45540906Y-20721186D01*
X45541490Y-20728195D01*
X45542021Y-20735097D01*
X45542105Y-20735570D01*
X45551490Y-20848199D01*
X45560913Y-20970698D01*
X45560906Y-20971186D01*
X45561490Y-20978195D01*
X45562021Y-20985097D01*
X45562105Y-20985570D01*
X45571490Y-21098199D01*
X45581000Y-21221824D01*
X45581000Y-21344421D01*
X45580876Y-21350217D01*
X45581000Y-21351829D01*
X45581000Y-21353461D01*
X45581573Y-21359280D01*
X45590876Y-21480213D01*
X45590876Y-21480217D01*
X45601000Y-21611824D01*
X45601000Y-21744421D01*
X45600876Y-21750217D01*
X45601000Y-21751829D01*
X45601000Y-21753461D01*
X45601573Y-21759280D01*
X45611000Y-21881824D01*
X45611000Y-22144421D01*
X45610876Y-22150217D01*
X45611000Y-22151829D01*
X45611000Y-22153461D01*
X45611573Y-22159280D01*
X45621000Y-22281824D01*
X45621000Y-22439000D01*
X45205000Y-22439000D01*
X45205000Y-21959523D01*
X45204955Y-21959070D01*
X45204939Y-21956709D01*
X45204312Y-21950742D01*
X45204312Y-21944742D01*
X45204119Y-21942909D01*
X45191066Y-21826539D01*
X45188581Y-21814846D01*
X45186255Y-21803101D01*
X45185710Y-21801340D01*
X45150302Y-21689721D01*
X45145575Y-21678693D01*
X45141030Y-21667665D01*
X45140153Y-21666043D01*
X45083741Y-21563429D01*
X45076967Y-21553536D01*
X45070361Y-21543593D01*
X45069190Y-21542178D01*
X45069186Y-21542172D01*
X45069181Y-21542167D01*
X44993916Y-21452468D01*
X44985367Y-21444096D01*
X44976938Y-21435608D01*
X44975509Y-21434443D01*
X44884250Y-21361068D01*
X44874216Y-21354502D01*
X44864320Y-21347827D01*
X44862697Y-21346965D01*
X44862693Y-21346962D01*
X44862689Y-21346960D01*
X44758918Y-21292711D01*
X44747813Y-21288224D01*
X44736797Y-21283593D01*
X44735033Y-21283060D01*
X44622698Y-21249999D01*
X44610937Y-21247755D01*
X44599227Y-21245351D01*
X44597392Y-21245171D01*
X44480774Y-21234558D01*
X44468777Y-21234642D01*
X44456847Y-21234558D01*
X44455013Y-21234738D01*
X44338555Y-21246978D01*
X44326781Y-21249395D01*
X44315084Y-21251626D01*
X44313320Y-21252158D01*
X44201458Y-21286785D01*
X44190385Y-21291439D01*
X44179337Y-21295903D01*
X44177709Y-21296768D01*
X44074702Y-21352463D01*
X44064757Y-21359171D01*
X44054772Y-21365705D01*
X44053344Y-21366870D01*
X43963118Y-21441512D01*
X43954692Y-21449997D01*
X43946140Y-21458371D01*
X43944965Y-21459791D01*
X43870955Y-21550537D01*
X43864348Y-21560481D01*
X43857575Y-21570373D01*
X43856698Y-21571995D01*
X43801723Y-21675388D01*
X43797160Y-21686458D01*
X43792451Y-21697445D01*
X43791906Y-21699206D01*
X43758061Y-21811307D01*
X43755735Y-21823052D01*
X43753250Y-21834745D01*
X43753057Y-21836578D01*
X43752185Y-21845476D01*
X43681561Y-21853398D01*
X43669836Y-21855890D01*
X43658123Y-21858209D01*
X43656362Y-21858754D01*
X43498237Y-21908914D01*
X43487247Y-21913624D01*
X43476179Y-21918186D01*
X43474562Y-21919060D01*
X43474558Y-21919062D01*
X43474557Y-21919063D01*
X43329186Y-21998982D01*
X43319325Y-22005734D01*
X43309351Y-22012361D01*
X43307931Y-22013536D01*
X43180850Y-22120168D01*
X43172478Y-22128717D01*
X43163990Y-22137146D01*
X43162826Y-22138574D01*
X43150000Y-22154526D01*
X43150000Y-20693000D01*
X45538782Y-20693000D01*
X45540913Y-20720698D01*
G36*
X45621000Y-23350176D02*
G01*
X45611574Y-23472715D01*
X45611000Y-23478538D01*
X45611000Y-23480171D01*
X45610876Y-23481783D01*
X45611000Y-23487579D01*
X45611000Y-23750176D01*
X45601574Y-23872715D01*
X45601000Y-23878538D01*
X45601000Y-23880171D01*
X45600876Y-23881783D01*
X45601000Y-23887579D01*
X45601000Y-24020176D01*
X45590876Y-24151783D01*
X45581574Y-24272715D01*
X45581000Y-24278538D01*
X45581000Y-24280171D01*
X45580876Y-24281783D01*
X45581000Y-24287579D01*
X45581000Y-24410176D01*
X45571490Y-24533801D01*
X45562105Y-24646430D01*
X45562021Y-24646903D01*
X45561490Y-24653805D01*
X45560906Y-24660814D01*
X45560913Y-24661302D01*
X45551490Y-24783801D01*
X45542105Y-24896430D01*
X45542021Y-24896903D01*
X45541490Y-24903805D01*
X45540906Y-24910814D01*
X45540913Y-24911302D01*
X45538782Y-24939000D01*
X43150000Y-24939000D01*
X43150000Y-23476255D01*
X43172353Y-23503275D01*
X43180874Y-23511737D01*
X43189213Y-23520253D01*
X43190633Y-23521428D01*
X43319189Y-23626276D01*
X43329193Y-23632922D01*
X43339026Y-23639655D01*
X43340647Y-23640532D01*
X43487120Y-23718413D01*
X43498190Y-23722976D01*
X43509177Y-23727685D01*
X43510938Y-23728230D01*
X43669748Y-23776178D01*
X43681508Y-23778506D01*
X43693187Y-23780989D01*
X43695020Y-23781182D01*
X43752847Y-23786852D01*
X43754934Y-23805461D01*
X43757423Y-23817173D01*
X43759745Y-23828900D01*
X43760290Y-23830661D01*
X43795698Y-23942279D01*
X43800423Y-23953303D01*
X43804970Y-23964335D01*
X43805846Y-23965956D01*
X43862259Y-24068571D01*
X43869033Y-24078464D01*
X43875639Y-24088407D01*
X43876814Y-24089828D01*
X43952084Y-24179532D01*
X43960633Y-24187904D01*
X43969062Y-24196392D01*
X43970490Y-24197557D01*
X44061750Y-24270931D01*
X44071758Y-24277480D01*
X44081680Y-24284173D01*
X44083303Y-24285035D01*
X44083307Y-24285038D01*
X44083311Y-24285040D01*
X44187081Y-24339289D01*
X44198200Y-24343781D01*
X44209203Y-24348407D01*
X44210961Y-24348937D01*
X44210968Y-24348940D01*
X44210975Y-24348941D01*
X44323302Y-24382001D01*
X44335069Y-24384246D01*
X44346773Y-24386649D01*
X44348606Y-24386829D01*
X44348608Y-24386829D01*
X44465226Y-24397442D01*
X44477222Y-24397358D01*
X44489152Y-24397442D01*
X44490987Y-24397262D01*
X44607444Y-24385022D01*
X44619205Y-24382608D01*
X44630916Y-24380374D01*
X44632680Y-24379842D01*
X44744543Y-24345215D01*
X44755629Y-24340555D01*
X44766663Y-24336097D01*
X44768287Y-24335234D01*
X44768292Y-24335232D01*
X44768296Y-24335229D01*
X44871298Y-24279537D01*
X44881259Y-24272818D01*
X44891228Y-24266295D01*
X44892649Y-24265136D01*
X44892656Y-24265131D01*
X44892662Y-24265125D01*
X44982882Y-24190488D01*
X44991308Y-24182003D01*
X44999860Y-24173629D01*
X45001034Y-24172209D01*
X45075045Y-24081463D01*
X45081685Y-24071470D01*
X45088425Y-24061626D01*
X45089299Y-24060010D01*
X45089302Y-24060006D01*
X45089304Y-24060002D01*
X45144277Y-23956612D01*
X45148846Y-23945528D01*
X45153549Y-23934554D01*
X45154094Y-23932794D01*
X45187939Y-23820693D01*
X45190265Y-23808948D01*
X45192750Y-23797255D01*
X45192943Y-23795422D01*
X45204370Y-23678881D01*
X45204370Y-23678872D01*
X45205000Y-23672477D01*
X45205000Y-23193000D01*
X45621000Y-23193000D01*
X45621000Y-23350176D01*
G37*
X45621000Y-23350176D02*
X45611574Y-23472715D01*
X45611000Y-23478538D01*
X45611000Y-23480171D01*
X45610876Y-23481783D01*
X45611000Y-23487579D01*
X45611000Y-23750176D01*
X45601574Y-23872715D01*
X45601000Y-23878538D01*
X45601000Y-23880171D01*
X45600876Y-23881783D01*
X45601000Y-23887579D01*
X45601000Y-24020176D01*
X45590876Y-24151783D01*
X45581574Y-24272715D01*
X45581000Y-24278538D01*
X45581000Y-24280171D01*
X45580876Y-24281783D01*
X45581000Y-24287579D01*
X45581000Y-24410176D01*
X45571490Y-24533801D01*
X45562105Y-24646430D01*
X45562021Y-24646903D01*
X45561490Y-24653805D01*
X45560906Y-24660814D01*
X45560913Y-24661302D01*
X45551490Y-24783801D01*
X45542105Y-24896430D01*
X45542021Y-24896903D01*
X45541490Y-24903805D01*
X45540906Y-24910814D01*
X45540913Y-24911302D01*
X45538782Y-24939000D01*
X43150000Y-24939000D01*
X43150000Y-23476255D01*
X43172353Y-23503275D01*
X43180874Y-23511737D01*
X43189213Y-23520253D01*
X43190633Y-23521428D01*
X43319189Y-23626276D01*
X43329193Y-23632922D01*
X43339026Y-23639655D01*
X43340647Y-23640532D01*
X43487120Y-23718413D01*
X43498190Y-23722976D01*
X43509177Y-23727685D01*
X43510938Y-23728230D01*
X43669748Y-23776178D01*
X43681508Y-23778506D01*
X43693187Y-23780989D01*
X43695020Y-23781182D01*
X43752847Y-23786852D01*
X43754934Y-23805461D01*
X43757423Y-23817173D01*
X43759745Y-23828900D01*
X43760290Y-23830661D01*
X43795698Y-23942279D01*
X43800423Y-23953303D01*
X43804970Y-23964335D01*
X43805846Y-23965956D01*
X43862259Y-24068571D01*
X43869033Y-24078464D01*
X43875639Y-24088407D01*
X43876814Y-24089828D01*
X43952084Y-24179532D01*
X43960633Y-24187904D01*
X43969062Y-24196392D01*
X43970490Y-24197557D01*
X44061750Y-24270931D01*
X44071758Y-24277480D01*
X44081680Y-24284173D01*
X44083303Y-24285035D01*
X44083307Y-24285038D01*
X44083311Y-24285040D01*
X44187081Y-24339289D01*
X44198200Y-24343781D01*
X44209203Y-24348407D01*
X44210961Y-24348937D01*
X44210968Y-24348940D01*
X44210975Y-24348941D01*
X44323302Y-24382001D01*
X44335069Y-24384246D01*
X44346773Y-24386649D01*
X44348606Y-24386829D01*
X44348608Y-24386829D01*
X44465226Y-24397442D01*
X44477222Y-24397358D01*
X44489152Y-24397442D01*
X44490987Y-24397262D01*
X44607444Y-24385022D01*
X44619205Y-24382608D01*
X44630916Y-24380374D01*
X44632680Y-24379842D01*
X44744543Y-24345215D01*
X44755629Y-24340555D01*
X44766663Y-24336097D01*
X44768287Y-24335234D01*
X44768292Y-24335232D01*
X44768296Y-24335229D01*
X44871298Y-24279537D01*
X44881259Y-24272818D01*
X44891228Y-24266295D01*
X44892649Y-24265136D01*
X44892656Y-24265131D01*
X44892662Y-24265125D01*
X44982882Y-24190488D01*
X44991308Y-24182003D01*
X44999860Y-24173629D01*
X45001034Y-24172209D01*
X45075045Y-24081463D01*
X45081685Y-24071470D01*
X45088425Y-24061626D01*
X45089299Y-24060010D01*
X45089302Y-24060006D01*
X45089304Y-24060002D01*
X45144277Y-23956612D01*
X45148846Y-23945528D01*
X45153549Y-23934554D01*
X45154094Y-23932794D01*
X45187939Y-23820693D01*
X45190265Y-23808948D01*
X45192750Y-23797255D01*
X45192943Y-23795422D01*
X45204370Y-23678881D01*
X45204370Y-23678872D01*
X45205000Y-23672477D01*
X45205000Y-23193000D01*
X45621000Y-23193000D01*
X45621000Y-23350176D01*
G36*
X45492146Y-25505937D02*
G01*
X45492145Y-25505941D01*
X45482137Y-25626046D01*
X45463405Y-25729070D01*
X45462145Y-25735941D01*
X45462136Y-25736046D01*
X45462117Y-25736152D01*
X45461554Y-25743036D01*
X45451579Y-25862743D01*
X45442238Y-25965486D01*
X45423690Y-26067500D01*
X45422497Y-26073451D01*
X45422361Y-26074809D01*
X45422117Y-26076152D01*
X45421622Y-26082196D01*
X45412361Y-26174813D01*
X45393690Y-26277500D01*
X45392497Y-26283451D01*
X45392361Y-26284809D01*
X45392117Y-26286152D01*
X45391622Y-26292196D01*
X45382493Y-26383487D01*
X45363631Y-26477797D01*
X45343891Y-26576498D01*
X45342497Y-26583451D01*
X45342494Y-26583485D01*
X45342489Y-26583508D01*
X45342128Y-26587138D01*
X45332655Y-26681870D01*
X45315885Y-26757334D01*
X45315416Y-26758874D01*
X45314277Y-26764571D01*
X45313001Y-26770311D01*
X45312805Y-26771927D01*
X45294661Y-26862646D01*
X45276861Y-26933845D01*
X45276239Y-26935743D01*
X45275056Y-26941064D01*
X45273729Y-26946374D01*
X45273436Y-26948357D01*
X45257703Y-27019153D01*
X45257407Y-27019843D01*
X45254472Y-27033692D01*
X45253001Y-27040311D01*
X45252910Y-27041061D01*
X45252754Y-27041798D01*
X45252005Y-27048543D01*
X45250304Y-27062592D01*
X45250361Y-27063338D01*
X45243059Y-27129057D01*
X45224359Y-27203855D01*
X45206151Y-27276685D01*
X45188529Y-27338362D01*
X45178915Y-27364000D01*
X44385079Y-27364000D01*
X44381571Y-27332728D01*
X44378695Y-27319197D01*
X44376030Y-27305738D01*
X44375403Y-27303710D01*
X44328193Y-27154886D01*
X44322762Y-27142215D01*
X44317516Y-27129486D01*
X44316507Y-27127619D01*
X44241290Y-26990800D01*
X44233488Y-26979406D01*
X44225882Y-26967957D01*
X44224530Y-26966322D01*
X44124170Y-26846718D01*
X44114293Y-26837046D01*
X44104619Y-26827304D01*
X44102974Y-26825962D01*
X43981295Y-26728130D01*
X43969775Y-26720592D01*
X43958345Y-26712882D01*
X43956472Y-26711886D01*
X43818106Y-26639550D01*
X43805325Y-26634386D01*
X43792633Y-26629051D01*
X43790602Y-26628438D01*
X43790600Y-26628437D01*
X43790596Y-26628436D01*
X43640821Y-26584354D01*
X43627284Y-26581772D01*
X43613794Y-26579003D01*
X43611682Y-26578796D01*
X43456191Y-26564645D01*
X43442415Y-26564741D01*
X43428638Y-26564645D01*
X43426526Y-26564852D01*
X43271249Y-26581173D01*
X43257753Y-26583943D01*
X43244222Y-26586524D01*
X43242195Y-26587137D01*
X43242189Y-26587138D01*
X43242183Y-26587140D01*
X43093041Y-26633307D01*
X43080295Y-26638664D01*
X43075000Y-26640804D01*
X43075000Y-25468000D01*
X45495307Y-25468000D01*
X45492146Y-25505937D01*
G37*
X45492146Y-25505937D02*
X45492145Y-25505941D01*
X45482137Y-25626046D01*
X45463405Y-25729070D01*
X45462145Y-25735941D01*
X45462136Y-25736046D01*
X45462117Y-25736152D01*
X45461554Y-25743036D01*
X45451579Y-25862743D01*
X45442238Y-25965486D01*
X45423690Y-26067500D01*
X45422497Y-26073451D01*
X45422361Y-26074809D01*
X45422117Y-26076152D01*
X45421622Y-26082196D01*
X45412361Y-26174813D01*
X45393690Y-26277500D01*
X45392497Y-26283451D01*
X45392361Y-26284809D01*
X45392117Y-26286152D01*
X45391622Y-26292196D01*
X45382493Y-26383487D01*
X45363631Y-26477797D01*
X45343891Y-26576498D01*
X45342497Y-26583451D01*
X45342494Y-26583485D01*
X45342489Y-26583508D01*
X45342128Y-26587138D01*
X45332655Y-26681870D01*
X45315885Y-26757334D01*
X45315416Y-26758874D01*
X45314277Y-26764571D01*
X45313001Y-26770311D01*
X45312805Y-26771927D01*
X45294661Y-26862646D01*
X45276861Y-26933845D01*
X45276239Y-26935743D01*
X45275056Y-26941064D01*
X45273729Y-26946374D01*
X45273436Y-26948357D01*
X45257703Y-27019153D01*
X45257407Y-27019843D01*
X45254472Y-27033692D01*
X45253001Y-27040311D01*
X45252910Y-27041061D01*
X45252754Y-27041798D01*
X45252005Y-27048543D01*
X45250304Y-27062592D01*
X45250361Y-27063338D01*
X45243059Y-27129057D01*
X45224359Y-27203855D01*
X45206151Y-27276685D01*
X45188529Y-27338362D01*
X45178915Y-27364000D01*
X44385079Y-27364000D01*
X44381571Y-27332728D01*
X44378695Y-27319197D01*
X44376030Y-27305738D01*
X44375403Y-27303710D01*
X44328193Y-27154886D01*
X44322762Y-27142215D01*
X44317516Y-27129486D01*
X44316507Y-27127619D01*
X44241290Y-26990800D01*
X44233488Y-26979406D01*
X44225882Y-26967957D01*
X44224530Y-26966322D01*
X44124170Y-26846718D01*
X44114293Y-26837046D01*
X44104619Y-26827304D01*
X44102974Y-26825962D01*
X43981295Y-26728130D01*
X43969775Y-26720592D01*
X43958345Y-26712882D01*
X43956472Y-26711886D01*
X43818106Y-26639550D01*
X43805325Y-26634386D01*
X43792633Y-26629051D01*
X43790602Y-26628438D01*
X43790600Y-26628437D01*
X43790596Y-26628436D01*
X43640821Y-26584354D01*
X43627284Y-26581772D01*
X43613794Y-26579003D01*
X43611682Y-26578796D01*
X43456191Y-26564645D01*
X43442415Y-26564741D01*
X43428638Y-26564645D01*
X43426526Y-26564852D01*
X43271249Y-26581173D01*
X43257753Y-26583943D01*
X43244222Y-26586524D01*
X43242195Y-26587137D01*
X43242189Y-26587138D01*
X43242183Y-26587140D01*
X43093041Y-26633307D01*
X43080295Y-26638664D01*
X43075000Y-26640804D01*
X43075000Y-25468000D01*
X45495307Y-25468000D01*
X45492146Y-25505937D01*
G36*
X35223000Y-26223000D02*
G01*
X34327000Y-26223000D01*
X34327000Y-25577000D01*
X35223000Y-25577000D01*
X35223000Y-26223000D01*
G37*
X35223000Y-26223000D02*
X34327000Y-26223000D01*
X34327000Y-25577000D01*
X35223000Y-25577000D01*
X35223000Y-26223000D01*
G36*
X37214803Y-24790567D02*
G01*
X36588412Y-24372973D01*
X37953623Y-24148115D01*
X37214803Y-24790567D01*
G37*
X37214803Y-24790567D02*
X36588412Y-24372973D01*
X37953623Y-24148115D01*
X37214803Y-24790567D01*
M02*
