G04 #@! TF.GenerationSoftware,KiCad,Pcbnew,(5.1.6)-1*
G04 #@! TF.CreationDate,2020-12-05T12:50:12+08:00*
G04 #@! TF.ProjectId,qomu-board,716f6d75-2d62-46f6-9172-642e6b696361,rev?*
G04 #@! TF.SameCoordinates,Original*
G04 #@! TF.FileFunction,Copper,L4,Bot*
G04 #@! TF.FilePolarity,Positive*
%FSLAX46Y46*%
G04 Gerber Fmt 4.6, Leading zero omitted, Abs format (unit mm)*
G04 Created by KiCad (PCBNEW (5.1.6)-1) date 2020-12-05 12:50:12*
%MOMM*%
%LPD*%
G01*
G04 APERTURE LIST*
G04 #@! TA.AperFunction,SMDPad,CuDef*
%ADD10C,0.100000*%
G04 #@! TD*
G04 #@! TA.AperFunction,Conductor*
%ADD11C,0.100000*%
G04 #@! TD*
G04 #@! TA.AperFunction,SMDPad,CuDef*
%ADD12O,0.600000X0.750000*%
G04 #@! TD*
G04 #@! TA.AperFunction,SMDPad,CuDef*
%ADD13R,0.700000X0.900000*%
G04 #@! TD*
G04 #@! TA.AperFunction,SMDPad,CuDef*
%ADD14R,0.740000X2.790000*%
G04 #@! TD*
G04 #@! TA.AperFunction,SMDPad,CuDef*
%ADD15R,0.400000X0.400000*%
G04 #@! TD*
G04 #@! TA.AperFunction,ComponentPad*
%ADD16R,1.250000X1.500000*%
G04 #@! TD*
G04 #@! TA.AperFunction,ComponentPad*
%ADD17O,1.250000X1.500000*%
G04 #@! TD*
G04 #@! TA.AperFunction,ComponentPad*
%ADD18O,1.700000X0.900000*%
G04 #@! TD*
G04 #@! TA.AperFunction,ComponentPad*
%ADD19O,2.400000X0.900000*%
G04 #@! TD*
G04 #@! TA.AperFunction,ComponentPad*
%ADD20C,0.650000*%
G04 #@! TD*
G04 #@! TA.AperFunction,SMDPad,CuDef*
%ADD21R,0.270000X0.180000*%
G04 #@! TD*
G04 #@! TA.AperFunction,SMDPad,CuDef*
%ADD22R,0.270000X0.520000*%
G04 #@! TD*
G04 #@! TA.AperFunction,SMDPad,CuDef*
%ADD23R,0.180000X0.270000*%
G04 #@! TD*
G04 #@! TA.AperFunction,SMDPad,CuDef*
%ADD24R,0.520000X0.270000*%
G04 #@! TD*
G04 #@! TA.AperFunction,SMDPad,CuDef*
%ADD25R,1.140000X0.575000*%
G04 #@! TD*
G04 #@! TA.AperFunction,ComponentPad*
%ADD26C,1.100000*%
G04 #@! TD*
G04 #@! TA.AperFunction,SMDPad,CuDef*
%ADD27R,0.700000X1.500000*%
G04 #@! TD*
G04 #@! TA.AperFunction,ComponentPad*
%ADD28C,1.200000*%
G04 #@! TD*
G04 #@! TA.AperFunction,SMDPad,CuDef*
%ADD29R,1.000000X0.800000*%
G04 #@! TD*
G04 #@! TA.AperFunction,SMDPad,CuDef*
%ADD30R,0.150000X0.900000*%
G04 #@! TD*
G04 #@! TA.AperFunction,SMDPad,CuDef*
%ADD31R,0.670000X0.300000*%
G04 #@! TD*
G04 #@! TA.AperFunction,SMDPad,CuDef*
%ADD32O,0.750000X0.600000*%
G04 #@! TD*
G04 #@! TA.AperFunction,SMDPad,CuDef*
%ADD33C,0.211000*%
G04 #@! TD*
G04 #@! TA.AperFunction,SMDPad,CuDef*
%ADD34C,1.000000*%
G04 #@! TD*
G04 #@! TA.AperFunction,SMDPad,CuDef*
%ADD35R,0.800000X0.800000*%
G04 #@! TD*
G04 #@! TA.AperFunction,SMDPad,CuDef*
%ADD36C,0.100000*%
G04 #@! TD*
G04 #@! TA.AperFunction,ViaPad*
%ADD37C,0.250000*%
G04 #@! TD*
G04 #@! TA.AperFunction,Conductor*
%ADD38C,0.200000*%
G04 #@! TD*
G04 #@! TA.AperFunction,Conductor*
%ADD39C,0.400000*%
G04 #@! TD*
G04 #@! TA.AperFunction,Conductor*
%ADD40C,0.150000*%
G04 #@! TD*
G04 #@! TA.AperFunction,Conductor*
%ADD41C,0.254000*%
G04 #@! TD*
G04 APERTURE END LIST*
G04 #@! TA.AperFunction,SMDPad,CuDef*
D10*
G36*
X39939878Y-25406000D02*
G01*
X40350000Y-24995878D01*
X40760122Y-25406000D01*
X40350000Y-25816122D01*
X39939878Y-25406000D01*
G37*
G04 #@! TD.AperFunction*
G04 #@! TA.AperFunction,Conductor*
D11*
G36*
X40150000Y-25026711D02*
G01*
X39940711Y-25236000D01*
X39690000Y-25236000D01*
X39690000Y-24926000D01*
X40150000Y-24926000D01*
X40150000Y-25026711D01*
G37*
G04 #@! TD.AperFunction*
G04 #@! TA.AperFunction,Conductor*
G36*
X41010000Y-25236000D02*
G01*
X40759289Y-25236000D01*
X40550000Y-25026711D01*
X40550000Y-24926000D01*
X41010000Y-24926000D01*
X41010000Y-25236000D01*
G37*
G04 #@! TD.AperFunction*
G04 #@! TA.AperFunction,Conductor*
G36*
X41010000Y-25886000D02*
G01*
X40550000Y-25886000D01*
X40550000Y-25785289D01*
X40759289Y-25576000D01*
X41010000Y-25576000D01*
X41010000Y-25886000D01*
G37*
G04 #@! TD.AperFunction*
G04 #@! TA.AperFunction,Conductor*
G36*
X40150000Y-25785289D02*
G01*
X40150000Y-25886000D01*
X39690000Y-25886000D01*
X39690000Y-25576000D01*
X39940711Y-25576000D01*
X40150000Y-25785289D01*
G37*
G04 #@! TD.AperFunction*
G04 #@! TA.AperFunction,SMDPad,CuDef*
D10*
G36*
X35940122Y-26050000D02*
G01*
X35530000Y-26460122D01*
X35119878Y-26050000D01*
X35530000Y-25639878D01*
X35940122Y-26050000D01*
G37*
G04 #@! TD.AperFunction*
G04 #@! TA.AperFunction,Conductor*
D11*
G36*
X35730000Y-26429289D02*
G01*
X35939289Y-26220000D01*
X36190000Y-26220000D01*
X36190000Y-26530000D01*
X35730000Y-26530000D01*
X35730000Y-26429289D01*
G37*
G04 #@! TD.AperFunction*
G04 #@! TA.AperFunction,Conductor*
G36*
X34870000Y-26220000D02*
G01*
X35120711Y-26220000D01*
X35330000Y-26429289D01*
X35330000Y-26530000D01*
X34870000Y-26530000D01*
X34870000Y-26220000D01*
G37*
G04 #@! TD.AperFunction*
G04 #@! TA.AperFunction,Conductor*
G36*
X34870000Y-25570000D02*
G01*
X35330000Y-25570000D01*
X35330000Y-25670711D01*
X35120711Y-25880000D01*
X34870000Y-25880000D01*
X34870000Y-25570000D01*
G37*
G04 #@! TD.AperFunction*
G04 #@! TA.AperFunction,Conductor*
G36*
X35730000Y-25670711D02*
G01*
X35730000Y-25570000D01*
X36190000Y-25570000D01*
X36190000Y-25880000D01*
X35939289Y-25880000D01*
X35730000Y-25670711D01*
G37*
G04 #@! TD.AperFunction*
D12*
X21675000Y-19775000D03*
D13*
X40050000Y-21900000D03*
X41350000Y-21900000D03*
X40700000Y-23800000D03*
D14*
X22685000Y-18535000D03*
X22685000Y-22605000D03*
X23955000Y-18535000D03*
X23955000Y-22605000D03*
X25225000Y-18535000D03*
X25225000Y-22605000D03*
X26495000Y-18535000D03*
X26495000Y-22605000D03*
X27765000Y-18535000D03*
X27765000Y-22605000D03*
G04 #@! TA.AperFunction,SMDPad,CuDef*
G36*
G01*
X38000000Y-25570000D02*
X38000000Y-25370000D01*
G75*
G02*
X38100000Y-25270000I100000J0D01*
G01*
X38360000Y-25270000D01*
G75*
G02*
X38460000Y-25370000I0J-100000D01*
G01*
X38460000Y-25570000D01*
G75*
G02*
X38360000Y-25670000I-100000J0D01*
G01*
X38100000Y-25670000D01*
G75*
G02*
X38000000Y-25570000I0J100000D01*
G01*
G37*
G04 #@! TD.AperFunction*
G04 #@! TA.AperFunction,SMDPad,CuDef*
G36*
G01*
X38640000Y-25570000D02*
X38640000Y-25370000D01*
G75*
G02*
X38740000Y-25270000I100000J0D01*
G01*
X39000000Y-25270000D01*
G75*
G02*
X39100000Y-25370000I0J-100000D01*
G01*
X39100000Y-25570000D01*
G75*
G02*
X39000000Y-25670000I-100000J0D01*
G01*
X38740000Y-25670000D01*
G75*
G02*
X38640000Y-25570000I0J100000D01*
G01*
G37*
G04 #@! TD.AperFunction*
G04 #@! TA.AperFunction,SMDPad,CuDef*
G36*
G01*
X36600000Y-25570000D02*
X36600000Y-25370000D01*
G75*
G02*
X36700000Y-25270000I100000J0D01*
G01*
X36960000Y-25270000D01*
G75*
G02*
X37060000Y-25370000I0J-100000D01*
G01*
X37060000Y-25570000D01*
G75*
G02*
X36960000Y-25670000I-100000J0D01*
G01*
X36700000Y-25670000D01*
G75*
G02*
X36600000Y-25570000I0J100000D01*
G01*
G37*
G04 #@! TD.AperFunction*
G04 #@! TA.AperFunction,SMDPad,CuDef*
G36*
G01*
X37240000Y-25570000D02*
X37240000Y-25370000D01*
G75*
G02*
X37340000Y-25270000I100000J0D01*
G01*
X37600000Y-25270000D01*
G75*
G02*
X37700000Y-25370000I0J-100000D01*
G01*
X37700000Y-25570000D01*
G75*
G02*
X37600000Y-25670000I-100000J0D01*
G01*
X37340000Y-25670000D01*
G75*
G02*
X37240000Y-25570000I0J100000D01*
G01*
G37*
G04 #@! TD.AperFunction*
D15*
X41873000Y-19970000D03*
X41273000Y-19970000D03*
X41873000Y-20570000D03*
X41273000Y-20570000D03*
D16*
X29946000Y-27370000D03*
D17*
X29946000Y-24830000D03*
X29946000Y-22290000D03*
X29946000Y-19750000D03*
D18*
X14165000Y-26595000D03*
X14165000Y-17945000D03*
D19*
X17545000Y-26595000D03*
X17545000Y-17941000D03*
D20*
X17175000Y-23545000D03*
X17175000Y-21845000D03*
X17175000Y-24395000D03*
X17175000Y-20995000D03*
X17175000Y-22695000D03*
X17175000Y-19295000D03*
X17175000Y-20145000D03*
X17175000Y-25245000D03*
X18525000Y-20995000D03*
X18525000Y-19295000D03*
X18525000Y-20145000D03*
X18525000Y-22695000D03*
X18525000Y-21845000D03*
X18525000Y-23545000D03*
X18525000Y-24395000D03*
X18525000Y-25245000D03*
D21*
X40225000Y-18795000D03*
X40225000Y-19145000D03*
D22*
X39725000Y-18970000D03*
D23*
X42675000Y-23225000D03*
X42325000Y-23225000D03*
D24*
X42500000Y-22725000D03*
D23*
X42675000Y-24375000D03*
X42325000Y-24375000D03*
D24*
X42500000Y-23875000D03*
D25*
X34648000Y-23880000D03*
X34648000Y-24705000D03*
D26*
X20460000Y-18345000D03*
X20460000Y-19615000D03*
D27*
X22020000Y-25270000D03*
X26520000Y-25270000D03*
X23520000Y-25270000D03*
D28*
X25770000Y-27020000D03*
X22770000Y-27020000D03*
D29*
X27920000Y-28120000D03*
X27920000Y-26020000D03*
X20620000Y-26020000D03*
X20620000Y-28120000D03*
D30*
X37448000Y-20361000D03*
X37448000Y-21161000D03*
X37348000Y-20361000D03*
X37348000Y-21161000D03*
D31*
X38723000Y-21511000D03*
X38723000Y-21011000D03*
X38723000Y-20511000D03*
X38723000Y-20011000D03*
X36073000Y-20011000D03*
X36073000Y-20511000D03*
X36073000Y-21011000D03*
X36073000Y-21501000D03*
D32*
X33500000Y-27050000D03*
X40125000Y-27150800D03*
D33*
X36000000Y-24495000D03*
X36000000Y-24145000D03*
X36000000Y-23795000D03*
X36000000Y-23445000D03*
X36000000Y-23095000D03*
X36000000Y-22745000D03*
X36350000Y-24495000D03*
X36350000Y-24145000D03*
X36350000Y-23795000D03*
X36350000Y-23445000D03*
X36350000Y-23095000D03*
X36350000Y-22745000D03*
X36700000Y-24495000D03*
X36700000Y-24145000D03*
X36700000Y-23795000D03*
X36700000Y-23445000D03*
X36700000Y-23095000D03*
X36700000Y-22745000D03*
X37050000Y-24495000D03*
X37050000Y-24145000D03*
X37050000Y-23795000D03*
X37050000Y-23445000D03*
X37050000Y-23095000D03*
X37050000Y-22745000D03*
X37400000Y-24495000D03*
X37400000Y-24145000D03*
X37400000Y-23795000D03*
X37400000Y-23445000D03*
X37400000Y-23095000D03*
X37400000Y-22745000D03*
X37750000Y-24495000D03*
X37750000Y-24145000D03*
X37750000Y-23795000D03*
X37750000Y-23445000D03*
X37750000Y-23095000D03*
X37750000Y-22745000D03*
X38100000Y-24495000D03*
X38100000Y-24145000D03*
X38100000Y-23795000D03*
X38100000Y-23445000D03*
X38100000Y-23095000D03*
X38100000Y-22745000D03*
D34*
X36170000Y-18950000D03*
X33630000Y-18950000D03*
X38710000Y-18950000D03*
X41250000Y-18950000D03*
G04 #@! TA.AperFunction,SMDPad,CuDef*
G36*
G01*
X16550000Y-27900000D02*
X16550000Y-28100000D01*
G75*
G02*
X16450000Y-28200000I-100000J0D01*
G01*
X16190000Y-28200000D01*
G75*
G02*
X16090000Y-28100000I0J100000D01*
G01*
X16090000Y-27900000D01*
G75*
G02*
X16190000Y-27800000I100000J0D01*
G01*
X16450000Y-27800000D01*
G75*
G02*
X16550000Y-27900000I0J-100000D01*
G01*
G37*
G04 #@! TD.AperFunction*
G04 #@! TA.AperFunction,SMDPad,CuDef*
G36*
G01*
X15910000Y-27900000D02*
X15910000Y-28100000D01*
G75*
G02*
X15810000Y-28200000I-100000J0D01*
G01*
X15550000Y-28200000D01*
G75*
G02*
X15450000Y-28100000I0J100000D01*
G01*
X15450000Y-27900000D01*
G75*
G02*
X15550000Y-27800000I100000J0D01*
G01*
X15810000Y-27800000D01*
G75*
G02*
X15910000Y-27900000I0J-100000D01*
G01*
G37*
G04 #@! TD.AperFunction*
G04 #@! TA.AperFunction,SMDPad,CuDef*
G36*
G01*
X13250000Y-28100000D02*
X13250000Y-27900000D01*
G75*
G02*
X13350000Y-27800000I100000J0D01*
G01*
X13610000Y-27800000D01*
G75*
G02*
X13710000Y-27900000I0J-100000D01*
G01*
X13710000Y-28100000D01*
G75*
G02*
X13610000Y-28200000I-100000J0D01*
G01*
X13350000Y-28200000D01*
G75*
G02*
X13250000Y-28100000I0J100000D01*
G01*
G37*
G04 #@! TD.AperFunction*
G04 #@! TA.AperFunction,SMDPad,CuDef*
G36*
G01*
X13890000Y-28100000D02*
X13890000Y-27900000D01*
G75*
G02*
X13990000Y-27800000I100000J0D01*
G01*
X14250000Y-27800000D01*
G75*
G02*
X14350000Y-27900000I0J-100000D01*
G01*
X14350000Y-28100000D01*
G75*
G02*
X14250000Y-28200000I-100000J0D01*
G01*
X13990000Y-28200000D01*
G75*
G02*
X13890000Y-28100000I0J100000D01*
G01*
G37*
G04 #@! TD.AperFunction*
D35*
X20425000Y-24020000D03*
X20425000Y-21770000D03*
G04 #@! TA.AperFunction,SMDPad,CuDef*
G36*
G01*
X31310000Y-17240000D02*
X31310000Y-17440000D01*
G75*
G02*
X31210000Y-17540000I-100000J0D01*
G01*
X30950000Y-17540000D01*
G75*
G02*
X30850000Y-17440000I0J100000D01*
G01*
X30850000Y-17240000D01*
G75*
G02*
X30950000Y-17140000I100000J0D01*
G01*
X31210000Y-17140000D01*
G75*
G02*
X31310000Y-17240000I0J-100000D01*
G01*
G37*
G04 #@! TD.AperFunction*
G04 #@! TA.AperFunction,SMDPad,CuDef*
G36*
G01*
X30670000Y-17240000D02*
X30670000Y-17440000D01*
G75*
G02*
X30570000Y-17540000I-100000J0D01*
G01*
X30310000Y-17540000D01*
G75*
G02*
X30210000Y-17440000I0J100000D01*
G01*
X30210000Y-17240000D01*
G75*
G02*
X30310000Y-17140000I100000J0D01*
G01*
X30570000Y-17140000D01*
G75*
G02*
X30670000Y-17240000I0J-100000D01*
G01*
G37*
G04 #@! TD.AperFunction*
G04 #@! TA.AperFunction,SMDPad,CuDef*
G36*
G01*
X30210000Y-18145000D02*
X30210000Y-17945000D01*
G75*
G02*
X30310000Y-17845000I100000J0D01*
G01*
X30570000Y-17845000D01*
G75*
G02*
X30670000Y-17945000I0J-100000D01*
G01*
X30670000Y-18145000D01*
G75*
G02*
X30570000Y-18245000I-100000J0D01*
G01*
X30310000Y-18245000D01*
G75*
G02*
X30210000Y-18145000I0J100000D01*
G01*
G37*
G04 #@! TD.AperFunction*
G04 #@! TA.AperFunction,SMDPad,CuDef*
G36*
G01*
X30850000Y-18145000D02*
X30850000Y-17945000D01*
G75*
G02*
X30950000Y-17845000I100000J0D01*
G01*
X31210000Y-17845000D01*
G75*
G02*
X31310000Y-17945000I0J-100000D01*
G01*
X31310000Y-18145000D01*
G75*
G02*
X31210000Y-18245000I-100000J0D01*
G01*
X30950000Y-18245000D01*
G75*
G02*
X30850000Y-18145000I0J100000D01*
G01*
G37*
G04 #@! TD.AperFunction*
D32*
X34950000Y-27100800D03*
G04 #@! TA.AperFunction,SMDPad,CuDef*
G36*
G01*
X39100000Y-26070000D02*
X39100000Y-26270000D01*
G75*
G02*
X39000000Y-26370000I-100000J0D01*
G01*
X38740000Y-26370000D01*
G75*
G02*
X38640000Y-26270000I0J100000D01*
G01*
X38640000Y-26070000D01*
G75*
G02*
X38740000Y-25970000I100000J0D01*
G01*
X39000000Y-25970000D01*
G75*
G02*
X39100000Y-26070000I0J-100000D01*
G01*
G37*
G04 #@! TD.AperFunction*
G04 #@! TA.AperFunction,SMDPad,CuDef*
G36*
G01*
X38460000Y-26070000D02*
X38460000Y-26270000D01*
G75*
G02*
X38360000Y-26370000I-100000J0D01*
G01*
X38100000Y-26370000D01*
G75*
G02*
X38000000Y-26270000I0J100000D01*
G01*
X38000000Y-26070000D01*
G75*
G02*
X38100000Y-25970000I100000J0D01*
G01*
X38360000Y-25970000D01*
G75*
G02*
X38460000Y-26070000I0J-100000D01*
G01*
G37*
G04 #@! TD.AperFunction*
G04 #@! TA.AperFunction,SMDPad,CuDef*
G36*
G01*
X35100000Y-22170000D02*
X35100000Y-22370000D01*
G75*
G02*
X35000000Y-22470000I-100000J0D01*
G01*
X34740000Y-22470000D01*
G75*
G02*
X34640000Y-22370000I0J100000D01*
G01*
X34640000Y-22170000D01*
G75*
G02*
X34740000Y-22070000I100000J0D01*
G01*
X35000000Y-22070000D01*
G75*
G02*
X35100000Y-22170000I0J-100000D01*
G01*
G37*
G04 #@! TD.AperFunction*
G04 #@! TA.AperFunction,SMDPad,CuDef*
G36*
G01*
X34460000Y-22170000D02*
X34460000Y-22370000D01*
G75*
G02*
X34360000Y-22470000I-100000J0D01*
G01*
X34100000Y-22470000D01*
G75*
G02*
X34000000Y-22370000I0J100000D01*
G01*
X34000000Y-22170000D01*
G75*
G02*
X34100000Y-22070000I100000J0D01*
G01*
X34360000Y-22070000D01*
G75*
G02*
X34460000Y-22170000I0J-100000D01*
G01*
G37*
G04 #@! TD.AperFunction*
G04 #@! TA.AperFunction,SMDPad,CuDef*
G36*
G01*
X33550000Y-25420000D02*
X33350000Y-25420000D01*
G75*
G02*
X33250000Y-25320000I0J100000D01*
G01*
X33250000Y-25060000D01*
G75*
G02*
X33350000Y-24960000I100000J0D01*
G01*
X33550000Y-24960000D01*
G75*
G02*
X33650000Y-25060000I0J-100000D01*
G01*
X33650000Y-25320000D01*
G75*
G02*
X33550000Y-25420000I-100000J0D01*
G01*
G37*
G04 #@! TD.AperFunction*
G04 #@! TA.AperFunction,SMDPad,CuDef*
G36*
G01*
X33550000Y-24780000D02*
X33350000Y-24780000D01*
G75*
G02*
X33250000Y-24680000I0J100000D01*
G01*
X33250000Y-24420000D01*
G75*
G02*
X33350000Y-24320000I100000J0D01*
G01*
X33550000Y-24320000D01*
G75*
G02*
X33650000Y-24420000I0J-100000D01*
G01*
X33650000Y-24680000D01*
G75*
G02*
X33550000Y-24780000I-100000J0D01*
G01*
G37*
G04 #@! TD.AperFunction*
G04 #@! TA.AperFunction,SMDPad,CuDef*
G36*
G01*
X33560000Y-24020000D02*
X33360000Y-24020000D01*
G75*
G02*
X33260000Y-23920000I0J100000D01*
G01*
X33260000Y-23660000D01*
G75*
G02*
X33360000Y-23560000I100000J0D01*
G01*
X33560000Y-23560000D01*
G75*
G02*
X33660000Y-23660000I0J-100000D01*
G01*
X33660000Y-23920000D01*
G75*
G02*
X33560000Y-24020000I-100000J0D01*
G01*
G37*
G04 #@! TD.AperFunction*
G04 #@! TA.AperFunction,SMDPad,CuDef*
G36*
G01*
X33560000Y-23380000D02*
X33360000Y-23380000D01*
G75*
G02*
X33260000Y-23280000I0J100000D01*
G01*
X33260000Y-23020000D01*
G75*
G02*
X33360000Y-22920000I100000J0D01*
G01*
X33560000Y-22920000D01*
G75*
G02*
X33660000Y-23020000I0J-100000D01*
G01*
X33660000Y-23280000D01*
G75*
G02*
X33560000Y-23380000I-100000J0D01*
G01*
G37*
G04 #@! TD.AperFunction*
G04 #@! TA.AperFunction,SMDPad,CuDef*
G36*
G01*
X42650000Y-21720000D02*
X42450000Y-21720000D01*
G75*
G02*
X42350000Y-21620000I0J100000D01*
G01*
X42350000Y-21360000D01*
G75*
G02*
X42450000Y-21260000I100000J0D01*
G01*
X42650000Y-21260000D01*
G75*
G02*
X42750000Y-21360000I0J-100000D01*
G01*
X42750000Y-21620000D01*
G75*
G02*
X42650000Y-21720000I-100000J0D01*
G01*
G37*
G04 #@! TD.AperFunction*
G04 #@! TA.AperFunction,SMDPad,CuDef*
G36*
G01*
X42650000Y-21080000D02*
X42450000Y-21080000D01*
G75*
G02*
X42350000Y-20980000I0J100000D01*
G01*
X42350000Y-20720000D01*
G75*
G02*
X42450000Y-20620000I100000J0D01*
G01*
X42650000Y-20620000D01*
G75*
G02*
X42750000Y-20720000I0J-100000D01*
G01*
X42750000Y-20980000D01*
G75*
G02*
X42650000Y-21080000I-100000J0D01*
G01*
G37*
G04 #@! TD.AperFunction*
G04 #@! TA.AperFunction,SMDPad,CuDef*
G36*
G01*
X42450000Y-19860000D02*
X42650000Y-19860000D01*
G75*
G02*
X42750000Y-19960000I0J-100000D01*
G01*
X42750000Y-20220000D01*
G75*
G02*
X42650000Y-20320000I-100000J0D01*
G01*
X42450000Y-20320000D01*
G75*
G02*
X42350000Y-20220000I0J100000D01*
G01*
X42350000Y-19960000D01*
G75*
G02*
X42450000Y-19860000I100000J0D01*
G01*
G37*
G04 #@! TD.AperFunction*
G04 #@! TA.AperFunction,SMDPad,CuDef*
G36*
G01*
X42450000Y-19220000D02*
X42650000Y-19220000D01*
G75*
G02*
X42750000Y-19320000I0J-100000D01*
G01*
X42750000Y-19580000D01*
G75*
G02*
X42650000Y-19680000I-100000J0D01*
G01*
X42450000Y-19680000D01*
G75*
G02*
X42350000Y-19580000I0J100000D01*
G01*
X42350000Y-19320000D01*
G75*
G02*
X42450000Y-19220000I100000J0D01*
G01*
G37*
G04 #@! TD.AperFunction*
G04 #@! TA.AperFunction,SMDPad,CuDef*
G36*
G01*
X40450000Y-19620000D02*
X40650000Y-19620000D01*
G75*
G02*
X40750000Y-19720000I0J-100000D01*
G01*
X40750000Y-19980000D01*
G75*
G02*
X40650000Y-20080000I-100000J0D01*
G01*
X40450000Y-20080000D01*
G75*
G02*
X40350000Y-19980000I0J100000D01*
G01*
X40350000Y-19720000D01*
G75*
G02*
X40450000Y-19620000I100000J0D01*
G01*
G37*
G04 #@! TD.AperFunction*
G04 #@! TA.AperFunction,SMDPad,CuDef*
G36*
G01*
X40450000Y-20260000D02*
X40650000Y-20260000D01*
G75*
G02*
X40750000Y-20360000I0J-100000D01*
G01*
X40750000Y-20620000D01*
G75*
G02*
X40650000Y-20720000I-100000J0D01*
G01*
X40450000Y-20720000D01*
G75*
G02*
X40350000Y-20620000I0J100000D01*
G01*
X40350000Y-20360000D01*
G75*
G02*
X40450000Y-20260000I100000J0D01*
G01*
G37*
G04 #@! TD.AperFunction*
G04 #@! TA.AperFunction,SMDPad,CuDef*
G36*
G01*
X28810000Y-18145000D02*
X28810000Y-17945000D01*
G75*
G02*
X28910000Y-17845000I100000J0D01*
G01*
X29170000Y-17845000D01*
G75*
G02*
X29270000Y-17945000I0J-100000D01*
G01*
X29270000Y-18145000D01*
G75*
G02*
X29170000Y-18245000I-100000J0D01*
G01*
X28910000Y-18245000D01*
G75*
G02*
X28810000Y-18145000I0J100000D01*
G01*
G37*
G04 #@! TD.AperFunction*
G04 #@! TA.AperFunction,SMDPad,CuDef*
G36*
G01*
X29450000Y-18145000D02*
X29450000Y-17945000D01*
G75*
G02*
X29550000Y-17845000I100000J0D01*
G01*
X29810000Y-17845000D01*
G75*
G02*
X29910000Y-17945000I0J-100000D01*
G01*
X29910000Y-18145000D01*
G75*
G02*
X29810000Y-18245000I-100000J0D01*
G01*
X29550000Y-18245000D01*
G75*
G02*
X29450000Y-18145000I0J100000D01*
G01*
G37*
G04 #@! TD.AperFunction*
G04 #@! TA.AperFunction,SMDPad,CuDef*
G36*
G01*
X28810000Y-17440000D02*
X28810000Y-17240000D01*
G75*
G02*
X28910000Y-17140000I100000J0D01*
G01*
X29170000Y-17140000D01*
G75*
G02*
X29270000Y-17240000I0J-100000D01*
G01*
X29270000Y-17440000D01*
G75*
G02*
X29170000Y-17540000I-100000J0D01*
G01*
X28910000Y-17540000D01*
G75*
G02*
X28810000Y-17440000I0J100000D01*
G01*
G37*
G04 #@! TD.AperFunction*
G04 #@! TA.AperFunction,SMDPad,CuDef*
G36*
G01*
X29450000Y-17440000D02*
X29450000Y-17240000D01*
G75*
G02*
X29550000Y-17140000I100000J0D01*
G01*
X29810000Y-17140000D01*
G75*
G02*
X29910000Y-17240000I0J-100000D01*
G01*
X29910000Y-17440000D01*
G75*
G02*
X29810000Y-17540000I-100000J0D01*
G01*
X29550000Y-17540000D01*
G75*
G02*
X29450000Y-17440000I0J100000D01*
G01*
G37*
G04 #@! TD.AperFunction*
G04 #@! TA.AperFunction,SMDPad,CuDef*
G36*
G01*
X35038000Y-20770000D02*
X35038000Y-20970000D01*
G75*
G02*
X34938000Y-21070000I-100000J0D01*
G01*
X34678000Y-21070000D01*
G75*
G02*
X34578000Y-20970000I0J100000D01*
G01*
X34578000Y-20770000D01*
G75*
G02*
X34678000Y-20670000I100000J0D01*
G01*
X34938000Y-20670000D01*
G75*
G02*
X35038000Y-20770000I0J-100000D01*
G01*
G37*
G04 #@! TD.AperFunction*
G04 #@! TA.AperFunction,SMDPad,CuDef*
G36*
G01*
X34398000Y-20770000D02*
X34398000Y-20970000D01*
G75*
G02*
X34298000Y-21070000I-100000J0D01*
G01*
X34038000Y-21070000D01*
G75*
G02*
X33938000Y-20970000I0J100000D01*
G01*
X33938000Y-20770000D01*
G75*
G02*
X34038000Y-20670000I100000J0D01*
G01*
X34298000Y-20670000D01*
G75*
G02*
X34398000Y-20770000I0J-100000D01*
G01*
G37*
G04 #@! TD.AperFunction*
G04 #@! TA.AperFunction,SMDPad,CuDef*
G36*
G01*
X35038000Y-20070000D02*
X35038000Y-20270000D01*
G75*
G02*
X34938000Y-20370000I-100000J0D01*
G01*
X34678000Y-20370000D01*
G75*
G02*
X34578000Y-20270000I0J100000D01*
G01*
X34578000Y-20070000D01*
G75*
G02*
X34678000Y-19970000I100000J0D01*
G01*
X34938000Y-19970000D01*
G75*
G02*
X35038000Y-20070000I0J-100000D01*
G01*
G37*
G04 #@! TD.AperFunction*
G04 #@! TA.AperFunction,SMDPad,CuDef*
G36*
G01*
X34398000Y-20070000D02*
X34398000Y-20270000D01*
G75*
G02*
X34298000Y-20370000I-100000J0D01*
G01*
X34038000Y-20370000D01*
G75*
G02*
X33938000Y-20270000I0J100000D01*
G01*
X33938000Y-20070000D01*
G75*
G02*
X34038000Y-19970000I100000J0D01*
G01*
X34298000Y-19970000D01*
G75*
G02*
X34398000Y-20070000I0J-100000D01*
G01*
G37*
G04 #@! TD.AperFunction*
G04 #@! TA.AperFunction,SMDPad,CuDef*
G36*
G01*
X35038000Y-21470000D02*
X35038000Y-21670000D01*
G75*
G02*
X34938000Y-21770000I-100000J0D01*
G01*
X34678000Y-21770000D01*
G75*
G02*
X34578000Y-21670000I0J100000D01*
G01*
X34578000Y-21470000D01*
G75*
G02*
X34678000Y-21370000I100000J0D01*
G01*
X34938000Y-21370000D01*
G75*
G02*
X35038000Y-21470000I0J-100000D01*
G01*
G37*
G04 #@! TD.AperFunction*
G04 #@! TA.AperFunction,SMDPad,CuDef*
G36*
G01*
X34398000Y-21470000D02*
X34398000Y-21670000D01*
G75*
G02*
X34298000Y-21770000I-100000J0D01*
G01*
X34038000Y-21770000D01*
G75*
G02*
X33938000Y-21670000I0J100000D01*
G01*
X33938000Y-21470000D01*
G75*
G02*
X34038000Y-21370000I100000J0D01*
G01*
X34298000Y-21370000D01*
G75*
G02*
X34398000Y-21470000I0J-100000D01*
G01*
G37*
G04 #@! TD.AperFunction*
G04 #@! TA.AperFunction,SMDPad,CuDef*
G36*
G01*
X18750000Y-27900000D02*
X18750000Y-28100000D01*
G75*
G02*
X18650000Y-28200000I-100000J0D01*
G01*
X18390000Y-28200000D01*
G75*
G02*
X18290000Y-28100000I0J100000D01*
G01*
X18290000Y-27900000D01*
G75*
G02*
X18390000Y-27800000I100000J0D01*
G01*
X18650000Y-27800000D01*
G75*
G02*
X18750000Y-27900000I0J-100000D01*
G01*
G37*
G04 #@! TD.AperFunction*
G04 #@! TA.AperFunction,SMDPad,CuDef*
G36*
G01*
X18110000Y-27900000D02*
X18110000Y-28100000D01*
G75*
G02*
X18010000Y-28200000I-100000J0D01*
G01*
X17750000Y-28200000D01*
G75*
G02*
X17650000Y-28100000I0J100000D01*
G01*
X17650000Y-27900000D01*
G75*
G02*
X17750000Y-27800000I100000J0D01*
G01*
X18010000Y-27800000D01*
G75*
G02*
X18110000Y-27900000I0J-100000D01*
G01*
G37*
G04 #@! TD.AperFunction*
G04 #@! TA.AperFunction,SMDPad,CuDef*
G36*
G01*
X41000000Y-26620000D02*
X41000000Y-26420000D01*
G75*
G02*
X41100000Y-26320000I100000J0D01*
G01*
X41360000Y-26320000D01*
G75*
G02*
X41460000Y-26420000I0J-100000D01*
G01*
X41460000Y-26620000D01*
G75*
G02*
X41360000Y-26720000I-100000J0D01*
G01*
X41100000Y-26720000D01*
G75*
G02*
X41000000Y-26620000I0J100000D01*
G01*
G37*
G04 #@! TD.AperFunction*
G04 #@! TA.AperFunction,SMDPad,CuDef*
G36*
G01*
X41640000Y-26620000D02*
X41640000Y-26420000D01*
G75*
G02*
X41740000Y-26320000I100000J0D01*
G01*
X42000000Y-26320000D01*
G75*
G02*
X42100000Y-26420000I0J-100000D01*
G01*
X42100000Y-26620000D01*
G75*
G02*
X42000000Y-26720000I-100000J0D01*
G01*
X41740000Y-26720000D01*
G75*
G02*
X41640000Y-26620000I0J100000D01*
G01*
G37*
G04 #@! TD.AperFunction*
G04 #@! TA.AperFunction,SMDPad,CuDef*
G36*
G01*
X39100000Y-26770000D02*
X39100000Y-26970000D01*
G75*
G02*
X39000000Y-27070000I-100000J0D01*
G01*
X38740000Y-27070000D01*
G75*
G02*
X38640000Y-26970000I0J100000D01*
G01*
X38640000Y-26770000D01*
G75*
G02*
X38740000Y-26670000I100000J0D01*
G01*
X39000000Y-26670000D01*
G75*
G02*
X39100000Y-26770000I0J-100000D01*
G01*
G37*
G04 #@! TD.AperFunction*
G04 #@! TA.AperFunction,SMDPad,CuDef*
G36*
G01*
X38460000Y-26770000D02*
X38460000Y-26970000D01*
G75*
G02*
X38360000Y-27070000I-100000J0D01*
G01*
X38100000Y-27070000D01*
G75*
G02*
X38000000Y-26970000I0J100000D01*
G01*
X38000000Y-26770000D01*
G75*
G02*
X38100000Y-26670000I100000J0D01*
G01*
X38360000Y-26670000D01*
G75*
G02*
X38460000Y-26770000I0J-100000D01*
G01*
G37*
G04 #@! TD.AperFunction*
G04 #@! TA.AperFunction,SMDPad,CuDef*
G36*
G01*
X33610500Y-20720000D02*
X33425500Y-20720000D01*
G75*
G02*
X33368000Y-20662500I0J57500D01*
G01*
X33368000Y-20547500D01*
G75*
G02*
X33425500Y-20490000I57500J0D01*
G01*
X33610500Y-20490000D01*
G75*
G02*
X33668000Y-20547500I0J-57500D01*
G01*
X33668000Y-20662500D01*
G75*
G02*
X33610500Y-20720000I-57500J0D01*
G01*
G37*
G04 #@! TD.AperFunction*
G04 #@! TA.AperFunction,SMDPad,CuDef*
G36*
G01*
X33610500Y-20340000D02*
X33425500Y-20340000D01*
G75*
G02*
X33368000Y-20282500I0J57500D01*
G01*
X33368000Y-20167500D01*
G75*
G02*
X33425500Y-20110000I57500J0D01*
G01*
X33610500Y-20110000D01*
G75*
G02*
X33668000Y-20167500I0J-57500D01*
G01*
X33668000Y-20282500D01*
G75*
G02*
X33610500Y-20340000I-57500J0D01*
G01*
G37*
G04 #@! TD.AperFunction*
G04 #@! TA.AperFunction,SMDPad,CuDef*
G36*
G01*
X33435500Y-21730000D02*
X33620500Y-21730000D01*
G75*
G02*
X33678000Y-21787500I0J-57500D01*
G01*
X33678000Y-21902500D01*
G75*
G02*
X33620500Y-21960000I-57500J0D01*
G01*
X33435500Y-21960000D01*
G75*
G02*
X33378000Y-21902500I0J57500D01*
G01*
X33378000Y-21787500D01*
G75*
G02*
X33435500Y-21730000I57500J0D01*
G01*
G37*
G04 #@! TD.AperFunction*
G04 #@! TA.AperFunction,SMDPad,CuDef*
G36*
G01*
X33435500Y-22110000D02*
X33620500Y-22110000D01*
G75*
G02*
X33678000Y-22167500I0J-57500D01*
G01*
X33678000Y-22282500D01*
G75*
G02*
X33620500Y-22340000I-57500J0D01*
G01*
X33435500Y-22340000D01*
G75*
G02*
X33378000Y-22282500I0J57500D01*
G01*
X33378000Y-22167500D01*
G75*
G02*
X33435500Y-22110000I57500J0D01*
G01*
G37*
G04 #@! TD.AperFunction*
G04 #@! TA.AperFunction,SMDPad,CuDef*
G36*
G01*
X33457500Y-25830000D02*
X33642500Y-25830000D01*
G75*
G02*
X33700000Y-25887500I0J-57500D01*
G01*
X33700000Y-26002500D01*
G75*
G02*
X33642500Y-26060000I-57500J0D01*
G01*
X33457500Y-26060000D01*
G75*
G02*
X33400000Y-26002500I0J57500D01*
G01*
X33400000Y-25887500D01*
G75*
G02*
X33457500Y-25830000I57500J0D01*
G01*
G37*
G04 #@! TD.AperFunction*
G04 #@! TA.AperFunction,SMDPad,CuDef*
G36*
G01*
X33457500Y-26210000D02*
X33642500Y-26210000D01*
G75*
G02*
X33700000Y-26267500I0J-57500D01*
G01*
X33700000Y-26382500D01*
G75*
G02*
X33642500Y-26440000I-57500J0D01*
G01*
X33457500Y-26440000D01*
G75*
G02*
X33400000Y-26382500I0J57500D01*
G01*
X33400000Y-26267500D01*
G75*
G02*
X33457500Y-26210000I57500J0D01*
G01*
G37*
G04 #@! TD.AperFunction*
G04 #@! TA.AperFunction,SMDPad,CuDef*
G36*
G01*
X42592500Y-26625000D02*
X42407500Y-26625000D01*
G75*
G02*
X42350000Y-26567500I0J57500D01*
G01*
X42350000Y-26452500D01*
G75*
G02*
X42407500Y-26395000I57500J0D01*
G01*
X42592500Y-26395000D01*
G75*
G02*
X42650000Y-26452500I0J-57500D01*
G01*
X42650000Y-26567500D01*
G75*
G02*
X42592500Y-26625000I-57500J0D01*
G01*
G37*
G04 #@! TD.AperFunction*
G04 #@! TA.AperFunction,SMDPad,CuDef*
G36*
G01*
X42592500Y-26245000D02*
X42407500Y-26245000D01*
G75*
G02*
X42350000Y-26187500I0J57500D01*
G01*
X42350000Y-26072500D01*
G75*
G02*
X42407500Y-26015000I57500J0D01*
G01*
X42592500Y-26015000D01*
G75*
G02*
X42650000Y-26072500I0J-57500D01*
G01*
X42650000Y-26187500D01*
G75*
G02*
X42592500Y-26245000I-57500J0D01*
G01*
G37*
G04 #@! TD.AperFunction*
G04 #@! TA.AperFunction,SMDPad,CuDef*
G36*
G01*
X42855000Y-22057500D02*
X42855000Y-22242500D01*
G75*
G02*
X42797500Y-22300000I-57500J0D01*
G01*
X42682500Y-22300000D01*
G75*
G02*
X42625000Y-22242500I0J57500D01*
G01*
X42625000Y-22057500D01*
G75*
G02*
X42682500Y-22000000I57500J0D01*
G01*
X42797500Y-22000000D01*
G75*
G02*
X42855000Y-22057500I0J-57500D01*
G01*
G37*
G04 #@! TD.AperFunction*
G04 #@! TA.AperFunction,SMDPad,CuDef*
G36*
G01*
X42475000Y-22057500D02*
X42475000Y-22242500D01*
G75*
G02*
X42417500Y-22300000I-57500J0D01*
G01*
X42302500Y-22300000D01*
G75*
G02*
X42245000Y-22242500I0J57500D01*
G01*
X42245000Y-22057500D01*
G75*
G02*
X42302500Y-22000000I57500J0D01*
G01*
X42417500Y-22000000D01*
G75*
G02*
X42475000Y-22057500I0J-57500D01*
G01*
G37*
G04 #@! TD.AperFunction*
G04 #@! TA.AperFunction,SMDPad,CuDef*
G36*
G01*
X42407500Y-24965000D02*
X42592500Y-24965000D01*
G75*
G02*
X42650000Y-25022500I0J-57500D01*
G01*
X42650000Y-25137500D01*
G75*
G02*
X42592500Y-25195000I-57500J0D01*
G01*
X42407500Y-25195000D01*
G75*
G02*
X42350000Y-25137500I0J57500D01*
G01*
X42350000Y-25022500D01*
G75*
G02*
X42407500Y-24965000I57500J0D01*
G01*
G37*
G04 #@! TD.AperFunction*
G04 #@! TA.AperFunction,SMDPad,CuDef*
G36*
G01*
X42407500Y-25345000D02*
X42592500Y-25345000D01*
G75*
G02*
X42650000Y-25402500I0J-57500D01*
G01*
X42650000Y-25517500D01*
G75*
G02*
X42592500Y-25575000I-57500J0D01*
G01*
X42407500Y-25575000D01*
G75*
G02*
X42350000Y-25517500I0J57500D01*
G01*
X42350000Y-25402500D01*
G75*
G02*
X42407500Y-25345000I57500J0D01*
G01*
G37*
G04 #@! TD.AperFunction*
G04 #@! TA.AperFunction,SMDPad,CuDef*
G36*
G01*
X42855000Y-18727500D02*
X42855000Y-18912500D01*
G75*
G02*
X42797500Y-18970000I-57500J0D01*
G01*
X42682500Y-18970000D01*
G75*
G02*
X42625000Y-18912500I0J57500D01*
G01*
X42625000Y-18727500D01*
G75*
G02*
X42682500Y-18670000I57500J0D01*
G01*
X42797500Y-18670000D01*
G75*
G02*
X42855000Y-18727500I0J-57500D01*
G01*
G37*
G04 #@! TD.AperFunction*
G04 #@! TA.AperFunction,SMDPad,CuDef*
G36*
G01*
X42475000Y-18727500D02*
X42475000Y-18912500D01*
G75*
G02*
X42417500Y-18970000I-57500J0D01*
G01*
X42302500Y-18970000D01*
G75*
G02*
X42245000Y-18912500I0J57500D01*
G01*
X42245000Y-18727500D01*
G75*
G02*
X42302500Y-18670000I57500J0D01*
G01*
X42417500Y-18670000D01*
G75*
G02*
X42475000Y-18727500I0J-57500D01*
G01*
G37*
G04 #@! TD.AperFunction*
G04 #@! TA.AperFunction,SMDPad,CuDef*
G36*
G01*
X25550000Y-25070000D02*
X25550000Y-25270000D01*
G75*
G02*
X25450000Y-25370000I-100000J0D01*
G01*
X25190000Y-25370000D01*
G75*
G02*
X25090000Y-25270000I0J100000D01*
G01*
X25090000Y-25070000D01*
G75*
G02*
X25190000Y-24970000I100000J0D01*
G01*
X25450000Y-24970000D01*
G75*
G02*
X25550000Y-25070000I0J-100000D01*
G01*
G37*
G04 #@! TD.AperFunction*
G04 #@! TA.AperFunction,SMDPad,CuDef*
G36*
G01*
X24910000Y-25070000D02*
X24910000Y-25270000D01*
G75*
G02*
X24810000Y-25370000I-100000J0D01*
G01*
X24550000Y-25370000D01*
G75*
G02*
X24450000Y-25270000I0J100000D01*
G01*
X24450000Y-25070000D01*
G75*
G02*
X24550000Y-24970000I100000J0D01*
G01*
X24810000Y-24970000D01*
G75*
G02*
X24910000Y-25070000I0J-100000D01*
G01*
G37*
G04 #@! TD.AperFunction*
G04 #@! TA.AperFunction,SMDPad,CuDef*
G36*
G01*
X39600000Y-26620000D02*
X39600000Y-26420000D01*
G75*
G02*
X39700000Y-26320000I100000J0D01*
G01*
X39960000Y-26320000D01*
G75*
G02*
X40060000Y-26420000I0J-100000D01*
G01*
X40060000Y-26620000D01*
G75*
G02*
X39960000Y-26720000I-100000J0D01*
G01*
X39700000Y-26720000D01*
G75*
G02*
X39600000Y-26620000I0J100000D01*
G01*
G37*
G04 #@! TD.AperFunction*
G04 #@! TA.AperFunction,SMDPad,CuDef*
G36*
G01*
X40240000Y-26620000D02*
X40240000Y-26420000D01*
G75*
G02*
X40340000Y-26320000I100000J0D01*
G01*
X40600000Y-26320000D01*
G75*
G02*
X40700000Y-26420000I0J-100000D01*
G01*
X40700000Y-26620000D01*
G75*
G02*
X40600000Y-26720000I-100000J0D01*
G01*
X40340000Y-26720000D01*
G75*
G02*
X40240000Y-26620000I0J100000D01*
G01*
G37*
G04 #@! TD.AperFunction*
G04 #@! TA.AperFunction,SMDPad,CuDef*
G36*
G01*
X39100000Y-23470000D02*
X38900000Y-23470000D01*
G75*
G02*
X38800000Y-23370000I0J100000D01*
G01*
X38800000Y-23110000D01*
G75*
G02*
X38900000Y-23010000I100000J0D01*
G01*
X39100000Y-23010000D01*
G75*
G02*
X39200000Y-23110000I0J-100000D01*
G01*
X39200000Y-23370000D01*
G75*
G02*
X39100000Y-23470000I-100000J0D01*
G01*
G37*
G04 #@! TD.AperFunction*
G04 #@! TA.AperFunction,SMDPad,CuDef*
G36*
G01*
X39100000Y-22830000D02*
X38900000Y-22830000D01*
G75*
G02*
X38800000Y-22730000I0J100000D01*
G01*
X38800000Y-22470000D01*
G75*
G02*
X38900000Y-22370000I100000J0D01*
G01*
X39100000Y-22370000D01*
G75*
G02*
X39200000Y-22470000I0J-100000D01*
G01*
X39200000Y-22730000D01*
G75*
G02*
X39100000Y-22830000I-100000J0D01*
G01*
G37*
G04 #@! TD.AperFunction*
G04 #@! TA.AperFunction,SMDPad,CuDef*
G36*
G01*
X36600000Y-26270000D02*
X36600000Y-26070000D01*
G75*
G02*
X36700000Y-25970000I100000J0D01*
G01*
X36960000Y-25970000D01*
G75*
G02*
X37060000Y-26070000I0J-100000D01*
G01*
X37060000Y-26270000D01*
G75*
G02*
X36960000Y-26370000I-100000J0D01*
G01*
X36700000Y-26370000D01*
G75*
G02*
X36600000Y-26270000I0J100000D01*
G01*
G37*
G04 #@! TD.AperFunction*
G04 #@! TA.AperFunction,SMDPad,CuDef*
G36*
G01*
X37240000Y-26270000D02*
X37240000Y-26070000D01*
G75*
G02*
X37340000Y-25970000I100000J0D01*
G01*
X37600000Y-25970000D01*
G75*
G02*
X37700000Y-26070000I0J-100000D01*
G01*
X37700000Y-26270000D01*
G75*
G02*
X37600000Y-26370000I-100000J0D01*
G01*
X37340000Y-26370000D01*
G75*
G02*
X37240000Y-26270000I0J100000D01*
G01*
G37*
G04 #@! TD.AperFunction*
G04 #@! TA.AperFunction,SMDPad,CuDef*
G36*
G01*
X38900000Y-23770000D02*
X39100000Y-23770000D01*
G75*
G02*
X39200000Y-23870000I0J-100000D01*
G01*
X39200000Y-24130000D01*
G75*
G02*
X39100000Y-24230000I-100000J0D01*
G01*
X38900000Y-24230000D01*
G75*
G02*
X38800000Y-24130000I0J100000D01*
G01*
X38800000Y-23870000D01*
G75*
G02*
X38900000Y-23770000I100000J0D01*
G01*
G37*
G04 #@! TD.AperFunction*
G04 #@! TA.AperFunction,SMDPad,CuDef*
G36*
G01*
X38900000Y-24410000D02*
X39100000Y-24410000D01*
G75*
G02*
X39200000Y-24510000I0J-100000D01*
G01*
X39200000Y-24770000D01*
G75*
G02*
X39100000Y-24870000I-100000J0D01*
G01*
X38900000Y-24870000D01*
G75*
G02*
X38800000Y-24770000I0J100000D01*
G01*
X38800000Y-24510000D01*
G75*
G02*
X38900000Y-24410000I100000J0D01*
G01*
G37*
G04 #@! TD.AperFunction*
G04 #@! TA.AperFunction,SMDPad,CuDef*
G36*
G01*
X36600000Y-26970000D02*
X36600000Y-26770000D01*
G75*
G02*
X36700000Y-26670000I100000J0D01*
G01*
X36960000Y-26670000D01*
G75*
G02*
X37060000Y-26770000I0J-100000D01*
G01*
X37060000Y-26970000D01*
G75*
G02*
X36960000Y-27070000I-100000J0D01*
G01*
X36700000Y-27070000D01*
G75*
G02*
X36600000Y-26970000I0J100000D01*
G01*
G37*
G04 #@! TD.AperFunction*
G04 #@! TA.AperFunction,SMDPad,CuDef*
G36*
G01*
X37240000Y-26970000D02*
X37240000Y-26770000D01*
G75*
G02*
X37340000Y-26670000I100000J0D01*
G01*
X37600000Y-26670000D01*
G75*
G02*
X37700000Y-26770000I0J-100000D01*
G01*
X37700000Y-26970000D01*
G75*
G02*
X37600000Y-27070000I-100000J0D01*
G01*
X37340000Y-27070000D01*
G75*
G02*
X37240000Y-26970000I0J100000D01*
G01*
G37*
G04 #@! TD.AperFunction*
G04 #@! TA.AperFunction,SMDPad,CuDef*
G36*
G01*
X39750000Y-19620000D02*
X39950000Y-19620000D01*
G75*
G02*
X40050000Y-19720000I0J-100000D01*
G01*
X40050000Y-19980000D01*
G75*
G02*
X39950000Y-20080000I-100000J0D01*
G01*
X39750000Y-20080000D01*
G75*
G02*
X39650000Y-19980000I0J100000D01*
G01*
X39650000Y-19720000D01*
G75*
G02*
X39750000Y-19620000I100000J0D01*
G01*
G37*
G04 #@! TD.AperFunction*
G04 #@! TA.AperFunction,SMDPad,CuDef*
G36*
G01*
X39750000Y-20260000D02*
X39950000Y-20260000D01*
G75*
G02*
X40050000Y-20360000I0J-100000D01*
G01*
X40050000Y-20620000D01*
G75*
G02*
X39950000Y-20720000I-100000J0D01*
G01*
X39750000Y-20720000D01*
G75*
G02*
X39650000Y-20620000I0J100000D01*
G01*
X39650000Y-20360000D01*
G75*
G02*
X39750000Y-20260000I100000J0D01*
G01*
G37*
G04 #@! TD.AperFunction*
G04 #@! TA.AperFunction,SMDPad,CuDef*
G36*
G01*
X35100000Y-22870000D02*
X35100000Y-23070000D01*
G75*
G02*
X35000000Y-23170000I-100000J0D01*
G01*
X34740000Y-23170000D01*
G75*
G02*
X34640000Y-23070000I0J100000D01*
G01*
X34640000Y-22870000D01*
G75*
G02*
X34740000Y-22770000I100000J0D01*
G01*
X35000000Y-22770000D01*
G75*
G02*
X35100000Y-22870000I0J-100000D01*
G01*
G37*
G04 #@! TD.AperFunction*
G04 #@! TA.AperFunction,SMDPad,CuDef*
G36*
G01*
X34460000Y-22870000D02*
X34460000Y-23070000D01*
G75*
G02*
X34360000Y-23170000I-100000J0D01*
G01*
X34100000Y-23170000D01*
G75*
G02*
X34000000Y-23070000I0J100000D01*
G01*
X34000000Y-22870000D01*
G75*
G02*
X34100000Y-22770000I100000J0D01*
G01*
X34360000Y-22770000D01*
G75*
G02*
X34460000Y-22870000I0J-100000D01*
G01*
G37*
G04 #@! TD.AperFunction*
G04 #@! TA.AperFunction,SMDPad,CuDef*
G36*
G01*
X41750000Y-26020000D02*
X41550000Y-26020000D01*
G75*
G02*
X41450000Y-25920000I0J100000D01*
G01*
X41450000Y-25660000D01*
G75*
G02*
X41550000Y-25560000I100000J0D01*
G01*
X41750000Y-25560000D01*
G75*
G02*
X41850000Y-25660000I0J-100000D01*
G01*
X41850000Y-25920000D01*
G75*
G02*
X41750000Y-26020000I-100000J0D01*
G01*
G37*
G04 #@! TD.AperFunction*
G04 #@! TA.AperFunction,SMDPad,CuDef*
G36*
G01*
X41750000Y-25380000D02*
X41550000Y-25380000D01*
G75*
G02*
X41450000Y-25280000I0J100000D01*
G01*
X41450000Y-25020000D01*
G75*
G02*
X41550000Y-24920000I100000J0D01*
G01*
X41750000Y-24920000D01*
G75*
G02*
X41850000Y-25020000I0J-100000D01*
G01*
X41850000Y-25280000D01*
G75*
G02*
X41750000Y-25380000I-100000J0D01*
G01*
G37*
G04 #@! TD.AperFunction*
G04 #@! TA.AperFunction,SMDPad,CuDef*
G36*
G01*
X34100000Y-25470000D02*
X34300000Y-25470000D01*
G75*
G02*
X34400000Y-25570000I0J-100000D01*
G01*
X34400000Y-25830000D01*
G75*
G02*
X34300000Y-25930000I-100000J0D01*
G01*
X34100000Y-25930000D01*
G75*
G02*
X34000000Y-25830000I0J100000D01*
G01*
X34000000Y-25570000D01*
G75*
G02*
X34100000Y-25470000I100000J0D01*
G01*
G37*
G04 #@! TD.AperFunction*
G04 #@! TA.AperFunction,SMDPad,CuDef*
G36*
G01*
X34100000Y-26110000D02*
X34300000Y-26110000D01*
G75*
G02*
X34400000Y-26210000I0J-100000D01*
G01*
X34400000Y-26470000D01*
G75*
G02*
X34300000Y-26570000I-100000J0D01*
G01*
X34100000Y-26570000D01*
G75*
G02*
X34000000Y-26470000I0J100000D01*
G01*
X34000000Y-26210000D01*
G75*
G02*
X34100000Y-26110000I100000J0D01*
G01*
G37*
G04 #@! TD.AperFunction*
D36*
X43848000Y-19316000D03*
X43848000Y-21516000D03*
X43848000Y-24116000D03*
X43848000Y-26316000D03*
D37*
X36700000Y-23795000D03*
X37400000Y-23795000D03*
X37050000Y-23795000D03*
X37050000Y-23445000D03*
X37400000Y-23095000D03*
X39575000Y-19725000D03*
X37475000Y-25775000D03*
X37825000Y-25750000D03*
X37550000Y-26050000D03*
X38025000Y-26200000D03*
X35825000Y-26225000D03*
X35575000Y-26750000D03*
X34575000Y-26625000D03*
X34300000Y-26600000D03*
X33300000Y-24750000D03*
X36350000Y-19925000D03*
X36000000Y-19900000D03*
X41525000Y-23050000D03*
X39100000Y-22700000D03*
X42350000Y-25700000D03*
X42600000Y-25875000D03*
X40700000Y-26375000D03*
X41800000Y-25125000D03*
X41550000Y-25000000D03*
X39850000Y-25100000D03*
X25500000Y-22840000D03*
X26100000Y-22830000D03*
X22680000Y-22750000D03*
X22660000Y-22190000D03*
X40600000Y-23000000D03*
X39250000Y-24500000D03*
X40100000Y-19700000D03*
X33550000Y-19850000D03*
X33100000Y-20350000D03*
X33550000Y-23300000D03*
X39000000Y-24900000D03*
X38700000Y-25000000D03*
X35775000Y-26925000D03*
X42150000Y-23050000D03*
X42050000Y-24175000D03*
X42425000Y-22375000D03*
X42000000Y-18900000D03*
X29900000Y-17500000D03*
X36700000Y-24145000D03*
X37750000Y-23795000D03*
X36350000Y-23800000D03*
X39950000Y-20825000D03*
X41050000Y-20750000D03*
X36600000Y-25900000D03*
X36225000Y-25600000D03*
X36375000Y-20600000D03*
X35800000Y-20525000D03*
X36075000Y-20550000D03*
X38750000Y-21375000D03*
X38925000Y-21150000D03*
X27500000Y-22100000D03*
X29625000Y-17600000D03*
X29850000Y-17800000D03*
X29600000Y-17900000D03*
X27500000Y-21800000D03*
X27500000Y-22400000D03*
X27800000Y-22400000D03*
X27800000Y-22100000D03*
X34400000Y-22400000D03*
X34900000Y-23000000D03*
X20800000Y-22000000D03*
X38700000Y-23750000D03*
X20100000Y-21600000D03*
X40250000Y-20900000D03*
X40800000Y-20900000D03*
X36350000Y-23095000D03*
X34950000Y-21300000D03*
X36700000Y-23095000D03*
X43600000Y-19075000D03*
X35475000Y-21200000D03*
X35550000Y-19325000D03*
X42675000Y-19000000D03*
X37400000Y-24145000D03*
X42000000Y-26950000D03*
X43450000Y-26500000D03*
X35625000Y-23445000D03*
X43600000Y-23900000D03*
X41425000Y-24550000D03*
X43100000Y-22100000D03*
X43575000Y-21675000D03*
X38500000Y-24350000D03*
X36800000Y-21800000D03*
X40200000Y-18800000D03*
X38500000Y-24700000D03*
X40700000Y-24550000D03*
X36350000Y-23445000D03*
X42650000Y-23500000D03*
X34200000Y-21200000D03*
X33450000Y-21250000D03*
X22025000Y-21050000D03*
X22600000Y-19400000D03*
X33500000Y-22650000D03*
X34650000Y-22050000D03*
X41850000Y-21250000D03*
X37750000Y-23095000D03*
X38275000Y-20095000D03*
X41350000Y-18800000D03*
X37400000Y-23445000D03*
X38375000Y-20595000D03*
X37150000Y-18850000D03*
X34800000Y-19150000D03*
X36750000Y-21450000D03*
X38750000Y-19200000D03*
X37600000Y-21850000D03*
X40825000Y-25050000D03*
X34275000Y-25650000D03*
X35075000Y-25700000D03*
X34900000Y-26075000D03*
X40850000Y-25800000D03*
X41150000Y-25725000D03*
X34100000Y-25800000D03*
X34950000Y-20900000D03*
X37050000Y-23100000D03*
X30988000Y-17500000D03*
X31150000Y-20700000D03*
X37125000Y-19675000D03*
X34825000Y-19500000D03*
X30400000Y-18034000D03*
X31750000Y-19850000D03*
X37610000Y-18875000D03*
X34975000Y-18825000D03*
X37050000Y-24145000D03*
X27850000Y-19500000D03*
X39025000Y-27275000D03*
X26525000Y-19650000D03*
X33400000Y-27000000D03*
X37000000Y-24825000D03*
X42450000Y-19500000D03*
X40725000Y-22100000D03*
X23230000Y-24730000D03*
X41825000Y-26650000D03*
X37750000Y-24145000D03*
X37525000Y-24875000D03*
X38725000Y-26625000D03*
X34300000Y-27250000D03*
X24200000Y-27900000D03*
X34000000Y-23400000D03*
D38*
X37050000Y-23445000D02*
X37050000Y-23795000D01*
D11*
X39699999Y-19849999D02*
X39575000Y-19725000D01*
X39875000Y-19850000D02*
X39699999Y-19849999D01*
D39*
X39700000Y-19850000D02*
X39825000Y-19850000D01*
X39575000Y-19725000D02*
X39700000Y-19850000D01*
X35675000Y-26100000D02*
X35975000Y-26400000D01*
X35475000Y-26100000D02*
X35675000Y-26100000D01*
X33763462Y-26410000D02*
X33500000Y-26410000D01*
X34200000Y-26325000D02*
X33848462Y-26325000D01*
X33848462Y-26325000D02*
X33763462Y-26410000D01*
X40450000Y-26525000D02*
X40425000Y-26550000D01*
X41250000Y-26525000D02*
X40450000Y-26525000D01*
D38*
X40373790Y-25473790D02*
X40350000Y-25450000D01*
X40373790Y-26548790D02*
X40373790Y-25473790D01*
X40375000Y-26550000D02*
X40373790Y-26548790D01*
D39*
X40175000Y-25375000D02*
X39900000Y-25100000D01*
X40325000Y-25375000D02*
X40175000Y-25375000D01*
D38*
X33500000Y-20175000D02*
X33525000Y-20200000D01*
X33500000Y-19950000D02*
X33500000Y-20175000D01*
X33550001Y-23174999D02*
X33675000Y-23050000D01*
X33450000Y-23175000D02*
X33550001Y-23174999D01*
X33725000Y-23000000D02*
X33675000Y-23050000D01*
X34225000Y-23000000D02*
X33725000Y-23000000D01*
X33450000Y-24600000D02*
X33300000Y-24750000D01*
X33450000Y-24575000D02*
X33450000Y-24600000D01*
D11*
X42500000Y-25975000D02*
X42600000Y-25875000D01*
X42500000Y-26125000D02*
X42500000Y-25975000D01*
X42450000Y-25600000D02*
X42350000Y-25700000D01*
X42450000Y-25450000D02*
X42450000Y-25600000D01*
D38*
X33550000Y-23075000D02*
X33500000Y-23125000D01*
D39*
X19775000Y-24075000D02*
X18550000Y-25300000D01*
X20400000Y-24075000D02*
X19775000Y-24075000D01*
X24725000Y-23775000D02*
X24725000Y-25175000D01*
X26400000Y-22875000D02*
X25625000Y-22875000D01*
X25625000Y-22875000D02*
X24725000Y-23775000D01*
X21700000Y-22775000D02*
X20475000Y-24000000D01*
X22600000Y-22775000D02*
X21700000Y-22775000D01*
X38950000Y-24625000D02*
X38950000Y-24800000D01*
X25500000Y-22875000D02*
X25225000Y-22600000D01*
X25625000Y-22875000D02*
X25500000Y-22875000D01*
D38*
X16300000Y-27850000D02*
X17600000Y-26550000D01*
X16300000Y-27950000D02*
X16300000Y-27850000D01*
X13900000Y-27580000D02*
X13510000Y-27970000D01*
X13900000Y-26660000D02*
X13900000Y-27580000D01*
D40*
X39000000Y-24640000D02*
X39000000Y-24750000D01*
D39*
X39762162Y-19825000D02*
X39675000Y-19825000D01*
X40275000Y-19312162D02*
X39762162Y-19825000D01*
X40200000Y-19300000D02*
X40275000Y-19312162D01*
D38*
X39150000Y-24525000D02*
X39050000Y-24625000D01*
X39250000Y-24500000D02*
X39150000Y-24525000D01*
D11*
X33528000Y-22268000D02*
X34230000Y-22970000D01*
X33528000Y-22225000D02*
X33528000Y-22268000D01*
X33550000Y-20193000D02*
X33518000Y-20225000D01*
X33550000Y-19850000D02*
X33550000Y-20193000D01*
X33100000Y-20350000D02*
X33550000Y-20000000D01*
X33550000Y-20000000D02*
X33550000Y-19850000D01*
X33100000Y-20350000D02*
X33250000Y-20200000D01*
X33493000Y-20200000D02*
X33518000Y-20225000D01*
X33250000Y-20200000D02*
X33493000Y-20200000D01*
D39*
X37475000Y-25575000D02*
X37525000Y-25575000D01*
X38170000Y-26220000D02*
X37470000Y-25520000D01*
X38230000Y-26220000D02*
X38170000Y-26220000D01*
D38*
X38175000Y-26850000D02*
X38177545Y-26852545D01*
X37450000Y-26850000D02*
X38175000Y-26850000D01*
X37500000Y-26850000D02*
X37500000Y-26175000D01*
D40*
X38875000Y-25175000D02*
X38700000Y-25000000D01*
X38875000Y-25400000D02*
X38875000Y-25175000D01*
X38875000Y-25025000D02*
X38875000Y-25175000D01*
X39000000Y-24900000D02*
X38875000Y-25025000D01*
X33108790Y-24233790D02*
X33400000Y-24525000D01*
X33108790Y-23466210D02*
X33108790Y-24233790D01*
X33425000Y-23150000D02*
X33108790Y-23466210D01*
X33098790Y-24951210D02*
X33300000Y-24750000D01*
X33098790Y-25979265D02*
X33098790Y-24951210D01*
X33444525Y-26325000D02*
X33098790Y-25979265D01*
X33500000Y-26325000D02*
X33444525Y-26325000D01*
X37550000Y-26975000D02*
X37198799Y-27326201D01*
X36176201Y-27326201D02*
X35612500Y-26762500D01*
X37198799Y-27326201D02*
X36176201Y-27326201D01*
D39*
X35975000Y-26400000D02*
X35612500Y-26762500D01*
D38*
X40000000Y-21900000D02*
X40000000Y-22000000D01*
X40000000Y-22000000D02*
X39400000Y-22600000D01*
X39400000Y-22700000D02*
X40100000Y-22000000D01*
X39100000Y-22700000D02*
X39400000Y-22700000D01*
D11*
X33650000Y-19800000D02*
X33500000Y-19950000D01*
X42325000Y-23225000D02*
X42150000Y-23050000D01*
X42250000Y-24375000D02*
X42050000Y-24175000D01*
X42325000Y-24375000D02*
X42250000Y-24375000D01*
X42350000Y-22300000D02*
X42425000Y-22375000D01*
X42350000Y-22100000D02*
X42350000Y-22300000D01*
D38*
X42000000Y-18900000D02*
X42280000Y-18900000D01*
X42280000Y-18900000D02*
X42360000Y-18820000D01*
D11*
X39450001Y-18743223D02*
X39450001Y-19600001D01*
X39030577Y-18323799D02*
X39450001Y-18743223D01*
X39450001Y-19600001D02*
X39575000Y-19725000D01*
X35101201Y-19098799D02*
X35876201Y-18323799D01*
X35101201Y-19598799D02*
X34900000Y-19800000D01*
X35101201Y-19598799D02*
X34974999Y-19725001D01*
X35101201Y-19598799D02*
X35101201Y-19098799D01*
X35876201Y-18323799D02*
X39030577Y-18323799D01*
X34900000Y-19800000D02*
X33650000Y-19800000D01*
D39*
X39850000Y-20725000D02*
X39950000Y-20825000D01*
X39850000Y-20450000D02*
X39850000Y-20725000D01*
D38*
X40710623Y-20949999D02*
X40074999Y-20949999D01*
X41035622Y-20625000D02*
X40710623Y-20949999D01*
X40074999Y-20949999D02*
X39950000Y-20825000D01*
X41225000Y-20625000D02*
X41035622Y-20625000D01*
D39*
X36825000Y-26200000D02*
X36850000Y-26225000D01*
D11*
X38750000Y-21375000D02*
X38750000Y-21500000D01*
X38800000Y-21025000D02*
X38925000Y-21150000D01*
D39*
X27750000Y-23975000D02*
X26425000Y-25300000D01*
X27750000Y-23100000D02*
X27750000Y-23975000D01*
X25500000Y-25350000D02*
X25375000Y-25225000D01*
X26425000Y-25350000D02*
X25500000Y-25350000D01*
X26575000Y-26072162D02*
X26575000Y-25775000D01*
X27802838Y-27300000D02*
X26575000Y-26072162D01*
X29775000Y-27300000D02*
X27802838Y-27300000D01*
D11*
X29625000Y-17400000D02*
X29625000Y-17600000D01*
X29850000Y-17800000D02*
X29850000Y-17825000D01*
X29850000Y-17825000D02*
X29650000Y-18025000D01*
D38*
X29850000Y-17875000D02*
X29680000Y-18045000D01*
X29850000Y-17800000D02*
X29850000Y-17875000D01*
X29625000Y-17395000D02*
X29680000Y-17340000D01*
X29625000Y-17600000D02*
X29625000Y-17395000D01*
D40*
X34230000Y-22330000D02*
X34870000Y-22970000D01*
X34230000Y-22270000D02*
X34230000Y-22330000D01*
D11*
X38750000Y-23750000D02*
X39000000Y-24000000D01*
X38700000Y-23750000D02*
X38750000Y-23750000D01*
X36825000Y-26125000D02*
X36600000Y-25900000D01*
X36825000Y-26175000D02*
X36825000Y-26125000D01*
D38*
X36850000Y-26748799D02*
X36800000Y-26748799D01*
X36850000Y-26150000D02*
X36850000Y-26748799D01*
D11*
X36100001Y-25724999D02*
X36225000Y-25600000D01*
X36000000Y-25725000D02*
X36100001Y-25724999D01*
X34950000Y-21428000D02*
X34808000Y-21570000D01*
X34950000Y-21300000D02*
X34950000Y-21428000D01*
D38*
X43325000Y-18825000D02*
X43825000Y-19325000D01*
X42750000Y-18825000D02*
X43325000Y-18825000D01*
D11*
X35475000Y-19400000D02*
X35550000Y-19325000D01*
X35475000Y-21200000D02*
X35475000Y-19400000D01*
X42675000Y-19000000D02*
X42700000Y-18800000D01*
X42700000Y-18800000D02*
X42750000Y-18850000D01*
D38*
X43675000Y-26500000D02*
X43850000Y-26325000D01*
X42525000Y-26500000D02*
X43675000Y-26500000D01*
D11*
X42060000Y-26950000D02*
X42500000Y-26510000D01*
X42000000Y-26950000D02*
X42060000Y-26950000D01*
X42475000Y-26500000D02*
X42000000Y-26950000D01*
D38*
X43475000Y-24100000D02*
X43817499Y-24100000D01*
X43817499Y-24100000D02*
X43831075Y-24116029D01*
X42500000Y-25075000D02*
X43475000Y-24100000D01*
D11*
X35970000Y-23445000D02*
X35975000Y-23450000D01*
X35625000Y-23445000D02*
X35970000Y-23445000D01*
X43800000Y-24100000D02*
X43817499Y-24100000D01*
X43600000Y-23900000D02*
X43800000Y-24100000D01*
X42200000Y-25100000D02*
X42475000Y-25100000D01*
X41650000Y-24550000D02*
X42200000Y-25100000D01*
X41425000Y-24550000D02*
X41650000Y-24550000D01*
D38*
X43823426Y-21525000D02*
X43834526Y-21511895D01*
X43706350Y-21525000D02*
X43823426Y-21525000D01*
D11*
X38245000Y-24350000D02*
X38500000Y-24350000D01*
X38100000Y-24495000D02*
X38245000Y-24350000D01*
D38*
X43131350Y-22100000D02*
X43315675Y-21915675D01*
X42750000Y-22100000D02*
X43131350Y-22100000D01*
X43315675Y-21915675D02*
X43706350Y-21525000D01*
D11*
X37168299Y-22626701D02*
X37050000Y-22745000D01*
X37168299Y-22068299D02*
X37168299Y-22626701D01*
X36800000Y-21800000D02*
X36900000Y-21800000D01*
X36900000Y-21800000D02*
X37168299Y-22068299D01*
X38375001Y-24824999D02*
X38079999Y-24824999D01*
X38079999Y-24824999D02*
X37750000Y-24495000D01*
X38500000Y-24700000D02*
X38375001Y-24824999D01*
X42650000Y-24400000D02*
X42650000Y-24500000D01*
X42675000Y-24477162D02*
X42675000Y-24375000D01*
X42275000Y-24650000D02*
X42502162Y-24650000D01*
X42502162Y-24650000D02*
X42675000Y-24477162D01*
X40975000Y-24550000D02*
X41025000Y-24550000D01*
X40700000Y-24550000D02*
X40975000Y-24550000D01*
X41025000Y-24550000D02*
X41400000Y-24175000D01*
X41400000Y-24175000D02*
X41678222Y-24175000D01*
X42001611Y-24498389D02*
X42153222Y-24650000D01*
X42350000Y-24650000D02*
X42275000Y-24650000D01*
X42001611Y-24498389D02*
X42051201Y-24547979D01*
X42400000Y-24650000D02*
X42350000Y-24650000D01*
X42153222Y-24650000D02*
X42350000Y-24650000D01*
X41678222Y-24175000D02*
X42001611Y-24498389D01*
X42650000Y-23200000D02*
X42650000Y-23500000D01*
X34100000Y-21425000D02*
X34200000Y-21525000D01*
X34100000Y-20925000D02*
X34100000Y-21425000D01*
X33725000Y-21625000D02*
X33500000Y-21850000D01*
X34100000Y-21625000D02*
X33725000Y-21625000D01*
X33525000Y-21825000D02*
X33275000Y-21825000D01*
X33300000Y-21850000D02*
X33100000Y-21650000D01*
X33550000Y-21850000D02*
X33300000Y-21850000D01*
X33275000Y-21825000D02*
X33100000Y-21650000D01*
X32950000Y-21500000D02*
X33100000Y-21650000D01*
X30525000Y-20950000D02*
X31075000Y-21500000D01*
X29150802Y-20700000D02*
X29400802Y-20950000D01*
X31075000Y-21500000D02*
X32950000Y-21500000D01*
X30050000Y-20950000D02*
X30525000Y-20950000D01*
X29586000Y-20950000D02*
X30050000Y-20950000D01*
X29400802Y-20950000D02*
X29586000Y-20950000D01*
X18525000Y-22642838D02*
X18525000Y-22695000D01*
X21600000Y-20700000D02*
X20467838Y-20700000D01*
X21600000Y-20700000D02*
X29150802Y-20700000D01*
X20467838Y-20700000D02*
X18525000Y-22642838D01*
D38*
X34300000Y-21002000D02*
X34168000Y-20870000D01*
X34200000Y-21200000D02*
X34300000Y-21002000D01*
D11*
X33775000Y-20600000D02*
X33500000Y-20600000D01*
X34175000Y-20200000D02*
X33775000Y-20600000D01*
D38*
X33450000Y-20640000D02*
X33490000Y-20600000D01*
X33450000Y-21250000D02*
X33450000Y-20640000D01*
D11*
X36000000Y-22725000D02*
X35900000Y-22725000D01*
X35450000Y-22275000D02*
X34875000Y-22275000D01*
X35900000Y-22725000D02*
X35450000Y-22275000D01*
X29077814Y-20876210D02*
X22198790Y-20876210D01*
X29327814Y-21126210D02*
X29077814Y-20876210D01*
X30452012Y-21126210D02*
X29327814Y-21126210D01*
X31002012Y-21676210D02*
X30452012Y-21126210D01*
X33500000Y-22650000D02*
X32025000Y-22650000D01*
X22198790Y-20876210D02*
X22025000Y-21050000D01*
X32025000Y-22650000D02*
X31737500Y-22362500D01*
X31737500Y-22362500D02*
X31737500Y-22037500D01*
X31737500Y-22037500D02*
X31376210Y-21676210D01*
X31376210Y-21676210D02*
X31002012Y-21676210D01*
X34650000Y-22050000D02*
X34870000Y-22270000D01*
X41400000Y-21700000D02*
X41850000Y-21250000D01*
X41400000Y-21850000D02*
X41400000Y-21700000D01*
X21650000Y-19570000D02*
X22685000Y-18535000D01*
X36700000Y-21000000D02*
X36050000Y-21000000D01*
X36700000Y-21000000D02*
X37001201Y-21301201D01*
X37001201Y-21301201D02*
X37001201Y-21626201D01*
X37400000Y-22725000D02*
X37400000Y-22025000D01*
X36700000Y-19400000D02*
X36275000Y-18975000D01*
X36700000Y-21000000D02*
X36700000Y-19400000D01*
X37001201Y-21626201D02*
X37400000Y-22025000D01*
X38650000Y-20095000D02*
X38725000Y-20020000D01*
X38275000Y-20095000D02*
X38650000Y-20095000D01*
X41350000Y-18800000D02*
X41175000Y-18975000D01*
X41175000Y-18975000D02*
X41275000Y-18975000D01*
X38650000Y-20595000D02*
X38725000Y-20520000D01*
X38375000Y-20595000D02*
X38650000Y-20595000D01*
X39050000Y-20475000D02*
X38775000Y-20475000D01*
X39184201Y-19760039D02*
X39184201Y-20340799D01*
X38300000Y-19650000D02*
X39074162Y-19650000D01*
X37861201Y-19211201D02*
X38300000Y-19650000D01*
X39184201Y-20340799D02*
X39050000Y-20475000D01*
X37861201Y-18754423D02*
X37861201Y-19211201D01*
X37730577Y-18623799D02*
X37861201Y-18754423D01*
X39074162Y-19650000D02*
X39184201Y-19760039D01*
X37376201Y-18623799D02*
X37730577Y-18623799D01*
X37150000Y-18850000D02*
X37376201Y-18623799D01*
X33625000Y-18900000D02*
X34550000Y-18900000D01*
X34175000Y-18900000D02*
X33600000Y-18900000D01*
X34550000Y-18900000D02*
X34800000Y-19150000D01*
X35201201Y-20576201D02*
X34850000Y-20225000D01*
X36700000Y-22750000D02*
X36697918Y-22750000D01*
X36697918Y-22750000D02*
X36397918Y-22450000D01*
X36397918Y-22450000D02*
X35874198Y-22450000D01*
X35874198Y-22450000D02*
X35201201Y-21777003D01*
X35201201Y-21777003D02*
X35201201Y-20576201D01*
X36150000Y-21450000D02*
X36100000Y-21500000D01*
X36750000Y-21450000D02*
X36150000Y-21450000D01*
X37600000Y-22595000D02*
X37750000Y-22745000D01*
X37600000Y-21850000D02*
X37600000Y-22595000D01*
D39*
X40925000Y-25800000D02*
X40875000Y-25750000D01*
X41650000Y-25800000D02*
X40925000Y-25800000D01*
X41036332Y-25286332D02*
X40825000Y-25075000D01*
X41036332Y-25520412D02*
X41036332Y-25286332D01*
X40925000Y-25631744D02*
X41036332Y-25520412D01*
X40925000Y-25750000D02*
X40925000Y-25631744D01*
X34843668Y-25935588D02*
X34843668Y-26164412D01*
X35050000Y-25725000D02*
X35050000Y-25729256D01*
X35050000Y-25729256D02*
X34843668Y-25935588D01*
X34250000Y-25750000D02*
X34225000Y-25725000D01*
X35025000Y-25750000D02*
X34250000Y-25750000D01*
X33566210Y-25933790D02*
X33550000Y-25933790D01*
X34125000Y-25700000D02*
X33800000Y-25700000D01*
X33800000Y-25700000D02*
X33566210Y-25933790D01*
X34843668Y-26164412D02*
X35102128Y-26422872D01*
D11*
X40975000Y-23225000D02*
X40975000Y-22975000D01*
X40750000Y-23450000D02*
X40975000Y-23225000D01*
D38*
X37750000Y-23445000D02*
X38100000Y-23445000D01*
X38800000Y-23445000D02*
X39000000Y-23245000D01*
X38100000Y-23445000D02*
X38800000Y-23445000D01*
D39*
X39875000Y-25750000D02*
X39875000Y-26475000D01*
X39550000Y-25525000D02*
X39775000Y-25750000D01*
X39075000Y-23300000D02*
X39750000Y-23975000D01*
X39750000Y-23975000D02*
X39750000Y-24623791D01*
D38*
X39326201Y-25040599D02*
X39326201Y-25244577D01*
X39743009Y-24623791D02*
X39326201Y-25040599D01*
X39750000Y-24623791D02*
X39743009Y-24623791D01*
D11*
X38875000Y-26275000D02*
X38875000Y-26250000D01*
X38875000Y-26250000D02*
X38700000Y-26075000D01*
D39*
X39475000Y-26200000D02*
X39825000Y-26550000D01*
X38850000Y-26200000D02*
X39475000Y-26200000D01*
X39376210Y-25312832D02*
X39376210Y-25244577D01*
X39550000Y-25525000D02*
X39550000Y-25486622D01*
X39550000Y-25486622D02*
X39376210Y-25312832D01*
D38*
X39950000Y-23200000D02*
X40550000Y-23800000D01*
X39000000Y-23200000D02*
X39950000Y-23200000D01*
D11*
X34950000Y-20900000D02*
X34800000Y-20900000D01*
X30988000Y-17500000D02*
X31150000Y-17350000D01*
X31150000Y-17350000D02*
X31100000Y-17350000D01*
X38090000Y-21839360D02*
X38090000Y-22750000D01*
X37660000Y-21409360D02*
X38090000Y-21839360D01*
X37660000Y-19860000D02*
X37660000Y-21409360D01*
X31700000Y-20700000D02*
X31150000Y-20700000D01*
X32050000Y-20350000D02*
X31700000Y-20700000D01*
X32650000Y-20350000D02*
X32050000Y-20350000D01*
X33014111Y-19985889D02*
X32950000Y-20050000D01*
X32950000Y-20050000D02*
X32650000Y-20350000D01*
X37475000Y-19675000D02*
X37125000Y-19675000D01*
X37660000Y-19860000D02*
X37475000Y-19675000D01*
X32950000Y-20050000D02*
X33401201Y-19598799D01*
X34725000Y-19600000D02*
X34825000Y-19500000D01*
X33800000Y-19600000D02*
X34725000Y-19600000D01*
X33798799Y-19598799D02*
X33800000Y-19600000D01*
X33401201Y-19598799D02*
X33798799Y-19598799D01*
X30524999Y-18175001D02*
X30525000Y-18025000D01*
X30400000Y-18034000D02*
X30524999Y-18175001D01*
X38331701Y-21831863D02*
X38331701Y-22856217D01*
X37610000Y-18875000D02*
X37610000Y-19390000D01*
X38023799Y-19803799D02*
X38023799Y-21523961D01*
X38023799Y-21523961D02*
X38331701Y-21831863D01*
X37610000Y-19390000D02*
X38023799Y-19803799D01*
X31750000Y-19600000D02*
X32075000Y-19275000D01*
X32075000Y-19275000D02*
X32905000Y-19275000D01*
X32905000Y-19275000D02*
X32977500Y-19202500D01*
X31750000Y-19850000D02*
X31750000Y-19600000D01*
X33329423Y-18323799D02*
X34473799Y-18323799D01*
X34473799Y-18323799D02*
X34975000Y-18825000D01*
X32977500Y-18675722D02*
X33329423Y-18323799D01*
X32977500Y-19202500D02*
X32977500Y-18675722D01*
X38331701Y-22863299D02*
X38331701Y-22856217D01*
X38100000Y-23095000D02*
X38331701Y-22863299D01*
X27850000Y-18675000D02*
X27900000Y-18625000D01*
D39*
X28600000Y-18075000D02*
X27925000Y-18750000D01*
X29000000Y-18075000D02*
X28600000Y-18075000D01*
D11*
X39125000Y-27175000D02*
X39025000Y-27275000D01*
X40125000Y-27175000D02*
X39125000Y-27175000D01*
D40*
X26600000Y-17662838D02*
X26600000Y-17950000D01*
X27274039Y-16988799D02*
X26600000Y-17662838D01*
X28563799Y-16988799D02*
X27274039Y-16988799D01*
X29050000Y-17475000D02*
X28563799Y-16988799D01*
D11*
X33450000Y-27000000D02*
X33500000Y-27050000D01*
X33400000Y-27000000D02*
X33450000Y-27000000D01*
X37050000Y-24775000D02*
X37000000Y-24825000D01*
X37050000Y-24530000D02*
X37050000Y-24775000D01*
X23825000Y-20050000D02*
X24122580Y-20347580D01*
X23825000Y-19750000D02*
X23825000Y-20050000D01*
X24122580Y-20347580D02*
X28777420Y-20347580D01*
X28777420Y-20347580D02*
X29075000Y-20050000D01*
X29075000Y-20050000D02*
X29075000Y-19150000D01*
X29075000Y-19150000D02*
X29398790Y-18826210D01*
X31423790Y-18826210D02*
X31725000Y-18525000D01*
X29398790Y-18826210D02*
X31423790Y-18826210D01*
X31725000Y-17100000D02*
X31600000Y-16975000D01*
X31725000Y-18525000D02*
X31725000Y-17100000D01*
X30725000Y-16975000D02*
X30375000Y-17325000D01*
X31600000Y-16975000D02*
X30725000Y-16975000D01*
X25225000Y-20075000D02*
X25225000Y-19575000D01*
X28300000Y-20075000D02*
X25225000Y-20075000D01*
X28500000Y-19875000D02*
X28300000Y-20075000D01*
X31075000Y-18075000D02*
X30500000Y-18650000D01*
X31075000Y-18050000D02*
X31075000Y-18075000D01*
X28500000Y-19200000D02*
X28500000Y-19875000D01*
X30500000Y-18650000D02*
X29050000Y-18650000D01*
X29050000Y-18650000D02*
X28500000Y-19200000D01*
D38*
X42500000Y-21500000D02*
X42350000Y-21500000D01*
X42350000Y-21500000D02*
X42000000Y-21850000D01*
X42000000Y-21850000D02*
X42000000Y-22400000D01*
X42350000Y-22750000D02*
X42550000Y-22750000D01*
X42000000Y-22400000D02*
X42350000Y-22750000D01*
X40725000Y-22100000D02*
X40725000Y-22400000D01*
D11*
X42500000Y-23850000D02*
X42450000Y-23850000D01*
D38*
X41826201Y-23268363D02*
X42457838Y-23900000D01*
X40725000Y-22100000D02*
X40725000Y-22392162D01*
X40725000Y-22392162D02*
X41012060Y-22679222D01*
X41012060Y-22679222D02*
X41600000Y-22679222D01*
X41600000Y-22679222D02*
X41826201Y-22905423D01*
X42457838Y-23900000D02*
X42550000Y-23900000D01*
X41826201Y-22905423D02*
X41826201Y-23268363D01*
D11*
X39725000Y-18970000D02*
X39725000Y-18775000D01*
X40601209Y-19798791D02*
X40550000Y-19850000D01*
X40430961Y-18548799D02*
X40601209Y-18719047D01*
X40601209Y-18719047D02*
X40601209Y-19798791D01*
X39951201Y-18548799D02*
X40430961Y-18548799D01*
X39725000Y-18775000D02*
X39951201Y-18548799D01*
D40*
X40700000Y-20500000D02*
X41250000Y-19950000D01*
X40625000Y-20500000D02*
X40700000Y-20500000D01*
X42300000Y-19950000D02*
X42475000Y-20125000D01*
X41850000Y-19950000D02*
X42300000Y-19950000D01*
X42275000Y-20575000D02*
X42575000Y-20875000D01*
X41950000Y-20575000D02*
X42275000Y-20575000D01*
D38*
X19054920Y-27337500D02*
X19592420Y-26800000D01*
X18561878Y-27337500D02*
X19012500Y-27337500D01*
X17899378Y-28000000D02*
X18561878Y-27337500D01*
X19012500Y-27337500D02*
X19054920Y-27337500D01*
X22593799Y-26196201D02*
X22303799Y-26196201D01*
X23520000Y-25270000D02*
X22593799Y-26196201D01*
X21700000Y-26800000D02*
X20900000Y-26800000D01*
X22303799Y-26196201D02*
X21700000Y-26800000D01*
X19592420Y-26800000D02*
X20900000Y-26800000D01*
D11*
X34750000Y-23900000D02*
X35000000Y-23900000D01*
X34625000Y-23825000D02*
X34675000Y-23875000D01*
X33475000Y-23825000D02*
X34625000Y-23825000D01*
X34913000Y-24145000D02*
X34648000Y-23880000D01*
X36000000Y-24145000D02*
X34913000Y-24145000D01*
X34150000Y-25175000D02*
X34675000Y-24650000D01*
X33450000Y-25175000D02*
X34150000Y-25175000D01*
X34858000Y-24495000D02*
X34648000Y-24705000D01*
X36000000Y-24495000D02*
X34858000Y-24495000D01*
X41900000Y-26575000D02*
X41825000Y-26650000D01*
X41900000Y-26450000D02*
X41900000Y-26575000D01*
X37375000Y-24725000D02*
X37525000Y-24875000D01*
X37375000Y-24525000D02*
X37375000Y-24725000D01*
D38*
X38875000Y-26775000D02*
X38725000Y-26625000D01*
X38875000Y-26900000D02*
X38875000Y-26775000D01*
X19500000Y-28000000D02*
X18520000Y-28000000D01*
X20100000Y-27400000D02*
X19500000Y-28000000D01*
X21500000Y-27400000D02*
X20100000Y-27400000D01*
X24200000Y-27900000D02*
X22000000Y-27900000D01*
X22000000Y-27900000D02*
X21500000Y-27400000D01*
D11*
X35603222Y-23795000D02*
X36000000Y-23795000D01*
X35208222Y-23400000D02*
X35603222Y-23795000D01*
X34000000Y-23400000D02*
X35208222Y-23400000D01*
X34450000Y-27100000D02*
X34300000Y-27250000D01*
X34925000Y-27100000D02*
X34450000Y-27100000D01*
X14200000Y-28000000D02*
X14200000Y-27875000D01*
D38*
X15453790Y-22706210D02*
X17150000Y-21010000D01*
X15453790Y-22706210D02*
X15453790Y-26666210D01*
X17140000Y-21020000D02*
X15453790Y-22706210D01*
X15235000Y-26885000D02*
X15235000Y-27315000D01*
X15453790Y-26666210D02*
X15235000Y-26885000D01*
X14550000Y-28000000D02*
X14140000Y-28000000D01*
X15235000Y-27315000D02*
X14550000Y-28000000D01*
X18510000Y-23580000D02*
X17950000Y-24140000D01*
X17950000Y-25510000D02*
X17630000Y-25830000D01*
X17950000Y-24140000D02*
X17950000Y-25510000D01*
X17630000Y-25830000D02*
X16430000Y-25830000D01*
X15730000Y-26530000D02*
X15730000Y-27960000D01*
X16430000Y-25830000D02*
X15730000Y-26530000D01*
D11*
X36350000Y-24975000D02*
X36850000Y-25475000D01*
X36350000Y-24525000D02*
X36350000Y-24975000D01*
X37693790Y-25143790D02*
X38025000Y-25475000D01*
X38025000Y-25475000D02*
X38225000Y-25475000D01*
X36700000Y-24900000D02*
X36943790Y-25143790D01*
X36700000Y-24500000D02*
X36700000Y-24900000D01*
X36943790Y-25143790D02*
X37693790Y-25143790D01*
D41*
G36*
X45188529Y-18293638D02*
G01*
X45206151Y-18355315D01*
X45223728Y-18425622D01*
X45223729Y-18425626D01*
X45243059Y-18502943D01*
X45250361Y-18568662D01*
X45250304Y-18569408D01*
X45252005Y-18583457D01*
X45252754Y-18590202D01*
X45252910Y-18590939D01*
X45253001Y-18591689D01*
X45254472Y-18598308D01*
X45257407Y-18612157D01*
X45257703Y-18612847D01*
X45273436Y-18683643D01*
X45273729Y-18685626D01*
X45275056Y-18690936D01*
X45276239Y-18696257D01*
X45276861Y-18698155D01*
X45294661Y-18769354D01*
X45312805Y-18860073D01*
X45313001Y-18861689D01*
X45314277Y-18867429D01*
X45315416Y-18873126D01*
X45315885Y-18874666D01*
X45332655Y-18950130D01*
X45341993Y-19043505D01*
X45342489Y-19048492D01*
X45342494Y-19048515D01*
X45342497Y-19048549D01*
X45343891Y-19055502D01*
X45362489Y-19148490D01*
X45362489Y-19148492D01*
X45382493Y-19248513D01*
X45391622Y-19339804D01*
X45392117Y-19345848D01*
X45392361Y-19347191D01*
X45392497Y-19348549D01*
X45393690Y-19354500D01*
X45412361Y-19457187D01*
X45421622Y-19549804D01*
X45422117Y-19555848D01*
X45422361Y-19557191D01*
X45422497Y-19558549D01*
X45423690Y-19564500D01*
X45442238Y-19666514D01*
X45451579Y-19769257D01*
X45461554Y-19888964D01*
X45462117Y-19895848D01*
X45462136Y-19895954D01*
X45462145Y-19896059D01*
X45463405Y-19902930D01*
X45482137Y-20005954D01*
X45492145Y-20126059D01*
X45498140Y-20198000D01*
X43152000Y-20198000D01*
X43152000Y-18268000D01*
X45178915Y-18268000D01*
X45188529Y-18293638D01*
G37*
X45188529Y-18293638D02*
X45206151Y-18355315D01*
X45223728Y-18425622D01*
X45223729Y-18425626D01*
X45243059Y-18502943D01*
X45250361Y-18568662D01*
X45250304Y-18569408D01*
X45252005Y-18583457D01*
X45252754Y-18590202D01*
X45252910Y-18590939D01*
X45253001Y-18591689D01*
X45254472Y-18598308D01*
X45257407Y-18612157D01*
X45257703Y-18612847D01*
X45273436Y-18683643D01*
X45273729Y-18685626D01*
X45275056Y-18690936D01*
X45276239Y-18696257D01*
X45276861Y-18698155D01*
X45294661Y-18769354D01*
X45312805Y-18860073D01*
X45313001Y-18861689D01*
X45314277Y-18867429D01*
X45315416Y-18873126D01*
X45315885Y-18874666D01*
X45332655Y-18950130D01*
X45341993Y-19043505D01*
X45342489Y-19048492D01*
X45342494Y-19048515D01*
X45342497Y-19048549D01*
X45343891Y-19055502D01*
X45362489Y-19148490D01*
X45362489Y-19148492D01*
X45382493Y-19248513D01*
X45391622Y-19339804D01*
X45392117Y-19345848D01*
X45392361Y-19347191D01*
X45392497Y-19348549D01*
X45393690Y-19354500D01*
X45412361Y-19457187D01*
X45421622Y-19549804D01*
X45422117Y-19555848D01*
X45422361Y-19557191D01*
X45422497Y-19558549D01*
X45423690Y-19564500D01*
X45442238Y-19666514D01*
X45451579Y-19769257D01*
X45461554Y-19888964D01*
X45462117Y-19895848D01*
X45462136Y-19895954D01*
X45462145Y-19896059D01*
X45463405Y-19902930D01*
X45482137Y-20005954D01*
X45492145Y-20126059D01*
X45498140Y-20198000D01*
X43152000Y-20198000D01*
X43152000Y-18268000D01*
X45178915Y-18268000D01*
X45188529Y-18293638D01*
G36*
X45500673Y-25403607D02*
G01*
X45492146Y-25505937D01*
X45492145Y-25505941D01*
X45482137Y-25626046D01*
X45463405Y-25729070D01*
X45462145Y-25735941D01*
X45462136Y-25736046D01*
X45462117Y-25736152D01*
X45461554Y-25743036D01*
X45451579Y-25862743D01*
X45442238Y-25965486D01*
X45423690Y-26067500D01*
X45422497Y-26073451D01*
X45422361Y-26074809D01*
X45422117Y-26076152D01*
X45421622Y-26082196D01*
X45412361Y-26174813D01*
X45393690Y-26277500D01*
X45392497Y-26283451D01*
X45392361Y-26284809D01*
X45392117Y-26286152D01*
X45391622Y-26292196D01*
X45382493Y-26383487D01*
X45363631Y-26477797D01*
X45343891Y-26576498D01*
X45342497Y-26583451D01*
X45342494Y-26583485D01*
X45342489Y-26583508D01*
X45342128Y-26587138D01*
X45332655Y-26681870D01*
X45315885Y-26757334D01*
X45315416Y-26758874D01*
X45314277Y-26764571D01*
X45313001Y-26770311D01*
X45312805Y-26771927D01*
X45294661Y-26862646D01*
X45276861Y-26933845D01*
X45276239Y-26935743D01*
X45275056Y-26941064D01*
X45273729Y-26946374D01*
X45273436Y-26948357D01*
X45257703Y-27019153D01*
X45257407Y-27019843D01*
X45254472Y-27033692D01*
X45253001Y-27040311D01*
X45252910Y-27041061D01*
X45252754Y-27041798D01*
X45252005Y-27048543D01*
X45250304Y-27062592D01*
X45250361Y-27063338D01*
X45243059Y-27129057D01*
X45224359Y-27203855D01*
X45206151Y-27276685D01*
X45188529Y-27338362D01*
X45178915Y-27364000D01*
X44385079Y-27364000D01*
X44381571Y-27332728D01*
X44378695Y-27319197D01*
X44376030Y-27305738D01*
X44375403Y-27303710D01*
X44328193Y-27154886D01*
X44322762Y-27142215D01*
X44317516Y-27129486D01*
X44316507Y-27127619D01*
X44241290Y-26990800D01*
X44233488Y-26979406D01*
X44225882Y-26967957D01*
X44224530Y-26966322D01*
X44124170Y-26846718D01*
X44114293Y-26837046D01*
X44104619Y-26827304D01*
X44102974Y-26825962D01*
X43981295Y-26728130D01*
X43969775Y-26720592D01*
X43958345Y-26712882D01*
X43956472Y-26711886D01*
X43818106Y-26639550D01*
X43805325Y-26634386D01*
X43792633Y-26629051D01*
X43790602Y-26628438D01*
X43790600Y-26628437D01*
X43790596Y-26628436D01*
X43640821Y-26584354D01*
X43627284Y-26581772D01*
X43613794Y-26579003D01*
X43611682Y-26578796D01*
X43456191Y-26564645D01*
X43442415Y-26564741D01*
X43428638Y-26564645D01*
X43426526Y-26564852D01*
X43271249Y-26581173D01*
X43257753Y-26583943D01*
X43244222Y-26586524D01*
X43242195Y-26587137D01*
X43242189Y-26587138D01*
X43242183Y-26587140D01*
X43102000Y-26630534D01*
X43102000Y-25399707D01*
X45500673Y-25403607D01*
G37*
X45500673Y-25403607D02*
X45492146Y-25505937D01*
X45492145Y-25505941D01*
X45482137Y-25626046D01*
X45463405Y-25729070D01*
X45462145Y-25735941D01*
X45462136Y-25736046D01*
X45462117Y-25736152D01*
X45461554Y-25743036D01*
X45451579Y-25862743D01*
X45442238Y-25965486D01*
X45423690Y-26067500D01*
X45422497Y-26073451D01*
X45422361Y-26074809D01*
X45422117Y-26076152D01*
X45421622Y-26082196D01*
X45412361Y-26174813D01*
X45393690Y-26277500D01*
X45392497Y-26283451D01*
X45392361Y-26284809D01*
X45392117Y-26286152D01*
X45391622Y-26292196D01*
X45382493Y-26383487D01*
X45363631Y-26477797D01*
X45343891Y-26576498D01*
X45342497Y-26583451D01*
X45342494Y-26583485D01*
X45342489Y-26583508D01*
X45342128Y-26587138D01*
X45332655Y-26681870D01*
X45315885Y-26757334D01*
X45315416Y-26758874D01*
X45314277Y-26764571D01*
X45313001Y-26770311D01*
X45312805Y-26771927D01*
X45294661Y-26862646D01*
X45276861Y-26933845D01*
X45276239Y-26935743D01*
X45275056Y-26941064D01*
X45273729Y-26946374D01*
X45273436Y-26948357D01*
X45257703Y-27019153D01*
X45257407Y-27019843D01*
X45254472Y-27033692D01*
X45253001Y-27040311D01*
X45252910Y-27041061D01*
X45252754Y-27041798D01*
X45252005Y-27048543D01*
X45250304Y-27062592D01*
X45250361Y-27063338D01*
X45243059Y-27129057D01*
X45224359Y-27203855D01*
X45206151Y-27276685D01*
X45188529Y-27338362D01*
X45178915Y-27364000D01*
X44385079Y-27364000D01*
X44381571Y-27332728D01*
X44378695Y-27319197D01*
X44376030Y-27305738D01*
X44375403Y-27303710D01*
X44328193Y-27154886D01*
X44322762Y-27142215D01*
X44317516Y-27129486D01*
X44316507Y-27127619D01*
X44241290Y-26990800D01*
X44233488Y-26979406D01*
X44225882Y-26967957D01*
X44224530Y-26966322D01*
X44124170Y-26846718D01*
X44114293Y-26837046D01*
X44104619Y-26827304D01*
X44102974Y-26825962D01*
X43981295Y-26728130D01*
X43969775Y-26720592D01*
X43958345Y-26712882D01*
X43956472Y-26711886D01*
X43818106Y-26639550D01*
X43805325Y-26634386D01*
X43792633Y-26629051D01*
X43790602Y-26628438D01*
X43790600Y-26628437D01*
X43790596Y-26628436D01*
X43640821Y-26584354D01*
X43627284Y-26581772D01*
X43613794Y-26579003D01*
X43611682Y-26578796D01*
X43456191Y-26564645D01*
X43442415Y-26564741D01*
X43428638Y-26564645D01*
X43426526Y-26564852D01*
X43271249Y-26581173D01*
X43257753Y-26583943D01*
X43244222Y-26586524D01*
X43242195Y-26587137D01*
X43242189Y-26587138D01*
X43242183Y-26587140D01*
X43102000Y-26630534D01*
X43102000Y-25399707D01*
X45500673Y-25403607D01*
G36*
X45540913Y-20720698D02*
G01*
X45540906Y-20721186D01*
X45541490Y-20728195D01*
X45542021Y-20735097D01*
X45542105Y-20735570D01*
X45551490Y-20848199D01*
X45560913Y-20970698D01*
X45560906Y-20971186D01*
X45561490Y-20978195D01*
X45562021Y-20985097D01*
X45562105Y-20985570D01*
X45571490Y-21098199D01*
X45581000Y-21221824D01*
X45581000Y-21344421D01*
X45580876Y-21350217D01*
X45581000Y-21351829D01*
X45581000Y-21353461D01*
X45581573Y-21359280D01*
X45590876Y-21480213D01*
X45590876Y-21480217D01*
X45601000Y-21611824D01*
X45601000Y-21744421D01*
X45600876Y-21750217D01*
X45601000Y-21751829D01*
X45601000Y-21753461D01*
X45601573Y-21759280D01*
X45611000Y-21881824D01*
X45611000Y-22144421D01*
X45610876Y-22150217D01*
X45611000Y-22151829D01*
X45611000Y-22153461D01*
X45611573Y-22159280D01*
X45621000Y-22281824D01*
X45621000Y-22441682D01*
X45205000Y-22444460D01*
X45205000Y-21959523D01*
X45204955Y-21959070D01*
X45204939Y-21956709D01*
X45204312Y-21950742D01*
X45204312Y-21944742D01*
X45204119Y-21942909D01*
X45191066Y-21826539D01*
X45188581Y-21814846D01*
X45186255Y-21803101D01*
X45185710Y-21801340D01*
X45150302Y-21689721D01*
X45145575Y-21678693D01*
X45141030Y-21667665D01*
X45140153Y-21666043D01*
X45083741Y-21563429D01*
X45076967Y-21553536D01*
X45070361Y-21543593D01*
X45069190Y-21542178D01*
X45069186Y-21542172D01*
X45069181Y-21542167D01*
X44993916Y-21452468D01*
X44985367Y-21444096D01*
X44976938Y-21435608D01*
X44975509Y-21434443D01*
X44884250Y-21361068D01*
X44874216Y-21354502D01*
X44864320Y-21347827D01*
X44862697Y-21346965D01*
X44862693Y-21346962D01*
X44862689Y-21346960D01*
X44758918Y-21292711D01*
X44747813Y-21288224D01*
X44736797Y-21283593D01*
X44735033Y-21283060D01*
X44622698Y-21249999D01*
X44610937Y-21247755D01*
X44599227Y-21245351D01*
X44597392Y-21245171D01*
X44480774Y-21234558D01*
X44468777Y-21234642D01*
X44456847Y-21234558D01*
X44455013Y-21234738D01*
X44338555Y-21246978D01*
X44326781Y-21249395D01*
X44315084Y-21251626D01*
X44313320Y-21252158D01*
X44201458Y-21286785D01*
X44190385Y-21291439D01*
X44179337Y-21295903D01*
X44177709Y-21296768D01*
X44074702Y-21352463D01*
X44064757Y-21359171D01*
X44054772Y-21365705D01*
X44053344Y-21366870D01*
X43963118Y-21441512D01*
X43954692Y-21449997D01*
X43946140Y-21458371D01*
X43944965Y-21459791D01*
X43870955Y-21550537D01*
X43864348Y-21560481D01*
X43857575Y-21570373D01*
X43856698Y-21571995D01*
X43801723Y-21675388D01*
X43797160Y-21686458D01*
X43792451Y-21697445D01*
X43791906Y-21699206D01*
X43758061Y-21811307D01*
X43755735Y-21823052D01*
X43753250Y-21834745D01*
X43753057Y-21836578D01*
X43752185Y-21845476D01*
X43681561Y-21853398D01*
X43669836Y-21855890D01*
X43658123Y-21858209D01*
X43656362Y-21858754D01*
X43498237Y-21908914D01*
X43487247Y-21913624D01*
X43476179Y-21918186D01*
X43474562Y-21919060D01*
X43474558Y-21919062D01*
X43474557Y-21919063D01*
X43329186Y-21998982D01*
X43319325Y-22005734D01*
X43309351Y-22012361D01*
X43307931Y-22013536D01*
X43180850Y-22120168D01*
X43172478Y-22128717D01*
X43163990Y-22137146D01*
X43162826Y-22138574D01*
X43154357Y-22149108D01*
X43152187Y-20677000D01*
X45537552Y-20677000D01*
X45540913Y-20720698D01*
G37*
X45540913Y-20720698D02*
X45540906Y-20721186D01*
X45541490Y-20728195D01*
X45542021Y-20735097D01*
X45542105Y-20735570D01*
X45551490Y-20848199D01*
X45560913Y-20970698D01*
X45560906Y-20971186D01*
X45561490Y-20978195D01*
X45562021Y-20985097D01*
X45562105Y-20985570D01*
X45571490Y-21098199D01*
X45581000Y-21221824D01*
X45581000Y-21344421D01*
X45580876Y-21350217D01*
X45581000Y-21351829D01*
X45581000Y-21353461D01*
X45581573Y-21359280D01*
X45590876Y-21480213D01*
X45590876Y-21480217D01*
X45601000Y-21611824D01*
X45601000Y-21744421D01*
X45600876Y-21750217D01*
X45601000Y-21751829D01*
X45601000Y-21753461D01*
X45601573Y-21759280D01*
X45611000Y-21881824D01*
X45611000Y-22144421D01*
X45610876Y-22150217D01*
X45611000Y-22151829D01*
X45611000Y-22153461D01*
X45611573Y-22159280D01*
X45621000Y-22281824D01*
X45621000Y-22441682D01*
X45205000Y-22444460D01*
X45205000Y-21959523D01*
X45204955Y-21959070D01*
X45204939Y-21956709D01*
X45204312Y-21950742D01*
X45204312Y-21944742D01*
X45204119Y-21942909D01*
X45191066Y-21826539D01*
X45188581Y-21814846D01*
X45186255Y-21803101D01*
X45185710Y-21801340D01*
X45150302Y-21689721D01*
X45145575Y-21678693D01*
X45141030Y-21667665D01*
X45140153Y-21666043D01*
X45083741Y-21563429D01*
X45076967Y-21553536D01*
X45070361Y-21543593D01*
X45069190Y-21542178D01*
X45069186Y-21542172D01*
X45069181Y-21542167D01*
X44993916Y-21452468D01*
X44985367Y-21444096D01*
X44976938Y-21435608D01*
X44975509Y-21434443D01*
X44884250Y-21361068D01*
X44874216Y-21354502D01*
X44864320Y-21347827D01*
X44862697Y-21346965D01*
X44862693Y-21346962D01*
X44862689Y-21346960D01*
X44758918Y-21292711D01*
X44747813Y-21288224D01*
X44736797Y-21283593D01*
X44735033Y-21283060D01*
X44622698Y-21249999D01*
X44610937Y-21247755D01*
X44599227Y-21245351D01*
X44597392Y-21245171D01*
X44480774Y-21234558D01*
X44468777Y-21234642D01*
X44456847Y-21234558D01*
X44455013Y-21234738D01*
X44338555Y-21246978D01*
X44326781Y-21249395D01*
X44315084Y-21251626D01*
X44313320Y-21252158D01*
X44201458Y-21286785D01*
X44190385Y-21291439D01*
X44179337Y-21295903D01*
X44177709Y-21296768D01*
X44074702Y-21352463D01*
X44064757Y-21359171D01*
X44054772Y-21365705D01*
X44053344Y-21366870D01*
X43963118Y-21441512D01*
X43954692Y-21449997D01*
X43946140Y-21458371D01*
X43944965Y-21459791D01*
X43870955Y-21550537D01*
X43864348Y-21560481D01*
X43857575Y-21570373D01*
X43856698Y-21571995D01*
X43801723Y-21675388D01*
X43797160Y-21686458D01*
X43792451Y-21697445D01*
X43791906Y-21699206D01*
X43758061Y-21811307D01*
X43755735Y-21823052D01*
X43753250Y-21834745D01*
X43753057Y-21836578D01*
X43752185Y-21845476D01*
X43681561Y-21853398D01*
X43669836Y-21855890D01*
X43658123Y-21858209D01*
X43656362Y-21858754D01*
X43498237Y-21908914D01*
X43487247Y-21913624D01*
X43476179Y-21918186D01*
X43474562Y-21919060D01*
X43474558Y-21919062D01*
X43474557Y-21919063D01*
X43329186Y-21998982D01*
X43319325Y-22005734D01*
X43309351Y-22012361D01*
X43307931Y-22013536D01*
X43180850Y-22120168D01*
X43172478Y-22128717D01*
X43163990Y-22137146D01*
X43162826Y-22138574D01*
X43154357Y-22149108D01*
X43152187Y-20677000D01*
X45537552Y-20677000D01*
X45540913Y-20720698D01*
G36*
X45621000Y-23350176D02*
G01*
X45611574Y-23472715D01*
X45611000Y-23478538D01*
X45611000Y-23480171D01*
X45610876Y-23481783D01*
X45611000Y-23487579D01*
X45611000Y-23750176D01*
X45601574Y-23872715D01*
X45601000Y-23878538D01*
X45601000Y-23880171D01*
X45600876Y-23881783D01*
X45601000Y-23887579D01*
X45601000Y-24020176D01*
X45590876Y-24151783D01*
X45581574Y-24272715D01*
X45581000Y-24278538D01*
X45581000Y-24280171D01*
X45580876Y-24281783D01*
X45581000Y-24287579D01*
X45581000Y-24410176D01*
X45571490Y-24533801D01*
X45562105Y-24646430D01*
X45562021Y-24646903D01*
X45561490Y-24653805D01*
X45560906Y-24660814D01*
X45560913Y-24661302D01*
X45551490Y-24783801D01*
X45542105Y-24896430D01*
X45542021Y-24896903D01*
X45541490Y-24903805D01*
X45540906Y-24910814D01*
X45540913Y-24911302D01*
X45538090Y-24948000D01*
X43102000Y-24948000D01*
X43102000Y-23418233D01*
X43172353Y-23503275D01*
X43180874Y-23511737D01*
X43189213Y-23520253D01*
X43190633Y-23521428D01*
X43319189Y-23626276D01*
X43329193Y-23632922D01*
X43339026Y-23639655D01*
X43340647Y-23640532D01*
X43487120Y-23718413D01*
X43498190Y-23722976D01*
X43509177Y-23727685D01*
X43510938Y-23728230D01*
X43669748Y-23776178D01*
X43681508Y-23778506D01*
X43693187Y-23780989D01*
X43695020Y-23781182D01*
X43752847Y-23786852D01*
X43754934Y-23805461D01*
X43757423Y-23817173D01*
X43759745Y-23828900D01*
X43760290Y-23830661D01*
X43795698Y-23942279D01*
X43800423Y-23953303D01*
X43804970Y-23964335D01*
X43805846Y-23965956D01*
X43862259Y-24068571D01*
X43869033Y-24078464D01*
X43875639Y-24088407D01*
X43876814Y-24089828D01*
X43952084Y-24179532D01*
X43960633Y-24187904D01*
X43969062Y-24196392D01*
X43970490Y-24197557D01*
X44061750Y-24270931D01*
X44071758Y-24277480D01*
X44081680Y-24284173D01*
X44083303Y-24285035D01*
X44083307Y-24285038D01*
X44083311Y-24285040D01*
X44187081Y-24339289D01*
X44198200Y-24343781D01*
X44209203Y-24348407D01*
X44210961Y-24348937D01*
X44210968Y-24348940D01*
X44210975Y-24348941D01*
X44323302Y-24382001D01*
X44335069Y-24384246D01*
X44346773Y-24386649D01*
X44348606Y-24386829D01*
X44348608Y-24386829D01*
X44465226Y-24397442D01*
X44477222Y-24397358D01*
X44489152Y-24397442D01*
X44490987Y-24397262D01*
X44607444Y-24385022D01*
X44619205Y-24382608D01*
X44630916Y-24380374D01*
X44632680Y-24379842D01*
X44744543Y-24345215D01*
X44755629Y-24340555D01*
X44766663Y-24336097D01*
X44768287Y-24335234D01*
X44768292Y-24335232D01*
X44768296Y-24335229D01*
X44871298Y-24279537D01*
X44881259Y-24272818D01*
X44891228Y-24266295D01*
X44892649Y-24265136D01*
X44892656Y-24265131D01*
X44892662Y-24265125D01*
X44982882Y-24190488D01*
X44991308Y-24182003D01*
X44999860Y-24173629D01*
X45001034Y-24172209D01*
X45075045Y-24081463D01*
X45081685Y-24071470D01*
X45088425Y-24061626D01*
X45089299Y-24060010D01*
X45089302Y-24060006D01*
X45089304Y-24060002D01*
X45144277Y-23956612D01*
X45148846Y-23945528D01*
X45153549Y-23934554D01*
X45154094Y-23932794D01*
X45187939Y-23820693D01*
X45190265Y-23808948D01*
X45192750Y-23797255D01*
X45192943Y-23795422D01*
X45204370Y-23678881D01*
X45204370Y-23678872D01*
X45205000Y-23672477D01*
X45205000Y-23127000D01*
X45621000Y-23127000D01*
X45621000Y-23350176D01*
G37*
X45621000Y-23350176D02*
X45611574Y-23472715D01*
X45611000Y-23478538D01*
X45611000Y-23480171D01*
X45610876Y-23481783D01*
X45611000Y-23487579D01*
X45611000Y-23750176D01*
X45601574Y-23872715D01*
X45601000Y-23878538D01*
X45601000Y-23880171D01*
X45600876Y-23881783D01*
X45601000Y-23887579D01*
X45601000Y-24020176D01*
X45590876Y-24151783D01*
X45581574Y-24272715D01*
X45581000Y-24278538D01*
X45581000Y-24280171D01*
X45580876Y-24281783D01*
X45581000Y-24287579D01*
X45581000Y-24410176D01*
X45571490Y-24533801D01*
X45562105Y-24646430D01*
X45562021Y-24646903D01*
X45561490Y-24653805D01*
X45560906Y-24660814D01*
X45560913Y-24661302D01*
X45551490Y-24783801D01*
X45542105Y-24896430D01*
X45542021Y-24896903D01*
X45541490Y-24903805D01*
X45540906Y-24910814D01*
X45540913Y-24911302D01*
X45538090Y-24948000D01*
X43102000Y-24948000D01*
X43102000Y-23418233D01*
X43172353Y-23503275D01*
X43180874Y-23511737D01*
X43189213Y-23520253D01*
X43190633Y-23521428D01*
X43319189Y-23626276D01*
X43329193Y-23632922D01*
X43339026Y-23639655D01*
X43340647Y-23640532D01*
X43487120Y-23718413D01*
X43498190Y-23722976D01*
X43509177Y-23727685D01*
X43510938Y-23728230D01*
X43669748Y-23776178D01*
X43681508Y-23778506D01*
X43693187Y-23780989D01*
X43695020Y-23781182D01*
X43752847Y-23786852D01*
X43754934Y-23805461D01*
X43757423Y-23817173D01*
X43759745Y-23828900D01*
X43760290Y-23830661D01*
X43795698Y-23942279D01*
X43800423Y-23953303D01*
X43804970Y-23964335D01*
X43805846Y-23965956D01*
X43862259Y-24068571D01*
X43869033Y-24078464D01*
X43875639Y-24088407D01*
X43876814Y-24089828D01*
X43952084Y-24179532D01*
X43960633Y-24187904D01*
X43969062Y-24196392D01*
X43970490Y-24197557D01*
X44061750Y-24270931D01*
X44071758Y-24277480D01*
X44081680Y-24284173D01*
X44083303Y-24285035D01*
X44083307Y-24285038D01*
X44083311Y-24285040D01*
X44187081Y-24339289D01*
X44198200Y-24343781D01*
X44209203Y-24348407D01*
X44210961Y-24348937D01*
X44210968Y-24348940D01*
X44210975Y-24348941D01*
X44323302Y-24382001D01*
X44335069Y-24384246D01*
X44346773Y-24386649D01*
X44348606Y-24386829D01*
X44348608Y-24386829D01*
X44465226Y-24397442D01*
X44477222Y-24397358D01*
X44489152Y-24397442D01*
X44490987Y-24397262D01*
X44607444Y-24385022D01*
X44619205Y-24382608D01*
X44630916Y-24380374D01*
X44632680Y-24379842D01*
X44744543Y-24345215D01*
X44755629Y-24340555D01*
X44766663Y-24336097D01*
X44768287Y-24335234D01*
X44768292Y-24335232D01*
X44768296Y-24335229D01*
X44871298Y-24279537D01*
X44881259Y-24272818D01*
X44891228Y-24266295D01*
X44892649Y-24265136D01*
X44892656Y-24265131D01*
X44892662Y-24265125D01*
X44982882Y-24190488D01*
X44991308Y-24182003D01*
X44999860Y-24173629D01*
X45001034Y-24172209D01*
X45075045Y-24081463D01*
X45081685Y-24071470D01*
X45088425Y-24061626D01*
X45089299Y-24060010D01*
X45089302Y-24060006D01*
X45089304Y-24060002D01*
X45144277Y-23956612D01*
X45148846Y-23945528D01*
X45153549Y-23934554D01*
X45154094Y-23932794D01*
X45187939Y-23820693D01*
X45190265Y-23808948D01*
X45192750Y-23797255D01*
X45192943Y-23795422D01*
X45204370Y-23678881D01*
X45204370Y-23678872D01*
X45205000Y-23672477D01*
X45205000Y-23127000D01*
X45621000Y-23127000D01*
X45621000Y-23350176D01*
G36*
X18973000Y-19864744D02*
G01*
X18935280Y-19808292D01*
X18861708Y-19734720D01*
X18775197Y-19676915D01*
X18679070Y-19637098D01*
X18577023Y-19616800D01*
X18472977Y-19616800D01*
X18370930Y-19637098D01*
X18274803Y-19676915D01*
X18188292Y-19734720D01*
X18114720Y-19808292D01*
X18056915Y-19894803D01*
X18017098Y-19990930D01*
X17996800Y-20092977D01*
X17996800Y-20197023D01*
X18017098Y-20299070D01*
X18056915Y-20395197D01*
X18114720Y-20481708D01*
X18188292Y-20555280D01*
X18210322Y-20570000D01*
X18188292Y-20584720D01*
X18114720Y-20658292D01*
X18056915Y-20744803D01*
X18017098Y-20840930D01*
X17996800Y-20942977D01*
X17996800Y-21047023D01*
X18017098Y-21149070D01*
X18056915Y-21245197D01*
X18114720Y-21331708D01*
X18188292Y-21405280D01*
X18210322Y-21420000D01*
X18188292Y-21434720D01*
X18114720Y-21508292D01*
X18056915Y-21594803D01*
X18017098Y-21690930D01*
X17996800Y-21792977D01*
X17996800Y-21897023D01*
X18017098Y-21999070D01*
X18056915Y-22095197D01*
X18114720Y-22181708D01*
X18188292Y-22255280D01*
X18210322Y-22270000D01*
X18188292Y-22284720D01*
X18114720Y-22358292D01*
X18056915Y-22444803D01*
X18017098Y-22540930D01*
X17996800Y-22642977D01*
X17996800Y-22747023D01*
X18017098Y-22849070D01*
X18056915Y-22945197D01*
X18114720Y-23031708D01*
X18188292Y-23105280D01*
X18210322Y-23120000D01*
X18188292Y-23134720D01*
X18114720Y-23208292D01*
X18056915Y-23294803D01*
X18017098Y-23390930D01*
X17996800Y-23492977D01*
X17996800Y-23597023D01*
X18007980Y-23653230D01*
X17746139Y-23915072D01*
X17734568Y-23924568D01*
X17696679Y-23970737D01*
X17668524Y-24023410D01*
X17651187Y-24080563D01*
X17646800Y-24125106D01*
X17646800Y-24125115D01*
X17645334Y-24140000D01*
X17646656Y-24153425D01*
X17643085Y-24144803D01*
X17585280Y-24058292D01*
X17511708Y-23984720D01*
X17489678Y-23970000D01*
X17511708Y-23955280D01*
X17585280Y-23881708D01*
X17643085Y-23795197D01*
X17682902Y-23699070D01*
X17703200Y-23597023D01*
X17703200Y-23492977D01*
X17682902Y-23390930D01*
X17643085Y-23294803D01*
X17585280Y-23208292D01*
X17511708Y-23134720D01*
X17489678Y-23120000D01*
X17511708Y-23105280D01*
X17585280Y-23031708D01*
X17643085Y-22945197D01*
X17682902Y-22849070D01*
X17703200Y-22747023D01*
X17703200Y-22642977D01*
X17682902Y-22540930D01*
X17643085Y-22444803D01*
X17585280Y-22358292D01*
X17511708Y-22284720D01*
X17489678Y-22270000D01*
X17511708Y-22255280D01*
X17585280Y-22181708D01*
X17643085Y-22095197D01*
X17682902Y-21999070D01*
X17703200Y-21897023D01*
X17703200Y-21792977D01*
X17682902Y-21690930D01*
X17643085Y-21594803D01*
X17585280Y-21508292D01*
X17511708Y-21434720D01*
X17489678Y-21420000D01*
X17511708Y-21405280D01*
X17585280Y-21331708D01*
X17643085Y-21245197D01*
X17682902Y-21149070D01*
X17703200Y-21047023D01*
X17703200Y-20942977D01*
X17682902Y-20840930D01*
X17643085Y-20744803D01*
X17585280Y-20658292D01*
X17511708Y-20584720D01*
X17489678Y-20570000D01*
X17511708Y-20555280D01*
X17585280Y-20481708D01*
X17643085Y-20395197D01*
X17682902Y-20299070D01*
X17703200Y-20197023D01*
X17703200Y-20092977D01*
X17682902Y-19990930D01*
X17643085Y-19894803D01*
X17585280Y-19808292D01*
X17511708Y-19734720D01*
X17425197Y-19676915D01*
X17329070Y-19637098D01*
X17227023Y-19616800D01*
X17122977Y-19616800D01*
X17020930Y-19637098D01*
X16924803Y-19676915D01*
X16838292Y-19734720D01*
X16764720Y-19808292D01*
X16706915Y-19894803D01*
X16667098Y-19990930D01*
X16646800Y-20092977D01*
X16646800Y-20197023D01*
X16667098Y-20299070D01*
X16706915Y-20395197D01*
X16764720Y-20481708D01*
X16838292Y-20555280D01*
X16860322Y-20570000D01*
X16838292Y-20584720D01*
X16764720Y-20658292D01*
X16706915Y-20744803D01*
X16667098Y-20840930D01*
X16646800Y-20942977D01*
X16646800Y-21047023D01*
X16653003Y-21078207D01*
X15249929Y-22481282D01*
X15238358Y-22490778D01*
X15200469Y-22536947D01*
X15172314Y-22589620D01*
X15154977Y-22646773D01*
X15150590Y-22691316D01*
X15150590Y-22691325D01*
X15149124Y-22706210D01*
X15150590Y-22721095D01*
X15150591Y-26540619D01*
X15031139Y-26660072D01*
X15019568Y-26669568D01*
X14981679Y-26715737D01*
X14953524Y-26768410D01*
X14936187Y-26825563D01*
X14931800Y-26870106D01*
X14931800Y-26870115D01*
X14930334Y-26885000D01*
X14931800Y-26899885D01*
X14931800Y-27073000D01*
X12614471Y-27073000D01*
X12602073Y-17427000D01*
X18973000Y-17427000D01*
X18973000Y-19864744D01*
G37*
X18973000Y-19864744D02*
X18935280Y-19808292D01*
X18861708Y-19734720D01*
X18775197Y-19676915D01*
X18679070Y-19637098D01*
X18577023Y-19616800D01*
X18472977Y-19616800D01*
X18370930Y-19637098D01*
X18274803Y-19676915D01*
X18188292Y-19734720D01*
X18114720Y-19808292D01*
X18056915Y-19894803D01*
X18017098Y-19990930D01*
X17996800Y-20092977D01*
X17996800Y-20197023D01*
X18017098Y-20299070D01*
X18056915Y-20395197D01*
X18114720Y-20481708D01*
X18188292Y-20555280D01*
X18210322Y-20570000D01*
X18188292Y-20584720D01*
X18114720Y-20658292D01*
X18056915Y-20744803D01*
X18017098Y-20840930D01*
X17996800Y-20942977D01*
X17996800Y-21047023D01*
X18017098Y-21149070D01*
X18056915Y-21245197D01*
X18114720Y-21331708D01*
X18188292Y-21405280D01*
X18210322Y-21420000D01*
X18188292Y-21434720D01*
X18114720Y-21508292D01*
X18056915Y-21594803D01*
X18017098Y-21690930D01*
X17996800Y-21792977D01*
X17996800Y-21897023D01*
X18017098Y-21999070D01*
X18056915Y-22095197D01*
X18114720Y-22181708D01*
X18188292Y-22255280D01*
X18210322Y-22270000D01*
X18188292Y-22284720D01*
X18114720Y-22358292D01*
X18056915Y-22444803D01*
X18017098Y-22540930D01*
X17996800Y-22642977D01*
X17996800Y-22747023D01*
X18017098Y-22849070D01*
X18056915Y-22945197D01*
X18114720Y-23031708D01*
X18188292Y-23105280D01*
X18210322Y-23120000D01*
X18188292Y-23134720D01*
X18114720Y-23208292D01*
X18056915Y-23294803D01*
X18017098Y-23390930D01*
X17996800Y-23492977D01*
X17996800Y-23597023D01*
X18007980Y-23653230D01*
X17746139Y-23915072D01*
X17734568Y-23924568D01*
X17696679Y-23970737D01*
X17668524Y-24023410D01*
X17651187Y-24080563D01*
X17646800Y-24125106D01*
X17646800Y-24125115D01*
X17645334Y-24140000D01*
X17646656Y-24153425D01*
X17643085Y-24144803D01*
X17585280Y-24058292D01*
X17511708Y-23984720D01*
X17489678Y-23970000D01*
X17511708Y-23955280D01*
X17585280Y-23881708D01*
X17643085Y-23795197D01*
X17682902Y-23699070D01*
X17703200Y-23597023D01*
X17703200Y-23492977D01*
X17682902Y-23390930D01*
X17643085Y-23294803D01*
X17585280Y-23208292D01*
X17511708Y-23134720D01*
X17489678Y-23120000D01*
X17511708Y-23105280D01*
X17585280Y-23031708D01*
X17643085Y-22945197D01*
X17682902Y-22849070D01*
X17703200Y-22747023D01*
X17703200Y-22642977D01*
X17682902Y-22540930D01*
X17643085Y-22444803D01*
X17585280Y-22358292D01*
X17511708Y-22284720D01*
X17489678Y-22270000D01*
X17511708Y-22255280D01*
X17585280Y-22181708D01*
X17643085Y-22095197D01*
X17682902Y-21999070D01*
X17703200Y-21897023D01*
X17703200Y-21792977D01*
X17682902Y-21690930D01*
X17643085Y-21594803D01*
X17585280Y-21508292D01*
X17511708Y-21434720D01*
X17489678Y-21420000D01*
X17511708Y-21405280D01*
X17585280Y-21331708D01*
X17643085Y-21245197D01*
X17682902Y-21149070D01*
X17703200Y-21047023D01*
X17703200Y-20942977D01*
X17682902Y-20840930D01*
X17643085Y-20744803D01*
X17585280Y-20658292D01*
X17511708Y-20584720D01*
X17489678Y-20570000D01*
X17511708Y-20555280D01*
X17585280Y-20481708D01*
X17643085Y-20395197D01*
X17682902Y-20299070D01*
X17703200Y-20197023D01*
X17703200Y-20092977D01*
X17682902Y-19990930D01*
X17643085Y-19894803D01*
X17585280Y-19808292D01*
X17511708Y-19734720D01*
X17425197Y-19676915D01*
X17329070Y-19637098D01*
X17227023Y-19616800D01*
X17122977Y-19616800D01*
X17020930Y-19637098D01*
X16924803Y-19676915D01*
X16838292Y-19734720D01*
X16764720Y-19808292D01*
X16706915Y-19894803D01*
X16667098Y-19990930D01*
X16646800Y-20092977D01*
X16646800Y-20197023D01*
X16667098Y-20299070D01*
X16706915Y-20395197D01*
X16764720Y-20481708D01*
X16838292Y-20555280D01*
X16860322Y-20570000D01*
X16838292Y-20584720D01*
X16764720Y-20658292D01*
X16706915Y-20744803D01*
X16667098Y-20840930D01*
X16646800Y-20942977D01*
X16646800Y-21047023D01*
X16653003Y-21078207D01*
X15249929Y-22481282D01*
X15238358Y-22490778D01*
X15200469Y-22536947D01*
X15172314Y-22589620D01*
X15154977Y-22646773D01*
X15150590Y-22691316D01*
X15150590Y-22691325D01*
X15149124Y-22706210D01*
X15150590Y-22721095D01*
X15150591Y-26540619D01*
X15031139Y-26660072D01*
X15019568Y-26669568D01*
X14981679Y-26715737D01*
X14953524Y-26768410D01*
X14936187Y-26825563D01*
X14931800Y-26870106D01*
X14931800Y-26870115D01*
X14930334Y-26885000D01*
X14931800Y-26899885D01*
X14931800Y-27073000D01*
X12614471Y-27073000D01*
X12602073Y-17427000D01*
X18973000Y-17427000D01*
X18973000Y-19864744D01*
G36*
X18973000Y-26990631D02*
G01*
X18929331Y-27034300D01*
X18576762Y-27034300D01*
X18561877Y-27032834D01*
X18546992Y-27034300D01*
X18546983Y-27034300D01*
X18502440Y-27038687D01*
X18445287Y-27056024D01*
X18434708Y-27061679D01*
X18413528Y-27073000D01*
X16033200Y-27073000D01*
X16033200Y-26655589D01*
X16555589Y-26133200D01*
X17615115Y-26133200D01*
X17630000Y-26134666D01*
X17644885Y-26133200D01*
X17644895Y-26133200D01*
X17689438Y-26128813D01*
X17746591Y-26111476D01*
X17799264Y-26083321D01*
X17845432Y-26045432D01*
X17854928Y-26033861D01*
X18153861Y-25734928D01*
X18165432Y-25725432D01*
X18203321Y-25679264D01*
X18231476Y-25626591D01*
X18248813Y-25569438D01*
X18253200Y-25524895D01*
X18253200Y-25524886D01*
X18254666Y-25510001D01*
X18253200Y-25495116D01*
X18253200Y-24848650D01*
X18274803Y-24863085D01*
X18370930Y-24902902D01*
X18472977Y-24923200D01*
X18577023Y-24923200D01*
X18679070Y-24902902D01*
X18775197Y-24863085D01*
X18861708Y-24805280D01*
X18935280Y-24731708D01*
X18973000Y-24675256D01*
X18973000Y-26990631D01*
G37*
X18973000Y-26990631D02*
X18929331Y-27034300D01*
X18576762Y-27034300D01*
X18561877Y-27032834D01*
X18546992Y-27034300D01*
X18546983Y-27034300D01*
X18502440Y-27038687D01*
X18445287Y-27056024D01*
X18434708Y-27061679D01*
X18413528Y-27073000D01*
X16033200Y-27073000D01*
X16033200Y-26655589D01*
X16555589Y-26133200D01*
X17615115Y-26133200D01*
X17630000Y-26134666D01*
X17644885Y-26133200D01*
X17644895Y-26133200D01*
X17689438Y-26128813D01*
X17746591Y-26111476D01*
X17799264Y-26083321D01*
X17845432Y-26045432D01*
X17854928Y-26033861D01*
X18153861Y-25734928D01*
X18165432Y-25725432D01*
X18203321Y-25679264D01*
X18231476Y-25626591D01*
X18248813Y-25569438D01*
X18253200Y-25524895D01*
X18253200Y-25524886D01*
X18254666Y-25510001D01*
X18253200Y-25495116D01*
X18253200Y-24848650D01*
X18274803Y-24863085D01*
X18370930Y-24902902D01*
X18472977Y-24923200D01*
X18577023Y-24923200D01*
X18679070Y-24902902D01*
X18775197Y-24863085D01*
X18861708Y-24805280D01*
X18935280Y-24731708D01*
X18973000Y-24675256D01*
X18973000Y-26990631D01*
G36*
X16667098Y-21999070D02*
G01*
X16706915Y-22095197D01*
X16764720Y-22181708D01*
X16838292Y-22255280D01*
X16860322Y-22270000D01*
X16838292Y-22284720D01*
X16764720Y-22358292D01*
X16706915Y-22444803D01*
X16667098Y-22540930D01*
X16646800Y-22642977D01*
X16646800Y-22747023D01*
X16667098Y-22849070D01*
X16706915Y-22945197D01*
X16764720Y-23031708D01*
X16838292Y-23105280D01*
X16860322Y-23120000D01*
X16838292Y-23134720D01*
X16764720Y-23208292D01*
X16706915Y-23294803D01*
X16667098Y-23390930D01*
X16646800Y-23492977D01*
X16646800Y-23597023D01*
X16667098Y-23699070D01*
X16706915Y-23795197D01*
X16764720Y-23881708D01*
X16838292Y-23955280D01*
X16860322Y-23970000D01*
X16838292Y-23984720D01*
X16764720Y-24058292D01*
X16706915Y-24144803D01*
X16667098Y-24240930D01*
X16646800Y-24342977D01*
X16646800Y-24447023D01*
X16667098Y-24549070D01*
X16706915Y-24645197D01*
X16764720Y-24731708D01*
X16838292Y-24805280D01*
X16924803Y-24863085D01*
X17020930Y-24902902D01*
X17122977Y-24923200D01*
X17227023Y-24923200D01*
X17329070Y-24902902D01*
X17425197Y-24863085D01*
X17511708Y-24805280D01*
X17585280Y-24731708D01*
X17643085Y-24645197D01*
X17646800Y-24636227D01*
X17646801Y-25384410D01*
X17504411Y-25526800D01*
X16444884Y-25526800D01*
X16429999Y-25525334D01*
X16415114Y-25526800D01*
X16415105Y-25526800D01*
X16370562Y-25531187D01*
X16313409Y-25548524D01*
X16288890Y-25561630D01*
X16260735Y-25576679D01*
X16237631Y-25595641D01*
X16214568Y-25614568D01*
X16205073Y-25626138D01*
X15756990Y-26074221D01*
X15756990Y-22831799D01*
X16654260Y-21934529D01*
X16667098Y-21999070D01*
G37*
X16667098Y-21999070D02*
X16706915Y-22095197D01*
X16764720Y-22181708D01*
X16838292Y-22255280D01*
X16860322Y-22270000D01*
X16838292Y-22284720D01*
X16764720Y-22358292D01*
X16706915Y-22444803D01*
X16667098Y-22540930D01*
X16646800Y-22642977D01*
X16646800Y-22747023D01*
X16667098Y-22849070D01*
X16706915Y-22945197D01*
X16764720Y-23031708D01*
X16838292Y-23105280D01*
X16860322Y-23120000D01*
X16838292Y-23134720D01*
X16764720Y-23208292D01*
X16706915Y-23294803D01*
X16667098Y-23390930D01*
X16646800Y-23492977D01*
X16646800Y-23597023D01*
X16667098Y-23699070D01*
X16706915Y-23795197D01*
X16764720Y-23881708D01*
X16838292Y-23955280D01*
X16860322Y-23970000D01*
X16838292Y-23984720D01*
X16764720Y-24058292D01*
X16706915Y-24144803D01*
X16667098Y-24240930D01*
X16646800Y-24342977D01*
X16646800Y-24447023D01*
X16667098Y-24549070D01*
X16706915Y-24645197D01*
X16764720Y-24731708D01*
X16838292Y-24805280D01*
X16924803Y-24863085D01*
X17020930Y-24902902D01*
X17122977Y-24923200D01*
X17227023Y-24923200D01*
X17329070Y-24902902D01*
X17425197Y-24863085D01*
X17511708Y-24805280D01*
X17585280Y-24731708D01*
X17643085Y-24645197D01*
X17646800Y-24636227D01*
X17646801Y-25384410D01*
X17504411Y-25526800D01*
X16444884Y-25526800D01*
X16429999Y-25525334D01*
X16415114Y-25526800D01*
X16415105Y-25526800D01*
X16370562Y-25531187D01*
X16313409Y-25548524D01*
X16288890Y-25561630D01*
X16260735Y-25576679D01*
X16237631Y-25595641D01*
X16214568Y-25614568D01*
X16205073Y-25626138D01*
X15756990Y-26074221D01*
X15756990Y-22831799D01*
X16654260Y-21934529D01*
X16667098Y-21999070D01*
G36*
X40361360Y-25964137D02*
G01*
X40380228Y-25999438D01*
X40405621Y-26030379D01*
X40436562Y-26055772D01*
X40471863Y-26074640D01*
X40510166Y-26086260D01*
X40550000Y-26090183D01*
X40643023Y-26090183D01*
X40699911Y-26136870D01*
X40769956Y-26174310D01*
X40845959Y-26197365D01*
X40905202Y-26203200D01*
X40905210Y-26203200D01*
X40925000Y-26205149D01*
X40944791Y-26203200D01*
X41440754Y-26203200D01*
X41473000Y-26212982D01*
X41473000Y-26277349D01*
X41458972Y-26303594D01*
X41441662Y-26360657D01*
X41435817Y-26420000D01*
X41435817Y-26620000D01*
X41441662Y-26679343D01*
X41458972Y-26736406D01*
X41473000Y-26762651D01*
X41473000Y-27364000D01*
X40656614Y-27364000D01*
X40667145Y-27344298D01*
X40695918Y-27249444D01*
X40705634Y-27150800D01*
X40695918Y-27052156D01*
X40667145Y-26957302D01*
X40620419Y-26869885D01*
X40557537Y-26793263D01*
X40480915Y-26730381D01*
X40393498Y-26683655D01*
X40303200Y-26656264D01*
X40303200Y-26019631D01*
X40319772Y-25999438D01*
X40338640Y-25964137D01*
X40350000Y-25926691D01*
X40361360Y-25964137D01*
G37*
X40361360Y-25964137D02*
X40380228Y-25999438D01*
X40405621Y-26030379D01*
X40436562Y-26055772D01*
X40471863Y-26074640D01*
X40510166Y-26086260D01*
X40550000Y-26090183D01*
X40643023Y-26090183D01*
X40699911Y-26136870D01*
X40769956Y-26174310D01*
X40845959Y-26197365D01*
X40905202Y-26203200D01*
X40905210Y-26203200D01*
X40925000Y-26205149D01*
X40944791Y-26203200D01*
X41440754Y-26203200D01*
X41473000Y-26212982D01*
X41473000Y-26277349D01*
X41458972Y-26303594D01*
X41441662Y-26360657D01*
X41435817Y-26420000D01*
X41435817Y-26620000D01*
X41441662Y-26679343D01*
X41458972Y-26736406D01*
X41473000Y-26762651D01*
X41473000Y-27364000D01*
X40656614Y-27364000D01*
X40667145Y-27344298D01*
X40695918Y-27249444D01*
X40705634Y-27150800D01*
X40695918Y-27052156D01*
X40667145Y-26957302D01*
X40620419Y-26869885D01*
X40557537Y-26793263D01*
X40480915Y-26730381D01*
X40393498Y-26683655D01*
X40303200Y-26656264D01*
X40303200Y-26019631D01*
X40319772Y-25999438D01*
X40338640Y-25964137D01*
X40350000Y-25926691D01*
X40361360Y-25964137D01*
G36*
X37799520Y-25607598D02*
G01*
X37801662Y-25629343D01*
X37818972Y-25686406D01*
X37847081Y-25738995D01*
X37884910Y-25785090D01*
X37931005Y-25822919D01*
X37983594Y-25851028D01*
X38040657Y-25868338D01*
X38100000Y-25874183D01*
X38360000Y-25874183D01*
X38409698Y-25869288D01*
X38412268Y-25877761D01*
X38431045Y-25912892D01*
X38456316Y-25943684D01*
X38461499Y-25948867D01*
X38458972Y-25953594D01*
X38441662Y-26010657D01*
X38435817Y-26070000D01*
X38435817Y-26270000D01*
X38441662Y-26329343D01*
X38458972Y-26386406D01*
X38473071Y-26412784D01*
X38470070Y-26415785D01*
X38434153Y-26469539D01*
X38409413Y-26529268D01*
X38396800Y-26592675D01*
X38396800Y-26657325D01*
X38409413Y-26720732D01*
X38434153Y-26780461D01*
X38435817Y-26782951D01*
X38435817Y-26970000D01*
X38441662Y-27029343D01*
X38458972Y-27086406D01*
X38487081Y-27138995D01*
X38524910Y-27185090D01*
X38571005Y-27222919D01*
X38623594Y-27251028D01*
X38680657Y-27268338D01*
X38696800Y-27269928D01*
X38696800Y-27307325D01*
X38708074Y-27364000D01*
X35454888Y-27364000D01*
X35492145Y-27294298D01*
X35520918Y-27199444D01*
X35530634Y-27100800D01*
X35520918Y-27002156D01*
X35492145Y-26907302D01*
X35445419Y-26819885D01*
X35382537Y-26743263D01*
X35367029Y-26730536D01*
X35369834Y-26730260D01*
X35408137Y-26718640D01*
X35443438Y-26699772D01*
X35474379Y-26674379D01*
X35499772Y-26643438D01*
X35518640Y-26608137D01*
X35530260Y-26569834D01*
X35534183Y-26530000D01*
X35534183Y-26429289D01*
X35530260Y-26389455D01*
X35518640Y-26351152D01*
X35499772Y-26315851D01*
X35485866Y-26298906D01*
X35476438Y-26267827D01*
X35438998Y-26197783D01*
X35401233Y-26151767D01*
X35299466Y-26050000D01*
X35321103Y-26028363D01*
X35336484Y-26015740D01*
X35386870Y-25954344D01*
X35389144Y-25950089D01*
X35424310Y-25884301D01*
X35432645Y-25856824D01*
X35474379Y-25815090D01*
X35499772Y-25784149D01*
X35518640Y-25748848D01*
X35530000Y-25711402D01*
X35541360Y-25748848D01*
X35560228Y-25784149D01*
X35585621Y-25815090D01*
X35794910Y-26024379D01*
X35825851Y-26049772D01*
X35861152Y-26068640D01*
X35899455Y-26080260D01*
X35939289Y-26084183D01*
X36190000Y-26084183D01*
X36229834Y-26080260D01*
X36268137Y-26068640D01*
X36303438Y-26049772D01*
X36305945Y-26047715D01*
X36309153Y-26055461D01*
X36345070Y-26109215D01*
X36390785Y-26154930D01*
X36395817Y-26158292D01*
X36395817Y-26270000D01*
X36401662Y-26329343D01*
X36418972Y-26386406D01*
X36447081Y-26438995D01*
X36484910Y-26485090D01*
X36527448Y-26520000D01*
X36484910Y-26554910D01*
X36447081Y-26601005D01*
X36418972Y-26653594D01*
X36401662Y-26710657D01*
X36395817Y-26770000D01*
X36395817Y-26970000D01*
X36401662Y-27029343D01*
X36418972Y-27086406D01*
X36447081Y-27138995D01*
X36484910Y-27185090D01*
X36531005Y-27222919D01*
X36583594Y-27251028D01*
X36640657Y-27268338D01*
X36700000Y-27274183D01*
X36960000Y-27274183D01*
X37019343Y-27268338D01*
X37076406Y-27251028D01*
X37128995Y-27222919D01*
X37175090Y-27185090D01*
X37212919Y-27138995D01*
X37241028Y-27086406D01*
X37258338Y-27029343D01*
X37264183Y-26970000D01*
X37264183Y-26770000D01*
X37258338Y-26710657D01*
X37241028Y-26653594D01*
X37212919Y-26601005D01*
X37175090Y-26554910D01*
X37153200Y-26536945D01*
X37153200Y-26503055D01*
X37175090Y-26485090D01*
X37212919Y-26438995D01*
X37241028Y-26386406D01*
X37258338Y-26329343D01*
X37264183Y-26270000D01*
X37264183Y-26070000D01*
X37258338Y-26010657D01*
X37241028Y-25953594D01*
X37212919Y-25901005D01*
X37175090Y-25854910D01*
X37132552Y-25820000D01*
X37175090Y-25785090D01*
X37212919Y-25738995D01*
X37241028Y-25686406D01*
X37258338Y-25629343D01*
X37264183Y-25570000D01*
X37264183Y-25396990D01*
X37588912Y-25396990D01*
X37799520Y-25607598D01*
G37*
X37799520Y-25607598D02*
X37801662Y-25629343D01*
X37818972Y-25686406D01*
X37847081Y-25738995D01*
X37884910Y-25785090D01*
X37931005Y-25822919D01*
X37983594Y-25851028D01*
X38040657Y-25868338D01*
X38100000Y-25874183D01*
X38360000Y-25874183D01*
X38409698Y-25869288D01*
X38412268Y-25877761D01*
X38431045Y-25912892D01*
X38456316Y-25943684D01*
X38461499Y-25948867D01*
X38458972Y-25953594D01*
X38441662Y-26010657D01*
X38435817Y-26070000D01*
X38435817Y-26270000D01*
X38441662Y-26329343D01*
X38458972Y-26386406D01*
X38473071Y-26412784D01*
X38470070Y-26415785D01*
X38434153Y-26469539D01*
X38409413Y-26529268D01*
X38396800Y-26592675D01*
X38396800Y-26657325D01*
X38409413Y-26720732D01*
X38434153Y-26780461D01*
X38435817Y-26782951D01*
X38435817Y-26970000D01*
X38441662Y-27029343D01*
X38458972Y-27086406D01*
X38487081Y-27138995D01*
X38524910Y-27185090D01*
X38571005Y-27222919D01*
X38623594Y-27251028D01*
X38680657Y-27268338D01*
X38696800Y-27269928D01*
X38696800Y-27307325D01*
X38708074Y-27364000D01*
X35454888Y-27364000D01*
X35492145Y-27294298D01*
X35520918Y-27199444D01*
X35530634Y-27100800D01*
X35520918Y-27002156D01*
X35492145Y-26907302D01*
X35445419Y-26819885D01*
X35382537Y-26743263D01*
X35367029Y-26730536D01*
X35369834Y-26730260D01*
X35408137Y-26718640D01*
X35443438Y-26699772D01*
X35474379Y-26674379D01*
X35499772Y-26643438D01*
X35518640Y-26608137D01*
X35530260Y-26569834D01*
X35534183Y-26530000D01*
X35534183Y-26429289D01*
X35530260Y-26389455D01*
X35518640Y-26351152D01*
X35499772Y-26315851D01*
X35485866Y-26298906D01*
X35476438Y-26267827D01*
X35438998Y-26197783D01*
X35401233Y-26151767D01*
X35299466Y-26050000D01*
X35321103Y-26028363D01*
X35336484Y-26015740D01*
X35386870Y-25954344D01*
X35389144Y-25950089D01*
X35424310Y-25884301D01*
X35432645Y-25856824D01*
X35474379Y-25815090D01*
X35499772Y-25784149D01*
X35518640Y-25748848D01*
X35530000Y-25711402D01*
X35541360Y-25748848D01*
X35560228Y-25784149D01*
X35585621Y-25815090D01*
X35794910Y-26024379D01*
X35825851Y-26049772D01*
X35861152Y-26068640D01*
X35899455Y-26080260D01*
X35939289Y-26084183D01*
X36190000Y-26084183D01*
X36229834Y-26080260D01*
X36268137Y-26068640D01*
X36303438Y-26049772D01*
X36305945Y-26047715D01*
X36309153Y-26055461D01*
X36345070Y-26109215D01*
X36390785Y-26154930D01*
X36395817Y-26158292D01*
X36395817Y-26270000D01*
X36401662Y-26329343D01*
X36418972Y-26386406D01*
X36447081Y-26438995D01*
X36484910Y-26485090D01*
X36527448Y-26520000D01*
X36484910Y-26554910D01*
X36447081Y-26601005D01*
X36418972Y-26653594D01*
X36401662Y-26710657D01*
X36395817Y-26770000D01*
X36395817Y-26970000D01*
X36401662Y-27029343D01*
X36418972Y-27086406D01*
X36447081Y-27138995D01*
X36484910Y-27185090D01*
X36531005Y-27222919D01*
X36583594Y-27251028D01*
X36640657Y-27268338D01*
X36700000Y-27274183D01*
X36960000Y-27274183D01*
X37019343Y-27268338D01*
X37076406Y-27251028D01*
X37128995Y-27222919D01*
X37175090Y-27185090D01*
X37212919Y-27138995D01*
X37241028Y-27086406D01*
X37258338Y-27029343D01*
X37264183Y-26970000D01*
X37264183Y-26770000D01*
X37258338Y-26710657D01*
X37241028Y-26653594D01*
X37212919Y-26601005D01*
X37175090Y-26554910D01*
X37153200Y-26536945D01*
X37153200Y-26503055D01*
X37175090Y-26485090D01*
X37212919Y-26438995D01*
X37241028Y-26386406D01*
X37258338Y-26329343D01*
X37264183Y-26270000D01*
X37264183Y-26070000D01*
X37258338Y-26010657D01*
X37241028Y-25953594D01*
X37212919Y-25901005D01*
X37175090Y-25854910D01*
X37132552Y-25820000D01*
X37175090Y-25785090D01*
X37212919Y-25738995D01*
X37241028Y-25686406D01*
X37258338Y-25629343D01*
X37264183Y-25570000D01*
X37264183Y-25396990D01*
X37588912Y-25396990D01*
X37799520Y-25607598D01*
G36*
X33087163Y-21995242D02*
G01*
X33095094Y-22004906D01*
X33104763Y-22012841D01*
X33112159Y-22020237D01*
X33120094Y-22029906D01*
X33158649Y-22061547D01*
X33187314Y-22076868D01*
X33202635Y-22085058D01*
X33250364Y-22099536D01*
X33267090Y-22101183D01*
X33290117Y-22120081D01*
X33335358Y-22144264D01*
X33384448Y-22159155D01*
X33435500Y-22164183D01*
X33620500Y-22164183D01*
X33671552Y-22159155D01*
X33720642Y-22144264D01*
X33765883Y-22120081D01*
X33805538Y-22087538D01*
X33810515Y-22081474D01*
X33801662Y-22110657D01*
X33795817Y-22170000D01*
X33795817Y-22370000D01*
X33801662Y-22429343D01*
X33818972Y-22486406D01*
X33847081Y-22538995D01*
X33884910Y-22585090D01*
X33931005Y-22622919D01*
X33983594Y-22651028D01*
X34040657Y-22668338D01*
X34100000Y-22674183D01*
X34180749Y-22674183D01*
X34435817Y-22929251D01*
X34435817Y-23070000D01*
X34441662Y-23129343D01*
X34446958Y-23146800D01*
X34210945Y-23146800D01*
X34209215Y-23145070D01*
X34155461Y-23109153D01*
X34095732Y-23084413D01*
X34032325Y-23071800D01*
X33967675Y-23071800D01*
X33904268Y-23084413D01*
X33844539Y-23109153D01*
X33790785Y-23145070D01*
X33745070Y-23190785D01*
X33709153Y-23244539D01*
X33684413Y-23304268D01*
X33671800Y-23367675D01*
X33671800Y-23377575D01*
X33619343Y-23361662D01*
X33560000Y-23355817D01*
X33360000Y-23355817D01*
X33300657Y-23361662D01*
X33243594Y-23378972D01*
X33191005Y-23407081D01*
X33144910Y-23444910D01*
X33107081Y-23491005D01*
X33078972Y-23543594D01*
X33061662Y-23600657D01*
X33055817Y-23660000D01*
X33055817Y-23920000D01*
X33061662Y-23979343D01*
X33078972Y-24036406D01*
X33107081Y-24088995D01*
X33144910Y-24135090D01*
X33191005Y-24172919D01*
X33243594Y-24201028D01*
X33300657Y-24218338D01*
X33360000Y-24224183D01*
X33560000Y-24224183D01*
X33619343Y-24218338D01*
X33676406Y-24201028D01*
X33728995Y-24172919D01*
X33775090Y-24135090D01*
X33812919Y-24088995D01*
X33818689Y-24078200D01*
X33873817Y-24078200D01*
X33873817Y-24167500D01*
X33877740Y-24207334D01*
X33889360Y-24245637D01*
X33908228Y-24280938D01*
X33917717Y-24292500D01*
X33908228Y-24304062D01*
X33889360Y-24339363D01*
X33877740Y-24377666D01*
X33873817Y-24417500D01*
X33873817Y-24921800D01*
X33819379Y-24921800D01*
X33802919Y-24891005D01*
X33765090Y-24844910D01*
X33718995Y-24807081D01*
X33666406Y-24778972D01*
X33609343Y-24761662D01*
X33550000Y-24755817D01*
X33350000Y-24755817D01*
X33290657Y-24761662D01*
X33233594Y-24778972D01*
X33181005Y-24807081D01*
X33134910Y-24844910D01*
X33097081Y-24891005D01*
X33068972Y-24943594D01*
X33051662Y-25000657D01*
X33045817Y-25060000D01*
X33045817Y-25320000D01*
X33051662Y-25379343D01*
X33068972Y-25436406D01*
X33097081Y-25488995D01*
X33134910Y-25535090D01*
X33181005Y-25572919D01*
X33233594Y-25601028D01*
X33290657Y-25618338D01*
X33297939Y-25619055D01*
X33263516Y-25647306D01*
X33213130Y-25708701D01*
X33175690Y-25778746D01*
X33152635Y-25854749D01*
X33144850Y-25933790D01*
X33152635Y-26012831D01*
X33175690Y-26088834D01*
X33213130Y-26158879D01*
X33263516Y-26220274D01*
X33324911Y-26270660D01*
X33394956Y-26308100D01*
X33470959Y-26331155D01*
X33530202Y-26336990D01*
X33546419Y-26336990D01*
X33566210Y-26338939D01*
X33586001Y-26336990D01*
X33586008Y-26336990D01*
X33645251Y-26331155D01*
X33721254Y-26308100D01*
X33791299Y-26270660D01*
X33852694Y-26220274D01*
X33865317Y-26204893D01*
X33967010Y-26103200D01*
X33968949Y-26103200D01*
X33983594Y-26111028D01*
X34040657Y-26128338D01*
X34100000Y-26134183D01*
X34127503Y-26134183D01*
X34170959Y-26147365D01*
X34230202Y-26153200D01*
X34230211Y-26153200D01*
X34249999Y-26155149D01*
X34269787Y-26153200D01*
X34439623Y-26153200D01*
X34438519Y-26164412D01*
X34440468Y-26184203D01*
X34440468Y-26184210D01*
X34446303Y-26243453D01*
X34469358Y-26319456D01*
X34506798Y-26389501D01*
X34557185Y-26450896D01*
X34572560Y-26463514D01*
X34668742Y-26559696D01*
X34669740Y-26569834D01*
X34681360Y-26608137D01*
X34693116Y-26630132D01*
X34681502Y-26633655D01*
X34594085Y-26680381D01*
X34517463Y-26743263D01*
X34454581Y-26819885D01*
X34440341Y-26846526D01*
X34400363Y-26850464D01*
X34389093Y-26853883D01*
X34352636Y-26864942D01*
X34308649Y-26888453D01*
X34270094Y-26920094D01*
X34268694Y-26921800D01*
X34267675Y-26921800D01*
X34204268Y-26934413D01*
X34144539Y-26959153D01*
X34090785Y-26995070D01*
X34076619Y-27009236D01*
X34070918Y-26951356D01*
X34042145Y-26856502D01*
X33995419Y-26769085D01*
X33932537Y-26692463D01*
X33855915Y-26629581D01*
X33768498Y-26582855D01*
X33673644Y-26554082D01*
X33599712Y-26546800D01*
X33400288Y-26546800D01*
X33326356Y-26554082D01*
X33231502Y-26582855D01*
X33144085Y-26629581D01*
X33067463Y-26692463D01*
X33004581Y-26769085D01*
X32957855Y-26856502D01*
X32953200Y-26871848D01*
X32953200Y-26792439D01*
X32933863Y-26695222D01*
X32927000Y-26678653D01*
X32927000Y-25755347D01*
X32933863Y-25738778D01*
X32953200Y-25641561D01*
X32953200Y-25542439D01*
X32933863Y-25445222D01*
X32927000Y-25428653D01*
X32927000Y-24555347D01*
X32933863Y-24538778D01*
X32953200Y-24441561D01*
X32953200Y-24342439D01*
X32933863Y-24245222D01*
X32927000Y-24228653D01*
X32927000Y-23455347D01*
X32933863Y-23438778D01*
X32953200Y-23341561D01*
X32953200Y-23242439D01*
X32933863Y-23145222D01*
X32927000Y-23128653D01*
X32927000Y-22903200D01*
X33289055Y-22903200D01*
X33290785Y-22904930D01*
X33344539Y-22940847D01*
X33404268Y-22965587D01*
X33467675Y-22978200D01*
X33532325Y-22978200D01*
X33595732Y-22965587D01*
X33655461Y-22940847D01*
X33709215Y-22904930D01*
X33754930Y-22859215D01*
X33790847Y-22805461D01*
X33815587Y-22745732D01*
X33828200Y-22682325D01*
X33828200Y-22617675D01*
X33815587Y-22554268D01*
X33790847Y-22494539D01*
X33754930Y-22440785D01*
X33709215Y-22395070D01*
X33655461Y-22359153D01*
X33595732Y-22334413D01*
X33532325Y-22321800D01*
X33467675Y-22321800D01*
X33404268Y-22334413D01*
X33344539Y-22359153D01*
X33290785Y-22395070D01*
X33289055Y-22396800D01*
X32927000Y-22396800D01*
X32927000Y-22255347D01*
X32933863Y-22238778D01*
X32953200Y-22141561D01*
X32953200Y-22042439D01*
X32933863Y-21945222D01*
X32927000Y-21928653D01*
X32927000Y-21835078D01*
X33087163Y-21995242D01*
G37*
X33087163Y-21995242D02*
X33095094Y-22004906D01*
X33104763Y-22012841D01*
X33112159Y-22020237D01*
X33120094Y-22029906D01*
X33158649Y-22061547D01*
X33187314Y-22076868D01*
X33202635Y-22085058D01*
X33250364Y-22099536D01*
X33267090Y-22101183D01*
X33290117Y-22120081D01*
X33335358Y-22144264D01*
X33384448Y-22159155D01*
X33435500Y-22164183D01*
X33620500Y-22164183D01*
X33671552Y-22159155D01*
X33720642Y-22144264D01*
X33765883Y-22120081D01*
X33805538Y-22087538D01*
X33810515Y-22081474D01*
X33801662Y-22110657D01*
X33795817Y-22170000D01*
X33795817Y-22370000D01*
X33801662Y-22429343D01*
X33818972Y-22486406D01*
X33847081Y-22538995D01*
X33884910Y-22585090D01*
X33931005Y-22622919D01*
X33983594Y-22651028D01*
X34040657Y-22668338D01*
X34100000Y-22674183D01*
X34180749Y-22674183D01*
X34435817Y-22929251D01*
X34435817Y-23070000D01*
X34441662Y-23129343D01*
X34446958Y-23146800D01*
X34210945Y-23146800D01*
X34209215Y-23145070D01*
X34155461Y-23109153D01*
X34095732Y-23084413D01*
X34032325Y-23071800D01*
X33967675Y-23071800D01*
X33904268Y-23084413D01*
X33844539Y-23109153D01*
X33790785Y-23145070D01*
X33745070Y-23190785D01*
X33709153Y-23244539D01*
X33684413Y-23304268D01*
X33671800Y-23367675D01*
X33671800Y-23377575D01*
X33619343Y-23361662D01*
X33560000Y-23355817D01*
X33360000Y-23355817D01*
X33300657Y-23361662D01*
X33243594Y-23378972D01*
X33191005Y-23407081D01*
X33144910Y-23444910D01*
X33107081Y-23491005D01*
X33078972Y-23543594D01*
X33061662Y-23600657D01*
X33055817Y-23660000D01*
X33055817Y-23920000D01*
X33061662Y-23979343D01*
X33078972Y-24036406D01*
X33107081Y-24088995D01*
X33144910Y-24135090D01*
X33191005Y-24172919D01*
X33243594Y-24201028D01*
X33300657Y-24218338D01*
X33360000Y-24224183D01*
X33560000Y-24224183D01*
X33619343Y-24218338D01*
X33676406Y-24201028D01*
X33728995Y-24172919D01*
X33775090Y-24135090D01*
X33812919Y-24088995D01*
X33818689Y-24078200D01*
X33873817Y-24078200D01*
X33873817Y-24167500D01*
X33877740Y-24207334D01*
X33889360Y-24245637D01*
X33908228Y-24280938D01*
X33917717Y-24292500D01*
X33908228Y-24304062D01*
X33889360Y-24339363D01*
X33877740Y-24377666D01*
X33873817Y-24417500D01*
X33873817Y-24921800D01*
X33819379Y-24921800D01*
X33802919Y-24891005D01*
X33765090Y-24844910D01*
X33718995Y-24807081D01*
X33666406Y-24778972D01*
X33609343Y-24761662D01*
X33550000Y-24755817D01*
X33350000Y-24755817D01*
X33290657Y-24761662D01*
X33233594Y-24778972D01*
X33181005Y-24807081D01*
X33134910Y-24844910D01*
X33097081Y-24891005D01*
X33068972Y-24943594D01*
X33051662Y-25000657D01*
X33045817Y-25060000D01*
X33045817Y-25320000D01*
X33051662Y-25379343D01*
X33068972Y-25436406D01*
X33097081Y-25488995D01*
X33134910Y-25535090D01*
X33181005Y-25572919D01*
X33233594Y-25601028D01*
X33290657Y-25618338D01*
X33297939Y-25619055D01*
X33263516Y-25647306D01*
X33213130Y-25708701D01*
X33175690Y-25778746D01*
X33152635Y-25854749D01*
X33144850Y-25933790D01*
X33152635Y-26012831D01*
X33175690Y-26088834D01*
X33213130Y-26158879D01*
X33263516Y-26220274D01*
X33324911Y-26270660D01*
X33394956Y-26308100D01*
X33470959Y-26331155D01*
X33530202Y-26336990D01*
X33546419Y-26336990D01*
X33566210Y-26338939D01*
X33586001Y-26336990D01*
X33586008Y-26336990D01*
X33645251Y-26331155D01*
X33721254Y-26308100D01*
X33791299Y-26270660D01*
X33852694Y-26220274D01*
X33865317Y-26204893D01*
X33967010Y-26103200D01*
X33968949Y-26103200D01*
X33983594Y-26111028D01*
X34040657Y-26128338D01*
X34100000Y-26134183D01*
X34127503Y-26134183D01*
X34170959Y-26147365D01*
X34230202Y-26153200D01*
X34230211Y-26153200D01*
X34249999Y-26155149D01*
X34269787Y-26153200D01*
X34439623Y-26153200D01*
X34438519Y-26164412D01*
X34440468Y-26184203D01*
X34440468Y-26184210D01*
X34446303Y-26243453D01*
X34469358Y-26319456D01*
X34506798Y-26389501D01*
X34557185Y-26450896D01*
X34572560Y-26463514D01*
X34668742Y-26559696D01*
X34669740Y-26569834D01*
X34681360Y-26608137D01*
X34693116Y-26630132D01*
X34681502Y-26633655D01*
X34594085Y-26680381D01*
X34517463Y-26743263D01*
X34454581Y-26819885D01*
X34440341Y-26846526D01*
X34400363Y-26850464D01*
X34389093Y-26853883D01*
X34352636Y-26864942D01*
X34308649Y-26888453D01*
X34270094Y-26920094D01*
X34268694Y-26921800D01*
X34267675Y-26921800D01*
X34204268Y-26934413D01*
X34144539Y-26959153D01*
X34090785Y-26995070D01*
X34076619Y-27009236D01*
X34070918Y-26951356D01*
X34042145Y-26856502D01*
X33995419Y-26769085D01*
X33932537Y-26692463D01*
X33855915Y-26629581D01*
X33768498Y-26582855D01*
X33673644Y-26554082D01*
X33599712Y-26546800D01*
X33400288Y-26546800D01*
X33326356Y-26554082D01*
X33231502Y-26582855D01*
X33144085Y-26629581D01*
X33067463Y-26692463D01*
X33004581Y-26769085D01*
X32957855Y-26856502D01*
X32953200Y-26871848D01*
X32953200Y-26792439D01*
X32933863Y-26695222D01*
X32927000Y-26678653D01*
X32927000Y-25755347D01*
X32933863Y-25738778D01*
X32953200Y-25641561D01*
X32953200Y-25542439D01*
X32933863Y-25445222D01*
X32927000Y-25428653D01*
X32927000Y-24555347D01*
X32933863Y-24538778D01*
X32953200Y-24441561D01*
X32953200Y-24342439D01*
X32933863Y-24245222D01*
X32927000Y-24228653D01*
X32927000Y-23455347D01*
X32933863Y-23438778D01*
X32953200Y-23341561D01*
X32953200Y-23242439D01*
X32933863Y-23145222D01*
X32927000Y-23128653D01*
X32927000Y-22903200D01*
X33289055Y-22903200D01*
X33290785Y-22904930D01*
X33344539Y-22940847D01*
X33404268Y-22965587D01*
X33467675Y-22978200D01*
X33532325Y-22978200D01*
X33595732Y-22965587D01*
X33655461Y-22940847D01*
X33709215Y-22904930D01*
X33754930Y-22859215D01*
X33790847Y-22805461D01*
X33815587Y-22745732D01*
X33828200Y-22682325D01*
X33828200Y-22617675D01*
X33815587Y-22554268D01*
X33790847Y-22494539D01*
X33754930Y-22440785D01*
X33709215Y-22395070D01*
X33655461Y-22359153D01*
X33595732Y-22334413D01*
X33532325Y-22321800D01*
X33467675Y-22321800D01*
X33404268Y-22334413D01*
X33344539Y-22359153D01*
X33290785Y-22395070D01*
X33289055Y-22396800D01*
X32927000Y-22396800D01*
X32927000Y-22255347D01*
X32933863Y-22238778D01*
X32953200Y-22141561D01*
X32953200Y-22042439D01*
X32933863Y-21945222D01*
X32927000Y-21928653D01*
X32927000Y-21835078D01*
X33087163Y-21995242D01*
G36*
X40310166Y-24450260D02*
G01*
X40350000Y-24454183D01*
X40384448Y-24454183D01*
X40384413Y-24454268D01*
X40371800Y-24517675D01*
X40371800Y-24582325D01*
X40384413Y-24645732D01*
X40409153Y-24705461D01*
X40441360Y-24753663D01*
X40436562Y-24756228D01*
X40405621Y-24781621D01*
X40380228Y-24812562D01*
X40361360Y-24847863D01*
X40349740Y-24886166D01*
X40345817Y-24926000D01*
X40345817Y-25026711D01*
X40349740Y-25066545D01*
X40361360Y-25104848D01*
X40380228Y-25140149D01*
X40405621Y-25171090D01*
X40444645Y-25210114D01*
X40450691Y-25230044D01*
X40488131Y-25300089D01*
X40525896Y-25346106D01*
X40587543Y-25407753D01*
X40550690Y-25476700D01*
X40542355Y-25504176D01*
X40405621Y-25640910D01*
X40380228Y-25671851D01*
X40361360Y-25707152D01*
X40350000Y-25744598D01*
X40338640Y-25707152D01*
X40319772Y-25671851D01*
X40303200Y-25651658D01*
X40303200Y-24448147D01*
X40310166Y-24450260D01*
G37*
X40310166Y-24450260D02*
X40350000Y-24454183D01*
X40384448Y-24454183D01*
X40384413Y-24454268D01*
X40371800Y-24517675D01*
X40371800Y-24582325D01*
X40384413Y-24645732D01*
X40409153Y-24705461D01*
X40441360Y-24753663D01*
X40436562Y-24756228D01*
X40405621Y-24781621D01*
X40380228Y-24812562D01*
X40361360Y-24847863D01*
X40349740Y-24886166D01*
X40345817Y-24926000D01*
X40345817Y-25026711D01*
X40349740Y-25066545D01*
X40361360Y-25104848D01*
X40380228Y-25140149D01*
X40405621Y-25171090D01*
X40444645Y-25210114D01*
X40450691Y-25230044D01*
X40488131Y-25300089D01*
X40525896Y-25346106D01*
X40587543Y-25407753D01*
X40550690Y-25476700D01*
X40542355Y-25504176D01*
X40405621Y-25640910D01*
X40380228Y-25671851D01*
X40361360Y-25707152D01*
X40350000Y-25744598D01*
X40338640Y-25707152D01*
X40319772Y-25671851D01*
X40303200Y-25651658D01*
X40303200Y-24448147D01*
X40310166Y-24450260D01*
G36*
X41170070Y-24759215D02*
G01*
X41215785Y-24804930D01*
X41269539Y-24840847D01*
X41329268Y-24865587D01*
X41392675Y-24878200D01*
X41457325Y-24878200D01*
X41473000Y-24875082D01*
X41473000Y-25367018D01*
X41439532Y-25377171D01*
X41439532Y-25306123D01*
X41441481Y-25286332D01*
X41439532Y-25266541D01*
X41439532Y-25266535D01*
X41433697Y-25207291D01*
X41427575Y-25187108D01*
X41410642Y-25131287D01*
X41388176Y-25089257D01*
X41373202Y-25061243D01*
X41322816Y-24999848D01*
X41307435Y-24987225D01*
X41210684Y-24890474D01*
X41210260Y-24886166D01*
X41198640Y-24847863D01*
X41179772Y-24812562D01*
X41154379Y-24781621D01*
X41144288Y-24773340D01*
X41166351Y-24761547D01*
X41169759Y-24758750D01*
X41170070Y-24759215D01*
G37*
X41170070Y-24759215D02*
X41215785Y-24804930D01*
X41269539Y-24840847D01*
X41329268Y-24865587D01*
X41392675Y-24878200D01*
X41457325Y-24878200D01*
X41473000Y-24875082D01*
X41473000Y-25367018D01*
X41439532Y-25377171D01*
X41439532Y-25306123D01*
X41441481Y-25286332D01*
X41439532Y-25266541D01*
X41439532Y-25266535D01*
X41433697Y-25207291D01*
X41427575Y-25187108D01*
X41410642Y-25131287D01*
X41388176Y-25089257D01*
X41373202Y-25061243D01*
X41322816Y-24999848D01*
X41307435Y-24987225D01*
X41210684Y-24890474D01*
X41210260Y-24886166D01*
X41198640Y-24847863D01*
X41179772Y-24812562D01*
X41154379Y-24781621D01*
X41144288Y-24773340D01*
X41166351Y-24761547D01*
X41169759Y-24758750D01*
X41170070Y-24759215D01*
G36*
X38840657Y-24428338D02*
G01*
X38900000Y-24434183D01*
X38946815Y-24434183D01*
X38996800Y-24484168D01*
X38996800Y-24791250D01*
X38517372Y-25110869D01*
X38476406Y-25088972D01*
X38426725Y-25073901D01*
X38472365Y-25060057D01*
X38516352Y-25036546D01*
X38526522Y-25028200D01*
X38532325Y-25028200D01*
X38595732Y-25015587D01*
X38655461Y-24990847D01*
X38709215Y-24954930D01*
X38754930Y-24909215D01*
X38790847Y-24855461D01*
X38815587Y-24795732D01*
X38828200Y-24732325D01*
X38828200Y-24667675D01*
X38815587Y-24604268D01*
X38790847Y-24544539D01*
X38777792Y-24525000D01*
X38790847Y-24505461D01*
X38815587Y-24445732D01*
X38820277Y-24422156D01*
X38840657Y-24428338D01*
G37*
X38840657Y-24428338D02*
X38900000Y-24434183D01*
X38946815Y-24434183D01*
X38996800Y-24484168D01*
X38996800Y-24791250D01*
X38517372Y-25110869D01*
X38476406Y-25088972D01*
X38426725Y-25073901D01*
X38472365Y-25060057D01*
X38516352Y-25036546D01*
X38526522Y-25028200D01*
X38532325Y-25028200D01*
X38595732Y-25015587D01*
X38655461Y-24990847D01*
X38709215Y-24954930D01*
X38754930Y-24909215D01*
X38790847Y-24855461D01*
X38815587Y-24795732D01*
X38828200Y-24732325D01*
X38828200Y-24667675D01*
X38815587Y-24604268D01*
X38790847Y-24544539D01*
X38777792Y-24525000D01*
X38790847Y-24505461D01*
X38815587Y-24445732D01*
X38820277Y-24422156D01*
X38840657Y-24428338D01*
G36*
X41473000Y-23921800D02*
G01*
X41412436Y-23921800D01*
X41399999Y-23920575D01*
X41350363Y-23925464D01*
X41336611Y-23929636D01*
X41302636Y-23939942D01*
X41258649Y-23963453D01*
X41254183Y-23967118D01*
X41254183Y-23350000D01*
X41250260Y-23310166D01*
X41238640Y-23271863D01*
X41226961Y-23250013D01*
X41229425Y-23225001D01*
X41228200Y-23212564D01*
X41228200Y-22982422D01*
X41473000Y-22982422D01*
X41473000Y-23921800D01*
G37*
X41473000Y-23921800D02*
X41412436Y-23921800D01*
X41399999Y-23920575D01*
X41350363Y-23925464D01*
X41336611Y-23929636D01*
X41302636Y-23939942D01*
X41258649Y-23963453D01*
X41254183Y-23967118D01*
X41254183Y-23350000D01*
X41250260Y-23310166D01*
X41238640Y-23271863D01*
X41226961Y-23250013D01*
X41229425Y-23225001D01*
X41228200Y-23212564D01*
X41228200Y-22982422D01*
X41473000Y-22982422D01*
X41473000Y-23921800D01*
G36*
X37017675Y-23428200D02*
G01*
X37071800Y-23428200D01*
X37071800Y-23477325D01*
X37084413Y-23540732D01*
X37109153Y-23600461D01*
X37145070Y-23654215D01*
X37190785Y-23699930D01*
X37244539Y-23735847D01*
X37304268Y-23760587D01*
X37367675Y-23773200D01*
X37421800Y-23773200D01*
X37421800Y-23816800D01*
X37367675Y-23816800D01*
X37304268Y-23829413D01*
X37244539Y-23854153D01*
X37225000Y-23867208D01*
X37205461Y-23854153D01*
X37145732Y-23829413D01*
X37082325Y-23816800D01*
X37017675Y-23816800D01*
X36954268Y-23829413D01*
X36894539Y-23854153D01*
X36875000Y-23867208D01*
X36855461Y-23854153D01*
X36795732Y-23829413D01*
X36732325Y-23816800D01*
X36678200Y-23816800D01*
X36678200Y-23767675D01*
X36675420Y-23753700D01*
X36730404Y-23753700D01*
X36790045Y-23741837D01*
X36846224Y-23718567D01*
X36896785Y-23684783D01*
X36939783Y-23641785D01*
X36973567Y-23591224D01*
X36996837Y-23535045D01*
X37008700Y-23475404D01*
X37008700Y-23426415D01*
X37017675Y-23428200D01*
G37*
X37017675Y-23428200D02*
X37071800Y-23428200D01*
X37071800Y-23477325D01*
X37084413Y-23540732D01*
X37109153Y-23600461D01*
X37145070Y-23654215D01*
X37190785Y-23699930D01*
X37244539Y-23735847D01*
X37304268Y-23760587D01*
X37367675Y-23773200D01*
X37421800Y-23773200D01*
X37421800Y-23816800D01*
X37367675Y-23816800D01*
X37304268Y-23829413D01*
X37244539Y-23854153D01*
X37225000Y-23867208D01*
X37205461Y-23854153D01*
X37145732Y-23829413D01*
X37082325Y-23816800D01*
X37017675Y-23816800D01*
X36954268Y-23829413D01*
X36894539Y-23854153D01*
X36875000Y-23867208D01*
X36855461Y-23854153D01*
X36795732Y-23829413D01*
X36732325Y-23816800D01*
X36678200Y-23816800D01*
X36678200Y-23767675D01*
X36675420Y-23753700D01*
X36730404Y-23753700D01*
X36790045Y-23741837D01*
X36846224Y-23718567D01*
X36896785Y-23684783D01*
X36939783Y-23641785D01*
X36973567Y-23591224D01*
X36996837Y-23535045D01*
X37008700Y-23475404D01*
X37008700Y-23426415D01*
X37017675Y-23428200D01*
G36*
X40348010Y-19434599D02*
G01*
X40333594Y-19438972D01*
X40281005Y-19467081D01*
X40234910Y-19504910D01*
X40197081Y-19551005D01*
X40168972Y-19603594D01*
X40151662Y-19660657D01*
X40145817Y-19720000D01*
X40145817Y-19980000D01*
X40151662Y-20039343D01*
X40168972Y-20096406D01*
X40197081Y-20148995D01*
X40214319Y-20170000D01*
X40200000Y-20187448D01*
X40165090Y-20144910D01*
X40118995Y-20107081D01*
X40066406Y-20078972D01*
X40009343Y-20061662D01*
X39950000Y-20055817D01*
X39939530Y-20055817D01*
X39929040Y-20052635D01*
X39850000Y-20044850D01*
X39770959Y-20052635D01*
X39760469Y-20055817D01*
X39750000Y-20055817D01*
X39690657Y-20061662D01*
X39633594Y-20078972D01*
X39581005Y-20107081D01*
X39534910Y-20144910D01*
X39497081Y-20191005D01*
X39468972Y-20243594D01*
X39451662Y-20300657D01*
X39445817Y-20360000D01*
X39445817Y-20620000D01*
X39446800Y-20629980D01*
X39446800Y-20705209D01*
X39444851Y-20725000D01*
X39446800Y-20744791D01*
X39446800Y-20744798D01*
X39452635Y-20804041D01*
X39475690Y-20880044D01*
X39501431Y-20928200D01*
X39513131Y-20950089D01*
X39550590Y-20995732D01*
X39563517Y-21011484D01*
X39578892Y-21024102D01*
X39678894Y-21124104D01*
X39724911Y-21161869D01*
X39794956Y-21199309D01*
X39870958Y-21222364D01*
X39949999Y-21230149D01*
X39955005Y-21229656D01*
X39958408Y-21231475D01*
X40015561Y-21248812D01*
X40060104Y-21253199D01*
X40060113Y-21253199D01*
X40074998Y-21254665D01*
X40089883Y-21253199D01*
X40695738Y-21253199D01*
X40710623Y-21254665D01*
X40725508Y-21253199D01*
X40725518Y-21253199D01*
X40770061Y-21248812D01*
X40827214Y-21231475D01*
X40833943Y-21227878D01*
X40895732Y-21215587D01*
X40955461Y-21190847D01*
X41009215Y-21154930D01*
X41054930Y-21109215D01*
X41075653Y-21078200D01*
X41082325Y-21078200D01*
X41145732Y-21065587D01*
X41205461Y-21040847D01*
X41259215Y-21004930D01*
X41289962Y-20974183D01*
X41473000Y-20974183D01*
X41473000Y-21245817D01*
X41000000Y-21245817D01*
X40960166Y-21249740D01*
X40921863Y-21261360D01*
X40886562Y-21280228D01*
X40855621Y-21305621D01*
X40830228Y-21336562D01*
X40811360Y-21371863D01*
X40799740Y-21410166D01*
X40795817Y-21450000D01*
X40795817Y-21779457D01*
X40757325Y-21771800D01*
X40692675Y-21771800D01*
X40629268Y-21784413D01*
X40569539Y-21809153D01*
X40515785Y-21845070D01*
X40470070Y-21890785D01*
X40434153Y-21944539D01*
X40409413Y-22004268D01*
X40396800Y-22067675D01*
X40396800Y-22132325D01*
X40409413Y-22195732D01*
X40421800Y-22225638D01*
X40421800Y-22377277D01*
X40420334Y-22392162D01*
X40421800Y-22407047D01*
X40421800Y-22414895D01*
X40426187Y-22459438D01*
X40443524Y-22516591D01*
X40471680Y-22569264D01*
X40509569Y-22615432D01*
X40555737Y-22653321D01*
X40559245Y-22655196D01*
X40754482Y-22850434D01*
X40739943Y-22877636D01*
X40725465Y-22925364D01*
X40721801Y-22962563D01*
X40721800Y-23120121D01*
X40696104Y-23145817D01*
X40350000Y-23145817D01*
X40326883Y-23148094D01*
X40303200Y-23124411D01*
X40303200Y-23100000D01*
X40299296Y-23060358D01*
X40287732Y-23022239D01*
X40268955Y-22987108D01*
X40243684Y-22956316D01*
X40212892Y-22931045D01*
X40177761Y-22912268D01*
X40139642Y-22900704D01*
X40100000Y-22896800D01*
X39964885Y-22896800D01*
X39950000Y-22895334D01*
X39935115Y-22896800D01*
X39316641Y-22896800D01*
X39315090Y-22894910D01*
X39268995Y-22857081D01*
X39216406Y-22828972D01*
X39159343Y-22811662D01*
X39100000Y-22805817D01*
X38900000Y-22805817D01*
X38840657Y-22811662D01*
X38783594Y-22828972D01*
X38731005Y-22857081D01*
X38684910Y-22894910D01*
X38683359Y-22896800D01*
X38600000Y-22896800D01*
X38582658Y-22898508D01*
X38586126Y-22863299D01*
X38584901Y-22850862D01*
X38584901Y-21865183D01*
X39058000Y-21865183D01*
X39097834Y-21861260D01*
X39136137Y-21849640D01*
X39171438Y-21830772D01*
X39202379Y-21805379D01*
X39227772Y-21774438D01*
X39246640Y-21739137D01*
X39258260Y-21700834D01*
X39262183Y-21661000D01*
X39262183Y-21361000D01*
X39258260Y-21321166D01*
X39246640Y-21282863D01*
X39234954Y-21261000D01*
X39246640Y-21239137D01*
X39258260Y-21200834D01*
X39262183Y-21161000D01*
X39262183Y-20861000D01*
X39258260Y-20821166D01*
X39246640Y-20782863D01*
X39234954Y-20761000D01*
X39246640Y-20739137D01*
X39258260Y-20700834D01*
X39262183Y-20661000D01*
X39262183Y-20620895D01*
X39354438Y-20528640D01*
X39364107Y-20520705D01*
X39395748Y-20482150D01*
X39419259Y-20438163D01*
X39433737Y-20390435D01*
X39437401Y-20353236D01*
X39438626Y-20340799D01*
X39437401Y-20328362D01*
X39437401Y-19772476D01*
X39438626Y-19760039D01*
X39433737Y-19710403D01*
X39419259Y-19662674D01*
X39408569Y-19642675D01*
X39395748Y-19618688D01*
X39364107Y-19580133D01*
X39354433Y-19572194D01*
X39262004Y-19479764D01*
X39254068Y-19470094D01*
X39215793Y-19438682D01*
X39256211Y-19398264D01*
X39333167Y-19283090D01*
X39385817Y-19155983D01*
X39385817Y-19230000D01*
X39389740Y-19269834D01*
X39401360Y-19308137D01*
X39420228Y-19343438D01*
X39445621Y-19374379D01*
X39476562Y-19399772D01*
X39511863Y-19418640D01*
X39550166Y-19430260D01*
X39590000Y-19434183D01*
X39860000Y-19434183D01*
X39899834Y-19430260D01*
X39938137Y-19418640D01*
X39973438Y-19399772D01*
X40004379Y-19374379D01*
X40029772Y-19343438D01*
X40048640Y-19308137D01*
X40060260Y-19269834D01*
X40064183Y-19230000D01*
X40064183Y-19098984D01*
X40104268Y-19115587D01*
X40167675Y-19128200D01*
X40232325Y-19128200D01*
X40295732Y-19115587D01*
X40348009Y-19093934D01*
X40348010Y-19434599D01*
G37*
X40348010Y-19434599D02*
X40333594Y-19438972D01*
X40281005Y-19467081D01*
X40234910Y-19504910D01*
X40197081Y-19551005D01*
X40168972Y-19603594D01*
X40151662Y-19660657D01*
X40145817Y-19720000D01*
X40145817Y-19980000D01*
X40151662Y-20039343D01*
X40168972Y-20096406D01*
X40197081Y-20148995D01*
X40214319Y-20170000D01*
X40200000Y-20187448D01*
X40165090Y-20144910D01*
X40118995Y-20107081D01*
X40066406Y-20078972D01*
X40009343Y-20061662D01*
X39950000Y-20055817D01*
X39939530Y-20055817D01*
X39929040Y-20052635D01*
X39850000Y-20044850D01*
X39770959Y-20052635D01*
X39760469Y-20055817D01*
X39750000Y-20055817D01*
X39690657Y-20061662D01*
X39633594Y-20078972D01*
X39581005Y-20107081D01*
X39534910Y-20144910D01*
X39497081Y-20191005D01*
X39468972Y-20243594D01*
X39451662Y-20300657D01*
X39445817Y-20360000D01*
X39445817Y-20620000D01*
X39446800Y-20629980D01*
X39446800Y-20705209D01*
X39444851Y-20725000D01*
X39446800Y-20744791D01*
X39446800Y-20744798D01*
X39452635Y-20804041D01*
X39475690Y-20880044D01*
X39501431Y-20928200D01*
X39513131Y-20950089D01*
X39550590Y-20995732D01*
X39563517Y-21011484D01*
X39578892Y-21024102D01*
X39678894Y-21124104D01*
X39724911Y-21161869D01*
X39794956Y-21199309D01*
X39870958Y-21222364D01*
X39949999Y-21230149D01*
X39955005Y-21229656D01*
X39958408Y-21231475D01*
X40015561Y-21248812D01*
X40060104Y-21253199D01*
X40060113Y-21253199D01*
X40074998Y-21254665D01*
X40089883Y-21253199D01*
X40695738Y-21253199D01*
X40710623Y-21254665D01*
X40725508Y-21253199D01*
X40725518Y-21253199D01*
X40770061Y-21248812D01*
X40827214Y-21231475D01*
X40833943Y-21227878D01*
X40895732Y-21215587D01*
X40955461Y-21190847D01*
X41009215Y-21154930D01*
X41054930Y-21109215D01*
X41075653Y-21078200D01*
X41082325Y-21078200D01*
X41145732Y-21065587D01*
X41205461Y-21040847D01*
X41259215Y-21004930D01*
X41289962Y-20974183D01*
X41473000Y-20974183D01*
X41473000Y-21245817D01*
X41000000Y-21245817D01*
X40960166Y-21249740D01*
X40921863Y-21261360D01*
X40886562Y-21280228D01*
X40855621Y-21305621D01*
X40830228Y-21336562D01*
X40811360Y-21371863D01*
X40799740Y-21410166D01*
X40795817Y-21450000D01*
X40795817Y-21779457D01*
X40757325Y-21771800D01*
X40692675Y-21771800D01*
X40629268Y-21784413D01*
X40569539Y-21809153D01*
X40515785Y-21845070D01*
X40470070Y-21890785D01*
X40434153Y-21944539D01*
X40409413Y-22004268D01*
X40396800Y-22067675D01*
X40396800Y-22132325D01*
X40409413Y-22195732D01*
X40421800Y-22225638D01*
X40421800Y-22377277D01*
X40420334Y-22392162D01*
X40421800Y-22407047D01*
X40421800Y-22414895D01*
X40426187Y-22459438D01*
X40443524Y-22516591D01*
X40471680Y-22569264D01*
X40509569Y-22615432D01*
X40555737Y-22653321D01*
X40559245Y-22655196D01*
X40754482Y-22850434D01*
X40739943Y-22877636D01*
X40725465Y-22925364D01*
X40721801Y-22962563D01*
X40721800Y-23120121D01*
X40696104Y-23145817D01*
X40350000Y-23145817D01*
X40326883Y-23148094D01*
X40303200Y-23124411D01*
X40303200Y-23100000D01*
X40299296Y-23060358D01*
X40287732Y-23022239D01*
X40268955Y-22987108D01*
X40243684Y-22956316D01*
X40212892Y-22931045D01*
X40177761Y-22912268D01*
X40139642Y-22900704D01*
X40100000Y-22896800D01*
X39964885Y-22896800D01*
X39950000Y-22895334D01*
X39935115Y-22896800D01*
X39316641Y-22896800D01*
X39315090Y-22894910D01*
X39268995Y-22857081D01*
X39216406Y-22828972D01*
X39159343Y-22811662D01*
X39100000Y-22805817D01*
X38900000Y-22805817D01*
X38840657Y-22811662D01*
X38783594Y-22828972D01*
X38731005Y-22857081D01*
X38684910Y-22894910D01*
X38683359Y-22896800D01*
X38600000Y-22896800D01*
X38582658Y-22898508D01*
X38586126Y-22863299D01*
X38584901Y-22850862D01*
X38584901Y-21865183D01*
X39058000Y-21865183D01*
X39097834Y-21861260D01*
X39136137Y-21849640D01*
X39171438Y-21830772D01*
X39202379Y-21805379D01*
X39227772Y-21774438D01*
X39246640Y-21739137D01*
X39258260Y-21700834D01*
X39262183Y-21661000D01*
X39262183Y-21361000D01*
X39258260Y-21321166D01*
X39246640Y-21282863D01*
X39234954Y-21261000D01*
X39246640Y-21239137D01*
X39258260Y-21200834D01*
X39262183Y-21161000D01*
X39262183Y-20861000D01*
X39258260Y-20821166D01*
X39246640Y-20782863D01*
X39234954Y-20761000D01*
X39246640Y-20739137D01*
X39258260Y-20700834D01*
X39262183Y-20661000D01*
X39262183Y-20620895D01*
X39354438Y-20528640D01*
X39364107Y-20520705D01*
X39395748Y-20482150D01*
X39419259Y-20438163D01*
X39433737Y-20390435D01*
X39437401Y-20353236D01*
X39438626Y-20340799D01*
X39437401Y-20328362D01*
X39437401Y-19772476D01*
X39438626Y-19760039D01*
X39433737Y-19710403D01*
X39419259Y-19662674D01*
X39408569Y-19642675D01*
X39395748Y-19618688D01*
X39364107Y-19580133D01*
X39354433Y-19572194D01*
X39262004Y-19479764D01*
X39254068Y-19470094D01*
X39215793Y-19438682D01*
X39256211Y-19398264D01*
X39333167Y-19283090D01*
X39385817Y-19155983D01*
X39385817Y-19230000D01*
X39389740Y-19269834D01*
X39401360Y-19308137D01*
X39420228Y-19343438D01*
X39445621Y-19374379D01*
X39476562Y-19399772D01*
X39511863Y-19418640D01*
X39550166Y-19430260D01*
X39590000Y-19434183D01*
X39860000Y-19434183D01*
X39899834Y-19430260D01*
X39938137Y-19418640D01*
X39973438Y-19399772D01*
X40004379Y-19374379D01*
X40029772Y-19343438D01*
X40048640Y-19308137D01*
X40060260Y-19269834D01*
X40064183Y-19230000D01*
X40064183Y-19098984D01*
X40104268Y-19115587D01*
X40167675Y-19128200D01*
X40232325Y-19128200D01*
X40295732Y-19115587D01*
X40348009Y-19093934D01*
X40348010Y-19434599D01*
G36*
X37421800Y-23062675D02*
G01*
X37421800Y-23116800D01*
X37378200Y-23116800D01*
X37378200Y-23067675D01*
X37375420Y-23053700D01*
X37423585Y-23053700D01*
X37421800Y-23062675D01*
G37*
X37421800Y-23062675D02*
X37421800Y-23116800D01*
X37378200Y-23116800D01*
X37378200Y-23067675D01*
X37375420Y-23053700D01*
X37423585Y-23053700D01*
X37421800Y-23062675D01*
G36*
X33799999Y-19854425D02*
G01*
X33812436Y-19853200D01*
X33824994Y-19853200D01*
X33822910Y-19854910D01*
X33785081Y-19901005D01*
X33756972Y-19953594D01*
X33739662Y-20010657D01*
X33733817Y-20070000D01*
X33733817Y-20270000D01*
X33734992Y-20281930D01*
X33710996Y-20305925D01*
X33710642Y-20305736D01*
X33661552Y-20290845D01*
X33610500Y-20285817D01*
X33425500Y-20285817D01*
X33374448Y-20290845D01*
X33325358Y-20305736D01*
X33280117Y-20329919D01*
X33240462Y-20362462D01*
X33207919Y-20402117D01*
X33183736Y-20447358D01*
X33168845Y-20496448D01*
X33165067Y-20534809D01*
X33151188Y-20580562D01*
X33149811Y-20594539D01*
X33145334Y-20640000D01*
X33146801Y-20654894D01*
X33146800Y-21124362D01*
X33134413Y-21154268D01*
X33121800Y-21217675D01*
X33121800Y-21282325D01*
X33129197Y-21319512D01*
X33091351Y-21288453D01*
X33047364Y-21264942D01*
X32999636Y-21250464D01*
X32962437Y-21246800D01*
X32950000Y-21245575D01*
X32937563Y-21246800D01*
X32927000Y-21246800D01*
X32927000Y-21055347D01*
X32933863Y-21038778D01*
X32953200Y-20941561D01*
X32953200Y-20842439D01*
X32933863Y-20745222D01*
X32927000Y-20728653D01*
X32927000Y-20431078D01*
X33137833Y-20220246D01*
X33137837Y-20220241D01*
X33506080Y-19851999D01*
X33775369Y-19851999D01*
X33799999Y-19854425D01*
G37*
X33799999Y-19854425D02*
X33812436Y-19853200D01*
X33824994Y-19853200D01*
X33822910Y-19854910D01*
X33785081Y-19901005D01*
X33756972Y-19953594D01*
X33739662Y-20010657D01*
X33733817Y-20070000D01*
X33733817Y-20270000D01*
X33734992Y-20281930D01*
X33710996Y-20305925D01*
X33710642Y-20305736D01*
X33661552Y-20290845D01*
X33610500Y-20285817D01*
X33425500Y-20285817D01*
X33374448Y-20290845D01*
X33325358Y-20305736D01*
X33280117Y-20329919D01*
X33240462Y-20362462D01*
X33207919Y-20402117D01*
X33183736Y-20447358D01*
X33168845Y-20496448D01*
X33165067Y-20534809D01*
X33151188Y-20580562D01*
X33149811Y-20594539D01*
X33145334Y-20640000D01*
X33146801Y-20654894D01*
X33146800Y-21124362D01*
X33134413Y-21154268D01*
X33121800Y-21217675D01*
X33121800Y-21282325D01*
X33129197Y-21319512D01*
X33091351Y-21288453D01*
X33047364Y-21264942D01*
X32999636Y-21250464D01*
X32962437Y-21246800D01*
X32950000Y-21245575D01*
X32937563Y-21246800D01*
X32927000Y-21246800D01*
X32927000Y-21055347D01*
X32933863Y-21038778D01*
X32953200Y-20941561D01*
X32953200Y-20842439D01*
X32933863Y-20745222D01*
X32927000Y-20728653D01*
X32927000Y-20431078D01*
X33137833Y-20220246D01*
X33137837Y-20220241D01*
X33506080Y-19851999D01*
X33775369Y-19851999D01*
X33799999Y-19854425D01*
G36*
X35836910Y-19573167D02*
G01*
X35964884Y-19626176D01*
X36100741Y-19653200D01*
X36239259Y-19653200D01*
X36375116Y-19626176D01*
X36446801Y-19596483D01*
X36446801Y-20160638D01*
X36408000Y-20156817D01*
X35738000Y-20156817D01*
X35728200Y-20157782D01*
X35728200Y-19600653D01*
X35759215Y-19579930D01*
X35794389Y-19544756D01*
X35836910Y-19573167D01*
G37*
X35836910Y-19573167D02*
X35964884Y-19626176D01*
X36100741Y-19653200D01*
X36239259Y-19653200D01*
X36375116Y-19626176D01*
X36446801Y-19596483D01*
X36446801Y-20160638D01*
X36408000Y-20156817D01*
X35738000Y-20156817D01*
X35728200Y-20157782D01*
X35728200Y-19600653D01*
X35759215Y-19579930D01*
X35794389Y-19544756D01*
X35836910Y-19573167D01*
G36*
X35964884Y-18273824D02*
G01*
X35836910Y-18326833D01*
X35721736Y-18403789D01*
X35623789Y-18501736D01*
X35546833Y-18616910D01*
X35493824Y-18744884D01*
X35466800Y-18880741D01*
X35466800Y-19006920D01*
X35454268Y-19009413D01*
X35394539Y-19034153D01*
X35340785Y-19070070D01*
X35295070Y-19115785D01*
X35259153Y-19169539D01*
X35234413Y-19229268D01*
X35221800Y-19292675D01*
X35221800Y-19357325D01*
X35223792Y-19367339D01*
X35220575Y-19400000D01*
X35221801Y-19412447D01*
X35221801Y-19962734D01*
X35219028Y-19953594D01*
X35190919Y-19901005D01*
X35153090Y-19854910D01*
X35106995Y-19817081D01*
X35054406Y-19788972D01*
X35005480Y-19774130D01*
X35034215Y-19754930D01*
X35079930Y-19709215D01*
X35115847Y-19655461D01*
X35140587Y-19595732D01*
X35153200Y-19532325D01*
X35153200Y-19467675D01*
X35140587Y-19404268D01*
X35115847Y-19344539D01*
X35090292Y-19306292D01*
X35090847Y-19305461D01*
X35115587Y-19245732D01*
X35128200Y-19182325D01*
X35128200Y-19117675D01*
X35128036Y-19116851D01*
X35130461Y-19115847D01*
X35184215Y-19079930D01*
X35229930Y-19034215D01*
X35265847Y-18980461D01*
X35290587Y-18920732D01*
X35303200Y-18857325D01*
X35303200Y-18792675D01*
X35290587Y-18729268D01*
X35265847Y-18669539D01*
X35229930Y-18615785D01*
X35184215Y-18570070D01*
X35130461Y-18534153D01*
X35070732Y-18509413D01*
X35007325Y-18496800D01*
X35004879Y-18496800D01*
X34776078Y-18268000D01*
X35994163Y-18268000D01*
X35964884Y-18273824D01*
G37*
X35964884Y-18273824D02*
X35836910Y-18326833D01*
X35721736Y-18403789D01*
X35623789Y-18501736D01*
X35546833Y-18616910D01*
X35493824Y-18744884D01*
X35466800Y-18880741D01*
X35466800Y-19006920D01*
X35454268Y-19009413D01*
X35394539Y-19034153D01*
X35340785Y-19070070D01*
X35295070Y-19115785D01*
X35259153Y-19169539D01*
X35234413Y-19229268D01*
X35221800Y-19292675D01*
X35221800Y-19357325D01*
X35223792Y-19367339D01*
X35220575Y-19400000D01*
X35221801Y-19412447D01*
X35221801Y-19962734D01*
X35219028Y-19953594D01*
X35190919Y-19901005D01*
X35153090Y-19854910D01*
X35106995Y-19817081D01*
X35054406Y-19788972D01*
X35005480Y-19774130D01*
X35034215Y-19754930D01*
X35079930Y-19709215D01*
X35115847Y-19655461D01*
X35140587Y-19595732D01*
X35153200Y-19532325D01*
X35153200Y-19467675D01*
X35140587Y-19404268D01*
X35115847Y-19344539D01*
X35090292Y-19306292D01*
X35090847Y-19305461D01*
X35115587Y-19245732D01*
X35128200Y-19182325D01*
X35128200Y-19117675D01*
X35128036Y-19116851D01*
X35130461Y-19115847D01*
X35184215Y-19079930D01*
X35229930Y-19034215D01*
X35265847Y-18980461D01*
X35290587Y-18920732D01*
X35303200Y-18857325D01*
X35303200Y-18792675D01*
X35290587Y-18729268D01*
X35265847Y-18669539D01*
X35229930Y-18615785D01*
X35184215Y-18570070D01*
X35130461Y-18534153D01*
X35070732Y-18509413D01*
X35007325Y-18496800D01*
X35004879Y-18496800D01*
X34776078Y-18268000D01*
X35994163Y-18268000D01*
X35964884Y-18273824D01*
G36*
X41044884Y-18273824D02*
G01*
X40916910Y-18326833D01*
X40801736Y-18403789D01*
X40722883Y-18482642D01*
X40618802Y-18378562D01*
X40610867Y-18368893D01*
X40572312Y-18337252D01*
X40528325Y-18313741D01*
X40480597Y-18299263D01*
X40443398Y-18295599D01*
X40430961Y-18294374D01*
X40418524Y-18295599D01*
X39963638Y-18295599D01*
X39951201Y-18294374D01*
X39938764Y-18295599D01*
X39918956Y-18297550D01*
X39901565Y-18299263D01*
X39853836Y-18313741D01*
X39844748Y-18318599D01*
X39809850Y-18337252D01*
X39771295Y-18368893D01*
X39763364Y-18378557D01*
X39636105Y-18505817D01*
X39590000Y-18505817D01*
X39550166Y-18509740D01*
X39511863Y-18521360D01*
X39476562Y-18540228D01*
X39445621Y-18565621D01*
X39420228Y-18596562D01*
X39401360Y-18631863D01*
X39389740Y-18670166D01*
X39385817Y-18710000D01*
X39385817Y-18744017D01*
X39333167Y-18616910D01*
X39256211Y-18501736D01*
X39158264Y-18403789D01*
X39043090Y-18326833D01*
X38915116Y-18273824D01*
X38885837Y-18268000D01*
X41074163Y-18268000D01*
X41044884Y-18273824D01*
G37*
X41044884Y-18273824D02*
X40916910Y-18326833D01*
X40801736Y-18403789D01*
X40722883Y-18482642D01*
X40618802Y-18378562D01*
X40610867Y-18368893D01*
X40572312Y-18337252D01*
X40528325Y-18313741D01*
X40480597Y-18299263D01*
X40443398Y-18295599D01*
X40430961Y-18294374D01*
X40418524Y-18295599D01*
X39963638Y-18295599D01*
X39951201Y-18294374D01*
X39938764Y-18295599D01*
X39918956Y-18297550D01*
X39901565Y-18299263D01*
X39853836Y-18313741D01*
X39844748Y-18318599D01*
X39809850Y-18337252D01*
X39771295Y-18368893D01*
X39763364Y-18378557D01*
X39636105Y-18505817D01*
X39590000Y-18505817D01*
X39550166Y-18509740D01*
X39511863Y-18521360D01*
X39476562Y-18540228D01*
X39445621Y-18565621D01*
X39420228Y-18596562D01*
X39401360Y-18631863D01*
X39389740Y-18670166D01*
X39385817Y-18710000D01*
X39385817Y-18744017D01*
X39333167Y-18616910D01*
X39256211Y-18501736D01*
X39158264Y-18403789D01*
X39043090Y-18326833D01*
X38915116Y-18273824D01*
X38885837Y-18268000D01*
X41074163Y-18268000D01*
X41044884Y-18273824D01*
G36*
X39973000Y-24702040D02*
G01*
X39900000Y-24694851D01*
X39820959Y-24702635D01*
X39757726Y-24721817D01*
X39690000Y-24721817D01*
X39650166Y-24725740D01*
X39611863Y-24737360D01*
X39576562Y-24756228D01*
X39545621Y-24781621D01*
X39520228Y-24812562D01*
X39501360Y-24847863D01*
X39489740Y-24886166D01*
X39485817Y-24926000D01*
X39485817Y-25236000D01*
X39489740Y-25275834D01*
X39501360Y-25314137D01*
X39520228Y-25349438D01*
X39545621Y-25380379D01*
X39576562Y-25405772D01*
X39611863Y-25424640D01*
X39650166Y-25436260D01*
X39667785Y-25437995D01*
X39875893Y-25646103D01*
X39888516Y-25661484D01*
X39949911Y-25711870D01*
X39965119Y-25719999D01*
X39973000Y-25727880D01*
X39973000Y-26573000D01*
X39552606Y-26573000D01*
X38853789Y-25874183D01*
X39000000Y-25874183D01*
X39059343Y-25868338D01*
X39116406Y-25851028D01*
X39168995Y-25822919D01*
X39215090Y-25785090D01*
X39252919Y-25738995D01*
X39281028Y-25686406D01*
X39298338Y-25629343D01*
X39304183Y-25570000D01*
X39304183Y-25370000D01*
X39298338Y-25310657D01*
X39281028Y-25253594D01*
X39252919Y-25201005D01*
X39215090Y-25154910D01*
X39211874Y-25152271D01*
X39254930Y-25109215D01*
X39290847Y-25055461D01*
X39315587Y-24995732D01*
X39318540Y-24980886D01*
X39352919Y-24938995D01*
X39381028Y-24886406D01*
X39398338Y-24829343D01*
X39401988Y-24792286D01*
X39405461Y-24790847D01*
X39459215Y-24754930D01*
X39504930Y-24709215D01*
X39540847Y-24655461D01*
X39565587Y-24595732D01*
X39578200Y-24532325D01*
X39578200Y-24467675D01*
X39565587Y-24404268D01*
X39540847Y-24344539D01*
X39504930Y-24290785D01*
X39459215Y-24245070D01*
X39405461Y-24209153D01*
X39393795Y-24204321D01*
X39398338Y-24189343D01*
X39404183Y-24130000D01*
X39404183Y-23870000D01*
X39398338Y-23810657D01*
X39381028Y-23753594D01*
X39352919Y-23701005D01*
X39315090Y-23654910D01*
X39268995Y-23617081D01*
X39216406Y-23588972D01*
X39159343Y-23571662D01*
X39100000Y-23565817D01*
X38971656Y-23565817D01*
X38954930Y-23540785D01*
X38909215Y-23495070D01*
X38855461Y-23459153D01*
X38795732Y-23434413D01*
X38732325Y-23421800D01*
X38727000Y-23421800D01*
X38727000Y-23227000D01*
X39973000Y-23227000D01*
X39973000Y-24702040D01*
G37*
X39973000Y-24702040D02*
X39900000Y-24694851D01*
X39820959Y-24702635D01*
X39757726Y-24721817D01*
X39690000Y-24721817D01*
X39650166Y-24725740D01*
X39611863Y-24737360D01*
X39576562Y-24756228D01*
X39545621Y-24781621D01*
X39520228Y-24812562D01*
X39501360Y-24847863D01*
X39489740Y-24886166D01*
X39485817Y-24926000D01*
X39485817Y-25236000D01*
X39489740Y-25275834D01*
X39501360Y-25314137D01*
X39520228Y-25349438D01*
X39545621Y-25380379D01*
X39576562Y-25405772D01*
X39611863Y-25424640D01*
X39650166Y-25436260D01*
X39667785Y-25437995D01*
X39875893Y-25646103D01*
X39888516Y-25661484D01*
X39949911Y-25711870D01*
X39965119Y-25719999D01*
X39973000Y-25727880D01*
X39973000Y-26573000D01*
X39552606Y-26573000D01*
X38853789Y-25874183D01*
X39000000Y-25874183D01*
X39059343Y-25868338D01*
X39116406Y-25851028D01*
X39168995Y-25822919D01*
X39215090Y-25785090D01*
X39252919Y-25738995D01*
X39281028Y-25686406D01*
X39298338Y-25629343D01*
X39304183Y-25570000D01*
X39304183Y-25370000D01*
X39298338Y-25310657D01*
X39281028Y-25253594D01*
X39252919Y-25201005D01*
X39215090Y-25154910D01*
X39211874Y-25152271D01*
X39254930Y-25109215D01*
X39290847Y-25055461D01*
X39315587Y-24995732D01*
X39318540Y-24980886D01*
X39352919Y-24938995D01*
X39381028Y-24886406D01*
X39398338Y-24829343D01*
X39401988Y-24792286D01*
X39405461Y-24790847D01*
X39459215Y-24754930D01*
X39504930Y-24709215D01*
X39540847Y-24655461D01*
X39565587Y-24595732D01*
X39578200Y-24532325D01*
X39578200Y-24467675D01*
X39565587Y-24404268D01*
X39540847Y-24344539D01*
X39504930Y-24290785D01*
X39459215Y-24245070D01*
X39405461Y-24209153D01*
X39393795Y-24204321D01*
X39398338Y-24189343D01*
X39404183Y-24130000D01*
X39404183Y-23870000D01*
X39398338Y-23810657D01*
X39381028Y-23753594D01*
X39352919Y-23701005D01*
X39315090Y-23654910D01*
X39268995Y-23617081D01*
X39216406Y-23588972D01*
X39159343Y-23571662D01*
X39100000Y-23565817D01*
X38971656Y-23565817D01*
X38954930Y-23540785D01*
X38909215Y-23495070D01*
X38855461Y-23459153D01*
X38795732Y-23434413D01*
X38732325Y-23421800D01*
X38727000Y-23421800D01*
X38727000Y-23227000D01*
X39973000Y-23227000D01*
X39973000Y-24702040D01*
M02*
