G04 #@! TF.GenerationSoftware,KiCad,Pcbnew,(5.1.6)-1*
G04 #@! TF.CreationDate,2020-12-05T12:50:13+08:00*
G04 #@! TF.ProjectId,qomu-board,716f6d75-2d62-46f6-9172-642e6b696361,rev?*
G04 #@! TF.SameCoordinates,Original*
G04 #@! TF.FileFunction,Soldermask,Top*
G04 #@! TF.FilePolarity,Negative*
%FSLAX46Y46*%
G04 Gerber Fmt 4.6, Leading zero omitted, Abs format (unit mm)*
G04 Created by KiCad (PCBNEW (5.1.6)-1) date 2020-12-05 12:50:13*
%MOMM*%
%LPD*%
G01*
G04 APERTURE LIST*
%ADD10C,0.100000*%
%ADD11C,0.010000*%
%ADD12R,1.250000X1.500000*%
%ADD13O,1.250000X1.500000*%
%ADD14O,1.700000X0.900000*%
%ADD15O,2.400000X0.900000*%
%ADD16C,0.650000*%
%ADD17C,0.600000*%
%ADD18C,1.100000*%
%ADD19C,1.200000*%
%ADD20R,7.500002X2.250002*%
%ADD21R,7.500002X1.750002*%
%ADD22R,1.000002X1.000002*%
G04 APERTURE END LIST*
D10*
G36*
X45298000Y-18186000D02*
G01*
X46000000Y-20336000D01*
X43048000Y-20336000D01*
X43048000Y-18136000D01*
X45198000Y-18136000D01*
X45298000Y-18186000D01*
G37*
X45298000Y-18186000D02*
X46000000Y-20336000D01*
X43048000Y-20336000D01*
X43048000Y-18136000D01*
X45198000Y-18136000D01*
X45298000Y-18186000D01*
G36*
X45648000Y-26386000D02*
G01*
X45298000Y-27486000D01*
X45248000Y-27536000D01*
X44248000Y-27536000D01*
X44198000Y-27186000D01*
X43998000Y-26936000D01*
X43798000Y-26786000D01*
X43648000Y-26736000D01*
X43448000Y-26736000D01*
X43148000Y-26786000D01*
X42948000Y-26886000D01*
X42948000Y-25336000D01*
X45850000Y-25336000D01*
X45648000Y-26386000D01*
G37*
X45648000Y-26386000D02*
X45298000Y-27486000D01*
X45248000Y-27536000D01*
X44248000Y-27536000D01*
X44198000Y-27186000D01*
X43998000Y-26936000D01*
X43798000Y-26786000D01*
X43648000Y-26736000D01*
X43448000Y-26736000D01*
X43148000Y-26786000D01*
X42948000Y-26886000D01*
X42948000Y-25336000D01*
X45850000Y-25336000D01*
X45648000Y-26386000D01*
G36*
X45798000Y-21536000D02*
G01*
X45798000Y-24136000D01*
X45750000Y-25040000D01*
X44255500Y-25036000D01*
X43048000Y-25036000D01*
X43055500Y-20586000D01*
X45800000Y-20586000D01*
X45798000Y-21536000D01*
G37*
X45798000Y-21536000D02*
X45798000Y-24136000D01*
X45750000Y-25040000D01*
X44255500Y-25036000D01*
X43048000Y-25036000D01*
X43055500Y-20586000D01*
X45800000Y-20586000D01*
X45798000Y-21536000D01*
D11*
G36*
X23034642Y-22550117D02*
G01*
X22926163Y-22549933D01*
X22842713Y-22549219D01*
X22780296Y-22547675D01*
X22734915Y-22545001D01*
X22702571Y-22540894D01*
X22679267Y-22535055D01*
X22661005Y-22527182D01*
X22650582Y-22521221D01*
X22594055Y-22471855D01*
X22558623Y-22409264D01*
X22545910Y-22340013D01*
X22557537Y-22270668D01*
X22578432Y-22229375D01*
X22614578Y-22186025D01*
X22658724Y-22156481D01*
X22716538Y-22138655D01*
X22793687Y-22130463D01*
X22850286Y-22129302D01*
X22854353Y-22129458D01*
X22854353Y-22230857D01*
X22789450Y-22231476D01*
X22746486Y-22234314D01*
X22718378Y-22240840D01*
X22698047Y-22252523D01*
X22682712Y-22266483D01*
X22653110Y-22313365D01*
X22650581Y-22363701D01*
X22675295Y-22411276D01*
X22678644Y-22414979D01*
X22696065Y-22430783D01*
X22716791Y-22440693D01*
X22747638Y-22446058D01*
X22795423Y-22448228D01*
X22848252Y-22448571D01*
X22914619Y-22447827D01*
X22958894Y-22444748D01*
X22987991Y-22438061D01*
X23008827Y-22426496D01*
X23019893Y-22417013D01*
X23047802Y-22372960D01*
X23051157Y-22322224D01*
X23029841Y-22273796D01*
X23021927Y-22264450D01*
X23004353Y-22248540D01*
X22983413Y-22238610D01*
X22952218Y-22233278D01*
X22903878Y-22231163D01*
X22854353Y-22230857D01*
X22854353Y-22129458D01*
X22941432Y-22132810D01*
X23009914Y-22144726D01*
X23061400Y-22167135D01*
X23101557Y-22202124D01*
X23122139Y-22229375D01*
X23144375Y-22278907D01*
X23154696Y-22336316D01*
X23151933Y-22389682D01*
X23140788Y-22419543D01*
X23137617Y-22431261D01*
X23149443Y-22439037D01*
X23181134Y-22444465D01*
X23229407Y-22448571D01*
X23283171Y-22453067D01*
X23315518Y-22459313D01*
X23334015Y-22470676D01*
X23346230Y-22490528D01*
X23351638Y-22503000D01*
X23371399Y-22550171D01*
X23034642Y-22550117D01*
G37*
X23034642Y-22550117D02*
X22926163Y-22549933D01*
X22842713Y-22549219D01*
X22780296Y-22547675D01*
X22734915Y-22545001D01*
X22702571Y-22540894D01*
X22679267Y-22535055D01*
X22661005Y-22527182D01*
X22650582Y-22521221D01*
X22594055Y-22471855D01*
X22558623Y-22409264D01*
X22545910Y-22340013D01*
X22557537Y-22270668D01*
X22578432Y-22229375D01*
X22614578Y-22186025D01*
X22658724Y-22156481D01*
X22716538Y-22138655D01*
X22793687Y-22130463D01*
X22850286Y-22129302D01*
X22854353Y-22129458D01*
X22854353Y-22230857D01*
X22789450Y-22231476D01*
X22746486Y-22234314D01*
X22718378Y-22240840D01*
X22698047Y-22252523D01*
X22682712Y-22266483D01*
X22653110Y-22313365D01*
X22650581Y-22363701D01*
X22675295Y-22411276D01*
X22678644Y-22414979D01*
X22696065Y-22430783D01*
X22716791Y-22440693D01*
X22747638Y-22446058D01*
X22795423Y-22448228D01*
X22848252Y-22448571D01*
X22914619Y-22447827D01*
X22958894Y-22444748D01*
X22987991Y-22438061D01*
X23008827Y-22426496D01*
X23019893Y-22417013D01*
X23047802Y-22372960D01*
X23051157Y-22322224D01*
X23029841Y-22273796D01*
X23021927Y-22264450D01*
X23004353Y-22248540D01*
X22983413Y-22238610D01*
X22952218Y-22233278D01*
X22903878Y-22231163D01*
X22854353Y-22230857D01*
X22854353Y-22129458D01*
X22941432Y-22132810D01*
X23009914Y-22144726D01*
X23061400Y-22167135D01*
X23101557Y-22202124D01*
X23122139Y-22229375D01*
X23144375Y-22278907D01*
X23154696Y-22336316D01*
X23151933Y-22389682D01*
X23140788Y-22419543D01*
X23137617Y-22431261D01*
X23149443Y-22439037D01*
X23181134Y-22444465D01*
X23229407Y-22448571D01*
X23283171Y-22453067D01*
X23315518Y-22459313D01*
X23334015Y-22470676D01*
X23346230Y-22490528D01*
X23351638Y-22503000D01*
X23371399Y-22550171D01*
X23034642Y-22550117D01*
G36*
X23172220Y-20076093D02*
G01*
X23145277Y-20122672D01*
X23118534Y-20155057D01*
X23090516Y-20178742D01*
X23056252Y-20195059D01*
X23010773Y-20205339D01*
X22949108Y-20210914D01*
X22866289Y-20213116D01*
X22806754Y-20213371D01*
X22587609Y-20213371D01*
X22559956Y-20151686D01*
X22532303Y-20090000D01*
X22772330Y-20082743D01*
X22861972Y-20079744D01*
X22927038Y-20076598D01*
X22971974Y-20072701D01*
X23001230Y-20067447D01*
X23019252Y-20060231D01*
X23030489Y-20050450D01*
X23032921Y-20047312D01*
X23051917Y-19999761D01*
X23044400Y-19951697D01*
X23024457Y-19923086D01*
X23010325Y-19911447D01*
X22991780Y-19903391D01*
X22963666Y-19898271D01*
X22920827Y-19895441D01*
X22858105Y-19894256D01*
X22792739Y-19894057D01*
X22710732Y-19894018D01*
X22652684Y-19892614D01*
X22613535Y-19887914D01*
X22588220Y-19877987D01*
X22571677Y-19860903D01*
X22558844Y-19834732D01*
X22545509Y-19799775D01*
X22530993Y-19761596D01*
X22788611Y-19766141D01*
X22881481Y-19767971D01*
X22950111Y-19770112D01*
X22999289Y-19773181D01*
X23033802Y-19777794D01*
X23058438Y-19784568D01*
X23077984Y-19794119D01*
X23095230Y-19805634D01*
X23150320Y-19861190D01*
X23182178Y-19928980D01*
X23189809Y-20002713D01*
X23172220Y-20076093D01*
G37*
X23172220Y-20076093D02*
X23145277Y-20122672D01*
X23118534Y-20155057D01*
X23090516Y-20178742D01*
X23056252Y-20195059D01*
X23010773Y-20205339D01*
X22949108Y-20210914D01*
X22866289Y-20213116D01*
X22806754Y-20213371D01*
X22587609Y-20213371D01*
X22559956Y-20151686D01*
X22532303Y-20090000D01*
X22772330Y-20082743D01*
X22861972Y-20079744D01*
X22927038Y-20076598D01*
X22971974Y-20072701D01*
X23001230Y-20067447D01*
X23019252Y-20060231D01*
X23030489Y-20050450D01*
X23032921Y-20047312D01*
X23051917Y-19999761D01*
X23044400Y-19951697D01*
X23024457Y-19923086D01*
X23010325Y-19911447D01*
X22991780Y-19903391D01*
X22963666Y-19898271D01*
X22920827Y-19895441D01*
X22858105Y-19894256D01*
X22792739Y-19894057D01*
X22710732Y-19894018D01*
X22652684Y-19892614D01*
X22613535Y-19887914D01*
X22588220Y-19877987D01*
X22571677Y-19860903D01*
X22558844Y-19834732D01*
X22545509Y-19799775D01*
X22530993Y-19761596D01*
X22788611Y-19766141D01*
X22881481Y-19767971D01*
X22950111Y-19770112D01*
X22999289Y-19773181D01*
X23033802Y-19777794D01*
X23058438Y-19784568D01*
X23077984Y-19794119D01*
X23095230Y-19805634D01*
X23150320Y-19861190D01*
X23182178Y-19928980D01*
X23189809Y-20002713D01*
X23172220Y-20076093D01*
G36*
X27857652Y-21463910D02*
G01*
X27857222Y-21542454D01*
X27856058Y-21599298D01*
X27853793Y-21638105D01*
X27850060Y-21662538D01*
X27844494Y-21676262D01*
X27836727Y-21682940D01*
X27826395Y-21686236D01*
X27825057Y-21686556D01*
X27800921Y-21691562D01*
X27753299Y-21700829D01*
X27687259Y-21713392D01*
X27607872Y-21728287D01*
X27520204Y-21744551D01*
X27517125Y-21745119D01*
X27431211Y-21761410D01*
X27355304Y-21776652D01*
X27293955Y-21789861D01*
X27251718Y-21800054D01*
X27233145Y-21806248D01*
X27232816Y-21806543D01*
X27223747Y-21824788D01*
X27208633Y-21862405D01*
X27190738Y-21911271D01*
X27190642Y-21911543D01*
X27167507Y-21973093D01*
X27138035Y-22045657D01*
X27108403Y-22114057D01*
X27106938Y-22117294D01*
X27056374Y-22228702D01*
X27224840Y-22475399D01*
X27276197Y-22551077D01*
X27322111Y-22619631D01*
X27359970Y-22677088D01*
X27387163Y-22719476D01*
X27401079Y-22742825D01*
X27402111Y-22745042D01*
X27397516Y-22762010D01*
X27375345Y-22793701D01*
X27334553Y-22841352D01*
X27274095Y-22906198D01*
X27209773Y-22972397D01*
X27146388Y-23036214D01*
X27088549Y-23093329D01*
X27039825Y-23140305D01*
X27003790Y-23173703D01*
X26984016Y-23190085D01*
X26982998Y-23190694D01*
X26969428Y-23192505D01*
X26947267Y-23185683D01*
X26913522Y-23168540D01*
X26865200Y-23139393D01*
X26799308Y-23096555D01*
X26714483Y-23039448D01*
X26639823Y-22988766D01*
X26572860Y-22943461D01*
X26517484Y-22906150D01*
X26477580Y-22879452D01*
X26457038Y-22865985D01*
X26455644Y-22865137D01*
X26435962Y-22866781D01*
X26397707Y-22879245D01*
X26348111Y-22900048D01*
X26332272Y-22907462D01*
X26261710Y-22939814D01*
X26181647Y-22974328D01*
X26112371Y-23002365D01*
X26060955Y-23022568D01*
X26021881Y-23038615D01*
X26001459Y-23047888D01*
X25999886Y-23049041D01*
X25997279Y-23066096D01*
X25990137Y-23106298D01*
X25979477Y-23164302D01*
X25966315Y-23234763D01*
X25951667Y-23312335D01*
X25936551Y-23391672D01*
X25921982Y-23467431D01*
X25908978Y-23534264D01*
X25898555Y-23586828D01*
X25891730Y-23619776D01*
X25889801Y-23627857D01*
X25885038Y-23636205D01*
X25874282Y-23642506D01*
X25853902Y-23647045D01*
X25820266Y-23650104D01*
X25769745Y-23651967D01*
X25698708Y-23652918D01*
X25603524Y-23653240D01*
X25564508Y-23653257D01*
X25247201Y-23653257D01*
X25232161Y-23577057D01*
X25224005Y-23534663D01*
X25212101Y-23471400D01*
X25197884Y-23394962D01*
X25182790Y-23313043D01*
X25178645Y-23290400D01*
X25163947Y-23214806D01*
X25149495Y-23148953D01*
X25136625Y-23098366D01*
X25126678Y-23068574D01*
X25123713Y-23063612D01*
X25102717Y-23051426D01*
X25062033Y-23033953D01*
X25009678Y-23014577D01*
X24998400Y-23010734D01*
X24928477Y-22985339D01*
X24849582Y-22953817D01*
X24778734Y-22922969D01*
X24778405Y-22922817D01*
X24667267Y-22871447D01*
X24418747Y-23040399D01*
X24170228Y-23209352D01*
X23952942Y-22992429D01*
X23888274Y-22926819D01*
X23831267Y-22866979D01*
X23784967Y-22816267D01*
X23752416Y-22778046D01*
X23736657Y-22755675D01*
X23735657Y-22752466D01*
X23743531Y-22733626D01*
X23765422Y-22695180D01*
X23798733Y-22641330D01*
X23840869Y-22576276D01*
X23888057Y-22505940D01*
X23936190Y-22434555D01*
X23978072Y-22370908D01*
X24011129Y-22319041D01*
X24032782Y-22282995D01*
X24040457Y-22266867D01*
X24033963Y-22247189D01*
X24016850Y-22209875D01*
X23992674Y-22162621D01*
X23989987Y-22157612D01*
X23958073Y-22093977D01*
X23942421Y-22050341D01*
X23942255Y-22023202D01*
X23956796Y-22009057D01*
X23957000Y-22008975D01*
X23974221Y-22001905D01*
X24015101Y-21985042D01*
X24076475Y-21959695D01*
X24155181Y-21927171D01*
X24248053Y-21888778D01*
X24351928Y-21845822D01*
X24452498Y-21804222D01*
X24563484Y-21758504D01*
X24666297Y-21716526D01*
X24757785Y-21679548D01*
X24834799Y-21648827D01*
X24894185Y-21625622D01*
X24932791Y-21611190D01*
X24947200Y-21606743D01*
X24963728Y-21617896D01*
X24990070Y-21647069D01*
X25019113Y-21685971D01*
X25110961Y-21796757D01*
X25216241Y-21883351D01*
X25332734Y-21944716D01*
X25458224Y-21979815D01*
X25590493Y-21987608D01*
X25651543Y-21981943D01*
X25778205Y-21951078D01*
X25890059Y-21897920D01*
X25985999Y-21825767D01*
X26064924Y-21737917D01*
X26125730Y-21637665D01*
X26167313Y-21528310D01*
X26188572Y-21413147D01*
X26188401Y-21295475D01*
X26165699Y-21178590D01*
X26119362Y-21065789D01*
X26048287Y-20960369D01*
X26008089Y-20916368D01*
X25904871Y-20831979D01*
X25792075Y-20773222D01*
X25672990Y-20739704D01*
X25550905Y-20731035D01*
X25429107Y-20746823D01*
X25310884Y-20786678D01*
X25199525Y-20850207D01*
X25098316Y-20937021D01*
X25019113Y-21034029D01*
X24988838Y-21074437D01*
X24962781Y-21102982D01*
X24947175Y-21113257D01*
X24930157Y-21107877D01*
X24889500Y-21092575D01*
X24828358Y-21068612D01*
X24749881Y-21037244D01*
X24657220Y-20999732D01*
X24553528Y-20957333D01*
X24452474Y-20915663D01*
X24341393Y-20869690D01*
X24238459Y-20827107D01*
X24146835Y-20789221D01*
X24069684Y-20757340D01*
X24010169Y-20732771D01*
X23971456Y-20716820D01*
X23957000Y-20710910D01*
X23942315Y-20696948D01*
X23942358Y-20669940D01*
X23957901Y-20626413D01*
X23989716Y-20562890D01*
X23989987Y-20562388D01*
X24014677Y-20514560D01*
X24032662Y-20475897D01*
X24040386Y-20454095D01*
X24040457Y-20453133D01*
X24032622Y-20436721D01*
X24010835Y-20400487D01*
X23977672Y-20348474D01*
X23935709Y-20284725D01*
X23888057Y-20214060D01*
X23839809Y-20142116D01*
X23797849Y-20077274D01*
X23764773Y-20023735D01*
X23743179Y-19985697D01*
X23735657Y-19967533D01*
X23745543Y-19950808D01*
X23773174Y-19917180D01*
X23815505Y-19870010D01*
X23869495Y-19812658D01*
X23932101Y-19748484D01*
X23953017Y-19727497D01*
X24170377Y-19510499D01*
X24412780Y-19675668D01*
X24487219Y-19725864D01*
X24554028Y-19769919D01*
X24609335Y-19805362D01*
X24649271Y-19829719D01*
X24669964Y-19840522D01*
X24671437Y-19840838D01*
X24690942Y-19835143D01*
X24730178Y-19819826D01*
X24782570Y-19797537D01*
X24817645Y-19781893D01*
X24884799Y-19752641D01*
X24952642Y-19725094D01*
X25009966Y-19703737D01*
X25027428Y-19697935D01*
X25074062Y-19681452D01*
X25110095Y-19665340D01*
X25123713Y-19656490D01*
X25132048Y-19636960D01*
X25143863Y-19594334D01*
X25157819Y-19534145D01*
X25172578Y-19461922D01*
X25178645Y-19429600D01*
X25193727Y-19347522D01*
X25208331Y-19268795D01*
X25221020Y-19201109D01*
X25230358Y-19152160D01*
X25232161Y-19142943D01*
X25247201Y-19066743D01*
X25564508Y-19066743D01*
X25668846Y-19066914D01*
X25747787Y-19067616D01*
X25804962Y-19069134D01*
X25844001Y-19071749D01*
X25868535Y-19075746D01*
X25882195Y-19081409D01*
X25888611Y-19089020D01*
X25889801Y-19092143D01*
X25894020Y-19110978D01*
X25902438Y-19152588D01*
X25914039Y-19211630D01*
X25927805Y-19282757D01*
X25942720Y-19360625D01*
X25957768Y-19439887D01*
X25971931Y-19515198D01*
X25984194Y-19581213D01*
X25993539Y-19632587D01*
X25998950Y-19663975D01*
X25999886Y-19670959D01*
X26012404Y-19677285D01*
X26045754Y-19691290D01*
X26093623Y-19710355D01*
X26112371Y-19717634D01*
X26184805Y-19746996D01*
X26264830Y-19781571D01*
X26332272Y-19812537D01*
X26383841Y-19835323D01*
X26426215Y-19850482D01*
X26452166Y-19855542D01*
X26455644Y-19854736D01*
X26472064Y-19844041D01*
X26508583Y-19819620D01*
X26561313Y-19784095D01*
X26626365Y-19740087D01*
X26699849Y-19690217D01*
X26714355Y-19680356D01*
X26800296Y-19622492D01*
X26865739Y-19579956D01*
X26913696Y-19551054D01*
X26947180Y-19534090D01*
X26969205Y-19527367D01*
X26982783Y-19529190D01*
X26982869Y-19529236D01*
X27000703Y-19543586D01*
X27035183Y-19575323D01*
X27082732Y-19621010D01*
X27139778Y-19677204D01*
X27202745Y-19740468D01*
X27209773Y-19747602D01*
X27286980Y-19827330D01*
X27343670Y-19888857D01*
X27380890Y-19933421D01*
X27399685Y-19962257D01*
X27402111Y-19974958D01*
X27391529Y-19993494D01*
X27367084Y-20031961D01*
X27331388Y-20086386D01*
X27287053Y-20152798D01*
X27236689Y-20227225D01*
X27224840Y-20244601D01*
X27056374Y-20491297D01*
X27106938Y-20602706D01*
X27136405Y-20670457D01*
X27166041Y-20743183D01*
X27189670Y-20805703D01*
X27190642Y-20808457D01*
X27208543Y-20857360D01*
X27223680Y-20895057D01*
X27232790Y-20913425D01*
X27232816Y-20913456D01*
X27249283Y-20919285D01*
X27289781Y-20929192D01*
X27349758Y-20942195D01*
X27424660Y-20957309D01*
X27509936Y-20973552D01*
X27517125Y-20974881D01*
X27604986Y-20991175D01*
X27684740Y-21006133D01*
X27751319Y-21018791D01*
X27799653Y-21028186D01*
X27824675Y-21033354D01*
X27825057Y-21033444D01*
X27835701Y-21036589D01*
X27843738Y-21042704D01*
X27849533Y-21055453D01*
X27853453Y-21078500D01*
X27855865Y-21115509D01*
X27857135Y-21170144D01*
X27857629Y-21246067D01*
X27857714Y-21346944D01*
X27857714Y-21360000D01*
X27857652Y-21463910D01*
G37*
X27857652Y-21463910D02*
X27857222Y-21542454D01*
X27856058Y-21599298D01*
X27853793Y-21638105D01*
X27850060Y-21662538D01*
X27844494Y-21676262D01*
X27836727Y-21682940D01*
X27826395Y-21686236D01*
X27825057Y-21686556D01*
X27800921Y-21691562D01*
X27753299Y-21700829D01*
X27687259Y-21713392D01*
X27607872Y-21728287D01*
X27520204Y-21744551D01*
X27517125Y-21745119D01*
X27431211Y-21761410D01*
X27355304Y-21776652D01*
X27293955Y-21789861D01*
X27251718Y-21800054D01*
X27233145Y-21806248D01*
X27232816Y-21806543D01*
X27223747Y-21824788D01*
X27208633Y-21862405D01*
X27190738Y-21911271D01*
X27190642Y-21911543D01*
X27167507Y-21973093D01*
X27138035Y-22045657D01*
X27108403Y-22114057D01*
X27106938Y-22117294D01*
X27056374Y-22228702D01*
X27224840Y-22475399D01*
X27276197Y-22551077D01*
X27322111Y-22619631D01*
X27359970Y-22677088D01*
X27387163Y-22719476D01*
X27401079Y-22742825D01*
X27402111Y-22745042D01*
X27397516Y-22762010D01*
X27375345Y-22793701D01*
X27334553Y-22841352D01*
X27274095Y-22906198D01*
X27209773Y-22972397D01*
X27146388Y-23036214D01*
X27088549Y-23093329D01*
X27039825Y-23140305D01*
X27003790Y-23173703D01*
X26984016Y-23190085D01*
X26982998Y-23190694D01*
X26969428Y-23192505D01*
X26947267Y-23185683D01*
X26913522Y-23168540D01*
X26865200Y-23139393D01*
X26799308Y-23096555D01*
X26714483Y-23039448D01*
X26639823Y-22988766D01*
X26572860Y-22943461D01*
X26517484Y-22906150D01*
X26477580Y-22879452D01*
X26457038Y-22865985D01*
X26455644Y-22865137D01*
X26435962Y-22866781D01*
X26397707Y-22879245D01*
X26348111Y-22900048D01*
X26332272Y-22907462D01*
X26261710Y-22939814D01*
X26181647Y-22974328D01*
X26112371Y-23002365D01*
X26060955Y-23022568D01*
X26021881Y-23038615D01*
X26001459Y-23047888D01*
X25999886Y-23049041D01*
X25997279Y-23066096D01*
X25990137Y-23106298D01*
X25979477Y-23164302D01*
X25966315Y-23234763D01*
X25951667Y-23312335D01*
X25936551Y-23391672D01*
X25921982Y-23467431D01*
X25908978Y-23534264D01*
X25898555Y-23586828D01*
X25891730Y-23619776D01*
X25889801Y-23627857D01*
X25885038Y-23636205D01*
X25874282Y-23642506D01*
X25853902Y-23647045D01*
X25820266Y-23650104D01*
X25769745Y-23651967D01*
X25698708Y-23652918D01*
X25603524Y-23653240D01*
X25564508Y-23653257D01*
X25247201Y-23653257D01*
X25232161Y-23577057D01*
X25224005Y-23534663D01*
X25212101Y-23471400D01*
X25197884Y-23394962D01*
X25182790Y-23313043D01*
X25178645Y-23290400D01*
X25163947Y-23214806D01*
X25149495Y-23148953D01*
X25136625Y-23098366D01*
X25126678Y-23068574D01*
X25123713Y-23063612D01*
X25102717Y-23051426D01*
X25062033Y-23033953D01*
X25009678Y-23014577D01*
X24998400Y-23010734D01*
X24928477Y-22985339D01*
X24849582Y-22953817D01*
X24778734Y-22922969D01*
X24778405Y-22922817D01*
X24667267Y-22871447D01*
X24418747Y-23040399D01*
X24170228Y-23209352D01*
X23952942Y-22992429D01*
X23888274Y-22926819D01*
X23831267Y-22866979D01*
X23784967Y-22816267D01*
X23752416Y-22778046D01*
X23736657Y-22755675D01*
X23735657Y-22752466D01*
X23743531Y-22733626D01*
X23765422Y-22695180D01*
X23798733Y-22641330D01*
X23840869Y-22576276D01*
X23888057Y-22505940D01*
X23936190Y-22434555D01*
X23978072Y-22370908D01*
X24011129Y-22319041D01*
X24032782Y-22282995D01*
X24040457Y-22266867D01*
X24033963Y-22247189D01*
X24016850Y-22209875D01*
X23992674Y-22162621D01*
X23989987Y-22157612D01*
X23958073Y-22093977D01*
X23942421Y-22050341D01*
X23942255Y-22023202D01*
X23956796Y-22009057D01*
X23957000Y-22008975D01*
X23974221Y-22001905D01*
X24015101Y-21985042D01*
X24076475Y-21959695D01*
X24155181Y-21927171D01*
X24248053Y-21888778D01*
X24351928Y-21845822D01*
X24452498Y-21804222D01*
X24563484Y-21758504D01*
X24666297Y-21716526D01*
X24757785Y-21679548D01*
X24834799Y-21648827D01*
X24894185Y-21625622D01*
X24932791Y-21611190D01*
X24947200Y-21606743D01*
X24963728Y-21617896D01*
X24990070Y-21647069D01*
X25019113Y-21685971D01*
X25110961Y-21796757D01*
X25216241Y-21883351D01*
X25332734Y-21944716D01*
X25458224Y-21979815D01*
X25590493Y-21987608D01*
X25651543Y-21981943D01*
X25778205Y-21951078D01*
X25890059Y-21897920D01*
X25985999Y-21825767D01*
X26064924Y-21737917D01*
X26125730Y-21637665D01*
X26167313Y-21528310D01*
X26188572Y-21413147D01*
X26188401Y-21295475D01*
X26165699Y-21178590D01*
X26119362Y-21065789D01*
X26048287Y-20960369D01*
X26008089Y-20916368D01*
X25904871Y-20831979D01*
X25792075Y-20773222D01*
X25672990Y-20739704D01*
X25550905Y-20731035D01*
X25429107Y-20746823D01*
X25310884Y-20786678D01*
X25199525Y-20850207D01*
X25098316Y-20937021D01*
X25019113Y-21034029D01*
X24988838Y-21074437D01*
X24962781Y-21102982D01*
X24947175Y-21113257D01*
X24930157Y-21107877D01*
X24889500Y-21092575D01*
X24828358Y-21068612D01*
X24749881Y-21037244D01*
X24657220Y-20999732D01*
X24553528Y-20957333D01*
X24452474Y-20915663D01*
X24341393Y-20869690D01*
X24238459Y-20827107D01*
X24146835Y-20789221D01*
X24069684Y-20757340D01*
X24010169Y-20732771D01*
X23971456Y-20716820D01*
X23957000Y-20710910D01*
X23942315Y-20696948D01*
X23942358Y-20669940D01*
X23957901Y-20626413D01*
X23989716Y-20562890D01*
X23989987Y-20562388D01*
X24014677Y-20514560D01*
X24032662Y-20475897D01*
X24040386Y-20454095D01*
X24040457Y-20453133D01*
X24032622Y-20436721D01*
X24010835Y-20400487D01*
X23977672Y-20348474D01*
X23935709Y-20284725D01*
X23888057Y-20214060D01*
X23839809Y-20142116D01*
X23797849Y-20077274D01*
X23764773Y-20023735D01*
X23743179Y-19985697D01*
X23735657Y-19967533D01*
X23745543Y-19950808D01*
X23773174Y-19917180D01*
X23815505Y-19870010D01*
X23869495Y-19812658D01*
X23932101Y-19748484D01*
X23953017Y-19727497D01*
X24170377Y-19510499D01*
X24412780Y-19675668D01*
X24487219Y-19725864D01*
X24554028Y-19769919D01*
X24609335Y-19805362D01*
X24649271Y-19829719D01*
X24669964Y-19840522D01*
X24671437Y-19840838D01*
X24690942Y-19835143D01*
X24730178Y-19819826D01*
X24782570Y-19797537D01*
X24817645Y-19781893D01*
X24884799Y-19752641D01*
X24952642Y-19725094D01*
X25009966Y-19703737D01*
X25027428Y-19697935D01*
X25074062Y-19681452D01*
X25110095Y-19665340D01*
X25123713Y-19656490D01*
X25132048Y-19636960D01*
X25143863Y-19594334D01*
X25157819Y-19534145D01*
X25172578Y-19461922D01*
X25178645Y-19429600D01*
X25193727Y-19347522D01*
X25208331Y-19268795D01*
X25221020Y-19201109D01*
X25230358Y-19152160D01*
X25232161Y-19142943D01*
X25247201Y-19066743D01*
X25564508Y-19066743D01*
X25668846Y-19066914D01*
X25747787Y-19067616D01*
X25804962Y-19069134D01*
X25844001Y-19071749D01*
X25868535Y-19075746D01*
X25882195Y-19081409D01*
X25888611Y-19089020D01*
X25889801Y-19092143D01*
X25894020Y-19110978D01*
X25902438Y-19152588D01*
X25914039Y-19211630D01*
X25927805Y-19282757D01*
X25942720Y-19360625D01*
X25957768Y-19439887D01*
X25971931Y-19515198D01*
X25984194Y-19581213D01*
X25993539Y-19632587D01*
X25998950Y-19663975D01*
X25999886Y-19670959D01*
X26012404Y-19677285D01*
X26045754Y-19691290D01*
X26093623Y-19710355D01*
X26112371Y-19717634D01*
X26184805Y-19746996D01*
X26264830Y-19781571D01*
X26332272Y-19812537D01*
X26383841Y-19835323D01*
X26426215Y-19850482D01*
X26452166Y-19855542D01*
X26455644Y-19854736D01*
X26472064Y-19844041D01*
X26508583Y-19819620D01*
X26561313Y-19784095D01*
X26626365Y-19740087D01*
X26699849Y-19690217D01*
X26714355Y-19680356D01*
X26800296Y-19622492D01*
X26865739Y-19579956D01*
X26913696Y-19551054D01*
X26947180Y-19534090D01*
X26969205Y-19527367D01*
X26982783Y-19529190D01*
X26982869Y-19529236D01*
X27000703Y-19543586D01*
X27035183Y-19575323D01*
X27082732Y-19621010D01*
X27139778Y-19677204D01*
X27202745Y-19740468D01*
X27209773Y-19747602D01*
X27286980Y-19827330D01*
X27343670Y-19888857D01*
X27380890Y-19933421D01*
X27399685Y-19962257D01*
X27402111Y-19974958D01*
X27391529Y-19993494D01*
X27367084Y-20031961D01*
X27331388Y-20086386D01*
X27287053Y-20152798D01*
X27236689Y-20227225D01*
X27224840Y-20244601D01*
X27056374Y-20491297D01*
X27106938Y-20602706D01*
X27136405Y-20670457D01*
X27166041Y-20743183D01*
X27189670Y-20805703D01*
X27190642Y-20808457D01*
X27208543Y-20857360D01*
X27223680Y-20895057D01*
X27232790Y-20913425D01*
X27232816Y-20913456D01*
X27249283Y-20919285D01*
X27289781Y-20929192D01*
X27349758Y-20942195D01*
X27424660Y-20957309D01*
X27509936Y-20973552D01*
X27517125Y-20974881D01*
X27604986Y-20991175D01*
X27684740Y-21006133D01*
X27751319Y-21018791D01*
X27799653Y-21028186D01*
X27824675Y-21033354D01*
X27825057Y-21033444D01*
X27835701Y-21036589D01*
X27843738Y-21042704D01*
X27849533Y-21055453D01*
X27853453Y-21078500D01*
X27855865Y-21115509D01*
X27857135Y-21170144D01*
X27857629Y-21246067D01*
X27857714Y-21346944D01*
X27857714Y-21360000D01*
X27857652Y-21463910D01*
G36*
X23180082Y-18959744D02*
G01*
X23152432Y-19015201D01*
X23101520Y-19064148D01*
X23082662Y-19077629D01*
X23057985Y-19092314D01*
X23031184Y-19101842D01*
X22995413Y-19107293D01*
X22943831Y-19109747D01*
X22875733Y-19110286D01*
X22782412Y-19107852D01*
X22712343Y-19099394D01*
X22660069Y-19083174D01*
X22620131Y-19057454D01*
X22587071Y-19020497D01*
X22585114Y-19017782D01*
X22565092Y-18981360D01*
X22555185Y-18937502D01*
X22552743Y-18881724D01*
X22552743Y-18791048D01*
X22464717Y-18791010D01*
X22415692Y-18790166D01*
X22386935Y-18785024D01*
X22369689Y-18771587D01*
X22355192Y-18745858D01*
X22352231Y-18739679D01*
X22338352Y-18710764D01*
X22329586Y-18688376D01*
X22328829Y-18671729D01*
X22338977Y-18660036D01*
X22362927Y-18652510D01*
X22403574Y-18648366D01*
X22463814Y-18646815D01*
X22546545Y-18647071D01*
X22654661Y-18648349D01*
X22687000Y-18648748D01*
X22798476Y-18650185D01*
X22871397Y-18651472D01*
X22871397Y-18790971D01*
X22809501Y-18791755D01*
X22769003Y-18795240D01*
X22742292Y-18803124D01*
X22721756Y-18817105D01*
X22711740Y-18826597D01*
X22682433Y-18865404D01*
X22680048Y-18899763D01*
X22704250Y-18935216D01*
X22705143Y-18936114D01*
X22723847Y-18950539D01*
X22749268Y-18959313D01*
X22788416Y-18963739D01*
X22848303Y-18965118D01*
X22861570Y-18965143D01*
X22944099Y-18961812D01*
X23001309Y-18950969D01*
X23036234Y-18931340D01*
X23051906Y-18901650D01*
X23053486Y-18884491D01*
X23046074Y-18843766D01*
X23021670Y-18815832D01*
X22977020Y-18799017D01*
X22908870Y-18791650D01*
X22871397Y-18790971D01*
X22871397Y-18651472D01*
X22884755Y-18651708D01*
X22949667Y-18653677D01*
X22997042Y-18656450D01*
X23030710Y-18660388D01*
X23054502Y-18665849D01*
X23072247Y-18673192D01*
X23087776Y-18682777D01*
X23093619Y-18686887D01*
X23148815Y-18741405D01*
X23180110Y-18810336D01*
X23188835Y-18890072D01*
X23180082Y-18959744D01*
G37*
X23180082Y-18959744D02*
X23152432Y-19015201D01*
X23101520Y-19064148D01*
X23082662Y-19077629D01*
X23057985Y-19092314D01*
X23031184Y-19101842D01*
X22995413Y-19107293D01*
X22943831Y-19109747D01*
X22875733Y-19110286D01*
X22782412Y-19107852D01*
X22712343Y-19099394D01*
X22660069Y-19083174D01*
X22620131Y-19057454D01*
X22587071Y-19020497D01*
X22585114Y-19017782D01*
X22565092Y-18981360D01*
X22555185Y-18937502D01*
X22552743Y-18881724D01*
X22552743Y-18791048D01*
X22464717Y-18791010D01*
X22415692Y-18790166D01*
X22386935Y-18785024D01*
X22369689Y-18771587D01*
X22355192Y-18745858D01*
X22352231Y-18739679D01*
X22338352Y-18710764D01*
X22329586Y-18688376D01*
X22328829Y-18671729D01*
X22338977Y-18660036D01*
X22362927Y-18652510D01*
X22403574Y-18648366D01*
X22463814Y-18646815D01*
X22546545Y-18647071D01*
X22654661Y-18648349D01*
X22687000Y-18648748D01*
X22798476Y-18650185D01*
X22871397Y-18651472D01*
X22871397Y-18790971D01*
X22809501Y-18791755D01*
X22769003Y-18795240D01*
X22742292Y-18803124D01*
X22721756Y-18817105D01*
X22711740Y-18826597D01*
X22682433Y-18865404D01*
X22680048Y-18899763D01*
X22704250Y-18935216D01*
X22705143Y-18936114D01*
X22723847Y-18950539D01*
X22749268Y-18959313D01*
X22788416Y-18963739D01*
X22848303Y-18965118D01*
X22861570Y-18965143D01*
X22944099Y-18961812D01*
X23001309Y-18950969D01*
X23036234Y-18931340D01*
X23051906Y-18901650D01*
X23053486Y-18884491D01*
X23046074Y-18843766D01*
X23021670Y-18815832D01*
X22977020Y-18799017D01*
X22908870Y-18791650D01*
X22871397Y-18790971D01*
X22871397Y-18651472D01*
X22884755Y-18651708D01*
X22949667Y-18653677D01*
X22997042Y-18656450D01*
X23030710Y-18660388D01*
X23054502Y-18665849D01*
X23072247Y-18673192D01*
X23087776Y-18682777D01*
X23093619Y-18686887D01*
X23148815Y-18741405D01*
X23180110Y-18810336D01*
X23188835Y-18890072D01*
X23180082Y-18959744D01*
G36*
X23133034Y-24513595D02*
G01*
X23095503Y-24571021D01*
X23061904Y-24598719D01*
X23000936Y-24620662D01*
X22952692Y-24622405D01*
X22888184Y-24618457D01*
X22823066Y-24469686D01*
X22789798Y-24397349D01*
X22763036Y-24350084D01*
X22739856Y-24325507D01*
X22717333Y-24321237D01*
X22692545Y-24334889D01*
X22676114Y-24349943D01*
X22649765Y-24393746D01*
X22647919Y-24441389D01*
X22668454Y-24485145D01*
X22709248Y-24517289D01*
X22723653Y-24523038D01*
X22768644Y-24550576D01*
X22787818Y-24582258D01*
X22804221Y-24625714D01*
X22742034Y-24625714D01*
X22699717Y-24621872D01*
X22664031Y-24606823D01*
X22623057Y-24575280D01*
X22617733Y-24570592D01*
X22581280Y-24535506D01*
X22561717Y-24505347D01*
X22552717Y-24467615D01*
X22549770Y-24436335D01*
X22549035Y-24380385D01*
X22558340Y-24340555D01*
X22572154Y-24315708D01*
X22602533Y-24276656D01*
X22635387Y-24249625D01*
X22676706Y-24232517D01*
X22732479Y-24223238D01*
X22808695Y-24219693D01*
X22847378Y-24219410D01*
X22893753Y-24220372D01*
X22893753Y-24308007D01*
X22868874Y-24309023D01*
X22864800Y-24311556D01*
X22870335Y-24328274D01*
X22884983Y-24364249D01*
X22905810Y-24412331D01*
X22910286Y-24422386D01*
X22941186Y-24483152D01*
X22968343Y-24516632D01*
X22993780Y-24523990D01*
X23019519Y-24506391D01*
X23030891Y-24491856D01*
X23053636Y-24439410D01*
X23049878Y-24390322D01*
X23022116Y-24349227D01*
X22972848Y-24320758D01*
X22933743Y-24311631D01*
X22893753Y-24308007D01*
X22893753Y-24220372D01*
X22937751Y-24221285D01*
X23004616Y-24228196D01*
X23053305Y-24241884D01*
X23089151Y-24264096D01*
X23117487Y-24296574D01*
X23126645Y-24310733D01*
X23150493Y-24375053D01*
X23151994Y-24445473D01*
X23133034Y-24513595D01*
G37*
X23133034Y-24513595D02*
X23095503Y-24571021D01*
X23061904Y-24598719D01*
X23000936Y-24620662D01*
X22952692Y-24622405D01*
X22888184Y-24618457D01*
X22823066Y-24469686D01*
X22789798Y-24397349D01*
X22763036Y-24350084D01*
X22739856Y-24325507D01*
X22717333Y-24321237D01*
X22692545Y-24334889D01*
X22676114Y-24349943D01*
X22649765Y-24393746D01*
X22647919Y-24441389D01*
X22668454Y-24485145D01*
X22709248Y-24517289D01*
X22723653Y-24523038D01*
X22768644Y-24550576D01*
X22787818Y-24582258D01*
X22804221Y-24625714D01*
X22742034Y-24625714D01*
X22699717Y-24621872D01*
X22664031Y-24606823D01*
X22623057Y-24575280D01*
X22617733Y-24570592D01*
X22581280Y-24535506D01*
X22561717Y-24505347D01*
X22552717Y-24467615D01*
X22549770Y-24436335D01*
X22549035Y-24380385D01*
X22558340Y-24340555D01*
X22572154Y-24315708D01*
X22602533Y-24276656D01*
X22635387Y-24249625D01*
X22676706Y-24232517D01*
X22732479Y-24223238D01*
X22808695Y-24219693D01*
X22847378Y-24219410D01*
X22893753Y-24220372D01*
X22893753Y-24308007D01*
X22868874Y-24309023D01*
X22864800Y-24311556D01*
X22870335Y-24328274D01*
X22884983Y-24364249D01*
X22905810Y-24412331D01*
X22910286Y-24422386D01*
X22941186Y-24483152D01*
X22968343Y-24516632D01*
X22993780Y-24523990D01*
X23019519Y-24506391D01*
X23030891Y-24491856D01*
X23053636Y-24439410D01*
X23049878Y-24390322D01*
X23022116Y-24349227D01*
X22972848Y-24320758D01*
X22933743Y-24311631D01*
X22893753Y-24308007D01*
X22893753Y-24220372D01*
X22937751Y-24221285D01*
X23004616Y-24228196D01*
X23053305Y-24241884D01*
X23089151Y-24264096D01*
X23117487Y-24296574D01*
X23126645Y-24310733D01*
X23150493Y-24375053D01*
X23151994Y-24445473D01*
X23133034Y-24513595D01*
G36*
X23168761Y-19528303D02*
G01*
X23130265Y-19585527D01*
X23074665Y-19629749D01*
X23003914Y-19656167D01*
X22951838Y-19661510D01*
X22930107Y-19660903D01*
X22913469Y-19655822D01*
X22898563Y-19641855D01*
X22882027Y-19614589D01*
X22860502Y-19569612D01*
X22830626Y-19502511D01*
X22830476Y-19502171D01*
X22802187Y-19440407D01*
X22777067Y-19389759D01*
X22757821Y-19355404D01*
X22747152Y-19342518D01*
X22747066Y-19342514D01*
X22723834Y-19353872D01*
X22698226Y-19380431D01*
X22679779Y-19410923D01*
X22676114Y-19426370D01*
X22688788Y-19468515D01*
X22720529Y-19504808D01*
X22755428Y-19522517D01*
X22781155Y-19539552D01*
X22810454Y-19572922D01*
X22835765Y-19612149D01*
X22849529Y-19646756D01*
X22850286Y-19653993D01*
X22837840Y-19662139D01*
X22806028Y-19662630D01*
X22763134Y-19656643D01*
X22717442Y-19645357D01*
X22677239Y-19629950D01*
X22675678Y-19629171D01*
X22610938Y-19582804D01*
X22566903Y-19522711D01*
X22545289Y-19454465D01*
X22547815Y-19383638D01*
X22576196Y-19315804D01*
X22578192Y-19312788D01*
X22626552Y-19259427D01*
X22689648Y-19224340D01*
X22772613Y-19204922D01*
X22795922Y-19202316D01*
X22905945Y-19197701D01*
X22957252Y-19203233D01*
X22957252Y-19342514D01*
X22925247Y-19344324D01*
X22915907Y-19354222D01*
X22922895Y-19378898D01*
X22939413Y-19417795D01*
X22960119Y-19461275D01*
X22960667Y-19462356D01*
X22980051Y-19499209D01*
X22992987Y-19514000D01*
X23006549Y-19510353D01*
X23024368Y-19494995D01*
X23050155Y-19455923D01*
X23052050Y-19413846D01*
X23033283Y-19376103D01*
X22997085Y-19350034D01*
X22957252Y-19342514D01*
X22957252Y-19203233D01*
X22993973Y-19207194D01*
X23063788Y-19231550D01*
X23112698Y-19265456D01*
X23162122Y-19326653D01*
X23186641Y-19394063D01*
X23188203Y-19462880D01*
X23168761Y-19528303D01*
G37*
X23168761Y-19528303D02*
X23130265Y-19585527D01*
X23074665Y-19629749D01*
X23003914Y-19656167D01*
X22951838Y-19661510D01*
X22930107Y-19660903D01*
X22913469Y-19655822D01*
X22898563Y-19641855D01*
X22882027Y-19614589D01*
X22860502Y-19569612D01*
X22830626Y-19502511D01*
X22830476Y-19502171D01*
X22802187Y-19440407D01*
X22777067Y-19389759D01*
X22757821Y-19355404D01*
X22747152Y-19342518D01*
X22747066Y-19342514D01*
X22723834Y-19353872D01*
X22698226Y-19380431D01*
X22679779Y-19410923D01*
X22676114Y-19426370D01*
X22688788Y-19468515D01*
X22720529Y-19504808D01*
X22755428Y-19522517D01*
X22781155Y-19539552D01*
X22810454Y-19572922D01*
X22835765Y-19612149D01*
X22849529Y-19646756D01*
X22850286Y-19653993D01*
X22837840Y-19662139D01*
X22806028Y-19662630D01*
X22763134Y-19656643D01*
X22717442Y-19645357D01*
X22677239Y-19629950D01*
X22675678Y-19629171D01*
X22610938Y-19582804D01*
X22566903Y-19522711D01*
X22545289Y-19454465D01*
X22547815Y-19383638D01*
X22576196Y-19315804D01*
X22578192Y-19312788D01*
X22626552Y-19259427D01*
X22689648Y-19224340D01*
X22772613Y-19204922D01*
X22795922Y-19202316D01*
X22905945Y-19197701D01*
X22957252Y-19203233D01*
X22957252Y-19342514D01*
X22925247Y-19344324D01*
X22915907Y-19354222D01*
X22922895Y-19378898D01*
X22939413Y-19417795D01*
X22960119Y-19461275D01*
X22960667Y-19462356D01*
X22980051Y-19499209D01*
X22992987Y-19514000D01*
X23006549Y-19510353D01*
X23024368Y-19494995D01*
X23050155Y-19455923D01*
X23052050Y-19413846D01*
X23033283Y-19376103D01*
X22997085Y-19350034D01*
X22957252Y-19342514D01*
X22957252Y-19203233D01*
X22993973Y-19207194D01*
X23063788Y-19231550D01*
X23112698Y-19265456D01*
X23162122Y-19326653D01*
X23186641Y-19394063D01*
X23188203Y-19462880D01*
X23168761Y-19528303D01*
G36*
X23141248Y-24012600D02*
G01*
X23133666Y-24029948D01*
X23100872Y-24071356D01*
X23053453Y-24106765D01*
X23002849Y-24128664D01*
X22977902Y-24132229D01*
X22943073Y-24120279D01*
X22924643Y-24094067D01*
X22913484Y-24065964D01*
X22911428Y-24053095D01*
X22926351Y-24046829D01*
X22958825Y-24034456D01*
X22973498Y-24029028D01*
X23024256Y-23998590D01*
X23049573Y-23954520D01*
X23048794Y-23898010D01*
X23047797Y-23893825D01*
X23033493Y-23863655D01*
X23005607Y-23841476D01*
X22960713Y-23826327D01*
X22895385Y-23817250D01*
X22806196Y-23813286D01*
X22758739Y-23812914D01*
X22683929Y-23812730D01*
X22632931Y-23811522D01*
X22600529Y-23808309D01*
X22581505Y-23802109D01*
X22570644Y-23791940D01*
X22562728Y-23776819D01*
X22562330Y-23775946D01*
X22550019Y-23746828D01*
X22545486Y-23732403D01*
X22559191Y-23730186D01*
X22597075Y-23728289D01*
X22654285Y-23726847D01*
X22725973Y-23725998D01*
X22778435Y-23725829D01*
X22879953Y-23726692D01*
X22956968Y-23730070D01*
X23013977Y-23737142D01*
X23055474Y-23749088D01*
X23085957Y-23767090D01*
X23109920Y-23792327D01*
X23126645Y-23817247D01*
X23148903Y-23877171D01*
X23153924Y-23946911D01*
X23141248Y-24012600D01*
G37*
X23141248Y-24012600D02*
X23133666Y-24029948D01*
X23100872Y-24071356D01*
X23053453Y-24106765D01*
X23002849Y-24128664D01*
X22977902Y-24132229D01*
X22943073Y-24120279D01*
X22924643Y-24094067D01*
X22913484Y-24065964D01*
X22911428Y-24053095D01*
X22926351Y-24046829D01*
X22958825Y-24034456D01*
X22973498Y-24029028D01*
X23024256Y-23998590D01*
X23049573Y-23954520D01*
X23048794Y-23898010D01*
X23047797Y-23893825D01*
X23033493Y-23863655D01*
X23005607Y-23841476D01*
X22960713Y-23826327D01*
X22895385Y-23817250D01*
X22806196Y-23813286D01*
X22758739Y-23812914D01*
X22683929Y-23812730D01*
X22632931Y-23811522D01*
X22600529Y-23808309D01*
X22581505Y-23802109D01*
X22570644Y-23791940D01*
X22562728Y-23776819D01*
X22562330Y-23775946D01*
X22550019Y-23746828D01*
X22545486Y-23732403D01*
X22559191Y-23730186D01*
X22597075Y-23728289D01*
X22654285Y-23726847D01*
X22725973Y-23725998D01*
X22778435Y-23725829D01*
X22879953Y-23726692D01*
X22956968Y-23730070D01*
X23013977Y-23737142D01*
X23055474Y-23749088D01*
X23085957Y-23767090D01*
X23109920Y-23792327D01*
X23126645Y-23817247D01*
X23148903Y-23877171D01*
X23153924Y-23946911D01*
X23141248Y-24012600D01*
G36*
X23143665Y-23504876D02*
G01*
X23124656Y-23546667D01*
X23101622Y-23579469D01*
X23075867Y-23603503D01*
X23042642Y-23620097D01*
X22997200Y-23630577D01*
X22934793Y-23636271D01*
X22850673Y-23638507D01*
X22795279Y-23638743D01*
X22579174Y-23638743D01*
X22562330Y-23601774D01*
X22550019Y-23572656D01*
X22545486Y-23558231D01*
X22558975Y-23555472D01*
X22595347Y-23553282D01*
X22648458Y-23551942D01*
X22690628Y-23551657D01*
X22751553Y-23550434D01*
X22799885Y-23547136D01*
X22829482Y-23542321D01*
X22835771Y-23538496D01*
X22829348Y-23512783D01*
X22812875Y-23472418D01*
X22790542Y-23425679D01*
X22766543Y-23380845D01*
X22745070Y-23346193D01*
X22730315Y-23330002D01*
X22730155Y-23329938D01*
X22702848Y-23331330D01*
X22676781Y-23343818D01*
X22655608Y-23365743D01*
X22648526Y-23397743D01*
X22649351Y-23425092D01*
X22649958Y-23463826D01*
X22640884Y-23484158D01*
X22616908Y-23496369D01*
X22612387Y-23497909D01*
X22578194Y-23503203D01*
X22557432Y-23489047D01*
X22547538Y-23452148D01*
X22545708Y-23412289D01*
X22559273Y-23340562D01*
X22578645Y-23303432D01*
X22624155Y-23257576D01*
X22680017Y-23233256D01*
X22739043Y-23231073D01*
X22794047Y-23251629D01*
X22828514Y-23282549D01*
X22847811Y-23313420D01*
X22872241Y-23361942D01*
X22897015Y-23418485D01*
X22900801Y-23427910D01*
X22928209Y-23490019D01*
X22952366Y-23525822D01*
X22976381Y-23537337D01*
X23003365Y-23526580D01*
X23024457Y-23508114D01*
X23050428Y-23464469D01*
X23052376Y-23416446D01*
X23032363Y-23372406D01*
X22992449Y-23340709D01*
X22982152Y-23336549D01*
X22944276Y-23312327D01*
X22916158Y-23276965D01*
X22893083Y-23232343D01*
X22958515Y-23232343D01*
X22998494Y-23234969D01*
X23030003Y-23246230D01*
X23063622Y-23271199D01*
X23089516Y-23295169D01*
X23126183Y-23332441D01*
X23145879Y-23361401D01*
X23153780Y-23392505D01*
X23155086Y-23427713D01*
X23143665Y-23504876D01*
G37*
X23143665Y-23504876D02*
X23124656Y-23546667D01*
X23101622Y-23579469D01*
X23075867Y-23603503D01*
X23042642Y-23620097D01*
X22997200Y-23630577D01*
X22934793Y-23636271D01*
X22850673Y-23638507D01*
X22795279Y-23638743D01*
X22579174Y-23638743D01*
X22562330Y-23601774D01*
X22550019Y-23572656D01*
X22545486Y-23558231D01*
X22558975Y-23555472D01*
X22595347Y-23553282D01*
X22648458Y-23551942D01*
X22690628Y-23551657D01*
X22751553Y-23550434D01*
X22799885Y-23547136D01*
X22829482Y-23542321D01*
X22835771Y-23538496D01*
X22829348Y-23512783D01*
X22812875Y-23472418D01*
X22790542Y-23425679D01*
X22766543Y-23380845D01*
X22745070Y-23346193D01*
X22730315Y-23330002D01*
X22730155Y-23329938D01*
X22702848Y-23331330D01*
X22676781Y-23343818D01*
X22655608Y-23365743D01*
X22648526Y-23397743D01*
X22649351Y-23425092D01*
X22649958Y-23463826D01*
X22640884Y-23484158D01*
X22616908Y-23496369D01*
X22612387Y-23497909D01*
X22578194Y-23503203D01*
X22557432Y-23489047D01*
X22547538Y-23452148D01*
X22545708Y-23412289D01*
X22559273Y-23340562D01*
X22578645Y-23303432D01*
X22624155Y-23257576D01*
X22680017Y-23233256D01*
X22739043Y-23231073D01*
X22794047Y-23251629D01*
X22828514Y-23282549D01*
X22847811Y-23313420D01*
X22872241Y-23361942D01*
X22897015Y-23418485D01*
X22900801Y-23427910D01*
X22928209Y-23490019D01*
X22952366Y-23525822D01*
X22976381Y-23537337D01*
X23003365Y-23526580D01*
X23024457Y-23508114D01*
X23050428Y-23464469D01*
X23052376Y-23416446D01*
X23032363Y-23372406D01*
X22992449Y-23340709D01*
X22982152Y-23336549D01*
X22944276Y-23312327D01*
X22916158Y-23276965D01*
X22893083Y-23232343D01*
X22958515Y-23232343D01*
X22998494Y-23234969D01*
X23030003Y-23246230D01*
X23063622Y-23271199D01*
X23089516Y-23295169D01*
X23126183Y-23332441D01*
X23145879Y-23361401D01*
X23153780Y-23392505D01*
X23155086Y-23427713D01*
X23143665Y-23504876D01*
G36*
X23141337Y-23139833D02*
G01*
X23103150Y-23142048D01*
X23045114Y-23143784D01*
X22971820Y-23144899D01*
X22894945Y-23145257D01*
X22634804Y-23145257D01*
X22588873Y-23099326D01*
X22560571Y-23067675D01*
X22549107Y-23039890D01*
X22549832Y-23001915D01*
X22551679Y-22986840D01*
X22557052Y-22939726D01*
X22560131Y-22900756D01*
X22560415Y-22891257D01*
X22558555Y-22859233D01*
X22553886Y-22813432D01*
X22551679Y-22795674D01*
X22548265Y-22752057D01*
X22555680Y-22722745D01*
X22578573Y-22693680D01*
X22588873Y-22683188D01*
X22634804Y-22637257D01*
X23121398Y-22637257D01*
X23138242Y-22674226D01*
X23150718Y-22706059D01*
X23155086Y-22724683D01*
X23141282Y-22729458D01*
X23102714Y-22733921D01*
X23043644Y-22737775D01*
X22968337Y-22740722D01*
X22904714Y-22742143D01*
X22654343Y-22746114D01*
X22649444Y-22780759D01*
X22652869Y-22812268D01*
X22663959Y-22827708D01*
X22684692Y-22832023D01*
X22728855Y-22835708D01*
X22790854Y-22838469D01*
X22865091Y-22840012D01*
X22903294Y-22840235D01*
X23123217Y-22840457D01*
X23139151Y-22886166D01*
X23149985Y-22918518D01*
X23155038Y-22936115D01*
X23155086Y-22936623D01*
X23141352Y-22938388D01*
X23103270Y-22940329D01*
X23045518Y-22942282D01*
X22972773Y-22944084D01*
X22904714Y-22945343D01*
X22654343Y-22949314D01*
X22654343Y-23036400D01*
X22882760Y-23040396D01*
X23111178Y-23044392D01*
X23133132Y-23086847D01*
X23148207Y-23118192D01*
X23155049Y-23136744D01*
X23155086Y-23137279D01*
X23141337Y-23139833D01*
G37*
X23141337Y-23139833D02*
X23103150Y-23142048D01*
X23045114Y-23143784D01*
X22971820Y-23144899D01*
X22894945Y-23145257D01*
X22634804Y-23145257D01*
X22588873Y-23099326D01*
X22560571Y-23067675D01*
X22549107Y-23039890D01*
X22549832Y-23001915D01*
X22551679Y-22986840D01*
X22557052Y-22939726D01*
X22560131Y-22900756D01*
X22560415Y-22891257D01*
X22558555Y-22859233D01*
X22553886Y-22813432D01*
X22551679Y-22795674D01*
X22548265Y-22752057D01*
X22555680Y-22722745D01*
X22578573Y-22693680D01*
X22588873Y-22683188D01*
X22634804Y-22637257D01*
X23121398Y-22637257D01*
X23138242Y-22674226D01*
X23150718Y-22706059D01*
X23155086Y-22724683D01*
X23141282Y-22729458D01*
X23102714Y-22733921D01*
X23043644Y-22737775D01*
X22968337Y-22740722D01*
X22904714Y-22742143D01*
X22654343Y-22746114D01*
X22649444Y-22780759D01*
X22652869Y-22812268D01*
X22663959Y-22827708D01*
X22684692Y-22832023D01*
X22728855Y-22835708D01*
X22790854Y-22838469D01*
X22865091Y-22840012D01*
X22903294Y-22840235D01*
X23123217Y-22840457D01*
X23139151Y-22886166D01*
X23149985Y-22918518D01*
X23155038Y-22936115D01*
X23155086Y-22936623D01*
X23141352Y-22938388D01*
X23103270Y-22940329D01*
X23045518Y-22942282D01*
X22972773Y-22944084D01*
X22904714Y-22945343D01*
X22654343Y-22949314D01*
X22654343Y-23036400D01*
X22882760Y-23040396D01*
X23111178Y-23044392D01*
X23133132Y-23086847D01*
X23148207Y-23118192D01*
X23155049Y-23136744D01*
X23155086Y-23137279D01*
X23141337Y-23139833D01*
G36*
X23150245Y-21889926D02*
G01*
X23125916Y-21955858D01*
X23082883Y-22009273D01*
X23052591Y-22030164D01*
X22997006Y-22052939D01*
X22956814Y-22052466D01*
X22929783Y-22028562D01*
X22925187Y-22019717D01*
X22910856Y-21981530D01*
X22914528Y-21962028D01*
X22938593Y-21955422D01*
X22951886Y-21955086D01*
X23000790Y-21942992D01*
X23035001Y-21911471D01*
X23051524Y-21867659D01*
X23047366Y-21818695D01*
X23025773Y-21778894D01*
X23013456Y-21765450D01*
X22998513Y-21755921D01*
X22975925Y-21749485D01*
X22940672Y-21745317D01*
X22887734Y-21742597D01*
X22812093Y-21740502D01*
X22788143Y-21739960D01*
X22706210Y-21737981D01*
X22648545Y-21735731D01*
X22610392Y-21732357D01*
X22586996Y-21727006D01*
X22573602Y-21718824D01*
X22565455Y-21706959D01*
X22561856Y-21699362D01*
X22549548Y-21667102D01*
X22545486Y-21648111D01*
X22559052Y-21641836D01*
X22600066Y-21638006D01*
X22669001Y-21636600D01*
X22766331Y-21637598D01*
X22781343Y-21637908D01*
X22870141Y-21640101D01*
X22934981Y-21642693D01*
X22980933Y-21646382D01*
X23013065Y-21651864D01*
X23036447Y-21659835D01*
X23056148Y-21670993D01*
X23064590Y-21676830D01*
X23101943Y-21710296D01*
X23130997Y-21747727D01*
X23133533Y-21752309D01*
X23153557Y-21819426D01*
X23150245Y-21889926D01*
G37*
X23150245Y-21889926D02*
X23125916Y-21955858D01*
X23082883Y-22009273D01*
X23052591Y-22030164D01*
X22997006Y-22052939D01*
X22956814Y-22052466D01*
X22929783Y-22028562D01*
X22925187Y-22019717D01*
X22910856Y-21981530D01*
X22914528Y-21962028D01*
X22938593Y-21955422D01*
X22951886Y-21955086D01*
X23000790Y-21942992D01*
X23035001Y-21911471D01*
X23051524Y-21867659D01*
X23047366Y-21818695D01*
X23025773Y-21778894D01*
X23013456Y-21765450D01*
X22998513Y-21755921D01*
X22975925Y-21749485D01*
X22940672Y-21745317D01*
X22887734Y-21742597D01*
X22812093Y-21740502D01*
X22788143Y-21739960D01*
X22706210Y-21737981D01*
X22648545Y-21735731D01*
X22610392Y-21732357D01*
X22586996Y-21727006D01*
X22573602Y-21718824D01*
X22565455Y-21706959D01*
X22561856Y-21699362D01*
X22549548Y-21667102D01*
X22545486Y-21648111D01*
X22559052Y-21641836D01*
X22600066Y-21638006D01*
X22669001Y-21636600D01*
X22766331Y-21637598D01*
X22781343Y-21637908D01*
X22870141Y-21640101D01*
X22934981Y-21642693D01*
X22980933Y-21646382D01*
X23013065Y-21651864D01*
X23036447Y-21659835D01*
X23056148Y-21670993D01*
X23064590Y-21676830D01*
X23101943Y-21710296D01*
X23130997Y-21747727D01*
X23133533Y-21752309D01*
X23153557Y-21819426D01*
X23150245Y-21889926D01*
G36*
X23149032Y-21399744D02*
G01*
X23127913Y-21456616D01*
X23127507Y-21457267D01*
X23101620Y-21492440D01*
X23071367Y-21518407D01*
X23031942Y-21536670D01*
X22978538Y-21548732D01*
X22906349Y-21556096D01*
X22810568Y-21560264D01*
X22796922Y-21560629D01*
X22591158Y-21565876D01*
X22568322Y-21521716D01*
X22552890Y-21489763D01*
X22545577Y-21470470D01*
X22545486Y-21469578D01*
X22558978Y-21466239D01*
X22595374Y-21463587D01*
X22648548Y-21461956D01*
X22691607Y-21461600D01*
X22761359Y-21461592D01*
X22805163Y-21458403D01*
X22826056Y-21447288D01*
X22827075Y-21423501D01*
X22811259Y-21382296D01*
X22782185Y-21320086D01*
X22758037Y-21274341D01*
X22737087Y-21250813D01*
X22714253Y-21243896D01*
X22713123Y-21243886D01*
X22673788Y-21255299D01*
X22652538Y-21289092D01*
X22649461Y-21340809D01*
X22649994Y-21378061D01*
X22639265Y-21397703D01*
X22613495Y-21409952D01*
X22580663Y-21417002D01*
X22562034Y-21406842D01*
X22559368Y-21403017D01*
X22548660Y-21367001D01*
X22547144Y-21316566D01*
X22554241Y-21264626D01*
X22567212Y-21227822D01*
X22610415Y-21176938D01*
X22670554Y-21148014D01*
X22717538Y-21142286D01*
X22759918Y-21146657D01*
X22794512Y-21162475D01*
X22825237Y-21193797D01*
X22856010Y-21244678D01*
X22890748Y-21319176D01*
X22892712Y-21323714D01*
X22923713Y-21390821D01*
X22949138Y-21432232D01*
X22971986Y-21449981D01*
X22995255Y-21446107D01*
X23021944Y-21422643D01*
X23028086Y-21415627D01*
X23051900Y-21368630D01*
X23050897Y-21319933D01*
X23027549Y-21277522D01*
X22984325Y-21249384D01*
X22975840Y-21246769D01*
X22934692Y-21221308D01*
X22914872Y-21189001D01*
X22895230Y-21142286D01*
X22946050Y-21142286D01*
X23019918Y-21156496D01*
X23087673Y-21198675D01*
X23110339Y-21220624D01*
X23139431Y-21270517D01*
X23152600Y-21333967D01*
X23149032Y-21399744D01*
G37*
X23149032Y-21399744D02*
X23127913Y-21456616D01*
X23127507Y-21457267D01*
X23101620Y-21492440D01*
X23071367Y-21518407D01*
X23031942Y-21536670D01*
X22978538Y-21548732D01*
X22906349Y-21556096D01*
X22810568Y-21560264D01*
X22796922Y-21560629D01*
X22591158Y-21565876D01*
X22568322Y-21521716D01*
X22552890Y-21489763D01*
X22545577Y-21470470D01*
X22545486Y-21469578D01*
X22558978Y-21466239D01*
X22595374Y-21463587D01*
X22648548Y-21461956D01*
X22691607Y-21461600D01*
X22761359Y-21461592D01*
X22805163Y-21458403D01*
X22826056Y-21447288D01*
X22827075Y-21423501D01*
X22811259Y-21382296D01*
X22782185Y-21320086D01*
X22758037Y-21274341D01*
X22737087Y-21250813D01*
X22714253Y-21243896D01*
X22713123Y-21243886D01*
X22673788Y-21255299D01*
X22652538Y-21289092D01*
X22649461Y-21340809D01*
X22649994Y-21378061D01*
X22639265Y-21397703D01*
X22613495Y-21409952D01*
X22580663Y-21417002D01*
X22562034Y-21406842D01*
X22559368Y-21403017D01*
X22548660Y-21367001D01*
X22547144Y-21316566D01*
X22554241Y-21264626D01*
X22567212Y-21227822D01*
X22610415Y-21176938D01*
X22670554Y-21148014D01*
X22717538Y-21142286D01*
X22759918Y-21146657D01*
X22794512Y-21162475D01*
X22825237Y-21193797D01*
X22856010Y-21244678D01*
X22890748Y-21319176D01*
X22892712Y-21323714D01*
X22923713Y-21390821D01*
X22949138Y-21432232D01*
X22971986Y-21449981D01*
X22995255Y-21446107D01*
X23021944Y-21422643D01*
X23028086Y-21415627D01*
X23051900Y-21368630D01*
X23050897Y-21319933D01*
X23027549Y-21277522D01*
X22984325Y-21249384D01*
X22975840Y-21246769D01*
X22934692Y-21221308D01*
X22914872Y-21189001D01*
X22895230Y-21142286D01*
X22946050Y-21142286D01*
X23019918Y-21156496D01*
X23087673Y-21198675D01*
X23110339Y-21220624D01*
X23139431Y-21270517D01*
X23152600Y-21333967D01*
X23149032Y-21399744D01*
G36*
X23248711Y-20735886D02*
G01*
X23189387Y-20740139D01*
X23154428Y-20745025D01*
X23139180Y-20751795D01*
X23138985Y-20761702D01*
X23140805Y-20764914D01*
X23153985Y-20807644D01*
X23153215Y-20863227D01*
X23139667Y-20919737D01*
X23122139Y-20955082D01*
X23094139Y-20991321D01*
X23062451Y-21017813D01*
X23022187Y-21035999D01*
X22968457Y-21047322D01*
X22896374Y-21053222D01*
X22801049Y-21055143D01*
X22782763Y-21055177D01*
X22577354Y-21055200D01*
X22561420Y-21009491D01*
X22550580Y-20977027D01*
X22545532Y-20959215D01*
X22545486Y-20958691D01*
X22559172Y-20956937D01*
X22596924Y-20955444D01*
X22653776Y-20954326D01*
X22724766Y-20953697D01*
X22767927Y-20953600D01*
X22853027Y-20953398D01*
X22914019Y-20952358D01*
X22955823Y-20949831D01*
X22983358Y-20945164D01*
X23001544Y-20937707D01*
X23015302Y-20926811D01*
X23021927Y-20920007D01*
X23048625Y-20873272D01*
X23050625Y-20822272D01*
X23028045Y-20776001D01*
X23019893Y-20767444D01*
X23004564Y-20754893D01*
X22986382Y-20746188D01*
X22960091Y-20740631D01*
X22920438Y-20737526D01*
X22862168Y-20736176D01*
X22781827Y-20735886D01*
X22577354Y-20735886D01*
X22561420Y-20690177D01*
X22550580Y-20657713D01*
X22545532Y-20639901D01*
X22545486Y-20639377D01*
X22559377Y-20638037D01*
X22598561Y-20636828D01*
X22659300Y-20635801D01*
X22737859Y-20635002D01*
X22830502Y-20634481D01*
X22933491Y-20634286D01*
X23330658Y-20634286D01*
X23350556Y-20681457D01*
X23370453Y-20728629D01*
X23248711Y-20735886D01*
G37*
X23248711Y-20735886D02*
X23189387Y-20740139D01*
X23154428Y-20745025D01*
X23139180Y-20751795D01*
X23138985Y-20761702D01*
X23140805Y-20764914D01*
X23153985Y-20807644D01*
X23153215Y-20863227D01*
X23139667Y-20919737D01*
X23122139Y-20955082D01*
X23094139Y-20991321D01*
X23062451Y-21017813D01*
X23022187Y-21035999D01*
X22968457Y-21047322D01*
X22896374Y-21053222D01*
X22801049Y-21055143D01*
X22782763Y-21055177D01*
X22577354Y-21055200D01*
X22561420Y-21009491D01*
X22550580Y-20977027D01*
X22545532Y-20959215D01*
X22545486Y-20958691D01*
X22559172Y-20956937D01*
X22596924Y-20955444D01*
X22653776Y-20954326D01*
X22724766Y-20953697D01*
X22767927Y-20953600D01*
X22853027Y-20953398D01*
X22914019Y-20952358D01*
X22955823Y-20949831D01*
X22983358Y-20945164D01*
X23001544Y-20937707D01*
X23015302Y-20926811D01*
X23021927Y-20920007D01*
X23048625Y-20873272D01*
X23050625Y-20822272D01*
X23028045Y-20776001D01*
X23019893Y-20767444D01*
X23004564Y-20754893D01*
X22986382Y-20746188D01*
X22960091Y-20740631D01*
X22920438Y-20737526D01*
X22862168Y-20736176D01*
X22781827Y-20735886D01*
X22577354Y-20735886D01*
X22561420Y-20690177D01*
X22550580Y-20657713D01*
X22545532Y-20639901D01*
X22545486Y-20639377D01*
X22559377Y-20638037D01*
X22598561Y-20636828D01*
X22659300Y-20635801D01*
X22737859Y-20635002D01*
X22830502Y-20634481D01*
X22933491Y-20634286D01*
X23330658Y-20634286D01*
X23350556Y-20681457D01*
X23370453Y-20728629D01*
X23248711Y-20735886D01*
G36*
X23178038Y-18401115D02*
G01*
X23142267Y-18469145D01*
X23084699Y-18519351D01*
X23047688Y-18537185D01*
X22992118Y-18551063D01*
X22921904Y-18558167D01*
X22845273Y-18558840D01*
X22770448Y-18553427D01*
X22705658Y-18542270D01*
X22659127Y-18525714D01*
X22651113Y-18520626D01*
X22591293Y-18460355D01*
X22555465Y-18388769D01*
X22544980Y-18311092D01*
X22561190Y-18232548D01*
X22570908Y-18210689D01*
X22600857Y-18168122D01*
X22640567Y-18130763D01*
X22645603Y-18127232D01*
X22669876Y-18112881D01*
X22695822Y-18103394D01*
X22729978Y-18097790D01*
X22778881Y-18095086D01*
X22849065Y-18094299D01*
X22864800Y-18094286D01*
X22869808Y-18094322D01*
X22869808Y-18239429D01*
X22803570Y-18240273D01*
X22759614Y-18243596D01*
X22731221Y-18250583D01*
X22711675Y-18262416D01*
X22705143Y-18268457D01*
X22680320Y-18303186D01*
X22681452Y-18336903D01*
X22702984Y-18370995D01*
X22725971Y-18391329D01*
X22759522Y-18403371D01*
X22812431Y-18410134D01*
X22818601Y-18410598D01*
X22914487Y-18411752D01*
X22985701Y-18399688D01*
X23031806Y-18374570D01*
X23052365Y-18336560D01*
X23053486Y-18322992D01*
X23047848Y-18287364D01*
X23028314Y-18262994D01*
X22990958Y-18248093D01*
X22931850Y-18240875D01*
X22869808Y-18239429D01*
X22869808Y-18094322D01*
X22939587Y-18094826D01*
X22991841Y-18097096D01*
X23028051Y-18102068D01*
X23054701Y-18110713D01*
X23078278Y-18124005D01*
X23082662Y-18126943D01*
X23141751Y-18176313D01*
X23176053Y-18230109D01*
X23189669Y-18295602D01*
X23190335Y-18317842D01*
X23178038Y-18401115D01*
G37*
X23178038Y-18401115D02*
X23142267Y-18469145D01*
X23084699Y-18519351D01*
X23047688Y-18537185D01*
X22992118Y-18551063D01*
X22921904Y-18558167D01*
X22845273Y-18558840D01*
X22770448Y-18553427D01*
X22705658Y-18542270D01*
X22659127Y-18525714D01*
X22651113Y-18520626D01*
X22591293Y-18460355D01*
X22555465Y-18388769D01*
X22544980Y-18311092D01*
X22561190Y-18232548D01*
X22570908Y-18210689D01*
X22600857Y-18168122D01*
X22640567Y-18130763D01*
X22645603Y-18127232D01*
X22669876Y-18112881D01*
X22695822Y-18103394D01*
X22729978Y-18097790D01*
X22778881Y-18095086D01*
X22849065Y-18094299D01*
X22864800Y-18094286D01*
X22869808Y-18094322D01*
X22869808Y-18239429D01*
X22803570Y-18240273D01*
X22759614Y-18243596D01*
X22731221Y-18250583D01*
X22711675Y-18262416D01*
X22705143Y-18268457D01*
X22680320Y-18303186D01*
X22681452Y-18336903D01*
X22702984Y-18370995D01*
X22725971Y-18391329D01*
X22759522Y-18403371D01*
X22812431Y-18410134D01*
X22818601Y-18410598D01*
X22914487Y-18411752D01*
X22985701Y-18399688D01*
X23031806Y-18374570D01*
X23052365Y-18336560D01*
X23053486Y-18322992D01*
X23047848Y-18287364D01*
X23028314Y-18262994D01*
X22990958Y-18248093D01*
X22931850Y-18240875D01*
X22869808Y-18239429D01*
X22869808Y-18094322D01*
X22939587Y-18094826D01*
X22991841Y-18097096D01*
X23028051Y-18102068D01*
X23054701Y-18110713D01*
X23078278Y-18124005D01*
X23082662Y-18126943D01*
X23141751Y-18176313D01*
X23176053Y-18230109D01*
X23189669Y-18295602D01*
X23190335Y-18317842D01*
X23178038Y-18401115D01*
D12*
X29946000Y-27370000D03*
D13*
X29946000Y-24830000D03*
X29946000Y-22290000D03*
X29946000Y-19750000D03*
D14*
X14165000Y-26595000D03*
X14165000Y-17945000D03*
D15*
X17545000Y-26595000D03*
X17545000Y-17941000D03*
D16*
X17175000Y-23545000D03*
X17175000Y-21845000D03*
X17175000Y-24395000D03*
X17175000Y-20995000D03*
X17175000Y-22695000D03*
X17175000Y-19295000D03*
X17175000Y-20145000D03*
X17175000Y-25245000D03*
X18525000Y-20995000D03*
X18525000Y-19295000D03*
X18525000Y-20145000D03*
X18525000Y-22695000D03*
X18525000Y-21845000D03*
X18525000Y-23545000D03*
X18525000Y-24395000D03*
X18525000Y-25245000D03*
D17*
X32450000Y-26842000D03*
D18*
X20460000Y-18345000D03*
X20460000Y-19615000D03*
D19*
X25770000Y-27020000D03*
X22770000Y-27020000D03*
D17*
X32450000Y-19792000D03*
X32450000Y-18692000D03*
X32450000Y-20892000D03*
X32450000Y-23292000D03*
X32450000Y-22092000D03*
X32450000Y-24392000D03*
X32450000Y-25592000D03*
D20*
X37598000Y-26116000D03*
X37598000Y-19616000D03*
D21*
X37598000Y-23866000D03*
X37598000Y-21866000D03*
D10*
G36*
X33848001Y-24990998D02*
G01*
X33848001Y-27241002D01*
X32847999Y-26241000D01*
X32847999Y-25991000D01*
X33848001Y-24990998D01*
G37*
G36*
X33848001Y-18490998D02*
G01*
X33848001Y-20741002D01*
X32847999Y-19741000D01*
X32847999Y-19491000D01*
X33848001Y-18490998D01*
G37*
D22*
X33348000Y-25491000D03*
X33348000Y-20241000D03*
M02*
