G04 #@! TF.GenerationSoftware,KiCad,Pcbnew,(5.1.6)-1*
G04 #@! TF.CreationDate,2020-12-05T12:50:12+08:00*
G04 #@! TF.ProjectId,qomu-board,716f6d75-2d62-46f6-9172-642e6b696361,rev?*
G04 #@! TF.SameCoordinates,Original*
G04 #@! TF.FileFunction,Paste,Bot*
G04 #@! TF.FilePolarity,Positive*
%FSLAX46Y46*%
G04 Gerber Fmt 4.6, Leading zero omitted, Abs format (unit mm)*
G04 Created by KiCad (PCBNEW (5.1.6)-1) date 2020-12-05 12:50:12*
%MOMM*%
%LPD*%
G01*
G04 APERTURE LIST*
%ADD10C,0.100000*%
%ADD11R,0.700000X0.900000*%
%ADD12R,0.740000X2.790000*%
%ADD13R,0.400000X0.400000*%
%ADD14R,0.270000X0.180000*%
%ADD15R,0.270000X0.520000*%
%ADD16R,0.180000X0.270000*%
%ADD17R,0.520000X0.270000*%
%ADD18R,1.140000X0.575000*%
%ADD19R,0.700000X1.500000*%
%ADD20R,1.000000X0.800000*%
%ADD21R,0.670000X0.300000*%
%ADD22C,0.211000*%
%ADD23R,0.800000X0.800000*%
G04 APERTURE END LIST*
D10*
G36*
X40031802Y-25406000D02*
G01*
X40350000Y-25087802D01*
X40668198Y-25406000D01*
X40350000Y-25724198D01*
X40031802Y-25406000D01*
G37*
G36*
X40100000Y-25006000D02*
G01*
X39920000Y-25186000D01*
X39700000Y-25186000D01*
X39700000Y-24976000D01*
X40100000Y-24976000D01*
X40100000Y-25006000D01*
G37*
G36*
X41000000Y-25186000D02*
G01*
X40780000Y-25186000D01*
X40600000Y-25006000D01*
X40600000Y-24976000D01*
X41000000Y-24976000D01*
X41000000Y-25186000D01*
G37*
G36*
X41000000Y-25836000D02*
G01*
X40600000Y-25836000D01*
X40600000Y-25806000D01*
X40780000Y-25626000D01*
X41000000Y-25626000D01*
X41000000Y-25836000D01*
G37*
G36*
X40100000Y-25806000D02*
G01*
X40100000Y-25836000D01*
X39700000Y-25836000D01*
X39700000Y-25626000D01*
X39920000Y-25626000D01*
X40100000Y-25806000D01*
G37*
G36*
X35848198Y-26050000D02*
G01*
X35530000Y-26368198D01*
X35211802Y-26050000D01*
X35530000Y-25731802D01*
X35848198Y-26050000D01*
G37*
G36*
X35780000Y-26450000D02*
G01*
X35960000Y-26270000D01*
X36180000Y-26270000D01*
X36180000Y-26480000D01*
X35780000Y-26480000D01*
X35780000Y-26450000D01*
G37*
G36*
X34880000Y-26270000D02*
G01*
X35100000Y-26270000D01*
X35280000Y-26450000D01*
X35280000Y-26480000D01*
X34880000Y-26480000D01*
X34880000Y-26270000D01*
G37*
G36*
X34880000Y-25620000D02*
G01*
X35280000Y-25620000D01*
X35280000Y-25650000D01*
X35100000Y-25830000D01*
X34880000Y-25830000D01*
X34880000Y-25620000D01*
G37*
G36*
X35780000Y-25650000D02*
G01*
X35780000Y-25620000D01*
X36180000Y-25620000D01*
X36180000Y-25830000D01*
X35960000Y-25830000D01*
X35780000Y-25650000D01*
G37*
D11*
X40050000Y-21900000D03*
X41350000Y-21900000D03*
X40700000Y-23800000D03*
D12*
X22685000Y-18535000D03*
X22685000Y-22605000D03*
X23955000Y-18535000D03*
X23955000Y-22605000D03*
X25225000Y-18535000D03*
X25225000Y-22605000D03*
X26495000Y-18535000D03*
X26495000Y-22605000D03*
X27765000Y-18535000D03*
X27765000Y-22605000D03*
G36*
G01*
X38046000Y-25570500D02*
X38046000Y-25369500D01*
G75*
G02*
X38125500Y-25290000I79500J0D01*
G01*
X38284500Y-25290000D01*
G75*
G02*
X38364000Y-25369500I0J-79500D01*
G01*
X38364000Y-25570500D01*
G75*
G02*
X38284500Y-25650000I-79500J0D01*
G01*
X38125500Y-25650000D01*
G75*
G02*
X38046000Y-25570500I0J79500D01*
G01*
G37*
G36*
G01*
X38736000Y-25570500D02*
X38736000Y-25369500D01*
G75*
G02*
X38815500Y-25290000I79500J0D01*
G01*
X38974500Y-25290000D01*
G75*
G02*
X39054000Y-25369500I0J-79500D01*
G01*
X39054000Y-25570500D01*
G75*
G02*
X38974500Y-25650000I-79500J0D01*
G01*
X38815500Y-25650000D01*
G75*
G02*
X38736000Y-25570500I0J79500D01*
G01*
G37*
G36*
G01*
X36646000Y-25570500D02*
X36646000Y-25369500D01*
G75*
G02*
X36725500Y-25290000I79500J0D01*
G01*
X36884500Y-25290000D01*
G75*
G02*
X36964000Y-25369500I0J-79500D01*
G01*
X36964000Y-25570500D01*
G75*
G02*
X36884500Y-25650000I-79500J0D01*
G01*
X36725500Y-25650000D01*
G75*
G02*
X36646000Y-25570500I0J79500D01*
G01*
G37*
G36*
G01*
X37336000Y-25570500D02*
X37336000Y-25369500D01*
G75*
G02*
X37415500Y-25290000I79500J0D01*
G01*
X37574500Y-25290000D01*
G75*
G02*
X37654000Y-25369500I0J-79500D01*
G01*
X37654000Y-25570500D01*
G75*
G02*
X37574500Y-25650000I-79500J0D01*
G01*
X37415500Y-25650000D01*
G75*
G02*
X37336000Y-25570500I0J79500D01*
G01*
G37*
D13*
X41873000Y-19970000D03*
X41273000Y-19970000D03*
X41873000Y-20570000D03*
X41273000Y-20570000D03*
D14*
X40225000Y-18795000D03*
X40225000Y-19145000D03*
D15*
X39725000Y-18970000D03*
D16*
X42675000Y-23225000D03*
X42325000Y-23225000D03*
D17*
X42500000Y-22725000D03*
D16*
X42675000Y-24375000D03*
X42325000Y-24375000D03*
D17*
X42500000Y-23875000D03*
D18*
X34648000Y-23880000D03*
X34648000Y-24705000D03*
D19*
X22020000Y-25270000D03*
X26520000Y-25270000D03*
X23520000Y-25270000D03*
D20*
X27920000Y-28120000D03*
X27920000Y-26020000D03*
X20620000Y-26020000D03*
X20620000Y-28120000D03*
D21*
X38723000Y-21511000D03*
X38723000Y-21011000D03*
X38723000Y-20511000D03*
X38723000Y-20011000D03*
X36073000Y-20011000D03*
X36073000Y-20511000D03*
X36073000Y-21011000D03*
X36073000Y-21501000D03*
D22*
X36000000Y-24495000D03*
X36000000Y-24145000D03*
X36000000Y-23795000D03*
X36000000Y-23445000D03*
X36000000Y-23095000D03*
X36000000Y-22745000D03*
X36350000Y-24495000D03*
X36350000Y-24145000D03*
X36350000Y-23795000D03*
X36350000Y-23445000D03*
X36350000Y-23095000D03*
X36350000Y-22745000D03*
X36700000Y-24495000D03*
X36700000Y-24145000D03*
X36700000Y-23795000D03*
X36700000Y-23445000D03*
X36700000Y-23095000D03*
X36700000Y-22745000D03*
X37050000Y-24495000D03*
X37050000Y-24145000D03*
X37050000Y-23795000D03*
X37050000Y-23445000D03*
X37050000Y-23095000D03*
X37050000Y-22745000D03*
X37400000Y-24495000D03*
X37400000Y-24145000D03*
X37400000Y-23795000D03*
X37400000Y-23445000D03*
X37400000Y-23095000D03*
X37400000Y-22745000D03*
X37750000Y-24495000D03*
X37750000Y-24145000D03*
X37750000Y-23795000D03*
X37750000Y-23445000D03*
X37750000Y-23095000D03*
X37750000Y-22745000D03*
X38100000Y-24495000D03*
X38100000Y-24145000D03*
X38100000Y-23795000D03*
X38100000Y-23445000D03*
X38100000Y-23095000D03*
X38100000Y-22745000D03*
G36*
G01*
X16504000Y-27899500D02*
X16504000Y-28100500D01*
G75*
G02*
X16424500Y-28180000I-79500J0D01*
G01*
X16265500Y-28180000D01*
G75*
G02*
X16186000Y-28100500I0J79500D01*
G01*
X16186000Y-27899500D01*
G75*
G02*
X16265500Y-27820000I79500J0D01*
G01*
X16424500Y-27820000D01*
G75*
G02*
X16504000Y-27899500I0J-79500D01*
G01*
G37*
G36*
G01*
X15814000Y-27899500D02*
X15814000Y-28100500D01*
G75*
G02*
X15734500Y-28180000I-79500J0D01*
G01*
X15575500Y-28180000D01*
G75*
G02*
X15496000Y-28100500I0J79500D01*
G01*
X15496000Y-27899500D01*
G75*
G02*
X15575500Y-27820000I79500J0D01*
G01*
X15734500Y-27820000D01*
G75*
G02*
X15814000Y-27899500I0J-79500D01*
G01*
G37*
G36*
G01*
X13296000Y-28100500D02*
X13296000Y-27899500D01*
G75*
G02*
X13375500Y-27820000I79500J0D01*
G01*
X13534500Y-27820000D01*
G75*
G02*
X13614000Y-27899500I0J-79500D01*
G01*
X13614000Y-28100500D01*
G75*
G02*
X13534500Y-28180000I-79500J0D01*
G01*
X13375500Y-28180000D01*
G75*
G02*
X13296000Y-28100500I0J79500D01*
G01*
G37*
G36*
G01*
X13986000Y-28100500D02*
X13986000Y-27899500D01*
G75*
G02*
X14065500Y-27820000I79500J0D01*
G01*
X14224500Y-27820000D01*
G75*
G02*
X14304000Y-27899500I0J-79500D01*
G01*
X14304000Y-28100500D01*
G75*
G02*
X14224500Y-28180000I-79500J0D01*
G01*
X14065500Y-28180000D01*
G75*
G02*
X13986000Y-28100500I0J79500D01*
G01*
G37*
D23*
X20425000Y-24020000D03*
X20425000Y-21770000D03*
G36*
G01*
X31264000Y-17239500D02*
X31264000Y-17440500D01*
G75*
G02*
X31184500Y-17520000I-79500J0D01*
G01*
X31025500Y-17520000D01*
G75*
G02*
X30946000Y-17440500I0J79500D01*
G01*
X30946000Y-17239500D01*
G75*
G02*
X31025500Y-17160000I79500J0D01*
G01*
X31184500Y-17160000D01*
G75*
G02*
X31264000Y-17239500I0J-79500D01*
G01*
G37*
G36*
G01*
X30574000Y-17239500D02*
X30574000Y-17440500D01*
G75*
G02*
X30494500Y-17520000I-79500J0D01*
G01*
X30335500Y-17520000D01*
G75*
G02*
X30256000Y-17440500I0J79500D01*
G01*
X30256000Y-17239500D01*
G75*
G02*
X30335500Y-17160000I79500J0D01*
G01*
X30494500Y-17160000D01*
G75*
G02*
X30574000Y-17239500I0J-79500D01*
G01*
G37*
G36*
G01*
X30256000Y-18145500D02*
X30256000Y-17944500D01*
G75*
G02*
X30335500Y-17865000I79500J0D01*
G01*
X30494500Y-17865000D01*
G75*
G02*
X30574000Y-17944500I0J-79500D01*
G01*
X30574000Y-18145500D01*
G75*
G02*
X30494500Y-18225000I-79500J0D01*
G01*
X30335500Y-18225000D01*
G75*
G02*
X30256000Y-18145500I0J79500D01*
G01*
G37*
G36*
G01*
X30946000Y-18145500D02*
X30946000Y-17944500D01*
G75*
G02*
X31025500Y-17865000I79500J0D01*
G01*
X31184500Y-17865000D01*
G75*
G02*
X31264000Y-17944500I0J-79500D01*
G01*
X31264000Y-18145500D01*
G75*
G02*
X31184500Y-18225000I-79500J0D01*
G01*
X31025500Y-18225000D01*
G75*
G02*
X30946000Y-18145500I0J79500D01*
G01*
G37*
G36*
G01*
X39054000Y-26069500D02*
X39054000Y-26270500D01*
G75*
G02*
X38974500Y-26350000I-79500J0D01*
G01*
X38815500Y-26350000D01*
G75*
G02*
X38736000Y-26270500I0J79500D01*
G01*
X38736000Y-26069500D01*
G75*
G02*
X38815500Y-25990000I79500J0D01*
G01*
X38974500Y-25990000D01*
G75*
G02*
X39054000Y-26069500I0J-79500D01*
G01*
G37*
G36*
G01*
X38364000Y-26069500D02*
X38364000Y-26270500D01*
G75*
G02*
X38284500Y-26350000I-79500J0D01*
G01*
X38125500Y-26350000D01*
G75*
G02*
X38046000Y-26270500I0J79500D01*
G01*
X38046000Y-26069500D01*
G75*
G02*
X38125500Y-25990000I79500J0D01*
G01*
X38284500Y-25990000D01*
G75*
G02*
X38364000Y-26069500I0J-79500D01*
G01*
G37*
G36*
G01*
X35054000Y-22169500D02*
X35054000Y-22370500D01*
G75*
G02*
X34974500Y-22450000I-79500J0D01*
G01*
X34815500Y-22450000D01*
G75*
G02*
X34736000Y-22370500I0J79500D01*
G01*
X34736000Y-22169500D01*
G75*
G02*
X34815500Y-22090000I79500J0D01*
G01*
X34974500Y-22090000D01*
G75*
G02*
X35054000Y-22169500I0J-79500D01*
G01*
G37*
G36*
G01*
X34364000Y-22169500D02*
X34364000Y-22370500D01*
G75*
G02*
X34284500Y-22450000I-79500J0D01*
G01*
X34125500Y-22450000D01*
G75*
G02*
X34046000Y-22370500I0J79500D01*
G01*
X34046000Y-22169500D01*
G75*
G02*
X34125500Y-22090000I79500J0D01*
G01*
X34284500Y-22090000D01*
G75*
G02*
X34364000Y-22169500I0J-79500D01*
G01*
G37*
G36*
G01*
X33550500Y-25374000D02*
X33349500Y-25374000D01*
G75*
G02*
X33270000Y-25294500I0J79500D01*
G01*
X33270000Y-25135500D01*
G75*
G02*
X33349500Y-25056000I79500J0D01*
G01*
X33550500Y-25056000D01*
G75*
G02*
X33630000Y-25135500I0J-79500D01*
G01*
X33630000Y-25294500D01*
G75*
G02*
X33550500Y-25374000I-79500J0D01*
G01*
G37*
G36*
G01*
X33550500Y-24684000D02*
X33349500Y-24684000D01*
G75*
G02*
X33270000Y-24604500I0J79500D01*
G01*
X33270000Y-24445500D01*
G75*
G02*
X33349500Y-24366000I79500J0D01*
G01*
X33550500Y-24366000D01*
G75*
G02*
X33630000Y-24445500I0J-79500D01*
G01*
X33630000Y-24604500D01*
G75*
G02*
X33550500Y-24684000I-79500J0D01*
G01*
G37*
G36*
G01*
X33560500Y-23974000D02*
X33359500Y-23974000D01*
G75*
G02*
X33280000Y-23894500I0J79500D01*
G01*
X33280000Y-23735500D01*
G75*
G02*
X33359500Y-23656000I79500J0D01*
G01*
X33560500Y-23656000D01*
G75*
G02*
X33640000Y-23735500I0J-79500D01*
G01*
X33640000Y-23894500D01*
G75*
G02*
X33560500Y-23974000I-79500J0D01*
G01*
G37*
G36*
G01*
X33560500Y-23284000D02*
X33359500Y-23284000D01*
G75*
G02*
X33280000Y-23204500I0J79500D01*
G01*
X33280000Y-23045500D01*
G75*
G02*
X33359500Y-22966000I79500J0D01*
G01*
X33560500Y-22966000D01*
G75*
G02*
X33640000Y-23045500I0J-79500D01*
G01*
X33640000Y-23204500D01*
G75*
G02*
X33560500Y-23284000I-79500J0D01*
G01*
G37*
G36*
G01*
X42650500Y-21674000D02*
X42449500Y-21674000D01*
G75*
G02*
X42370000Y-21594500I0J79500D01*
G01*
X42370000Y-21435500D01*
G75*
G02*
X42449500Y-21356000I79500J0D01*
G01*
X42650500Y-21356000D01*
G75*
G02*
X42730000Y-21435500I0J-79500D01*
G01*
X42730000Y-21594500D01*
G75*
G02*
X42650500Y-21674000I-79500J0D01*
G01*
G37*
G36*
G01*
X42650500Y-20984000D02*
X42449500Y-20984000D01*
G75*
G02*
X42370000Y-20904500I0J79500D01*
G01*
X42370000Y-20745500D01*
G75*
G02*
X42449500Y-20666000I79500J0D01*
G01*
X42650500Y-20666000D01*
G75*
G02*
X42730000Y-20745500I0J-79500D01*
G01*
X42730000Y-20904500D01*
G75*
G02*
X42650500Y-20984000I-79500J0D01*
G01*
G37*
G36*
G01*
X42449500Y-19956000D02*
X42650500Y-19956000D01*
G75*
G02*
X42730000Y-20035500I0J-79500D01*
G01*
X42730000Y-20194500D01*
G75*
G02*
X42650500Y-20274000I-79500J0D01*
G01*
X42449500Y-20274000D01*
G75*
G02*
X42370000Y-20194500I0J79500D01*
G01*
X42370000Y-20035500D01*
G75*
G02*
X42449500Y-19956000I79500J0D01*
G01*
G37*
G36*
G01*
X42449500Y-19266000D02*
X42650500Y-19266000D01*
G75*
G02*
X42730000Y-19345500I0J-79500D01*
G01*
X42730000Y-19504500D01*
G75*
G02*
X42650500Y-19584000I-79500J0D01*
G01*
X42449500Y-19584000D01*
G75*
G02*
X42370000Y-19504500I0J79500D01*
G01*
X42370000Y-19345500D01*
G75*
G02*
X42449500Y-19266000I79500J0D01*
G01*
G37*
G36*
G01*
X40449500Y-19666000D02*
X40650500Y-19666000D01*
G75*
G02*
X40730000Y-19745500I0J-79500D01*
G01*
X40730000Y-19904500D01*
G75*
G02*
X40650500Y-19984000I-79500J0D01*
G01*
X40449500Y-19984000D01*
G75*
G02*
X40370000Y-19904500I0J79500D01*
G01*
X40370000Y-19745500D01*
G75*
G02*
X40449500Y-19666000I79500J0D01*
G01*
G37*
G36*
G01*
X40449500Y-20356000D02*
X40650500Y-20356000D01*
G75*
G02*
X40730000Y-20435500I0J-79500D01*
G01*
X40730000Y-20594500D01*
G75*
G02*
X40650500Y-20674000I-79500J0D01*
G01*
X40449500Y-20674000D01*
G75*
G02*
X40370000Y-20594500I0J79500D01*
G01*
X40370000Y-20435500D01*
G75*
G02*
X40449500Y-20356000I79500J0D01*
G01*
G37*
G36*
G01*
X28856000Y-18145500D02*
X28856000Y-17944500D01*
G75*
G02*
X28935500Y-17865000I79500J0D01*
G01*
X29094500Y-17865000D01*
G75*
G02*
X29174000Y-17944500I0J-79500D01*
G01*
X29174000Y-18145500D01*
G75*
G02*
X29094500Y-18225000I-79500J0D01*
G01*
X28935500Y-18225000D01*
G75*
G02*
X28856000Y-18145500I0J79500D01*
G01*
G37*
G36*
G01*
X29546000Y-18145500D02*
X29546000Y-17944500D01*
G75*
G02*
X29625500Y-17865000I79500J0D01*
G01*
X29784500Y-17865000D01*
G75*
G02*
X29864000Y-17944500I0J-79500D01*
G01*
X29864000Y-18145500D01*
G75*
G02*
X29784500Y-18225000I-79500J0D01*
G01*
X29625500Y-18225000D01*
G75*
G02*
X29546000Y-18145500I0J79500D01*
G01*
G37*
G36*
G01*
X28856000Y-17440500D02*
X28856000Y-17239500D01*
G75*
G02*
X28935500Y-17160000I79500J0D01*
G01*
X29094500Y-17160000D01*
G75*
G02*
X29174000Y-17239500I0J-79500D01*
G01*
X29174000Y-17440500D01*
G75*
G02*
X29094500Y-17520000I-79500J0D01*
G01*
X28935500Y-17520000D01*
G75*
G02*
X28856000Y-17440500I0J79500D01*
G01*
G37*
G36*
G01*
X29546000Y-17440500D02*
X29546000Y-17239500D01*
G75*
G02*
X29625500Y-17160000I79500J0D01*
G01*
X29784500Y-17160000D01*
G75*
G02*
X29864000Y-17239500I0J-79500D01*
G01*
X29864000Y-17440500D01*
G75*
G02*
X29784500Y-17520000I-79500J0D01*
G01*
X29625500Y-17520000D01*
G75*
G02*
X29546000Y-17440500I0J79500D01*
G01*
G37*
G36*
G01*
X34992000Y-20769500D02*
X34992000Y-20970500D01*
G75*
G02*
X34912500Y-21050000I-79500J0D01*
G01*
X34753500Y-21050000D01*
G75*
G02*
X34674000Y-20970500I0J79500D01*
G01*
X34674000Y-20769500D01*
G75*
G02*
X34753500Y-20690000I79500J0D01*
G01*
X34912500Y-20690000D01*
G75*
G02*
X34992000Y-20769500I0J-79500D01*
G01*
G37*
G36*
G01*
X34302000Y-20769500D02*
X34302000Y-20970500D01*
G75*
G02*
X34222500Y-21050000I-79500J0D01*
G01*
X34063500Y-21050000D01*
G75*
G02*
X33984000Y-20970500I0J79500D01*
G01*
X33984000Y-20769500D01*
G75*
G02*
X34063500Y-20690000I79500J0D01*
G01*
X34222500Y-20690000D01*
G75*
G02*
X34302000Y-20769500I0J-79500D01*
G01*
G37*
G36*
G01*
X34992000Y-20069500D02*
X34992000Y-20270500D01*
G75*
G02*
X34912500Y-20350000I-79500J0D01*
G01*
X34753500Y-20350000D01*
G75*
G02*
X34674000Y-20270500I0J79500D01*
G01*
X34674000Y-20069500D01*
G75*
G02*
X34753500Y-19990000I79500J0D01*
G01*
X34912500Y-19990000D01*
G75*
G02*
X34992000Y-20069500I0J-79500D01*
G01*
G37*
G36*
G01*
X34302000Y-20069500D02*
X34302000Y-20270500D01*
G75*
G02*
X34222500Y-20350000I-79500J0D01*
G01*
X34063500Y-20350000D01*
G75*
G02*
X33984000Y-20270500I0J79500D01*
G01*
X33984000Y-20069500D01*
G75*
G02*
X34063500Y-19990000I79500J0D01*
G01*
X34222500Y-19990000D01*
G75*
G02*
X34302000Y-20069500I0J-79500D01*
G01*
G37*
G36*
G01*
X34992000Y-21469500D02*
X34992000Y-21670500D01*
G75*
G02*
X34912500Y-21750000I-79500J0D01*
G01*
X34753500Y-21750000D01*
G75*
G02*
X34674000Y-21670500I0J79500D01*
G01*
X34674000Y-21469500D01*
G75*
G02*
X34753500Y-21390000I79500J0D01*
G01*
X34912500Y-21390000D01*
G75*
G02*
X34992000Y-21469500I0J-79500D01*
G01*
G37*
G36*
G01*
X34302000Y-21469500D02*
X34302000Y-21670500D01*
G75*
G02*
X34222500Y-21750000I-79500J0D01*
G01*
X34063500Y-21750000D01*
G75*
G02*
X33984000Y-21670500I0J79500D01*
G01*
X33984000Y-21469500D01*
G75*
G02*
X34063500Y-21390000I79500J0D01*
G01*
X34222500Y-21390000D01*
G75*
G02*
X34302000Y-21469500I0J-79500D01*
G01*
G37*
G36*
G01*
X18704000Y-27899500D02*
X18704000Y-28100500D01*
G75*
G02*
X18624500Y-28180000I-79500J0D01*
G01*
X18465500Y-28180000D01*
G75*
G02*
X18386000Y-28100500I0J79500D01*
G01*
X18386000Y-27899500D01*
G75*
G02*
X18465500Y-27820000I79500J0D01*
G01*
X18624500Y-27820000D01*
G75*
G02*
X18704000Y-27899500I0J-79500D01*
G01*
G37*
G36*
G01*
X18014000Y-27899500D02*
X18014000Y-28100500D01*
G75*
G02*
X17934500Y-28180000I-79500J0D01*
G01*
X17775500Y-28180000D01*
G75*
G02*
X17696000Y-28100500I0J79500D01*
G01*
X17696000Y-27899500D01*
G75*
G02*
X17775500Y-27820000I79500J0D01*
G01*
X17934500Y-27820000D01*
G75*
G02*
X18014000Y-27899500I0J-79500D01*
G01*
G37*
G36*
G01*
X41046000Y-26620500D02*
X41046000Y-26419500D01*
G75*
G02*
X41125500Y-26340000I79500J0D01*
G01*
X41284500Y-26340000D01*
G75*
G02*
X41364000Y-26419500I0J-79500D01*
G01*
X41364000Y-26620500D01*
G75*
G02*
X41284500Y-26700000I-79500J0D01*
G01*
X41125500Y-26700000D01*
G75*
G02*
X41046000Y-26620500I0J79500D01*
G01*
G37*
G36*
G01*
X41736000Y-26620500D02*
X41736000Y-26419500D01*
G75*
G02*
X41815500Y-26340000I79500J0D01*
G01*
X41974500Y-26340000D01*
G75*
G02*
X42054000Y-26419500I0J-79500D01*
G01*
X42054000Y-26620500D01*
G75*
G02*
X41974500Y-26700000I-79500J0D01*
G01*
X41815500Y-26700000D01*
G75*
G02*
X41736000Y-26620500I0J79500D01*
G01*
G37*
G36*
G01*
X39054000Y-26769500D02*
X39054000Y-26970500D01*
G75*
G02*
X38974500Y-27050000I-79500J0D01*
G01*
X38815500Y-27050000D01*
G75*
G02*
X38736000Y-26970500I0J79500D01*
G01*
X38736000Y-26769500D01*
G75*
G02*
X38815500Y-26690000I79500J0D01*
G01*
X38974500Y-26690000D01*
G75*
G02*
X39054000Y-26769500I0J-79500D01*
G01*
G37*
G36*
G01*
X38364000Y-26769500D02*
X38364000Y-26970500D01*
G75*
G02*
X38284500Y-27050000I-79500J0D01*
G01*
X38125500Y-27050000D01*
G75*
G02*
X38046000Y-26970500I0J79500D01*
G01*
X38046000Y-26769500D01*
G75*
G02*
X38125500Y-26690000I79500J0D01*
G01*
X38284500Y-26690000D01*
G75*
G02*
X38364000Y-26769500I0J-79500D01*
G01*
G37*
G36*
G01*
X33610500Y-20720000D02*
X33425500Y-20720000D01*
G75*
G02*
X33368000Y-20662500I0J57500D01*
G01*
X33368000Y-20547500D01*
G75*
G02*
X33425500Y-20490000I57500J0D01*
G01*
X33610500Y-20490000D01*
G75*
G02*
X33668000Y-20547500I0J-57500D01*
G01*
X33668000Y-20662500D01*
G75*
G02*
X33610500Y-20720000I-57500J0D01*
G01*
G37*
G36*
G01*
X33610500Y-20340000D02*
X33425500Y-20340000D01*
G75*
G02*
X33368000Y-20282500I0J57500D01*
G01*
X33368000Y-20167500D01*
G75*
G02*
X33425500Y-20110000I57500J0D01*
G01*
X33610500Y-20110000D01*
G75*
G02*
X33668000Y-20167500I0J-57500D01*
G01*
X33668000Y-20282500D01*
G75*
G02*
X33610500Y-20340000I-57500J0D01*
G01*
G37*
G36*
G01*
X33435500Y-21730000D02*
X33620500Y-21730000D01*
G75*
G02*
X33678000Y-21787500I0J-57500D01*
G01*
X33678000Y-21902500D01*
G75*
G02*
X33620500Y-21960000I-57500J0D01*
G01*
X33435500Y-21960000D01*
G75*
G02*
X33378000Y-21902500I0J57500D01*
G01*
X33378000Y-21787500D01*
G75*
G02*
X33435500Y-21730000I57500J0D01*
G01*
G37*
G36*
G01*
X33435500Y-22110000D02*
X33620500Y-22110000D01*
G75*
G02*
X33678000Y-22167500I0J-57500D01*
G01*
X33678000Y-22282500D01*
G75*
G02*
X33620500Y-22340000I-57500J0D01*
G01*
X33435500Y-22340000D01*
G75*
G02*
X33378000Y-22282500I0J57500D01*
G01*
X33378000Y-22167500D01*
G75*
G02*
X33435500Y-22110000I57500J0D01*
G01*
G37*
G36*
G01*
X33457500Y-25830000D02*
X33642500Y-25830000D01*
G75*
G02*
X33700000Y-25887500I0J-57500D01*
G01*
X33700000Y-26002500D01*
G75*
G02*
X33642500Y-26060000I-57500J0D01*
G01*
X33457500Y-26060000D01*
G75*
G02*
X33400000Y-26002500I0J57500D01*
G01*
X33400000Y-25887500D01*
G75*
G02*
X33457500Y-25830000I57500J0D01*
G01*
G37*
G36*
G01*
X33457500Y-26210000D02*
X33642500Y-26210000D01*
G75*
G02*
X33700000Y-26267500I0J-57500D01*
G01*
X33700000Y-26382500D01*
G75*
G02*
X33642500Y-26440000I-57500J0D01*
G01*
X33457500Y-26440000D01*
G75*
G02*
X33400000Y-26382500I0J57500D01*
G01*
X33400000Y-26267500D01*
G75*
G02*
X33457500Y-26210000I57500J0D01*
G01*
G37*
G36*
G01*
X42592500Y-26625000D02*
X42407500Y-26625000D01*
G75*
G02*
X42350000Y-26567500I0J57500D01*
G01*
X42350000Y-26452500D01*
G75*
G02*
X42407500Y-26395000I57500J0D01*
G01*
X42592500Y-26395000D01*
G75*
G02*
X42650000Y-26452500I0J-57500D01*
G01*
X42650000Y-26567500D01*
G75*
G02*
X42592500Y-26625000I-57500J0D01*
G01*
G37*
G36*
G01*
X42592500Y-26245000D02*
X42407500Y-26245000D01*
G75*
G02*
X42350000Y-26187500I0J57500D01*
G01*
X42350000Y-26072500D01*
G75*
G02*
X42407500Y-26015000I57500J0D01*
G01*
X42592500Y-26015000D01*
G75*
G02*
X42650000Y-26072500I0J-57500D01*
G01*
X42650000Y-26187500D01*
G75*
G02*
X42592500Y-26245000I-57500J0D01*
G01*
G37*
G36*
G01*
X42855000Y-22057500D02*
X42855000Y-22242500D01*
G75*
G02*
X42797500Y-22300000I-57500J0D01*
G01*
X42682500Y-22300000D01*
G75*
G02*
X42625000Y-22242500I0J57500D01*
G01*
X42625000Y-22057500D01*
G75*
G02*
X42682500Y-22000000I57500J0D01*
G01*
X42797500Y-22000000D01*
G75*
G02*
X42855000Y-22057500I0J-57500D01*
G01*
G37*
G36*
G01*
X42475000Y-22057500D02*
X42475000Y-22242500D01*
G75*
G02*
X42417500Y-22300000I-57500J0D01*
G01*
X42302500Y-22300000D01*
G75*
G02*
X42245000Y-22242500I0J57500D01*
G01*
X42245000Y-22057500D01*
G75*
G02*
X42302500Y-22000000I57500J0D01*
G01*
X42417500Y-22000000D01*
G75*
G02*
X42475000Y-22057500I0J-57500D01*
G01*
G37*
G36*
G01*
X42407500Y-24965000D02*
X42592500Y-24965000D01*
G75*
G02*
X42650000Y-25022500I0J-57500D01*
G01*
X42650000Y-25137500D01*
G75*
G02*
X42592500Y-25195000I-57500J0D01*
G01*
X42407500Y-25195000D01*
G75*
G02*
X42350000Y-25137500I0J57500D01*
G01*
X42350000Y-25022500D01*
G75*
G02*
X42407500Y-24965000I57500J0D01*
G01*
G37*
G36*
G01*
X42407500Y-25345000D02*
X42592500Y-25345000D01*
G75*
G02*
X42650000Y-25402500I0J-57500D01*
G01*
X42650000Y-25517500D01*
G75*
G02*
X42592500Y-25575000I-57500J0D01*
G01*
X42407500Y-25575000D01*
G75*
G02*
X42350000Y-25517500I0J57500D01*
G01*
X42350000Y-25402500D01*
G75*
G02*
X42407500Y-25345000I57500J0D01*
G01*
G37*
G36*
G01*
X42855000Y-18727500D02*
X42855000Y-18912500D01*
G75*
G02*
X42797500Y-18970000I-57500J0D01*
G01*
X42682500Y-18970000D01*
G75*
G02*
X42625000Y-18912500I0J57500D01*
G01*
X42625000Y-18727500D01*
G75*
G02*
X42682500Y-18670000I57500J0D01*
G01*
X42797500Y-18670000D01*
G75*
G02*
X42855000Y-18727500I0J-57500D01*
G01*
G37*
G36*
G01*
X42475000Y-18727500D02*
X42475000Y-18912500D01*
G75*
G02*
X42417500Y-18970000I-57500J0D01*
G01*
X42302500Y-18970000D01*
G75*
G02*
X42245000Y-18912500I0J57500D01*
G01*
X42245000Y-18727500D01*
G75*
G02*
X42302500Y-18670000I57500J0D01*
G01*
X42417500Y-18670000D01*
G75*
G02*
X42475000Y-18727500I0J-57500D01*
G01*
G37*
G36*
G01*
X25504000Y-25069500D02*
X25504000Y-25270500D01*
G75*
G02*
X25424500Y-25350000I-79500J0D01*
G01*
X25265500Y-25350000D01*
G75*
G02*
X25186000Y-25270500I0J79500D01*
G01*
X25186000Y-25069500D01*
G75*
G02*
X25265500Y-24990000I79500J0D01*
G01*
X25424500Y-24990000D01*
G75*
G02*
X25504000Y-25069500I0J-79500D01*
G01*
G37*
G36*
G01*
X24814000Y-25069500D02*
X24814000Y-25270500D01*
G75*
G02*
X24734500Y-25350000I-79500J0D01*
G01*
X24575500Y-25350000D01*
G75*
G02*
X24496000Y-25270500I0J79500D01*
G01*
X24496000Y-25069500D01*
G75*
G02*
X24575500Y-24990000I79500J0D01*
G01*
X24734500Y-24990000D01*
G75*
G02*
X24814000Y-25069500I0J-79500D01*
G01*
G37*
G36*
G01*
X39646000Y-26620500D02*
X39646000Y-26419500D01*
G75*
G02*
X39725500Y-26340000I79500J0D01*
G01*
X39884500Y-26340000D01*
G75*
G02*
X39964000Y-26419500I0J-79500D01*
G01*
X39964000Y-26620500D01*
G75*
G02*
X39884500Y-26700000I-79500J0D01*
G01*
X39725500Y-26700000D01*
G75*
G02*
X39646000Y-26620500I0J79500D01*
G01*
G37*
G36*
G01*
X40336000Y-26620500D02*
X40336000Y-26419500D01*
G75*
G02*
X40415500Y-26340000I79500J0D01*
G01*
X40574500Y-26340000D01*
G75*
G02*
X40654000Y-26419500I0J-79500D01*
G01*
X40654000Y-26620500D01*
G75*
G02*
X40574500Y-26700000I-79500J0D01*
G01*
X40415500Y-26700000D01*
G75*
G02*
X40336000Y-26620500I0J79500D01*
G01*
G37*
G36*
G01*
X39100500Y-23424000D02*
X38899500Y-23424000D01*
G75*
G02*
X38820000Y-23344500I0J79500D01*
G01*
X38820000Y-23185500D01*
G75*
G02*
X38899500Y-23106000I79500J0D01*
G01*
X39100500Y-23106000D01*
G75*
G02*
X39180000Y-23185500I0J-79500D01*
G01*
X39180000Y-23344500D01*
G75*
G02*
X39100500Y-23424000I-79500J0D01*
G01*
G37*
G36*
G01*
X39100500Y-22734000D02*
X38899500Y-22734000D01*
G75*
G02*
X38820000Y-22654500I0J79500D01*
G01*
X38820000Y-22495500D01*
G75*
G02*
X38899500Y-22416000I79500J0D01*
G01*
X39100500Y-22416000D01*
G75*
G02*
X39180000Y-22495500I0J-79500D01*
G01*
X39180000Y-22654500D01*
G75*
G02*
X39100500Y-22734000I-79500J0D01*
G01*
G37*
G36*
G01*
X36646000Y-26270500D02*
X36646000Y-26069500D01*
G75*
G02*
X36725500Y-25990000I79500J0D01*
G01*
X36884500Y-25990000D01*
G75*
G02*
X36964000Y-26069500I0J-79500D01*
G01*
X36964000Y-26270500D01*
G75*
G02*
X36884500Y-26350000I-79500J0D01*
G01*
X36725500Y-26350000D01*
G75*
G02*
X36646000Y-26270500I0J79500D01*
G01*
G37*
G36*
G01*
X37336000Y-26270500D02*
X37336000Y-26069500D01*
G75*
G02*
X37415500Y-25990000I79500J0D01*
G01*
X37574500Y-25990000D01*
G75*
G02*
X37654000Y-26069500I0J-79500D01*
G01*
X37654000Y-26270500D01*
G75*
G02*
X37574500Y-26350000I-79500J0D01*
G01*
X37415500Y-26350000D01*
G75*
G02*
X37336000Y-26270500I0J79500D01*
G01*
G37*
G36*
G01*
X38899500Y-23816000D02*
X39100500Y-23816000D01*
G75*
G02*
X39180000Y-23895500I0J-79500D01*
G01*
X39180000Y-24054500D01*
G75*
G02*
X39100500Y-24134000I-79500J0D01*
G01*
X38899500Y-24134000D01*
G75*
G02*
X38820000Y-24054500I0J79500D01*
G01*
X38820000Y-23895500D01*
G75*
G02*
X38899500Y-23816000I79500J0D01*
G01*
G37*
G36*
G01*
X38899500Y-24506000D02*
X39100500Y-24506000D01*
G75*
G02*
X39180000Y-24585500I0J-79500D01*
G01*
X39180000Y-24744500D01*
G75*
G02*
X39100500Y-24824000I-79500J0D01*
G01*
X38899500Y-24824000D01*
G75*
G02*
X38820000Y-24744500I0J79500D01*
G01*
X38820000Y-24585500D01*
G75*
G02*
X38899500Y-24506000I79500J0D01*
G01*
G37*
G36*
G01*
X36646000Y-26970500D02*
X36646000Y-26769500D01*
G75*
G02*
X36725500Y-26690000I79500J0D01*
G01*
X36884500Y-26690000D01*
G75*
G02*
X36964000Y-26769500I0J-79500D01*
G01*
X36964000Y-26970500D01*
G75*
G02*
X36884500Y-27050000I-79500J0D01*
G01*
X36725500Y-27050000D01*
G75*
G02*
X36646000Y-26970500I0J79500D01*
G01*
G37*
G36*
G01*
X37336000Y-26970500D02*
X37336000Y-26769500D01*
G75*
G02*
X37415500Y-26690000I79500J0D01*
G01*
X37574500Y-26690000D01*
G75*
G02*
X37654000Y-26769500I0J-79500D01*
G01*
X37654000Y-26970500D01*
G75*
G02*
X37574500Y-27050000I-79500J0D01*
G01*
X37415500Y-27050000D01*
G75*
G02*
X37336000Y-26970500I0J79500D01*
G01*
G37*
G36*
G01*
X39749500Y-19666000D02*
X39950500Y-19666000D01*
G75*
G02*
X40030000Y-19745500I0J-79500D01*
G01*
X40030000Y-19904500D01*
G75*
G02*
X39950500Y-19984000I-79500J0D01*
G01*
X39749500Y-19984000D01*
G75*
G02*
X39670000Y-19904500I0J79500D01*
G01*
X39670000Y-19745500D01*
G75*
G02*
X39749500Y-19666000I79500J0D01*
G01*
G37*
G36*
G01*
X39749500Y-20356000D02*
X39950500Y-20356000D01*
G75*
G02*
X40030000Y-20435500I0J-79500D01*
G01*
X40030000Y-20594500D01*
G75*
G02*
X39950500Y-20674000I-79500J0D01*
G01*
X39749500Y-20674000D01*
G75*
G02*
X39670000Y-20594500I0J79500D01*
G01*
X39670000Y-20435500D01*
G75*
G02*
X39749500Y-20356000I79500J0D01*
G01*
G37*
G36*
G01*
X35054000Y-22869500D02*
X35054000Y-23070500D01*
G75*
G02*
X34974500Y-23150000I-79500J0D01*
G01*
X34815500Y-23150000D01*
G75*
G02*
X34736000Y-23070500I0J79500D01*
G01*
X34736000Y-22869500D01*
G75*
G02*
X34815500Y-22790000I79500J0D01*
G01*
X34974500Y-22790000D01*
G75*
G02*
X35054000Y-22869500I0J-79500D01*
G01*
G37*
G36*
G01*
X34364000Y-22869500D02*
X34364000Y-23070500D01*
G75*
G02*
X34284500Y-23150000I-79500J0D01*
G01*
X34125500Y-23150000D01*
G75*
G02*
X34046000Y-23070500I0J79500D01*
G01*
X34046000Y-22869500D01*
G75*
G02*
X34125500Y-22790000I79500J0D01*
G01*
X34284500Y-22790000D01*
G75*
G02*
X34364000Y-22869500I0J-79500D01*
G01*
G37*
G36*
G01*
X41750500Y-25974000D02*
X41549500Y-25974000D01*
G75*
G02*
X41470000Y-25894500I0J79500D01*
G01*
X41470000Y-25735500D01*
G75*
G02*
X41549500Y-25656000I79500J0D01*
G01*
X41750500Y-25656000D01*
G75*
G02*
X41830000Y-25735500I0J-79500D01*
G01*
X41830000Y-25894500D01*
G75*
G02*
X41750500Y-25974000I-79500J0D01*
G01*
G37*
G36*
G01*
X41750500Y-25284000D02*
X41549500Y-25284000D01*
G75*
G02*
X41470000Y-25204500I0J79500D01*
G01*
X41470000Y-25045500D01*
G75*
G02*
X41549500Y-24966000I79500J0D01*
G01*
X41750500Y-24966000D01*
G75*
G02*
X41830000Y-25045500I0J-79500D01*
G01*
X41830000Y-25204500D01*
G75*
G02*
X41750500Y-25284000I-79500J0D01*
G01*
G37*
G36*
G01*
X34099500Y-25516000D02*
X34300500Y-25516000D01*
G75*
G02*
X34380000Y-25595500I0J-79500D01*
G01*
X34380000Y-25754500D01*
G75*
G02*
X34300500Y-25834000I-79500J0D01*
G01*
X34099500Y-25834000D01*
G75*
G02*
X34020000Y-25754500I0J79500D01*
G01*
X34020000Y-25595500D01*
G75*
G02*
X34099500Y-25516000I79500J0D01*
G01*
G37*
G36*
G01*
X34099500Y-26206000D02*
X34300500Y-26206000D01*
G75*
G02*
X34380000Y-26285500I0J-79500D01*
G01*
X34380000Y-26444500D01*
G75*
G02*
X34300500Y-26524000I-79500J0D01*
G01*
X34099500Y-26524000D01*
G75*
G02*
X34020000Y-26444500I0J79500D01*
G01*
X34020000Y-26285500D01*
G75*
G02*
X34099500Y-26206000I79500J0D01*
G01*
G37*
M02*
