M48
; DRILL file {KiCad (5.1.6)-1} date 12/05/20 12:50:28
; FORMAT={-:-/ absolute / inch / decimal}
; #@! TF.CreationDate,2020-12-05T12:50:28+08:00
; #@! TF.GenerationSoftware,Kicad,Pcbnew,(5.1.6)-1
; #@! TF.FileFunction,Plated,1,4,PTH
FMAT,2
INCH
T1C0.0157
T2C0.0236
T3C0.0276
T4C0.0354
%
G90
G05
T1
X0.6762Y-0.7596
X0.6762Y-0.7931
X0.6762Y-0.8266
X0.6762Y-0.86
X0.6762Y-0.8935
X0.6762Y-0.927
X0.6762Y-0.9604
X0.6762Y-0.9939
X0.7293Y-0.7596
X0.7293Y-0.7931
X0.7293Y-0.8266
X0.7293Y-0.86
X0.7293Y-0.8935
X0.7293Y-0.927
X0.7293Y-0.9604
X0.7293Y-0.9939
T3
X0.8055Y-0.7222
X0.8055Y-0.7722
T4
X1.179Y-0.7776
X1.179Y-0.8776
X1.179Y-0.9776
X1.179Y-1.0776
X0.8965Y-1.0638
X1.0146Y-1.0638
T2
G00X0.5419Y-0.7065
M15
G01X0.5734Y-0.7065
M16
G05
G00X0.5419Y-1.047
M15
G01X0.5734Y-1.047
M16
G05
G00X0.6612Y-0.7063
M15
G01X0.7203Y-0.7063
M16
G05
G00X0.6612Y-1.047
M15
G01X0.7203Y-1.047
M16
G05
T0
M30
