M48
; DRILL file {KiCad (5.1.6)-1} date 12/05/20 12:50:28
; FORMAT={-:-/ absolute / inch / decimal}
; #@! TF.CreationDate,2020-12-05T12:50:28+08:00
; #@! TF.GenerationSoftware,Kicad,Pcbnew,(5.1.6)-1
; #@! TF.FileFunction,Plated,3,4,Blind
FMAT,2
INCH
T1C0.0039
%
G90
G05
T1
X0.7913Y-0.8504
X0.8189Y-0.8661
X0.8671Y-0.8287
X0.8898Y-0.7638
X0.8921Y-0.8736
X0.8929Y-0.8957
X0.9146Y-0.9736
X0.9528Y-1.0984
X1.0039Y-0.8992
X1.0276Y-0.8988
X1.0443Y-0.7736
X1.0827Y-0.8583
X1.0827Y-0.8701
X1.0827Y-0.8819
X1.0945Y-0.8701
X1.0945Y-0.8819
X1.0965Y-0.7677
X1.1654Y-0.7047
X1.1663Y-0.6929
X1.1752Y-0.7008
X1.1772Y-0.689
X1.1969Y-0.71
X1.22Y-0.689
X1.2264Y-0.815
X1.25Y-0.7815
X1.3031Y-0.8012
X1.311Y-0.9744
X1.315Y-1.063
X1.3169Y-0.8366
X1.3189Y-0.8917
X1.3209Y-0.7815
X1.3209Y-0.9173
X1.3386Y-0.9213
X1.3425Y-1.0157
X1.3465Y-0.8346
X1.3494Y-1.0098
X1.3504Y-1.0472
X1.3504Y-1.0728
X1.3543Y-0.8819
X1.3612Y-1.0482
X1.3642Y-0.8681
X1.3701Y-0.7539
X1.3711Y-0.7677
X1.374Y-0.9055
X1.374Y-1.0266
X1.376Y-0.8228
X1.376Y-0.8386
X1.377Y-0.7411
X1.3809Y-1.0118
X1.3967Y-0.8346
X1.3996Y-0.7608
X1.4006Y-1.0531
X1.4026Y-0.923
X1.4085Y-1.06
X1.4094Y-0.8081
X1.4104Y-1.0325
X1.4173Y-0.7835
X1.4203Y-0.8091
X1.4262Y-1.0079
X1.4311Y-0.7844
X1.4311Y-0.9093
X1.4311Y-0.923
X1.4311Y-0.937
X1.4321Y-0.811
X1.4409Y-1.0197
X1.4449Y-0.9093
X1.4449Y-0.9368
X1.4449Y-0.9506
X1.4469Y-0.8445
X1.4488Y-0.8583
X1.4567Y-0.9774
X1.4587Y-0.9094
X1.4587Y-0.923
X1.4587Y-0.9368
X1.4587Y-0.9506
X1.4616Y-0.7746
X1.4626Y-0.7421
X1.4724Y-0.9093
X1.4724Y-0.923
X1.4724Y-0.9368
X1.4724Y-0.9506
X1.4754Y-1.0148
X1.4774Y-0.9793
X1.4783Y-1.0256
X1.4803Y-0.8602
X1.4807Y-0.7431
X1.4862Y-0.9093
X1.4862Y-0.9368
X1.4862Y-0.9506
X1.4892Y-1.0138
X1.497Y-1.0315
X1.5069Y-0.7911
X1.5108Y-0.8108
X1.5157Y-0.9587
X1.5157Y-0.9724
X1.5236Y-0.935
X1.5236Y-0.9843
X1.5246Y-1.0482
X1.5256Y-0.7559
X1.5256Y-0.8415
X1.5325Y-0.8327
X1.5354Y-0.9803
X1.5364Y-1.0738
X1.5394Y-0.8937
X1.5453Y-0.9646
X1.5581Y-0.7766
X1.5689Y-0.9882
X1.5728Y-0.8199
X1.5787Y-0.7756
X1.5827Y-0.7402
X1.5846Y-0.8228
X1.5984Y-0.9055
X1.6024Y-0.9665
X1.6024Y-1.0384
X1.6033Y-0.8701
X1.6063Y-0.8228
X1.6073Y-0.9862
X1.6083Y-1.0157
X1.6161Y-0.8169
X1.6201Y-1.0128
X1.628Y-0.7402
X1.6309Y-0.9665
X1.6348Y-0.9075
X1.6358Y-0.9843
X1.6457Y-0.9892
X1.6467Y-1.0492
X1.6476Y-0.8366
X1.6535Y-0.7441
X1.6535Y-1.061
X1.6555Y-0.9518
X1.6594Y-0.9075
X1.6673Y-1.0118
X1.6703Y-0.8809
X1.6713Y-0.7677
X1.6772Y-1.0187
X1.6791Y-0.9252
X1.6801Y-0.748
X1.6969Y-0.8701
X1.7106Y-1.0433
X1.7156Y-0.8533
X1.7165Y-0.751
X1.7165Y-0.9409
T0
M30
