G04 #@! TF.GenerationSoftware,KiCad,Pcbnew,(5.1.6)-1*
G04 #@! TF.CreationDate,2020-12-05T12:50:13+08:00*
G04 #@! TF.ProjectId,qomu-board,716f6d75-2d62-46f6-9172-642e6b696361,rev?*
G04 #@! TF.SameCoordinates,Original*
G04 #@! TF.FileFunction,Profile,NP*
%FSLAX46Y46*%
G04 Gerber Fmt 4.6, Leading zero omitted, Abs format (unit mm)*
G04 Created by KiCad (PCBNEW (5.1.6)-1) date 2020-12-05 12:50:13*
%MOMM*%
%LPD*%
G01*
G04 APERTURE LIST*
G04 #@! TA.AperFunction,Profile*
%ADD10C,0.050000*%
G04 #@! TD*
G04 #@! TA.AperFunction,Profile*
%ADD11C,0.010000*%
G04 #@! TD*
G04 APERTURE END LIST*
D10*
X32773000Y-18616000D02*
G75*
G02*
X32173000Y-18616000I-300000J0D01*
G01*
X32173000Y-27016000D02*
G75*
G02*
X32773000Y-27016000I300000J0D01*
G01*
X32180000Y-28262000D02*
X32173000Y-27016000D01*
X32173000Y-18616000D02*
X32166000Y-17370000D01*
X32180000Y-28262000D02*
G75*
G02*
X31530000Y-28912000I-650000J0D01*
G01*
X13114000Y-28912000D02*
G75*
G02*
X12464000Y-28262000I0J650000D01*
G01*
X12450000Y-17370000D02*
G75*
G02*
X13100000Y-16720000I650000J0D01*
G01*
X31516000Y-16720000D02*
G75*
G02*
X32166000Y-17370000I0J-650000D01*
G01*
X13114000Y-28912000D02*
X31530000Y-28912000D01*
X12450000Y-17370000D02*
X12464000Y-28262000D01*
X31516000Y-16720000D02*
X13100000Y-16720000D01*
X45673000Y-25166000D02*
X45683000Y-25046000D01*
X45683000Y-25046000D02*
X45693000Y-24916000D01*
X45773000Y-23216000D02*
X45773000Y-23086000D01*
X45763000Y-23486000D02*
X45773000Y-23356000D01*
X45443000Y-26896000D02*
X45463000Y-26796000D01*
X45753000Y-23886000D02*
X45763000Y-23756000D01*
X45533000Y-26406000D02*
X45543000Y-26306000D01*
X45543000Y-26306000D02*
X45563000Y-26196000D01*
X45423000Y-26976000D02*
X45443000Y-26896000D01*
X45353000Y-27316000D02*
X45373000Y-27236000D01*
X45603000Y-25876000D02*
X45613000Y-25756000D01*
X45763000Y-23626000D02*
X45763000Y-23486000D01*
X45373000Y-27236000D02*
X45393000Y-27156000D01*
X45633000Y-25646000D02*
X45643000Y-25526000D01*
X45393000Y-27156000D02*
X45403000Y-27066000D01*
X45613000Y-25756000D02*
X45633000Y-25646000D01*
X45773000Y-23086000D02*
X45773000Y-22946000D01*
X45663000Y-25286000D02*
X45673000Y-25166000D01*
X45723000Y-24546000D02*
X45733000Y-24416000D01*
X45493000Y-26606000D02*
X45513000Y-26506000D01*
X45713000Y-24666000D02*
X45723000Y-24546000D01*
X45733000Y-24416000D02*
X45733000Y-24286000D01*
X45703000Y-24796000D02*
X45713000Y-24666000D01*
X45773000Y-22946000D02*
X45773000Y-22816000D01*
X45773000Y-23356000D02*
X45773000Y-23216000D01*
X45563000Y-19436000D02*
X45543000Y-19326000D01*
X45693000Y-24916000D02*
X45703000Y-24796000D01*
X45463000Y-26796000D02*
X45483000Y-26706000D01*
X45563000Y-26196000D02*
X45573000Y-26096000D01*
X45743000Y-24156000D02*
X45753000Y-24026000D01*
X45483000Y-26706000D02*
X45493000Y-26606000D01*
X45593000Y-25986000D02*
X45603000Y-25876000D01*
X45643000Y-25526000D02*
X45653000Y-25406000D01*
X45753000Y-24026000D02*
X45753000Y-23886000D01*
X45573000Y-26096000D02*
X45593000Y-25986000D01*
X45513000Y-26506000D02*
X45533000Y-26406000D01*
X45763000Y-23756000D02*
X45763000Y-23626000D01*
X45653000Y-25406000D02*
X45663000Y-25286000D01*
X45733000Y-24286000D02*
X45743000Y-24156000D01*
X45403000Y-27066000D02*
X45423000Y-26976000D01*
X45483000Y-18926000D02*
X45463000Y-18836000D01*
X45443000Y-18736000D02*
X45423000Y-18656000D01*
X45333000Y-27386000D02*
X45353000Y-27316000D01*
X45373000Y-18396000D02*
X45353000Y-18316000D01*
X45303000Y-27466000D02*
X45333000Y-27386000D01*
X45593000Y-19646000D02*
X45573000Y-19536000D01*
X45543000Y-19326000D02*
X45533000Y-19226000D01*
X45723000Y-21086000D02*
X45713000Y-20966000D01*
X45273000Y-27516000D02*
X45303000Y-27466000D01*
X45763000Y-21876000D02*
X45753000Y-21746000D01*
X45773000Y-22686000D02*
X45773000Y-22546000D01*
X45303000Y-18166000D02*
X45273000Y-18116000D01*
X45693000Y-20716000D02*
X45683000Y-20586000D01*
X45773000Y-22416000D02*
X45773000Y-22276000D01*
X45603000Y-19756000D02*
X45593000Y-19646000D01*
X45733000Y-21216000D02*
X45723000Y-21086000D01*
X45463000Y-18836000D02*
X45443000Y-18736000D01*
X45613000Y-19876000D02*
X45603000Y-19756000D01*
X45743000Y-21476000D02*
X45733000Y-21346000D01*
X45333000Y-18246000D02*
X45303000Y-18166000D01*
X45663000Y-20346000D02*
X45653000Y-20226000D01*
X45773000Y-22546000D02*
X45773000Y-22416000D01*
X45753000Y-21746000D02*
X45753000Y-21606000D01*
X45753000Y-21606000D02*
X45743000Y-21476000D01*
X45353000Y-18316000D02*
X45333000Y-18246000D01*
X45733000Y-21346000D02*
X45733000Y-21216000D01*
X45403000Y-18566000D02*
X45393000Y-18476000D01*
X45773000Y-22816000D02*
X45773000Y-22686000D01*
X45533000Y-19226000D02*
X45513000Y-19126000D01*
X45633000Y-19986000D02*
X45613000Y-19876000D01*
X45673000Y-20466000D02*
X45663000Y-20346000D01*
X45643000Y-20106000D02*
X45633000Y-19986000D01*
X45683000Y-20586000D02*
X45673000Y-20466000D01*
X45773000Y-22276000D02*
X45763000Y-22146000D01*
X45423000Y-18656000D02*
X45403000Y-18566000D01*
X45393000Y-18476000D02*
X45373000Y-18396000D01*
X45493000Y-19026000D02*
X45483000Y-18926000D01*
X45513000Y-19126000D02*
X45493000Y-19026000D01*
X45763000Y-22006000D02*
X45763000Y-21876000D01*
X45713000Y-20966000D02*
X45703000Y-20836000D01*
X45703000Y-20836000D02*
X45693000Y-20716000D01*
X45763000Y-22146000D02*
X45763000Y-22006000D01*
X45573000Y-19536000D02*
X45563000Y-19436000D01*
X45653000Y-20226000D02*
X45643000Y-20106000D01*
X33273000Y-18116000D02*
X45273000Y-18116000D01*
X32773000Y-27016000D02*
G75*
G03*
X33273000Y-27516000I500000J0D01*
G01*
D11*
X45073000Y-23666000D02*
G75*
G02*
X43873000Y-23666000I-600000J0D01*
G01*
X45073000Y-21966000D02*
G75*
G03*
X43873000Y-21966000I-600000J0D01*
G01*
X43873000Y-21966000D02*
G75*
G03*
X43873000Y-23666000I0J-850000D01*
G01*
D10*
X44248000Y-27516000D02*
G75*
G03*
X42648000Y-27516000I-800000J0D01*
G01*
X44248000Y-27516000D02*
X45273000Y-27516000D01*
D11*
X45073000Y-21966000D02*
X45073000Y-23666000D01*
D10*
X33273000Y-18116000D02*
G75*
G03*
X32773000Y-18616000I0J-500000D01*
G01*
X33273000Y-27516000D02*
X42648000Y-27516000D01*
M02*
